<svg width="280" height="200" viewBox="0 0 280 200" fill="none" xmlns="http://www.w3.org/2000/svg">
<rect width="280" height="200" rx="8" fill="url(#paint0_linear_249_658)"/>
<g clip-path="url(#clip0_249_658)">
<g opacity="0.3">
<path d="M141.517 99.2225L137.647 101.491L136.768 100.985L139.846 99.1785L138.725 98.9582L139.252 98.4736L140.769 98.782L141.517 99.2225Z" fill="#FFD2CD"/>
<path d="M137.647 96.9097C138.703 97.5044 138.175 98.2754 137.12 98.9141C135.91 99.619 134.613 99.8172 133.624 99.2445C132.613 98.6719 133.074 97.8789 134.152 97.2401C135.273 96.5793 136.636 96.3371 137.647 96.9318V96.9097ZM134.328 98.8481C134.679 99.0463 135.317 98.9141 136.196 98.3855C137.054 97.8789 137.318 97.5265 136.944 97.3062C136.614 97.108 135.954 97.2181 135.053 97.7467C134.152 98.2534 133.954 98.6278 134.306 98.8481H134.328Z" fill="#FFD2CD"/>
<path d="M134.306 94.9713C135.361 95.566 134.833 96.359 133.778 96.9757C132.569 97.6806 131.272 97.8788 130.26 97.2841C129.249 96.7114 129.711 95.9185 130.81 95.2797C131.931 94.6189 133.294 94.3766 134.306 94.9713ZM130.986 96.9096C131.338 97.1079 131.975 96.9757 132.855 96.4471C133.712 95.9405 133.976 95.588 133.602 95.3678C133.272 95.1695 132.613 95.2797 131.711 95.8083C130.832 96.3149 130.612 96.6894 130.964 96.9096H130.986Z" fill="#FFD2CD"/>
<path d="M151.52 105.015L147.651 107.262L146.771 106.755L149.827 104.971L148.728 104.729L149.256 104.244L150.773 104.575L151.52 105.015Z" fill="#FFD2CD"/>
<path d="M154.312 106.535C155.368 107.13 154.84 107.901 153.785 108.518C152.576 109.223 151.278 109.421 150.289 108.848C149.278 108.275 149.739 107.482 150.817 106.844C151.938 106.183 153.301 105.941 154.312 106.535ZM150.993 108.474C151.344 108.672 151.982 108.54 152.861 108.011C153.719 107.504 153.983 107.13 153.609 106.932C153.279 106.734 152.62 106.844 151.718 107.372C150.817 107.879 150.619 108.253 150.971 108.474H150.993Z" fill="#FFD2CD"/>
<path d="M144.309 100.764C145.342 101.359 144.837 102.13 143.781 102.769C142.594 103.473 141.275 103.672 140.286 103.099C139.274 102.526 139.736 101.733 140.813 101.095C141.935 100.434 143.298 100.192 144.309 100.786V100.764ZM140.989 102.703C141.341 102.901 141.979 102.769 142.858 102.24C143.715 101.733 143.979 101.381 143.605 101.161C143.276 100.962 142.616 101.073 141.715 101.601C140.835 102.108 140.615 102.482 140.967 102.703H140.989Z" fill="#FFD2CD"/>
<path d="M147.651 102.68C148.706 103.275 148.178 104.046 147.123 104.685C145.914 105.39 144.617 105.588 143.627 105.015C142.616 104.421 143.078 103.65 144.155 103.011C145.276 102.35 146.639 102.108 147.651 102.703V102.68ZM144.331 104.619C144.683 104.817 145.32 104.685 146.2 104.156C147.057 103.65 147.321 103.275 146.947 103.077C146.617 102.879 145.958 102.989 145.056 103.517C144.177 104.024 143.957 104.399 144.309 104.619H144.331Z" fill="#FFD2CD"/>
<path d="M157.632 108.473C158.666 109.068 158.16 109.861 157.105 110.478C155.917 111.183 154.598 111.381 153.609 110.808C152.598 110.214 153.059 109.443 154.137 108.804C155.258 108.143 156.621 107.901 157.632 108.495V108.473ZM154.312 110.412C154.664 110.61 155.302 110.478 156.181 109.949C157.039 109.443 157.302 109.068 156.929 108.87C156.599 108.672 155.939 108.782 155.038 109.31C154.159 109.817 153.939 110.192 154.29 110.412H154.312Z" fill="#FFD2CD"/>
<path d="M168.185 114.641L164.316 116.91L163.437 116.403L166.492 114.597L165.393 114.377L165.921 113.892L167.416 114.2L168.185 114.641Z" fill="#FFD2CD"/>
<path d="M160.974 110.39C162.029 110.984 161.502 111.777 160.446 112.394C159.237 113.099 157.94 113.297 156.951 112.725C155.939 112.13 156.401 111.359 157.478 110.72C158.6 110.059 159.963 109.817 160.974 110.412V110.39ZM157.654 112.328C158.006 112.526 158.644 112.394 159.523 111.865C160.38 111.359 160.644 110.984 160.27 110.786C159.941 110.588 159.281 110.698 158.402 111.227C157.5 111.733 157.302 112.108 157.654 112.328Z" fill="#FFD2CD"/>
<path d="M164.844 112.725L160.974 114.971L160.095 114.465L163.173 112.68L162.051 112.438L162.579 111.954L164.096 112.284L164.844 112.725Z" fill="#FFD2CD"/>
<path d="M170.955 116.183C172.011 116.777 171.483 117.548 170.428 118.187C169.219 118.892 167.921 119.09 166.932 118.517C165.921 117.923 166.382 117.152 167.46 116.513C168.581 115.852 169.944 115.61 170.955 116.205V116.183ZM167.614 118.121C167.965 118.319 168.603 118.187 169.482 117.658C170.34 117.152 170.604 116.799 170.23 116.579C169.9 116.381 169.241 116.491 168.361 117.02C167.46 117.526 167.262 117.901 167.614 118.099V118.121Z" fill="#FFD2CD"/>
<path d="M134.372 103.385L130.502 105.654L129.623 105.147L132.679 103.363L131.58 103.121L132.107 102.636L133.602 102.967L134.372 103.385Z" fill="#FFD2CD"/>
<path d="M137.692 105.324L133.822 107.571L132.943 107.064L136.021 105.28L134.9 105.038L135.427 104.575L136.944 104.883L137.692 105.324Z" fill="#FFD2CD"/>
<path d="M141.034 107.24L137.164 109.509L136.285 109.002L139.341 107.218L138.241 106.976L138.769 106.491L140.286 106.822L141.034 107.24Z" fill="#FFD2CD"/>
<path d="M143.826 108.782C144.859 109.377 144.353 110.169 143.298 110.786C142.111 111.491 140.792 111.689 139.802 111.117C138.791 110.522 139.253 109.751 140.33 109.112C141.451 108.451 142.814 108.209 143.826 108.804V108.782ZM140.506 110.72C140.858 110.918 141.495 110.786 142.375 110.258C143.232 109.751 143.496 109.377 143.122 109.178C142.792 108.98 142.133 109.09 141.231 109.619C140.352 110.125 140.132 110.5 140.484 110.72H140.506Z" fill="#FFD2CD"/>
<path d="M157.148 116.491C158.204 117.086 157.676 117.857 156.621 118.495C155.411 119.2 154.114 119.399 153.125 118.826C152.114 118.231 152.575 117.46 153.653 116.821C154.774 116.161 156.137 115.918 157.148 116.513V116.491ZM153.829 118.429C154.18 118.628 154.818 118.495 155.697 117.967C156.555 117.46 156.819 117.086 156.445 116.888C156.115 116.689 155.455 116.799 154.554 117.328C153.675 117.835 153.455 118.209 153.807 118.429H153.829Z" fill="#FFD2CD"/>
<path d="M154.356 114.971L150.487 117.218L149.607 116.711L152.663 114.927L151.564 114.685L152.092 114.2L153.609 114.531L154.356 114.971Z" fill="#FFD2CD"/>
<path d="M150.487 112.637C151.542 113.231 151.015 114.024 149.96 114.641C148.75 115.346 147.453 115.544 146.464 114.971C145.453 114.377 145.914 113.606 146.992 112.967C148.113 112.306 149.498 112.064 150.487 112.659V112.637ZM147.167 114.575C147.519 114.773 148.157 114.641 149.036 114.112C149.894 113.606 150.157 113.231 149.784 113.033C149.454 112.835 148.794 112.945 147.893 113.474C146.992 113.98 146.794 114.355 147.145 114.553L147.167 114.575Z" fill="#FFD2CD"/>
<path d="M147.145 110.698C148.201 111.293 147.673 112.086 146.618 112.702C145.409 113.407 144.111 113.606 143.122 113.033C142.111 112.438 142.572 111.667 143.65 111.028C144.771 110.368 146.134 110.125 147.145 110.72V110.698ZM143.826 112.636C144.177 112.835 144.815 112.702 145.694 112.174C146.552 111.667 146.816 111.293 146.442 111.095C146.112 110.896 145.453 111.006 144.551 111.535C143.65 112.042 143.452 112.416 143.804 112.636H143.826Z" fill="#FFD2CD"/>
<path d="M163.81 120.346C164.865 120.94 164.338 121.733 163.282 122.35C162.073 123.055 160.776 123.253 159.787 122.681C158.775 122.086 159.237 121.315 160.314 120.676C161.436 120.015 162.821 119.773 163.81 120.368V120.346ZM160.468 122.284C160.82 122.482 161.458 122.35 162.337 121.822C163.194 121.315 163.458 120.963 163.084 120.742C162.755 120.544 162.095 120.654 161.194 121.183C160.314 121.689 160.094 122.064 160.446 122.262L160.468 122.284Z" fill="#FFD2CD"/>
<path d="M160.468 118.408C161.523 119.002 160.996 119.795 159.94 120.412C158.731 121.117 157.434 121.315 156.445 120.742C155.433 120.148 155.895 119.377 156.972 118.738C158.094 118.077 159.457 117.835 160.468 118.43V118.408ZM157.126 120.346C157.478 120.544 158.116 120.412 158.995 119.905C159.853 119.399 160.116 119.024 159.743 118.826C159.413 118.628 158.753 118.738 157.852 119.267C156.972 119.773 156.753 120.148 157.104 120.346H157.126Z" fill="#FFD2CD"/>
<path d="M149.981 120.654C151.037 121.249 150.509 122.02 149.454 122.659C148.244 123.363 146.947 123.562 145.958 122.989C144.947 122.394 145.408 121.623 146.486 120.985C147.607 120.324 148.992 120.081 149.981 120.676V120.654ZM146.662 122.592C147.013 122.791 147.651 122.659 148.53 122.13C149.388 121.623 149.652 121.249 149.278 121.051C148.948 120.852 148.288 120.962 147.387 121.491C146.486 121.998 146.288 122.372 146.64 122.592H146.662Z" fill="#FFD2CD"/>
<path d="M156.643 124.509C157.698 125.104 157.171 125.897 156.115 126.513C154.906 127.218 153.609 127.416 152.62 126.844C151.608 126.249 152.07 125.478 153.147 124.839C154.269 124.178 155.632 123.936 156.643 124.531V124.509ZM153.301 126.447C153.653 126.645 154.291 126.513 155.17 125.985C156.027 125.478 156.291 125.126 155.917 124.905C155.588 124.707 154.928 124.817 154.027 125.346C153.147 125.852 152.927 126.227 153.279 126.425L153.301 126.447Z" fill="#FFD2CD"/>
<path d="M153.323 122.592C154.356 123.187 153.851 123.958 152.795 124.597C151.608 125.302 150.289 125.5 149.3 124.927C148.288 124.354 148.75 123.562 149.827 122.923C150.949 122.262 152.312 122.02 153.323 122.614V122.592ZM149.981 124.531C150.333 124.729 150.971 124.597 151.85 124.068C152.708 123.562 152.971 123.187 152.598 122.989C152.268 122.791 151.608 122.901 150.707 123.429C149.827 123.936 149.608 124.31 149.959 124.509L149.981 124.531Z" fill="#FFD2CD"/>
<path d="M146.661 118.738C147.695 119.333 147.189 120.126 146.134 120.742C144.925 121.447 143.628 121.645 142.638 121.073C141.627 120.478 142.089 119.707 143.166 119.068C144.287 118.407 145.65 118.165 146.661 118.76V118.738ZM143.342 120.676C143.693 120.874 144.331 120.742 145.21 120.214C146.068 119.707 146.332 119.333 145.958 119.134C145.628 118.936 144.969 119.046 144.067 119.575C143.166 120.081 142.968 120.456 143.32 120.676H143.342Z" fill="#FFD2CD"/>
<path d="M143.869 117.196L140 119.465L139.121 118.936L142.177 117.152L141.077 116.932L141.605 116.447L143.122 116.755L143.869 117.196Z" fill="#FFD2CD"/>
<path d="M140.55 115.28L136.658 117.526L135.779 117.02L138.857 115.236L137.736 114.993L138.263 114.509L139.78 114.839L140.55 115.28Z" fill="#FFD2CD"/>
<path d="M137.208 113.341L133.338 115.61L132.459 115.082L135.515 113.297L134.416 113.077L134.943 112.593L136.46 112.901L137.208 113.341Z" fill="#FFD2CD"/>
<path d="M126.171 115.191C127.227 115.786 126.699 116.557 125.644 117.196C124.434 117.901 123.137 118.099 122.148 117.526C121.137 116.932 121.598 116.161 122.676 115.522C123.797 114.861 125.16 114.619 126.171 115.214V115.191ZM122.851 117.13C123.203 117.328 123.841 117.196 124.72 116.667C125.578 116.161 125.841 115.786 125.468 115.588C125.138 115.39 124.478 115.5 123.577 116.028C122.698 116.535 122.478 116.91 122.829 117.13H122.851Z" fill="#FFD2CD"/>
<path d="M122.829 113.253C123.885 113.848 123.357 114.641 122.302 115.258C121.115 115.963 119.795 116.161 118.806 115.588C117.795 115.015 118.257 114.222 119.334 113.584C120.455 112.923 121.84 112.681 122.829 113.275V113.253ZM119.51 115.192C119.861 115.39 120.499 115.258 121.378 114.729C122.236 114.222 122.5 113.848 122.126 113.65C121.796 113.451 121.137 113.562 120.235 114.09C119.334 114.597 119.136 114.971 119.488 115.192H119.51Z" fill="#FFD2CD"/>
<path d="M119.51 111.337C120.565 111.932 120.037 112.725 118.982 113.341C117.773 114.046 116.476 114.244 115.486 113.672C114.475 113.099 114.937 112.306 116.014 111.667C117.135 111.007 118.498 110.764 119.51 111.359V111.337ZM116.19 113.275C116.542 113.474 117.179 113.341 118.059 112.813C118.916 112.306 119.18 111.932 118.806 111.733C118.476 111.535 117.817 111.645 116.915 112.174C116.014 112.681 115.816 113.055 116.168 113.275H116.19Z" fill="#FFD2CD"/>
<path d="M116.718 109.795L112.848 112.064L111.969 111.557L115.025 109.751L113.925 109.531L114.453 109.046L115.97 109.355L116.718 109.795Z" fill="#FFD2CD"/>
<path d="M132.833 119.046C133.866 119.641 133.361 120.434 132.305 121.051C131.096 121.755 129.799 121.954 128.81 121.381C127.798 120.786 128.26 120.015 129.337 119.377C130.458 118.716 131.822 118.474 132.833 119.068V119.046ZM129.513 120.985C129.865 121.183 130.502 121.051 131.382 120.522C132.239 120.015 132.503 119.641 132.129 119.443C131.8 119.244 131.14 119.355 130.239 119.883C129.337 120.39 129.139 120.764 129.491 120.985H129.513Z" fill="#FFD2CD"/>
<path d="M130.041 117.504L126.171 119.773L125.292 119.266L128.37 117.46L127.249 117.24L127.776 116.755L129.293 117.086L130.041 117.504Z" fill="#FFD2CD"/>
<path d="M136.175 120.962C137.23 121.557 136.702 122.328 135.647 122.967C134.46 123.672 133.141 123.87 132.151 123.297C131.14 122.703 131.602 121.932 132.679 121.293C133.8 120.632 135.163 120.39 136.175 120.985V120.962ZM132.855 122.901C133.207 123.099 133.844 122.967 134.724 122.438C135.581 121.932 135.845 121.557 135.471 121.359C135.141 121.161 134.482 121.271 133.58 121.799C132.679 122.306 132.481 122.681 132.833 122.901H132.855Z" fill="#FFD2CD"/>
<path d="M149.497 128.672C150.531 129.266 150.025 130.059 148.97 130.676C147.761 131.381 146.463 131.579 145.474 131.007C144.463 130.412 144.924 129.641 146.002 129.002C147.123 128.341 148.486 128.099 149.497 128.694V128.672ZM146.156 130.61C146.507 130.808 147.145 130.676 148.024 130.147C148.882 129.641 149.146 129.266 148.772 129.068C148.442 128.87 147.783 128.98 146.881 129.509C145.98 130.015 145.782 130.39 146.134 130.588L146.156 130.61Z" fill="#FFD2CD"/>
<path d="M139.495 122.901C140.55 123.495 140.022 124.266 138.967 124.905C137.78 125.61 136.461 125.808 135.471 125.236C134.46 124.641 134.922 123.87 135.999 123.231C137.12 122.57 138.483 122.328 139.495 122.923V122.901ZM136.175 124.839C136.526 125.037 137.164 124.905 138.043 124.376C138.901 123.87 139.165 123.495 138.813 123.297C138.483 123.099 137.824 123.209 136.922 123.738C136.043 124.244 135.823 124.619 136.175 124.839Z" fill="#FFD2CD"/>
<path d="M143.386 125.213L139.495 127.482L138.615 126.976L141.693 125.191L140.572 124.949L141.122 124.465L142.617 124.773L143.386 125.213Z" fill="#FFD2CD"/>
<path d="M146.156 126.755C147.211 127.35 146.684 128.121 145.628 128.738C144.419 129.442 143.122 129.641 142.133 129.068C141.121 128.473 141.583 127.702 142.66 127.064C143.782 126.403 145.167 126.161 146.156 126.755ZM142.814 128.694C143.166 128.892 143.804 128.76 144.683 128.231C145.541 127.724 145.804 127.35 145.431 127.152C145.101 126.953 144.441 127.064 143.54 127.592C142.638 128.099 142.441 128.473 142.792 128.672L142.814 128.694Z" fill="#FFD2CD"/>
<path d="M89.016 102.02C90.0713 102.614 89.5436 103.407 88.4883 104.024C87.2791 104.729 85.982 104.927 84.9707 104.332C83.9593 103.76 84.421 102.967 85.5203 102.328C86.6415 101.667 88.0046 101.425 89.016 102.02ZM85.6962 103.958C86.0479 104.156 86.6855 104.024 87.5649 103.495C88.4224 102.989 88.6862 102.614 88.3124 102.416C87.9826 102.218 87.3231 102.328 86.4217 102.857C85.5423 103.363 85.3224 103.738 85.6742 103.958H85.6962Z" fill="#FFD2CD"/>
<path d="M99.5689 108.187L95.6995 110.434L94.8201 109.927L97.876 108.143L96.7768 107.923L97.3044 107.438L98.8214 107.747L99.5689 108.187Z" fill="#FFD2CD"/>
<path d="M95.6776 105.874C96.7329 106.469 96.2052 107.262 95.1499 107.879C93.9407 108.584 92.6436 108.782 91.6323 108.187C90.621 107.614 91.0826 106.822 92.1819 106.183C93.3032 105.522 94.6663 105.28 95.6776 105.874ZM92.3578 107.813C92.7096 108.011 93.3471 107.879 94.2265 107.35C95.084 106.844 95.3478 106.491 94.974 106.271C94.6443 106.073 93.9847 106.183 93.0833 106.711C92.1819 107.218 91.984 107.592 92.3358 107.813H92.3578Z" fill="#FFD2CD"/>
<path d="M92.9073 104.333L89.0379 106.579L88.1365 106.073L91.2144 104.289L90.1152 104.068L90.6428 103.584L92.1378 103.892L92.9073 104.333Z" fill="#FFD2CD"/>
<path d="M102.889 110.125L99.0193 112.372L98.1399 111.866L101.218 110.081L100.097 109.839L100.624 109.354L102.141 109.685L102.889 110.125Z" fill="#FFD2CD"/>
<path d="M105.681 111.645C106.736 112.24 106.208 113.033 105.153 113.65C103.944 114.355 102.647 114.553 101.635 113.958C100.624 113.385 101.086 112.593 102.185 111.954C103.306 111.293 104.669 111.051 105.681 111.645ZM102.361 113.584C102.713 113.782 103.35 113.65 104.23 113.121C105.087 112.615 105.351 112.24 104.977 112.042C104.647 111.844 103.988 111.954 103.086 112.482C102.185 112.989 101.987 113.363 102.339 113.584H102.361Z" fill="#FFD2CD"/>
<path d="M109.572 113.98L105.681 116.227L104.801 115.72L107.879 113.936L106.758 113.694L107.308 113.209L108.803 113.54L109.572 113.98Z" fill="#FFD2CD"/>
<path d="M112.892 115.896L109.022 118.143L108.143 117.636L111.199 115.852L110.1 115.632L110.627 115.147L112.144 115.456L112.892 115.896Z" fill="#FFD2CD"/>
<path d="M115.684 117.438C116.739 118.033 116.212 118.804 115.156 119.443C113.947 120.148 112.65 120.346 111.661 119.773C110.649 119.2 111.111 118.407 112.188 117.769C113.31 117.108 114.673 116.866 115.684 117.46V117.438ZM112.364 119.377C112.716 119.575 113.354 119.443 114.233 118.914C115.09 118.407 115.354 118.033 114.98 117.835C114.651 117.637 113.991 117.747 113.09 118.275C112.188 118.782 111.99 119.156 112.342 119.377H112.364Z" fill="#FFD2CD"/>
<path d="M125.665 123.209C126.721 123.804 126.193 124.575 125.138 125.214C123.951 125.919 122.631 126.117 121.642 125.544C120.631 124.971 121.092 124.178 122.17 123.54C123.291 122.879 124.654 122.637 125.665 123.231V123.209ZM122.346 125.148C122.697 125.346 123.335 125.214 124.214 124.685C125.072 124.178 125.336 123.804 124.962 123.606C124.632 123.408 123.973 123.518 123.071 124.046C122.192 124.553 121.972 124.927 122.324 125.148H122.346Z" fill="#FFD2CD"/>
<path d="M122.895 121.689L119.026 123.936L118.125 123.429L121.202 121.645L120.103 121.403L120.631 120.918L122.126 121.249L122.895 121.689Z" fill="#FFD2CD"/>
<path d="M119.554 119.751L115.684 121.998L114.805 121.491L117.883 119.707L116.761 119.487L117.289 119.002L118.806 119.311L119.554 119.751Z" fill="#FFD2CD"/>
<path d="M129.557 125.544L125.688 127.791L124.808 127.284L127.864 125.5L126.765 125.258L127.292 124.773L128.787 125.104L129.557 125.544Z" fill="#FFD2CD"/>
<path d="M132.899 127.46L129.007 129.707L128.128 129.2L131.206 127.416L130.085 127.196L130.612 126.711L132.129 127.02L132.899 127.46Z" fill="#FFD2CD"/>
<path d="M139.011 130.918C140.066 131.513 139.538 132.284 138.483 132.901C137.274 133.606 135.977 133.804 134.987 133.231C133.976 132.658 134.438 131.865 135.515 131.227C136.636 130.566 137.999 130.324 139.011 130.918ZM135.669 132.857C136.021 133.055 136.658 132.923 137.538 132.394C138.395 131.887 138.659 131.535 138.285 131.315C137.955 131.117 137.296 131.227 136.394 131.755C135.515 132.262 135.295 132.636 135.647 132.835L135.669 132.857Z" fill="#FFD2CD"/>
<path d="M136.219 129.399L132.349 131.645L131.47 131.139L134.526 129.355L133.426 129.112L133.954 128.628L135.471 128.958L136.219 129.399Z" fill="#FFD2CD"/>
<path d="M142.33 132.857C143.386 133.451 142.858 134.222 141.803 134.861C140.594 135.566 139.296 135.764 138.307 135.192C137.296 134.597 137.757 133.826 138.835 133.187C139.956 132.526 141.341 132.284 142.33 132.879V132.857ZM138.989 134.795C139.34 134.993 139.978 134.861 140.857 134.333C141.715 133.826 141.979 133.473 141.605 133.253C141.275 133.055 140.616 133.165 139.714 133.694C138.813 134.2 138.615 134.575 138.967 134.773L138.989 134.795Z" fill="#FFD2CD"/>
</g>
<path d="M100.272 82.7466C100.272 84.3765 101.152 85.9624 103.043 87.4382L105.307 88.6937L151.3 114.465C151.652 114.685 152.004 114.905 152.356 115.103C152.686 115.302 153.037 115.5 153.411 115.676C153.587 115.764 153.785 115.852 153.961 115.94L154.312 116.117C154.95 116.425 155.588 116.689 156.247 116.954C156.357 116.998 156.489 117.042 156.599 117.086C157.127 117.284 157.654 117.46 158.182 117.636C158.336 117.681 158.468 117.725 158.622 117.769C158.973 117.879 159.303 117.967 159.655 118.055C160.073 118.165 160.512 118.275 160.93 118.363C161.304 118.451 161.678 118.518 162.073 118.584C162.403 118.65 162.733 118.716 163.063 118.76C163.48 118.826 163.898 118.87 164.338 118.914C164.624 118.936 164.909 118.98 165.195 119.002C165.657 119.046 166.097 119.068 166.558 119.09C166.822 119.09 167.086 119.134 167.35 119.134C167.767 119.134 168.185 119.134 168.603 119.134C168.933 119.134 169.24 119.134 169.57 119.134C169.834 119.134 170.098 119.112 170.34 119.09C170.867 119.068 171.395 119.024 171.923 118.98C172.56 118.914 173.176 118.848 173.791 118.76C173.901 118.76 174.033 118.716 174.143 118.694C174.605 118.628 175.067 118.54 175.528 118.451C176.012 118.363 176.474 118.253 176.957 118.143C177.265 118.077 177.551 118.011 177.859 117.923C178.364 117.791 178.848 117.636 179.354 117.504C179.618 117.416 179.903 117.35 180.167 117.262C180.431 117.174 180.673 117.086 180.937 116.998C181.332 116.866 181.75 116.711 182.146 116.557C182.41 116.447 182.674 116.337 182.937 116.227C183.311 116.073 183.685 115.918 184.037 115.742C184.3 115.61 184.564 115.478 184.85 115.346C185.202 115.169 185.532 114.993 185.883 114.817C186.147 114.663 186.411 114.531 186.675 114.377C187.137 114.112 187.598 113.848 188.06 113.54C188.522 113.231 188.961 112.923 189.379 112.614C189.423 112.57 189.489 112.526 189.533 112.504C189.907 112.196 190.28 111.888 190.632 111.579C190.698 111.513 190.764 111.469 190.83 111.403C191.094 111.161 191.358 110.896 191.6 110.632C191.622 110.61 191.644 110.588 191.666 110.566C191.885 110.324 192.083 110.081 192.281 109.839C192.347 109.751 192.413 109.685 192.479 109.597C192.589 109.443 192.721 109.288 192.831 109.134C192.897 109.046 192.941 108.958 193.007 108.892C193.139 108.694 193.248 108.518 193.358 108.319C193.38 108.275 193.424 108.209 193.446 108.165C193.578 107.945 193.688 107.703 193.798 107.46C193.82 107.394 193.842 107.328 193.886 107.284C193.974 107.108 194.04 106.932 194.106 106.777C194.15 106.689 194.172 106.579 194.216 106.491C194.26 106.359 194.304 106.227 194.348 106.073C194.37 105.984 194.392 105.874 194.436 105.786C194.48 105.654 194.502 105.5 194.546 105.368C194.546 105.28 194.59 105.169 194.612 105.081C194.634 104.927 194.656 104.795 194.678 104.641C194.678 104.553 194.7 104.443 194.721 104.355C194.721 104.2 194.743 104.068 194.743 103.914C194.743 103.782 194.743 103.65 194.743 103.495C194.743 105.61 194.743 107.725 194.743 109.817C194.743 109.883 194.743 109.971 194.743 110.037C194.743 110.103 194.743 110.169 194.743 110.236C194.743 110.368 194.743 110.5 194.721 110.632C194.721 110.742 194.7 110.852 194.678 110.94C194.678 111.073 194.634 111.205 194.612 111.337C194.612 111.403 194.612 111.469 194.59 111.513C194.59 111.557 194.568 111.601 194.568 111.645C194.546 111.777 194.502 111.91 194.48 112.042C194.458 112.13 194.436 112.24 194.392 112.328C194.348 112.46 194.304 112.614 194.26 112.747C194.238 112.813 194.216 112.901 194.194 112.967C194.194 112.989 194.194 113.011 194.172 113.033C194.106 113.209 194.04 113.385 193.952 113.562C193.93 113.628 193.908 113.672 193.864 113.738C193.754 113.98 193.644 114.2 193.512 114.443C193.512 114.487 193.468 114.509 193.446 114.553C193.336 114.751 193.204 114.949 193.073 115.147C193.029 115.236 192.963 115.302 192.897 115.39C192.787 115.544 192.677 115.72 192.545 115.874C192.501 115.918 192.479 115.962 192.457 116.006C192.435 116.051 192.391 116.073 192.369 116.117C192.171 116.359 191.951 116.601 191.731 116.843C191.731 116.843 191.71 116.888 191.688 116.91C191.446 117.174 191.182 117.416 190.918 117.681C190.896 117.703 190.852 117.747 190.83 117.769C190.808 117.791 190.764 117.835 190.72 117.857C190.368 118.165 190.017 118.473 189.621 118.782C189.577 118.826 189.511 118.848 189.467 118.892C189.049 119.2 188.61 119.509 188.148 119.817C187.862 119.993 187.576 120.192 187.268 120.368C187.093 120.478 186.917 120.566 186.763 120.654C186.499 120.808 186.257 120.94 185.993 121.095C185.664 121.271 185.312 121.447 184.96 121.623C184.696 121.755 184.432 121.888 184.147 122.02C183.795 122.196 183.421 122.35 183.047 122.504C182.783 122.614 182.498 122.747 182.234 122.835C181.838 122.989 181.464 123.121 181.069 123.275C180.805 123.363 180.541 123.473 180.277 123.562C180.211 123.562 180.167 123.606 180.101 123.628C179.903 123.694 179.684 123.738 179.486 123.804C178.98 123.958 178.474 124.112 177.969 124.244C177.661 124.332 177.353 124.399 177.067 124.465C176.606 124.575 176.122 124.685 175.66 124.773C175.506 124.795 175.374 124.839 175.22 124.861C174.891 124.927 174.583 124.971 174.253 125.015C174.143 125.015 174.011 125.059 173.901 125.081C173.352 125.169 172.802 125.236 172.23 125.28C172.165 125.28 172.099 125.28 172.033 125.28C171.505 125.324 170.955 125.368 170.428 125.39C170.208 125.39 170.01 125.434 169.79 125.434C169.746 125.434 169.724 125.434 169.68 125.434C169.35 125.434 168.999 125.434 168.669 125.434C168.317 125.434 167.965 125.434 167.592 125.434C167.548 125.434 167.504 125.434 167.46 125.434C167.196 125.434 166.91 125.412 166.646 125.39C166.272 125.39 165.899 125.368 165.525 125.324C165.459 125.324 165.371 125.324 165.305 125.302C165.019 125.28 164.733 125.236 164.448 125.214C164.118 125.169 163.81 125.147 163.48 125.103C163.37 125.103 163.282 125.059 163.173 125.059C162.843 125.015 162.513 124.949 162.183 124.883C161.919 124.839 161.634 124.795 161.37 124.729C161.26 124.707 161.172 124.685 161.062 124.641C160.622 124.553 160.205 124.443 159.787 124.332C159.545 124.266 159.303 124.222 159.061 124.156C158.951 124.134 158.863 124.09 158.753 124.068C158.622 124.024 158.468 123.98 158.336 123.936C157.786 123.76 157.258 123.584 156.709 123.385C156.599 123.341 156.511 123.319 156.401 123.275C156.335 123.253 156.291 123.231 156.225 123.209C155.632 122.967 155.016 122.703 154.444 122.438L154.093 122.262C153.917 122.174 153.719 122.086 153.543 121.998C153.191 121.799 152.839 121.623 152.488 121.425C152.114 121.227 151.762 121.006 151.432 120.786L105.439 95.0153L103.175 93.7598C101.284 92.284 100.404 90.6981 100.404 89.0682C100.404 86.9536 100.404 84.8391 100.404 82.7466H100.272Z" fill="#C0C0F6"/>
<path d="M161.964 77.0859C167.262 80.1476 169.988 84.2005 170.054 88.2533C175.726 88.4516 181.333 89.7291 185.906 92.108C186.279 92.3062 186.631 92.4824 186.983 92.6807C196.766 98.3415 197.36 107.504 188.082 113.54C178.738 119.619 165.041 121.183 154.357 116.139L154.005 115.963C153.829 115.874 153.631 115.786 153.455 115.698C153.103 115.522 152.752 115.324 152.4 115.126C152.026 114.905 151.674 114.707 151.345 114.487L105.351 88.7159L103.087 87.4604C98.5798 83.9582 99.745 79.7291 105.241 76.1608C111.002 72.4163 119.114 72.8348 125.842 75.7864C136.065 71.1608 150.861 71.315 160.908 76.5133C161.282 76.7115 161.656 76.9097 162.03 77.13L161.964 77.0859Z" fill="#E9F0F4"/>
<g opacity="0.3">
<g opacity="0.14">
<path d="M162.469 33.3856C167.768 36.4472 170.494 40.5001 170.56 44.553C176.232 44.7512 181.838 46.0287 186.411 48.3856C186.785 48.5838 187.137 48.76 187.489 48.9583C197.272 54.619 197.866 63.782 188.588 69.8173C179.244 75.8966 165.547 77.4825 154.862 72.4164L154.511 72.2402C154.335 72.1521 154.137 72.064 153.961 71.9759C153.609 71.7997 153.257 71.6014 152.906 71.4032C152.532 71.1829 152.18 70.9847 151.85 70.7644L105.813 44.9935L103.548 43.738C99.0415 40.2358 100.207 36.0067 105.703 32.4384C111.463 28.6939 119.576 29.1124 126.303 32.064C136.526 27.4384 151.323 27.5926 161.37 32.7909C161.744 32.9891 162.117 33.1873 162.469 33.4076V33.3856Z" fill="#FCFDFD"/>
</g>
<g opacity="0.29">
<path d="M162.469 39.6851C167.768 42.7468 170.494 46.7997 170.56 50.8525C176.232 51.0508 181.838 52.3283 186.411 54.6851C186.785 54.8834 187.137 55.0596 187.488 55.2578C197.272 60.9186 197.866 70.0816 188.588 76.1168C179.244 82.1961 165.547 83.782 154.862 78.716L154.51 78.5398C154.335 78.4516 154.137 78.3635 153.961 78.2754C153.609 78.0992 153.257 77.901 152.906 77.7027C152.532 77.4825 152.18 77.2842 151.85 77.064L105.857 51.2931L103.592 50.0375C99.0854 46.5353 100.251 42.3063 105.747 38.738C111.507 34.9935 119.62 35.412 126.347 38.3635C136.57 33.738 151.367 33.8922 161.414 39.0904C161.788 39.2887 162.161 39.4869 162.513 39.7072L162.469 39.6851Z" fill="#F9FBFC"/>
</g>
<g opacity="0.43">
<path d="M162.469 45.9847C167.768 49.0464 170.494 53.0992 170.56 57.1521C176.232 57.3503 181.838 58.6279 186.411 60.9847C186.785 61.1829 187.137 61.3591 187.488 61.5574C197.272 67.2182 197.866 76.3812 188.588 82.4164C179.244 88.4957 165.547 90.0816 154.862 85.0155L154.51 84.8393C154.335 84.7512 154.137 84.6631 153.961 84.575C153.609 84.3988 153.257 84.2005 152.906 84.0023C152.532 83.782 152.18 83.5838 151.85 83.3635L105.857 57.5926L103.592 56.3371C99.0854 52.8349 100.251 48.6058 105.747 45.0375C111.507 41.2931 119.62 41.7116 126.347 44.6631C136.57 40.0375 151.367 40.1917 161.414 45.39C161.788 45.5882 162.161 45.7864 162.513 46.0067L162.469 45.9847Z" fill="#F6F9FA"/>
</g>
<g opacity="0.57">
<path d="M162.469 52.2842C167.768 55.3459 170.494 59.3988 170.56 63.4516C176.232 63.6499 181.838 64.9274 186.411 67.2842C186.785 67.4825 187.137 67.6587 187.488 67.8569C197.272 73.5177 197.866 82.6807 188.588 88.716C179.244 94.7953 165.547 96.3812 154.862 91.3151L154.51 91.1389C154.335 91.0508 154.137 90.9627 153.961 90.8746C153.609 90.6983 153.257 90.5001 152.906 90.3019C152.532 90.0816 152.18 89.8834 151.85 89.6631L105.857 63.8922L103.592 62.6367C99.0854 59.1345 100.251 54.9054 105.747 51.3371C111.507 47.5926 119.62 48.0111 126.347 50.9627C136.57 46.3371 151.367 46.4913 161.414 51.6895C161.788 51.8878 162.161 52.086 162.513 52.3063L162.469 52.2842Z" fill="#F2F6F9"/>
</g>
<g opacity="0.71">
<path d="M162.469 58.5838C167.768 61.6455 170.494 65.6983 170.56 69.7512C176.232 69.9494 181.838 71.227 186.411 73.5838C186.785 73.782 187.137 73.9583 187.488 74.1565C197.272 79.8173 197.866 88.9803 188.588 95.0155C179.244 101.095 165.547 102.681 154.862 97.6146L154.51 97.4384C154.335 97.3503 154.137 97.2622 153.961 97.1741C153.609 96.9979 153.257 96.7997 152.906 96.6014C152.532 96.3812 152.18 96.1829 151.85 95.9627L105.857 70.1917L103.592 68.9362C99.0854 65.434 100.251 61.205 105.747 57.6367C111.507 53.8922 119.62 54.3107 126.347 57.2622C136.57 52.6367 151.367 52.7909 161.414 57.9891C161.788 58.1873 162.161 58.3856 162.513 58.6058L162.469 58.5838Z" fill="#EFF4F7"/>
</g>
<g opacity="0.86">
<path d="M162.469 64.8834C167.768 67.945 170.494 71.9979 170.56 76.0508C176.232 76.249 181.838 77.5265 186.411 79.8834C186.785 80.0816 187.137 80.2578 187.488 80.4561C197.294 86.0948 197.866 95.2798 188.588 101.315C179.244 107.394 165.547 108.98 154.862 103.914L154.51 103.738C154.335 103.65 154.137 103.562 153.961 103.474C153.609 103.297 153.257 103.099 152.906 102.901C152.532 102.681 152.18 102.482 151.85 102.262L105.857 76.4913L103.592 75.2358C99.0854 71.7336 100.251 67.5045 105.747 63.9362C111.507 60.1917 119.62 60.6102 126.347 63.5618C136.57 58.9362 151.367 59.0904 161.414 64.2887C161.788 64.4869 162.161 64.6851 162.513 64.9054L162.469 64.8834Z" fill="#ECF2F6"/>
</g>
<path d="M162.469 71.1829C167.768 74.2446 170.494 78.2975 170.56 82.3503C176.232 82.5486 181.838 83.8261 186.411 86.1829C186.785 86.3812 187.137 86.5574 187.488 86.7556C197.272 92.4164 197.866 101.579 188.588 107.615C179.244 113.694 165.547 115.28 154.862 110.214L154.51 110.038C154.335 109.949 154.137 109.861 153.961 109.773C153.609 109.597 153.257 109.399 152.906 109.201C152.532 108.98 152.18 108.782 151.85 108.562L105.857 82.7909L103.592 81.5353C99.0854 78.0331 100.251 73.8041 105.747 70.2358C111.507 66.4913 119.62 66.9098 126.347 69.8613C136.57 65.2358 151.367 65.39 161.414 70.5882C161.788 70.7865 162.161 70.9847 162.513 71.205L162.469 71.1829Z" fill="#E9F0F4"/>
</g>
<path d="M177.969 101.667L181.069 99.8392L151.608 82.7908L148.486 84.619L177.969 101.667Z" fill="#BFD4DB"/>
<path d="M177.947 105.368V101.645L181.069 99.8391V103.562C181.069 104.333 180.783 104.861 180.343 105.103C179.31 105.72 178.255 106.315 177.221 106.91C177.661 106.667 177.925 106.117 177.925 105.368H177.947Z" fill="#C0C0F6"/>
<path d="M177.947 105.368V101.645L148.486 84.5969V88.3194C148.486 89.8612 149.542 91.7335 150.883 92.5044L175.528 106.756C176.869 107.526 177.947 106.91 177.947 105.368Z" fill="#E3E3FC"/>
<path d="M177.969 101.667L181.069 99.8391L181.223 49.8391L178.101 51.6453L177.969 101.667Z" fill="#C0C0F6"/>
<path d="M178.101 51.6454L181.222 49.8392L151.74 32.7908L148.618 34.5969L178.101 51.6454Z" fill="#35C2DA"/>
<path d="M148.618 34.5969L148.486 84.6189L177.969 101.667L178.101 51.6454L148.618 34.5969Z" fill="url(#paint1_linear_249_658)"/>
<mask id="mask0_249_658" style="mask-type:luminance" maskUnits="userSpaceOnUse" x="156" y="34" width="5" height="5">
<path d="M159.831 35.2136C159.831 35.0373 159.897 34.9052 160.007 34.8391L156.885 36.6453C156.885 36.6453 156.709 36.8435 156.709 37.0197C156.709 37.0197 156.863 36.9316 156.929 36.8876C156.973 36.8876 157.017 36.8435 157.039 36.8215C157.281 36.6893 157.522 36.5351 157.764 36.403C158.116 36.2048 158.468 36.0065 158.798 35.7862C159.127 35.588 159.457 35.3898 159.787 35.2136C158.754 35.8083 157.72 36.425 156.665 37.0197C156.665 37.3942 156.929 37.8567 157.259 38.0329L160.381 36.2268C160.051 36.0285 159.787 35.588 159.787 35.2136H159.831Z" fill="white"/>
</mask>
<g mask="url(#mask0_249_658)">
<path d="M157.302 38.0548L160.424 36.2487C160.424 36.2487 160.292 36.1606 160.226 36.0945L157.104 37.9006C157.104 37.9006 157.236 38.0108 157.302 38.0548Z" fill="#B2C5CC"/>
<path d="M157.105 37.9008L160.226 36.0946C160.226 36.0946 160.182 36.0506 160.16 36.0286L157.039 37.8347C157.039 37.8347 157.083 37.8788 157.105 37.9008Z" fill="#ADC0C7"/>
<path d="M157.039 37.8346L160.161 36.0285C160.161 36.0285 160.117 35.9844 160.117 35.9624L156.995 37.7686C156.995 37.7686 157.017 37.8126 157.039 37.8346Z" fill="#A9BBC2"/>
<path d="M156.995 37.7687L160.117 35.9625C160.117 35.9625 160.095 35.9185 160.073 35.9185L156.951 37.7246C156.951 37.7246 156.973 37.7687 156.995 37.7687Z" fill="#A4B6BD"/>
<path d="M156.951 37.7245L160.073 35.9183C160.073 35.9183 160.051 35.8963 160.051 35.8743L156.929 37.6804C156.929 37.6804 156.929 37.7245 156.951 37.7245Z" fill="#A0B1B8"/>
<path d="M156.929 37.6583L160.051 35.8522C160.051 35.8522 160.029 35.8301 160.029 35.8081L156.907 37.6143C156.907 37.6143 156.907 37.6583 156.929 37.6583Z" fill="#9BACB3"/>
<path d="M156.885 37.6144L160.007 35.8082C160.007 35.8082 160.007 35.7862 159.985 35.7642L156.863 37.5703C156.863 37.5703 156.863 37.6144 156.885 37.6144Z" fill="#97A7AD"/>
<path d="M156.863 37.5704L159.985 35.7643C159.985 35.7643 159.985 35.7202 159.963 35.7202L156.841 37.5264C156.841 37.5264 156.841 37.5484 156.863 37.5704Z" fill="#93A2A8"/>
<path d="M156.841 37.5262L159.963 35.7201C159.963 35.7201 159.963 35.676 159.941 35.676L156.819 37.4822C156.819 37.4822 156.819 37.5262 156.841 37.5262Z" fill="#8E9DA3"/>
<path d="M156.819 37.4601L159.941 35.6539V35.6099L156.819 37.416V37.4601Z" fill="#8A999E"/>
<path d="M156.797 37.4162L159.919 35.61C159.919 35.61 159.919 35.566 159.919 35.5439L156.797 37.3501V37.3942V37.4162Z" fill="#859499"/>
<path d="M156.775 37.35L159.897 35.5439C159.897 35.5439 159.897 35.4998 159.897 35.4778L156.775 37.284C156.775 37.284 156.775 37.328 156.775 37.35Z" fill="#818F94"/>
<path d="M156.753 37.3061L159.875 35.4999C159.875 35.4999 159.875 35.4559 159.875 35.4338L156.753 37.24C156.753 37.24 156.753 37.2841 156.753 37.3061Z" fill="#7C8A8F"/>
<path d="M156.731 37.218L159.853 35.4118C159.853 35.4118 159.853 35.3458 159.853 35.3237L156.731 37.1299C156.731 37.1299 156.731 37.196 156.731 37.218Z" fill="#78858A"/>
<path d="M156.731 37.1518L159.853 35.3457C159.853 35.3457 159.853 35.2576 159.853 35.2355C159.853 35.0593 159.919 34.9272 160.029 34.8611L156.907 36.6673C156.907 36.6673 156.731 36.8655 156.731 37.0417C156.731 37.0858 156.731 37.1298 156.731 37.1518Z" fill="#738085"/>
</g>
<mask id="mask1_249_658" style="mask-type:luminance" maskUnits="userSpaceOnUse" x="156" y="34" width="5" height="3">
<path d="M160.007 34.8392C160.007 34.8392 159.897 34.9053 159.853 34.9273C158.863 35.5 157.874 36.0727 156.885 36.6454C156.995 36.5793 157.149 36.6013 157.302 36.6894L160.424 34.8833C160.271 34.7952 160.117 34.7731 160.007 34.8392Z" fill="white"/>
</mask>
<g mask="url(#mask1_249_658)">
<path d="M157.302 36.6893L160.424 34.8832C160.424 34.8832 160.358 34.8611 160.336 34.8391L157.214 36.6453C157.214 36.6453 157.258 36.6673 157.302 36.6893Z" fill="#32B5CA"/>
<path d="M157.214 36.6453L160.336 34.8392C160.336 34.8392 160.292 34.8392 160.27 34.8171L157.148 36.6233C157.148 36.6233 157.192 36.6233 157.214 36.6453Z" fill="#30B0C5"/>
<path d="M157.148 36.6233L160.27 34.8171H160.226L157.104 36.6233H157.148Z" fill="#2FACC0"/>
<path d="M157.105 36.6233L160.226 34.8171C160.226 34.8171 160.204 34.8171 160.182 34.8171L157.061 36.6233C157.061 36.6233 157.083 36.6233 157.105 36.6233Z" fill="#2EA7BB"/>
<path d="M157.061 36.6013L160.182 34.7952H160.139L157.017 36.6013C157.017 36.6013 157.039 36.6013 157.061 36.6013Z" fill="#2DA3B6"/>
<path d="M157.017 36.6233L160.139 34.8171H160.117L156.995 36.6233C156.995 36.6233 157.017 36.6233 157.039 36.6233H157.017Z" fill="#2B9EB1"/>
<path d="M156.995 36.6233L160.117 34.8171C160.117 34.8171 160.095 34.8171 160.073 34.8171L156.951 36.6233C156.951 36.6233 156.951 36.6233 156.995 36.6233Z" fill="#2A9AAC"/>
<path d="M156.951 36.6233L160.073 34.8171H160.051L156.929 36.6233C156.929 36.6233 156.929 36.6233 156.951 36.6233Z" fill="#2995A7"/>
<path d="M156.929 36.6453L160.051 34.8391C160.051 34.8391 160.051 34.8391 160.029 34.8391L156.907 36.6453C156.907 36.6453 156.907 36.6453 156.929 36.6453Z" fill="#2891A2"/>
<path d="M156.885 36.6453L160.007 34.8391L156.885 36.6453Z" fill="#268C9D"/>
</g>
<path d="M170.01 45.3898L173.132 43.5836L160.424 36.2268L157.302 38.055L170.01 45.3898Z" fill="#BFD4DB"/>
<mask id="mask2_249_658" style="mask-type:luminance" maskUnits="userSpaceOnUse" x="170" y="43" width="4" height="3">
<path d="M173.549 43.6278C173.549 43.6278 173.286 43.6718 173.132 43.5837L170.01 45.3899C170.186 45.478 170.318 45.5 170.427 45.434C171.351 44.8833 172.604 44.1564 173.549 43.6278Z" fill="white"/>
</mask>
<g mask="url(#mask2_249_658)">
<path d="M170.427 45.4339L173.549 43.6277L170.427 45.4339Z" fill="#8A999E"/>
<path d="M170.427 45.4339L173.549 43.6277C173.549 43.6277 173.549 43.6277 173.527 43.6277L170.405 45.4339C170.405 45.4339 170.405 45.4339 170.427 45.4339Z" fill="#8E9DA3"/>
<path d="M170.383 45.4561L173.505 43.6499C173.505 43.6499 173.505 43.6499 173.483 43.6499L170.361 45.4561C170.361 45.4561 170.361 45.4561 170.383 45.4561Z" fill="#93A2A8"/>
<path d="M170.361 45.4561L173.483 43.6499C173.483 43.6499 173.483 43.6499 173.439 43.6499L170.317 45.4561H170.339H170.361Z" fill="#97A7AD"/>
<path d="M170.339 45.478L173.461 43.6719C173.461 43.6719 173.439 43.6719 173.417 43.6719L170.295 45.478C170.295 45.478 170.317 45.478 170.339 45.478Z" fill="#9BACB3"/>
<path d="M170.295 45.478L173.417 43.6719H173.373L170.251 45.478C170.251 45.478 170.273 45.478 170.295 45.478Z" fill="#A0B1B8"/>
<path d="M170.251 45.478L173.373 43.6719C173.373 43.6719 173.351 43.6719 173.329 43.6719L170.208 45.478C170.208 45.478 170.23 45.478 170.251 45.478Z" fill="#A4B6BD"/>
<path d="M170.208 45.478L173.329 43.6719H173.285L170.164 45.478H170.208Z" fill="#A9BBC2"/>
<path d="M170.164 45.4559L173.286 43.6497C173.286 43.6497 173.242 43.6497 173.22 43.6277L170.098 45.4339C170.098 45.4339 170.142 45.4339 170.164 45.4559Z" fill="#ADC0C7"/>
<path d="M170.098 45.434L173.22 43.6278C173.22 43.6278 173.154 43.6058 173.132 43.5837L170.01 45.3899C170.01 45.3899 170.076 45.4119 170.098 45.434Z" fill="#B2C5CC"/>
</g>
<path d="M170.01 44.0463L173.132 42.2181L160.424 34.8833L157.302 36.6895L170.01 44.0463Z" fill="#35C2DA"/>
<mask id="mask3_249_658" style="mask-type:luminance" maskUnits="userSpaceOnUse" x="170" y="42" width="4" height="4">
<path d="M170.427 45.4338C171.461 44.8391 172.494 44.2224 173.549 43.6277C173.659 43.5616 173.725 43.4294 173.725 43.2532C173.725 42.8788 173.461 42.4162 173.132 42.24L170.01 44.0462C170.34 44.2444 170.603 44.6849 170.603 45.0594C170.603 45.2356 170.537 45.3677 170.427 45.4338Z" fill="white"/>
</mask>
<g mask="url(#mask3_249_658)">
<path d="M170.427 45.4338L173.549 43.6276C173.549 43.6276 173.725 43.4294 173.725 43.2532C173.725 43.2091 173.725 43.1871 173.725 43.1431L170.603 44.9492C170.603 44.9492 170.603 45.0153 170.603 45.0594C170.603 45.2356 170.537 45.3677 170.427 45.4338Z" fill="#207684"/>
<path d="M170.582 44.9492L173.703 43.143C173.703 43.143 173.703 43.099 173.703 43.0549L170.582 44.8611C170.582 44.8611 170.582 44.9272 170.582 44.9492Z" fill="#217A89"/>
<path d="M170.582 44.861L173.703 43.0549C173.703 43.0549 173.703 43.0108 173.703 42.9888L170.582 44.7949C170.582 44.7949 170.582 44.839 170.582 44.861Z" fill="#237F8E"/>
<path d="M170.56 44.7951L173.681 42.9889C173.681 42.9889 173.681 42.9449 173.681 42.9229L170.56 44.729C170.56 44.729 170.56 44.7731 170.56 44.7951Z" fill="#248393"/>
<path d="M170.538 44.7289L173.66 42.9228C173.66 42.9228 173.66 42.8787 173.66 42.8567L170.538 44.6629V44.7069V44.7289Z" fill="#258898"/>
<path d="M170.516 44.6849L173.638 42.8788V42.8347L170.516 44.6409V44.6849Z" fill="#268C9D"/>
<path d="M170.494 44.6188L173.616 42.8126C173.616 42.8126 173.616 42.7686 173.594 42.7686L170.472 44.5747C170.472 44.5747 170.472 44.5967 170.494 44.6188Z" fill="#2891A2"/>
<path d="M170.472 44.5748L173.594 42.7687C173.594 42.7687 173.594 42.7466 173.572 42.7246L170.45 44.5308C170.45 44.5308 170.45 44.5748 170.472 44.5748Z" fill="#2995A7"/>
<path d="M170.449 44.5306L173.571 42.7245C173.571 42.7245 173.571 42.7024 173.549 42.6804L170.427 44.4866C170.427 44.4866 170.427 44.5086 170.449 44.5306Z" fill="#2A9AAC"/>
<path d="M170.427 44.4867L173.549 42.6805C173.549 42.6805 173.549 42.6585 173.527 42.6365L170.405 44.4426C170.405 44.4426 170.405 44.4647 170.427 44.4867Z" fill="#2B9EB1"/>
<path d="M170.383 44.4205L173.505 42.6144C173.505 42.6144 173.483 42.5923 173.461 42.5703L170.339 44.3765C170.339 44.3765 170.339 44.4205 170.361 44.4205H170.383Z" fill="#2DA3B6"/>
<path d="M170.361 44.3766L173.483 42.5704C173.483 42.5704 173.461 42.5264 173.439 42.5264L170.317 44.3325C170.317 44.3325 170.339 44.3546 170.361 44.3766Z" fill="#2EA7BB"/>
<path d="M170.317 44.3105L173.439 42.5043C173.439 42.5043 173.395 42.4603 173.395 42.4382L170.273 44.2444C170.273 44.2444 170.295 44.2885 170.317 44.3105Z" fill="#2FACC0"/>
<path d="M170.273 44.2665L173.395 42.4604C173.395 42.4604 173.351 42.4163 173.329 42.3943L170.208 44.2005C170.208 44.2005 170.251 44.2445 170.273 44.2665Z" fill="#30B0C5"/>
<path d="M170.208 44.2003L173.33 42.3942C173.33 42.3942 173.198 42.284 173.132 42.24L170.01 44.0462C170.01 44.0462 170.142 44.1343 170.208 44.2003Z" fill="#32B5CA"/>
</g>
<path d="M157.303 36.6894C156.973 36.4911 156.709 36.6453 156.709 37.0198C156.709 37.3942 156.973 37.8568 157.303 38.033L170.01 45.3898C170.34 45.588 170.604 45.4339 170.604 45.0594C170.604 44.685 170.34 44.2224 170.01 44.0462L157.303 36.6894Z" fill="#C0C0F6"/>
<path d="M175.704 45.3017C177.045 46.0727 178.122 47.9449 178.122 49.4868V51.6454L148.64 34.5969V32.4383C148.64 30.8965 149.739 30.2797 151.081 31.0506L175.726 45.3017H175.704ZM157.302 38.055L170.01 45.4119C170.34 45.6101 170.604 45.4559 170.604 45.0815C170.604 44.707 170.34 44.2445 170.01 44.0683L157.302 36.7114C156.973 36.5132 156.709 36.6674 156.709 37.0418C156.709 37.4163 156.973 37.8788 157.302 38.055Z" fill="#E3E3FC"/>
<path d="M150.663 30.8524C150.663 30.8524 150.553 30.8084 150.487 30.7863C150.443 30.7863 150.421 30.7863 150.377 30.7643C150.333 30.7643 150.311 30.7643 150.267 30.7643C150.223 30.7643 150.179 30.7643 150.135 30.7643C150.113 30.7643 150.091 30.7643 150.069 30.7643C150.025 30.7643 149.959 30.7643 149.915 30.7643H149.871C149.871 30.7643 149.761 30.7643 149.696 30.7863C149.696 30.7863 149.674 30.7863 149.652 30.7863C149.608 30.7863 149.564 30.7863 149.52 30.8304C149.52 30.8304 149.498 30.8304 149.476 30.8304C149.432 30.8304 149.366 30.8744 149.322 30.8965C150.355 30.3018 151.388 29.685 152.444 29.0903C152.488 29.0903 152.532 29.0462 152.554 29.0242C152.554 29.0242 152.554 29.0242 152.576 29.0242C152.576 29.0242 152.598 29.0242 152.62 29.0242C152.62 29.0242 152.664 29.0242 152.686 29.0022C152.708 29.0022 152.73 29.0022 152.751 29.0022C152.751 29.0022 152.773 29.0022 152.795 29.0022C152.839 29.0022 152.883 29.0022 152.949 29.0022H152.993C152.993 29.0022 153.059 29.0022 153.103 29.0022C153.103 29.0022 153.125 29.0022 153.147 29.0022C153.169 29.0022 153.191 29.0022 153.213 29.0022C153.235 29.0022 153.257 29.0022 153.279 29.0022C153.279 29.0022 153.323 29.0022 153.345 29.0022C153.367 29.0022 153.411 29.0022 153.433 29.0022H153.477C153.477 29.0022 153.521 29.0022 153.543 29.0022C153.609 29.0022 153.653 29.0462 153.719 29.0683C153.719 29.0683 153.763 29.0683 153.785 29.0683C153.785 29.0683 153.785 29.0683 153.829 29.0683C153.939 29.1123 154.027 29.1564 154.137 29.2225L178.782 43.4736C178.914 43.5396 179.046 43.6277 179.156 43.7379C179.178 43.7379 179.2 43.7599 179.222 43.7819C179.332 43.87 179.464 43.9802 179.574 44.0903C179.574 44.0903 179.574 44.0903 179.596 44.1123L179.64 44.1564C179.706 44.2225 179.749 44.2665 179.793 44.3326L179.837 44.3766C179.837 44.3766 179.859 44.4207 179.881 44.4207C179.903 44.4648 179.947 44.5088 179.969 44.5308C179.969 44.5529 180.013 44.5749 180.035 44.5969C180.035 44.5969 180.079 44.641 180.079 44.663C180.079 44.685 180.123 44.7291 180.145 44.7511C180.145 44.7731 180.167 44.7951 180.189 44.8172C180.211 44.8612 180.233 44.8833 180.255 44.9273C180.255 44.9493 180.277 44.9714 180.299 44.9934C180.299 44.9934 180.299 44.9934 180.299 45.0154C180.343 45.0815 180.387 45.1476 180.431 45.2136C180.431 45.2136 180.431 45.2137 180.431 45.2577C180.453 45.3018 180.497 45.3678 180.519 45.4119C180.519 45.4339 180.541 45.4559 180.563 45.478C180.563 45.478 180.585 45.522 180.607 45.544C180.607 45.544 180.629 45.5881 180.651 45.6101C180.673 45.6762 180.695 45.7203 180.717 45.7863C180.717 45.7863 180.717 45.8084 180.717 45.8304C180.739 45.8965 180.783 45.9625 180.805 46.0507C180.805 46.0507 180.805 46.0727 180.805 46.0947C180.805 46.1167 180.805 46.1388 180.827 46.1828C180.827 46.2269 180.849 46.2489 180.871 46.2929C180.871 46.315 180.871 46.337 180.893 46.3811C180.893 46.4251 180.893 46.4471 180.915 46.4912C180.915 46.4912 180.915 46.5352 180.915 46.5573C180.915 46.6013 180.915 46.6233 180.937 46.6674C180.937 46.7114 180.959 46.7555 180.959 46.7996C180.959 46.7996 180.959 46.8216 180.959 46.8436C180.959 46.8656 180.959 46.9097 180.959 46.9317C180.959 46.9978 180.981 47.0639 180.981 47.1299V47.174C180.981 47.174 180.981 47.196 180.981 47.2181C180.981 47.3502 181.003 47.5044 181.003 47.6366V49.7951L177.881 51.6013V49.4427C177.881 49.3106 177.881 49.1564 177.881 49.0242C177.881 48.9802 177.881 48.9581 177.881 48.9141C177.881 48.848 177.859 48.7819 177.859 48.7159C177.859 48.6718 177.859 48.6277 177.837 48.5837C177.837 48.5396 177.815 48.4956 177.815 48.4515C177.815 48.3855 177.793 48.3414 177.771 48.2753C177.771 48.2313 177.771 48.2092 177.749 48.1652C177.749 48.0991 177.705 48.033 177.683 47.967C177.683 47.9449 177.683 47.9229 177.661 47.8788C177.617 47.7907 177.595 47.7026 177.551 47.6145C177.551 47.6145 177.551 47.5925 177.551 47.5705C177.507 47.5044 177.485 47.4163 177.441 47.3502C177.441 47.3282 177.419 47.3062 177.397 47.2621C177.353 47.196 177.331 47.1299 177.287 47.0639C177.287 47.0639 177.287 47.0198 177.265 47.0198C177.221 46.9317 177.155 46.8436 177.111 46.7775C177.111 46.7555 177.089 46.7335 177.067 46.7114C177.023 46.6454 176.979 46.6013 176.957 46.5352C176.935 46.4912 176.913 46.4692 176.891 46.4471C176.847 46.4031 176.825 46.359 176.781 46.315C176.759 46.2709 176.716 46.2489 176.694 46.2048C176.672 46.1608 176.628 46.1388 176.606 46.0947C176.562 46.0286 176.496 45.9846 176.452 45.9185C176.43 45.8965 176.386 45.8744 176.364 45.8304C176.254 45.7203 176.144 45.6322 176.034 45.522C176.034 45.522 175.99 45.5 175.968 45.478C175.836 45.3899 175.726 45.3018 175.594 45.2136L150.949 30.9625C150.949 30.9625 150.751 30.8524 150.641 30.8084C150.619 30.8084 150.575 30.7863 150.553 30.7643L150.663 30.8524Z" fill="#C0C0F6"/>
<path opacity="0.1" d="M114.651 80.8745C109.99 83.5837 109.946 87.967 114.607 90.6542C119.246 93.3635 126.809 93.3635 131.47 90.6542C136.131 87.9449 136.175 83.5617 131.514 80.8745C126.875 78.1652 119.312 78.1652 114.651 80.8745Z" fill="black"/>
<path d="M130.612 59.8391C130.612 59.8391 131.03 58.848 132.349 58.8259C132.349 58.8259 132.019 60.0594 130.612 59.8391Z" fill="#131C24"/>
<path d="M131.887 58.3194C131.887 58.3194 132.986 59.7071 133.074 60.0815C133.184 60.456 133.624 62.0198 132.877 63.0771C132.459 63.6498 132.217 62.8568 132.107 61.7996C132.063 61.337 132.107 60.9626 131.491 60.456C131.03 60.0815 130.524 59.3546 130.326 58.9582C130.128 58.5617 131.865 58.2974 131.865 58.2974L131.887 58.3194Z" fill="#EFB185"/>
<path d="M130.348 59.0462C130.546 59.4426 131.096 60.1034 131.183 60.6761C131.293 61.3589 132.041 61.3369 132.085 61.7995C132.173 62.6144 132.349 63.2973 132.613 63.2752C132.503 62.6585 133.206 62.1959 132.437 60.7642C132.151 60.2576 131.227 59.1783 130.7 58.7378C130.392 58.892 130.26 58.892 130.348 59.0462Z" fill="#E6A376"/>
<path d="M130.788 58.7158C130.788 58.7158 131.03 60.6982 131.184 61.2929C131.338 61.8876 131.711 62.24 131.777 62.1079C131.843 61.9757 131.47 60.1916 132.129 60.2356C132.481 60.2577 130.898 59.0022 130.81 58.7158H130.788Z" fill="#EFB185"/>
<path d="M125.974 42.7026C125.974 42.7026 127.974 42.24 128.788 46.2048C129.623 50.1695 129.623 51.7114 130.195 53.077C130.788 54.4427 132.327 58.8259 132.327 58.8259C132.327 58.8259 131.074 58.892 130.591 59.8392C130.591 59.8392 127.315 54.3986 126.677 51.9977C126.04 49.5969 123.885 43.8039 125.952 42.7026H125.974Z" fill="#5FB9E6"/>
<path d="M130.217 53.0771C129.645 51.7115 129.645 50.1697 128.81 46.2049C128.37 44.0463 127.557 43.2093 126.941 42.8789C125.072 44.1124 127.139 49.7512 127.776 52.108C128.26 53.8921 130.151 57.5705 131.074 59.3106C131.734 58.826 132.371 58.826 132.371 58.826C132.371 58.826 130.81 54.4208 130.239 53.0771H130.217Z" fill="#77D2FF"/>
<path d="M123.995 81.0287C123.995 81.0287 123.467 82.2621 123.995 82.5925C124.522 82.9009 124.588 83.2754 125.446 83.1872C126.303 83.1212 126.171 83.4075 126.457 83.7159C126.743 84.0243 129.755 85.3458 130.305 84.7071C130.876 84.0683 129.293 83.3194 128.722 82.945C128.15 82.5705 126.809 81.0947 126.787 80.6762C126.743 80.2577 123.995 81.0287 123.995 81.0287Z" fill="#111114"/>
<path d="M123.995 82.5925C124.522 82.9008 124.588 83.2753 125.446 83.1872C126.303 83.1211 126.171 83.4074 126.457 83.7158C126.743 84.0242 129.755 85.3458 130.304 84.707C130.502 84.4867 130.436 84.2665 130.26 84.0462C130.063 84.0903 129.755 84.1343 129.381 84.2004C128.502 84.3546 127.358 83.3414 126.919 82.9669C126.479 82.5925 125.929 82.7246 125.16 82.6145C124.412 82.4823 124.5 81.3149 124.5 81.3149L123.929 81.1167C123.819 81.403 123.511 82.3281 123.951 82.5925H123.995Z" fill="#0A0A0A"/>
<path d="M118.652 85.0374C118.652 85.0374 118.432 86.4912 118.982 87.2841C119.554 88.0771 120.785 89.4427 121.313 89.3766C121.84 89.3105 121.928 89.0682 121.928 89.0682C121.928 89.0682 122.148 87.8788 121.752 86.6894C121.357 85.5 121.335 85.0154 121.335 85.0154H118.652V85.0374Z" fill="#111114"/>
<path d="M118.982 87.3061C119.466 88.0109 120.499 89.1343 121.093 89.3766C120.301 88.3633 121.488 88.5616 120.587 88.077C119.356 87.4162 120.147 86.8435 119.598 86.6893C119.048 86.5352 119.444 85.1695 119.444 85.1695L119.158 85.0374H118.652C118.652 85.0374 118.432 86.4911 118.982 87.2841V87.3061Z" fill="#0A0A0A"/>
<path d="M125.138 61.2708C125.138 61.2708 127.666 61.0065 128.502 59.1343C128.502 59.1343 128.722 63.2532 128.216 68.033C127.71 72.8127 127.293 81.2268 127.293 81.2268C127.293 81.2268 125.666 82.7686 123.973 81.2268C123.973 81.2268 123.489 75.6761 123.973 72.5924C123.973 72.5924 123.665 67.218 124.171 64.5087C124.698 61.8215 125.116 61.2708 125.116 61.2708H125.138Z" fill="#EA49BD"/>
<path d="M127.271 81.2049C127.271 81.2049 127.688 72.7908 128.194 68.0111C128.7 63.2313 128.524 58.4736 128.524 58.4736C127.908 59.8393 126.325 60.9846 125.578 61.1609C125.644 62.989 125.798 68.3635 125.776 70.1476C125.754 71.8437 125.424 78.8921 125.27 81.8437C126.391 81.9979 127.249 81.1829 127.249 81.1829L127.271 81.2049Z" fill="#FF61CB"/>
<path d="M119.202 60.9846C119.202 60.9846 118.96 63.782 118.916 68.1212C118.872 72.4604 118.542 74.1124 118.432 74.7732C118.323 75.434 117.949 82.7027 118.169 84.8392C118.169 84.8392 119.532 86.9538 121.686 84.8392C121.686 84.8392 122.06 77.3943 122.412 75.6983C122.786 74.0022 124.852 65.7644 125.666 62.8128C126.039 61.5133 126.127 61.0066 126.127 61.0066C126.127 61.0066 122.5 63.6278 119.18 61.0066L119.202 60.9846Z" fill="#EA49BD"/>
<path d="M121.708 84.8172C121.708 84.8172 122.082 77.3723 122.434 75.6763C122.807 73.9802 124.874 65.7423 125.688 62.7908C126.061 61.4912 126.897 60.478 126.897 60.478C126.897 60.478 124.5 62.152 122.456 62.152C122.368 62.7908 121.488 68.8701 121.291 71.5353C121.093 74.1785 119.29 83.4516 119.774 85.7864C120.301 85.7864 120.961 85.5661 121.708 84.8393V84.8172Z" fill="#FF61CB"/>
<path d="M121.576 43.6277C121.576 43.6277 117.861 45.8744 117.795 46.1828C117.707 46.4912 116.761 47.2621 118.432 50.5661C118.432 50.5661 120.609 54.1123 119.905 57.8568C119.51 60.0374 119.092 61.1828 119.092 61.1828C119.092 61.1828 120.983 63.6057 125.644 61.4912C126.589 61.0727 128.128 59.6189 128.546 58.5176C128.546 58.5176 127.886 55.4119 128.216 51.6894C128.546 47.9669 128.568 43.1872 126.435 42.7026C126.435 42.7026 125.863 42.1079 121.576 43.6498V43.6277Z" fill="#77D2FF"/>
<path d="M121.906 40.3899C121.906 40.3899 122.807 42.3502 121.686 43.4075C121.07 44.0022 122.038 45.7643 124.126 45.9626C124.126 45.9626 125.094 45.8745 125.05 45.5221C124.962 44.7291 125.336 44.3326 125.753 43.804C126.171 43.2754 121.906 40.3899 121.906 40.3899Z" fill="#EFB185"/>
<path d="M121.686 43.4076C121.686 43.4076 121.554 43.5618 121.532 43.6719C122.434 42.9891 123.929 43.1653 123.929 43.1653L122.302 40.6763C122.302 40.6763 122.17 40.5882 122.126 40.5442L122.038 40.7204C122.236 41.3151 122.522 42.6147 121.686 43.4076Z" fill="#DD9569"/>
<path d="M121.62 39.3327C121.62 39.3327 121.774 41.7556 123.203 43.0772C124.478 44.2446 126.061 45.1256 126.633 43.4516C127.094 42.13 128.282 38.782 127.204 37.901C125.797 36.7556 125.402 35.5662 123.511 35.9626C123.511 35.9626 121.334 36.5794 121.62 39.3327Z" fill="#EFB185"/>
<path d="M121.62 39.3326C121.62 39.3326 121.489 41.3811 123.203 43.0991C123.577 43.4736 124.061 43.804 124.435 44.0243C123.775 43.3414 123.709 43.1652 123.247 42.3943C122.764 41.6234 124.171 42.108 123.467 40.2137C123.225 39.5749 124.764 40.5881 125.138 40.6322C127.337 40.9185 127.381 39.641 127.491 39.1124C127.491 38.8701 127.447 38.6498 127.403 38.4295L127.249 37.989C127.249 37.989 127.205 37.9009 127.183 37.8789C126.985 37.5485 126.787 37.2401 126.589 36.9758C125.644 36.8436 122.962 36.4912 122.896 36.4912C122.852 36.4912 122.302 37.0419 121.774 37.5705C121.598 38.0331 121.511 38.5837 121.598 39.2886L121.62 39.3326Z" fill="#E6A376"/>
<path d="M122.236 41.7556C122.236 41.7556 120.697 39.8393 121.686 37.5926C121.686 37.5926 122.302 35.7423 124.434 35.8304C125.446 35.8745 127.183 36.293 127.644 38.4296C127.776 39.0904 127.6 40.3899 125.204 39.3547C124.874 39.2005 123.951 38.9362 123.555 39.1785C123.181 39.4208 123.049 39.9934 123.137 40.5C123.203 40.9406 122.829 40.9185 122.785 40.8304C122.741 40.7423 122.456 39.4648 121.928 39.8613C121.466 40.2137 122.148 41.6674 122.192 41.7556H122.236Z" fill="#341C09"/>
<path d="M122.236 41.7557C122.236 41.7557 121.51 40.2358 121.972 39.8614C122.5 39.4649 122.785 40.7424 122.829 40.8306C122.873 40.9187 123.247 40.9407 123.181 40.5002C123.093 39.9935 123.225 39.4429 123.599 39.1786C123.951 38.9583 124.742 39.2226 125.248 39.3548C124.874 39.0244 124.083 38.8041 123.885 38.0772C123.643 37.1081 123.159 36.5794 122.654 36.3372C121.95 36.8658 121.708 37.5706 121.708 37.5706C120.719 39.8173 122.258 41.7336 122.258 41.7336L122.236 41.7557Z" fill="#221101"/>
<path d="M128.831 38.1872C128.831 38.1872 127.842 40.6983 125.094 39.4207C125.094 39.4207 123.709 38.826 123.357 37.3943C123.269 37.0859 123.005 36.5573 122.543 36.4472C122.543 36.4472 123.467 35.478 125.424 35.9185C126.347 36.1388 127.16 37.174 127.38 37.3723C127.6 37.5485 128.084 38.2533 128.831 38.1872Z" fill="#341C09"/>
<path d="M117.795 46.1828C117.707 46.4912 116.761 47.2621 118.432 50.566C118.432 50.566 120.609 54.1123 119.905 57.8568C119.51 60.0374 119.092 61.1828 119.092 61.1828C119.092 61.1828 120.037 62.3722 122.214 62.3502C122.741 59.1343 122.126 53.4515 121.818 49.5308C121.62 47.0198 120.411 45.6762 119.422 45.0154C118.586 45.544 117.839 46.0726 117.817 46.2048L117.795 46.1828Z" fill="#5FB9E6"/>
<path d="M125.775 46.8437C125.775 46.8437 125.687 45.2798 125.402 44.9934C125.116 44.7071 125.424 44.2225 125.731 44.597C126.039 44.9714 126.127 45.5001 126.127 45.5001C126.127 45.5001 126.413 43.6939 125.907 43.4736C125.402 43.2534 127.336 43.4296 127.622 44.2886C127.908 45.1476 128.37 46.0287 126.831 47.6807C126.831 47.6807 126.105 47.5485 125.775 46.8437Z" fill="#E6A376"/>
<path d="M119.664 46.0506C118.63 45.4559 116.63 45.9185 117.685 48.4955C118.74 51.0726 123.269 56.9757 124.676 56.8436C126.083 56.7114 125.578 53.892 124.456 52.24C123.335 50.6101 120.631 46.6013 119.664 46.0506Z" fill="#5FB9E6"/>
<path d="M125.072 56.7555C125.072 56.7555 127.688 53.4735 127.381 47.0859C127.381 47.0859 126.611 47.4824 125.688 46.7114C125.688 46.7114 121.686 57.7907 125.072 56.7335V56.7555Z" fill="#5FB9E6"/>
<g opacity="0.5">
<path d="M177.793 27.3282V28.0771L177.045 27.6365V26.8436C177.045 26.0947 176.782 25.522 176.21 25.1696C175.638 24.8392 175.374 25.1255 175.374 25.8744V30.2136C175.374 30.9405 175.638 31.5572 176.21 31.8876C176.782 32.218 177.045 31.9317 177.045 31.1828V30.1255L177.793 30.5661V31.5793C177.793 32.8128 177.287 33.3414 176.188 32.7246C175.111 32.1079 174.605 30.9846 174.605 29.7511V25.5C174.605 24.2665 175.111 23.7379 176.188 24.3546C177.287 24.9934 177.793 26.0947 177.793 27.3502V27.3282Z" fill="url(#paint2_linear_249_658)"/>
<path d="M181.596 29.5089V29.7291L180.849 29.2886V29.0243C180.849 28.2974 180.607 27.7027 180.035 27.3723C179.464 27.0419 179.222 27.3282 179.222 28.0551C179.222 29.8833 181.596 31.4472 181.596 33.76C181.596 34.9934 181.068 35.5221 179.991 34.8833C178.914 34.2666 178.408 33.1652 178.408 31.9097V31.4472L179.156 31.8657V32.3723C179.156 33.1212 179.42 33.6939 179.991 34.0243C180.563 34.3547 180.827 34.0683 180.827 33.3415C180.827 31.5133 178.452 29.9714 178.452 27.6586C178.452 26.4031 178.958 25.8965 180.013 26.5133C181.09 27.13 181.596 28.2313 181.596 29.4868V29.5089Z" fill="url(#paint3_linear_249_658)"/>
<path d="M185.356 31.6895V31.9098L184.608 31.4693V31.2049C184.608 30.4781 184.367 29.8834 183.795 29.553C183.223 29.2226 182.981 29.5089 182.981 30.2358C182.981 32.064 185.356 33.6278 185.356 35.9406C185.356 37.1741 184.828 37.7027 183.751 37.064C182.674 36.4472 182.168 35.3239 182.168 34.0904V33.6278L182.915 34.0463V34.553C182.915 35.2798 183.179 35.8745 183.751 36.2049C184.323 36.5353 184.586 36.249 184.586 35.5221C184.586 33.6939 182.212 32.1521 182.212 29.8393C182.212 28.5838 182.718 28.0772 183.773 28.6939C184.85 29.3107 185.356 30.412 185.356 31.6675V31.6895Z" fill="url(#paint4_linear_249_658)"/>
</g>
<g opacity="0.5">
<path d="M114.827 22.152C114.959 22.2401 115.09 22.3282 115.222 22.3943C115.728 22.6586 116.058 22.5485 116.058 21.7335V15.5L116.827 15.9405V22.1079C116.827 23.6498 116.168 23.7379 115.31 23.2753C115.134 23.1652 114.981 23.0991 114.805 22.967V22.13L114.827 22.152Z" fill="url(#paint5_linear_249_658)"/>
<path d="M118.41 23.4076L118.146 24.9054L117.421 24.4869L118.784 17.064L119.927 17.7248L121.29 26.7115L120.499 26.249L120.235 24.4428L118.432 23.4076H118.41ZM118.52 22.6807L120.103 23.6058L119.312 18.4076L118.52 22.6807Z" fill="url(#paint6_linear_249_658)"/>
<path d="M122.236 19.0683L123.401 26.8657L124.544 20.3899L125.27 20.8084L123.951 28.2533L122.785 27.5705L121.444 18.5837L122.236 19.0463V19.0683Z" fill="url(#paint7_linear_249_658)"/>
<path d="M126.413 28.055L126.149 29.5528L125.424 29.1343L126.787 21.7114L127.93 22.3722L129.293 31.359L128.502 30.8964L128.238 29.0903L126.435 28.055H126.413ZM126.523 27.3282L128.106 28.2313L127.315 23.033L126.523 27.3061V27.3282Z" fill="url(#paint8_linear_249_658)"/>
</g>
<g opacity="0.5">
<path d="M134.35 41.6234V44.553L133.712 44.2005V37.6587L134.35 38.0331V40.9627L135.735 41.7556V38.8261L136.373 39.2005V45.7424L135.735 45.39V42.4384L134.35 41.6455V41.6234Z" fill="url(#paint9_linear_249_658)"/>
<path d="M137.846 46.5794V40.6984L136.812 40.1037V39.4429L139.517 41.0067V41.6675L138.483 41.0728V46.9539L137.846 46.5794Z" fill="url(#paint10_linear_249_658)"/>
<path d="M142.023 48.9804L141.407 48.6279L140.462 42.879V48.0773L139.912 47.7689V41.2271L140.792 41.7337L141.715 47.4826L142.616 42.7909L143.496 43.2975V49.8394L142.902 49.487V44.2226L142.001 48.9583L142.023 48.9804Z" fill="url(#paint11_linear_249_658)"/>
<path d="M144.155 50.2357V43.6938L144.793 44.0463V49.9273L146.398 50.8524V51.5132L144.155 50.2137V50.2357Z" fill="url(#paint12_linear_249_658)"/>
</g>
<g opacity="0.5">
<path d="M108.825 61.7775L105.681 58.4735V57.8127L108.825 58.1431V58.8039L106.429 58.5616L108.825 61.0947V61.7555V61.7775Z" fill="url(#paint13_linear_249_658)"/>
<path d="M112.87 58.2092L110.078 64.7951L109.396 64.3987L112.189 57.8127L112.87 58.2092Z" fill="url(#paint14_linear_249_658)"/>
<path d="M113.442 63.7819L115.838 64.0242L113.442 61.4911V60.8303L116.586 64.1343V64.7951L113.442 64.4647V63.8039V63.7819Z" fill="url(#paint15_linear_249_658)"/>
</g>
<g opacity="0.5">
<path d="M191.314 57.4823V58.2091L190.566 57.7686V56.9757C190.566 56.2488 190.303 55.6541 189.731 55.3017C189.159 54.9713 188.895 55.2576 188.895 56.0065V60.3457C188.895 61.0946 189.159 61.6893 189.731 62.0197C190.303 62.3501 190.566 62.0638 190.566 61.3149V60.2576L191.314 60.6981V61.7114C191.314 62.9448 190.808 63.4735 189.709 62.8567C188.632 62.24 188.126 61.1166 188.126 59.8832V55.6321C188.126 54.3986 188.632 53.8699 189.709 54.4867C190.808 55.1255 191.314 56.2268 191.314 57.4823Z" fill="url(#paint16_linear_249_658)"/>
<path d="M194.941 60.2796L194.721 62.5703L195.293 62.9007L195.227 63.5175L194.655 63.1871L194.436 65.5219L193.798 65.1474L194.018 62.8126L193.094 62.284L192.853 64.6188L192.215 64.2443L192.457 61.9095L191.863 61.5791L191.929 60.9624L192.501 61.2928L192.721 59.0241L192.127 58.6716L192.193 58.0549L192.787 58.3853L192.963 56.469L193.6 56.8434L193.424 58.7597L194.348 59.2884L194.524 57.3721L195.161 57.7465L194.985 59.6628L195.557 59.9932L195.491 60.61L194.919 60.2796H194.941ZM194.304 59.9051L193.38 59.3765L193.16 61.6452L194.084 62.1738L194.304 59.8831V59.9051Z" fill="url(#paint17_linear_249_658)"/>
</g>
<path d="M175.573 81.9317V79.0902L172.253 77.1739V72.5264L167.24 69.6189L162.843 61.9757V59.1343L167.262 61.6894V58.2312L162.843 55.6761V53.033L168.405 56.2488C169.571 56.9317 170.516 56.381 170.516 55.0154C170.516 53.6497 169.571 52.0198 168.405 51.3369L156.863 44.6629C155.698 43.9801 154.752 44.5308 154.752 45.8964C154.752 47.262 155.698 48.892 156.863 49.5748L162.337 52.7466V55.3898L158.006 52.8788V56.3369L162.337 58.848V61.7995L158.138 64.2224C157.699 63.9581 157.171 63.6717 156.489 63.2973C155.258 62.6145 154.027 61.9537 153.499 61.6673V52.3281L156.467 54.0462V54.6409L157.808 54.5308L156.467 52.8568V53.4515L152.972 51.425V61.9977L153.236 62.1299C154.862 62.9889 156.621 63.9581 157.896 64.707L162.315 72.3942V76.0946L157.984 73.5836V77.0418L162.315 79.5528V84.0021L157.742 81.359V85.1035L167.482 90.7422V86.9977L162.821 84.3105V82.0638L163.942 83.4735V82.8788L168.405 85.4559V86.5792L175.573 90.7202V87.8788L172.253 85.9625V80.0814L175.573 81.9977V81.9317ZM171.725 85.588L168.405 83.6717V84.7951L163.942 82.218V81.6233L162.821 81.7334V79.8171L167.24 82.3722V78.914L162.821 76.359V72.7687L167.218 70.2136L171.725 72.8127V76.8656L168.405 74.9493V77.7907L171.725 79.707V85.588Z" fill="#FF61CB"/>
<path d="M155.852 52.5486C155.852 52.5486 156.049 50.7424 156.247 50.412C156.445 50.0816 157.215 48.6058 158.534 48.3856C159.237 48.2534 158.842 49.0023 158.182 49.8613C157.874 50.2358 157.566 50.4561 157.676 51.271C157.742 51.8657 157.588 52.7688 157.456 53.1873C157.325 53.6058 155.874 52.5486 155.874 52.5486H155.852Z" fill="#EFB185"/>
<path d="M157.5 53.1214C157.632 52.7029 157.698 51.8218 158.05 51.3372C158.468 50.7645 157.896 50.2579 158.182 49.8615C158.688 49.2007 159.039 48.5839 158.842 48.4077C158.49 48.9363 157.632 48.7601 157.193 50.346C157.039 50.9187 156.951 52.3725 157.017 53.0773C157.347 53.1875 157.456 53.2756 157.5 53.0993V53.1214Z" fill="#E6A376"/>
<path d="M156.951 53.0331C156.951 53.0331 158.204 51.4252 158.512 50.8745C158.819 50.3239 158.797 49.8173 158.666 49.8613C158.512 49.9054 157.522 51.4692 157.083 50.9626C156.841 50.6983 157.083 52.7468 156.951 53.0111V53.0331Z" fill="#EFB185"/>
<path d="M144.617 60.6323C144.617 60.6323 144.771 62.879 147.607 62.1081C150.443 61.3152 155.588 59.2226 156.225 57.857C156.885 56.4914 157.545 52.7909 157.545 52.7909C157.545 52.7909 156.16 53.2535 155.632 52.1301L153.389 56.7116C153.389 56.7116 144.441 59.0685 144.595 60.6544L144.617 60.6323Z" fill="#5FB9E6"/>
<path d="M144.617 60.6324C144.485 59.0685 153.411 56.6897 153.411 56.6897L155.654 52.1082C155.852 52.5267 156.159 52.7249 156.467 52.813C156.225 53.9804 155.764 56.0949 155.302 57.0421C154.642 58.4077 149.52 60.5002 146.684 61.2932C145.848 61.5134 145.255 61.4914 144.837 61.3372C144.639 60.9628 144.617 60.6324 144.617 60.6324Z" fill="#77D2FF"/>
<g opacity="0.1">
<path d="M142.067 97.2182C137.626 99.7953 137.604 103.958 142.023 106.535C146.442 109.113 153.609 109.113 158.072 106.535C162.513 103.958 162.535 99.7953 158.116 97.2182C153.697 94.6411 146.508 94.6411 142.067 97.2182Z" fill="black"/>
</g>
<path d="M149.256 97.4164C149.256 97.4164 150.333 97.5706 150.069 98.1873C149.806 98.8041 148.574 99.7512 148.421 100.148C148.267 100.544 147.255 101.932 146.926 101.8C146.596 101.668 145.76 101.866 145.848 100.28C145.936 98.6939 147.827 97.3503 149.256 97.4164Z" fill="#111114"/>
<path d="M151.3 103.253C151.3 103.253 150.773 104.773 152.07 105.148C153.367 105.5 152.971 104.685 155.785 105.412C158.599 106.117 158.929 104.663 158.863 104.333C158.797 104.002 156.929 103.43 156.313 103.253C155.697 103.099 154.532 102.791 154.532 102.791H151.19L151.3 103.253Z" fill="#111114"/>
<path d="M145.98 76.4693C145.98 76.4693 145.98 85.6764 145.98 86.7116C145.98 87.7469 144.815 95.9187 145.518 99.487C145.518 99.487 147.519 101.491 149.3 99.487C149.3 99.487 149.871 89.2447 150.377 86.9319C150.883 84.6191 150.707 77.5486 150.707 77.5486L145.98 76.4253V76.4693Z" fill="#31282E"/>
<path d="M149.498 77.7908C149.498 77.7908 149.959 83.738 150.421 89.6411C150.421 89.6411 150.707 101.359 150.993 103.033C150.993 103.033 154.752 103.98 155.126 102.196C155.126 102.196 155.038 91.8878 155.126 89.7292C155.214 87.5706 155.434 81.5574 154.598 78.0992C153.741 74.6411 149.476 77.7908 149.476 77.7908H149.498Z" fill="#31282E"/>
<path d="M150.993 103.033C150.707 101.359 150.421 89.641 150.421 89.641C150.114 85.6762 149.784 81.6674 149.63 79.4868L151.96 80.0595C151.96 80.0595 153.631 84.4648 153.389 91.0947C153.192 96.2269 153.104 101.249 153.082 103.275C152.048 103.275 151.015 103.033 151.015 103.033H150.993Z" fill="#231D21"/>
<path d="M145.496 99.5089C144.793 95.9406 145.958 87.7688 145.958 86.7336C145.958 85.6983 145.958 77.3503 145.958 76.5574L147.981 78.1213C147.981 78.1213 148.618 84.7072 147.981 88.4516C147.387 91.8657 147.761 98.5177 147.497 100.412C146.376 100.412 145.496 99.5089 145.496 99.5089Z" fill="#231D21"/>
<path d="M145.409 59.7512C145.409 59.7512 143.474 60.7204 144.573 64.0243C145.673 67.3283 146.442 69.4649 146.376 70.7204C146.31 71.9538 145.87 76.1168 145.607 76.9538C145.607 76.9538 145.277 79.6851 151.499 81.293C151.499 81.293 156.621 81.8217 155.786 78.4296C154.95 75.0596 154.621 69.597 154.752 68.2974C154.884 66.9979 155.654 64.3988 152.422 62.6587C149.19 60.9186 147.497 59.619 145.431 59.7292L145.409 59.7512Z" fill="#77D2FF"/>
<path d="M154.752 68.3194C154.62 69.619 154.95 75.0595 155.786 78.4516C156.357 80.7864 154.093 81.249 152.642 81.315C152.18 79.8172 152.971 77.13 151.872 73.826C150.531 69.7512 150.729 67.086 151.432 64.9053C151.894 63.4957 152.73 63.4736 153.345 63.2754C155.478 64.9714 154.862 67.152 154.752 68.3194Z" fill="#5FB9E6"/>
<path d="M147.717 58.0993C147.717 58.0993 147.915 59.8394 147.321 60.9187C146.793 61.9099 150.861 62.7909 150.949 61.8879C150.949 61.7997 150.179 60.302 151.169 58.5398C151.674 57.6147 147.717 58.1213 147.717 58.1213V58.0993Z" fill="#EFB185"/>
<path d="M147.343 60.9846C147.783 60.1917 147.783 59.0243 147.761 58.4736L150.729 59.9494C150.619 59.9714 148.618 60.478 148.178 61.9318C147.563 61.6895 147.145 61.3371 147.343 60.9846Z" fill="#DD9569"/>
<path d="M152.004 53.5177C152.004 53.5177 152.642 55.0816 152.51 56.4473C152.378 57.901 152.598 58.1874 152.51 58.8481C152.466 59.1345 152.444 59.553 152.18 59.7953C151.74 60.2358 150.817 60.39 149.564 59.9274C148.047 59.3768 146.442 57.2843 147.102 55.412C147.761 53.5398 149.74 51.9979 152.026 53.5177H152.004Z" fill="#EFB185"/>
<path d="M147.146 57.4383C147.761 55.7423 149.256 53.7159 149.256 53.6278C149.256 53.5617 149.74 53.2533 150.311 52.9009C150.839 52.9229 151.411 53.1211 152.004 53.5176C152.004 53.5176 152.18 53.9361 152.312 54.5308C151.96 54.9273 151.213 55.3899 151.103 55.7423C150.839 56.5573 150.993 57.7687 151.235 58.3194C151.477 58.87 150.509 59.663 150.707 60.1255C150.707 60.1476 150.707 60.1696 150.707 60.1916C150.355 60.1696 149.96 60.0815 149.542 59.9273C148.575 59.5749 147.585 58.5837 147.146 57.4383Z" fill="#E6A376"/>
<path d="M152.224 53.0332C152.73 53.3195 152.664 54.2006 151.345 54.8614C150.553 55.2579 150.619 56.5354 150.663 56.7777C150.707 57.02 150.927 58.0993 150.839 58.2314C150.663 58.4958 150.026 57.6587 149.74 57.7248C148.992 57.879 149.278 58.5839 149.96 59.3107C150.685 60.0817 148.772 60.4121 147.893 59.7733C147.431 59.4209 147.255 59.2226 146.64 57.9891C145.738 56.183 145.694 54.0464 147.805 52.879C149.916 51.7336 150.993 52.3284 152.224 53.0332Z" fill="#131C24"/>
<path d="M147.871 59.7732C147.409 59.4208 147.233 59.2225 146.618 57.9891C145.716 56.1829 145.409 54.0463 147.519 52.901C149.63 51.7556 150.509 52.0419 151.74 52.7468C151.85 52.8128 152.488 53.0992 152.444 53.4076C151.762 53.5177 149.938 53.8701 149.454 54.6631C148.86 55.6322 148.223 55.3239 148.267 56.5353C148.311 57.7027 148.003 59.2225 149.959 59.8833C149.234 60.412 148.201 60.0155 147.871 59.7512V59.7732Z" fill="#1D2833"/>
<path d="M150.729 61.3592L152.048 62.4826C152.048 62.4826 147.915 63.672 146.706 61.6456C146.53 61.3592 146.75 60.3901 147.453 60.2139C147.453 60.2139 147.585 61.8659 150.707 61.3592H150.729Z" fill="#DEF0F9"/>
<path d="M165.107 62.5925C165.107 62.5925 166.053 61.3591 165.987 60.9626C165.921 60.5661 166.449 60.3458 166.492 60.8304C166.514 61.315 166.295 61.7996 166.295 61.7996C166.295 61.7996 167.13 60.5441 167.284 60.0154C167.57 59.0683 168.471 60.8304 168.207 61.6674C167.944 62.5265 167.812 63.5176 165.591 63.9802C165.591 63.9802 164.975 63.3635 165.107 62.5925Z" fill="#F1B287"/>
<path d="M151.389 63.9802C151.389 63.9802 150.377 66.0066 153.213 66.7775C156.072 67.5484 161.546 68.3854 162.799 67.5264C164.052 66.6894 166.515 63.848 166.515 63.848C166.515 63.848 165.086 63.5396 165.217 62.3062L160.952 65.0815C160.952 65.0815 152.07 62.5484 151.389 63.9802Z" fill="#5FB9E6"/>
<path d="M151.388 63.9802C152.07 62.5484 160.952 65.0815 160.952 65.0815L165.217 62.3062C165.173 62.7687 165.327 63.0991 165.569 63.3414C164.777 64.2225 163.304 65.8084 162.403 66.381C161.15 67.2401 155.675 66.4031 152.817 65.6321C151.982 65.4119 151.498 65.0815 151.19 64.7291C151.19 64.3106 151.366 64.0022 151.366 64.0022L151.388 63.9802Z" fill="#77D2FF"/>
</g>
<path d="M57.3349 176.7C56.5989 176.7 55.9029 176.556 55.2469 176.268C54.5909 175.996 54.0149 175.612 53.5189 175.116C53.0389 174.636 52.6549 174.068 52.3669 173.412C52.0949 172.756 51.9589 172.06 51.9589 171.324V164.988L54.5989 165.012V170.94C54.5989 171.308 54.6709 171.652 54.8149 171.972C54.9589 172.292 55.1509 172.572 55.3909 172.812C55.6309 173.052 55.9109 173.236 56.2309 173.364C56.5509 173.508 56.8869 173.58 57.2389 173.58H61.5589C62.1669 173.58 62.6789 173.372 63.0949 172.956C63.5109 172.54 63.7189 172.036 63.7189 171.444V156.06H66.3589V168.252C66.3589 168.572 66.4709 168.844 66.6949 169.068C66.9189 169.276 67.1909 169.38 67.5109 169.38H68.9989C69.0949 169.38 69.1749 169.42 69.2389 169.5C69.3029 169.564 69.3349 169.636 69.3349 169.716V172.14C69.3349 172.236 69.3029 172.324 69.2389 172.404C69.1749 172.468 69.0949 172.5 68.9989 172.5H67.9429C67.6069 172.5 67.3109 172.452 67.0549 172.356C66.7989 172.26 66.5589 172.06 66.3349 171.756V172.188C66.3349 172.668 66.2229 173.172 65.9989 173.7C65.7749 174.228 65.4549 174.716 65.0389 175.164C64.6389 175.612 64.1429 175.98 63.5509 176.268C62.9589 176.556 62.2869 176.7 61.5349 176.7H57.3349ZM74.9877 169.38C75.3077 169.38 75.5797 169.268 75.8037 169.044C76.0277 168.804 76.1397 168.524 76.1397 168.204V163.236H78.7797V168.204C78.7797 168.796 78.6677 169.356 78.4437 169.884C78.2197 170.396 77.9077 170.852 77.5077 171.252C77.1237 171.636 76.6677 171.94 76.1397 172.164C75.6277 172.388 75.0757 172.5 74.4837 172.5H69.4677C69.3717 172.5 69.2917 172.468 69.2277 172.404C69.1637 172.324 69.1317 172.244 69.1317 172.164V169.74C69.1317 169.644 69.1637 169.564 69.2277 169.5C69.2917 169.42 69.3717 169.38 69.4677 169.38H74.9877ZM69.8277 178.14H72.5637V175.38H69.8277V178.14ZM73.8117 178.14H76.5717V175.38H73.8117V178.14ZM87.1671 172.164C87.1671 172.388 87.0551 172.5 86.8311 172.5H86.1351C85.5591 172.5 85.0151 172.396 84.5031 172.188C83.9911 171.964 83.5431 171.66 83.1591 171.276C82.7751 170.892 82.4711 170.444 82.2471 169.932C82.0231 169.42 81.9111 168.876 81.9111 168.3V156.06H84.5511V168.228C84.5511 168.548 84.6631 168.82 84.8871 169.044C85.1111 169.268 85.3831 169.38 85.7031 169.38H86.8311C86.9271 169.38 87.0071 169.42 87.0711 169.5C87.1351 169.564 87.1671 169.644 87.1671 169.74V172.164ZM87.9267 175.38H90.6867V178.14H87.9267V175.38ZM91.3827 169.38C91.7027 169.38 91.9747 169.268 92.1987 169.044C92.4227 168.804 92.5347 168.524 92.5347 168.204V163.236H95.1747V168.204C95.1747 168.796 95.0627 169.356 94.8387 169.884C94.6147 170.396 94.3027 170.852 93.9027 171.252C93.5187 171.636 93.0627 171.94 92.5347 172.164C92.0227 172.388 91.4707 172.5 90.8787 172.5H87.3027C87.2067 172.5 87.1267 172.468 87.0627 172.404C86.9987 172.324 86.9667 172.244 86.9667 172.164V169.74C86.9667 169.644 86.9987 169.564 87.0627 169.5C87.1267 169.42 87.2067 169.38 87.3027 169.38H91.3827ZM101.797 172.5C101.205 172.5 100.661 172.38 100.165 172.14C99.669 171.884 99.253 171.548 98.917 171.132C98.581 170.716 98.333 170.244 98.173 169.716C98.029 169.172 98.013 168.612 98.125 168.036L98.533 165.852C98.613 165.42 98.765 165.02 98.989 164.652C99.229 164.268 99.509 163.94 99.829 163.668C100.149 163.396 100.509 163.188 100.909 163.044C101.325 162.884 101.757 162.804 102.205 162.804H103.549C104.093 162.804 104.605 162.908 105.085 163.116C105.565 163.324 105.981 163.612 106.333 163.98C106.685 164.332 106.965 164.748 107.173 165.228C107.381 165.708 107.485 166.22 107.485 166.764V169.38H109.165C109.389 169.38 109.501 169.492 109.501 169.716V172.164C109.501 172.388 109.389 172.5 109.165 172.5H107.461C107.461 172.516 107.461 172.556 107.461 172.62C107.461 172.684 107.453 172.764 107.437 172.86C107.341 173.916 106.933 174.868 106.213 175.716C105.509 176.564 104.605 177.18 103.501 177.564L100.213 178.692L99.397 176.172L102.781 175.044C103.389 174.836 103.877 174.5 104.245 174.036C104.629 173.572 104.821 173.02 104.821 172.38V172.212C104.645 172.292 104.429 172.364 104.173 172.428C103.917 172.476 103.661 172.5 103.405 172.5H101.797ZM101.461 169.38H104.845V166.74C104.845 166.484 104.757 166.268 104.581 166.092C104.405 165.9 104.189 165.804 103.933 165.804H101.989C101.765 165.804 101.573 165.876 101.413 166.02C101.253 166.164 101.149 166.348 101.101 166.572L100.717 168.492C100.669 168.716 100.717 168.924 100.861 169.116C101.021 169.292 101.221 169.38 101.461 169.38ZM115.086 169.38H118.47V166.74C118.47 166.484 118.382 166.268 118.206 166.092C118.03 165.916 117.814 165.828 117.558 165.828H115.614C115.39 165.828 115.198 165.9 115.038 166.044C114.878 166.172 114.774 166.348 114.726 166.572L114.342 168.492C114.294 168.716 114.342 168.924 114.486 169.116C114.646 169.292 114.846 169.38 115.086 169.38ZM111.678 168.324L112.158 165.852C112.238 165.42 112.39 165.02 112.614 164.652C112.854 164.268 113.134 163.948 113.454 163.692C113.774 163.42 114.134 163.212 114.534 163.068C114.95 162.908 115.382 162.828 115.83 162.828H117.174C117.718 162.828 118.23 162.932 118.71 163.14C119.19 163.348 119.606 163.628 119.958 163.98C120.31 164.332 120.59 164.748 120.798 165.228C121.006 165.708 121.11 166.22 121.11 166.764V169.572C121.11 169.972 121.03 170.356 120.87 170.724C120.726 171.076 120.518 171.388 120.246 171.66C119.99 171.916 119.686 172.124 119.334 172.284C118.982 172.428 118.606 172.5 118.206 172.5H115.422C114.942 172.5 114.486 172.404 114.054 172.212C113.622 172.004 113.23 171.644 112.878 171.132C112.51 171.644 112.102 172.004 111.654 172.212C111.206 172.404 110.726 172.5 110.214 172.5H109.638C109.414 172.5 109.302 172.388 109.302 172.164V169.716C109.302 169.492 109.414 169.38 109.638 169.38H110.406C110.726 169.38 110.998 169.284 111.222 169.092C111.462 168.9 111.614 168.644 111.678 168.324ZM127.108 171.348V164.316H129.748V170.964C129.748 171.332 129.812 171.676 129.94 171.996C130.084 172.316 130.276 172.596 130.516 172.836C130.756 173.076 131.036 173.26 131.356 173.388C131.676 173.532 132.02 173.604 132.388 173.604H136.684C137.292 173.604 137.804 173.396 138.22 172.98C138.636 172.564 138.844 172.052 138.844 171.444V163.932H141.484V168.228C141.484 168.548 141.596 168.82 141.82 169.044C142.044 169.268 142.316 169.38 142.636 169.38H144.124C144.22 169.38 144.3 169.42 144.364 169.5C144.428 169.564 144.46 169.644 144.46 169.74V172.164C144.46 172.244 144.428 172.324 144.364 172.404C144.3 172.468 144.22 172.5 144.124 172.5H143.044C142.516 172.5 142.14 172.404 141.916 172.212C141.692 172.02 141.54 171.868 141.46 171.756V172.356C141.46 172.964 141.324 173.532 141.052 174.06C140.796 174.588 140.444 175.052 139.996 175.452C139.564 175.852 139.06 176.164 138.484 176.388C137.908 176.612 137.3 176.724 136.66 176.724H132.484C131.748 176.724 131.052 176.58 130.396 176.292C129.74 176.02 129.164 175.636 128.668 175.14C128.188 174.66 127.804 174.092 127.516 173.436C127.244 172.78 127.108 172.084 127.108 171.348ZM132.916 161.172H135.676V163.932H132.916V161.172ZM145.721 178.14H148.457V175.38H145.721V178.14ZM149.705 178.14H152.465V175.38H149.705V178.14ZM153.929 172.164C153.929 172.244 153.897 172.324 153.833 172.404C153.769 172.468 153.689 172.5 153.593 172.5H151.769C151.257 172.5 150.745 172.364 150.233 172.092C149.721 171.804 149.377 171.468 149.201 171.084C149.089 171.276 148.929 171.46 148.721 171.636C148.513 171.796 148.281 171.948 148.025 172.092C147.785 172.22 147.521 172.324 147.233 172.404C146.961 172.468 146.689 172.5 146.417 172.5H144.593C144.369 172.5 144.257 172.388 144.257 172.164V169.74C144.257 169.644 144.289 169.564 144.353 169.5C144.417 169.42 144.497 169.38 144.593 169.38H146.657C146.977 169.38 147.257 169.284 147.497 169.092C147.737 168.9 147.889 168.644 147.953 168.324L148.841 164.004L151.433 164.46L150.713 168.084C150.633 168.42 150.705 168.724 150.929 168.996C151.153 169.252 151.441 169.38 151.793 169.38H153.593C153.689 169.38 153.769 169.42 153.833 169.5C153.897 169.564 153.929 169.644 153.929 169.74V172.164ZM160.577 172.5C160.001 172.5 159.465 172.388 158.969 172.164C158.473 171.94 158.033 171.58 157.649 171.084C157.265 171.58 156.817 171.94 156.305 172.164C155.809 172.388 155.273 172.5 154.697 172.5H154.073C153.993 172.5 153.921 172.468 153.857 172.404C153.777 172.324 153.737 172.244 153.737 172.164V169.74C153.737 169.644 153.777 169.564 153.857 169.5C153.921 169.42 153.993 169.38 154.073 169.38H155.153C155.473 169.38 155.745 169.268 155.969 169.044C156.193 168.804 156.305 168.524 156.305 168.204V163.908H158.945V168.396C158.945 168.684 159.065 168.924 159.305 169.116C159.545 169.292 159.801 169.38 160.073 169.38H160.841C161.161 169.38 161.441 169.284 161.681 169.092C161.921 168.884 162.073 168.62 162.137 168.3L162.977 163.956L165.593 164.436L164.873 168.084C164.793 168.42 164.865 168.724 165.089 168.996C165.329 169.252 165.617 169.38 165.953 169.38H166.601C166.921 169.38 167.193 169.276 167.417 169.068C167.641 168.844 167.753 168.572 167.753 168.252V163.284H170.393V168.252C170.393 168.572 170.505 168.844 170.729 169.068C170.953 169.276 171.225 169.38 171.545 169.38H172.553C172.649 169.38 172.729 169.42 172.793 169.5C172.857 169.564 172.889 169.636 172.889 169.716V172.14C172.889 172.236 172.857 172.324 172.793 172.404C172.745 172.468 172.665 172.5 172.553 172.5H171.977C171.401 172.5 170.865 172.388 170.369 172.164C169.873 171.94 169.441 171.58 169.073 171.084C168.689 171.58 168.241 171.94 167.729 172.164C167.217 172.388 166.681 172.5 166.121 172.5C165.593 172.5 165.081 172.396 164.585 172.188C164.089 171.964 163.681 171.596 163.361 171.084C162.993 171.596 162.569 171.964 162.089 172.188C161.609 172.396 161.105 172.5 160.577 172.5ZM166.337 161.82H163.577V159.06H166.337V161.82ZM162.329 161.82H159.569V159.06H162.329V161.82ZM164.297 158.172H161.537V155.412H164.297V158.172ZM191.43 168.228C191.43 168.548 191.542 168.82 191.766 169.044C191.99 169.268 192.262 169.38 192.582 169.38H194.07C194.166 169.38 194.246 169.42 194.31 169.5C194.374 169.564 194.406 169.636 194.406 169.716V172.14C194.406 172.236 194.374 172.324 194.31 172.404C194.246 172.468 194.166 172.5 194.07 172.5H193.038C192.478 172.5 191.958 172.404 191.478 172.212C190.998 172.004 190.574 171.724 190.206 171.372C189.838 171.724 189.406 172.004 188.91 172.212C188.43 172.404 187.926 172.5 187.398 172.5H173.022C172.926 172.5 172.846 172.468 172.782 172.404C172.718 172.324 172.686 172.244 172.686 172.164V169.716C172.686 169.62 172.718 169.54 172.782 169.476C172.846 169.396 172.926 169.364 173.022 169.38H187.854C188.094 169.38 188.31 169.292 188.502 169.116C188.694 168.94 188.79 168.716 188.79 168.444V166.74C188.79 166.452 188.686 166.212 188.478 166.02C188.27 165.812 188.022 165.708 187.734 165.708H175.902L174.006 163.884L181.062 155.628L182.958 157.404L178.35 162.828H187.494C188.038 162.828 188.542 162.932 189.006 163.14C189.486 163.348 189.902 163.628 190.254 163.98C190.622 164.332 190.91 164.748 191.118 165.228C191.326 165.708 191.43 166.22 191.43 166.764V168.228ZM195.677 178.14H198.413V175.38H195.677V178.14ZM199.661 178.14H202.421V175.38H199.661V178.14ZM203.885 172.164C203.885 172.244 203.853 172.324 203.789 172.404C203.725 172.468 203.645 172.5 203.549 172.5H201.725C201.213 172.5 200.701 172.364 200.189 172.092C199.677 171.804 199.333 171.468 199.157 171.084C199.045 171.276 198.885 171.46 198.677 171.636C198.469 171.796 198.237 171.948 197.981 172.092C197.741 172.22 197.477 172.324 197.189 172.404C196.917 172.468 196.645 172.5 196.373 172.5H194.549C194.325 172.5 194.213 172.388 194.213 172.164V169.74C194.213 169.644 194.245 169.564 194.309 169.5C194.373 169.42 194.453 169.38 194.549 169.38H196.613C196.933 169.38 197.213 169.284 197.453 169.092C197.693 168.9 197.845 168.644 197.909 168.324L198.797 164.004L201.389 164.46L200.669 168.084C200.589 168.42 200.661 168.724 200.885 168.996C201.109 169.252 201.397 169.38 201.749 169.38H203.549C203.645 169.38 203.725 169.42 203.789 169.5C203.853 169.564 203.885 169.644 203.885 169.74V172.164ZM212.021 169.38C212.101 169.38 212.173 169.412 212.237 169.476C212.317 169.54 212.357 169.62 212.357 169.716V172.164C212.357 172.26 212.317 172.34 212.237 172.404C212.173 172.468 212.101 172.5 212.021 172.5H210.941C210.381 172.5 209.845 172.396 209.333 172.188C208.837 171.98 208.405 171.692 208.037 171.324C207.653 171.692 207.205 171.98 206.693 172.188C206.181 172.396 205.645 172.5 205.085 172.5H204.029C203.805 172.5 203.693 172.388 203.693 172.164V169.716C203.693 169.492 203.805 169.38 204.029 169.38H205.565C205.885 169.38 206.157 169.268 206.381 169.044C206.605 168.82 206.717 168.548 206.717 168.228V156.06H209.357V168.348C209.389 168.636 209.509 168.884 209.717 169.092C209.941 169.284 210.205 169.38 210.509 169.38H212.021ZM213.125 175.38H215.885V178.14H213.125V175.38ZM217.133 175.38H219.893V178.14H217.133V175.38ZM215.093 179.028H217.853V181.788H215.093V179.028ZM218.021 169.38C218.341 169.38 218.613 169.268 218.837 169.044C219.061 168.804 219.173 168.524 219.173 168.204V163.236H221.813V168.204C221.813 168.796 221.701 169.356 221.477 169.884C221.253 170.396 220.941 170.852 220.541 171.252C220.157 171.636 219.701 171.94 219.173 172.164C218.661 172.388 218.109 172.5 217.517 172.5H212.501C212.405 172.5 212.325 172.468 212.261 172.404C212.197 172.324 212.165 172.244 212.165 172.164V169.74C212.165 169.644 212.197 169.564 212.261 169.5C212.325 169.42 212.405 169.38 212.501 169.38H218.021ZM228.288 172.5H225.648V156.06H228.288V172.5Z" fill="white"/>
<defs>
<linearGradient id="paint0_linear_249_658" x1="280" y1="0.558681" x2="-17.3881" y2="164.559" gradientUnits="userSpaceOnUse">
<stop stop-color="#B101D0"/>
<stop offset="1" stop-color="#340650"/>
</linearGradient>
<linearGradient id="paint1_linear_249_658" x1="163.282" y1="30.9846" x2="163.282" y2="90.1035" gradientUnits="userSpaceOnUse">
<stop stop-color="#FFF2C9"/>
<stop offset="1" stop-color="#FFB7BB"/>
</linearGradient>
<linearGradient id="paint2_linear_249_658" x1="174.605" y1="28.5176" x2="177.793" y2="28.5176" gradientUnits="userSpaceOnUse">
<stop stop-color="#FFF2C9"/>
<stop offset="1" stop-color="#FFB7BB"/>
</linearGradient>
<linearGradient id="paint3_linear_249_658" x1="178.408" y1="30.7203" x2="181.596" y2="30.7203" gradientUnits="userSpaceOnUse">
<stop stop-color="#FFF2C9"/>
<stop offset="1" stop-color="#FFB7BB"/>
</linearGradient>
<linearGradient id="paint4_linear_249_658" x1="182.19" y1="32.901" x2="185.378" y2="32.901" gradientUnits="userSpaceOnUse">
<stop stop-color="#FFF2C9"/>
<stop offset="1" stop-color="#FFB7BB"/>
</linearGradient>
<linearGradient id="paint5_linear_249_658" x1="114.827" y1="19.5308" x2="116.827" y2="19.5308" gradientUnits="userSpaceOnUse">
<stop stop-color="#FFF2C9"/>
<stop offset="1" stop-color="#FFB7BB"/>
</linearGradient>
<linearGradient id="paint6_linear_249_658" x1="117.399" y1="21.8878" x2="121.268" y2="21.8878" gradientUnits="userSpaceOnUse">
<stop stop-color="#FFF2C9"/>
<stop offset="1" stop-color="#FFB7BB"/>
</linearGradient>
<linearGradient id="paint7_linear_249_658" x1="121.444" y1="23.4296" x2="125.27" y2="23.4296" gradientUnits="userSpaceOnUse">
<stop stop-color="#FFF2C9"/>
<stop offset="1" stop-color="#FFB7BB"/>
</linearGradient>
<linearGradient id="paint8_linear_249_658" x1="125.424" y1="26.5352" x2="129.271" y2="26.5352" gradientUnits="userSpaceOnUse">
<stop stop-color="#FFF2C9"/>
<stop offset="1" stop-color="#FFB7BB"/>
</linearGradient>
<linearGradient id="paint9_linear_249_658" x1="133.712" y1="41.6895" x2="136.373" y2="41.6895" gradientUnits="userSpaceOnUse">
<stop stop-color="#FFF2C9"/>
<stop offset="1" stop-color="#FFB7BB"/>
</linearGradient>
<linearGradient id="paint10_linear_249_658" x1="136.791" y1="43.1874" x2="139.517" y2="43.1874" gradientUnits="userSpaceOnUse">
<stop stop-color="#FFF2C9"/>
<stop offset="1" stop-color="#FFB7BB"/>
</linearGradient>
<linearGradient id="paint11_linear_249_658" x1="139.934" y1="45.5663" x2="143.518" y2="45.5663" gradientUnits="userSpaceOnUse">
<stop stop-color="#FFF2C9"/>
<stop offset="1" stop-color="#FFB7BB"/>
</linearGradient>
<linearGradient id="paint12_linear_249_658" x1="144.155" y1="47.6146" x2="146.398" y2="47.6146" gradientUnits="userSpaceOnUse">
<stop stop-color="#FFF2C9"/>
<stop offset="1" stop-color="#FFB7BB"/>
</linearGradient>
<linearGradient id="paint13_linear_249_658" x1="105.681" y1="59.7951" x2="108.825" y2="59.7951" gradientUnits="userSpaceOnUse">
<stop stop-color="#FFF2C9"/>
<stop offset="1" stop-color="#FFB7BB"/>
</linearGradient>
<linearGradient id="paint14_linear_249_658" x1="109.374" y1="61.2929" x2="112.87" y2="61.2929" gradientUnits="userSpaceOnUse">
<stop stop-color="#FFF2C9"/>
<stop offset="1" stop-color="#FFB7BB"/>
</linearGradient>
<linearGradient id="paint15_linear_249_658" x1="113.442" y1="62.7907" x2="116.586" y2="62.7907" gradientUnits="userSpaceOnUse">
<stop stop-color="#FFF2C9"/>
<stop offset="1" stop-color="#FFB7BB"/>
</linearGradient>
<linearGradient id="paint16_linear_249_658" x1="188.126" y1="58.6717" x2="191.314" y2="58.6717" gradientUnits="userSpaceOnUse">
<stop stop-color="#FFF2C9"/>
<stop offset="1" stop-color="#FFB7BB"/>
</linearGradient>
<linearGradient id="paint17_linear_249_658" x1="191.863" y1="60.9844" x2="195.579" y2="60.9844" gradientUnits="userSpaceOnUse">
<stop stop-color="#FFF2C9"/>
<stop offset="1" stop-color="#FFB7BB"/>
</linearGradient>
<clipPath id="clip0_249_658">
<rect width="111.158" height="120" fill="white" transform="translate(84.4211 15.5)"/>
</clipPath>
</defs>
</svg>
