<svg width="280" height="200" viewBox="0 0 280 200" fill="none" xmlns="http://www.w3.org/2000/svg">
<rect width="280" height="200" rx="8" fill="url(#paint0_linear_249_217)"/>
<g clip-path="url(#clip0_249_217)">
<g opacity="0.3">
<path d="M146.305 94.3254L141.9 96.8925L140.894 96.3137L144.367 94.2751L143.108 94.0234L143.712 93.4697L145.449 93.8221L146.305 94.3254Z" fill="#FFD2CD"/>
<path d="M141.875 91.683C143.058 92.3626 142.479 93.2434 141.271 93.9481C139.912 94.7535 138.427 94.98 137.295 94.3005C136.137 93.6461 136.666 92.7652 137.899 92.0354C139.182 91.2803 140.743 91.0287 141.875 91.683ZM138.1 93.8726C138.503 94.0991 139.233 93.9481 140.214 93.3441C141.196 92.7652 141.498 92.3626 141.07 92.1109C140.692 91.8844 139.963 92.0102 138.931 92.6142C137.924 93.1931 137.672 93.6209 138.075 93.8475L138.1 93.8726Z" fill="#FFD2CD"/>
<path d="M138.1 89.4933C139.283 90.1729 138.704 91.0537 137.496 91.7584C136.137 92.5386 134.652 92.7651 133.52 92.1108C132.362 91.4564 132.89 90.5755 134.124 89.8457C135.407 89.1158 136.968 88.839 138.1 89.4933ZM134.325 91.6829C134.728 91.9094 135.458 91.7584 136.439 91.1544C137.421 90.5755 137.723 90.1729 137.295 89.9212C136.917 89.6947 136.187 89.8205 135.155 90.4245C134.149 91.0034 133.897 91.4312 134.3 91.6578L134.325 91.6829Z" fill="#FFD2CD"/>
<path d="M157.655 100.894L153.251 103.461L152.27 102.883L155.743 100.844L154.484 100.592L155.088 100.039L156.8 100.391L157.655 100.894Z" fill="#FFD2CD"/>
<path d="M160.826 102.631C162.009 103.311 161.43 104.191 160.222 104.896C158.863 105.676 157.378 105.903 156.246 105.248C155.088 104.594 155.617 103.713 156.85 102.983C158.133 102.254 159.694 101.977 160.826 102.631ZM157.051 104.821C157.454 105.047 158.184 104.896 159.165 104.292C160.147 103.713 160.449 103.311 160.021 103.059C159.644 102.832 158.914 102.958 157.882 103.562C156.875 104.141 156.623 104.569 157.026 104.795L157.051 104.821Z" fill="#FFD2CD"/>
<path d="M149.451 96.0622C150.634 96.7417 150.055 97.6226 148.847 98.3273C147.488 99.1326 146.003 99.334 144.87 98.6796C143.712 98.0253 144.241 97.1444 145.474 96.4145C146.758 95.6847 148.318 95.4078 149.451 96.0622ZM145.676 98.2518C146.078 98.4783 146.808 98.3273 147.79 97.7232C148.771 97.1444 149.073 96.7417 148.645 96.49C148.268 96.2635 147.538 96.3894 146.506 96.9934C145.499 97.5722 145.248 98.0001 145.65 98.2266L145.676 98.2518Z" fill="#FFD2CD"/>
<path d="M153.251 98.2519C154.434 98.9314 153.855 99.8123 152.647 100.517C151.288 101.297 149.803 101.549 148.67 100.869C147.538 100.215 148.041 99.3341 149.274 98.6042C150.558 97.8744 152.118 97.5975 153.251 98.2519ZM149.476 100.441C149.879 100.668 150.608 100.517 151.59 99.9129C152.571 99.3341 152.873 98.9314 152.446 98.6797C152.068 98.4532 151.338 98.5791 150.306 99.1831C149.3 99.7619 149.048 100.19 149.451 100.416L149.476 100.441Z" fill="#FFD2CD"/>
<path d="M164.627 104.82C165.81 105.5 165.231 106.381 164.023 107.086C162.664 107.866 161.179 108.092 160.046 107.438C158.914 106.784 159.417 105.903 160.65 105.173C161.934 104.443 163.494 104.166 164.627 104.82ZM160.852 107.01C161.254 107.237 161.984 107.086 162.966 106.482C163.947 105.903 164.249 105.5 163.822 105.248C163.444 105.022 162.714 105.148 161.682 105.752C160.676 106.331 160.424 106.758 160.827 106.985L160.852 107.01Z" fill="#FFD2CD"/>
<path d="M176.607 111.817L172.202 114.384L171.196 113.805L174.694 111.792L173.435 111.515L174.04 110.961L175.751 111.339L176.607 111.817Z" fill="#FFD2CD"/>
<path d="M168.402 107.01C169.585 107.69 169.006 108.571 167.798 109.275C166.439 110.055 164.954 110.282 163.822 109.628C162.664 108.973 163.192 108.092 164.426 107.363C165.709 106.607 167.27 106.356 168.402 107.01ZM164.627 109.2C165.03 109.426 165.76 109.275 166.741 108.671C167.723 108.092 168.025 107.69 167.597 107.438C167.219 107.212 166.489 107.337 165.457 107.941C164.451 108.52 164.199 108.948 164.602 109.175L164.627 109.2Z" fill="#FFD2CD"/>
<path d="M172.832 109.653L168.402 112.195L167.421 111.616L170.894 109.603L169.635 109.326L170.239 108.772L171.951 109.149L172.832 109.653Z" fill="#FFD2CD"/>
<path d="M179.778 113.579C180.961 114.259 180.382 115.139 179.174 115.844C177.815 116.649 176.33 116.851 175.197 116.196C174.04 115.542 174.568 114.661 175.801 113.931C177.085 113.202 178.645 112.925 179.778 113.579ZM175.978 115.769C176.38 115.995 177.11 115.844 178.117 115.265C179.098 114.686 179.4 114.284 178.972 114.032C178.595 113.806 177.865 113.931 176.833 114.535C175.827 115.114 175.575 115.542 175.978 115.769Z" fill="#FFD2CD"/>
<path d="M138.15 99.0571L133.746 101.624L132.739 101.045L136.238 99.0068L134.979 98.7551L135.583 98.2014L137.295 98.5538L138.15 99.0571Z" fill="#FFD2CD"/>
<path d="M141.951 101.247L137.546 103.814L136.54 103.235L140.038 101.196L138.754 100.945L139.384 100.391L141.095 100.743L141.951 101.247Z" fill="#FFD2CD"/>
<path d="M145.726 103.436L141.321 106.003L140.34 105.425L143.813 103.386L142.555 103.134L143.159 102.581L144.87 102.933L145.726 103.436Z" fill="#FFD2CD"/>
<path d="M148.897 105.173C150.08 105.852 149.501 106.733 148.293 107.438C146.934 108.218 145.449 108.445 144.316 107.79C143.159 107.136 143.687 106.255 144.92 105.525C146.204 104.795 147.764 104.518 148.897 105.173ZM145.122 107.362C145.525 107.589 146.254 107.438 147.236 106.834C148.217 106.255 148.519 105.852 148.092 105.601C147.714 105.374 146.984 105.5 145.952 106.104C144.946 106.683 144.694 107.111 145.097 107.337L145.122 107.362Z" fill="#FFD2CD"/>
<path d="M164.048 113.931C165.231 114.611 164.652 115.492 163.444 116.196C162.085 117.002 160.6 117.203 159.468 116.549C158.31 115.894 158.838 115.014 160.072 114.284C161.355 113.529 162.916 113.277 164.048 113.931ZM160.273 116.121C160.676 116.347 161.406 116.196 162.387 115.592C163.369 115.039 163.671 114.611 163.243 114.359C162.865 114.133 162.135 114.258 161.103 114.863C160.097 115.441 159.845 115.869 160.248 116.096L160.273 116.121Z" fill="#FFD2CD"/>
<path d="M160.902 112.195L156.498 114.737L155.491 114.158L158.964 112.144L157.706 111.867L158.31 111.314L160.021 111.691L160.902 112.195Z" fill="#FFD2CD"/>
<path d="M156.472 109.552C157.655 110.231 157.076 111.112 155.868 111.817C154.509 112.597 153.024 112.824 151.892 112.169C150.734 111.515 151.263 110.634 152.496 109.904C153.779 109.149 155.34 108.898 156.472 109.552ZM152.697 111.742C153.1 111.968 153.83 111.817 154.811 111.213C155.793 110.634 156.095 110.231 155.667 109.98C155.29 109.753 154.56 109.879 153.528 110.483C152.521 111.062 152.269 111.49 152.672 111.716L152.697 111.742Z" fill="#FFD2CD"/>
<path d="M152.697 107.362C153.88 108.042 153.301 108.923 152.093 109.628C150.734 110.408 149.249 110.634 148.117 109.98C146.959 109.326 147.488 108.445 148.721 107.715C150.004 106.96 151.565 106.708 152.697 107.362ZM148.922 109.552C149.325 109.779 150.055 109.628 151.036 109.024C152.018 108.445 152.32 108.042 151.892 107.79C151.514 107.564 150.785 107.69 149.753 108.294C148.746 108.873 148.494 109.3 148.897 109.527L148.922 109.552Z" fill="#FFD2CD"/>
<path d="M171.624 118.285C172.806 118.965 172.228 119.846 171.02 120.55C169.66 121.331 168.176 121.557 167.043 120.903C165.885 120.248 166.414 119.368 167.647 118.638C168.931 117.883 170.491 117.631 171.624 118.285ZM167.823 120.475C168.226 120.701 168.956 120.55 169.962 119.972C170.944 119.393 171.246 118.99 170.818 118.738C170.441 118.512 169.711 118.638 168.679 119.242C167.672 119.821 167.421 120.248 167.823 120.475Z" fill="#FFD2CD"/>
<path d="M167.848 116.121C169.031 116.8 168.452 117.681 167.244 118.386C165.885 119.166 164.4 119.393 163.268 118.738C162.11 118.084 162.639 117.203 163.872 116.473C165.155 115.743 166.716 115.466 167.848 116.121ZM164.048 118.31C164.451 118.537 165.181 118.386 166.187 117.807C167.169 117.228 167.471 116.825 167.043 116.574C166.666 116.347 165.936 116.473 164.904 117.077C163.897 117.656 163.645 118.084 164.048 118.31Z" fill="#FFD2CD"/>
<path d="M155.919 118.663C157.102 119.342 156.523 120.223 155.315 120.928C153.956 121.708 152.471 121.935 151.338 121.28C150.18 120.626 150.709 119.745 151.942 119.015C153.226 118.285 154.786 118.008 155.919 118.663ZM152.144 120.852C152.546 121.079 153.276 120.928 154.258 120.324C155.239 119.745 155.541 119.342 155.113 119.091C154.736 118.864 154.006 118.99 152.974 119.594C151.967 120.173 151.716 120.601 152.118 120.827L152.144 120.852Z" fill="#FFD2CD"/>
<path d="M163.494 123.017C164.677 123.696 164.098 124.577 162.89 125.282C161.531 126.062 160.046 126.289 158.914 125.634C157.756 124.98 158.285 124.099 159.518 123.369C160.801 122.639 162.362 122.362 163.494 123.017ZM159.694 125.206C160.097 125.433 160.827 125.282 161.833 124.703C162.815 124.124 163.117 123.721 162.689 123.47C162.312 123.243 161.582 123.369 160.55 123.973C159.543 124.552 159.291 124.98 159.694 125.206Z" fill="#FFD2CD"/>
<path d="M159.719 120.827C160.902 121.507 160.323 122.388 159.115 123.092C157.756 123.873 156.271 124.099 155.139 123.445C153.981 122.79 154.51 121.91 155.743 121.18C157.026 120.45 158.587 120.173 159.719 120.827ZM155.919 123.017C156.322 123.243 157.051 123.092 158.058 122.514C159.04 121.935 159.342 121.532 158.914 121.28C158.536 121.054 157.807 121.18 156.775 121.784C155.768 122.363 155.516 122.79 155.919 123.017Z" fill="#FFD2CD"/>
<path d="M152.118 116.473C153.301 117.153 152.722 118.033 151.514 118.738C150.155 119.518 148.67 119.745 147.538 119.091C146.38 118.436 146.909 117.555 148.142 116.825C149.425 116.096 150.986 115.819 152.118 116.473ZM148.343 118.663C148.746 118.889 149.476 118.738 150.457 118.134C151.439 117.555 151.741 117.153 151.313 116.901C150.936 116.674 150.206 116.8 149.174 117.404C148.167 117.983 147.915 118.411 148.318 118.637L148.343 118.663Z" fill="#FFD2CD"/>
<path d="M148.973 114.737L144.568 117.279L143.562 116.7L147.035 114.686L145.776 114.409L146.38 113.881L148.117 114.233L148.973 114.737Z" fill="#FFD2CD"/>
<path d="M145.172 112.547L140.768 115.089L139.761 114.51L143.259 112.497L142.001 112.22L142.605 111.691L144.316 112.044L145.172 112.547Z" fill="#FFD2CD"/>
<path d="M141.397 110.357L136.993 112.899L135.986 112.321L139.459 110.307L138.201 110.03L138.805 109.502L140.516 109.854L141.397 110.357Z" fill="#FFD2CD"/>
<path d="M128.838 112.446C130.021 113.126 129.442 114.007 128.234 114.712C126.875 115.492 125.39 115.743 124.258 115.064C123.1 114.41 123.628 113.529 124.862 112.799C126.145 112.044 127.706 111.792 128.838 112.446ZM125.063 114.636C125.466 114.863 126.196 114.712 127.177 114.108C128.159 113.529 128.461 113.126 128.033 112.874C127.655 112.648 126.925 112.774 125.894 113.378C124.887 113.957 124.635 114.384 125.038 114.611L125.063 114.636Z" fill="#FFD2CD"/>
<path d="M125.038 110.257C126.221 110.936 125.642 111.817 124.434 112.522C123.075 113.302 121.59 113.529 120.457 112.874C119.3 112.22 119.828 111.339 121.061 110.609C122.345 109.854 123.905 109.602 125.038 110.257ZM121.263 112.446C121.665 112.673 122.395 112.522 123.377 111.918C124.358 111.339 124.66 110.936 124.232 110.685C123.855 110.458 123.125 110.584 122.093 111.188C121.087 111.767 120.835 112.195 121.238 112.421L121.263 112.446Z" fill="#FFD2CD"/>
<path d="M121.263 108.067C122.446 108.747 121.867 109.627 120.659 110.332C119.3 111.138 117.815 111.339 116.682 110.71C115.524 110.055 116.053 109.174 117.286 108.445C118.57 107.69 120.13 107.438 121.263 108.092V108.067ZM117.488 110.257C117.89 110.483 118.62 110.332 119.602 109.728C120.583 109.149 120.885 108.747 120.457 108.495C120.08 108.268 119.35 108.394 118.318 108.998C117.311 109.577 117.06 110.005 117.462 110.231L117.488 110.257Z" fill="#FFD2CD"/>
<path d="M118.092 106.331L113.687 108.898L112.681 108.319L116.179 106.28L114.921 106.029L115.525 105.475L117.236 105.827L118.092 106.331Z" fill="#FFD2CD"/>
<path d="M136.414 116.826C137.597 117.505 137.018 118.386 135.81 119.091C134.451 119.871 132.966 120.097 131.833 119.443C130.676 118.789 131.204 117.908 132.437 117.178C133.721 116.423 135.281 116.171 136.414 116.826ZM132.639 119.015C133.041 119.242 133.771 119.091 134.753 118.487C135.734 117.908 136.036 117.505 135.608 117.253C135.231 117.027 134.501 117.153 133.469 117.757C132.462 118.336 132.211 118.764 132.614 118.99L132.639 119.015Z" fill="#FFD2CD"/>
<path d="M133.243 115.089L128.838 117.631L127.832 117.052L131.33 115.039L130.071 114.762L130.676 114.233L132.387 114.586L133.243 115.089Z" fill="#FFD2CD"/>
<path d="M140.189 119.015C141.372 119.695 140.793 120.575 139.585 121.28C138.226 122.06 136.741 122.287 135.608 121.633C134.451 120.978 134.979 120.097 136.212 119.367C137.496 118.612 139.056 118.361 140.189 119.015ZM136.414 121.205C136.817 121.431 137.546 121.28 138.528 120.676C139.509 120.097 139.811 119.695 139.384 119.443C139.006 119.216 138.276 119.342 137.244 119.946C136.238 120.525 135.986 120.953 136.389 121.179L136.414 121.205Z" fill="#FFD2CD"/>
<path d="M155.365 127.748C156.548 128.428 155.969 129.309 154.761 130.014C153.402 130.794 151.917 131.02 150.784 130.391C149.627 129.737 150.155 128.856 151.389 128.126C152.672 127.371 154.232 127.119 155.365 127.774V127.748ZM151.565 129.938C151.967 130.165 152.697 130.014 153.704 129.435C154.685 128.856 154.987 128.453 154.56 128.201C154.182 127.975 153.452 128.101 152.42 128.705C151.414 129.284 151.162 129.712 151.565 129.938Z" fill="#FFD2CD"/>
<path d="M143.989 121.205C145.172 121.884 144.593 122.765 143.385 123.47C142.026 124.25 140.541 124.477 139.409 123.822C138.251 123.168 138.78 122.287 140.013 121.557C141.296 120.802 142.857 120.55 143.989 121.205ZM140.214 123.394C140.617 123.621 141.347 123.47 142.328 122.866C143.31 122.287 143.612 121.884 143.184 121.633C142.806 121.406 142.077 121.532 141.045 122.136C140.038 122.715 139.786 123.143 140.189 123.369L140.214 123.394Z" fill="#FFD2CD"/>
<path d="M148.394 123.822L143.989 126.389L143.008 125.811L146.481 123.772L145.223 123.52L145.827 122.967L147.538 123.344L148.394 123.822Z" fill="#FFD2CD"/>
<path d="M151.565 125.559C152.748 126.238 152.169 127.119 150.961 127.824C149.602 128.604 148.117 128.831 146.984 128.176C145.826 127.522 146.355 126.641 147.588 125.911C148.872 125.181 150.432 124.904 151.565 125.559ZM147.764 127.748C148.167 127.975 148.897 127.824 149.904 127.245C150.885 126.666 151.187 126.263 150.759 126.012C150.382 125.785 149.652 125.911 148.62 126.515C147.613 127.094 147.362 127.522 147.764 127.748Z" fill="#FFD2CD"/>
<path d="M86.5816 97.4967C87.7645 98.1763 87.1856 99.0571 85.9775 99.7618C84.6185 100.542 83.1336 100.769 82.001 100.114C80.8433 99.4598 81.3718 98.579 82.6051 97.8491C83.8886 97.1192 85.4238 96.8424 86.5816 97.4967ZM82.8064 99.6863C83.2091 99.9129 83.9389 99.7618 84.9205 99.1578C85.902 98.579 86.204 98.1763 85.7762 97.9246C85.3987 97.6981 84.6688 97.8239 83.6369 98.428C82.6302 99.0068 82.3785 99.4347 82.7812 99.6612L82.8064 99.6863Z" fill="#FFD2CD"/>
<path d="M98.5866 104.493L94.1822 107.061L93.1755 106.482L96.6739 104.443L95.4155 104.191L96.0195 103.638L97.7309 103.99L98.5866 104.493Z" fill="#FFD2CD"/>
<path d="M94.1822 101.851C95.3651 102.53 94.7862 103.411 93.5781 104.116C92.2191 104.896 90.7342 105.123 89.5765 104.468C88.4187 103.814 88.9473 102.933 90.1805 102.203C91.4641 101.448 93.0245 101.196 94.157 101.851H94.1822ZM90.407 104.04C90.8097 104.267 91.5396 104.116 92.5211 103.512C93.5026 102.933 93.8047 102.53 93.3768 102.279C92.9993 102.052 92.2694 102.178 91.2375 102.782C90.2308 103.361 89.9792 103.789 90.3818 104.015L90.407 104.04Z" fill="#FFD2CD"/>
<path d="M91.0112 100.114L86.6068 102.681L85.6001 102.102L89.0984 100.064L87.8149 99.812L88.4189 99.2583L90.1555 99.6358L91.0112 100.114Z" fill="#FFD2CD"/>
<path d="M102.362 106.683L97.9574 109.25L96.9758 108.671L100.449 106.633L99.1906 106.381L99.7946 105.827L101.506 106.179L102.362 106.683Z" fill="#FFD2CD"/>
<path d="M105.533 108.42C106.716 109.099 106.137 109.98 104.929 110.685C103.57 111.49 102.085 111.691 100.952 111.037C99.7947 110.383 100.323 109.502 101.556 108.772C102.84 108.042 104.375 107.765 105.533 108.42ZM101.758 110.609C102.16 110.836 102.89 110.685 103.872 110.081C104.853 109.502 105.155 109.099 104.728 108.847C104.35 108.621 103.62 108.747 102.588 109.351C101.582 109.93 101.33 110.358 101.733 110.584L101.758 110.609Z" fill="#FFD2CD"/>
<path d="M109.963 111.062L105.558 113.629L104.552 113.05L108.025 111.012L106.766 110.76L107.37 110.207L109.082 110.559L109.963 111.062Z" fill="#FFD2CD"/>
<path d="M113.737 113.252L109.333 115.819L108.326 115.24L111.825 113.201L110.566 112.95L111.17 112.396L112.882 112.748L113.737 113.252Z" fill="#FFD2CD"/>
<path d="M116.909 114.988C118.092 115.668 117.513 116.549 116.305 117.253C114.946 118.034 113.461 118.26 112.328 117.606C111.17 116.951 111.699 116.07 112.932 115.341C114.216 114.611 115.776 114.334 116.909 114.988ZM113.134 117.178C113.536 117.404 114.266 117.253 115.248 116.649C116.229 116.07 116.531 115.668 116.103 115.416C115.726 115.19 114.996 115.315 113.964 115.919C112.957 116.498 112.706 116.926 113.108 117.153L113.134 117.178Z" fill="#FFD2CD"/>
<path d="M128.259 121.557C129.442 122.237 128.863 123.117 127.655 123.822C126.296 124.602 124.811 124.829 123.679 124.175C122.521 123.52 123.05 122.639 124.283 121.909C125.566 121.18 127.127 120.903 128.259 121.557ZM124.484 123.747C124.887 123.973 125.617 123.822 126.598 123.218C127.58 122.639 127.882 122.237 127.454 121.985C127.076 121.758 126.347 121.884 125.315 122.488C124.308 123.067 124.056 123.495 124.459 123.721L124.484 123.747Z" fill="#FFD2CD"/>
<path d="M125.113 119.821L120.709 122.362L119.702 121.784L123.201 119.77L121.917 119.493L122.521 118.965L124.258 119.317L125.113 119.821Z" fill="#FFD2CD"/>
<path d="M121.313 117.631L116.909 120.173L115.902 119.594L119.4 117.581L118.142 117.304L118.746 116.775L120.457 117.127L121.313 117.631Z" fill="#FFD2CD"/>
<path d="M132.689 124.175L128.285 126.742L127.278 126.163L130.776 124.149L129.493 123.873L130.097 123.319L131.833 123.696L132.689 124.175Z" fill="#FFD2CD"/>
<path d="M136.464 126.364L132.06 128.931L131.078 128.352L134.551 126.314L133.293 126.062L133.897 125.508L135.608 125.886L136.464 126.364Z" fill="#FFD2CD"/>
<path d="M143.436 130.29C144.618 130.97 144.04 131.851 142.832 132.555C141.472 133.361 139.988 133.562 138.855 132.908C137.697 132.253 138.226 131.372 139.459 130.643C140.743 129.913 142.303 129.636 143.436 130.29ZM139.635 132.48C140.038 132.706 140.768 132.555 141.774 131.976C142.756 131.398 143.058 130.995 142.63 130.743C142.253 130.517 141.523 130.643 140.491 131.247C139.484 131.825 139.233 132.253 139.635 132.48Z" fill="#FFD2CD"/>
<path d="M140.264 128.554L135.86 131.121L134.853 130.542L138.352 128.503L137.093 128.252L137.697 127.698L139.409 128.076L140.264 128.554Z" fill="#FFD2CD"/>
<path d="M147.211 132.48C148.394 133.159 147.815 134.04 146.607 134.745C145.248 135.525 143.763 135.752 142.63 135.097C141.472 134.443 142.001 133.562 143.234 132.832C144.518 132.102 146.078 131.826 147.211 132.48ZM143.41 134.669C143.813 134.896 144.543 134.745 145.55 134.166C146.531 133.587 146.833 133.185 146.405 132.933C146.028 132.706 145.298 132.832 144.266 133.436C143.259 134.015 143.008 134.443 143.41 134.669Z" fill="#FFD2CD"/>
</g>
<g opacity="0.5">
<g opacity="0.5">
<path d="M114.719 59.8205V61.9346L119.576 59.1409V57.0269L114.719 59.8205Z" fill="url(#paint1_linear_249_217)"/>
</g>
<path d="M109.887 69.5352V71.6745L119.601 66.0621L119.576 63.948L109.887 69.5352Z" fill="url(#paint2_linear_249_217)"/>
<path d="M106.489 74.9715V77.0856L119.602 69.5101V67.4211L106.489 74.9715Z" fill="url(#paint3_linear_249_217)"/>
<path d="M104.4 72.7064V74.8205L108.553 72.4295V70.3154L104.4 72.7064Z" fill="url(#paint4_linear_249_217)"/>
<path d="M109.862 59.1661V61.2802L119.551 55.693V53.5537L109.862 59.1661Z" fill="url(#paint5_linear_249_217)"/>
<path d="M103.771 69.6108L103.796 71.7249L119.576 62.5889V60.4749L103.771 69.6108Z" fill="url(#paint6_linear_249_217)"/>
<path d="M104.375 62.3372V64.4513L108.528 62.0604L108.503 59.9463L104.375 62.3372Z" fill="url(#paint7_linear_249_217)"/>
<path d="M99.0144 68.8809V70.995L113.184 62.8155V60.7266L99.0144 68.8809Z" fill="url(#paint8_linear_249_217)"/>
<path d="M104.375 58.8641V60.9782L119.551 52.2198V50.1057L104.375 58.8641Z" fill="url(#paint9_linear_249_217)"/>
<path d="M97.8064 66.1124V68.2516L102.488 65.5335V63.4194L97.8064 66.1124Z" fill="url(#paint10_linear_249_217)"/>
<path d="M100.625 57.5806V59.6695L114.694 51.5655V49.4514L100.625 57.5806Z" fill="url(#paint11_linear_249_217)"/>
<path d="M95.5413 63.9731V66.0872L102.488 62.0604V59.9463L95.5413 63.9731Z" fill="url(#paint12_linear_249_217)"/>
<path d="M93.0999 58.4362V60.5503L102.462 55.1644V53.0251L93.0999 58.4362Z" fill="url(#paint13_linear_249_217)"/>
<path d="M95.491 50.1308V52.2449L102.437 48.2181V46.1292L95.491 50.1308Z" fill="url(#paint14_linear_249_217)"/>
<path d="M92.2441 55.4664V57.5805L102.462 51.6912V49.5771L92.2441 55.4664Z" fill="url(#paint15_linear_249_217)"/>
<path d="M93.0496 48.0671L93.0747 50.1812L102.437 44.7701V42.656L93.0496 48.0671Z" fill="url(#paint16_linear_249_217)"/>
<g opacity="0.5">
<path d="M115.852 48.7718V50.8859L119.551 48.7466L119.526 46.6577L115.852 48.7718Z" fill="url(#paint17_linear_249_217)"/>
<path d="M109.811 48.7718L109.836 50.9111L119.526 45.2987V43.1846L109.811 48.7718Z" fill="url(#paint18_linear_249_217)"/>
<path d="M106.414 47.2869V49.401L119.526 41.8507V39.7114L106.414 47.2869Z" fill="url(#paint19_linear_249_217)"/>
</g>
<g opacity="0.5">
<path d="M109.811 41.8758V43.9648L119.501 38.3775V36.2634L109.811 41.8758Z" fill="url(#paint20_linear_249_217)"/>
</g>
<g opacity="0.5">
<path d="M104.325 45.0218V47.1359L108.477 44.745V42.6309L104.325 45.0218Z" fill="url(#paint21_linear_249_217)"/>
</g>
<path d="M114.644 32.1359V34.25L119.501 31.4564L119.476 29.3423L114.644 32.1359Z" fill="url(#paint22_linear_249_217)"/>
<path d="M109.786 31.4815V33.5956L119.476 27.9832V25.8943L109.786 31.4815Z" fill="url(#paint23_linear_249_217)"/>
<path d="M103.696 41.9262L103.721 44.0403L119.501 34.9044V32.7903L103.696 41.9262Z" fill="url(#paint24_linear_249_217)"/>
<path d="M115.776 21.0873V23.2014L119.451 21.0873V18.948L115.776 21.0873Z" fill="url(#paint25_linear_249_217)"/>
<path d="M104.3 34.6527V36.7668L108.452 34.3758L108.427 32.2617L104.3 34.6527Z" fill="url(#paint26_linear_249_217)"/>
<path d="M98.939 41.1964V43.3105L113.108 35.1561V33.0168L98.939 41.1964Z" fill="url(#paint27_linear_249_217)"/>
<path d="M104.3 31.1795V33.2936L119.476 24.5352V22.4211L104.3 31.1795Z" fill="url(#paint28_linear_249_217)"/>
<path d="M109.736 21.1124L109.761 23.2013L119.451 17.6141V15.5L109.736 21.1124Z" fill="url(#paint29_linear_249_217)"/>
<path d="M97.7307 38.453V40.5419L102.412 37.849V35.7349L97.7307 38.453Z" fill="url(#paint30_linear_249_217)"/>
<path d="M100.55 29.8709V32.0101L114.618 23.8809V21.7668L100.55 29.8709Z" fill="url(#paint31_linear_249_217)"/>
<path d="M95.4404 36.2886L95.4656 38.4027L102.412 34.401V32.2617L95.4404 36.2886Z" fill="url(#paint32_linear_249_217)"/>
<path d="M92.9993 30.7768L93.0244 32.8657L102.387 27.4546V25.3657L92.9993 30.7768Z" fill="url(#paint33_linear_249_217)"/>
<g opacity="0.5">
<path d="M104.274 24.2584V26.3725L108.402 23.9815V21.8674L104.274 24.2584Z" fill="url(#paint34_linear_249_217)"/>
</g>
<g opacity="0.5">
<path d="M78.8801 45.8272L78.9053 47.9665L86.506 43.5621V41.448L78.8801 45.8272Z" fill="url(#paint35_linear_249_217)"/>
</g>
<g opacity="0.5">
<path d="M78.9304 52.7735V54.8876L84.4673 51.6912V49.5771L78.9304 52.7735Z" fill="url(#paint36_linear_249_217)"/>
</g>
<g opacity="0.5">
<path d="M78.9053 49.3004V51.4145L93.0496 43.2601V41.146L78.9053 49.3004Z" fill="url(#paint37_linear_249_217)"/>
</g>
<g opacity="0.5">
<path d="M78.8801 42.3791V44.4932L83.7375 41.6995V39.5854L78.8801 42.3791Z" fill="url(#paint38_linear_249_217)"/>
</g>
<g opacity="0.5">
<path d="M78.8801 38.9313V41.0202L88.5949 35.4329V33.3188L78.8801 38.9313Z" fill="url(#paint39_linear_249_217)"/>
</g>
<g opacity="0.5">
<path d="M95.5664 77.8154V79.9295L102.513 75.9278V73.7886L95.5664 77.8154Z" fill="url(#paint40_linear_249_217)"/>
<path d="M92.3198 83.151V85.2651L102.538 79.3758V77.2617L92.3198 83.151Z" fill="url(#paint41_linear_249_217)"/>
<path d="M93.1504 75.7516V77.8657L102.513 72.4547V70.3406L93.1504 75.7516Z" fill="url(#paint42_linear_249_217)"/>
</g>
<g opacity="0.5">
<path d="M78.9807 76.9849V79.099L93.125 70.9447V68.8306L78.9807 76.9849Z" fill="url(#paint43_linear_249_217)"/>
</g>
<g opacity="0.5">
<path d="M78.9807 70.0636V72.1777L83.8129 69.3841V67.27L78.9807 70.0636Z" fill="url(#paint44_linear_249_217)"/>
</g>
<g opacity="0.5">
<path d="M78.9556 66.5907V68.7299L88.6703 63.1175V61.0034L78.9556 66.5907Z" fill="url(#paint45_linear_249_217)"/>
<path d="M78.9556 63.1427V65.2568L88.6703 59.6695L88.6452 57.5303L78.9556 63.1427Z" fill="url(#paint46_linear_249_217)"/>
<path d="M78.9304 59.6947L78.9556 61.7837L82.7559 59.5941L82.7308 57.48L78.9304 59.6947Z" fill="url(#paint47_linear_249_217)"/>
</g>
<path d="M78.9304 56.2214V58.3355L91.3381 51.1627V49.0486L78.9304 56.2214Z" fill="url(#paint48_linear_249_217)"/>
<g opacity="0.5">
<path d="M104.35 51.9429V54.057L108.503 51.6661L108.477 49.552L104.35 51.9429Z" fill="url(#paint49_linear_249_217)"/>
</g>
<g opacity="0.5">
<path d="M78.9807 73.5369V75.6259L86.5814 71.2467V69.1326L78.9807 73.5369Z" fill="url(#paint50_linear_249_217)"/>
</g>
<path d="M79.0059 80.458V82.5469L84.5428 79.3506V77.2617L79.0059 80.458Z" fill="url(#paint51_linear_249_217)"/>
<g opacity="0.5">
<path d="M79.031 90.827V92.9411L88.7458 87.3287L88.7206 85.2397L79.031 90.827Z" fill="url(#paint52_linear_249_217)"/>
<path d="M79.0059 87.3539L79.031 89.4932L82.8314 87.2784V85.1643L79.0059 87.3539Z" fill="url(#paint53_linear_249_217)"/>
<path d="M79.0059 83.906V86.02L91.4136 78.8472V76.7583L79.0059 83.906Z" fill="url(#paint54_linear_249_217)"/>
</g>
</g>
<g opacity="0.1">
<path d="M142.58 84.0319C151.967 89.4681 152.018 98.2517 142.681 103.688C133.343 109.124 118.167 109.124 108.78 103.688C99.3919 98.2517 99.3164 89.4681 108.654 84.0319C117.991 78.6208 133.192 78.5956 142.58 84.0319Z" fill="black"/>
</g>
<path d="M146.582 84.8874C146.582 84.8874 146.582 85.0133 146.556 85.0636C146.506 85.2901 146.456 85.5166 146.38 85.718C146.33 85.9697 146.254 86.1962 146.179 86.4478C146.053 86.8002 145.902 87.1525 145.726 87.5049C145.701 87.5552 145.675 87.6307 145.625 87.6811C145.424 88.0586 145.197 88.4361 144.946 88.7885C144.92 88.8388 144.87 88.8891 144.845 88.9395C144.593 89.2666 144.342 89.5938 144.04 89.921C143.989 89.9713 143.939 90.0468 143.889 90.0972C143.587 90.4244 143.234 90.7767 142.882 91.0787C142.655 91.2801 142.404 91.4814 142.127 91.6827C141.9 91.8589 141.699 92.0351 141.472 92.2113C141.196 92.4126 140.894 92.614 140.592 92.7901C140.29 92.9915 140.013 93.1928 139.686 93.369C139.157 93.671 138.628 93.9478 138.075 94.2247C137.924 94.3002 137.773 94.3757 137.622 94.426C137.118 94.6525 136.615 94.8791 136.112 95.0804C136.036 95.1056 135.961 95.1307 135.885 95.1559C135.332 95.3572 134.753 95.5586 134.174 95.7348C133.771 95.8606 133.343 95.9864 132.915 96.0871C132.613 96.1626 132.311 96.2633 131.984 96.3388C131.531 96.4395 131.053 96.5401 130.6 96.6408C130.298 96.6911 129.996 96.7666 129.694 96.817C129.543 96.8421 129.392 96.8673 129.241 96.8925C128.712 96.9931 128.159 97.0687 127.63 97.119C127.454 97.119 127.303 97.1693 127.127 97.1693C126.825 97.1945 126.498 97.2197 126.196 97.2448C125.642 97.2952 125.113 97.3203 124.56 97.3455C124.207 97.3455 123.855 97.3455 123.503 97.3707C123.075 97.3707 122.647 97.3707 122.194 97.3707C121.816 97.3707 121.464 97.3707 121.087 97.3455C120.684 97.3455 120.281 97.3203 119.878 97.27C119.501 97.2448 119.123 97.2197 118.746 97.1693C118.343 97.119 117.966 97.0938 117.563 97.0435C117.211 96.9932 116.833 96.9428 116.481 96.8925C116.053 96.817 115.65 96.7415 115.248 96.666C114.895 96.5905 114.568 96.5401 114.216 96.4646C113.712 96.3639 113.234 96.2381 112.756 96.1123C112.429 96.0368 112.102 95.9361 111.8 95.8606C111.623 95.8103 111.472 95.7599 111.296 95.7096C110.793 95.5586 110.315 95.3824 109.837 95.2062C109.686 95.1559 109.56 95.1056 109.409 95.0552C108.981 94.8791 108.578 94.7029 108.15 94.5267C107.949 94.426 107.722 94.3505 107.521 94.2499C106.917 93.973 106.338 93.6458 105.759 93.3438C101.028 90.6257 98.662 87.0267 98.6872 83.4529V89.4931C98.662 93.067 101.028 96.6408 105.759 99.3841C106.313 99.7113 106.917 100.013 107.521 100.29C107.722 100.391 107.949 100.466 108.175 100.567C108.528 100.718 108.88 100.894 109.233 101.02C109.283 101.02 109.358 101.07 109.434 101.095C109.585 101.146 109.711 101.196 109.862 101.247C110.34 101.423 110.818 101.599 111.321 101.75C111.498 101.8 111.649 101.851 111.825 101.901C111.925 101.926 112.051 101.976 112.152 102.002C112.353 102.052 112.555 102.102 112.756 102.153C113.259 102.278 113.738 102.404 114.241 102.53C114.367 102.555 114.493 102.606 114.644 102.631C114.845 102.681 115.046 102.706 115.248 102.731C115.675 102.807 116.103 102.882 116.531 102.958C116.707 102.983 116.858 103.033 117.035 103.059C117.211 103.084 117.412 103.109 117.613 103.134C118.016 103.184 118.394 103.235 118.796 103.26C118.998 103.26 119.174 103.31 119.375 103.335C119.551 103.335 119.727 103.335 119.929 103.361C120.332 103.386 120.734 103.411 121.137 103.436C121.338 103.436 121.54 103.461 121.766 103.461C121.942 103.461 122.093 103.461 122.269 103.461C122.697 103.461 123.125 103.461 123.578 103.461C123.805 103.461 124.031 103.461 124.233 103.461C124.358 103.461 124.484 103.461 124.635 103.436C125.164 103.436 125.692 103.386 126.221 103.335C126.447 103.335 126.674 103.335 126.9 103.285C126.976 103.285 127.051 103.285 127.102 103.26C128.008 103.159 128.914 103.033 129.82 102.882C129.87 102.882 129.92 102.882 129.971 102.882C130.248 102.832 130.499 102.757 130.751 102.706C131.179 102.606 131.632 102.53 132.06 102.429C132.362 102.354 132.689 102.253 132.991 102.178C133.419 102.052 133.821 101.951 134.249 101.825C134.325 101.8 134.425 101.775 134.501 101.75C135.004 101.599 135.483 101.423 135.961 101.247C136.036 101.221 136.112 101.196 136.187 101.146C136.716 100.944 137.219 100.718 137.722 100.491C137.873 100.416 138.024 100.366 138.175 100.29C138.729 100.013 139.283 99.7364 139.786 99.4344C139.887 99.3841 139.988 99.3086 140.088 99.2582C140.315 99.1324 140.491 98.9814 140.692 98.8556C140.994 98.6542 141.296 98.478 141.573 98.2767C141.8 98.1005 142.026 97.9244 142.227 97.7482C142.479 97.5468 142.731 97.3455 142.983 97.119C143.033 97.0687 143.083 97.0435 143.134 96.9932C143.436 96.7163 143.738 96.4143 143.989 96.1374C144.04 96.0871 144.09 96.0116 144.14 95.9613C144.291 95.7851 144.467 95.6089 144.593 95.4076C144.719 95.2566 144.82 95.1056 144.92 94.9546C144.971 94.9042 144.996 94.8539 145.046 94.8036C145.248 94.5267 145.424 94.2499 145.575 93.973C145.625 93.8723 145.675 93.7968 145.726 93.6962C145.751 93.6458 145.776 93.5703 145.826 93.52C145.977 93.218 146.103 92.916 146.229 92.614C146.229 92.5636 146.229 92.5133 146.279 92.4629C146.355 92.2364 146.405 91.9848 146.481 91.7582C146.531 91.5821 146.582 91.4311 146.632 91.2549C146.632 91.2046 146.632 91.1794 146.632 91.1291C146.682 90.8774 146.682 90.6257 146.707 90.374C146.707 90.1978 146.758 90.0468 146.758 89.8707C146.758 89.7952 146.758 89.7197 146.758 89.6693V83.6291C146.758 84.0317 146.758 84.4344 146.682 84.8623L146.582 84.8874Z" fill="#C0C0F6"/>
<path d="M139.61 73.7635C148.998 79.1745 149.073 87.9833 139.736 93.4195C130.399 98.8557 115.197 98.8557 105.81 93.4195C96.4222 87.9833 96.3719 79.1997 105.709 73.7635C115.046 68.3272 130.223 68.3272 139.61 73.7635Z" fill="#E9F0F4"/>
<path d="M137.471 63.7718C129.266 59.0403 116.028 59.0403 107.874 63.7718C103.822 66.1376 101.783 69.2332 101.783 72.3288C101.783 72.3288 101.783 72.3288 101.783 72.3037V80.9362C101.758 84.057 103.822 87.1778 107.924 89.5688C108.427 89.8456 108.931 90.1225 109.459 90.3741C109.635 90.4497 109.837 90.5252 110.038 90.6258C110.34 90.7517 110.642 90.9027 110.969 91.0285C111.02 91.0285 111.045 91.0285 111.095 91.0788C111.825 91.3557 112.58 91.6074 113.335 91.8339C113.385 91.8339 113.436 91.8842 113.511 91.8842C113.687 91.9346 113.863 91.9597 114.014 92.0101C114.442 92.1359 114.895 92.2366 115.348 92.3372C115.449 92.3624 115.575 92.3876 115.676 92.4127C115.852 92.4379 116.028 92.4631 116.204 92.5134C116.582 92.5889 116.934 92.6393 117.311 92.7148C117.462 92.7148 117.613 92.7651 117.764 92.7903C117.941 92.7903 118.092 92.8154 118.268 92.8406C118.595 92.8909 118.947 92.9161 119.3 92.9664C119.476 92.9664 119.652 93.0168 119.803 93.0168C119.954 93.0168 120.13 93.0168 120.281 93.0419C120.634 93.0419 120.986 93.0923 121.313 93.0923C121.489 93.0923 121.665 93.0923 121.842 93.1174C121.993 93.1174 122.119 93.1174 122.27 93.1174C122.647 93.1174 123.05 93.1174 123.427 93.1174C123.603 93.1174 123.805 93.1174 123.981 93.1174C124.082 93.1174 124.207 93.1174 124.308 93.1174C124.786 93.1174 125.264 93.0671 125.718 93.0168C125.919 93.0168 126.095 93.0168 126.296 92.9664C126.347 92.9664 126.422 92.9664 126.473 92.9664C127.278 92.8909 128.058 92.7651 128.838 92.6392C128.889 92.6392 128.914 92.6392 128.964 92.6392C129.216 92.5889 129.442 92.5386 129.669 92.4882C130.046 92.4127 130.424 92.3372 130.801 92.2617C131.078 92.1862 131.355 92.1107 131.632 92.0352C131.984 91.9346 132.337 91.8339 132.689 91.7332C132.764 91.708 132.84 91.6829 132.941 91.6577C133.066 91.6074 133.192 91.557 133.318 91.5067C133.872 91.3054 134.4 91.104 134.929 90.9027C135.13 90.8272 135.332 90.7265 135.533 90.651C136.212 90.349 136.867 90.0218 137.496 89.6443C137.572 89.5939 137.672 89.5436 137.748 89.4933C137.949 89.3674 138.125 89.2416 138.301 89.1158C138.553 88.9648 138.805 88.7886 139.031 88.6376C139.233 88.4866 139.434 88.3104 139.635 88.1594C139.862 87.9832 140.063 87.807 140.264 87.6309C140.315 87.6057 140.365 87.5554 140.39 87.5302C140.667 87.2785 140.919 87.0268 141.145 86.7752C141.196 86.7248 141.221 86.6745 141.271 86.6241C141.422 86.4731 141.548 86.297 141.674 86.146C141.775 86.0201 141.875 85.8943 141.951 85.7684C141.976 85.7181 142.026 85.6929 142.051 85.6426C142.228 85.3909 142.379 85.1644 142.504 84.9127C142.53 84.8624 142.555 84.8121 142.58 84.7617C142.706 84.5352 142.781 84.3339 142.882 84.1074C142.932 83.9815 143.008 83.8557 143.058 83.7299C143.058 83.6795 143.058 83.6544 143.083 83.604C143.159 83.4027 143.209 83.1762 143.259 82.9748C143.285 82.8238 143.36 82.698 143.385 82.547C143.385 82.4966 143.385 82.4715 143.385 82.4211C143.436 82.2198 143.436 81.9933 143.461 81.7919C143.461 81.6409 143.511 81.4899 143.511 81.3389C143.511 81.2886 143.511 81.2131 143.511 81.1627V72.5302C143.511 72.7315 143.511 72.9077 143.511 73.109C143.788 69.7869 141.775 66.4144 137.37 63.8976L137.471 63.7718ZM141.598 77.5889C141.749 77.3876 141.926 77.2114 142.077 77.0101C142.077 77.0101 142.077 77.0352 142.051 77.0604C141.926 77.2366 141.749 77.4379 141.598 77.6141V77.5889ZM142.379 76.4815C142.479 76.3054 142.58 76.1544 142.681 75.9782C142.605 76.1292 142.479 76.3054 142.404 76.4564L142.379 76.4815ZM142.983 75.349C143.058 75.1728 143.134 74.9966 143.209 74.8205C143.159 74.9966 143.058 75.1476 143.008 75.3238L142.983 75.349ZM143.385 74.1661C143.436 73.9899 143.486 73.8137 143.511 73.6376C143.511 73.6376 143.511 73.6376 143.511 73.6627C143.486 73.8389 143.436 73.9899 143.385 74.1661ZM141.221 78.0419C141.02 78.2433 140.818 78.4446 140.592 78.646C140.818 78.4446 141.02 78.2433 141.221 78.0168V78.0419ZM139.358 79.703C139.358 79.703 139.585 79.5268 139.711 79.4262C139.61 79.5017 139.484 79.6023 139.384 79.6778L139.358 79.703ZM138.377 80.4077C138.125 80.5839 137.874 80.7601 137.572 80.9111C137.848 80.7349 138.125 80.5587 138.377 80.3825V80.4077ZM101.833 72.9077C101.833 73.109 101.833 73.2852 101.884 73.4866C101.858 73.2852 101.858 73.109 101.833 72.9077ZM102.035 74.0906C102.085 74.2668 102.11 74.4681 102.186 74.6443C102.135 74.4681 102.085 74.2668 102.035 74.0906ZM102.437 75.2735C102.513 75.4497 102.563 75.6007 102.664 75.7768C102.588 75.6007 102.513 75.4497 102.437 75.2735ZM106.514 80.005C106.389 79.9043 106.263 79.8037 106.137 79.7282C106.263 79.8288 106.363 79.9295 106.514 80.005ZM105.256 79.0235C105.105 78.8976 105.004 78.7718 104.853 78.646C104.979 78.7718 105.105 78.8976 105.256 79.0235Z" fill="url(#paint55_linear_249_217)"/>
<path d="M146.581 67.9245C146.581 67.9245 146.581 68.0251 146.556 68.1006C146.506 68.3272 146.456 68.5537 146.38 68.7802C146.33 69.0319 146.254 69.2584 146.179 69.51C146.053 69.8624 145.902 70.2147 145.726 70.5671C145.701 70.6174 145.65 70.6929 145.625 70.7433C145.424 71.1208 145.197 71.4983 144.946 71.8506C144.895 71.901 144.87 71.9513 144.82 72.0268C144.593 72.354 144.316 72.6812 144.039 73.0084C143.989 73.0587 143.939 73.1342 143.888 73.1845C143.586 73.5117 143.234 73.8389 142.882 74.1661C142.655 74.3674 142.378 74.5688 142.127 74.7701C141.9 74.9463 141.699 75.1225 141.447 75.2986C141.17 75.5 140.894 75.6761 140.591 75.8775C140.289 76.0788 139.987 76.2802 139.66 76.4815C139.132 76.7835 138.603 77.0604 138.05 77.3372C137.899 77.4127 137.773 77.4631 137.622 77.5386C137.118 77.7651 136.615 77.9916 136.086 78.1929C136.011 78.2181 135.961 78.2433 135.885 78.2684C135.331 78.4698 134.753 78.6711 134.174 78.8473C133.771 78.9731 133.343 79.099 132.94 79.1996C132.638 79.2751 132.336 79.3758 132.009 79.4513C131.556 79.552 131.128 79.6527 130.675 79.7282C130.373 79.7785 130.097 79.854 129.795 79.9043C128.888 80.0553 127.982 80.1812 127.076 80.2819C126.774 80.307 126.498 80.3322 126.196 80.3574C125.667 80.4077 125.138 80.4329 124.61 80.458C124.258 80.458 123.905 80.458 123.553 80.4832C123.125 80.4832 122.697 80.4832 122.269 80.4832C121.892 80.4832 121.514 80.4832 121.137 80.458C120.734 80.458 120.357 80.4329 119.954 80.4077C119.576 80.3825 119.199 80.3574 118.821 80.307C118.419 80.2567 118.041 80.2315 117.664 80.1812C117.286 80.1308 116.934 80.0805 116.556 80.0302C116.128 79.9547 115.701 79.8792 115.298 79.8037C114.971 79.7282 114.644 79.6778 114.316 79.6023C113.813 79.5016 113.335 79.3758 112.857 79.25C112.529 79.1745 112.202 79.0738 111.875 78.9983C111.699 78.948 111.548 78.8976 111.397 78.8473C110.894 78.6963 110.415 78.5201 109.937 78.3439C109.786 78.2936 109.66 78.2433 109.509 78.1929C109.081 78.0419 108.679 77.8406 108.276 77.6644C108.05 77.5637 107.823 77.4882 107.622 77.3876C107.018 77.1107 106.439 76.8087 105.86 76.4815C101.128 73.7634 98.7626 70.1644 98.7878 66.5906V72.6308C98.7626 76.2047 101.128 79.7785 105.86 82.5218C106.439 82.849 107.018 83.151 107.622 83.453C107.823 83.5537 108.024 83.6292 108.226 83.7298C108.578 83.8808 108.956 84.057 109.308 84.208C109.358 84.208 109.434 84.2584 109.484 84.2835C109.635 84.3339 109.761 84.3842 109.912 84.4345C110.39 84.6107 110.868 84.7617 111.347 84.9379C111.523 84.9882 111.699 85.0386 111.875 85.0889C111.976 85.1141 112.102 85.1644 112.202 85.1896C112.404 85.2399 112.605 85.2902 112.806 85.3406C113.31 85.4664 113.813 85.5923 114.316 85.7181C114.442 85.7433 114.568 85.7936 114.719 85.8188C114.92 85.8691 115.122 85.8943 115.323 85.9194C115.751 85.9949 116.154 86.0704 116.581 86.1459C116.758 86.1711 116.934 86.2215 117.11 86.2466C117.286 86.2718 117.487 86.297 117.664 86.297C118.066 86.3473 118.469 86.3976 118.872 86.4228C119.048 86.4228 119.249 86.4731 119.425 86.4983C119.602 86.4983 119.778 86.4983 119.954 86.5235C120.357 86.5486 120.784 86.5738 121.187 86.599C121.388 86.599 121.59 86.6241 121.791 86.6241C121.942 86.6241 122.118 86.6241 122.295 86.6241C122.722 86.6241 123.175 86.6241 123.603 86.6241C123.83 86.6241 124.056 86.6241 124.258 86.6241C124.383 86.6241 124.509 86.6241 124.635 86.599C125.189 86.599 125.742 86.5235 126.296 86.4983C126.498 86.4983 126.724 86.4983 126.925 86.448C127.026 86.448 127.127 86.448 127.227 86.4228C127.404 86.4228 127.58 86.3725 127.731 86.3725C128.284 86.297 128.838 86.2214 129.392 86.1459C129.518 86.1459 129.643 86.0956 129.769 86.0956C129.845 86.0956 129.92 86.0956 129.971 86.0704C130.248 86.0201 130.499 85.9446 130.776 85.8943C131.204 85.7936 131.657 85.7181 132.085 85.6174C132.412 85.5419 132.714 85.4412 133.016 85.3657C133.444 85.2399 133.847 85.1392 134.274 85.0134C134.35 84.9882 134.451 84.9631 134.526 84.9379C135.029 84.7869 135.508 84.6107 135.986 84.4345C136.061 84.4094 136.137 84.359 136.212 84.3339C136.716 84.1325 137.219 83.906 137.722 83.6795C137.873 83.604 138.024 83.5285 138.175 83.4782C138.729 83.2013 139.258 82.9245 139.786 82.6225C139.887 82.5721 139.987 82.4966 140.088 82.4463C140.289 82.3204 140.491 82.1694 140.692 82.0436C140.994 81.8423 141.296 81.6661 141.573 81.4647C141.8 81.2886 142.026 81.1124 142.253 80.9362C142.504 80.7349 142.756 80.5335 142.982 80.3322C143.033 80.2819 143.083 80.2567 143.133 80.2063C143.435 79.9295 143.737 79.6275 143.989 79.3255C144.039 79.2751 144.09 79.1996 144.14 79.1493C144.291 78.9731 144.467 78.7718 144.618 78.5956C144.744 78.4446 144.845 78.2936 144.946 78.1426C144.971 78.0923 145.021 78.0419 145.046 77.9916C145.248 77.7147 145.424 77.4379 145.575 77.161C145.625 77.0604 145.675 76.9597 145.726 76.8842C145.751 76.8339 145.776 76.7835 145.801 76.708C145.952 76.406 146.103 76.104 146.204 75.802C146.204 75.7516 146.229 75.7013 146.254 75.651C146.33 75.4245 146.38 75.198 146.456 74.9463C146.506 74.7701 146.556 74.6191 146.607 74.4429C146.607 74.3926 146.607 74.3674 146.607 74.3171C146.657 74.0654 146.682 73.8137 146.682 73.5621C146.682 73.3859 146.732 73.2349 146.732 73.0587C146.732 72.9832 146.732 72.9077 146.732 72.8574V66.8171C146.732 67.2198 146.732 67.6476 146.657 68.0503L146.581 67.9245Z" fill="#C0C0F6"/>
<path d="M139.61 56.8003C148.998 62.2365 149.073 71.0201 139.711 76.4563C130.373 81.8926 115.197 81.8674 105.784 76.4563C96.3968 71.0201 96.3465 62.2365 105.684 56.8255C115.021 51.3892 130.197 51.3892 139.61 56.8255V56.8003Z" fill="#E9F0F4"/>
<path d="M137.471 46.8338C129.266 42.1023 116.028 42.1023 107.874 46.8338C103.822 49.1996 101.783 52.2952 101.783 55.3909C101.783 55.3909 101.783 55.3909 101.783 55.3657V63.9982C101.758 67.1191 103.822 70.2399 107.924 72.6308C108.427 72.9076 108.931 73.1845 109.459 73.4362C109.635 73.5117 109.837 73.5872 110.013 73.6878C110.315 73.8137 110.617 73.9647 110.944 74.0905C110.969 74.0905 111.02 74.0905 111.07 74.1409C111.8 74.4177 112.555 74.6694 113.31 74.8959C113.36 74.8959 113.436 74.9462 113.486 74.9462C113.662 74.9966 113.838 75.0217 114.014 75.0721C114.442 75.1979 114.895 75.2986 115.323 75.3993C115.449 75.4244 115.55 75.4496 115.65 75.4748C115.827 75.4999 116.003 75.5251 116.154 75.5754C116.531 75.6509 116.909 75.7013 117.286 75.7768C117.437 75.7768 117.588 75.8271 117.714 75.8523C117.865 75.8523 118.041 75.8774 118.218 75.9026C118.57 75.9529 118.922 75.9781 119.275 76.0284C119.451 76.0284 119.602 76.0788 119.778 76.0788C119.929 76.0788 120.08 76.0788 120.231 76.104C120.583 76.104 120.961 76.1543 121.313 76.1543C121.489 76.1543 121.665 76.1543 121.842 76.1795C121.993 76.1795 122.119 76.1795 122.27 76.1795C122.647 76.1795 123.05 76.1795 123.427 76.1795C123.603 76.1795 123.805 76.1795 123.981 76.1795C124.082 76.1795 124.207 76.1795 124.308 76.1795C124.786 76.1795 125.264 76.1291 125.743 76.0788C125.919 76.0788 126.12 76.0788 126.296 76.0536C126.347 76.0536 126.397 76.0536 126.473 76.0536C127.278 75.9781 128.058 75.8523 128.863 75.7264C128.914 75.7264 128.939 75.7264 128.989 75.7264C129.216 75.6761 129.442 75.6258 129.669 75.5754C130.046 75.4999 130.449 75.4244 130.801 75.3237C131.078 75.2482 131.355 75.1727 131.632 75.0972C131.984 74.9966 132.337 74.8959 132.689 74.7952C132.764 74.7952 132.84 74.7449 132.915 74.7197C133.041 74.6694 133.167 74.619 133.293 74.5687C133.847 74.3674 134.4 74.166 134.929 73.9395C135.13 73.864 135.332 73.7633 135.533 73.6878C136.212 73.3858 136.867 73.0586 137.496 72.6811C137.572 72.6308 137.672 72.5805 137.748 72.5301C137.949 72.4043 138.125 72.2784 138.301 72.1526C138.553 72.0016 138.805 71.8254 139.031 71.6744C139.233 71.5234 139.434 71.3724 139.635 71.1962C139.862 71.0201 140.088 70.8439 140.264 70.6677C140.315 70.6425 140.365 70.5922 140.39 70.567C140.667 70.3154 140.919 70.0637 141.145 69.812C141.196 69.7617 141.246 69.7113 141.271 69.661C141.422 69.51 141.548 69.3338 141.674 69.1828C141.775 69.057 141.85 68.9311 141.951 68.8053C141.976 68.755 142.026 68.7046 142.051 68.6795C142.228 68.4278 142.379 68.2013 142.504 67.9496C142.53 67.8993 142.555 67.8489 142.58 67.7986C142.706 67.5721 142.781 67.3707 142.882 67.1442C142.932 67.0184 143.008 66.8925 143.058 66.7667C143.058 66.7164 143.058 66.6912 143.083 66.6409C143.159 66.4395 143.209 66.2382 143.259 66.0117C143.31 65.8607 143.36 65.7348 143.385 65.5838C143.385 65.5335 143.385 65.5083 143.385 65.458C143.436 65.2566 143.436 65.0301 143.461 64.8288C143.461 64.6778 143.511 64.5268 143.511 64.3758C143.511 64.3254 143.511 64.2499 143.511 64.1996V55.567C143.511 55.7684 143.511 55.9446 143.511 56.1459C143.788 52.8237 141.775 49.4513 137.37 46.9345L137.471 46.8338ZM141.598 60.6509C141.749 60.4496 141.926 60.2482 142.077 60.0721C142.077 60.0721 142.077 60.0972 142.051 60.1224C141.926 60.2986 141.749 60.4999 141.598 60.6761V60.6509ZM142.379 59.5435C142.479 59.3674 142.58 59.2164 142.681 59.0402C142.605 59.1912 142.479 59.3674 142.404 59.5184L142.379 59.5435ZM142.983 58.411C143.058 58.2348 143.134 58.0586 143.209 57.8825C143.159 58.0586 143.058 58.2097 143.008 58.3858L142.983 58.411ZM143.385 57.2281C143.436 57.0519 143.486 56.8758 143.511 56.6996C143.511 56.6996 143.511 56.6996 143.511 56.7248C143.486 56.9009 143.436 57.0519 143.385 57.2281ZM141.221 61.104C141.02 61.3053 140.818 61.5066 140.592 61.708C140.818 61.5066 141.02 61.3053 141.221 61.0788V61.104ZM139.358 62.7902C139.358 62.7902 139.585 62.614 139.711 62.5133C139.61 62.614 139.484 62.6895 139.384 62.7902H139.358ZM138.377 63.4697C138.125 63.6459 137.874 63.8221 137.572 63.9731C137.848 63.7969 138.125 63.6207 138.377 63.4446V63.4697ZM101.833 55.9697C101.833 56.1711 101.833 56.3472 101.884 56.5486C101.858 56.3472 101.858 56.1711 101.833 55.9697ZM102.035 57.1526C102.085 57.3288 102.11 57.5301 102.186 57.7063C102.135 57.5301 102.085 57.3539 102.035 57.1526ZM102.437 58.3355C102.513 58.5117 102.563 58.6627 102.664 58.8388C102.588 58.6627 102.513 58.5117 102.437 58.3355ZM106.514 63.067C106.389 62.9664 106.263 62.8657 106.137 62.7902C106.263 62.8909 106.363 62.9915 106.514 63.067ZM105.256 62.0855C105.105 61.9597 105.004 61.8338 104.853 61.708C104.979 61.8338 105.105 61.9597 105.256 62.0855Z" fill="url(#paint56_linear_249_217)"/>
<path d="M146.581 49.8791C146.581 49.8791 146.581 50.005 146.556 50.0553C146.506 50.2818 146.456 50.5083 146.38 50.7348C146.33 50.9613 146.254 51.213 146.179 51.4395C146.053 51.7919 145.902 52.1442 145.726 52.4966C145.701 52.5469 145.675 52.6224 145.625 52.6727C145.424 53.0503 145.197 53.4278 144.946 53.7801C144.92 53.8305 144.87 53.8808 144.845 53.9311C144.618 54.2583 144.342 54.5855 144.065 54.9127C144.014 54.9882 143.964 55.0385 143.914 55.114C143.612 55.4412 143.259 55.7684 142.907 56.0956C142.68 56.2969 142.404 56.4983 142.152 56.6996C141.925 56.8758 141.724 57.0519 141.498 57.2281C141.221 57.4295 140.919 57.6308 140.617 57.807C140.315 58.0083 140.038 58.2097 139.711 58.3858C139.182 58.6878 138.654 58.9647 138.1 59.2415C137.949 59.317 137.798 59.3925 137.647 59.4429C137.144 59.6694 136.615 59.8959 136.086 60.0972C136.036 60.0972 135.961 60.1476 135.91 60.1727C135.331 60.3993 134.778 60.5754 134.174 60.7768C133.771 60.9026 133.368 61.0033 132.966 61.1291C132.638 61.2046 132.336 61.3053 132.009 61.3808C131.556 61.4815 131.128 61.5821 130.675 61.6576C130.373 61.708 130.097 61.7835 129.795 61.8338C128.888 61.9848 127.982 62.1107 127.051 62.2113C126.774 62.2365 126.498 62.2617 126.221 62.2868C125.667 62.3372 125.138 62.3623 124.585 62.3875C124.232 62.3875 123.88 62.3875 123.528 62.4127C123.1 62.4127 122.672 62.4127 122.244 62.4127C121.867 62.4127 121.514 62.4127 121.137 62.3875C120.734 62.3875 120.306 62.3623 119.904 62.312C119.551 62.312 119.199 62.2617 118.821 62.2113C118.419 62.161 118.016 62.1358 117.613 62.0855C117.261 62.0352 116.909 61.9848 116.556 61.9345C116.128 61.859 115.701 61.7835 115.273 61.708C114.946 61.6576 114.644 61.5821 114.316 61.5066C113.788 61.3808 113.284 61.255 112.781 61.1291C112.479 61.0536 112.177 60.9781 111.875 60.8774C111.699 60.8271 111.523 60.7768 111.347 60.7013C110.868 60.5503 110.39 60.3741 109.912 60.2231C109.761 60.1727 109.635 60.1224 109.484 60.0721C109.056 59.8959 108.628 59.7197 108.226 59.5436C108.024 59.4429 107.798 59.3674 107.597 59.2667C106.993 58.9899 106.414 58.6878 105.835 58.3607C101.103 55.6425 98.7375 52.0436 98.7626 48.4697V54.51C98.7375 58.0838 101.103 61.6828 105.835 64.4009C106.388 64.7281 106.993 65.0301 107.597 65.307C107.798 65.4076 108.024 65.4831 108.226 65.5838C108.578 65.7348 108.93 65.911 109.283 66.062C109.358 66.0872 109.409 66.1123 109.484 66.1375C109.61 66.1878 109.761 66.2382 109.912 66.2885C110.39 66.4647 110.868 66.6157 111.347 66.7919C111.523 66.8422 111.699 66.8925 111.875 66.9681C111.976 66.9932 112.102 67.0436 112.202 67.0687C112.404 67.1191 112.605 67.1694 112.781 67.2197C113.284 67.3456 113.788 67.4714 114.316 67.5972C114.442 67.6224 114.568 67.6727 114.694 67.6979C114.895 67.7482 115.071 67.7734 115.273 67.7986C115.701 67.8741 116.128 67.9496 116.556 68.0251C116.732 68.0503 116.883 68.0754 117.06 68.1258C117.236 68.1509 117.437 68.1761 117.638 68.1761C118.041 68.2264 118.419 68.2768 118.821 68.3019C119.023 68.3019 119.199 68.3523 119.4 68.3774C119.576 68.3774 119.778 68.3774 119.954 68.4026C120.357 68.4278 120.734 68.4529 121.137 68.4781C121.338 68.4781 121.539 68.5033 121.766 68.5033C121.942 68.5033 122.093 68.5033 122.269 68.5033C122.697 68.5033 123.125 68.5033 123.553 68.5033C123.779 68.5033 124.006 68.5033 124.232 68.5033C124.358 68.5033 124.484 68.5033 124.635 68.4781C125.164 68.4781 125.692 68.4278 126.221 68.3774C126.447 68.3774 126.674 68.3774 126.9 68.3271C126.976 68.3271 127.051 68.3271 127.102 68.3019C128.008 68.2013 128.914 68.0754 129.82 67.9244C129.87 67.9244 129.895 67.9244 129.946 67.9244C130.197 67.8741 130.449 67.8238 130.726 67.7482C131.179 67.6476 131.607 67.5721 132.06 67.4714C132.387 67.3959 132.689 67.2952 133.016 67.2197C133.419 67.1191 133.821 66.9932 134.224 66.8674C134.3 66.8422 134.4 66.817 134.501 66.7919C135.004 66.6409 135.482 66.4647 135.961 66.2633C136.011 66.2633 136.086 66.213 136.137 66.1878C136.665 65.9865 137.194 65.76 137.697 65.5083C137.848 65.4328 137.974 65.3825 138.125 65.307C138.679 65.0301 139.232 64.7533 139.736 64.4513C139.836 64.4009 139.937 64.3506 140.038 64.2751C140.264 64.1241 140.466 63.9731 140.692 63.8472C140.969 63.6711 141.246 63.4949 141.498 63.2936C141.749 63.1174 141.951 62.9412 142.177 62.7399C142.429 62.5385 142.68 62.3372 142.907 62.1358C142.957 62.0855 143.008 62.0603 143.058 62.01C143.36 61.7331 143.662 61.4311 143.914 61.1291C143.964 61.0788 144.014 61.0033 144.065 60.9278C144.216 60.7516 144.392 60.5754 144.518 60.3993C144.644 60.2482 144.719 60.0972 144.845 59.9714C144.895 59.9211 144.92 59.8707 144.971 59.8204C145.147 59.5436 145.348 59.2667 145.499 58.9899C145.55 58.8892 145.6 58.8137 145.65 58.713C145.675 58.6627 145.701 58.5872 145.751 58.5368C145.902 58.2348 146.053 57.9328 146.154 57.6308C146.154 57.5805 146.154 57.5301 146.204 57.4798C146.279 57.2533 146.355 57.0016 146.405 56.7751C146.456 56.6241 146.506 56.4479 146.556 56.2969C146.556 56.2466 146.556 56.1962 146.556 56.1711C146.607 55.9194 146.632 55.6677 146.632 55.4412C146.632 55.265 146.682 55.114 146.682 54.9378C146.682 54.8623 146.682 54.7868 146.682 54.7365V48.6962C146.682 49.0989 146.657 49.5268 146.607 49.9295L146.581 49.8791Z" fill="#C0C0F6"/>
<path d="M139.61 38.7802C148.997 44.2164 149.048 52.9999 139.711 58.4362C130.373 63.8724 115.197 63.8724 105.81 58.4362C96.422 52.9999 96.3717 44.2164 105.684 38.7802C115.021 33.3691 130.222 33.3439 139.61 38.7802Z" fill="#E9F0F4"/>
<g opacity="0.1">
<path d="M183.452 92.3374L177.588 95.735C177.362 95.8609 177.06 95.8609 176.833 95.735L170.919 92.3122C170.415 92.0102 170.415 91.3055 170.919 91.0035L176.783 87.6059C177.009 87.48 177.311 87.48 177.538 87.6059L183.452 91.0287C183.956 91.3307 183.956 92.0354 183.452 92.3374Z" fill="black"/>
</g>
<g opacity="0.14">
<path d="M176.833 83.7047C177.035 83.5789 177.286 83.5789 177.488 83.7047L182.622 86.6745C183.05 86.9262 183.05 87.5554 182.622 87.8071L177.538 90.7769C177.337 90.9027 177.085 90.9027 176.884 90.7769L171.749 87.8071C171.322 87.5554 171.322 86.9262 171.749 86.6745L176.833 83.7047Z" fill="#FFDF75"/>
</g>
<g opacity="0.29">
<path d="M176.884 80.0555C177.06 79.9548 177.261 79.9548 177.437 80.0555L181.817 82.5723C182.169 82.7736 182.169 83.3021 181.817 83.5035L177.488 86.0203C177.311 86.1209 177.11 86.1209 176.934 86.0203L172.555 83.5035C172.202 83.3021 172.202 82.7736 172.555 82.5471L176.884 80.0303V80.0555Z" fill="#FFDF75"/>
</g>
<g opacity="0.43">
<path d="M176.959 76.4311C177.085 76.3556 177.261 76.3556 177.387 76.4311L180.986 78.5201C181.263 78.6962 181.263 79.1241 180.986 79.2751L177.437 81.3389C177.312 81.4144 177.135 81.4144 177.01 81.3389L173.411 79.2499C173.134 79.0738 173.134 78.6459 173.411 78.4949L176.959 76.4311Z" fill="#FFDF75"/>
</g>
<g opacity="0.57">
<path d="M177.009 72.7819C177.009 72.7819 177.236 72.7316 177.337 72.7819L180.155 74.4178C180.382 74.5436 180.357 74.8708 180.155 74.9967L177.387 76.6074C177.387 76.6074 177.16 76.6829 177.06 76.6074L174.216 74.9715C173.989 74.8456 174.04 74.5185 174.241 74.3926L177.035 72.7819H177.009Z" fill="#FFDF75"/>
</g>
<g opacity="0.71">
<path d="M177.06 69.1577C177.06 69.1577 177.211 69.1326 177.286 69.1577L179.35 70.3406C179.501 70.4161 179.476 70.6426 179.325 70.7433L177.311 71.901C177.311 71.901 177.16 71.9514 177.085 71.901L175.021 70.7181C174.87 70.6426 174.92 70.4161 175.046 70.3155L177.06 69.1326V69.1577Z" fill="#FFDF75"/>
</g>
<g opacity="0.86">
<path d="M177.135 65.5083C177.135 65.5083 177.236 65.5083 177.261 65.5083L178.545 66.2382C178.545 66.2382 178.57 66.4144 178.519 66.4395L177.286 67.1694C177.286 67.1694 177.211 67.1946 177.16 67.1694L175.877 66.4144C175.877 66.4144 175.852 66.2382 175.927 66.213L177.16 65.4832L177.135 65.5083Z" fill="#FFDF75"/>
</g>
<path d="M177.714 62.1863L177.186 62.4883L176.657 62.1863L177.186 61.8843L177.714 62.1863Z" fill="#FFDF75"/>
<g opacity="0.1">
<path d="M168.427 82.6226L161.456 86.6746C161.229 86.8004 160.927 86.8004 160.701 86.6746L153.679 82.6226C153.175 82.3206 153.175 81.6159 153.679 81.3139L160.65 77.2619C160.877 77.136 161.179 77.136 161.405 77.2619L168.427 81.3139C168.93 81.6159 168.93 82.3206 168.427 82.6226Z" fill="black"/>
</g>
<g opacity="0.14">
<path d="M160.701 72.7316C160.902 72.6057 161.154 72.6057 161.355 72.7316L167.471 76.2551C167.899 76.5068 167.899 77.136 167.471 77.3876L161.405 80.9111C161.204 81.037 160.952 81.037 160.751 80.9111L154.635 77.3876C154.207 77.136 154.207 76.5068 154.635 76.2551L160.701 72.7316Z" fill="#FDCDE7"/>
</g>
<g opacity="0.29">
<path d="M160.751 68.5538C160.927 68.4531 161.129 68.4531 161.305 68.5538L166.489 71.5487C166.842 71.7501 166.842 72.2786 166.489 72.4799L161.355 75.4749C161.179 75.5756 160.978 75.5756 160.801 75.4749L155.617 72.4799C155.264 72.2786 155.264 71.7501 155.617 71.5487L160.751 68.5538Z" fill="#FDCDE7"/>
</g>
<g opacity="0.43">
<path d="M160.826 64.376C160.952 64.3005 161.128 64.3005 161.254 64.376L165.533 66.8424C165.81 67.0186 165.81 67.4213 165.533 67.5974L161.305 70.0639C161.179 70.1394 161.003 70.1394 160.877 70.0639L156.598 67.5974C156.321 67.4213 156.321 66.9934 156.598 66.8424L160.826 64.4011V64.376Z" fill="#FDCDE7"/>
</g>
<g opacity="0.57">
<path d="M160.877 60.1982C160.877 60.1982 161.103 60.1478 161.204 60.1982L164.551 62.1361C164.778 62.2619 164.753 62.5891 164.551 62.7149L161.254 64.6277C161.254 64.6277 161.028 64.678 160.927 64.6277L157.58 62.6898C157.353 62.5639 157.378 62.2367 157.58 62.1109L160.877 60.1982Z" fill="#FDCDE7"/>
</g>
<g opacity="0.71">
<path d="M160.927 56.0203C160.927 56.0203 161.078 55.9951 161.154 56.0203L163.57 57.4297C163.721 57.5052 163.695 57.7317 163.544 57.8072L161.154 59.1914C161.154 59.1914 161.003 59.2418 160.927 59.1914L158.486 57.782C158.335 57.7065 158.36 57.48 158.511 57.3793L160.902 55.9951L160.927 56.0203Z" fill="#FDCDE7"/>
</g>
<g opacity="0.86">
<path d="M161.003 51.8423C161.003 51.8423 161.078 51.8423 161.129 51.8423L162.639 52.7232C162.639 52.7232 162.689 52.8993 162.613 52.9245L161.154 53.7802C161.154 53.7802 161.078 53.8054 161.028 53.7802L159.518 52.8993C159.518 52.8993 159.493 52.7232 159.543 52.698L161.003 51.8423Z" fill="#FDCDE7"/>
</g>
<path d="M161.657 47.9917L161.053 48.3441L160.449 47.9917L161.053 47.6646L161.657 47.9917Z" fill="#FDCDE7"/>
<g opacity="0.1">
<path d="M194.904 99.5606L189.946 102.43C189.719 102.556 189.417 102.556 189.191 102.43L184.207 99.5606C183.704 99.2586 183.704 98.5539 184.207 98.2518L189.165 95.3827C189.392 95.2569 189.694 95.2569 189.92 95.3827L194.904 98.2518C195.407 98.5539 195.407 99.2586 194.904 99.5606Z" fill="black"/>
</g>
<g opacity="0.14">
<path d="M189.216 93.2182C189.417 93.0923 189.669 93.0923 189.87 93.2182L193.67 95.4078C194.098 95.6594 194.098 96.2886 193.67 96.5403L189.92 98.7299C189.719 98.8557 189.467 98.8557 189.266 98.7299L185.466 96.5403C185.038 96.2886 185.038 95.6594 185.466 95.4078L189.216 93.2182Z" fill="#A1F7F6"/>
</g>
<g opacity="0.29">
<path d="M189.266 90.324C189.442 90.2234 189.644 90.2234 189.82 90.324L193.041 92.1865C193.394 92.3878 193.394 92.9163 193.041 93.1428L189.845 95.0052C189.669 95.1059 189.467 95.1059 189.291 95.0052L186.045 93.1428C185.692 92.9415 185.692 92.413 186.045 92.1865L189.241 90.324H189.266Z" fill="#A1F7F6"/>
</g>
<g opacity="0.43">
<path d="M189.316 87.4297C189.442 87.3542 189.619 87.3542 189.77 87.4297L192.437 88.9649C192.714 89.1411 192.714 89.5689 192.437 89.7199L189.82 91.2552C189.694 91.3307 189.518 91.3307 189.367 91.2552L186.699 89.7199C186.422 89.5438 186.447 89.1159 186.699 88.9649L189.316 87.4297Z" fill="#A1F7F6"/>
</g>
<g opacity="0.57">
<path d="M189.392 84.5605C189.392 84.5605 189.618 84.5101 189.719 84.5605L191.808 85.7685C192.034 85.8943 191.984 86.2215 191.783 86.3474L189.744 87.5303C189.744 87.5303 189.518 87.6058 189.417 87.5303L187.303 86.3222C187.076 86.1964 187.127 85.8692 187.328 85.7433L189.392 84.5605Z" fill="#A1F7F6"/>
</g>
<g opacity="0.71">
<path d="M189.442 81.6662C189.442 81.6662 189.618 81.641 189.669 81.6662L191.204 82.5471C191.355 82.6226 191.305 82.8491 191.179 82.9498L189.694 83.8055C189.694 83.8055 189.543 83.8558 189.467 83.8055L187.932 82.9246C187.781 82.8491 187.832 82.5974 187.983 82.5219L189.467 81.6662H189.442Z" fill="#A1F7F6"/>
</g>
<g opacity="0.86">
<path d="M189.493 78.7971C189.493 78.7971 189.593 78.7971 189.618 78.7971L190.575 79.3508C190.575 79.3508 190.6 79.527 190.524 79.5522L189.618 80.0807C189.618 80.0807 189.518 80.1059 189.493 80.0807L188.511 79.527C188.511 79.527 188.511 79.3508 188.561 79.3005L189.493 78.772V78.7971Z" fill="#A1F7F6"/>
</g>
<path d="M189.971 76.1293L189.568 76.381L189.14 76.1293L189.568 75.9028L189.971 76.1293Z" fill="#A1F7F6"/>
<path d="M180.659 107.488C180.659 107.488 178.746 109.099 179.148 110.785C179.148 110.785 179.803 111.465 180.407 110.257C181.011 109.049 181.64 107.438 180.684 107.488H180.659Z" fill="#0A1014"/>
<path d="M179.148 110.936C179.148 110.936 182.068 111.943 182.546 110.987C183.049 110.03 183.578 109.275 183.93 108.948C184.283 108.596 186.699 104.569 185.893 103.915C185.088 103.285 183.955 104.418 183.603 104.695C183.251 104.972 179.601 107.816 179.601 107.816L179.148 110.936Z" fill="#111114"/>
<path d="M155.038 93.017C155.038 93.017 165.231 98.8559 167.546 100.844C169.459 102.48 180.054 107.564 180.054 107.564C180.054 107.564 179.551 108.571 179.199 110.836C179.199 110.836 169.509 110.685 163.419 105.098C163.419 105.098 142.957 100.844 144.719 90.2737C144.719 90.2737 151.464 91.4817 155.063 92.9918L155.038 93.017Z" fill="#09294F"/>
<path d="M183.905 108.948C184.232 108.646 186.145 105.399 186.019 104.267C185.667 104.217 185.138 104.267 184.811 105.022C184.333 106.18 182.873 108.847 182.596 109.2C182.37 109.477 181.036 110.76 181.263 111.415C181.841 111.44 182.345 111.364 182.546 111.012C183.05 110.056 183.578 109.3 183.93 108.973L183.905 108.948Z" fill="#1D1D21"/>
<path d="M174.719 116.02C174.719 116.02 178.016 116.549 178.368 115.668C178.721 114.812 179.123 114.107 179.4 113.78C179.677 113.453 181.439 109.779 180.709 109.275C179.979 108.772 179.073 109.854 178.796 110.131C178.519 110.408 175.499 113.126 175.499 113.126L174.719 116.02Z" fill="#161619"/>
<path d="M179.4 113.78C179.652 113.503 181.061 110.534 180.835 109.552C180.533 109.552 180.054 109.628 179.853 110.307C179.526 111.364 178.469 113.78 178.268 114.107C178.091 114.384 177.059 115.592 177.286 116.121C177.789 116.121 178.242 115.995 178.368 115.668C178.721 114.812 179.123 114.107 179.4 113.78Z" fill="#1D1D21"/>
<path d="M150.633 74.0908C150.633 74.0908 148.695 74.3173 148.771 76.5321C148.846 78.7217 150.885 88.2099 153.2 90.0975C155.516 91.9851 155.466 87.5052 155.466 87.5052C155.466 87.5052 154.031 73.6378 150.608 74.116L150.633 74.0908Z" fill="#EA49BD"/>
<path d="M153.326 92.0857C153.326 92.0857 151.64 97.1193 150.759 98.2015C150.759 98.2015 160.952 104.04 163.268 106.029C165.18 107.665 176.002 112.648 176.002 112.648C176.002 112.648 175.273 113.755 174.92 116.02C174.92 116.02 165.231 115.869 159.14 110.282C159.14 110.282 138.704 106.029 140.44 95.4582C140.44 95.4582 147.211 98.1512 153.351 92.0605L153.326 92.0857Z" fill="#16365C"/>
<path d="M145.122 74.8458C145.122 74.8458 139.585 77.9414 139.459 78.3189C139.333 78.6964 138.704 78.9985 140.516 83.3021C140.516 83.3021 142.227 87.1025 141.019 91.7837C140.315 94.5018 140.415 95.4078 140.415 95.4078C140.415 95.4078 142.554 100.014 148.67 97.7736C149.903 97.3206 153.351 94.0236 153.981 92.6897C153.981 92.6897 152.043 90.2988 152.798 85.6427C153.553 80.9615 154.006 74.9213 151.338 74.1159C151.338 74.1159 150.659 73.3105 145.096 74.8961L145.122 74.8458Z" fill="#FF61CB"/>
<path d="M146.833 73.3357C146.833 73.3357 150.407 75.1981 148.796 77.8911L150.482 78.8223C150.482 78.8223 152.118 74.1159 146.833 73.3357Z" fill="#FEFFFF"/>
<path d="M144.543 71.448C144.543 71.448 146.053 73.7131 144.845 75.2483C144.19 76.104 145.751 78.1426 148.419 77.9916C148.419 77.9916 149.601 77.6896 149.501 77.2618C149.224 76.2802 149.627 75.7265 150.054 74.9715C150.482 74.2165 144.568 71.448 144.568 71.448H144.543Z" fill="#EFB185"/>
<path d="M144.87 75.2736C144.87 75.2736 144.744 75.5001 144.719 75.6259C145.726 74.6192 147.638 74.5437 147.638 74.5437L145.097 71.7501C145.097 71.7501 144.92 71.6494 144.845 71.6243L144.769 71.8759C145.147 72.5806 145.751 74.141 144.87 75.2988V75.2736Z" fill="#DD9569"/>
<path d="M149.501 77.2869C149.249 75.7265 149.627 75.7517 150.055 74.9967C150.155 74.7953 149.803 74.443 149.224 74.0151C149.073 74.1158 148.922 74.292 148.796 74.4933C147.764 76.0789 147.764 77.3373 147.89 77.9916C148.066 77.9916 148.268 78.0168 148.444 77.9916C148.771 77.9413 149.602 77.74 149.526 77.2618L149.501 77.2869Z" fill="#F2B78F"/>
<path d="M143.989 70.1898C143.989 70.1898 144.643 73.2099 146.707 74.569C148.544 75.777 150.684 76.5824 151.061 74.3928C151.363 72.6562 152.219 68.2267 150.684 67.3207C148.695 66.1881 147.966 64.7535 145.675 65.6092C145.675 65.6092 143.058 66.8173 143.964 70.1898H143.989Z" fill="#EFB185"/>
<path d="M143.989 70.1898C143.989 70.1898 144.215 72.7821 146.707 74.6193C147.236 74.9968 147.915 75.324 148.444 75.5505C147.487 74.8458 147.387 74.6193 146.632 73.7385C145.876 72.8576 147.739 73.2099 146.481 70.97C146.053 70.215 148.167 71.1965 148.645 71.1713C151.464 71.0958 151.262 69.4851 151.313 68.8056C151.262 68.5036 151.187 68.2267 151.086 67.975L150.809 67.4717C150.809 67.4717 150.734 67.371 150.709 67.3207C150.407 66.9432 150.105 66.5908 149.803 66.314C148.595 66.3391 145.147 66.4146 145.096 66.4398C145.046 66.4398 144.467 67.2452 143.913 68.0254C143.788 68.6294 143.788 69.3341 144.014 70.215L143.989 70.1898Z" fill="#E6A376"/>
<path d="M145.222 73.1092C145.222 73.1092 142.932 70.9951 143.737 68.0002C143.737 68.0002 144.165 65.5841 146.858 65.2569C148.142 65.1059 150.608 65.1814 151.59 67.7737C151.892 68.579 151.69 70.3659 148.519 69.5354C148.066 69.4096 146.858 69.2586 146.43 69.6361C146.002 70.0136 145.952 70.7435 146.153 71.3727C146.33 71.9012 145.851 71.9767 145.801 71.8508C145.726 71.725 145.122 70.1898 144.543 70.7938C144.014 71.3475 145.172 73.0086 145.222 73.1092Z" fill="#131C24"/>
<path d="M145.222 73.1093C145.222 73.1093 144.014 71.3476 144.543 70.7939C145.122 70.1898 145.726 71.7251 145.801 71.8509C145.877 71.9768 146.33 71.9013 146.153 71.3727C145.952 70.7687 146.002 70.0388 146.43 69.6362C146.808 69.2838 147.865 69.46 148.519 69.5355C147.991 69.2083 146.934 69.0825 146.556 68.2016C146.053 67.0187 145.348 66.465 144.694 66.2637C143.913 67.0439 143.737 68.0003 143.737 68.0003C142.932 71.0204 145.222 73.1093 145.222 73.1093Z" fill="#131C24"/>
<path d="M145.222 74.5437C145.222 74.5437 145.751 77.2367 148.796 77.9162L147.915 80.0303C147.915 80.0303 142.454 77.287 145.197 74.5437H145.222Z" fill="#FEFFFF"/>
<path d="M151.59 67.7484C151.59 67.7484 152.068 70.6427 148.368 69.5857C148.368 69.5857 146.531 69.1075 145.776 67.3709C145.625 67.0186 145.197 66.3894 144.568 66.339C144.568 66.339 145.549 64.9548 148.091 65.131C149.299 65.2065 150.533 66.3894 150.835 66.5655C151.137 66.7669 150.633 67.9749 151.59 67.7233V67.7484Z" fill="#131C24"/>
<path d="M163.771 89.2165C163.771 89.2165 166.439 89.7198 168.251 88.9648C170.063 88.2098 169.635 88.1594 169.484 87.8826C169.182 87.2786 166.791 87.4547 166.338 87.3289C165.885 87.2031 166.716 86.8507 166.892 86.5487C167.068 86.2467 167.496 85.8943 167.345 85.7937C167.194 85.693 166.841 85.5923 166.162 86.1209C165.482 86.6494 163.796 87.3792 163.796 87.3792V89.2165H163.771Z" fill="#EFB185"/>
<path d="M164.174 87.1275C164.174 87.1275 164.023 87.6309 164.023 88.3104C164.023 89.1158 164.4 89.6695 164.4 89.6695C164.4 89.6695 155.717 91.4061 153.528 90.2987C153.528 90.2987 151.389 87.0017 154.66 86.146L164.174 87.1275Z" fill="#EA49BD"/>
<path d="M142.454 90.6763L151.791 94.5773C151.791 94.5773 151.489 94.98 151.313 95.6092C149.199 94.9296 141.346 93.7719 141.548 92.0857C142.479 83.3776 142.58 78.8474 142.58 78.8474L142.932 79.8793C143.788 83.5538 142.479 90.7014 142.479 90.7014L142.454 90.6763Z" fill="#EA49BD"/>
<path d="M148.016 96.364L147.991 96.817L154.509 101.473L154.56 101.02L148.016 96.364Z" fill="#B4B9BC"/>
<path d="M154.56 101.02L154.509 101.473L166.716 95.8607L166.741 95.4077L154.56 101.02Z" fill="#7D8183"/>
<path d="M148.016 96.3641L154.559 101.02L166.741 95.4078L160.222 90.7517L148.016 96.3641Z" fill="#E3E5E5"/>
<path d="M156.523 93.2936L156.019 92.8406L153.981 100.995L154.484 101.448L156.523 93.2936Z" fill="#BDBBBB"/>
<path d="M169.258 87.4296L168.779 86.9766L156.019 92.8407L156.523 93.2937L169.258 87.4296Z" fill="#D2D0D0"/>
<path d="M156.523 93.2938L154.484 101.448L167.219 95.584L169.258 87.4297L156.523 93.2938Z" fill="#D5DFE6"/>
<path d="M156.523 93.2938L167.219 95.584L169.258 87.4297L156.523 93.2938Z" fill="#E9F0F4"/>
<path d="M151.263 96.9683C151.263 96.9683 154.207 99.3844 157.076 98.8307C157.076 98.8307 157.076 98.0757 155.793 97.7988C154.509 97.522 154.031 96.5404 154.031 96.3894C154.031 96.2384 155.038 96.1629 155.491 96.1378C155.944 96.1378 156.472 95.5086 155.39 95.4331C154.308 95.3576 152.446 94.9549 151.389 95.1814C151.389 95.1814 150.332 96.3139 151.288 96.9683H151.263Z" fill="#EFB185"/>
<path d="M141.321 77.74C141.321 77.74 139.409 77.3877 138.83 79.5018C138.251 81.6159 137.345 91.2803 139.006 93.7719C140.667 96.2635 151.464 97.5723 151.464 97.5723C150.684 95.9363 151.791 94.5773 151.791 94.5773L142.454 90.6763C142.454 90.6763 144.744 78.3189 141.321 77.74Z" fill="#EA49BD"/>
<g opacity="0.6">
<path d="M181.011 49.6527V50.5336L180.105 51.0621V50.1309C180.105 49.25 179.803 48.8977 179.098 49.2752C178.419 49.6779 178.092 50.3826 178.092 51.2635V56.4732C178.092 57.3541 178.419 57.7064 179.098 57.3289C179.803 56.9262 180.105 56.2215 180.105 55.3406V54.0571L181.011 53.5286V54.7618C181.011 56.2467 180.407 57.5806 179.098 58.3356C177.79 59.0906 177.186 58.4614 177.186 56.9765V51.8927C177.186 50.4078 177.79 49.0739 179.098 48.3188C180.407 47.5638 181.011 48.193 181.011 49.6779V49.6527Z" fill="url(#paint57_linear_249_217)"/>
<path d="M185.541 47.0101V47.287L184.635 47.8155V47.4883C184.635 46.6075 184.333 46.2551 183.654 46.6326C182.974 47.0353 182.672 47.7148 182.672 48.5957C182.672 50.8105 185.541 49.3507 185.541 52.1192C185.541 53.6041 184.912 54.938 183.629 55.693C182.32 56.4481 181.716 55.8189 181.716 54.334V53.7803L182.597 53.2769V53.9061C182.597 54.787 182.924 55.1393 183.603 54.7367C184.283 54.334 184.61 53.6293 184.61 52.7484C184.61 50.5588 181.766 51.9934 181.766 49.2249C181.766 47.7148 182.37 46.4061 183.654 45.6762C184.937 44.9212 185.541 45.5504 185.541 47.0353V47.0101Z" fill="url(#paint58_linear_249_217)"/>
<path d="M190.071 44.3927V44.6696L189.165 45.1981V44.8709C189.165 43.99 188.863 43.6377 188.184 44.0152C187.504 44.4179 187.202 45.0974 187.202 45.9783C187.202 48.193 190.071 46.7333 190.071 49.5018C190.071 50.9867 189.442 52.3206 188.159 53.0756C186.85 53.8306 186.246 53.2014 186.246 51.7165V51.1628L187.127 50.6595V51.2887C187.127 52.1696 187.454 52.5219 188.133 52.1192C188.813 51.7165 189.14 51.0118 189.14 50.131C189.14 47.9414 186.296 49.3759 186.296 46.6075C186.296 45.0974 186.9 43.7887 188.184 43.0588C189.467 42.3038 190.071 42.933 190.071 44.4179V44.3927Z" fill="url(#paint59_linear_249_217)"/>
</g>
<g opacity="0.6">
<path d="M161.531 38.604V43.0335L160.575 43.5872V33.7466L161.531 33.1929V37.6224L163.62 36.4144V31.9848L164.576 31.4312V41.2718L163.62 41.8254V37.3959L161.531 38.604Z" fill="url(#paint60_linear_249_217)"/>
<path d="M166.791 39.9883V31.1544L165.231 32.0605V31.0538L169.308 28.688V29.6947L167.747 30.6007V39.4346L166.791 39.9883Z" fill="url(#paint61_linear_249_217)"/>
<path d="M173.108 36.3138L172.202 36.8424L170.793 29.8205V37.6729L169.962 38.1511V28.3105L171.296 27.5554L172.706 34.6024L174.065 25.9699L175.399 25.2148V35.0554L174.493 35.584V27.6813L173.134 36.3642L173.108 36.3138Z" fill="url(#paint62_linear_249_217)"/>
<path d="M176.33 34.4766V24.636L177.286 24.0823V32.9162L179.727 31.5068V32.5135L176.355 34.4766H176.33Z" fill="url(#paint63_linear_249_217)"/>
</g>
<g opacity="0.5">
<path d="M192.009 63.0167V63.2936L191.103 63.8221V63.4949C191.103 62.614 190.801 62.2617 190.122 62.6392C189.442 63.0419 189.14 63.7214 189.14 64.6023C189.14 66.8171 192.009 65.3573 192.009 68.1258C192.009 69.6107 191.38 70.9446 190.097 71.6996C188.788 72.4547 188.184 71.8255 188.184 70.3406V69.7869L189.065 69.2835V69.9127C189.065 70.7936 189.392 71.1459 190.071 70.7432C190.751 70.3406 191.078 69.6359 191.078 68.755C191.078 66.5654 188.234 68 188.234 65.2315C188.234 63.7214 188.838 62.4127 190.122 61.6828C191.405 60.9278 192.009 61.557 192.009 63.0419V63.0167Z" fill="url(#paint64_linear_249_217)"/>
<path d="M196.691 60.3239V65.4078C196.691 66.0118 196.59 66.6158 196.363 67.1192C196.464 67.2954 196.615 67.2702 196.892 67.1192L197.018 67.0437V68.0252L196.867 68.1259C196.338 68.4279 195.986 68.4028 195.784 68.1259C195.508 68.4531 195.155 68.7803 194.753 69.0068C193.444 69.7618 192.815 69.1578 192.815 67.6477V62.5638C192.815 61.0538 193.469 59.7199 194.753 58.9648C196.061 58.2098 196.716 58.8138 196.716 60.2987L196.691 60.3239ZM193.721 61.985V67.1947C193.721 68.1007 194.048 68.4279 194.727 68.0252C195.432 67.6226 195.734 66.9179 195.734 66.0118V60.8021C195.734 59.9212 195.407 59.5689 194.727 59.9716C194.048 60.3742 193.721 61.0789 193.721 61.985Z" fill="url(#paint65_linear_249_217)"/>
<path d="M197.748 67.1694V57.3288L198.704 56.7751V65.609L201.145 64.1996V65.2064L197.773 67.1694H197.748Z" fill="url(#paint66_linear_249_217)"/>
</g>
</g>
<path d="M57.1198 172.5C56.8478 172.5 56.5678 172.46 56.2798 172.38C56.0078 172.284 55.7598 172.076 55.5358 171.756V172.356C55.5358 172.98 55.3998 173.556 55.1278 174.084C54.8718 174.612 54.5198 175.068 54.0718 175.452C53.6398 175.836 53.1358 176.14 52.5598 176.364C51.9838 176.588 51.3838 176.7 50.7598 176.7H46.5598C45.8238 176.7 45.1278 176.556 44.4718 176.268C43.8158 175.996 43.2398 175.612 42.7438 175.116C42.2638 174.636 41.8798 174.068 41.5918 173.412C41.3198 172.756 41.1838 172.06 41.1838 171.324V164.292H43.8238V170.916C43.8238 171.284 43.8878 171.628 44.0158 171.948C44.1598 172.268 44.3518 172.548 44.5918 172.788C44.8318 173.028 45.1118 173.22 45.4318 173.364C45.7518 173.508 46.0958 173.58 46.4638 173.58H50.7838C51.3918 173.58 51.9038 173.364 52.3198 172.932C52.7358 172.516 52.9438 172.012 52.9438 171.42V163.908H55.5598V168.276C55.5918 168.596 55.7118 168.86 55.9198 169.068C56.1438 169.276 56.4078 169.38 56.7118 169.38H57.4078C57.7278 169.38 58.0078 169.284 58.2478 169.092C58.4878 168.9 58.6398 168.644 58.7038 168.324L59.5678 163.98L62.1598 164.46L61.4398 168.06C61.3758 168.412 61.4558 168.724 61.6798 168.996C61.9038 169.252 62.1918 169.38 62.5438 169.38H64.3198V163.188H66.9598V169.572C66.9598 169.972 66.8798 170.356 66.7198 170.724C66.5758 171.076 66.3678 171.388 66.0958 171.66C65.8398 171.916 65.5358 172.124 65.1838 172.284C64.8318 172.428 64.4558 172.5 64.0558 172.5H62.5198C62.0078 172.5 61.5278 172.396 61.0798 172.188C60.6478 171.964 60.2718 171.596 59.9518 171.084C59.5838 171.596 59.1598 171.964 58.6798 172.188C58.1998 172.396 57.6798 172.5 57.1198 172.5ZM73.1096 163.908V168.396C73.1096 168.684 73.2296 168.924 73.4696 169.116C73.7096 169.292 73.9736 169.38 74.2616 169.38H76.0136C76.2376 169.38 76.3496 169.492 76.3496 169.716V172.164C76.3496 172.388 76.2376 172.5 76.0136 172.5H74.6936C74.4216 172.5 74.1336 172.452 73.8296 172.356C73.5256 172.26 73.2856 172.06 73.1096 171.756V172.188C73.1096 172.796 73.0056 173.372 72.7976 173.916C72.6056 174.476 72.3336 174.988 71.9816 175.452C71.6296 175.916 71.2136 176.316 70.7336 176.652C70.2536 177.004 69.7256 177.276 69.1496 177.468L65.8376 178.596L65.0216 176.124L68.4776 174.996C69.0856 174.804 69.5656 174.444 69.9176 173.916C70.2856 173.404 70.4696 172.836 70.4696 172.212V163.908H73.1096ZM81.9408 169.38H85.3248V166.74C85.3248 166.484 85.2368 166.268 85.0608 166.092C84.8848 165.916 84.6688 165.828 84.4128 165.828H82.4688C82.2448 165.828 82.0528 165.9 81.8928 166.044C81.7328 166.172 81.6288 166.348 81.5808 166.572L81.1968 168.492C81.1488 168.716 81.1968 168.924 81.3408 169.116C81.5008 169.292 81.7008 169.38 81.9408 169.38ZM78.5328 168.324L79.0128 165.852C79.0928 165.42 79.2448 165.02 79.4688 164.652C79.7088 164.268 79.9888 163.948 80.3088 163.692C80.6288 163.42 80.9888 163.212 81.3888 163.068C81.8048 162.908 82.2368 162.828 82.6848 162.828H84.0288C84.5728 162.828 85.0848 162.932 85.5648 163.14C86.0448 163.348 86.4608 163.628 86.8128 163.98C87.1648 164.332 87.4448 164.748 87.6528 165.228C87.8608 165.708 87.9648 166.22 87.9648 166.764V169.572C87.9648 169.972 87.8848 170.356 87.7248 170.724C87.5808 171.076 87.3728 171.388 87.1008 171.66C86.8448 171.916 86.5408 172.124 86.1888 172.284C85.8368 172.428 85.4608 172.5 85.0608 172.5H82.2768C81.7968 172.5 81.3408 172.404 80.9088 172.212C80.4768 172.004 80.0848 171.644 79.7328 171.132C79.3648 171.644 78.9568 172.004 78.5088 172.212C78.0608 172.404 77.5808 172.5 77.0688 172.5H76.4928C76.2688 172.5 76.1568 172.388 76.1568 172.164V169.716C76.1568 169.492 76.2688 169.38 76.4928 169.38H77.2608C77.5808 169.38 77.8528 169.284 78.0768 169.092C78.3168 168.9 78.4688 168.644 78.5328 168.324ZM96.3485 172.164C96.3485 172.388 96.2365 172.5 96.0125 172.5H95.3165C94.7405 172.5 94.1965 172.396 93.6845 172.188C93.1725 171.964 92.7245 171.66 92.3405 171.276C91.9565 170.892 91.6525 170.444 91.4285 169.932C91.2045 169.42 91.0925 168.876 91.0925 168.3V156.06H93.7325V168.228C93.7325 168.548 93.8445 168.82 94.0685 169.044C94.2925 169.268 94.5645 169.38 94.8845 169.38H96.0125C96.1085 169.38 96.1885 169.42 96.2525 169.5C96.3165 169.564 96.3485 169.644 96.3485 169.74V172.164ZM99.3641 165.708L97.4681 163.884L104.524 155.628L106.42 157.404L101.812 162.828H110.956C111.5 162.828 112.004 162.932 112.468 163.14C112.948 163.348 113.364 163.628 113.716 163.98C114.084 164.332 114.372 164.748 114.58 165.228C114.788 165.708 114.892 166.22 114.892 166.764V168.54C114.892 169.116 114.78 169.644 114.556 170.124C114.348 170.604 114.052 171.02 113.668 171.372C113.3 171.724 112.868 172.004 112.372 172.212C111.892 172.404 111.388 172.5 110.86 172.5H96.4841C96.2601 172.468 96.1481 172.356 96.1481 172.164V169.716C96.1481 169.492 96.2601 169.38 96.4841 169.38H111.316C111.556 169.38 111.772 169.3 111.964 169.14C112.156 168.964 112.252 168.732 112.252 168.444V166.74C112.252 166.452 112.148 166.212 111.94 166.02C111.732 165.812 111.484 165.708 111.196 165.708H99.3641ZM127.213 171.996C127.213 172.62 127.117 173.22 126.925 173.796C126.733 174.388 126.461 174.924 126.109 175.404C125.773 175.9 125.357 176.332 124.861 176.7C124.381 177.068 123.837 177.356 123.229 177.564L119.941 178.692L119.125 176.172L122.509 175.044C123.117 174.836 123.605 174.5 123.973 174.036C124.357 173.572 124.549 173.02 124.549 172.38V172.212C124.373 172.292 124.157 172.364 123.901 172.428C123.645 172.476 123.389 172.5 123.133 172.5H121.525C120.933 172.5 120.389 172.38 119.893 172.14C119.397 171.884 118.973 171.548 118.621 171.132C118.285 170.716 118.045 170.244 117.901 169.716C117.757 169.172 117.741 168.612 117.853 168.036L118.261 165.852C118.341 165.42 118.493 165.02 118.717 164.652C118.957 164.268 119.237 163.94 119.557 163.668C119.877 163.396 120.237 163.188 120.637 163.044C121.053 162.884 121.485 162.804 121.933 162.804H123.277C123.821 162.804 124.333 162.908 124.813 163.116C125.293 163.324 125.709 163.612 126.061 163.98C126.413 164.332 126.693 164.748 126.901 165.228C127.109 165.708 127.213 166.22 127.213 166.764V171.996ZM124.573 169.38V166.74C124.573 166.484 124.485 166.268 124.309 166.092C124.133 165.9 123.917 165.804 123.661 165.804H121.717C121.493 165.804 121.301 165.876 121.141 166.02C120.981 166.164 120.877 166.348 120.829 166.572L120.445 168.492C120.397 168.716 120.445 168.924 120.589 169.116C120.749 169.292 120.949 169.38 121.189 169.38H124.573ZM139.764 171.996C139.764 172.62 139.668 173.22 139.476 173.796C139.284 174.388 139.012 174.924 138.66 175.404C138.324 175.9 137.908 176.332 137.412 176.7C136.932 177.068 136.388 177.356 135.78 177.564L132.492 178.692L131.676 176.172L135.06 175.044C135.668 174.836 136.156 174.5 136.524 174.036C136.908 173.572 137.1 173.02 137.1 172.38V172.212C136.924 172.292 136.708 172.364 136.452 172.428C136.196 172.476 135.94 172.5 135.684 172.5H134.076C133.484 172.5 132.94 172.38 132.444 172.14C131.948 171.884 131.524 171.548 131.172 171.132C130.836 170.716 130.596 170.244 130.452 169.716C130.308 169.172 130.292 168.612 130.404 168.036L130.812 165.852C130.892 165.42 131.044 165.02 131.268 164.652C131.508 164.268 131.788 163.94 132.108 163.668C132.428 163.396 132.788 163.188 133.188 163.044C133.604 162.884 134.036 162.804 134.484 162.804H135.828C136.372 162.804 136.884 162.908 137.364 163.116C137.844 163.324 138.26 163.612 138.612 163.98C138.964 164.332 139.244 164.748 139.452 165.228C139.66 165.708 139.764 166.22 139.764 166.764V171.996ZM137.124 169.38V166.74C137.124 166.484 137.036 166.268 136.86 166.092C136.684 165.9 136.468 165.804 136.212 165.804H134.268C134.044 165.804 133.852 165.876 133.692 166.02C133.532 166.164 133.428 166.348 133.38 166.572L132.996 168.492C132.948 168.716 132.996 168.924 133.14 169.116C133.3 169.292 133.5 169.38 133.74 169.38H137.124ZM145.272 172.308L152.184 155.268L155.016 156.276L148.104 173.316L145.272 172.308ZM176.459 172.5C176.187 172.5 175.907 172.46 175.619 172.38C175.347 172.284 175.099 172.076 174.875 171.756V172.356C174.875 172.98 174.739 173.556 174.467 174.084C174.211 174.612 173.859 175.068 173.411 175.452C172.979 175.836 172.475 176.14 171.899 176.364C171.323 176.588 170.723 176.7 170.099 176.7H165.899C165.163 176.7 164.467 176.556 163.811 176.268C163.155 175.996 162.579 175.612 162.083 175.116C161.603 174.636 161.219 174.068 160.931 173.412C160.659 172.756 160.523 172.06 160.523 171.324V164.292H163.163V170.916C163.163 171.284 163.227 171.628 163.355 171.948C163.499 172.268 163.691 172.548 163.931 172.788C164.171 173.028 164.451 173.22 164.771 173.364C165.091 173.508 165.435 173.58 165.803 173.58H170.123C170.731 173.58 171.243 173.364 171.659 172.932C172.075 172.516 172.283 172.012 172.283 171.42V163.908H174.899V168.276C174.931 168.596 175.051 168.86 175.259 169.068C175.483 169.276 175.747 169.38 176.051 169.38H176.747C177.067 169.38 177.347 169.284 177.587 169.092C177.827 168.9 177.979 168.644 178.043 168.324L178.907 163.98L181.499 164.46L180.779 168.06C180.715 168.412 180.795 168.724 181.019 168.996C181.243 169.252 181.531 169.38 181.883 169.38H183.659V163.188H186.299V169.572C186.299 169.972 186.219 170.356 186.059 170.724C185.915 171.076 185.707 171.388 185.435 171.66C185.179 171.916 184.875 172.124 184.523 172.284C184.171 172.428 183.795 172.5 183.395 172.5H181.859C181.347 172.5 180.867 172.396 180.419 172.188C179.987 171.964 179.611 171.596 179.291 171.084C178.923 171.596 178.499 171.964 178.019 172.188C177.539 172.396 177.019 172.5 176.459 172.5ZM192.449 163.908V168.396C192.449 168.684 192.569 168.924 192.809 169.116C193.049 169.292 193.313 169.38 193.601 169.38H195.353C195.577 169.38 195.689 169.492 195.689 169.716V172.164C195.689 172.388 195.577 172.5 195.353 172.5H194.033C193.761 172.5 193.473 172.452 193.169 172.356C192.865 172.26 192.625 172.06 192.449 171.756V172.188C192.449 172.796 192.345 173.372 192.137 173.916C191.945 174.476 191.673 174.988 191.321 175.452C190.969 175.916 190.553 176.316 190.073 176.652C189.593 177.004 189.065 177.276 188.489 177.468L185.177 178.596L184.361 176.124L187.817 174.996C188.425 174.804 188.905 174.444 189.257 173.916C189.625 173.404 189.809 172.836 189.809 172.212V163.908H192.449ZM196.456 175.38H199.216V178.14H196.456V175.38ZM200.464 175.38H203.224V178.14H200.464V175.38ZM198.424 179.028H201.184V181.788H198.424V179.028ZM201.352 169.38C201.672 169.38 201.944 169.268 202.168 169.044C202.392 168.804 202.504 168.524 202.504 168.204V163.236H205.144V168.204C205.144 168.796 205.032 169.356 204.808 169.884C204.584 170.396 204.272 170.852 203.872 171.252C203.488 171.636 203.032 171.94 202.504 172.164C201.992 172.388 201.44 172.5 200.848 172.5H195.832C195.736 172.5 195.656 172.468 195.592 172.404C195.528 172.324 195.496 172.244 195.496 172.164V169.74C195.496 169.644 195.528 169.564 195.592 169.5C195.656 169.42 195.736 169.38 195.832 169.38H201.352ZM212.146 172.5C211.714 172.5 211.306 172.42 210.922 172.26C210.538 172.084 210.202 171.852 209.914 171.564C209.626 171.276 209.394 170.94 209.218 170.556C209.058 170.156 208.978 169.74 208.978 169.308V166.188H211.234V168.828C211.234 168.988 211.29 169.124 211.402 169.236C211.514 169.332 211.642 169.38 211.786 169.38H215.746C216.034 169.38 216.29 169.308 216.514 169.164C216.754 169.02 216.938 168.836 217.066 168.612C217.21 168.388 217.282 168.148 217.282 167.892C217.298 167.62 217.234 167.356 217.09 167.1L214.114 161.796L216.346 160.332L219.538 165.996C219.954 166.716 220.138 167.46 220.09 168.228C220.058 168.996 219.858 169.7 219.49 170.34C219.122 170.964 218.61 171.484 217.954 171.9C217.298 172.3 216.554 172.5 215.722 172.5H212.146ZM218.984 178.62L218.168 176.148L221.624 175.02C222.232 174.812 222.712 174.452 223.064 173.94C223.432 173.428 223.616 172.86 223.616 172.236V163.932H226.256V171.972C226.256 172.596 226.16 173.196 225.968 173.772C225.776 174.364 225.504 174.9 225.152 175.38C224.816 175.86 224.4 176.276 223.904 176.628C223.424 176.996 222.888 177.284 222.296 177.492L218.984 178.62ZM238.818 171.996C238.818 172.62 238.722 173.22 238.53 173.796C238.338 174.388 238.066 174.924 237.714 175.404C237.378 175.9 236.962 176.332 236.466 176.7C235.986 177.068 235.442 177.356 234.834 177.564L231.546 178.692L230.73 176.172L234.114 175.044C234.722 174.836 235.21 174.5 235.578 174.036C235.962 173.572 236.154 173.02 236.154 172.38V172.212C235.978 172.292 235.762 172.364 235.506 172.428C235.25 172.476 234.994 172.5 234.738 172.5H233.13C232.538 172.5 231.994 172.38 231.498 172.14C231.002 171.884 230.578 171.548 230.226 171.132C229.89 170.716 229.65 170.244 229.506 169.716C229.362 169.172 229.346 168.612 229.458 168.036L229.866 165.852C229.946 165.42 230.098 165.02 230.322 164.652C230.562 164.268 230.842 163.94 231.162 163.668C231.482 163.396 231.842 163.188 232.242 163.044C232.658 162.884 233.09 162.804 233.538 162.804H234.882C235.426 162.804 235.938 162.908 236.418 163.116C236.898 163.324 237.314 163.612 237.666 163.98C238.018 164.332 238.298 164.748 238.506 165.228C238.714 165.708 238.818 166.22 238.818 166.764V171.996ZM236.178 169.38V166.74C236.178 166.484 236.09 166.268 235.914 166.092C235.738 165.9 235.522 165.804 235.266 165.804H233.322C233.098 165.804 232.906 165.876 232.746 166.02C232.586 166.164 232.482 166.348 232.434 166.572L232.05 168.492C232.002 168.716 232.05 168.924 232.194 169.116C232.354 169.292 232.554 169.38 232.794 169.38H236.178Z" fill="white"/>
<defs>
<linearGradient id="paint0_linear_249_217" x1="280" y1="200.559" x2="-17.998" y2="32.4658" gradientUnits="userSpaceOnUse">
<stop stop-color="#B101D0"/>
<stop offset="1" stop-color="#340650"/>
</linearGradient>
<linearGradient id="paint1_linear_249_217" x1="89.2492" y1="34.6023" x2="136.162" y2="76.4564" gradientUnits="userSpaceOnUse">
<stop stop-color="#FFF2C9"/>
<stop offset="1" stop-color="#FFB7BB"/>
</linearGradient>
<linearGradient id="paint2_linear_249_217" x1="84.0646" y1="40.4413" x2="130.952" y2="82.2702" gradientUnits="userSpaceOnUse">
<stop stop-color="#FFF2C9"/>
<stop offset="1" stop-color="#FFB7BB"/>
</linearGradient>
<linearGradient id="paint3_linear_249_217" x1="81.095" y1="43.7383" x2="128.008" y2="85.5923" gradientUnits="userSpaceOnUse">
<stop stop-color="#FFF2C9"/>
<stop offset="1" stop-color="#FFB7BB"/>
</linearGradient>
<linearGradient id="paint4_linear_249_217" x1="78.0243" y1="47.1862" x2="124.937" y2="89.0403" gradientUnits="userSpaceOnUse">
<stop stop-color="#FFF2C9"/>
<stop offset="1" stop-color="#FFB7BB"/>
</linearGradient>
<linearGradient id="paint5_linear_249_217" x1="89.1988" y1="34.6527" x2="136.112" y2="76.5067" gradientUnits="userSpaceOnUse">
<stop stop-color="#FFF2C9"/>
<stop offset="1" stop-color="#FFB7BB"/>
</linearGradient>
<linearGradient id="paint6_linear_249_217" x1="83.5361" y1="40.995" x2="130.449" y2="82.849" gradientUnits="userSpaceOnUse">
<stop stop-color="#FFF2C9"/>
<stop offset="1" stop-color="#FFB7BB"/>
</linearGradient>
<linearGradient id="paint7_linear_249_217" x1="83.1837" y1="41.4228" x2="130.071" y2="83.2768" gradientUnits="userSpaceOnUse">
<stop stop-color="#FFF2C9"/>
<stop offset="1" stop-color="#FFB7BB"/>
</linearGradient>
<linearGradient id="paint8_linear_249_217" x1="81.1956" y1="43.6376" x2="128.108" y2="85.4917" gradientUnits="userSpaceOnUse">
<stop stop-color="#FFF2C9"/>
<stop offset="1" stop-color="#FFB7BB"/>
</linearGradient>
<linearGradient id="paint9_linear_249_217" x1="88.922" y1="34.9799" x2="135.81" y2="76.8339" gradientUnits="userSpaceOnUse">
<stop stop-color="#FFF2C9"/>
<stop offset="1" stop-color="#FFB7BB"/>
</linearGradient>
<linearGradient id="paint10_linear_249_217" x1="78.5782" y1="46.5822" x2="125.466" y2="88.4362" gradientUnits="userSpaceOnUse">
<stop stop-color="#FFF2C9"/>
<stop offset="1" stop-color="#FFB7BB"/>
</linearGradient>
<linearGradient id="paint11_linear_249_217" x1="87.4874" y1="36.5907" x2="134.4" y2="78.4195" gradientUnits="userSpaceOnUse">
<stop stop-color="#FFF2C9"/>
<stop offset="1" stop-color="#FFB7BB"/>
</linearGradient>
<linearGradient id="paint12_linear_249_217" x1="79.459" y1="45.5755" x2="126.372" y2="87.4295" gradientUnits="userSpaceOnUse">
<stop stop-color="#FFF2C9"/>
<stop offset="1" stop-color="#FFB7BB"/>
</linearGradient>
<linearGradient id="paint13_linear_249_217" x1="82.0009" y1="42.7315" x2="128.914" y2="84.5855" gradientUnits="userSpaceOnUse">
<stop stop-color="#FFF2C9"/>
<stop offset="1" stop-color="#FFB7BB"/>
</linearGradient>
<linearGradient id="paint14_linear_249_217" x1="86.3299" y1="37.8993" x2="133.217" y2="79.7281" gradientUnits="userSpaceOnUse">
<stop stop-color="#FFF2C9"/>
<stop offset="1" stop-color="#FFB7BB"/>
</linearGradient>
<linearGradient id="paint15_linear_249_217" x1="83.4102" y1="41.1459" x2="130.323" y2="83" gradientUnits="userSpaceOnUse">
<stop stop-color="#FFF2C9"/>
<stop offset="1" stop-color="#FFB7BB"/>
</linearGradient>
<linearGradient id="paint16_linear_249_217" x1="87.1603" y1="36.9681" x2="134.048" y2="78.8221" gradientUnits="userSpaceOnUse">
<stop stop-color="#FFF2C9"/>
<stop offset="1" stop-color="#FFB7BB"/>
</linearGradient>
<linearGradient id="paint17_linear_249_217" x1="94.8365" y1="28.3607" x2="141.724" y2="70.2148" gradientUnits="userSpaceOnUse">
<stop stop-color="#FFF2C9"/>
<stop offset="1" stop-color="#FFB7BB"/>
</linearGradient>
<linearGradient id="paint18_linear_249_217" x1="94.3331" y1="28.8893" x2="141.246" y2="70.7433" gradientUnits="userSpaceOnUse">
<stop stop-color="#FFF2C9"/>
<stop offset="1" stop-color="#FFB7BB"/>
</linearGradient>
<linearGradient id="paint19_linear_249_217" x1="94.8112" y1="28.3859" x2="141.724" y2="70.2148" gradientUnits="userSpaceOnUse">
<stop stop-color="#FFF2C9"/>
<stop offset="1" stop-color="#FFB7BB"/>
</linearGradient>
<linearGradient id="paint20_linear_249_217" x1="97.7811" y1="25.0638" x2="144.669" y2="66.9178" gradientUnits="userSpaceOnUse">
<stop stop-color="#FFF2C9"/>
<stop offset="1" stop-color="#FFB7BB"/>
</linearGradient>
<linearGradient id="paint21_linear_249_217" x1="91.7408" y1="31.8087" x2="138.654" y2="73.6628" gradientUnits="userSpaceOnUse">
<stop stop-color="#FFF2C9"/>
<stop offset="1" stop-color="#FFB7BB"/>
</linearGradient>
<linearGradient id="paint22_linear_249_217" x1="102.966" y1="19.2248" x2="149.878" y2="61.0788" gradientUnits="userSpaceOnUse">
<stop stop-color="#FFF2C9"/>
<stop offset="1" stop-color="#FFB7BB"/>
</linearGradient>
<linearGradient id="paint23_linear_249_217" x1="102.915" y1="19.3003" x2="149.828" y2="61.1292" gradientUnits="userSpaceOnUse">
<stop stop-color="#FFF2C9"/>
<stop offset="1" stop-color="#FFB7BB"/>
</linearGradient>
<linearGradient id="paint24_linear_249_217" x1="97.2778" y1="25.6175" x2="144.165" y2="67.4715" gradientUnits="userSpaceOnUse">
<stop stop-color="#FFF2C9"/>
<stop offset="1" stop-color="#FFB7BB"/>
</linearGradient>
<linearGradient id="paint25_linear_249_217" x1="108.553" y1="12.9832" x2="155.441" y2="54.8373" gradientUnits="userSpaceOnUse">
<stop stop-color="#FFF2C9"/>
<stop offset="1" stop-color="#FFB7BB"/>
</linearGradient>
<linearGradient id="paint26_linear_249_217" x1="96.9002" y1="26.0453" x2="143.813" y2="67.8993" gradientUnits="userSpaceOnUse">
<stop stop-color="#FFF2C9"/>
<stop offset="1" stop-color="#FFB7BB"/>
</linearGradient>
<linearGradient id="paint27_linear_249_217" x1="94.9121" y1="28.2601" x2="141.825" y2="70.1142" gradientUnits="userSpaceOnUse">
<stop stop-color="#FFF2C9"/>
<stop offset="1" stop-color="#FFB7BB"/>
</linearGradient>
<linearGradient id="paint28_linear_249_217" x1="102.638" y1="19.6024" x2="149.526" y2="61.4564" gradientUnits="userSpaceOnUse">
<stop stop-color="#FFF2C9"/>
<stop offset="1" stop-color="#FFB7BB"/>
</linearGradient>
<linearGradient id="paint29_linear_249_217" x1="108.075" y1="13.5369" x2="154.962" y2="55.3658" gradientUnits="userSpaceOnUse">
<stop stop-color="#FFF2C9"/>
<stop offset="1" stop-color="#FFB7BB"/>
</linearGradient>
<linearGradient id="paint30_linear_249_217" x1="92.2945" y1="31.2047" x2="139.182" y2="73.0587" gradientUnits="userSpaceOnUse">
<stop stop-color="#FFF2C9"/>
<stop offset="1" stop-color="#FFB7BB"/>
</linearGradient>
<linearGradient id="paint31_linear_249_217" x1="101.204" y1="21.2132" x2="148.117" y2="63.042" gradientUnits="userSpaceOnUse">
<stop stop-color="#FFF2C9"/>
<stop offset="1" stop-color="#FFB7BB"/>
</linearGradient>
<linearGradient id="paint32_linear_249_217" x1="93.1753" y1="30.198" x2="140.088" y2="72.052" gradientUnits="userSpaceOnUse">
<stop stop-color="#FFF2C9"/>
<stop offset="1" stop-color="#FFB7BB"/>
</linearGradient>
<linearGradient id="paint33_linear_249_217" x1="95.7174" y1="27.354" x2="142.63" y2="69.208" gradientUnits="userSpaceOnUse">
<stop stop-color="#FFF2C9"/>
<stop offset="1" stop-color="#FFB7BB"/>
</linearGradient>
<linearGradient id="paint34_linear_249_217" x1="102.034" y1="20.2819" x2="148.922" y2="62.1359" gradientUnits="userSpaceOnUse">
<stop stop-color="#FFF2C9"/>
<stop offset="1" stop-color="#FFB7BB"/>
</linearGradient>
<linearGradient id="paint35_linear_249_217" x1="81.3466" y1="43.4866" x2="128.234" y2="85.3154" gradientUnits="userSpaceOnUse">
<stop stop-color="#FFF2C9"/>
<stop offset="1" stop-color="#FFB7BB"/>
</linearGradient>
<linearGradient id="paint36_linear_249_217" x1="77.1435" y1="48.1678" x2="124.056" y2="90.0218" gradientUnits="userSpaceOnUse">
<stop stop-color="#FFF2C9"/>
<stop offset="1" stop-color="#FFB7BB"/>
</linearGradient>
<linearGradient id="paint37_linear_249_217" x1="82.0009" y1="42.7316" x2="128.914" y2="84.5856" gradientUnits="userSpaceOnUse">
<stop stop-color="#FFF2C9"/>
<stop offset="1" stop-color="#FFB7BB"/>
</linearGradient>
<linearGradient id="paint38_linear_249_217" x1="82.0513" y1="42.6811" x2="128.964" y2="84.5351" gradientUnits="userSpaceOnUse">
<stop stop-color="#FFF2C9"/>
<stop offset="1" stop-color="#FFB7BB"/>
</linearGradient>
<linearGradient id="paint39_linear_249_217" x1="85.5244" y1="38.7803" x2="132.437" y2="80.6091" gradientUnits="userSpaceOnUse">
<stop stop-color="#FFF2C9"/>
<stop offset="1" stop-color="#FFB7BB"/>
</linearGradient>
<linearGradient id="paint40_linear_249_217" x1="72.6134" y1="53.2768" x2="119.501" y2="95.1057" gradientUnits="userSpaceOnUse">
<stop stop-color="#FFF2C9"/>
<stop offset="1" stop-color="#FFB7BB"/>
</linearGradient>
<linearGradient id="paint41_linear_249_217" x1="69.694" y1="56.5235" x2="116.607" y2="98.3775" gradientUnits="userSpaceOnUse">
<stop stop-color="#FFF2C9"/>
<stop offset="1" stop-color="#FFB7BB"/>
</linearGradient>
<linearGradient id="paint42_linear_249_217" x1="73.444" y1="52.3456" x2="120.332" y2="94.1745" gradientUnits="userSpaceOnUse">
<stop stop-color="#FFF2C9"/>
<stop offset="1" stop-color="#FFB7BB"/>
</linearGradient>
<linearGradient id="paint43_linear_249_217" x1="68.2844" y1="58.1091" x2="115.197" y2="99.9631" gradientUnits="userSpaceOnUse">
<stop stop-color="#FFF2C9"/>
<stop offset="1" stop-color="#FFB7BB"/>
</linearGradient>
<linearGradient id="paint44_linear_249_217" x1="68.3347" y1="58.0586" x2="115.222" y2="99.9126" gradientUnits="userSpaceOnUse">
<stop stop-color="#FFF2C9"/>
<stop offset="1" stop-color="#FFB7BB"/>
</linearGradient>
<linearGradient id="paint45_linear_249_217" x1="71.8079" y1="54.1578" x2="118.721" y2="95.9866" gradientUnits="userSpaceOnUse">
<stop stop-color="#FFF2C9"/>
<stop offset="1" stop-color="#FFB7BB"/>
</linearGradient>
<linearGradient id="paint46_linear_249_217" x1="73.5193" y1="52.245" x2="120.432" y2="94.0739" gradientUnits="userSpaceOnUse">
<stop stop-color="#FFF2C9"/>
<stop offset="1" stop-color="#FFB7BB"/>
</linearGradient>
<linearGradient id="paint47_linear_249_217" x1="73.0915" y1="52.7233" x2="119.979" y2="94.5773" gradientUnits="userSpaceOnUse">
<stop stop-color="#FFF2C9"/>
<stop offset="1" stop-color="#FFB7BB"/>
</linearGradient>
<linearGradient id="paint48_linear_249_217" x1="77.9489" y1="47.2868" x2="124.836" y2="89.1157" gradientUnits="userSpaceOnUse">
<stop stop-color="#FFF2C9"/>
<stop offset="1" stop-color="#FFB7BB"/>
</linearGradient>
<linearGradient id="paint49_linear_249_217" x1="88.318" y1="35.6594" x2="135.206" y2="77.4883" gradientUnits="userSpaceOnUse">
<stop stop-color="#FFF2C9"/>
<stop offset="1" stop-color="#FFB7BB"/>
</linearGradient>
<linearGradient id="paint50_linear_249_217" x1="67.63" y1="58.8641" x2="114.518" y2="100.693" gradientUnits="userSpaceOnUse">
<stop stop-color="#FFF2C9"/>
<stop offset="1" stop-color="#FFB7BB"/>
</linearGradient>
<linearGradient id="paint51_linear_249_217" x1="63.427" y1="63.5453" x2="110.34" y2="105.399" gradientUnits="userSpaceOnUse">
<stop stop-color="#FFF2C9"/>
<stop offset="1" stop-color="#FFB7BB"/>
</linearGradient>
<linearGradient id="paint52_linear_249_217" x1="59.8028" y1="67.5971" x2="106.716" y2="109.451" gradientUnits="userSpaceOnUse">
<stop stop-color="#FFF2C9"/>
<stop offset="1" stop-color="#FFB7BB"/>
</linearGradient>
<linearGradient id="paint53_linear_249_217" x1="59.3498" y1="68.1006" x2="106.288" y2="109.955" gradientUnits="userSpaceOnUse">
<stop stop-color="#FFF2C9"/>
<stop offset="1" stop-color="#FFB7BB"/>
</linearGradient>
<linearGradient id="paint54_linear_249_217" x1="64.2324" y1="62.6643" x2="111.12" y2="104.493" gradientUnits="userSpaceOnUse">
<stop stop-color="#FFF2C9"/>
<stop offset="1" stop-color="#FFB7BB"/>
</linearGradient>
<linearGradient id="paint55_linear_249_217" x1="122.974" y1="79.1493" x2="125.29" y2="99.2332" gradientUnits="userSpaceOnUse">
<stop stop-color="#FADD8D"/>
<stop offset="0.39" stop-color="#F4A2A7"/>
<stop offset="1" stop-color="#EA3FD6"/>
</linearGradient>
<linearGradient id="paint56_linear_249_217" x1="122.572" y1="59.1157" x2="127.53" y2="84.057" gradientUnits="userSpaceOnUse">
<stop stop-color="#FADD8D"/>
<stop offset="0.39" stop-color="#F4A2A7"/>
<stop offset="1" stop-color="#EA3FD6"/>
</linearGradient>
<linearGradient id="paint57_linear_249_217" x1="248.36" y1="102.329" x2="117.538" y2="9.76174" gradientUnits="userSpaceOnUse">
<stop stop-color="#FFF2C9"/>
<stop offset="1" stop-color="#FFB7BB"/>
</linearGradient>
<linearGradient id="paint58_linear_249_217" x1="251.129" y1="98.4028" x2="120.281" y2="5.86078" gradientUnits="userSpaceOnUse">
<stop stop-color="#FFF2C9"/>
<stop offset="1" stop-color="#FFB7BB"/>
</linearGradient>
<linearGradient id="paint59_linear_249_217" x1="253.872" y1="94.5269" x2="123.024" y2="1.98496" gradientUnits="userSpaceOnUse">
<stop stop-color="#FFF2C9"/>
<stop offset="1" stop-color="#FFB7BB"/>
</linearGradient>
<linearGradient id="paint60_linear_249_217" x1="258.251" y1="105.198" x2="127.404" y2="12.6308" gradientUnits="userSpaceOnUse">
<stop stop-color="#FFF2C9"/>
<stop offset="1" stop-color="#FFB7BB"/>
</linearGradient>
<linearGradient id="paint61_linear_249_217" x1="261.573" y1="100.517" x2="130.726" y2="7.92465" gradientUnits="userSpaceOnUse">
<stop stop-color="#FFF2C9"/>
<stop offset="1" stop-color="#FFB7BB"/>
</linearGradient>
<linearGradient id="paint62_linear_249_217" x1="264.367" y1="96.5655" x2="133.519" y2="3.99842" gradientUnits="userSpaceOnUse">
<stop stop-color="#FFF2C9"/>
<stop offset="1" stop-color="#FFB7BB"/>
</linearGradient>
<linearGradient id="paint63_linear_249_217" x1="266.858" y1="92.9917" x2="136.036" y2="0.449865" gradientUnits="userSpaceOnUse">
<stop stop-color="#FFF2C9"/>
<stop offset="1" stop-color="#FFB7BB"/>
</linearGradient>
<linearGradient id="paint64_linear_249_217" x1="199.686" y1="52.8238" x2="174.115" y2="89.7953" gradientUnits="userSpaceOnUse">
<stop stop-color="#FFF2C9"/>
<stop offset="1" stop-color="#FFB7BB"/>
</linearGradient>
<linearGradient id="paint65_linear_249_217" x1="201.951" y1="54.3843" x2="176.38" y2="91.3558" gradientUnits="userSpaceOnUse">
<stop stop-color="#FFF2C9"/>
<stop offset="1" stop-color="#FFB7BB"/>
</linearGradient>
<linearGradient id="paint66_linear_249_217" x1="203.486" y1="55.4413" x2="177.915" y2="92.4128" gradientUnits="userSpaceOnUse">
<stop stop-color="#FFF2C9"/>
<stop offset="1" stop-color="#FFB7BB"/>
</linearGradient>
<clipPath id="clip0_249_217">
<rect width="122.24" height="120" fill="white" transform="translate(78.8801 15.5)"/>
</clipPath>
</defs>
</svg>
