<svg width="280" height="200" viewBox="0 0 280 200" fill="none" xmlns="http://www.w3.org/2000/svg">
<rect width="280" height="200" rx="8" fill="url(#paint0_linear_249_909)"/>
<g clip-path="url(#clip0_249_909)">
<g opacity="0.1">
<path d="M166.757 108.846C177.427 114.94 177.497 124.829 166.873 130.924C156.273 137.018 139 137.018 128.33 130.924C117.659 124.829 117.59 114.94 128.214 108.823C138.814 102.729 156.087 102.729 166.757 108.823V108.846Z" fill="black"/>
</g>
<g opacity="0.1">
<path d="M166.757 108.846C177.427 114.94 177.497 124.829 166.873 130.924C156.273 137.018 139 137.018 128.33 130.924C117.659 124.829 117.59 114.94 128.214 108.823C138.814 102.729 156.087 102.729 166.757 108.823V108.846Z" fill="black"/>
</g>
<path d="M166.711 107.627C176.591 113.262 176.637 122.415 166.827 128.072C157.017 133.706 141.046 133.729 131.166 128.072C121.286 122.438 121.24 113.285 131.05 107.627C140.86 101.993 156.831 101.993 166.711 107.627Z" fill="url(#paint1_linear_249_909)"/>
<path d="M166.711 101.234C176.591 106.868 176.637 116.021 166.827 121.679C157.017 127.313 141.046 127.336 131.166 121.679C121.286 116.044 121.24 106.891 131.05 101.234C140.86 95.5997 156.831 95.5997 166.711 101.234Z" fill="#1899E5"/>
<g opacity="0.8">
<path d="M162.619 103.557C170.198 107.696 170.244 114.435 162.712 118.597C155.18 122.737 142.906 122.76 135.327 118.597C127.749 114.458 127.702 107.719 135.234 103.557C142.766 99.4173 155.041 99.4173 162.619 103.557Z" fill="#00E7FF"/>
</g>
<g opacity="0.3">
<path d="M92.5295 64.8984C93.4826 64.3465 93.8778 65.1054 93.8778 66.2322C93.8778 67.4971 93.4361 68.624 92.5295 69.1529C91.5996 69.6818 91.1812 68.9689 91.1812 67.819C91.1812 66.6462 91.6228 65.4503 92.5527 64.9214L92.5295 64.8984ZM92.5295 68.394C92.8549 68.21 93.0177 67.6351 93.0177 66.7152C93.0177 65.8183 92.8317 65.4273 92.5062 65.6113C92.204 65.7953 91.9948 66.3702 91.9948 67.3131C91.9948 68.256 92.1808 68.578 92.5295 68.394Z" fill="#FFD2CD"/>
<path d="M95.5981 63.1506C96.5513 62.5987 96.9465 63.3576 96.9465 64.4844C96.9465 65.7493 96.5048 66.8762 95.5749 67.3821C94.645 67.911 94.2266 67.1981 94.2266 66.0482C94.2266 64.8754 94.6683 63.6795 95.5981 63.1506ZM95.5981 66.6462C95.9236 66.4622 96.1096 65.8873 96.0863 64.9674C96.0863 64.0705 95.9003 63.6795 95.5749 63.8635C95.2727 64.0475 95.0635 64.6224 95.0635 65.5653C95.0635 66.5082 95.2494 66.8302 95.5749 66.6462H95.5981Z" fill="#FFD2CD"/>
<path d="M98.6667 61.4028C99.6198 60.8508 100.015 61.6098 100.015 62.7366C100.015 64.0015 99.5733 65.1283 98.6667 65.6573C97.7368 66.1862 97.3184 65.4733 97.3184 64.3234C97.3184 63.1506 97.7601 61.9547 98.6899 61.4258L98.6667 61.4028ZM98.6667 64.8984C98.9921 64.7144 99.1549 64.1395 99.1549 63.2196C99.1549 62.3227 98.9689 61.9317 98.6434 62.1157C98.3412 62.2997 98.1088 62.8516 98.132 63.7945C98.132 64.7374 98.318 65.0594 98.6667 64.8754V64.8984Z" fill="#FFD2CD"/>
<path d="M102.317 59.3789L102.34 63.4724L101.526 63.9324L101.503 60.7128L100.805 61.4717L100.666 60.8277L101.619 59.7929L102.317 59.3789Z" fill="#FFD2CD"/>
<path d="M104.827 57.8842C105.78 57.3323 106.176 58.0912 106.176 59.2181C106.176 60.4829 105.734 61.6098 104.827 62.1387C103.897 62.6677 103.479 61.9548 103.479 60.8049C103.479 59.632 103.921 58.4362 104.851 57.9072L104.827 57.8842ZM104.827 61.3798C105.153 61.1958 105.339 60.6209 105.316 59.701C105.316 58.8041 105.13 58.4132 104.804 58.5971C104.502 58.7811 104.293 59.3561 104.293 60.2989C104.293 61.2418 104.479 61.5638 104.827 61.3798Z" fill="#FFD2CD"/>
<path d="M107.896 56.1364C108.872 55.5845 109.244 56.3434 109.244 57.4703C109.244 58.7351 108.803 59.862 107.873 60.3909C106.943 60.9199 106.524 60.207 106.524 59.0571C106.524 57.8842 106.966 56.6884 107.896 56.1594V56.1364ZM107.896 59.632C108.221 59.448 108.407 58.8731 108.384 57.9532C108.384 57.0563 108.221 56.6654 107.873 56.8493C107.571 57.0333 107.361 57.6083 107.361 58.5511C107.361 59.494 107.547 59.816 107.896 59.632Z" fill="#FFD2CD"/>
<path d="M110.964 54.3654C111.917 53.8135 112.313 54.5724 112.313 55.6993C112.313 56.9641 111.871 58.091 110.941 58.5969C110.011 59.1259 109.593 58.413 109.593 57.2631C109.593 56.0902 110.034 54.8944 110.964 54.3654ZM110.964 57.861C111.29 57.677 111.476 57.1021 111.453 56.1822C111.453 55.2853 111.267 54.8944 110.941 55.0783C110.639 55.2623 110.406 55.8143 110.43 56.7802C110.43 57.723 110.616 58.045 110.964 57.861Z" fill="#FFD2CD"/>
<path d="M114.033 52.6176C114.986 52.0657 115.381 52.8246 115.381 53.9515C115.381 55.2163 114.94 56.3432 114.033 56.8721C113.103 57.4011 112.685 56.6882 112.685 55.5383C112.685 54.3654 113.126 53.1696 114.056 52.6406L114.033 52.6176ZM114.033 56.1132C114.358 55.9292 114.544 55.3543 114.521 54.4344C114.521 53.5375 114.335 53.1466 114.01 53.3305C113.707 53.5145 113.498 54.0895 113.498 55.0323C113.498 55.9752 113.684 56.2972 114.033 56.1132Z" fill="#FFD2CD"/>
<path d="M117.125 50.8698C118.078 50.3179 118.473 51.0768 118.473 52.2037C118.473 53.4685 118.031 54.5954 117.125 55.1243C116.195 55.6533 115.776 54.9403 115.776 53.7905C115.776 52.6176 116.218 51.4218 117.148 50.8928L117.125 50.8698ZM117.125 54.3654C117.45 54.1814 117.636 53.6065 117.613 52.6866C117.613 51.7897 117.427 51.3988 117.101 51.5827C116.799 51.7667 116.59 52.3187 116.59 53.2845C116.59 54.2274 116.776 54.5494 117.125 54.3654Z" fill="#FFD2CD"/>
<path d="M120.194 49.0991C121.147 48.5471 121.542 49.306 121.542 50.4329C121.542 51.6978 121.1 52.8246 120.194 53.3306C119.264 53.8595 118.845 53.1466 118.845 51.9967C118.845 50.8239 119.287 49.628 120.217 49.0991H120.194ZM120.194 52.5947C120.519 52.4107 120.705 51.8358 120.682 50.9159C120.682 50.019 120.496 49.628 120.17 49.812C119.868 49.996 119.659 50.5479 119.659 51.5138C119.659 52.4567 119.845 52.7786 120.194 52.5947Z" fill="#FFD2CD"/>
<path d="M123.82 47.0984L123.843 51.1919L123.03 51.6519V48.4092H123.007L122.332 49.1911L122.193 48.5472L123.146 47.4893L123.82 47.0984Z" fill="#FFD2CD"/>
<path d="M126.912 45.3506V49.4441L126.098 49.9041V46.6614H126.075L125.401 47.4203L125.261 46.7994L126.214 45.7415L126.912 45.3506Z" fill="#FFD2CD"/>
<path d="M129.981 43.5798V47.6734L129.19 48.1333L129.167 44.8907V44.9137L128.47 45.6726L128.33 45.0287L129.283 43.9938L129.981 43.5798Z" fill="#FFD2CD"/>
<path d="M132.491 42.0849C133.444 41.533 133.84 42.2919 133.84 43.4188C133.84 44.6836 133.398 45.8105 132.468 46.3394C131.538 46.8684 131.12 46.1554 131.12 45.0056C131.12 43.8327 131.561 42.6368 132.491 42.1079V42.0849ZM132.491 45.5805C132.817 45.3965 133.003 44.8216 132.979 43.9017C132.979 43.0048 132.793 42.6138 132.468 42.7978C132.166 42.9818 131.957 43.5567 131.957 44.4996C131.957 45.4425 132.142 45.7645 132.491 45.5805Z" fill="#FFD2CD"/>
<path d="M135.56 40.3371C136.536 39.7852 136.908 40.5441 136.908 41.671C136.908 42.9358 136.466 44.0627 135.56 44.5916C134.63 45.1205 134.211 44.4076 134.211 43.2578C134.211 42.0849 134.653 40.889 135.583 40.3601L135.56 40.3371ZM135.56 43.8327C135.885 43.6487 136.071 43.0738 136.048 42.1539C136.048 41.257 135.885 40.866 135.537 41.05C135.234 41.234 135.025 41.7859 135.025 42.7518C135.025 43.6947 135.211 44.0167 135.56 43.8327Z" fill="#FFD2CD"/>
<path d="M138.628 38.5893C139.581 38.0374 139.976 38.7963 139.976 39.9232C139.976 41.188 139.535 42.3149 138.628 42.8438C137.698 43.3727 137.28 42.6598 137.28 41.51C137.28 40.3371 137.721 39.1412 138.651 38.6123L138.628 38.5893ZM138.628 42.0849C138.954 41.9009 139.14 41.326 139.116 40.4061C139.116 39.5092 138.93 39.1182 138.605 39.3252C138.303 39.5092 138.093 40.0611 138.093 41.004C138.093 41.9469 138.279 42.2689 138.605 42.0849H138.628Z" fill="#FFD2CD"/>
<path d="M141.697 36.8186C142.65 36.2666 143.045 37.0255 143.045 38.1524C143.045 39.4173 142.604 40.5441 141.697 41.0501C140.767 41.579 140.349 40.8661 140.349 39.7162C140.349 38.5434 140.79 37.3475 141.72 36.8186H141.697ZM141.697 40.3141C142.022 40.1302 142.208 39.5552 142.185 38.6353C142.185 37.7384 141.999 37.3475 141.674 37.5315C141.372 37.7154 141.162 38.2904 141.162 39.2333C141.162 40.1762 141.348 40.4981 141.674 40.3141H141.697Z" fill="#FFD2CD"/>
<path d="M92.5529 72.4643C93.5293 71.9124 93.9012 72.6713 93.9012 73.7982C93.9012 75.063 93.4595 76.1899 92.5529 76.7188C91.623 77.2477 91.2046 76.5348 91.2046 75.385C91.2046 74.2121 91.6463 73.0162 92.5762 72.4873L92.5529 72.4643ZM92.5529 75.9599C92.8784 75.7759 93.0644 75.201 93.0411 74.2811C93.0411 73.3842 92.8784 72.9932 92.5297 73.1772C92.2275 73.3612 91.995 73.9361 92.0182 74.879C92.0182 75.8219 92.2042 76.1439 92.5297 75.9599H92.5529Z" fill="#FFD2CD"/>
<path d="M95.6213 70.7165C96.5744 70.1646 96.9696 70.9235 96.9696 72.0503C96.9696 73.3152 96.5279 74.4421 95.6213 74.971C94.6914 75.4999 94.2729 74.787 94.2729 73.6372C94.2729 72.4643 94.7146 71.2684 95.6445 70.7395L95.6213 70.7165ZM95.6213 74.2121C95.9467 74.0281 96.1327 73.4532 96.1095 72.5333C96.1095 71.6364 95.9235 71.2454 95.598 71.4294C95.2958 71.6134 95.0866 72.1883 95.0866 73.1312C95.0866 74.0741 95.2726 74.3961 95.598 74.2121H95.6213Z" fill="#FFD2CD"/>
<path d="M99.2711 68.6929V72.7864L98.4575 73.2463V70.0037V70.0267L97.7601 70.7856L97.6206 70.1417L98.5737 69.0838L99.2711 68.6929Z" fill="#FFD2CD"/>
<path d="M101.782 67.1979C102.735 66.646 103.13 67.4049 103.13 68.5318C103.13 69.7966 102.688 70.9235 101.758 71.4525C100.829 71.9814 100.41 71.2685 100.41 70.1186C100.41 68.9457 100.852 67.7499 101.782 67.2209V67.1979ZM101.782 70.6935C102.107 70.5096 102.27 69.9346 102.27 69.0147C102.27 68.1178 102.107 67.7269 101.758 67.9109C101.456 68.0948 101.247 68.6698 101.247 69.6127C101.247 70.5556 101.433 70.8775 101.782 70.6935Z" fill="#FFD2CD"/>
<path d="M104.85 65.4501C105.803 64.8982 106.199 65.6571 106.199 66.784C106.199 68.0488 105.757 69.1757 104.85 69.7047C103.92 70.2336 103.502 69.5207 103.502 68.3708C103.502 67.1979 103.944 66.0021 104.874 65.4731L104.85 65.4501ZM104.85 68.9457C105.176 68.7618 105.362 68.1868 105.338 67.2669C105.338 66.37 105.152 65.9791 104.827 66.1631C104.525 66.347 104.316 66.922 104.316 67.8649C104.316 68.8078 104.502 69.1297 104.827 68.9457H104.85Z" fill="#FFD2CD"/>
<path d="M107.919 63.6794C108.872 63.1275 109.267 63.8864 109.267 65.0132C109.267 66.2781 108.826 67.405 107.896 67.9339C106.966 68.4628 106.547 67.7499 106.547 66.6001C106.547 65.4272 106.989 64.2313 107.919 63.7024V63.6794ZM107.919 67.175C108.244 66.991 108.43 66.4161 108.407 65.4962C108.407 64.5993 108.221 64.2083 107.896 64.3923C107.593 64.5763 107.361 65.1282 107.384 66.0941C107.384 67.037 107.57 67.359 107.896 67.175H107.919Z" fill="#FFD2CD"/>
<path d="M111.569 61.6787V65.7722L110.755 66.2322V62.9896H110.732L110.058 63.7485L109.918 63.1275L110.872 62.0697L111.569 61.6787Z" fill="#FFD2CD"/>
<path d="M114.056 60.1838C115.033 59.6319 115.404 60.3908 115.404 61.5176C115.404 62.7825 114.963 63.9094 114.033 64.4383C113.103 64.9672 112.685 64.2543 112.685 63.1044C112.685 61.9316 113.126 60.7357 114.056 60.2068V60.1838ZM114.056 63.6794C114.382 63.4954 114.568 62.9205 114.544 62.0006C114.544 61.1037 114.382 60.7127 114.033 60.8967C113.731 61.0807 113.521 61.6556 113.521 62.5985C113.521 63.5414 113.707 63.8634 114.056 63.6794Z" fill="#FFD2CD"/>
<path d="M117.148 58.413C118.101 57.8611 118.496 58.62 118.496 59.7469C118.496 61.0117 118.055 62.1386 117.125 62.6675C116.195 63.1965 115.776 62.4836 115.776 61.3337C115.776 60.1608 116.218 58.965 117.148 58.436V58.413ZM117.148 61.9086C117.473 61.7247 117.659 61.1497 117.636 60.2298C117.636 59.3329 117.45 58.942 117.125 59.126C116.822 59.3099 116.59 59.8619 116.613 60.8278C116.613 61.7706 116.799 62.0926 117.125 61.9086H117.148Z" fill="#FFD2CD"/>
<path d="M120.216 56.6652C121.17 56.1133 121.565 56.8722 121.565 57.9991C121.565 59.2639 121.123 60.3908 120.216 60.9197C119.287 61.4487 118.868 60.7358 118.868 59.5859C118.868 58.413 119.31 57.2172 120.24 56.6882L120.216 56.6652ZM120.216 60.1608C120.542 59.9768 120.728 59.4019 120.705 58.482C120.705 57.5851 120.519 57.1942 120.193 57.3781C119.891 57.5621 119.682 58.1371 119.682 59.08C119.682 60.0228 119.868 60.3448 120.193 60.1608H120.216Z" fill="#FFD2CD"/>
<path d="M123.843 54.6646L123.866 58.7351L123.053 59.195V55.9754H123.029L122.355 56.7343L122.216 56.0904L123.169 55.0555L123.843 54.6646Z" fill="#FFD2CD"/>
<path d="M126.354 53.1467C127.33 52.5947 127.702 53.3537 127.702 54.4805C127.702 55.7454 127.261 56.8722 126.331 57.4012C125.401 57.9301 124.982 57.2172 124.982 56.0673C124.982 54.8945 125.424 53.6986 126.354 53.1697V53.1467ZM126.354 56.6423C126.679 56.4583 126.842 55.8834 126.842 54.9635C126.842 54.0666 126.679 53.6756 126.331 53.8596C126.029 54.0436 125.796 54.5955 125.819 55.5614C125.819 56.5043 126.005 56.8262 126.354 56.6423Z" fill="#FFD2CD"/>
<path d="M129.423 51.3989C130.376 50.8469 130.771 51.6059 130.771 52.7327C130.771 53.9976 130.329 55.1244 129.423 55.6534C128.493 56.1823 128.074 55.4694 128.074 54.3195C128.074 53.1467 128.516 51.9508 129.446 51.4219L129.423 51.3989ZM129.423 54.8945C129.748 54.7105 129.934 54.1356 129.911 53.2157C129.911 52.3188 129.725 51.9278 129.399 52.1118C129.097 52.2958 128.888 52.8477 128.888 53.8136C128.888 54.7565 129.074 55.0784 129.423 54.8945Z" fill="#FFD2CD"/>
<path d="M132.514 49.6511C133.467 49.0991 133.862 49.858 133.862 50.9849C133.862 52.2498 133.421 53.3766 132.491 53.9056C131.561 54.4345 131.143 53.7216 131.143 52.5717C131.143 51.3989 131.584 50.203 132.514 49.6741V49.6511ZM132.514 53.1467C132.84 52.9627 133.026 52.3878 133.026 51.4679C133.026 50.571 132.84 50.18 132.514 50.364C132.212 50.548 131.979 51.1229 132.003 52.0658C132.003 53.0087 132.189 53.3306 132.514 53.1467Z" fill="#FFD2CD"/>
<path d="M136.141 47.6272L136.164 51.7207L135.35 52.1807V48.938L135.327 48.961L134.653 49.72L134.49 49.076L135.443 48.0182L136.141 47.6272Z" fill="#FFD2CD"/>
<path d="M138.652 46.1325C139.605 45.5806 140 46.3395 140 47.4664C140 48.7312 139.558 49.8581 138.652 50.387C137.722 50.916 137.303 50.203 137.303 49.0532C137.303 47.8803 137.745 46.6845 138.675 46.1555L138.652 46.1325ZM138.652 49.6281C138.977 49.4441 139.163 48.8692 139.14 47.9493C139.14 47.0524 138.954 46.6615 138.628 46.8454C138.326 47.0294 138.117 47.5814 138.117 48.5242C138.117 49.4671 138.303 49.7891 138.652 49.6051V49.6281Z" fill="#FFD2CD"/>
<path d="M141.72 44.3847C142.674 43.8328 143.069 44.5917 143.069 45.7186C143.069 46.9834 142.627 48.1103 141.72 48.6392C140.791 49.1682 140.372 48.4552 140.372 47.3054C140.372 46.1325 140.814 44.9367 141.744 44.4077L141.72 44.3847ZM141.72 47.8803C142.046 47.6963 142.209 47.1214 142.209 46.2015C142.209 45.3046 142.046 44.9137 141.697 45.0976C141.395 45.2816 141.162 45.8565 141.186 46.7994C141.186 47.7423 141.372 48.0643 141.72 47.8803Z" fill="#FFD2CD"/>
<path d="M125.842 24.2161V28.2866L125.029 28.7465V25.5269H125.006L124.331 26.2858L124.192 25.6419L125.145 24.607L125.842 24.2161Z" fill="#FFD2CD"/>
<path d="M128.911 22.4453V26.5388L128.121 26.9988L128.098 23.7562V23.7792L127.4 24.5381L127.261 23.8941L128.214 22.8363L128.911 22.4453Z" fill="#FFD2CD"/>
<path d="M131.422 20.9504C132.375 20.3985 132.77 21.1574 132.77 22.2842C132.77 23.5491 132.328 24.676 131.399 25.2049C130.469 25.7338 130.05 25.0209 130.05 23.8711C130.05 22.6982 130.492 21.5023 131.422 20.9734V20.9504ZM131.422 24.446C131.747 24.262 131.933 23.6871 131.91 22.7672C131.91 21.8703 131.724 21.4793 131.399 21.6633C131.096 21.8473 130.887 22.3992 130.887 23.3651C130.887 24.308 131.073 24.63 131.422 24.446Z" fill="#FFD2CD"/>
<path d="M134.49 19.2026C135.444 18.6507 135.839 19.4096 135.839 20.5364C135.839 21.8013 135.397 22.9282 134.49 23.4571C133.561 23.986 133.142 23.2731 133.142 22.1232C133.142 20.9504 133.584 19.7545 134.514 19.2256L134.49 19.2026ZM134.49 22.6982C134.816 22.5142 135.002 21.9393 134.979 21.0194C134.979 20.1225 134.816 19.7315 134.467 19.9155C134.165 20.0995 133.956 20.6744 133.956 21.6173C133.956 22.5602 134.142 22.8822 134.467 22.6982H134.49Z" fill="#FFD2CD"/>
<path d="M137.559 17.4318C138.512 16.8799 138.907 17.6388 138.907 18.7657C138.907 20.0305 138.465 21.1574 137.559 21.6863C136.629 22.2153 136.21 21.5024 136.21 20.3525C136.21 19.1796 136.652 17.9838 137.582 17.4548L137.559 17.4318ZM137.559 20.9274C137.884 20.7434 138.07 20.1685 138.047 19.2486C138.047 18.3517 137.861 17.9608 137.536 18.1677C137.233 18.3517 137.024 18.9037 137.024 19.8466C137.024 20.7894 137.21 21.1114 137.536 20.9274H137.559Z" fill="#FFD2CD"/>
<path d="M140.628 15.684C141.604 15.1321 141.976 15.891 141.976 17.0179C141.976 18.2827 141.534 19.4096 140.628 19.9385C139.698 20.4675 139.279 19.7546 139.279 18.6047C139.279 17.4318 139.721 16.236 140.651 15.707L140.628 15.684ZM140.628 19.1796C140.953 18.9956 141.139 18.4207 141.116 17.5008C141.116 16.6039 140.93 16.213 140.604 16.3969C140.302 16.5809 140.07 17.1559 140.093 18.0988C140.093 19.0416 140.279 19.3636 140.604 19.1796H140.628Z" fill="#FFD2CD"/>
<path d="M119.147 35.5307C120.1 34.9788 120.495 35.7377 120.495 36.8646C120.495 38.1294 120.054 39.2563 119.147 39.7852C118.217 40.3142 117.799 39.6012 117.799 38.4514C117.799 37.2785 118.241 36.0826 119.17 35.5537L119.147 35.5307ZM119.147 39.0263C119.473 38.8423 119.659 38.2674 119.635 37.3475C119.635 36.4506 119.449 36.0597 119.124 36.2436C118.822 36.4276 118.612 37.0025 118.612 37.9454C118.612 38.8883 118.798 39.2103 119.124 39.0263H119.147Z" fill="#FFD2CD"/>
<path d="M122.774 33.5068L122.797 37.6004L121.983 38.0603V34.8177L121.96 34.8407L121.286 35.5996L121.146 34.9557L122.1 33.9208L122.774 33.5068Z" fill="#FFD2CD"/>
<path d="M125.285 32.0122C126.238 31.4602 126.633 32.2191 126.633 33.346C126.633 34.6109 126.191 35.7377 125.261 36.2667C124.332 36.7956 123.913 36.0827 123.913 34.9328C123.913 33.76 124.355 32.5641 125.285 32.0352V32.0122ZM125.285 35.5078C125.61 35.3238 125.773 34.7488 125.773 33.8289C125.773 32.9321 125.61 32.5411 125.261 32.7251C124.959 32.9091 124.75 33.484 124.75 34.4269C124.75 35.3698 124.936 35.6917 125.285 35.5078Z" fill="#FFD2CD"/>
<path d="M128.353 30.2644C129.306 29.7124 129.701 30.4713 129.701 31.5982C129.701 32.8631 129.26 33.9899 128.33 34.5189C127.4 35.0478 126.981 34.3349 126.981 33.185C126.981 32.0122 127.423 30.8163 128.353 30.2874V30.2644ZM128.353 33.7599C128.678 33.576 128.864 33.001 128.841 32.0811C128.841 31.1842 128.655 30.7933 128.33 30.9773C128.028 31.1613 127.818 31.7362 127.818 32.6791C127.818 33.622 128.004 33.9439 128.353 33.7599Z" fill="#FFD2CD"/>
<path d="M131.445 28.4936C132.398 27.9417 132.793 28.7006 132.793 29.8274C132.793 31.0923 132.352 32.2192 131.445 32.7481C130.515 33.277 130.097 32.5641 130.097 31.4143C130.097 30.2414 130.538 29.0455 131.468 28.5166L131.445 28.4936ZM131.445 31.9892C131.77 31.8052 131.956 31.2303 131.933 30.3104C131.933 29.4135 131.747 29.0225 131.422 29.2065C131.12 29.3905 130.91 29.9654 130.91 30.9083C130.91 31.8512 131.096 32.1732 131.422 31.9892H131.445Z" fill="#FFD2CD"/>
<path d="M135.071 26.4927L135.095 30.5862L134.281 31.0461L134.258 27.8035L133.584 28.5624L133.421 27.9415L134.374 26.8836L135.071 26.4927Z" fill="#FFD2CD"/>
<path d="M137.582 24.998C138.558 24.4461 138.93 25.205 138.93 26.3318C138.93 27.5967 138.489 28.7236 137.559 29.2525C136.629 29.7814 136.21 29.0685 136.21 27.9187C136.21 26.7458 136.652 25.5499 137.582 25.021V24.998ZM137.582 28.4936C137.907 28.3096 138.093 27.7347 138.07 26.8148C138.07 25.9179 137.907 25.5269 137.559 25.7339C137.257 25.9179 137.047 26.4698 137.047 27.4127C137.047 28.3556 137.233 28.6776 137.582 28.4936Z" fill="#FFD2CD"/>
<path d="M140.651 23.2272C141.604 22.6753 141.999 23.4342 141.999 24.5611C141.999 25.8259 141.557 26.9528 140.651 27.4817C139.721 28.0107 139.302 27.2978 139.302 26.1479C139.302 24.975 139.744 23.7792 140.674 23.2502L140.651 23.2272ZM140.651 26.7228C140.976 26.5389 141.162 25.9639 141.139 25.044C141.139 24.1471 140.976 23.7562 140.627 23.9402C140.325 24.1241 140.116 24.6991 140.116 25.642C140.116 26.5849 140.302 26.9068 140.651 26.7228Z" fill="#FFD2CD"/>
<path d="M116.079 44.8447C117.055 44.2927 117.427 45.0517 117.427 46.1785C117.427 47.4434 116.985 48.5702 116.079 49.0992C115.149 49.6281 114.73 48.9152 114.73 47.7653C114.73 46.5925 115.172 45.3966 116.102 44.8677L116.079 44.8447ZM116.079 48.3403C116.404 48.1563 116.59 47.5814 116.567 46.6615C116.567 45.7646 116.404 45.3736 116.056 45.5576C115.753 45.7416 115.521 46.2935 115.544 47.2594C115.544 48.2023 115.73 48.5242 116.079 48.3403Z" fill="#FFD2CD"/>
<path d="M119.729 42.8208L119.752 46.9143L118.938 47.3743L118.915 44.1316V44.1546L118.218 44.9136L118.078 44.2696L119.031 43.2118L119.729 42.8208Z" fill="#FFD2CD"/>
<path d="M122.797 41.073L122.82 45.1665L122.007 45.6265V42.3838H121.983L121.309 43.1428L121.146 42.4988L122.123 41.464L122.797 41.073Z" fill="#FFD2CD"/>
<path d="M125.308 39.5783C126.261 39.0264 126.656 39.7853 126.656 40.9122C126.656 42.177 126.214 43.3039 125.284 43.8328C124.354 44.3618 123.936 43.6488 123.936 42.499C123.936 41.3261 124.378 40.1303 125.308 39.6013V39.5783ZM125.308 43.0739C125.633 42.8899 125.819 42.315 125.796 41.3951C125.796 40.4982 125.61 40.1073 125.284 40.2912C124.982 40.4752 124.773 41.0501 124.773 41.993C124.773 42.9359 124.959 43.2579 125.284 43.0739H125.308Z" fill="#FFD2CD"/>
<path d="M128.958 37.5544V41.648L128.144 42.1079V38.8653L128.121 38.8883L127.447 39.6472L127.307 39.0033L128.26 37.9454L128.958 37.5544Z" fill="#FFD2CD"/>
<path d="M132.026 35.8066V39.9002L131.236 40.3601L131.212 37.1175L130.515 37.8764L130.375 37.2555L131.329 36.1976L132.026 35.8066Z" fill="#FFD2CD"/>
<path d="M135.095 34.0588L135.118 38.1294L134.304 38.5893L134.281 35.3697L133.584 36.1286L133.444 35.4847L134.397 34.4498L135.095 34.0588Z" fill="#FFD2CD"/>
<path d="M137.605 32.541C138.559 31.989 138.954 32.7479 138.954 33.8748C138.954 35.1397 138.512 36.2665 137.582 36.7725C136.652 37.3014 136.234 36.5885 136.234 35.4386C136.234 34.2658 136.676 33.0699 137.605 32.541ZM137.605 36.0366C137.931 35.8526 138.117 35.2776 138.094 34.3578C138.094 33.4609 137.908 33.0699 137.582 33.2769C137.28 33.4609 137.071 34.0128 137.071 34.9557C137.071 35.8986 137.257 36.2205 137.582 36.0366H137.605Z" fill="#FFD2CD"/>
<path d="M140.674 30.7932C141.627 30.2412 142.022 31.0001 142.022 32.127C142.022 33.3919 141.581 34.5187 140.674 35.0477C139.744 35.5766 139.326 34.8637 139.326 33.7138C139.326 32.541 139.767 31.3451 140.697 30.8162L140.674 30.7932ZM140.674 34.2888C140.999 34.1048 141.185 33.5298 141.162 32.61C141.162 31.7131 140.976 31.3221 140.651 31.5061C140.349 31.6901 140.139 32.242 140.139 33.2079C140.139 34.1508 140.325 34.4727 140.651 34.2888H140.674Z" fill="#FFD2CD"/>
</g>
<g opacity="0.1">
<path d="M163.131 88.3786C160.574 89.8504 160.55 92.2192 163.107 93.668C165.641 95.1398 169.779 95.1398 172.337 93.668C174.894 92.2192 174.917 89.8504 172.36 88.3786C169.826 86.9298 165.688 86.9298 163.131 88.3786Z" fill="black"/>
</g>
<g opacity="0.1">
<path d="M178.776 96.6575C176.474 97.9683 176.451 100.107 178.753 101.418C181.031 102.729 184.75 102.729 187.052 101.418C189.353 100.107 189.376 97.9683 187.075 96.6575C184.797 95.3466 181.077 95.3466 178.776 96.6575Z" fill="black"/>
</g>
<g opacity="0.1">
<path d="M192.515 103.396C190.469 104.569 190.469 106.454 192.492 107.627C194.514 108.8 197.815 108.8 199.861 107.627C201.907 106.454 201.907 104.569 199.884 103.396C197.862 102.223 194.56 102.223 192.515 103.396Z" fill="black"/>
</g>
<g opacity="0.14">
<path d="M163.154 83.572C160.597 85.0438 160.574 87.4125 163.131 88.8614C165.665 90.3102 169.803 90.3102 172.36 88.8614C174.917 87.3895 174.94 85.0208 172.383 83.572C169.849 82.1231 165.711 82.1231 163.154 83.572Z" fill="#FDCDE7"/>
</g>
<g opacity="0.29">
<path d="M163.154 78.7888C160.597 80.2606 160.574 82.6293 163.131 84.0782C165.665 85.527 169.803 85.527 172.36 84.0782C174.917 82.6063 174.94 80.2376 172.383 78.7888C169.849 77.3399 165.711 77.3399 163.154 78.7888Z" fill="#FDCDE7"/>
</g>
<g opacity="0.43">
<path d="M163.154 74.0053C160.597 75.4772 160.574 77.8459 163.131 79.2947C165.665 80.7435 169.803 80.7665 172.36 79.2947C174.917 77.8229 174.94 75.4542 172.383 74.0053C169.849 72.5565 165.711 72.5565 163.154 74.0053Z" fill="#FDCDE7"/>
</g>
<g opacity="0.57">
<path d="M163.154 69.2448C160.597 70.7167 160.574 73.0854 163.131 74.5342C165.665 75.983 169.803 76.006 172.36 74.5342C174.917 73.0624 174.94 70.6937 172.383 69.2448C169.849 67.796 165.711 67.796 163.154 69.2448Z" fill="#FDCDE7"/>
</g>
<g opacity="0.71">
<path d="M163.154 64.4614C160.597 65.9332 160.574 68.3019 163.131 69.7508C165.665 71.1996 169.803 71.2226 172.36 69.7508C174.917 68.2789 174.94 65.9102 172.383 64.4614C169.849 63.0125 165.711 63.0125 163.154 64.4614Z" fill="#FDCDE7"/>
</g>
<g opacity="0.86">
<path d="M163.154 59.6779C160.597 61.1498 160.574 63.5185 163.131 64.9673C165.665 66.4161 169.803 66.4391 172.36 64.9673C174.917 63.5185 174.94 61.1268 172.383 59.6779C169.849 58.2291 165.711 58.2291 163.154 59.6779Z" fill="#FDCDE7"/>
</g>
<path d="M163.154 54.9174C160.597 56.3893 160.574 58.758 163.131 60.2068C165.665 61.6557 169.803 61.6786 172.36 60.2068C174.917 58.758 174.94 56.3663 172.383 54.9174C169.849 53.4686 165.711 53.4686 163.154 54.9174Z" fill="#FDCDE7"/>
<path d="M163.178 54.9174C160.62 56.3663 160.62 58.735 163.154 60.1838C165.688 61.6327 169.803 61.6327 172.36 60.1838C174.917 58.735 174.917 56.3663 172.383 54.9174C169.85 53.4686 165.735 53.4686 163.178 54.9174Z" fill="#F7BADF"/>
<g opacity="0.14">
<path d="M192.515 101.234C190.469 102.407 190.469 104.293 192.515 105.465C194.537 106.638 197.838 106.638 199.884 105.465C201.93 104.293 201.93 102.407 199.907 101.234C197.885 100.061 194.584 100.061 192.538 101.234H192.515Z" fill="#FFDF75"/>
</g>
<g opacity="0.29">
<path d="M192.515 99.0723C190.469 100.245 190.469 102.131 192.515 103.304C194.537 104.477 197.838 104.477 199.884 103.304C201.93 102.131 201.93 100.245 199.907 99.0723C197.885 97.8994 194.584 97.8994 192.538 99.0723H192.515Z" fill="#FFDF75"/>
</g>
<g opacity="0.43">
<path d="M192.515 96.9104C190.469 98.0833 190.469 99.9691 192.515 101.142C194.537 102.315 197.838 102.315 199.884 101.142C201.93 99.9691 201.93 98.0833 199.907 96.9104C197.885 95.7375 194.584 95.7375 192.538 96.9104H192.515Z" fill="#FFDF75"/>
</g>
<g opacity="0.57">
<path d="M192.515 94.7488C190.469 95.9217 190.469 97.8074 192.515 98.9573C194.537 100.13 197.838 100.13 199.884 98.9573C201.93 97.7844 201.93 95.8987 199.907 94.7488C197.885 93.5759 194.584 93.5759 192.538 94.7488H192.515Z" fill="#FFDF75"/>
</g>
<g opacity="0.71">
<path d="M192.515 92.5869C190.469 93.7598 190.469 95.6456 192.515 96.7954C194.537 97.9683 197.838 97.9683 199.884 96.7954C201.93 95.6226 201.93 93.7368 199.907 92.5869C197.885 91.4141 194.584 91.4141 192.538 92.5869H192.515Z" fill="#FFDF75"/>
</g>
<g opacity="0.86">
<path d="M192.515 90.4253C190.469 91.5982 190.469 93.4839 192.515 94.6338C194.537 95.8067 197.838 95.8067 199.884 94.6338C201.93 93.4609 201.93 91.5752 199.907 90.4253C197.885 89.2524 194.584 89.2524 192.538 90.4253H192.515Z" fill="#FFDF75"/>
</g>
<path d="M192.515 88.2634C190.469 89.4363 190.469 91.3221 192.515 92.4719C194.537 93.6448 197.838 93.6448 199.884 92.4719C201.93 91.2991 201.93 89.4133 199.907 88.2634C197.885 87.0906 194.584 87.0906 192.538 88.2634H192.515Z" fill="#FFDF75"/>
<path d="M192.515 88.2634C190.469 89.4363 190.469 91.3221 192.515 92.4719C194.537 93.6448 197.838 93.6448 199.884 92.4719C201.93 91.2991 201.93 89.4133 199.907 88.2634C197.885 87.0906 194.584 87.0906 192.538 88.2634H192.515Z" fill="#F5E981"/>
<g opacity="0.14">
<path d="M178.799 93.553C176.498 94.8638 176.498 97.0026 178.776 98.3134C181.054 99.6243 184.774 99.6243 187.075 98.3134C189.377 97.0026 189.377 94.8638 187.099 93.553C184.82 92.2421 181.101 92.2421 178.799 93.553Z" fill="#A2F8F7"/>
</g>
<g opacity="0.29">
<path d="M178.799 90.1033C176.498 91.4141 176.498 93.5528 178.776 94.8637C181.054 96.1745 184.774 96.1745 187.075 94.8637C189.377 93.5528 189.377 91.4141 187.099 90.1033C184.82 88.7924 181.101 88.7924 178.799 90.1033Z" fill="#A2F8F7"/>
</g>
<g opacity="0.43">
<path d="M178.799 86.6308C176.498 87.9417 176.498 90.0804 178.776 91.3913C181.054 92.7021 184.774 92.7021 187.075 91.3913C189.377 90.0804 189.377 87.9417 187.099 86.6308C184.82 85.32 181.101 85.32 178.799 86.6308Z" fill="#A2F8F7"/>
</g>
<g opacity="0.57">
<path d="M178.799 83.1811C176.498 84.492 176.498 86.6307 178.776 87.9416C181.054 89.2524 184.774 89.2524 187.075 87.9416C189.377 86.6307 189.377 84.492 187.099 83.1811C184.82 81.8703 181.101 81.8703 178.799 83.1811Z" fill="#A2F8F7"/>
</g>
<g opacity="0.71">
<path d="M178.799 79.7085C176.498 81.0193 176.498 83.1581 178.776 84.4689C181.054 85.7798 184.774 85.7798 187.075 84.4689C189.377 83.1581 189.377 81.0193 187.099 79.7085C184.82 78.3976 181.101 78.3976 178.799 79.7085Z" fill="#A2F8F7"/>
</g>
<g opacity="0.86">
<path d="M178.799 76.2361C176.498 77.5469 176.498 79.6857 178.776 80.9965C181.054 82.3074 184.774 82.3074 187.075 80.9965C189.377 79.6857 189.377 77.5469 187.099 76.2361C184.82 74.9252 181.101 74.9252 178.799 76.2361Z" fill="#A2F8F7"/>
</g>
<path d="M178.799 72.7864C176.498 74.0972 176.498 76.236 178.776 77.5468C181.054 78.8576 184.774 78.8576 187.075 77.5468C189.377 76.236 189.377 74.0972 187.099 72.7864C184.82 71.4755 181.101 71.4755 178.799 72.7864Z" fill="#A2F8F7"/>
<path d="M178.799 72.7864C176.498 74.0972 176.498 76.236 178.776 77.5468C181.054 78.8576 184.774 78.8576 187.075 77.5468C189.377 76.236 189.377 74.0972 187.099 72.7864C184.82 71.4755 181.101 71.4755 178.799 72.7864Z" fill="#A2F8F7"/>
<path d="M178.776 72.6714C176.474 73.9822 176.474 76.121 178.753 77.4318C181.031 78.7427 184.75 78.7427 187.052 77.4318C189.353 76.121 189.353 73.9822 187.075 72.6714C184.797 71.3605 181.077 71.3605 178.776 72.6714Z" fill="#7EEDEA"/>
<path d="M83.6493 117.378L82.301 116.596L82.208 83.595L83.5563 84.3769L83.6493 117.378Z" fill="url(#paint2_linear_249_909)"/>
<path d="M149.182 75.6149C149.182 75.6149 149.182 75.6149 149.136 75.6149C149.02 75.5459 148.903 75.4999 148.764 75.4309C148.741 75.4309 148.694 75.4079 148.671 75.3849C148.625 75.3849 148.578 75.3389 148.508 75.3389C148.439 75.3389 148.392 75.2929 148.322 75.2699C148.229 75.2469 148.113 75.2239 147.997 75.2009C147.95 75.2009 147.904 75.1779 147.834 75.1549C147.811 75.1549 147.788 75.1549 147.764 75.1549C147.555 75.1089 147.323 75.0859 147.067 75.0859H147.02C147.02 75.0859 146.811 75.0859 146.718 75.0859C146.532 75.0859 146.346 75.0859 146.137 75.0859C146.114 75.0859 146.067 75.0859 146.021 75.0859C145.788 75.0859 145.556 75.1319 145.3 75.1549C145.137 75.1549 145.021 75.1549 144.859 75.2009C144.835 75.2009 144.789 75.2009 144.742 75.2009C144.649 75.2009 144.556 75.2469 144.463 75.2469C144.138 75.3159 143.766 75.3849 143.394 75.4769C143.278 75.4999 143.161 75.5229 143.045 75.5689C142.952 75.5689 142.883 75.6149 142.79 75.6379C142.511 75.7069 142.208 75.8219 141.929 75.8908C141.743 75.9368 141.581 75.9828 141.395 76.0518C140.814 76.2358 140.232 76.4428 139.581 76.6958C138.931 76.9487 138.303 77.2017 137.698 77.4317C136.49 77.9146 135.374 78.3516 134.351 78.7425C134.281 78.7655 134.235 78.7885 134.165 78.8115C133.746 78.9725 133.328 79.1335 132.933 79.2944C132.747 79.3634 132.584 79.4324 132.421 79.4784C132.142 79.5704 131.887 79.6854 131.631 79.7774C131.445 79.8464 131.259 79.9154 131.073 79.9844C130.864 80.0534 130.631 80.1453 130.422 80.2143C130.236 80.2833 130.05 80.3293 129.864 80.3983C129.678 80.4673 129.469 80.5363 129.283 80.5823C129.097 80.6283 128.934 80.6973 128.772 80.7433C128.586 80.7893 128.4 80.8583 128.214 80.9043C128.167 80.9043 128.121 80.9273 128.051 80.9503C127.377 81.1342 126.749 81.2722 126.121 81.3642C126.052 81.3642 125.982 81.3642 125.912 81.3872C125.471 81.4562 125.006 81.5022 124.564 81.5252C124.517 81.5252 124.471 81.5252 124.424 81.5252C123.959 81.5252 123.471 81.5252 122.983 81.5252C122.89 81.5252 122.797 81.5252 122.727 81.5252C122.1 81.4792 121.449 81.4102 120.775 81.2952C120.589 81.2722 120.426 81.2492 120.263 81.2032C119.798 81.1112 119.357 80.9962 118.915 80.8813C118.799 80.8583 118.706 80.8123 118.613 80.7893C118.217 80.6743 117.845 80.5593 117.474 80.4213C117.45 80.4213 117.427 80.4213 117.404 80.3983C116.985 80.2373 116.567 80.0764 116.148 79.9154C115.777 79.7774 115.428 79.6394 115.056 79.5014C114.986 79.4784 114.893 79.4554 114.823 79.4094C114.451 79.2715 114.079 79.1565 113.708 79.0415C113.661 79.0415 113.615 79.0185 113.568 78.9955C113.522 78.9955 113.475 78.9955 113.429 78.9495C113.126 78.8575 112.801 78.7885 112.475 78.7195C112.406 78.7195 112.359 78.6965 112.289 78.6735C112.266 78.6735 112.243 78.6735 112.22 78.6735C111.987 78.6275 111.755 78.6045 111.546 78.6045C111.453 78.6045 111.36 78.5815 111.29 78.5815C111.29 78.5815 111.29 78.5815 111.243 78.5815C111.081 78.5815 110.918 78.5815 110.732 78.5815C110.592 78.5815 110.453 78.5815 110.29 78.5815C110.29 78.5815 110.267 78.5815 110.244 78.5815C110.104 78.5815 109.942 78.6045 109.779 78.6275C109.593 78.6275 109.43 78.6505 109.267 78.6735C109.267 78.6735 109.244 78.6735 109.221 78.6735C108.919 78.7195 108.616 78.7885 108.314 78.8575C108.244 78.8575 108.175 78.8805 108.082 78.9035C107.617 79.0185 107.129 79.2025 106.617 79.4094C106.571 79.4094 106.524 79.4324 106.454 79.4554C106.268 79.5244 106.059 79.6394 105.873 79.7084C105.734 79.7774 105.618 79.8234 105.478 79.8924C105.06 80.0994 104.641 80.3063 104.176 80.5823C103.479 80.9962 102.735 81.4562 101.921 82.0081C101.456 82.3301 101.015 82.6061 100.596 82.836C100.085 83.112 99.6198 83.342 99.1549 83.549C98.7364 83.7329 98.318 83.8479 97.946 83.9399C97.8763 83.9399 97.8066 83.9629 97.7136 83.9859C97.4114 84.0549 97.1092 84.1009 96.8302 84.1239C96.7604 84.1239 96.6907 84.1239 96.621 84.1239C96.2955 84.1239 95.9933 84.1239 95.6911 84.1239C95.6213 84.1239 95.5284 84.1239 95.4586 84.1009C95.2261 84.0779 95.0169 84.0319 94.8077 83.9859C94.6915 83.9629 94.5752 83.9399 94.4822 83.9169C94.3428 83.8709 94.2033 83.8249 94.0638 83.7789C93.8081 83.7099 93.5756 83.6179 93.3431 83.526C93.2269 83.48 93.1107 83.434 92.9944 83.388C92.6225 83.227 92.2738 83.066 91.9018 82.905C91.5531 82.744 91.2044 82.5831 90.8557 82.4221C90.786 82.3991 90.7395 82.3761 90.693 82.3531C90.6465 82.3301 90.5767 82.3071 90.507 82.2841C90.2745 82.1921 90.0421 82.1001 89.7863 82.0311C89.6934 82.0081 89.6236 81.9621 89.5306 81.9391C89.4609 81.9391 89.3911 81.9161 89.3214 81.8931C89.2052 81.8701 89.0889 81.8471 88.9727 81.8012C88.8797 81.8012 88.81 81.7552 88.717 81.7322C88.5775 81.7092 88.438 81.6862 88.2753 81.6862C88.2055 81.6862 88.1358 81.6862 88.0661 81.6632C88.0428 81.6632 87.9963 81.6632 87.9731 81.6632C87.7406 81.6632 87.5081 81.6632 87.2757 81.6632C87.2292 81.6632 87.1594 81.6632 87.1129 81.6632C87.0432 81.6632 86.9502 81.6632 86.8805 81.6632C86.7642 81.6632 86.648 81.6632 86.5318 81.6862C86.3458 81.7092 86.1598 81.7552 85.9738 81.8012C85.9041 81.8012 85.8344 81.8242 85.7646 81.8471C85.7414 81.8471 85.7181 81.8471 85.6949 81.8471C85.3229 81.9391 84.951 82.0771 84.5558 82.2381C84.0908 82.4221 83.5794 82.6751 83.068 82.974C82.789 83.135 82.4868 83.319 82.1846 83.503L83.5329 84.2849C83.8351 84.0779 84.1373 83.9169 84.4163 83.7559C84.9277 83.457 85.4392 83.227 85.9041 83.02C86.3458 82.836 86.7642 82.6981 87.1594 82.6061C87.2292 82.6061 87.2989 82.5831 87.3687 82.5601C87.6941 82.4911 87.9963 82.4451 88.2753 82.3991C88.345 82.3991 88.438 82.3991 88.5078 82.3991C88.8332 82.3761 89.1587 82.3761 89.4609 82.3991C89.5306 82.3991 89.6004 82.3991 89.6469 82.4221C89.8793 82.4451 90.1118 82.4911 90.3443 82.5371C90.4605 82.5601 90.5767 82.5831 90.693 82.6061C90.8325 82.6521 90.9952 82.698 91.1347 82.744C91.3904 82.813 91.6229 82.905 91.8786 82.997C91.9948 83.043 92.111 83.089 92.204 83.135C92.5527 83.296 92.9014 83.457 93.2734 83.6179C93.6221 83.7789 93.9941 83.9399 94.3428 84.1009C94.4125 84.1239 94.4822 84.1699 94.552 84.1929C94.5985 84.1929 94.6682 84.2389 94.7147 84.2389C94.9472 84.3309 95.1796 84.4228 95.4121 84.4918C95.5051 84.5148 95.5981 84.5608 95.6911 84.5838C95.7376 84.5838 95.8073 84.6068 95.8538 84.6298C95.97 84.6528 96.063 84.6758 96.1793 84.6988C96.2723 84.7218 96.3885 84.7448 96.4815 84.7678C96.5977 84.7678 96.714 84.7908 96.8302 84.8138C96.8999 84.8138 96.9697 84.8138 97.0627 84.8368C97.1092 84.8368 97.1556 84.8368 97.2021 84.8368C97.4346 84.8368 97.6438 84.8368 97.8763 84.8368C97.9228 84.8368 97.946 84.8368 97.9925 84.8368C98.0623 84.8368 98.132 84.8368 98.1785 84.8368C98.318 84.8368 98.4342 84.8368 98.5737 84.7908C98.7364 84.7678 98.8992 84.7218 99.0619 84.6988C99.1316 84.6988 99.2014 84.6758 99.2944 84.6528C99.3409 84.6528 99.3641 84.6528 99.4106 84.6528C99.7593 84.5608 100.131 84.4458 100.503 84.2849C100.945 84.1009 101.433 83.8709 101.945 83.5719C102.363 83.342 102.805 83.043 103.27 82.744C104.06 82.1921 104.804 81.7092 105.525 81.3182C105.966 81.0652 106.408 80.8353 106.826 80.6283C106.943 80.5593 107.059 80.5133 107.175 80.4673C107.454 80.3523 107.71 80.2373 107.966 80.1224C108.477 79.9154 108.942 79.7544 109.407 79.6394C109.5 79.6164 109.593 79.5934 109.686 79.5704C109.988 79.5014 110.29 79.4324 110.569 79.3864C110.778 79.3634 110.964 79.3404 111.15 79.3174C111.29 79.3174 111.453 79.2714 111.592 79.2714C111.755 79.2714 111.917 79.2714 112.08 79.2714C112.243 79.2714 112.429 79.2714 112.592 79.2714C112.685 79.2714 112.801 79.2714 112.894 79.2944C113.126 79.2944 113.359 79.3404 113.591 79.3864C113.684 79.3864 113.777 79.4324 113.847 79.4324C114.172 79.5014 114.475 79.5704 114.8 79.6624C114.893 79.6854 114.986 79.7084 115.102 79.7544C115.474 79.8694 115.846 79.9844 116.195 80.1224C116.288 80.1453 116.381 80.1913 116.474 80.2143C116.799 80.3293 117.125 80.4673 117.474 80.6053C117.915 80.7663 118.357 80.9503 118.799 81.1112C118.799 81.1112 118.822 81.1112 118.845 81.1112C119.217 81.2492 119.612 81.3642 120.007 81.5022C120.077 81.5022 120.124 81.5482 120.193 81.5482C120.24 81.5482 120.286 81.5482 120.333 81.5712C120.775 81.6862 121.216 81.8012 121.681 81.8931C121.821 81.9161 121.96 81.9391 122.076 81.9621C122.123 81.9621 122.146 81.9621 122.193 81.9621C122.89 82.0771 123.518 82.1461 124.145 82.1921C124.192 82.1921 124.215 82.1921 124.262 82.1921C124.308 82.1921 124.355 82.1921 124.401 82.1921C124.889 82.2151 125.378 82.2381 125.866 82.1921C125.866 82.1921 125.866 82.1921 125.889 82.1921C125.889 82.1921 125.935 82.1921 125.959 82.1921C126.424 82.1921 126.889 82.1231 127.354 82.0541C127.4 82.0541 127.447 82.0541 127.493 82.0541C127.493 82.0541 127.539 82.0541 127.563 82.0541C128.19 81.9621 128.818 81.8242 129.492 81.6402C129.515 81.6402 129.539 81.6402 129.585 81.6402C129.608 81.6402 129.632 81.6402 129.655 81.6172C129.818 81.5712 129.98 81.5252 130.143 81.4792C130.329 81.4102 130.538 81.3642 130.724 81.2952C130.887 81.2492 131.05 81.1802 131.213 81.1342C131.422 81.0652 131.631 80.9963 131.863 80.9273C132.026 80.8813 132.189 80.8123 132.328 80.7663C132.584 80.6743 132.817 80.5823 133.072 80.4903C133.212 80.4443 133.374 80.3753 133.514 80.3293C133.793 80.2143 134.095 80.1223 134.397 80.0074C134.537 79.9614 134.7 79.8924 134.839 79.8234C135.165 79.7084 135.49 79.5704 135.839 79.4324C135.885 79.4324 135.932 79.3864 136.001 79.3634C137.466 78.7885 139.117 78.1216 141.023 77.3857C141.674 77.1327 142.278 76.9257 142.836 76.7417C143.022 76.6728 143.185 76.6268 143.371 76.5808C143.743 76.4658 144.138 76.3508 144.487 76.2588C144.603 76.2358 144.719 76.2128 144.835 76.1668C145.207 76.0748 145.579 76.0058 145.928 75.9368C145.998 75.9368 146.091 75.9138 146.16 75.8908C146.37 75.8448 146.579 75.8448 146.765 75.8219C146.997 75.7989 147.23 75.7759 147.439 75.7529C147.695 75.7529 147.927 75.7529 148.16 75.7529C148.253 75.7529 148.322 75.7529 148.415 75.7529C148.718 75.7529 148.973 75.7989 149.229 75.8448C149.275 75.8448 149.322 75.8448 149.368 75.8678C149.554 75.9138 149.74 75.9598 149.903 76.0058C149.95 76.0058 149.996 76.0288 150.043 76.0518C150.229 76.1208 150.415 76.2128 150.554 76.2818L149.206 75.4999L149.182 75.6149Z" fill="url(#paint3_linear_249_909)"/>
<g opacity="0.4">
<path d="M84.4395 83.825C88.5543 81.4793 90.9487 82.5831 93.2966 83.687C95.6446 84.7909 97.9693 85.8948 101.968 83.618C102.386 83.3881 102.828 83.0891 103.293 82.7901C104.083 82.2382 104.827 81.7552 105.548 81.3643C113.266 76.9488 116.055 80.9273 121.658 81.9622C127.795 83.1121 130.492 81.5713 141.023 77.4777C151.554 73.4072 151.879 78.1677 151.902 78.4206L83.6491 117.378L83.5562 84.3769C83.8584 84.17 84.1606 84.009 84.4395 83.848V83.825Z" fill="url(#paint4_linear_249_909)"/>
</g>
<path d="M81.8359 63.9324C81.8359 63.9324 81.9754 63.8634 82.0452 63.8174C82.3241 63.6334 82.4869 63.4034 82.4869 62.9665V59.7239L82.9053 59.4939V62.6905C82.9053 63.4954 82.5566 63.9324 82.1149 64.2083C82.0219 64.2543 81.9522 64.3233 81.8592 64.3463V63.9094L81.8359 63.9324Z" fill="#E9F0F4"/>
<path d="M83.7188 62.4375L83.5793 63.3804L83.1841 63.5874L83.9047 58.9189L84.5092 58.574L85.2298 62.4145L84.8114 62.6445L84.6719 61.8626L83.742 62.3915L83.7188 62.4375ZM83.7653 62.0006L84.6021 61.5176L84.1837 59.3099L83.7653 62.0006Z" fill="#E9F0F4"/>
<path d="M85.7414 57.884L86.3458 61.2416L86.9502 57.194L87.3454 56.9871L86.648 61.6325L86.0436 61.9775L85.3462 58.1369L85.7646 57.907L85.7414 57.884Z" fill="#E9F0F4"/>
<path d="M87.9265 60.0227L87.787 60.9656L87.415 61.1726L88.1357 56.5041L88.7401 56.1592L89.4608 59.9997L89.0423 60.2297L88.9028 59.4478L87.9497 59.9767L87.9265 60.0227ZM87.973 59.5858L88.8099 59.1028L88.3914 56.8951L87.973 59.5858Z" fill="#E9F0F4"/>
<path d="M91.3673 55.6993V55.8143L90.9721 56.0443V55.9063C90.9721 55.5154 90.8559 55.3774 90.5537 55.5384C90.2515 55.6993 90.1352 55.9983 90.1352 56.3893C90.1352 57.3321 91.3906 56.7112 91.3906 57.9071C91.3906 58.551 91.1116 59.1259 90.5537 59.4479C89.9725 59.7699 89.7168 59.4939 89.7168 58.873V58.62L90.112 58.39V58.666C90.112 59.0569 90.2515 59.1949 90.5537 59.0339C90.8559 58.873 90.9954 58.551 90.9954 58.183C90.9954 57.2402 89.74 57.8611 89.74 56.6652C89.74 55.9983 89.9958 55.4464 90.5537 55.1244C91.1116 54.8024 91.3906 55.0784 91.3906 55.7223L91.3673 55.6993Z" fill="#E9F0F4"/>
<path d="M93.3896 54.5495V54.9404L92.9944 55.1704V54.7565C92.9944 54.3655 92.8549 54.2275 92.5527 54.3885C92.2505 54.5495 92.111 54.8714 92.111 55.2624V57.5161C92.111 57.9071 92.2505 58.0451 92.5527 57.8841C92.8549 57.7001 92.9944 57.4011 92.9944 57.0102V56.4583L93.3896 56.2283V56.7572C93.3896 57.4012 93.1339 57.9761 92.5527 58.298C91.9948 58.62 91.7158 58.344 91.7158 57.7001V55.4924C91.7158 54.8484 91.9715 54.2735 92.5527 53.9516C93.1339 53.6296 93.3896 53.9056 93.3896 54.5495Z" fill="#E9F0F4"/>
<path d="M94.5752 52.8478C95.1563 52.5028 95.4121 52.7098 95.4121 53.3537V53.6987C95.4121 54.1586 95.2726 54.5496 94.9471 54.8485C95.2958 54.7795 95.4121 55.0095 95.4121 55.4695V56.1364C95.4121 56.3204 95.4121 56.5043 95.4818 56.5963L95.0634 56.8263C95.0634 56.8263 94.9936 56.6423 94.9936 56.3434V55.6764C94.9936 55.1935 94.8076 55.1475 94.4589 55.3545L94.1567 55.5155V57.3322L93.7383 57.5622V53.3077L94.5752 52.8248V52.8478ZM94.4589 54.9175C94.7844 54.7335 94.9936 54.5036 94.9936 54.0436V53.6297C94.9936 53.2387 94.8774 53.1237 94.5519 53.2847L94.1567 53.5147V55.0785L94.4589 54.8945V54.9175Z" fill="#E9F0F4"/>
<path d="M96.2724 51.8818V56.1363L95.854 56.3663V52.1118L96.2724 51.8818Z" fill="#E9F0F4"/>
<path d="M97.5046 51.1688C98.0857 50.8238 98.3415 51.0768 98.3415 51.7207V52.2267C98.3415 52.8936 98.0625 53.3995 97.4813 53.7445L97.1094 53.9515V55.6303L96.6909 55.8603V51.6058L97.5046 51.1458V51.1688ZM97.4813 53.3306C97.7835 53.1466 97.9463 52.8936 97.9463 52.5026V51.9277C97.9463 51.5368 97.83 51.4218 97.5278 51.5828L97.1326 51.8127V53.5375L97.5046 53.3306H97.4813Z" fill="#E9F0F4"/>
<path d="M99.2013 54.4575V50.6399L98.5039 51.0309V50.5939L100.294 49.582V50.019L99.6198 50.4099V54.2275L99.2013 54.4575Z" fill="#E9F0F4"/>
<path opacity="0.5" d="M102.456 53.8825L78.6045 67.5199V60.0458L102.456 46.4314V53.8825Z" fill="url(#paint5_linear_249_909)"/>
<path d="M103.967 37.1865C103.967 37.1865 104.106 37.1175 104.176 37.0715C104.455 36.8876 104.618 36.6576 104.618 36.2206V32.978L105.036 32.748V35.9447C105.036 36.7496 104.687 37.1865 104.246 37.4625C104.153 37.5085 104.083 37.5775 103.99 37.6005V37.1635L103.967 37.1865Z" fill="#E9F0F4"/>
<path d="M105.85 35.6916L105.71 36.6345L105.315 36.8645L106.036 32.196L106.64 31.8511L107.361 35.6916L106.942 35.9216L106.803 35.1397L105.873 35.6686L105.85 35.6916ZM105.896 35.2547L106.733 34.7717L106.315 32.564L105.896 35.2547Z" fill="#E9F0F4"/>
<path d="M107.849 31.1381L108.454 34.4957L109.058 30.4482L109.43 30.2412L108.732 34.8867L108.128 35.2316L107.431 31.3911L107.849 31.1611V31.1381Z" fill="#E9F0F4"/>
<path d="M110.034 33.2769L109.895 34.2198L109.523 34.4267L110.244 29.7583L110.848 29.4133L111.569 33.2539L111.15 33.4839L111.011 32.7019L110.058 33.2309L110.034 33.2769ZM110.081 32.8399L110.918 32.357L110.499 30.1492L110.081 32.8399Z" fill="#E9F0F4"/>
<path opacity="0.5" d="M114.312 25.7798L101.363 33.1849V40.6361L114.312 33.2539V25.7798Z" fill="url(#paint6_linear_249_909)"/>
<path d="M86.4853 44.9364V45.3274L86.0901 45.5574V45.1434C86.0901 44.7525 85.9506 44.6145 85.6484 44.7755C85.3462 44.9364 85.2067 45.2584 85.2067 45.6494V47.9031C85.2067 48.2941 85.3462 48.432 85.6484 48.2711C85.9506 48.0871 86.0901 47.7881 86.0901 47.3972V46.8452L86.4853 46.6152V47.1442C86.4853 47.7881 86.2296 48.363 85.6484 48.685C85.0672 49.007 84.8115 48.731 84.8115 48.0871V45.8793C84.8115 45.2354 85.0672 44.6605 85.6484 44.3385C86.2296 44.0166 86.4853 44.2925 86.4853 44.9364Z" fill="#E9F0F4"/>
<path d="M87.8567 45.4195V46.2704L87.5545 46.4314V45.5805L86.8105 45.9944V45.6495L87.5545 45.2355V44.3846L87.8567 44.2236V45.0745L88.6006 44.6606V45.0055L87.8567 45.4195Z" fill="#E9F0F4"/>
<path d="M89.926 44.2466V45.0975L89.6238 45.2585V44.4076L88.8799 44.8216V44.4766L89.6238 44.0627V43.2118L89.926 43.0508V43.9017L90.6699 43.4877V43.8327L89.926 44.2466Z" fill="#E9F0F4"/>
<path opacity="0.5" d="M94.3426 37.8994L81.394 45.2816V52.7557L94.3426 45.3735V37.8994Z" fill="url(#paint7_linear_249_909)"/>
<path d="M128.981 64.3002C128.981 64.3002 127.307 62.6674 126.191 62.5754C125.075 62.4834 123.448 62.7594 123.913 63.2653C124.378 63.7713 126.005 64.1622 125.936 64.6222C125.889 65.0591 124.913 64.6681 125.308 65.0361C125.703 65.4271 126.586 65.795 128.562 65.4501C128.562 65.4501 129.213 65.1051 128.958 64.3232L128.981 64.3002Z" fill="#EFB185"/>
<path d="M143.162 61.0806C143.162 61.0806 144.928 61.2876 144.045 62.9894C144.045 62.9894 142.65 65.1052 139.14 67.4509C139.14 67.4509 135.769 69.7966 134.816 69.5207C133.863 69.2447 127.656 65.8411 127.656 65.8411C127.656 65.8411 128.516 65.1282 128.702 63.8173C128.702 63.8173 134.537 66.0481 135.165 65.8411C135.792 65.6341 141.79 60.7817 143.185 61.0806H143.162Z" fill="#FF61CB"/>
<path d="M134.816 69.5207C134.072 69.2907 129.33 66.738 127.656 65.8411C127.865 65.7032 128.051 65.4042 128.051 65.4042C128.051 65.4042 134.444 67.7959 135.072 67.5659C135.699 67.359 141.697 62.5065 143.092 62.8055C143.092 62.8055 143.603 62.8745 143.929 63.1735C143.487 63.7484 142.046 65.5192 139.163 67.428C139.163 67.428 135.792 69.7737 134.839 69.4977L134.816 69.5207Z" fill="#EA49BD"/>
<path d="M149.577 54.1124C154.273 53.0085 154.947 62.1615 151.367 64.8521C150.74 65.3121 148.833 64.8981 148.694 64.2082C148.136 61.4026 152.274 58.4819 150.158 55.8142C150.158 55.8142 149.903 55.6072 149.763 55.4232C149.415 54.9633 148.438 54.4804 149.577 54.0894V54.1124Z" fill="#2B0D04"/>
<g opacity="0.1">
<path d="M154.994 106.04C159.178 108.432 159.202 112.296 155.041 114.687C150.879 117.079 144.138 117.079 139.953 114.687C135.769 112.296 135.746 108.432 139.907 106.04C144.068 103.649 150.81 103.649 154.994 106.04Z" fill="black"/>
</g>
<path d="M142.673 104.799C142.673 104.799 142.534 106.132 141.929 106.822C141.325 107.535 138.628 109.122 138.814 109.858C139 110.594 140.93 110.686 142.162 109.49C143.394 108.294 143.719 108.11 144.231 108.018C144.742 107.926 145.486 107.282 144.975 106.155C144.975 106.155 143.324 105.672 142.673 104.799Z" fill="black"/>
<path d="M142.022 74.856C142.022 74.856 139.791 85.6877 141.023 91.69C141.023 91.69 141.581 96.4274 141.86 97.7383C142.139 99.0491 142.092 106.132 142.092 106.132C142.092 106.132 144.115 106.983 145.114 106.063C145.114 106.063 146.416 98.7732 144.998 94.1277C144.998 94.1277 146.672 85.2507 146.718 82.3531C146.765 79.4554 147.114 76.9717 147.114 76.9717L142.046 74.879L142.022 74.856Z" fill="#5FB9E6"/>
<path d="M140.999 91.7129C140.999 91.7129 141.557 96.4504 141.836 97.7612C142.115 99.0721 142.069 106.155 142.069 106.155C142.069 106.155 142.394 106.293 142.859 106.385C142.999 104.269 143.278 100.59 143.394 99.762C143.557 98.5661 142.208 92.0809 142.092 89.6892C141.976 87.2745 144.672 78.2595 144.672 78.2595L143.929 75.6838L141.999 74.8789C141.999 74.8789 139.767 85.7106 140.999 91.7129Z" fill="#77D2FF"/>
<path d="M148.787 107.512C148.787 107.512 148.694 108.846 148.113 109.559C147.532 110.272 144.859 111.951 145.068 112.687C145.277 113.423 147.207 113.446 148.392 112.227C149.601 111.008 149.903 110.801 150.438 110.686C150.949 110.571 151.67 109.927 151.135 108.8C151.135 108.8 149.485 108.363 148.811 107.512H148.787Z" fill="black"/>
<path d="M151.112 78.4207C151.112 78.4207 153.274 81.4793 152.228 87.7116L151.763 95.1627C151.763 95.1627 153.181 97.5544 152.158 104.799L151.181 109.168C151.181 109.168 149.973 110.065 148.601 108.248C148.601 108.248 148.694 97.5314 148.183 95.8756C147.811 94.6798 146.114 89.6203 145.439 84.7679C145.184 82.9971 142.417 80.0535 142.557 78.5126L151.089 78.4207H151.112Z" fill="#77D2FF"/>
<path d="M151.182 109.168L152.158 104.799C153.181 97.5544 151.763 95.1627 151.763 95.1627L152.228 87.7116C153.274 81.4793 151.112 78.4207 151.112 78.4207H150.856L148.485 79.9385C148.485 79.9385 150.833 91.7361 150.647 94.7487C150.484 97.7384 151.321 101.257 151.228 103.12C151.158 104.316 150.624 107.351 150.228 109.375C150.786 109.444 151.158 109.168 151.158 109.168H151.182Z" fill="#5FB9E6"/>
<path d="M152.553 65.2203C153.134 66.9451 151.321 66.5541 150.461 69.9577C149.578 73.3613 150.996 76.558 151.461 78.4208C151.926 80.2835 150.786 80.7205 150.252 80.7665C149.531 80.8355 148.671 80.9275 147.927 80.8585C149.461 77.5469 147.276 71.4066 147.183 68.095C147.09 64.5764 150.298 63.1965 150.298 63.1965C151.995 64.2544 152.553 65.2203 152.553 65.2203Z" fill="#779F29"/>
<path d="M152.553 65.3583C152.553 65.3583 150.647 61.7937 142.813 60.8968C142.813 60.8968 141.581 60.3908 141.697 64.3694C141.697 64.9443 141.116 65.9332 140.697 66.4391C140.279 66.9681 139.21 68.9458 141.581 71.3376C141.581 71.3376 142.511 74.8791 141.395 77.1789C140.418 79.2256 145.533 81.2264 149.903 80.8125C150.438 80.7665 151.926 80.2605 151.461 78.3977C150.996 76.558 149.601 73.4763 150.461 70.0727C151.344 66.6691 153.158 67.0601 152.553 65.3353V65.3583Z" fill="#FF61CB"/>
<path d="M143.417 59.2409C143.417 59.2409 144.672 60.9657 143.882 62.6445C143.673 63.1044 143.068 65.0132 146.114 64.4613C146.114 64.4613 149.345 63.1504 148.485 62.1385C147.904 61.4716 147.392 60.5287 148.555 57.4241L143.417 59.2409Z" fill="#E8A476"/>
<path d="M148.508 62.1384C148.508 62.1384 148.648 62.3454 148.648 62.4604C145.765 62.8054 143.952 60.6666 143.952 60.6666L147.904 57.7C147.904 57.7 148.09 57.8379 148.345 58.0679C147.508 60.6436 147.997 61.5175 148.508 62.1154V62.1384Z" fill="#DB9669"/>
<path d="M144.37 53.6525C144.37 53.6525 143.557 53.8595 143.348 56.2282C143.324 56.4812 142.859 56.8031 142.72 57.4471C142.557 58.091 142.208 60.7127 143.719 61.1036C144.812 61.3796 147.625 60.8967 148.741 58.321C149.857 55.7453 147.857 52.1807 144.37 53.6525Z" fill="#F1B287"/>
<path d="M147.322 58.6659C147.322 58.6659 147.834 57.401 148.578 57.861C148.81 57.9989 149.043 58.2979 148.624 58.9418C148.206 59.5857 147.415 60.1377 146.811 60.0227L147.322 58.6889V58.6659Z" fill="#F1B287"/>
<path d="M149.577 54.1125C150.158 53.9745 150.693 53.9975 151.135 54.1355C151.553 55.2393 151.251 56.0673 150.693 56.9182C150.6 56.5502 150.437 56.1822 150.158 55.8373C150.158 55.8373 149.903 55.6303 149.763 55.4463C149.415 54.9864 148.438 54.5034 149.577 54.1125Z" fill="#EFF3FC"/>
<path d="M144.533 52.5947C145.672 51.6288 147.067 51.8358 148.415 52.2727C149.578 52.6407 150.717 53.8595 150.74 54.9864C150.786 56.5502 150.252 58.597 148.392 59.5169C147.695 59.8618 148.88 58.183 147.974 58.114C147.671 58.091 147.602 57.6081 147.369 57.5161C147.206 57.5851 146.044 56.9642 144.789 56.5272C144.696 56.5042 144.579 55.7453 144.486 55.6993C144.37 55.6533 144.277 56.3432 144.161 56.2972C143.487 56.0673 143.045 55.7453 143.045 55.7453C142.766 54.5954 143.719 53.2386 144.533 52.5487V52.5947Z" fill="#2B0D04"/>
<path d="M147.718 57.6082C147.299 57.9991 147.137 58.5051 147.369 58.758C147.602 59.011 148.136 58.896 148.555 58.5281C148.973 58.1371 149.136 57.6312 148.903 57.3782C148.671 57.1252 148.136 57.2402 147.718 57.6082Z" fill="#F1B287"/>
<path d="M140.047 74.3962C140.047 74.3962 137.792 73.7293 136.769 74.1433C135.746 74.5572 134.421 75.5461 135.072 75.7761C135.723 76.006 138.629 76.788 140.209 75.5921C140.209 75.5921 140.628 74.9942 140.047 74.3962Z" fill="#EFB185"/>
<path d="M151.159 65.1053C151.159 65.1053 152.832 64.4843 152.832 66.3931C152.832 66.3931 152.577 68.8998 150.554 72.6024C150.554 72.6024 148.648 76.236 147.672 76.4199C146.695 76.6039 139.582 76.4199 139.582 76.4199C139.582 76.4199 140 75.4081 139.582 74.1432C139.582 74.1432 145.812 73.4763 146.277 72.9933C146.742 72.5104 149.81 65.4962 151.182 65.1283L151.159 65.1053Z" fill="#EA49BD"/>
<path d="M147.649 76.3969C146.881 76.5349 141.488 76.4429 139.559 76.3969C139.675 76.1899 139.698 75.822 139.698 75.822C139.698 75.822 146.486 75.0171 146.951 74.5571C147.416 74.0742 150.485 67.06 151.856 66.692C151.856 66.692 152.344 66.5081 152.786 66.646C152.67 67.359 152.205 69.5897 150.531 72.6023C150.531 72.6023 148.625 76.2359 147.649 76.4199V76.3969Z" fill="#EA49BD"/>
<path opacity="0.5" d="M113.545 43.9477L124.61 50.272L135.676 56.5962C137.838 57.8381 139.581 60.8277 139.581 63.2884V99.8772C139.581 102.338 137.838 103.35 135.676 102.108L124.61 95.7836L113.545 89.4594C111.383 88.2175 109.639 85.2279 109.639 82.7672V46.1784C109.639 43.7177 111.383 42.7058 113.545 43.9477Z" fill="url(#paint8_linear_249_909)"/>
<path opacity="0.8" d="M116.823 73.9822V79.0646L113.917 77.4088V79.8695L120.193 83.4571V82.4912L124.076 84.7219V85.2279L125.052 85.1359V87.0906L120.984 84.7679V87.9875L129.516 92.863V89.6203L125.517 87.3436V83.5031L129.306 85.6648V82.6752L125.517 80.5134V77.3168L129.376 75.109C130.492 75.753 132.026 76.6729 133.444 77.5468L133.677 77.6847V68.5548L130.631 66.807V66.3011L129.469 66.4161L130.631 67.8649V67.3589L133.235 68.8538V76.9258C132.77 76.6499 131.701 75.9829 130.608 75.339C130.027 74.9941 129.562 74.7181 129.167 74.5111L125.494 68.2098V65.6801L129.283 67.8419V64.8522L125.494 62.6905V60.4138L130.283 63.1504C131.306 63.7254 132.142 63.2654 132.142 62.0926C132.142 60.9197 131.306 59.4939 130.283 58.9189L120.193 53.1466C119.171 52.5717 118.334 53.0316 118.334 54.2045C118.334 55.3773 119.171 56.8032 120.193 57.3781L125.052 60.1608V62.4375L121.17 60.2298V63.2194L125.052 65.4272V67.8879L121.193 70.0956L116.799 67.5889V71.5904L113.894 69.9346V72.3954L116.799 74.0512L116.823 73.9822ZM117.264 74.2351L120.17 75.8909V73.4302L117.264 71.7744V68.2788L121.193 70.5326L125.052 77.1328V80.2374L121.17 78.0297V81.0193L125.052 83.2271V84.8829L124.076 83.664V84.17L120.193 81.9392V80.9734L117.288 79.3175V74.2351H117.264Z" fill="#E9F0F4"/>
</g>
<path d="M77.9478 167.388C77.9798 167.436 78.0278 167.508 78.0918 167.604C78.1558 167.7 78.2278 167.804 78.3078 167.916C78.3878 168.012 78.4598 168.108 78.5238 168.204C78.5878 168.3 78.6358 168.372 78.6678 168.42L82.2438 164.556C82.7558 163.996 83.3558 163.572 84.0438 163.284C84.7318 162.98 85.4598 162.828 86.2278 162.828H87.7158C88.2438 162.828 88.7478 162.932 89.2278 163.14C89.7078 163.348 90.1238 163.636 90.4758 164.004C90.8278 164.356 91.1078 164.772 91.3158 165.252C91.5238 165.716 91.6278 166.22 91.6278 166.764V168.204C91.6278 168.796 91.5158 169.356 91.2918 169.884C91.0678 170.396 90.7638 170.852 90.3798 171.252C89.9958 171.636 89.5398 171.94 89.0118 172.164C88.4998 172.388 87.9398 172.5 87.3318 172.5H80.3238C79.4598 172.5 78.7398 172.3 78.1638 171.9C77.5878 171.5 77.0278 170.876 76.4838 170.028L74.7318 167.292C74.4598 166.86 74.0758 166.532 73.5798 166.308C73.0998 166.068 72.6038 165.988 72.0918 166.068L70.6758 166.284C70.2118 166.364 69.8118 166.588 69.4758 166.956C69.1398 167.324 68.9718 167.74 68.9718 168.204V168.444L72.8118 169.236C73.4358 169.364 73.9398 169.676 74.3238 170.172C74.7238 170.668 74.9238 171.244 74.9238 171.9V172.74C74.9238 173.412 74.8198 174.044 74.6118 174.636C74.4038 175.244 74.1078 175.772 73.7238 176.22C73.3398 176.668 72.8758 177.02 72.3318 177.276C71.8038 177.532 71.2038 177.66 70.5318 177.66H65.6838C64.9478 177.66 64.2518 177.516 63.5958 177.228C62.9398 176.956 62.3638 176.572 61.8678 176.076C61.3878 175.596 61.0038 175.028 60.7158 174.372C60.4438 173.732 60.3078 173.036 60.3078 172.284V165.948H62.9238V171.876C62.9238 172.228 62.9878 172.564 63.1158 172.884C63.2598 173.22 63.4518 173.508 63.6918 173.748C63.9318 173.988 64.2118 174.18 64.5318 174.324C64.8678 174.468 65.2278 174.54 65.6118 174.54H70.3398C70.8998 174.54 71.3558 174.348 71.7078 173.964C72.0758 173.58 72.2678 173.108 72.2838 172.548V171.9L66.3558 170.484V168.252C66.3558 167.596 66.4758 166.988 66.7158 166.428C66.9558 165.852 67.2758 165.348 67.6758 164.916C68.0758 164.484 68.5398 164.132 69.0678 163.86C69.6118 163.572 70.1718 163.388 70.7478 163.308L71.9238 163.116C72.8358 162.988 73.7078 163.116 74.5398 163.5C75.3718 163.868 76.0358 164.436 76.5318 165.204L77.9478 167.388ZM81.2838 169.38H87.8358C88.1558 169.38 88.4278 169.268 88.6518 169.044C88.8918 168.804 89.0118 168.524 89.0118 168.204V166.98C89.0118 166.66 88.8918 166.388 88.6518 166.164C88.4278 165.94 88.1558 165.828 87.8358 165.828H85.7958C85.4118 165.828 85.0358 165.908 84.6678 166.068C84.3158 166.228 84.0038 166.452 83.7318 166.74L81.2838 169.38ZM100.005 172.164C100.005 172.388 99.8928 172.5 99.6688 172.5H98.9728C98.3968 172.5 97.8528 172.396 97.3408 172.188C96.8288 171.964 96.3808 171.66 95.9968 171.276C95.6128 170.892 95.3088 170.444 95.0848 169.932C94.8608 169.42 94.7488 168.876 94.7488 168.3V156.06H97.3888V168.228C97.3888 168.548 97.5008 168.82 97.7248 169.044C97.9488 169.268 98.2208 169.38 98.5408 169.38H99.6688C99.7648 169.38 99.8448 169.42 99.9088 169.5C99.9728 169.564 100.005 169.644 100.005 169.74V172.164ZM114.396 169.38C114.716 169.38 114.988 169.268 115.212 169.044C115.436 168.804 115.548 168.524 115.548 168.204V166.98C115.548 166.66 115.428 166.388 115.188 166.164C114.964 165.94 114.692 165.828 114.372 165.828H112.356C111.524 165.828 110.828 166.132 110.268 166.74L107.82 169.38H114.396ZM105.204 167.1C105.204 167.516 105.244 167.788 105.324 167.916C105.42 168.044 105.468 168.116 105.468 168.132L108.78 164.556C109.292 163.996 109.892 163.572 110.58 163.284C111.268 162.98 111.996 162.828 112.764 162.828H114.228C114.772 162.828 115.284 162.932 115.764 163.14C116.244 163.348 116.66 163.636 117.012 164.004C117.38 164.356 117.668 164.772 117.876 165.252C118.084 165.716 118.188 166.22 118.188 166.764V168.276C118.188 168.58 118.3 168.844 118.524 169.068C118.748 169.276 119.02 169.38 119.34 169.38H120.252C120.348 169.38 120.428 169.42 120.492 169.5C120.556 169.564 120.588 169.636 120.588 169.716V172.14C120.588 172.236 120.556 172.324 120.492 172.404C120.428 172.468 120.348 172.5 120.252 172.5H119.772C119.196 172.5 118.66 172.388 118.164 172.164C117.668 171.924 117.236 171.564 116.868 171.084C116.468 171.564 116.012 171.924 115.5 172.164C115.004 172.388 114.468 172.5 113.892 172.5H106.812C106.236 172.5 105.692 172.388 105.18 172.164C104.684 171.94 104.252 171.58 103.884 171.084C103.5 171.58 103.052 171.94 102.54 172.164C102.028 172.388 101.492 172.5 100.932 172.5H100.14C99.9163 172.5 99.8043 172.388 99.8043 172.164V169.74C99.8043 169.644 99.8443 169.564 99.9243 169.5C99.9883 169.42 100.06 169.38 100.14 169.38H101.412C101.732 169.38 102.004 169.268 102.228 169.044C102.452 168.82 102.564 168.548 102.564 168.228V164.292H105.204V167.1ZM121.618 161.796H124.378V159.036H121.618V161.796ZM125.626 161.796H128.386V159.036H125.626V161.796ZM130.066 172.164C130.066 172.244 130.034 172.324 129.97 172.404C129.906 172.468 129.826 172.5 129.73 172.5H127.906C127.394 172.5 126.882 172.364 126.37 172.092C125.858 171.804 125.514 171.468 125.338 171.084C125.226 171.276 125.066 171.46 124.858 171.636C124.65 171.796 124.418 171.948 124.162 172.092C123.922 172.22 123.658 172.324 123.37 172.404C123.098 172.468 122.826 172.5 122.554 172.5H120.73C120.506 172.5 120.394 172.388 120.394 172.164V169.74C120.394 169.644 120.426 169.564 120.49 169.5C120.554 169.42 120.634 169.38 120.73 169.38H122.794C123.114 169.38 123.394 169.284 123.634 169.092C123.874 168.9 124.026 168.644 124.09 168.324L124.978 164.004L127.57 164.46L126.85 168.084C126.77 168.42 126.842 168.724 127.066 168.996C127.29 169.252 127.578 169.38 127.93 169.38H129.73C129.826 169.38 129.906 169.42 129.97 169.5C130.034 169.564 130.066 169.644 130.066 169.74V172.164ZM133.858 159.948H136.618V157.188H133.858V159.948ZM129.874 169.74C129.874 169.66 129.914 169.58 129.994 169.5C130.058 169.42 130.13 169.38 130.21 169.38H134.506C135.178 169.38 135.842 169.276 136.498 169.068C137.154 168.844 137.714 168.484 138.178 167.988L139.57 166.5C139.65 166.42 139.722 166.348 139.786 166.284C139.85 166.22 139.89 166.188 139.906 166.188L134.866 164.676C134.706 164.628 134.562 164.644 134.434 164.724C134.322 164.788 134.234 164.892 134.17 165.036L133.258 167.436L130.954 166.812L131.578 164.604C131.722 164.108 131.946 163.684 132.25 163.332C132.57 162.98 132.922 162.708 133.306 162.516C133.706 162.308 134.13 162.188 134.578 162.156C135.026 162.108 135.458 162.148 135.874 162.276L145.426 165.132L144.634 167.604L143.506 167.268C143.122 167.188 142.81 167.196 142.57 167.292C142.346 167.372 142.114 167.532 141.874 167.772L139.114 170.508C138.426 171.196 137.626 171.7 136.714 172.02C135.802 172.34 134.866 172.5 133.906 172.5H130.21C129.986 172.5 129.874 172.388 129.874 172.164V169.74ZM151.176 172.5H148.536V156.06H151.176V172.5ZM166.904 174.996C167.464 174.996 167.936 174.804 168.32 174.42C168.72 174.036 168.928 173.564 168.944 173.004L168.92 172.5H164.216V169.38H173.624C173.72 169.364 173.8 169.396 173.864 169.476C173.928 169.54 173.96 169.612 173.96 169.692V172.14C173.96 172.348 173.848 172.468 173.624 172.5H171.488C171.488 172.516 171.496 172.564 171.512 172.644C171.544 172.74 171.56 172.852 171.56 172.98V173.364C171.56 174.036 171.432 174.66 171.176 175.236C170.92 175.812 170.568 176.316 170.12 176.748C169.672 177.18 169.144 177.516 168.536 177.756C167.944 177.996 167.304 178.116 166.616 178.116H162.536C161.8 178.116 161.104 177.972 160.448 177.684C159.792 177.412 159.216 177.028 158.72 176.532C158.24 176.052 157.856 175.484 157.568 174.828C157.296 174.188 157.16 173.492 157.16 172.74V166.404H159.8V172.356C159.8 172.724 159.872 173.068 160.016 173.388C160.16 173.708 160.352 173.988 160.592 174.228C160.832 174.468 161.112 174.652 161.432 174.78C161.752 174.924 162.096 174.996 162.464 174.996H166.904ZM173.77 169.74C173.77 169.66 173.81 169.58 173.89 169.5C173.954 169.42 174.026 169.38 174.106 169.38H178.402C179.074 169.38 179.738 169.276 180.394 169.068C181.05 168.844 181.61 168.484 182.074 167.988L183.466 166.5C183.546 166.42 183.618 166.348 183.682 166.284C183.746 166.22 183.786 166.188 183.802 166.188L178.762 164.676C178.602 164.628 178.458 164.644 178.33 164.724C178.218 164.788 178.13 164.892 178.066 165.036L177.154 167.436L174.85 166.812L175.474 164.604C175.618 164.108 175.842 163.684 176.146 163.332C176.466 162.98 176.818 162.708 177.202 162.516C177.602 162.308 178.026 162.188 178.474 162.156C178.922 162.108 179.354 162.148 179.77 162.276L189.322 165.132L188.53 167.604L187.402 167.268C187.018 167.188 186.706 167.196 186.466 167.292C186.242 167.372 186.01 167.532 185.77 167.772L183.01 170.508C182.322 171.196 181.522 171.7 180.61 172.02C179.698 172.34 178.762 172.5 177.802 172.5H174.106C173.882 172.5 173.77 172.388 173.77 172.164V169.74ZM195.073 172.5H192.433V156.06H195.073V172.5ZM201.108 163.908V168.396C201.108 168.684 201.228 168.924 201.468 169.116C201.708 169.292 201.972 169.38 202.26 169.38H204.012C204.236 169.38 204.348 169.492 204.348 169.716V172.164C204.348 172.388 204.236 172.5 204.012 172.5H202.692C202.42 172.5 202.132 172.452 201.828 172.356C201.524 172.26 201.284 172.06 201.108 171.756V172.188C201.108 172.796 201.004 173.372 200.796 173.916C200.604 174.476 200.332 174.988 199.98 175.452C199.628 175.916 199.212 176.316 198.732 176.652C198.252 177.004 197.724 177.276 197.148 177.468L193.836 178.596L193.02 176.124L196.476 174.996C197.084 174.804 197.564 174.444 197.916 173.916C198.284 173.404 198.468 172.836 198.468 172.212V163.908H201.108ZM219.924 168.204C219.924 168.796 219.812 169.356 219.588 169.884C219.364 170.396 219.052 170.852 218.652 171.252C218.268 171.636 217.812 171.94 217.284 172.164C216.772 172.388 216.22 172.5 215.628 172.5H204.492C204.396 172.5 204.316 172.468 204.252 172.404C204.188 172.324 204.156 172.244 204.156 172.164V169.716C204.156 169.492 204.268 169.38 204.492 169.38H206.052L208.572 166.668V156.06H211.212V162.828C211.212 162.988 211.196 163.156 211.164 163.332C211.132 163.492 211.1 163.636 211.068 163.764C211.02 163.908 210.964 164.052 210.9 164.196C210.932 164.18 210.972 164.148 211.02 164.1C211.068 164.052 211.108 164.012 211.14 163.98C212.132 163.212 213.252 162.828 214.5 162.828H215.988C216.532 162.828 217.044 162.932 217.524 163.14C218.004 163.348 218.42 163.628 218.772 163.98C219.124 164.332 219.404 164.748 219.612 165.228C219.82 165.708 219.924 166.22 219.924 166.764V168.204ZM216.132 169.38C216.452 169.38 216.724 169.268 216.948 169.044C217.172 168.82 217.284 168.548 217.284 168.228V166.98C217.284 166.66 217.172 166.388 216.948 166.164C216.724 165.94 216.452 165.828 216.132 165.828H214.092C213.276 165.828 212.58 166.132 212.004 166.74L209.58 169.38H216.132Z" fill="white"/>
<defs>
<linearGradient id="paint0_linear_249_909" x1="3.97163" y1="6.14525" x2="297.367" y2="169.334" gradientUnits="userSpaceOnUse">
<stop stop-color="#B101D0"/>
<stop offset="1" stop-color="#340650"/>
</linearGradient>
<linearGradient id="paint1_linear_249_909" x1="123.727" y1="117.861" x2="174.173" y2="117.861" gradientUnits="userSpaceOnUse">
<stop stop-color="#1A6BB2"/>
<stop offset="1" stop-color="#1B4B92"/>
</linearGradient>
<linearGradient id="paint2_linear_249_909" x1="83.1146" y1="68.3018" x2="82.7961" y2="125.427" gradientUnits="userSpaceOnUse">
<stop stop-color="#FADD8D"/>
<stop offset="0.39" stop-color="#F4A2A7"/>
<stop offset="1" stop-color="#EA3FD6"/>
</linearGradient>
<linearGradient id="paint3_linear_249_909" x1="82.2078" y1="80.0074" x2="150.531" y2="80.0074" gradientUnits="userSpaceOnUse">
<stop stop-color="#FADD8D"/>
<stop offset="0.39" stop-color="#F4A2A7"/>
<stop offset="1" stop-color="#EA3FD6"/>
</linearGradient>
<linearGradient id="paint4_linear_249_909" x1="83.5562" y1="96.5885" x2="151.879" y2="96.5885" gradientUnits="userSpaceOnUse">
<stop stop-color="#FADD8D"/>
<stop offset="0.39" stop-color="#F4A2A7"/>
<stop offset="1" stop-color="#EA3FD6"/>
</linearGradient>
<linearGradient id="paint5_linear_249_909" x1="84.0987" y1="36.779" x2="94.3674" y2="69.7318" gradientUnits="userSpaceOnUse">
<stop stop-color="#FFF2C9"/>
<stop offset="1" stop-color="#FFB7BB"/>
</linearGradient>
<linearGradient id="paint6_linear_249_909" x1="100.996" y1="11.7294" x2="111.265" y2="44.6822" gradientUnits="userSpaceOnUse">
<stop stop-color="#FFF2C9"/>
<stop offset="1" stop-color="#FFB7BB"/>
</linearGradient>
<linearGradient id="paint7_linear_249_909" x1="81.0311" y1="23.8546" x2="91.2718" y2="56.7908" gradientUnits="userSpaceOnUse">
<stop stop-color="#FFF2C9"/>
<stop offset="1" stop-color="#FFB7BB"/>
</linearGradient>
<linearGradient id="paint8_linear_249_909" x1="132.76" y1="46.9317" x2="114.578" y2="105.911" gradientUnits="userSpaceOnUse">
<stop stop-color="#FFF2C9"/>
<stop offset="1" stop-color="#FFB7BB"/>
</linearGradient>
<clipPath id="clip0_249_909">
<rect width="122.791" height="120" fill="white" transform="translate(78.6045 15.5)"/>
</clipPath>
</defs>
</svg>
