<svg width="280" height="200" viewBox="0 0 280 200" fill="none" xmlns="http://www.w3.org/2000/svg">
<rect width="280" height="200" rx="8" fill="url(#paint0_linear_249_476)"/>
<g clip-path="url(#clip0_249_476)">
<g opacity="0.1">
<path d="M73.75 114.977L103.022 131.861L170.602 93.0917L140.646 75.5786L73.75 114.977Z" fill="black"/>
</g>
<path d="M99.9128 131.312L99.7811 82.9871L97.9104 81.9138L98.0421 130.238C98.0421 130.814 98.2529 131.207 98.5691 131.39C99.2014 131.757 99.8074 132.097 100.44 132.464C100.124 132.28 99.9128 131.888 99.9128 131.312Z" fill="#C0C0F6"/>
<path d="M99.7547 82.9608L97.884 81.8875V75.3691L99.7547 76.4424V82.9608Z" fill="#C0C0F6"/>
<path d="M170.866 42.1755L99.7546 82.9609L99.8864 131.285C99.8864 132.437 100.703 132.882 101.704 132.306L169.206 93.5891C170.207 93.0132 170.997 91.652 170.997 90.5001L170.866 42.1755Z" fill="url(#paint1_linear_249_476)"/>
<path d="M169.048 34.6363C170.049 34.0604 170.839 34.5316 170.866 35.6573V42.2018L99.781 82.9871V76.4426C99.781 75.317 100.571 73.9295 101.573 73.3536L169.074 34.6363H169.048Z" fill="#F0F0F9"/>
<path d="M169.443 34.453C169.443 34.453 169.654 34.4006 169.733 34.4006C169.838 34.4006 169.944 34.4006 170.023 34.4006C170.128 34.4006 170.207 34.453 170.286 34.5053L168.415 33.432C168.415 33.432 168.363 33.4059 168.336 33.3797C168.31 33.3797 168.284 33.3797 168.231 33.3535H168.178C168.152 33.3535 168.099 33.3535 168.073 33.3535C168.02 33.3535 167.994 33.3535 167.941 33.3535H167.915C167.915 33.3535 167.915 33.3535 167.888 33.3535H167.836C167.783 33.3535 167.73 33.3535 167.678 33.3797H167.625H167.572C167.546 33.3797 167.52 33.3797 167.493 33.4059C167.414 33.432 167.335 33.4844 167.23 33.5368L99.7283 72.254C99.7283 72.254 99.5175 72.4111 99.3858 72.4896C99.3594 72.5158 99.3067 72.5682 99.2804 72.5944C99.2277 72.6467 99.175 72.6729 99.1223 72.7252C99.1223 72.7252 99.0696 72.7776 99.0696 72.8038C99.0696 72.8038 99.0169 72.8561 98.9906 72.8823C98.9906 72.8823 98.9379 72.9347 98.9379 72.9608C98.8852 73.0132 98.8325 73.0917 98.7798 73.1441C98.7798 73.1441 98.7534 73.1964 98.7271 73.2226C98.7271 73.2226 98.7271 73.2226 98.7271 73.2488C98.7271 73.2488 98.7007 73.3012 98.6744 73.3012C98.648 73.3535 98.5953 73.4059 98.569 73.4582C98.5426 73.5106 98.5163 73.5629 98.49 73.6153C98.49 73.6677 98.4373 73.6938 98.4109 73.7462C98.4109 73.7985 98.3582 73.8509 98.3319 73.9033C98.3319 73.9556 98.2792 74.008 98.2792 74.0341C98.2792 74.0865 98.2265 74.1389 98.2265 74.1912C98.2265 74.2436 98.1738 74.2959 98.1738 74.3745C98.1738 74.4006 98.1738 74.4268 98.1738 74.453C98.1738 74.453 98.1738 74.4792 98.1738 74.5054V74.5577C98.1738 74.6362 98.1474 74.6886 98.1211 74.7671C98.1211 74.8195 98.1211 74.8457 98.1211 74.898V74.9504C98.1211 74.9504 98.1211 74.9766 98.1211 75.0027C98.1211 75.1074 98.1211 75.2383 98.1211 75.343L99.9917 76.4163C99.9917 76.2855 99.9917 76.1546 100.018 75.9975V75.9451C100.018 75.8143 100.071 75.6834 100.097 75.5525C100.097 75.5525 100.097 75.5525 100.097 75.5263C100.15 75.3954 100.203 75.2383 100.255 75.1074C100.308 74.9766 100.387 74.8195 100.466 74.6886C100.545 74.5577 100.624 74.4268 100.729 74.2959C100.729 74.2959 100.729 74.2959 100.729 74.2698C100.809 74.165 100.914 74.0603 100.993 73.9556C100.993 73.9556 101.019 73.9033 101.046 73.9033C101.125 73.8247 101.204 73.7462 101.283 73.6938C101.309 73.6677 101.335 73.6415 101.388 73.6153C101.494 73.5368 101.625 73.4582 101.731 73.3797L169.232 34.6624C169.232 34.6624 169.469 34.5577 169.575 34.5053H169.627L169.443 34.453Z" fill="#C0C0F6"/>
<path d="M104.207 77.9347C105.129 77.4112 105.867 76.1546 105.841 75.1075C105.841 74.0604 105.103 73.6415 104.181 74.1651C103.259 74.6887 102.547 75.9452 102.547 76.9923C102.547 78.0394 103.285 78.4583 104.207 77.9347Z" fill="#C0C0F6"/>
<path d="M109.213 75.0551C110.135 74.5315 110.873 73.275 110.847 72.2279C110.847 71.1807 110.109 70.7619 109.187 71.2855C108.265 71.809 107.553 73.0656 107.553 74.1127C107.553 75.1598 108.291 75.5787 109.213 75.0551Z" fill="#C0C0F6"/>
<path d="M114.088 72.2541C115.01 71.7305 115.747 70.474 115.721 69.4268C115.721 68.3797 114.983 67.9609 114.061 68.4844C113.139 69.008 112.428 70.2645 112.428 71.3117C112.428 72.3588 113.165 72.7776 114.088 72.2541Z" fill="#C0C0F6"/>
<g opacity="0.5">
<g opacity="0.14">
<path d="M84.3679 98.6936L80.9954 100.631C80.7846 100.762 80.5212 100.762 80.3104 100.631L76.9116 98.6936C76.4637 98.4318 76.4637 97.7773 76.9116 97.5156L80.2841 95.5784C80.4948 95.4475 80.7583 95.4475 80.9691 95.5784L84.3679 97.5156C84.8158 97.7773 84.8158 98.4318 84.3679 98.6936Z" fill="#FDCDE7"/>
</g>
<g opacity="0.29">
<path d="M84.3679 94.7671L80.9954 96.7042C80.7846 96.8351 80.5212 96.8351 80.3104 96.7042L76.9116 94.7671C76.4637 94.5053 76.4637 93.8508 76.9116 93.5891L80.2841 91.6519C80.4948 91.521 80.7583 91.521 80.9691 91.6519L84.3679 93.5891C84.8158 93.8508 84.8158 94.5053 84.3679 94.7671Z" fill="#FDCDE7"/>
</g>
<g opacity="0.43">
<path d="M84.3679 90.8142L80.9954 92.7514C80.7846 92.8822 80.5212 92.8822 80.3104 92.7514L76.9116 90.8142C76.4637 90.5524 76.4637 89.8979 76.9116 89.6362L80.2841 87.699C80.4948 87.5681 80.7583 87.5681 80.9691 87.699L84.3679 89.6362C84.8158 89.8979 84.8158 90.5524 84.3679 90.8142Z" fill="#FDCDE7"/>
</g>
<g opacity="0.57">
<path d="M84.3679 86.8874L80.9954 88.8246C80.7846 88.9555 80.5212 88.9555 80.3104 88.8246L76.9116 86.8874C76.4637 86.6256 76.4637 85.9712 76.9116 85.7094L80.2841 83.7722C80.4948 83.6413 80.7583 83.6413 80.9691 83.7722L84.3679 85.7094C84.8158 85.9712 84.8158 86.6256 84.3679 86.8874Z" fill="#FDCDE7"/>
</g>
<g opacity="0.71">
<path d="M84.3679 82.9607L80.9954 84.8979C80.7846 85.0288 80.5212 85.0288 80.3104 84.8979L76.9116 82.9345C76.4637 82.6728 76.4637 82.0183 76.9116 81.7565L80.2841 79.8194C80.4948 79.6885 80.7583 79.6885 80.9691 79.8194L84.3679 81.7565C84.8158 82.0183 84.8158 82.6728 84.3679 82.9345V82.9607Z" fill="#FDCDE7"/>
</g>
<g opacity="0.86">
<path d="M84.3679 79.0078L80.9954 80.945C80.7846 81.0759 80.5212 81.0759 80.3104 80.945L76.9116 78.9817C76.4637 78.7199 76.4637 78.0654 76.9116 77.8037L80.2841 75.8665C80.4948 75.7356 80.7583 75.7356 80.9691 75.8665L84.3679 77.8037C84.8158 78.0654 84.8158 78.7199 84.3679 78.9817V79.0078Z" fill="#FDCDE7"/>
</g>
<path d="M84.3679 75.0811L80.9954 77.0183C80.7846 77.1491 80.5212 77.1491 80.3104 77.0183L76.9116 75.0549C76.4637 74.7931 76.4637 74.1387 76.9116 73.8769L80.2841 71.9397C80.4948 71.8088 80.7583 71.8088 80.9691 71.9397L84.3679 73.8769C84.8158 74.1387 84.8158 74.7931 84.3679 75.0549V75.0811Z" fill="#FDCDE7"/>
</g>
<path d="M84.3679 75.0811L80.9954 77.0183C80.7846 77.1491 80.5212 77.1491 80.3104 77.0183L76.9116 75.0549C76.4637 74.7931 76.4637 74.1387 76.9116 73.8769L80.2841 71.9397C80.4948 71.8088 80.7583 71.8088 80.9691 71.9397L84.3679 73.8769C84.8158 74.1387 84.8158 74.7931 84.3679 75.0549V75.0811Z" fill="#FDCDE7"/>
<g opacity="0.5">
<g opacity="0.14">
<path d="M180.825 33.8246L177.848 35.5523C177.663 35.6571 177.426 35.6571 177.242 35.5523L174.238 33.8246C173.843 33.589 173.843 33.0131 174.238 32.7775L177.215 31.0497C177.4 30.945 177.637 30.945 177.821 31.0497L180.825 32.7775C181.22 33.0131 181.22 33.589 180.825 33.8246Z" fill="#FFDF75"/>
</g>
<g opacity="0.29">
<path d="M180.825 31.2592L177.848 32.9869C177.663 33.0916 177.426 33.0916 177.242 32.9869L174.238 31.2592C173.843 31.0236 173.843 30.4476 174.238 30.212L177.215 28.4843C177.4 28.3796 177.637 28.3796 177.821 28.4843L180.825 30.212C181.22 30.4476 181.22 31.0236 180.825 31.2592Z" fill="#FFDF75"/>
</g>
<g opacity="0.43">
<path d="M180.825 28.6676L177.848 30.3954C177.663 30.5001 177.426 30.5001 177.242 30.3954L174.238 28.6676C173.843 28.432 173.843 27.8561 174.238 27.6205L177.215 25.8927C177.4 25.788 177.637 25.788 177.821 25.8927L180.825 27.6205C181.22 27.8561 181.22 28.432 180.825 28.6676Z" fill="#FFDF75"/>
</g>
<g opacity="0.57">
<path d="M180.825 26.1022L177.848 27.8299C177.663 27.9346 177.426 27.9346 177.242 27.8299L174.238 26.1022C173.843 25.8666 173.843 25.2907 174.238 25.0551L177.215 23.3273C177.4 23.2226 177.637 23.2226 177.821 23.3273L180.825 25.0551C181.22 25.2907 181.22 25.8666 180.825 26.1022Z" fill="#FFDF75"/>
</g>
<g opacity="0.71">
<path d="M180.825 23.5104L177.848 25.2381C177.663 25.3428 177.426 25.3428 177.242 25.2381L174.238 23.5104C173.843 23.2748 173.843 22.6989 174.238 22.4633L177.215 20.7355C177.4 20.6308 177.637 20.6308 177.821 20.7355L180.825 22.4633C181.22 22.6989 181.22 23.2748 180.825 23.5104Z" fill="#FFDF75"/>
</g>
<g opacity="0.86">
<path d="M180.825 20.945L177.848 22.6727C177.663 22.7774 177.426 22.7774 177.242 22.6727L174.238 20.945C173.843 20.7094 173.843 20.1334 174.238 19.8978L177.215 18.1701C177.4 18.0654 177.637 18.0654 177.821 18.1701L180.825 19.8978C181.22 20.1334 181.22 20.7094 180.825 20.945Z" fill="#FFDF75"/>
</g>
<path d="M180.825 18.3534L177.848 20.0812C177.663 20.1859 177.426 20.1859 177.242 20.0812L174.238 18.3534C173.843 18.1178 173.843 17.5419 174.238 17.3063L177.215 15.5785C177.4 15.4738 177.637 15.4738 177.821 15.5785L180.825 17.3063C181.22 17.5419 181.22 18.1178 180.825 18.3534Z" fill="#FFDF75"/>
</g>
<path d="M180.825 18.3534L177.848 20.0812C177.663 20.1859 177.426 20.1859 177.242 20.0812L174.238 18.3534C173.843 18.1178 173.843 17.5419 174.238 17.3063L177.215 15.5785C177.4 15.4738 177.637 15.4738 177.821 15.5785L180.825 17.3063C181.22 17.5419 181.22 18.1178 180.825 18.3534Z" fill="#F5E981"/>
<g opacity="0.5">
<path d="M153.793 70.8403V72.0707L140.382 79.7409V78.5105L153.793 70.8403Z" fill="#FF61CB"/>
</g>
<g opacity="0.6">
<path d="M181.852 58.1179L181.879 66.8614L162.856 77.8038L162.83 69.0342L181.852 58.1179Z" fill="#FF61CB"/>
</g>
<g opacity="0.5">
<path d="M160.88 67.9869L183.302 55.1335L183.354 74.61L160.933 87.4634L160.88 67.9869ZM181.879 66.8613V58.0917L162.83 69.0079V77.7775L181.879 66.8613Z" fill="#FF61CB"/>
</g>
<g opacity="0.5">
<path d="M183.302 51.6257V53.0917L160.88 65.9713V64.4791L183.302 51.6257Z" fill="#FF61CB"/>
</g>
<g opacity="0.5">
<path d="M153.819 81.8875L153.846 90.5786L140.435 98.2487L140.408 89.5576L153.819 81.8875Z" fill="#FF61CB"/>
</g>
<g opacity="0.6">
<path d="M138.906 70.9974L156.006 61.1807L156.085 91.1021L138.986 100.919L138.906 70.9974ZM153.819 90.5786V81.8875L140.408 89.5576V98.2487L153.819 90.5786ZM153.74 65.9712V64.7409L140.356 72.411V73.6414L153.74 65.9712ZM153.74 72.0445V70.8142L140.329 78.4843V79.7147L153.74 72.0445ZM153.74 74.8194V73.589L140.329 81.2592V82.4896L153.74 74.8194ZM153.74 68.7461V67.5157L140.356 75.2121V76.4424L153.74 68.7723V68.7461Z" fill="#FF61CB"/>
</g>
<g opacity="0.7">
<path d="M137.115 65.9189L185.357 38.2488L185.462 75.8666L137.22 103.537L137.115 65.9451V65.9189ZM156.085 91.1022L156.006 61.1807L138.907 70.9975L138.986 100.919L156.085 91.1022ZM183.354 74.5839L183.302 55.1074L160.88 67.9608L160.933 87.4373L183.354 74.5839ZM183.275 43.8771V40.5524L138.248 66.364V69.6886L183.275 43.8771ZM183.275 47.0184V45.5524L160.854 58.4058V59.8718L183.275 47.0184ZM183.275 49.7933V48.3273L160.854 61.1807V62.6467L183.275 49.7933ZM183.275 53.1179V51.6519L160.854 64.5053V65.9713L183.275 53.1179Z" fill="#FF61CB"/>
</g>
<g opacity="0.5">
<path d="M183.302 48.301V49.7932L160.88 62.6466L160.854 61.1806L183.302 48.301Z" fill="#FF61CB"/>
</g>
<g opacity="0.5">
<path d="M138.906 68.4319L163.357 54.4005V52.8298L138.906 66.8612V68.4319Z" fill="#FF61CB"/>
</g>
<g opacity="0.5">
<path d="M183.275 43.8771V40.5525L138.248 66.364V69.6886L183.275 43.8771ZM182.38 41.9137V43.4844L172.71 49.0342V47.4635L182.38 41.9137ZM163.357 52.83V54.4007L138.907 68.4321V66.8614L163.357 52.83Z" fill="#FF61CB"/>
</g>
<g opacity="0.5">
<path d="M182.379 41.9138V43.4845L172.71 49.0342V47.4636L182.379 41.9138Z" fill="#FF61CB"/>
</g>
<g opacity="0.5">
<path d="M183.275 45.5525V47.0185L160.854 59.8719V58.4059L183.275 45.5525Z" fill="#FF61CB"/>
</g>
<g opacity="0.5">
<path d="M153.793 73.5891V74.8195L140.408 82.5158L140.382 81.2854L153.793 73.5891Z" fill="#FF61CB"/>
</g>
<g opacity="0.5">
<path d="M153.766 67.5159V68.7462L140.382 76.4164V75.2122L153.766 67.5159Z" fill="#FF61CB"/>
</g>
<g opacity="0.5">
<path d="M153.766 64.7671V65.9975L140.382 73.6676V72.4372L153.766 64.7671Z" fill="#FF61CB"/>
</g>
<g opacity="0.5">
<path d="M127.34 48.2488V49.5839L112.718 57.9608V56.6257L127.34 48.2488Z" fill="#FF61CB"/>
<path d="M127.367 60.3169L127.393 69.7933L112.77 78.1703L112.744 68.6939L127.367 60.3169Z" fill="#FF61CB"/>
<g opacity="0.6">
<path d="M111.11 48.4321L129.791 37.7253L129.896 70.3693L111.216 81.0761L111.11 48.4321ZM127.393 69.7934V60.317L112.744 68.6939V78.1704L127.393 69.7934ZM127.314 42.9609V41.6259L112.691 50.0028V51.3379L127.314 42.9609ZM127.314 49.584V48.2489L112.691 56.6259V57.9609L127.314 49.584ZM127.314 52.5945V51.2594L112.691 59.6363V60.9714L127.314 52.5945ZM127.314 45.9714V44.6363L112.691 53.0133V54.3484L127.314 45.9714Z" fill="#FF61CB"/>
</g>
<path d="M131.661 34.8195L110.399 47.0184V43.4059L131.661 31.2069V29.9766L109.161 42.8823L109.266 83.9294L131.661 71.076V34.8195ZM111.11 48.4321L129.79 37.7253L129.896 70.3692L111.216 81.076L111.11 48.4321Z" fill="#FF61CB"/>
<path d="M131.661 32.0969L111.084 43.9032V45.6048L131.661 33.8247V32.0969Z" fill="#FF61CB"/>
<path d="M131.661 33.8248L111.084 45.6049V43.9034L131.661 32.0971V31.207L110.373 43.406L110.399 47.0185L131.661 34.8196V33.8248Z" fill="#FF61CB"/>
<path d="M127.34 51.2593V52.5944L112.718 60.9975V59.6624L127.34 51.2593Z" fill="#FF61CB"/>
<path d="M127.314 44.6362V45.9713L112.691 54.3483V53.0132L127.314 44.6362Z" fill="#FF61CB"/>
<path d="M127.314 41.5996V42.9609L112.691 51.3378V50.0028L127.314 41.5996Z" fill="#FF61CB"/>
</g>
<g opacity="0.5">
<path d="M126.234 95.6047L126.26 104.374L107.237 115.291L107.211 106.521L126.234 95.6047Z" fill="#FF61CB"/>
<g opacity="0.6">
<path d="M105.261 105.5L127.683 92.6465L127.735 112.123L105.314 124.976L105.261 105.5ZM126.26 104.374V95.6046L107.211 106.521V115.29L126.26 104.374Z" fill="#FF61CB"/>
</g>
<path d="M127.683 89.1387V90.6046L105.261 103.458V101.992L127.683 89.1387Z" fill="#FF61CB"/>
<g opacity="0.7">
<path d="M104.076 91.5995L127.656 78.0654V81.39L104.076 94.9241V128.144L129.87 113.353L129.764 75.7356L104.076 90.4738V91.5995ZM127.762 112.097L105.34 124.95L105.288 105.474L127.709 92.6204L127.762 112.097ZM127.709 90.6047L105.288 103.458V101.992L127.709 89.1387V90.6047ZM127.709 87.2801L105.288 100.134V98.6675L127.709 85.8141V87.2801ZM127.709 84.5052L105.288 97.3586V95.8927L127.709 83.0393V84.5052Z" fill="#FF61CB"/>
</g>
<path d="M127.683 85.8142V87.2802L105.261 100.16L105.235 98.6676L127.683 85.8142Z" fill="#FF61CB"/>
<path d="M127.656 78.0654L104.076 91.5995V94.9241L127.656 81.39V78.0654ZM117.091 86.5209V84.9502L126.761 79.4005V80.9712L117.091 86.5209Z" fill="#FF61CB"/>
<path d="M126.761 79.4268V80.9713L117.091 86.521V84.9765L126.761 79.4268Z" fill="#FF61CB"/>
<path d="M127.656 83.0393V84.5315L105.235 97.3849V95.9189L127.656 83.0393Z" fill="#FF61CB"/>
</g>
<g opacity="0.7">
<g opacity="0.14">
<path d="M205.986 95.2645L203.721 96.6257C203.589 96.7043 203.404 96.7043 203.246 96.6257L200.901 95.343C200.585 95.1598 200.585 94.7147 200.901 94.5315L203.167 93.1702C203.299 93.0917 203.483 93.0917 203.642 93.1702L205.986 94.453C206.303 94.6362 206.303 95.0812 205.986 95.2645Z" fill="#A8FEFD"/>
</g>
<g opacity="0.29">
<path d="M205.934 91.4947L203.668 92.8559C203.536 92.9345 203.352 92.9345 203.194 92.8559L200.849 91.5732C200.533 91.39 200.533 90.945 200.849 90.7617L203.115 89.4005C203.246 89.3219 203.431 89.3219 203.589 89.4005L205.934 90.6832C206.25 90.8664 206.25 91.3115 205.934 91.4947Z" fill="#A7FDFC"/>
</g>
<g opacity="0.43">
<path d="M205.881 87.7252L203.615 89.0864C203.483 89.165 203.299 89.165 203.141 89.0864L200.796 87.8037C200.48 87.6205 200.48 87.1754 200.796 86.9922L203.062 85.6309C203.194 85.5524 203.378 85.5524 203.536 85.6309L205.881 86.9136C206.197 87.0969 206.197 87.5419 205.881 87.7252Z" fill="#A6FCFB"/>
</g>
<g opacity="0.57">
<path d="M205.855 83.9554L203.589 85.3166C203.457 85.3952 203.273 85.3952 203.114 85.3166L200.77 84.0339C200.453 83.8507 200.453 83.4057 200.77 83.2224L203.035 81.8611C203.167 81.7826 203.352 81.7826 203.51 81.8611L205.855 83.1439C206.171 83.3271 206.171 83.7721 205.855 83.9554Z" fill="#A4FAF9"/>
</g>
<g opacity="0.71">
<path d="M205.802 80.1859L203.536 81.5471C203.405 81.6256 203.22 81.6256 203.062 81.5471L200.717 80.2644C200.401 80.0811 200.401 79.6361 200.717 79.4529L202.983 78.0916C203.115 78.0131 203.299 78.0131 203.457 78.0916L205.802 79.3743C206.118 79.5576 206.118 80.0026 205.802 80.1859Z" fill="#A3F9F8"/>
</g>
<g opacity="0.86">
<path d="M205.749 76.4161L203.484 77.7773C203.352 77.8559 203.167 77.8559 203.009 77.7773L200.664 76.4946C200.348 76.3114 200.348 75.8663 200.664 75.6831L202.93 74.3218C203.062 74.2433 203.246 74.2433 203.404 74.3218L205.749 75.6046C206.066 75.7878 206.066 76.2328 205.749 76.4161Z" fill="#A2F8F7"/>
</g>
<path d="M205.723 72.6465L203.457 74.0078C203.326 74.0863 203.141 74.0863 202.983 74.0078L200.638 72.7251C200.322 72.5418 200.322 72.0968 200.638 71.9136L202.904 70.5523C203.036 70.4738 203.22 70.4738 203.378 70.5523L205.723 71.835C206.039 72.0183 206.039 72.4633 205.723 72.6465Z" fill="#A1F7F6"/>
</g>
<g opacity="0.8">
<path d="M205.697 72.6465L203.431 74.0078C203.299 74.0863 203.115 74.0863 202.957 74.0078L200.612 72.7251C200.295 72.5418 200.295 72.0968 200.612 71.9136L202.877 70.5523C203.009 70.4738 203.194 70.4738 203.352 70.5523L205.697 71.835C206.013 72.0183 206.013 72.4633 205.697 72.6465Z" fill="#A2F8F7"/>
</g>
<g opacity="0.6">
<path d="M141.989 32.411V33.3273L141.041 33.877V32.9084C141.041 31.9922 140.724 31.6257 139.987 32.0184C139.275 32.4372 138.933 33.1702 138.933 34.0864V39.5053C138.933 40.4215 139.275 40.788 139.987 40.3953C140.724 39.9765 141.041 39.2435 141.041 38.3273V36.9922L141.989 36.4424V37.7252C141.989 39.2697 141.357 40.6571 139.987 41.4424C138.617 42.2278 137.984 41.5733 137.984 40.0288V34.7409C137.984 33.1964 138.617 31.8089 139.987 31.0236C141.357 30.2382 141.989 30.8927 141.989 32.4372V32.411Z" fill="url(#paint2_linear_249_476)"/>
<path d="M146.758 29.6622V29.9501L145.809 30.4999V30.1596C145.809 29.2433 145.493 28.8768 144.782 29.2957C144.071 29.7145 143.754 30.4214 143.754 31.3376C143.754 33.6412 146.758 32.1229 146.758 35.0025C146.758 36.547 146.099 37.9344 144.756 38.7198C143.386 39.5051 142.753 38.8507 142.753 37.3062V36.7302L143.675 36.2067V36.8611C143.675 37.7774 144.018 38.1439 144.729 37.725C145.441 37.3062 145.783 36.5732 145.783 35.657C145.783 33.3795 142.806 34.8716 142.806 31.992C142.806 30.4214 143.438 29.0601 144.782 28.3009C146.126 27.5156 146.758 28.17 146.758 29.7145V29.6622Z" fill="url(#paint3_linear_249_476)"/>
<path d="M151.5 26.9398V27.2277L150.552 27.7775V27.4372C150.552 26.5209 150.236 26.1544 149.524 26.5733C148.813 26.9921 148.497 27.6989 148.497 28.6152C148.497 30.9188 151.5 29.4005 151.5 32.2801C151.5 33.8246 150.842 35.212 149.498 35.9974C148.128 36.7827 147.496 36.1283 147.496 34.5838V34.0078L148.418 33.4843V34.1387C148.418 35.055 148.76 35.4214 149.472 35.0026C150.183 34.5838 150.526 33.8508 150.526 32.9345C150.526 30.6571 147.548 32.1492 147.548 29.2696C147.548 27.6989 148.181 26.3377 149.524 25.5785C150.868 24.7932 151.5 25.4476 151.5 26.9921V26.9398Z" fill="url(#paint4_linear_249_476)"/>
</g>
<g opacity="0.6">
<path d="M78.0182 113.17L76.5164 118.432L75.5679 118.982L77.3595 112.673L75.6733 108.694L76.7008 108.092L78.0709 111.39L79.4673 106.495L80.3894 105.971L78.7295 111.887L80.5211 116.128L79.4673 116.73L77.9918 113.17H78.0182Z" fill="url(#paint5_linear_249_476)"/>
<path d="M84.6313 113.772L83.6828 114.322L82.2073 107.018V115.186L81.3379 115.683V105.447L82.7343 104.662L84.2097 111.992L85.6325 103.013L87.0289 102.228V112.463L86.0804 113.013V104.793L84.6576 113.824L84.6313 113.772Z" fill="url(#paint6_linear_249_476)"/>
<path d="M88.0037 111.835V101.599L89.0049 101.023V110.212L91.5605 108.746V109.793L88.03 111.835H88.0037Z" fill="url(#paint7_linear_249_476)"/>
</g>
<g opacity="0.6">
<path d="M80.3894 61.2854V65.8928L79.3882 66.4687V56.2331L80.3894 55.6572V60.2645L82.5762 59.008V54.4006L83.5774 53.8247V64.0603L82.5762 64.6362V60.0289L80.3894 61.2854Z" fill="url(#paint8_linear_249_476)"/>
<path d="M85.896 62.7251V53.5366L84.2625 54.479V53.4319L88.5307 50.9712V52.0183L86.8972 52.9607V62.1492L85.896 62.7251Z" fill="url(#paint9_linear_249_476)"/>
<path d="M92.509 58.9293L91.5605 59.479L90.085 52.1753V60.3429L89.2156 60.8403V50.6047L90.612 49.8193L92.0874 57.1492L93.5102 48.1701L94.9066 47.3848V57.6204L93.9581 58.1701V49.9502L92.5353 58.9816L92.509 58.9293Z" fill="url(#paint10_linear_249_476)"/>
<path d="M95.8816 56.9922V46.7566L96.8828 46.1807V55.3691L99.4385 53.9032V54.9503L95.9079 56.9922H95.8816Z" fill="url(#paint11_linear_249_476)"/>
</g>
<g opacity="0.6">
<path d="M179.481 101.704L175.529 102.123V101.312L179.481 97.2017V98.0394L176.451 101.207L179.481 100.919V101.757V101.704Z" fill="url(#paint12_linear_249_476)"/>
<path d="M184.567 91.3901L181.062 103.641L180.193 104.139L183.697 91.8875L184.567 91.3901Z" fill="url(#paint13_linear_249_476)"/>
<path d="M185.304 97.5158L188.334 94.3482L185.304 94.6362V93.7985L189.256 93.3796V94.1912L185.304 98.3011V97.4634V97.5158Z" fill="url(#paint14_linear_249_476)"/>
</g>
<g opacity="0.5">
<path d="M152.95 64.5577C154.82 63.4844 156.348 64.3482 156.348 66.4948C156.348 68.6414 154.847 71.2331 152.976 72.3064C151.105 73.3797 149.577 72.5158 149.577 70.3954C149.577 68.2488 151.079 65.6571 152.976 64.5839L152.95 64.5577Z" fill="#B53892"/>
</g>
<g opacity="0.5">
<path d="M152.95 66.0499C154.161 65.343 155.136 65.919 155.163 67.3064C155.163 68.6938 154.188 70.3692 152.976 71.076C151.764 71.7828 150.763 71.2069 150.763 69.8195C150.763 68.4321 151.738 66.7567 152.95 66.0499Z" fill="#B53892"/>
</g>
<g opacity="0.5">
<path d="M152.95 67.4896C153.529 67.1492 153.977 67.4372 153.977 68.0655C153.977 68.7199 153.529 69.5053 152.95 69.8456C152.37 70.1859 151.922 69.9241 151.922 69.2697C151.922 68.6152 152.37 67.8299 152.95 67.4896Z" fill="#B53892"/>
</g>
<g opacity="0.5">
<path d="M141.726 78.013C143.596 76.9397 145.124 77.8036 145.124 79.9502C145.124 82.0968 143.623 84.6884 141.752 85.7617C139.881 86.835 138.353 85.9711 138.353 83.8507C138.353 81.7041 139.855 79.1125 141.752 78.0392L141.726 78.013Z" fill="#B53892"/>
</g>
<g opacity="0.5">
<path d="M141.726 79.5052C142.938 78.7984 143.912 79.3743 143.939 80.7617C143.939 82.1492 142.964 83.8246 141.752 84.5314C140.54 85.2382 139.539 84.6884 139.539 83.2748C139.539 81.8874 140.514 80.212 141.726 79.5052Z" fill="#B53892"/>
</g>
<g opacity="0.5">
<path d="M141.726 80.971C142.305 80.6307 142.753 80.9186 142.753 81.5469C142.753 82.2014 142.305 82.9867 141.726 83.327C141.146 83.6673 140.698 83.4056 140.698 82.7511C140.698 82.0967 141.146 81.3113 141.726 80.971Z" fill="#B53892"/>
</g>
<path d="M160.564 132.935C160.564 132.935 161.618 134.61 160.169 135.003C158.72 135.395 159.141 134.505 155.98 135.291C152.818 136.076 153.187 134.322 153.266 133.956C153.345 133.589 154.715 133.092 155.4 132.908C156.085 132.725 158.851 132.097 158.851 132.097L160.538 132.411V132.935H160.564Z" fill="#111114"/>
<path d="M156.006 72.3324C156.006 72.3324 155.769 70.1335 155.532 69.7408C155.295 69.322 154.346 67.5419 152.739 67.2801C151.87 67.123 152.344 68.0392 153.161 69.0602C153.53 69.5314 153.898 69.7932 153.793 70.7879C153.714 71.4948 153.898 72.5942 154.057 73.1178C154.215 73.6152 156.006 72.3586 156.006 72.3586V72.3324Z" fill="#EFB185"/>
<path d="M154.004 72.9871C153.846 72.4897 153.74 71.3902 153.319 70.8143C152.818 70.1075 153.529 69.4792 153.134 69.0342C152.502 68.2489 152.08 67.4897 152.317 67.2803C152.739 67.9347 153.793 67.7253 154.346 69.6625C154.557 70.3693 154.662 72.1232 154.557 72.9871C154.135 73.118 154.03 73.2227 153.951 73.0133L154.004 72.9871Z" fill="#E6A376"/>
<path d="M154.662 72.9084C154.662 72.9084 153.134 70.945 152.765 70.2906C152.396 69.6361 152.396 69.0078 152.581 69.0602C152.765 69.1125 153.977 71.0235 154.504 70.4214C154.794 70.1073 154.504 72.5942 154.662 72.9345V72.9084Z" fill="#EFB185"/>
<path d="M169.786 82.1493C169.786 82.1493 169.601 84.898 166.097 83.9294C162.593 82.987 156.322 80.4215 155.505 78.7461C154.689 77.0707 153.872 72.5681 153.872 72.5681C153.872 72.5681 155.558 73.1178 156.217 71.7566L158.983 77.3325C158.983 77.3325 169.944 80.2121 169.786 82.1231V82.1493Z" fill="#9DBCC9"/>
<path d="M169.786 82.1492C169.97 80.2382 158.983 77.3586 158.983 77.3586L156.217 71.7827C155.98 72.3063 155.584 72.5419 155.216 72.6466C155.505 74.0864 156.085 76.6256 156.638 77.8037C157.429 79.479 163.726 82.0183 167.23 82.9869C168.231 83.2749 168.969 83.2225 169.496 83.0393C169.733 82.5942 169.759 82.1754 169.759 82.1754L169.786 82.1492Z" fill="#CAE0EA"/>
<path d="M164.147 126.652C164.147 126.652 162.83 126.861 163.146 127.594C163.462 128.353 164.964 129.479 165.175 129.977C165.386 130.448 166.598 132.149 166.993 131.992C167.388 131.835 168.416 132.071 168.31 130.134C168.205 128.196 165.886 126.573 164.147 126.652Z" fill="#111114"/>
<path d="M168.178 101.181C168.178 101.181 168.178 112.385 168.178 113.668C168.178 114.95 169.601 124.872 168.732 129.217C168.732 129.217 166.281 131.678 164.095 129.217C164.095 129.217 163.41 116.757 162.777 113.956C162.145 111.154 162.356 102.542 162.356 102.542L168.152 101.181H168.178Z" fill="#09294F"/>
<path d="M163.857 102.777C163.857 102.777 163.304 110.029 162.724 117.202C162.724 117.202 162.356 131.442 162.013 133.51C162.013 133.51 157.376 134.662 156.928 132.49C156.928 132.49 157.033 119.95 156.928 117.332C156.823 114.715 156.533 107.411 157.587 103.17C158.614 98.9555 163.857 102.777 163.857 102.777Z" fill="#09294F"/>
<path d="M162.013 133.484C162.356 131.442 162.725 117.175 162.725 117.175C163.12 112.332 163.489 107.489 163.7 104.819L160.854 105.526C160.854 105.526 158.799 110.893 159.115 118.955C159.352 125.186 159.458 131.338 159.484 133.798C160.749 133.798 162.04 133.51 162.04 133.51L162.013 133.484Z" fill="#16365C"/>
<path d="M168.758 129.217C169.601 124.872 168.205 114.924 168.205 113.667C168.205 112.411 168.205 102.228 168.205 101.259L165.728 103.144C165.728 103.144 164.938 111.154 165.728 115.735C166.44 119.898 165.992 127.987 166.334 130.29C167.704 130.29 168.811 129.191 168.811 129.191L168.758 129.217Z" fill="#16365C"/>
<path d="M168.969 81.1807C168.969 81.1807 171.182 82.2801 169.917 86.0236C168.679 89.7671 167.783 92.1754 167.862 93.589C167.941 94.9765 168.442 99.6885 168.758 100.631C168.758 100.631 169.127 103.72 162.039 105.552C162.039 105.552 156.217 106.128 157.165 102.332C158.114 98.5105 158.483 92.3587 158.351 90.8927C158.193 89.4267 157.323 86.4948 161.012 84.5053C164.701 82.5157 166.624 81.0498 168.995 81.2068L168.969 81.1807Z" fill="#CAE0EA"/>
<path d="M167.335 81.3377C165.596 81.7566 163.805 82.9607 160.986 84.4791C157.297 86.4686 158.193 89.4005 158.325 90.8665C158.483 92.3325 158.114 98.4843 157.139 102.306C156.375 105.369 159.984 105.605 161.433 105.552C167.941 101.05 167.362 89.4005 167.335 81.3115V81.3377Z" fill="#CAE0EA"/>
<path d="M166.334 79.479C166.334 79.479 166.071 81.5732 166.808 82.9083C167.467 84.1125 162.487 85.1858 162.356 84.0863C162.356 83.9554 163.304 82.1491 162.092 80.0025C161.46 78.8769 166.334 79.479 166.334 79.479Z" fill="#EFB185"/>
<path d="M166.782 82.9869C166.229 82.0183 166.229 80.6047 166.281 79.9241L162.646 81.7304C162.777 81.7565 165.228 82.3848 165.781 84.1387C166.519 83.8246 167.045 83.4057 166.808 82.9869H166.782Z" fill="#DD9569"/>
<path d="M161.091 73.8769C161.091 73.8769 160.327 75.7879 160.485 77.4371C160.643 79.2172 160.38 79.5575 160.485 80.3429C160.538 80.6832 160.564 81.1805 160.88 81.4947C161.434 82.0182 162.567 82.2277 164.095 81.6518C165.965 80.9711 167.915 78.4319 167.125 76.1544C166.334 73.8769 163.884 71.9921 161.091 73.8507V73.8769Z" fill="#EFB185"/>
<path d="M167.045 78.6676C166.308 76.6257 164.437 74.1388 164.463 74.0079C164.463 73.9294 163.857 73.5367 163.172 73.144C162.514 73.1964 161.829 73.4058 161.091 73.9032C161.091 73.9032 160.88 74.4268 160.696 75.1336C161.144 75.631 162.04 76.1807 162.171 76.5995C162.487 77.5943 162.303 79.0603 162.013 79.7409C161.723 80.3954 162.909 81.3639 162.672 81.9399C162.672 81.966 162.672 81.9922 162.672 82.0184C163.093 81.9922 163.568 81.8875 164.121 81.7043C165.307 81.2592 166.545 80.0812 167.072 78.6676H167.045Z" fill="#E6A376"/>
<path d="M159.062 71.9137C158.456 71.5472 160.248 74.7409 161.881 75.5263C162.856 75.9975 162.777 77.5681 162.725 77.8561C162.672 78.1441 162.382 79.453 162.514 79.6362C162.751 79.9503 163.515 78.9556 163.884 79.0079C164.806 79.1912 164.437 80.0289 163.594 80.9451C162.698 81.8875 165.043 82.2802 166.15 81.4948C166.729 81.076 166.94 80.8142 167.704 79.3221C168.811 77.1493 169.101 73.9032 166.255 73.1179C163.541 72.3587 160.696 72.8823 159.062 71.8875V71.9137Z" fill="#131C24"/>
<path d="M166.15 81.5209C166.729 81.102 166.94 80.8403 167.704 79.3481C168.811 77.1753 169.18 74.5575 166.598 73.1439C163.989 71.7565 162.066 73.2225 159.089 71.9136C158.931 71.8612 161.038 74.6884 164.226 75.2905C165.596 75.5523 165.728 76.102 165.675 77.568C165.623 78.9816 165.992 80.8403 163.594 81.6518C164.49 82.2801 165.754 81.8088 166.176 81.4947L166.15 81.5209Z" fill="#1D2833"/>
<path d="M162.645 83.4319L160.933 84.5052C160.933 84.5052 166.071 86.233 167.546 83.7461C167.757 83.4057 167.493 82.2277 166.624 82.0183C166.624 82.0183 166.439 84.034 162.645 83.4319Z" fill="#9DBCC9"/>
<path d="M144.703 83.3795C144.703 83.3795 143.438 81.9397 143.491 81.4685C143.544 80.9711 142.859 80.7617 142.859 81.3376C142.859 81.9135 143.175 82.4895 143.175 82.4895C143.175 82.4895 141.489 81.0235 141.805 80.4214C142.121 79.8193 140.408 81.4947 140.804 82.5156C141.199 83.5366 141.462 84.7146 144.202 85.1073C144.202 85.1073 144.914 84.2957 144.677 83.3795H144.703Z" fill="#F1B287"/>
<path d="M161.223 85.8403C161.223 85.8403 162.303 88.2749 158.878 89.0079C155.453 89.7408 149.63 90.7094 148.181 89.6361C146.732 88.5628 143.122 85.1335 143.122 85.1335C143.122 85.1335 144.782 84.6361 144.703 83.1702L150.21 86.5733C150.21 86.5733 160.485 84.1387 161.223 85.8665V85.8403Z" fill="#9DBCC9"/>
<path d="M161.223 85.8401C160.511 84.1124 150.21 86.5469 150.21 86.5469L144.703 83.1438C144.703 83.4579 144.65 83.7459 144.545 83.9553C146.257 85.2642 149.419 87.6202 150.289 87.882C151.342 88.2223 159.484 86.9396 161.381 86.6517C161.381 86.1804 161.223 85.814 161.223 85.814V85.8401Z" fill="#CAE0EA"/>
</g>
<path d="M106.531 156.18H109.843V167.052C109.843 168.956 110.811 169.908 112.747 169.908C114.683 169.908 115.651 168.956 115.651 167.052V156.18H118.963V166.98C118.963 168.98 118.451 170.452 117.427 171.396C116.419 172.324 114.859 172.788 112.747 172.788C110.635 172.788 109.067 172.324 108.043 171.396C107.035 170.452 106.531 168.98 106.531 166.98V156.18ZM122.316 156.18H125.628V172.5H122.316V156.18ZM131.134 172.308L138.046 155.268L140.878 156.276L133.966 173.316L131.134 172.308ZM146.384 156.18H149.696V167.052C149.696 168.956 150.664 169.908 152.6 169.908C154.536 169.908 155.504 168.956 155.504 167.052V156.18H158.816V166.98C158.816 168.98 158.304 170.452 157.28 171.396C156.272 172.324 154.712 172.788 152.6 172.788C150.488 172.788 148.92 172.324 147.896 171.396C146.888 170.452 146.384 168.98 146.384 166.98V156.18ZM165.913 164.676L161.209 156.18H164.881L167.905 162.18L171.001 156.18H174.433L169.729 164.508L174.433 172.5H170.761L167.737 166.86L164.641 172.5H161.209L165.913 164.676Z" fill="white"/>
<defs>
<linearGradient id="paint0_linear_249_476" x1="3.47517" y1="200.559" x2="294.852" y2="34.6723" gradientUnits="userSpaceOnUse">
<stop stop-color="#B101D0"/>
<stop offset="1" stop-color="#340650"/>
</linearGradient>
<linearGradient id="paint1_linear_249_476" x1="99.7546" y1="87.385" x2="171.024" y2="87.385" gradientUnits="userSpaceOnUse">
<stop stop-color="#FFF2C9"/>
<stop offset="1" stop-color="#FFB7BB"/>
</linearGradient>
<linearGradient id="paint2_linear_249_476" x1="212.521" y1="87.1754" x2="76.1314" y2="-9.93583" gradientUnits="userSpaceOnUse">
<stop stop-color="#FFF2C9"/>
<stop offset="1" stop-color="#FFB7BB"/>
</linearGradient>
<linearGradient id="paint3_linear_249_476" x1="215.419" y1="83.1177" x2="79.0296" y2="-13.9934" gradientUnits="userSpaceOnUse">
<stop stop-color="#FFF2C9"/>
<stop offset="1" stop-color="#FFB7BB"/>
</linearGradient>
<linearGradient id="paint4_linear_249_476" x1="218.291" y1="79.0864" x2="81.9014" y2="-18.0249" gradientUnits="userSpaceOnUse">
<stop stop-color="#FFF2C9"/>
<stop offset="1" stop-color="#FFB7BB"/>
</linearGradient>
<linearGradient id="paint5_linear_249_476" x1="155.637" y1="167.044" x2="19.2743" y2="69.9334" gradientUnits="userSpaceOnUse">
<stop stop-color="#FFF2C9"/>
<stop offset="1" stop-color="#FFB7BB"/>
</linearGradient>
<linearGradient id="paint6_linear_249_476" x1="159.378" y1="161.809" x2="22.9891" y2="64.6975" gradientUnits="userSpaceOnUse">
<stop stop-color="#FFF2C9"/>
<stop offset="1" stop-color="#FFB7BB"/>
</linearGradient>
<linearGradient id="paint7_linear_249_476" x1="162.013" y1="158.118" x2="25.6238" y2="61.0065" gradientUnits="userSpaceOnUse">
<stop stop-color="#FFF2C9"/>
<stop offset="1" stop-color="#FFB7BB"/>
</linearGradient>
<linearGradient id="paint8_linear_249_476" x1="181.615" y1="130.552" x2="45.2525" y2="33.4414" gradientUnits="userSpaceOnUse">
<stop stop-color="#FFF2C9"/>
<stop offset="1" stop-color="#FFB7BB"/>
</linearGradient>
<linearGradient id="paint9_linear_249_476" x1="185.119" y1="125.683" x2="48.7303" y2="28.5721" gradientUnits="userSpaceOnUse">
<stop stop-color="#FFF2C9"/>
<stop offset="1" stop-color="#FFB7BB"/>
</linearGradient>
<linearGradient id="paint10_linear_249_476" x1="188.018" y1="121.573" x2="51.6548" y2="24.4622" gradientUnits="userSpaceOnUse">
<stop stop-color="#FFF2C9"/>
<stop offset="1" stop-color="#FFB7BB"/>
</linearGradient>
<linearGradient id="paint11_linear_249_476" x1="190.652" y1="117.882" x2="54.2897" y2="20.7711" gradientUnits="userSpaceOnUse">
<stop stop-color="#FFF2C9"/>
<stop offset="1" stop-color="#FFB7BB"/>
</linearGradient>
<linearGradient id="paint12_linear_249_476" x1="194.921" y1="111.888" x2="58.558" y2="14.7765" gradientUnits="userSpaceOnUse">
<stop stop-color="#FFF2C9"/>
<stop offset="1" stop-color="#FFB7BB"/>
</linearGradient>
<linearGradient id="paint13_linear_249_476" x1="197.45" y1="108.353" x2="61.0611" y2="11.2423" gradientUnits="userSpaceOnUse">
<stop stop-color="#FFF2C9"/>
<stop offset="1" stop-color="#FFB7BB"/>
</linearGradient>
<linearGradient id="paint14_linear_249_476" x1="199.953" y1="104.819" x2="63.5905" y2="7.70832" gradientUnits="userSpaceOnUse">
<stop stop-color="#FFF2C9"/>
<stop offset="1" stop-color="#FFB7BB"/>
</linearGradient>
<clipPath id="clip0_249_476">
<rect width="132.5" height="120" fill="white" transform="translate(73.75 15.5)"/>
</clipPath>
</defs>
</svg>
