<svg width="355" height="296" viewBox="0 0 355 296" fill="none" xmlns="http://www.w3.org/2000/svg">
<g clip-path="url(#clip0_142_476)">
<path d="M305.653 279.047C305.502 279.637 305.298 280.205 305.03 280.742C304.764 281.28 304.434 281.789 304.038 282.252C303.642 282.704 303.204 283.109 302.739 283.479C302.274 283.849 301.782 284.184 301.277 284.5C299.623 285.568 297.79 286.516 295.9 287.059C294.01 287.604 292.061 287.747 290.176 287.214C289.3 286.967 288.473 286.582 287.674 286.131C286.874 285.679 286.101 285.159 285.336 284.636C284.009 283.73 282.683 282.832 281.357 281.937C280.03 281.039 278.704 280.14 277.377 279.237C276.72 278.786 276.058 278.332 275.426 277.846C274.793 277.36 274.193 276.839 273.659 276.25C273.125 275.648 272.66 274.969 272.33 274.239C271.998 273.508 271.801 272.729 271.801 271.919C271.801 271.468 271.863 271.029 271.976 270.607C272.089 270.185 272.254 269.78 272.458 269.398C272.8 268.685 273.273 268.026 273.812 267.434C274.351 266.842 274.961 266.314 275.576 265.862C275.603 265.835 275.63 265.808 275.657 265.783C275.684 265.759 275.711 265.739 275.738 265.724C275.916 265.586 276.1 265.463 276.29 265.344C276.477 265.223 276.669 265.107 276.861 264.984C280.264 262.983 284.462 262.27 288.579 262.608C292.699 262.948 296.737 264.337 299.828 266.546C301.058 267.436 302.212 268.478 303.179 269.657C304.147 270.836 304.927 272.151 305.404 273.59C305.704 274.468 305.876 275.386 305.916 276.306C305.958 277.229 305.869 278.154 305.65 279.045L305.653 279.047Z" fill="url(#paint0_linear_142_476)"/>
<path d="M289.002 270.466C288.961 270.508 288.914 270.535 288.865 270.553C288.818 270.57 288.769 270.577 288.727 270.577C288.673 270.577 288.619 270.57 288.569 270.553C288.523 270.535 288.481 270.508 288.454 270.466C286.827 268.712 284.782 267.402 282.557 266.61C280.333 265.818 277.926 265.544 275.576 265.86C275.603 265.833 275.63 265.806 275.657 265.781C275.684 265.756 275.711 265.736 275.738 265.722C275.916 265.583 276.1 265.46 276.29 265.342C276.477 265.221 276.669 265.105 276.861 264.981C279.117 264.885 281.379 265.29 283.463 266.134C285.547 266.977 287.455 268.258 289 269.916C289.081 269.997 289.116 270.101 289.113 270.2C289.111 270.298 289.069 270.395 289 270.464L289.002 270.466Z" fill="url(#paint1_linear_142_476)"/>
<path d="M305.653 279.047C305.502 279.637 305.306 280.271 305.05 280.876C304.791 281.48 304.474 282.053 304.078 282.519C303.681 282.97 303.243 283.375 302.778 283.745C302.313 284.115 301.821 284.451 301.317 284.767C299.663 285.835 297.822 286.76 295.922 287.283C294.023 287.806 292.066 287.93 290.179 287.397C289.303 287.15 288.476 286.765 287.676 286.314C286.876 285.862 286.104 285.342 285.338 284.821C284.012 283.915 282.646 283.022 281.278 282.127C279.91 281.233 278.544 280.338 277.217 279.435C276.56 278.983 275.898 278.529 275.266 278.043C274.634 277.557 274.033 277.037 273.499 276.447C272.965 275.845 272.5 275.166 272.17 274.436C271.838 273.706 271.641 272.926 271.641 272.117C271.641 271.665 271.744 271.177 271.897 270.706C272.052 270.234 272.256 269.783 272.461 269.398C272.815 270.015 273.206 270.493 273.698 270.893C274.191 271.293 274.786 271.606 275.551 271.895C277.136 272.497 278.792 272.936 280.414 273.437C282.038 273.938 283.63 274.5 285.092 275.349C286.281 276.035 287.354 276.898 288.439 277.74C289.522 278.584 290.617 279.405 291.847 280.007C293.297 280.72 294.869 281.103 296.469 281.209C298.068 281.315 299.695 281.145 301.253 280.747C302.018 280.555 302.771 280.316 303.504 280.032C304.24 279.748 304.956 279.418 305.655 279.047H305.653Z" fill="url(#paint2_linear_142_476)"/>
<path d="M114.705 85.59C114.745 85.5801 114.782 85.5702 114.821 85.5604C114.86 85.5505 114.897 85.5406 114.937 85.5308C120.966 83.9468 126.714 82.005 132.175 79.4316C137.635 76.8583 142.811 73.6533 147.698 69.5428C152.273 65.6938 155.927 60.9418 158.683 55.6174C161.439 50.2955 163.297 44.4036 164.277 38.2847C165 33.7597 164.899 28.4205 163.624 23.5378C162.35 18.655 159.899 14.2263 155.927 11.5197C151.042 8.19375 145.099 7.50538 139.331 8.50463C133.56 9.50388 127.964 12.1883 123.769 15.6079C120.673 18.132 117.646 20.804 114.484 23.2491C111.319 25.6942 108.017 27.9123 104.365 29.5234C101.36 30.8508 98.2003 31.7316 95.0086 32.5236C91.8168 33.3181 88.5931 34.0237 85.458 35.0057C85.2882 35.06 85.1184 35.1143 84.9511 35.1686C84.7813 35.2228 84.6139 35.2796 84.4491 35.3388C80.5486 36.6835 77.0862 38.6129 74.2168 41.1912C71.3475 43.772 69.0687 47.0041 67.5356 50.9567C66.0025 54.9068 65.3012 58.9951 65.6063 62.9823C65.9115 66.9694 67.2231 70.8504 69.7184 74.3836C74.8321 81.6226 82.1826 85.437 90.2025 86.9346C98.2224 88.4323 106.912 87.6131 114.71 85.585L114.705 85.59Z" fill="url(#paint3_linear_142_476)"/>
<path d="M338.091 113.189C337.356 97.581 334.331 82.2666 328.713 68.0156C323.095 53.7645 314.883 40.5744 303.77 29.2175C293.038 18.2504 278.933 10.2441 264.069 6.65174C249.206 3.05938 233.584 3.88098 219.823 10.5723C209.015 15.8029 200.301 23.8906 192.257 32.8864C184.212 41.8821 176.837 51.7858 168.706 60.6507C156.815 73.6015 142.916 84.5661 127.75 93.3891C112.584 102.215 96.1455 108.901 79.1779 113.298C71.8003 115.2 64.1889 116.742 56.8851 118.933C49.5813 121.124 42.5875 123.964 36.4403 128.462C29.8452 133.265 24.7144 139.673 20.8803 146.895C17.0463 154.116 14.5117 162.155 13.1065 170.223C10.5989 184.634 11.4553 199.574 15.309 213.691C19.1627 227.809 26.0161 241.105 35.4978 252.228C54.7171 274.771 83.0513 287.204 113.266 292.235C143.48 297.263 175.577 294.887 202.316 287.816C220.517 283.002 240.477 274.991 258.724 264.305C276.971 253.619 293.508 240.257 304.858 224.74C316.424 208.93 325.194 190.82 330.842 171.775C336.49 152.73 339.014 132.747 338.091 113.189Z" fill="url(#paint4_linear_142_476)"/>
<path d="M22.9425 110.189C22.8933 110.189 22.8441 110.179 22.7973 110.162C22.7506 110.142 22.7063 110.115 22.6694 110.078C22.5931 110.001 22.5562 109.903 22.5562 109.801C22.5562 109.7 22.5931 109.602 22.6694 109.525L26.0013 106.184L29.3333 102.844C29.4072 102.77 29.5081 102.73 29.6065 102.73C29.7049 102.73 29.8058 102.767 29.8796 102.844C29.9559 102.92 29.9928 103.019 29.9928 103.12C29.9928 103.221 29.9559 103.32 29.8796 103.396L26.5477 106.737L23.2157 110.078C23.1787 110.115 23.1345 110.144 23.0877 110.162C23.0409 110.181 22.9917 110.189 22.9425 110.189Z" fill="white"/>
<path d="M29.6094 110.189C29.5602 110.189 29.511 110.179 29.4642 110.162C29.4175 110.142 29.3732 110.115 29.3363 110.078L26.0043 106.737L22.6723 103.396C22.596 103.32 22.5591 103.221 22.5591 103.12C22.5591 103.019 22.596 102.92 22.6723 102.844C22.7461 102.77 22.847 102.73 22.9454 102.73C23.0439 102.73 23.1448 102.767 23.2186 102.844L26.5506 106.184L29.8826 109.525C29.9589 109.602 29.9958 109.7 29.9958 109.801C29.9958 109.903 29.9589 110.001 29.8826 110.078C29.8457 110.115 29.8014 110.144 29.7546 110.162C29.7079 110.181 29.6586 110.189 29.6094 110.189Z" fill="white"/>
<path d="M6.98882 131.928C5.06197 131.928 3.31477 131.143 2.04989 129.873C0.785012 128.602 0 126.85 0 124.918C0 122.987 0.785012 121.235 2.04989 119.967C3.31477 118.698 5.06197 117.911 6.98882 117.911C8.91567 117.911 10.6629 118.696 11.9277 119.967C13.1926 121.235 13.9776 122.987 13.9776 124.918C13.9776 126.85 13.1951 128.605 11.9277 129.873C10.6629 131.141 8.91567 131.928 6.98882 131.928ZM6.98882 118.689C5.27607 118.689 3.72081 119.387 2.5962 120.514C1.47159 121.642 0.772707 123.199 0.772707 124.916C0.772707 126.633 1.46913 128.193 2.5962 129.323C3.72081 130.45 5.27607 131.151 6.98882 131.151C8.70157 131.151 10.2568 130.453 11.3814 129.323C12.506 128.195 13.2025 126.636 13.2025 124.916C13.2025 123.196 12.506 121.642 11.3814 120.514C10.2568 119.387 8.70157 118.689 6.98882 118.689Z" fill="white"/>
<path d="M320.004 230.306C319.955 230.306 319.906 230.296 319.859 230.279C319.812 230.259 319.768 230.232 319.729 230.195C319.655 230.119 319.615 230.02 319.615 229.919C319.615 229.818 319.652 229.719 319.729 229.643L323.061 226.302L326.393 222.961C326.469 222.887 326.57 222.848 326.668 222.848C326.767 222.848 326.865 222.885 326.944 222.961C327.018 223.038 327.057 223.136 327.057 223.237C327.057 223.339 327.02 223.437 326.944 223.514L323.612 226.855L320.28 230.195C320.24 230.232 320.196 230.262 320.149 230.279C320.103 230.299 320.053 230.306 320.004 230.306Z" fill="white"/>
<path d="M326.668 230.306C326.619 230.306 326.57 230.296 326.523 230.279C326.476 230.259 326.432 230.232 326.393 230.195L323.061 226.855L319.729 223.514C319.655 223.437 319.615 223.339 319.615 223.237C319.615 223.136 319.652 223.038 319.729 222.961C319.805 222.887 319.906 222.848 320.004 222.848C320.103 222.848 320.201 222.885 320.28 222.961L323.612 226.302L326.944 229.643C327.018 229.719 327.057 229.818 327.057 229.919C327.057 230.02 327.02 230.119 326.944 230.195C326.904 230.232 326.86 230.262 326.813 230.279C326.767 230.299 326.717 230.306 326.668 230.306Z" fill="white"/>
<path d="M149.822 173.556C149.74 173.556 149.659 173.534 149.588 173.495C149.516 173.455 149.455 173.393 149.413 173.317C145.828 166.813 143.78 159.752 142.508 152.478C141.236 145.202 140.736 137.714 140.246 130.349C140.054 127.475 139.86 124.551 139.619 121.632C139.378 118.711 139.09 115.795 138.711 112.935C138.46 111.048 138.169 109.17 137.837 107.302C137.505 105.434 137.131 103.577 136.718 101.729C130.533 101.894 124.431 101.544 118.613 100.737C112.796 99.9275 107.266 98.6618 102.226 96.9964C96.4236 95.0793 91.5019 92.7847 87.4045 90.0781C83.3072 87.3715 80.0318 84.2504 77.5242 80.6778C74.7951 76.7918 72.952 71.7906 72.6493 66.7154C72.3466 61.6402 73.5918 56.4935 77.037 52.3163C80.6963 47.8851 85.8616 45.7139 91.2189 45.2352C96.5761 44.7566 102.125 45.968 106.548 48.3045C110.551 50.4165 114.184 53.3575 117.57 57.2731C120.956 61.1862 124.091 66.0714 127.101 72.0645C129.401 76.6462 131.417 81.3415 133.144 86.1329C134.872 90.9269 136.312 95.8146 137.456 100.784C147.592 100.456 157.905 98.7358 167.454 95.3852C177.002 92.0347 185.787 87.0532 192.862 80.1966C195.999 77.1545 198.704 73.5202 201.172 69.6219C203.64 65.726 205.872 61.5687 208.067 57.4804C209.443 54.9218 210.841 52.3188 212.298 49.78C213.755 47.2436 215.27 44.7714 216.88 42.4768C221.656 35.6646 226.632 29.7974 231.886 24.8061C237.14 19.8148 242.67 15.6994 248.551 12.3883C259.322 6.32618 272.731 1.52484 286.63 0.306004C300.529 -0.912834 314.92 1.44836 327.65 9.70882C338.335 16.6419 346.301 27.0588 350.802 38.9831C355.3 50.9075 356.334 64.3394 353.157 77.305C352.064 81.7634 350.093 87.9192 346.685 93.5841C343.279 99.2465 338.438 104.418 331.61 106.905C331.494 106.944 331.368 106.935 331.258 106.885C331.149 106.836 331.056 106.745 331.014 106.624C330.97 106.503 330.98 106.377 331.031 106.268C331.083 106.16 331.174 106.071 331.295 106.027C337.917 103.614 342.622 98.5631 345.939 93.0216C349.254 87.4801 351.183 81.45 352.254 77.0805C355.384 64.3049 354.368 51.0728 349.938 39.3261C345.509 27.5794 337.666 17.3204 327.143 10.491C314.588 2.34151 300.381 0.0197992 286.65 1.23617C272.918 2.45007 259.662 7.20206 249.009 13.1976C243.191 16.4741 237.716 20.5476 232.514 25.4945C227.311 30.4389 222.377 36.2543 217.643 43.0098C216.05 45.2846 214.547 47.7371 213.1 50.2586C211.653 52.7802 210.263 55.3708 208.892 57.9171C206.68 62.0374 204.43 66.2269 201.935 70.1597C199.44 74.0926 196.701 77.7688 193.512 80.8604C186.373 87.7786 177.518 92.8119 167.894 96.2019C158.272 99.592 147.88 101.344 137.665 101.694C138.073 103.527 138.44 105.368 138.77 107.221C139.097 109.074 139.385 110.934 139.634 112.807C140.015 115.681 140.303 118.61 140.547 121.541C140.79 124.472 140.985 127.403 141.177 130.285C141.664 137.598 142.158 145.037 143.416 152.249C144.673 159.461 146.694 166.45 150.228 172.865C150.289 172.979 150.301 173.105 150.267 173.218C150.235 173.332 150.159 173.435 150.046 173.497C150.009 173.517 149.972 173.532 149.935 173.541C149.898 173.551 149.858 173.556 149.822 173.556ZM93.692 46.121C90.675 46.121 87.6678 46.6317 84.9265 47.7371C82.1851 48.8399 79.7095 50.5374 77.7555 52.906C74.4949 56.8611 73.3457 61.8425 73.6533 66.75C73.9609 71.6574 75.7253 76.4883 78.2871 80.1374C80.7356 83.6237 83.9421 86.6733 87.9632 89.3231C91.9842 91.973 96.8173 94.2207 102.522 96.1082C107.49 97.7489 112.943 98.9998 118.677 99.8017C124.411 100.604 130.423 100.956 136.511 100.808C135.374 95.9083 133.949 91.0848 132.241 86.3575C130.533 81.6301 128.543 76.9991 126.274 72.479C123.311 66.5772 120.23 61.771 116.908 57.9245C113.588 54.078 110.03 51.1913 106.117 49.1261C104.298 48.1664 102.288 47.4163 100.184 46.9056C98.0797 46.3949 95.8822 46.1259 93.6896 46.1259L93.692 46.121Z" fill="url(#paint5_linear_142_476)"/>
<path d="M303.588 96.7399C303.015 96.9052 302.488 97.1248 301.998 97.3913C301.508 97.6577 301.058 97.9735 300.635 98.3313C299.555 99.18 298.585 100.581 297.606 101.973C296.626 103.365 295.637 104.744 294.515 105.553C293.818 104.581 293.41 104.05 293.176 103.764C292.942 103.478 292.883 103.436 292.883 103.436C290.988 100.685 289.881 98.4547 289.153 96.0639C288.424 93.6706 288.075 91.117 287.696 87.7146C287.501 85.9677 287.071 83.7151 286.689 81.8992C286.308 80.0833 285.973 78.7016 285.973 78.7016C286.111 77.125 285.715 75.7877 285.242 74.7737C284.77 73.7596 284.223 73.0663 284.059 72.7801C285.058 71.8203 286.505 71.4083 288.011 71.3318C289.514 71.2528 291.072 71.507 292.29 71.8771C292.974 72.0819 293.74 72.5704 294.522 73.2193C295.305 73.8706 296.104 74.6848 296.857 75.5484C297.61 76.4119 298.314 77.3224 298.92 78.181C299.525 79.0371 300.03 79.839 300.386 80.483C300.386 80.483 300.34 81.1541 300.349 82.2791C300.359 83.4042 300.428 84.9784 300.659 86.7893C300.879 88.4474 301.179 89.9968 301.641 91.6005C302.102 93.2043 302.724 94.8623 303.585 96.7399H303.588Z" fill="url(#paint6_linear_142_476)"/>
<path d="M303.588 96.7398C303.015 96.9051 302.488 97.1247 301.998 97.3912C301.508 97.6577 301.058 97.9735 300.635 98.3312C300.593 98.2622 300.559 98.2005 300.529 98.1388C300.497 98.0771 300.47 98.0154 300.443 97.9463C299.294 95.4791 298.474 92.881 297.921 90.2213C297.367 87.5615 297.079 84.8401 296.998 82.1261C296.983 81.5364 296.983 80.9394 296.953 80.3521C296.921 79.7625 296.86 79.1802 296.725 78.6176C296.643 78.2204 296.402 77.8232 296.235 77.4259C296.068 77.0287 295.972 76.6315 296.176 76.2342C296.257 76.0837 296.353 75.9456 296.466 75.8296C296.579 75.7136 296.71 75.6174 296.86 75.5483C297.613 76.4119 298.317 77.3223 298.922 78.1809C299.527 79.0371 300.032 79.8389 300.389 80.4829C300.389 80.4829 300.364 81.154 300.396 82.2766C300.428 83.3992 300.519 84.9734 300.753 86.7843C300.972 88.4424 301.25 89.9943 301.688 91.598C302.126 93.2042 302.727 94.8622 303.588 96.7398Z" fill="url(#paint7_linear_142_476)"/>
<path opacity="0.78" d="M326.501 110.145C326.501 110.515 326.486 110.877 326.464 111.238C326.439 111.598 326.405 111.953 326.366 112.311C325.832 116.643 323.728 120.48 320.642 123.236C317.556 125.992 313.488 127.662 309.031 127.662C304.206 127.662 299.838 125.703 296.675 122.533C293.513 119.362 291.559 114.983 291.559 110.145C291.559 105.992 293.001 102.173 295.415 99.1727C297.829 96.17 301.213 93.984 305.094 93.0933C305.724 92.9428 306.371 92.8268 307.033 92.7478C307.693 92.6689 308.362 92.627 309.031 92.627C313.857 92.627 318.225 94.586 321.387 97.7564C324.549 100.927 326.503 105.306 326.503 110.145H326.501Z" fill="url(#paint8_linear_142_476)"/>
<path d="M316.19 110.145C316.19 112.128 315.388 113.925 314.091 115.225C312.794 116.525 311.002 117.329 309.024 117.329C307.045 117.329 305.254 116.525 303.957 115.225C302.66 113.925 301.858 112.128 301.858 110.145C301.858 108.161 302.66 106.365 303.957 105.065C305.254 103.764 307.045 102.96 309.024 102.96C311.002 102.96 312.794 103.764 314.091 105.065C315.388 106.365 316.19 108.161 316.19 110.145Z" fill="url(#paint9_linear_142_476)"/>
<path d="M318.572 108.41C318.587 108.472 318.599 108.534 318.614 108.593C318.626 108.654 318.641 108.714 318.653 108.775C318.747 109.232 318.833 109.693 318.944 110.147C319.054 110.601 319.187 111.048 319.374 111.475C319.561 111.901 319.81 112.313 320.12 112.661C320.43 113.009 320.799 113.295 321.23 113.473C321.921 113.759 322.635 113.663 323.26 113.342C323.885 113.022 324.417 112.479 324.744 111.869C325.128 111.156 325.3 110.374 325.339 109.572C325.379 108.77 325.285 107.951 325.14 107.162C324.887 105.79 324.483 104.438 323.919 103.152C323.356 101.867 322.632 100.646 321.737 99.5404C320.841 98.435 319.77 97.4456 318.57 96.6388C317.369 95.832 316.035 95.2078 314.617 94.8278C314.123 94.6946 313.609 94.591 313.094 94.5564C312.58 94.5219 312.066 94.5515 311.571 94.6872C310.744 94.9117 310.131 95.4027 309.821 96.0195C309.511 96.6364 309.504 97.3815 309.893 98.1143C310.213 98.7163 310.616 99.0913 311.091 99.38C311.566 99.6687 312.11 99.871 312.705 100.125C314.285 100.796 315.565 102.057 316.544 103.552C317.524 105.05 318.2 106.784 318.574 108.408L318.572 108.41Z" fill="white"/>
<path d="M177.811 235.702V250.452V265.201H175.459H173.109V250.452V235.702H175.459H177.811Z" fill="url(#paint10_linear_142_476)"/>
<path d="M177.988 235.702L177.9 242.487L177.811 249.272C177.462 249.561 177.11 249.835 176.756 250.101C176.401 250.368 176.042 250.629 175.675 250.888C175.259 251.189 174.834 251.49 174.403 251.789C173.975 252.087 173.539 252.381 173.106 252.67L172.951 244.185L172.796 235.7H177.984L177.988 235.702Z" fill="url(#paint11_linear_142_476)"/>
<path d="M303.807 87.4184V229.642C303.807 232.041 302.837 234.222 301.265 235.801C299.692 237.38 297.519 238.359 295.113 238.359H54.8229C52.4309 238.359 50.2555 237.38 48.6806 235.801C47.1056 234.222 46.1287 232.041 46.1287 229.642V87.4184C46.1287 86.1156 46.4166 84.882 46.9284 83.7717C47.4403 82.6614 48.1786 81.6745 49.0817 80.8652C49.847 80.1941 50.7354 79.6513 51.7074 79.2788C52.677 78.9062 53.7302 78.699 54.8253 78.699H295.113C297.519 78.699 299.692 79.6711 301.265 81.2477C302.837 82.8243 303.807 85.0029 303.807 87.4159V87.4184Z" fill="url(#paint12_linear_142_476)"/>
<path d="M303.807 124.455V165.439C302.727 165.809 301.607 166.09 300.455 166.278C299.304 166.465 298.12 166.561 296.917 166.561C290.969 166.561 285.582 164.141 281.684 160.233C277.783 156.322 275.372 150.921 275.372 144.96C275.372 144.302 275.399 143.645 275.458 142.994C275.517 142.343 275.606 141.699 275.729 141.067C275.374 140.778 275.037 140.47 274.737 140.189C274.437 139.907 274.168 139.653 273.952 139.476C267.965 134.568 262.59 128.55 258.636 121.773C254.681 114.995 252.144 107.455 251.831 99.5056C251.708 96.5029 251.716 93.2831 252.114 90.1299C252.513 86.9767 253.308 83.8926 254.757 81.1663C257.203 81.1934 259.598 81.2205 261.928 81.2526C264.259 81.2822 266.527 81.3168 268.73 81.3587C264.834 85.9651 263.924 92.5429 264.687 99.1207C265.45 105.696 267.883 112.269 270.672 116.86C271.479 118.176 272.367 119.493 273.314 120.776C274.262 122.061 275.266 123.315 276.304 124.507C276.605 124.877 276.912 125.247 277.227 125.609C277.542 125.972 277.862 126.33 278.192 126.673C278.63 127.139 279.223 127.625 279.838 128.138C280.453 128.652 281.088 129.194 281.608 129.769C283.549 127.768 285.88 126.157 288.473 125.047C291.067 123.937 293.924 123.327 296.919 123.327C298.122 123.327 299.304 123.423 300.458 123.611C301.609 123.798 302.731 124.08 303.809 124.45L303.807 124.455Z" fill="#612FC5"/>
<path opacity="0.25" d="M279.88 238.362H54.8229C52.4309 238.362 50.2555 237.382 48.6806 235.803C47.1056 234.224 46.1287 232.043 46.1287 229.645V87.4183C46.1287 86.1156 46.4166 84.882 46.9284 83.7717C47.4403 82.6614 48.1786 81.6745 49.0817 80.8652C49.6551 83.4139 50.3736 85.9651 51.198 88.4891C52.0224 91.0156 52.9526 93.515 53.9492 95.9699V209.411C53.9492 211.523 54.8032 213.435 56.1837 214.819C57.5642 216.203 59.4714 217.059 61.5779 217.059H186.151C201.12 222.912 216.528 227.592 232.206 231.133C247.884 234.673 263.83 237.071 279.882 238.359L279.88 238.362Z" fill="#2B096D"/>
<path d="M294.805 93.9124V210.568C294.805 212.695 293.951 214.622 292.571 216.016C291.19 217.41 289.283 218.273 287.176 218.273H60.3967C58.2902 218.273 56.3831 217.41 55.0025 216.016C53.622 214.622 52.7681 212.695 52.7681 210.568V93.9124C52.7681 91.7856 53.622 89.8586 55.0025 88.4646C56.3831 87.0706 58.2902 86.207 60.3967 86.207H287.179C289.285 86.207 291.193 87.0706 292.573 88.4646C293.954 89.8586 294.808 91.7856 294.808 93.9124H294.805Z" fill="url(#paint13_linear_142_476)"/>
<path d="M186.151 217.062H61.5754C59.4689 217.062 57.5618 216.206 56.1812 214.821C54.8007 213.437 53.9468 211.525 53.9468 209.413V95.9724C55.096 98.795 56.3313 101.571 57.6011 104.275C58.8685 106.979 60.1678 109.609 61.4401 112.145C65.3774 119.945 69.8956 127.45 74.9132 134.605C79.9309 141.76 85.4481 148.565 91.3812 154.968C102.194 166.633 114.336 176.973 127.379 186.07C140.421 195.167 154.367 203.013 168.79 209.687C171.647 211.002 174.526 212.278 177.42 213.509C180.314 214.74 183.228 215.924 186.154 217.062H186.151Z" fill="#2B096D"/>
<path d="M295.986 93.6137V209.411C295.986 211.523 295.132 213.435 293.752 214.819C292.371 216.203 290.464 217.059 288.358 217.059H186.151C183.225 215.922 180.314 214.735 177.418 213.506C174.524 212.275 171.644 211.002 168.787 209.685C154.364 203.008 140.419 195.162 127.376 186.068C114.334 176.973 102.194 166.63 91.3788 154.965C85.4457 148.565 79.9285 141.758 74.9108 134.603C69.8931 127.448 65.375 119.942 61.4376 112.143C60.1654 109.607 58.8685 106.976 57.5987 104.272C56.3314 101.568 55.0936 98.7925 53.9443 95.9699V93.6112C53.9443 91.4992 54.7982 89.5871 56.1788 88.2029C57.5593 86.8188 59.4665 85.9626 61.573 85.9626H288.355C290.462 85.9626 292.369 86.8188 293.749 88.2029C295.13 89.5871 295.984 91.4992 295.984 93.6112L295.986 93.6137Z" fill="url(#paint14_linear_142_476)"/>
<path d="M281.652 229.378C281.652 230.151 281.964 230.851 282.469 231.36C282.973 231.866 283.672 232.179 284.445 232.179C285.218 232.179 285.914 231.866 286.421 231.36C286.925 230.854 287.238 230.153 287.238 229.378C287.238 228.604 286.925 227.906 286.421 227.397C285.917 226.891 285.218 226.578 284.445 226.578C283.672 226.578 282.976 226.891 282.469 227.397C281.964 227.903 281.652 228.604 281.652 229.378Z" fill="white"/>
<path d="M271.639 229.378C271.639 230.151 271.951 230.851 272.456 231.36C272.96 231.866 273.659 232.179 274.432 232.179C275.204 232.179 275.901 231.866 276.408 231.36C276.912 230.854 277.225 230.153 277.225 229.378C277.225 228.604 276.912 227.906 276.408 227.397C275.903 226.889 275.204 226.578 274.432 226.578C273.659 226.578 272.963 226.891 272.456 227.397C271.951 227.903 271.639 228.604 271.639 229.378Z" fill="white"/>
<path d="M261.835 229.378C261.835 230.151 262.147 230.851 262.652 231.36C263.156 231.866 263.855 232.179 264.628 232.179C265.4 232.179 266.097 231.866 266.604 231.36C267.108 230.854 267.421 230.153 267.421 229.378C267.421 228.604 267.108 227.906 266.604 227.397C266.099 226.889 265.4 226.578 264.628 226.578C263.855 226.578 263.159 226.891 262.652 227.397C262.147 227.903 261.835 228.604 261.835 229.378Z" fill="white"/>
<path d="M265.664 86.8706H252.702C252.729 86.7201 252.764 86.5696 252.801 86.419C252.838 86.2685 252.88 86.118 252.921 85.9675H265.991L265.826 86.419C265.772 86.5696 265.718 86.7201 265.661 86.8706H265.664Z" fill="#2B096D"/>
<path d="M295.986 123.359V166.537C290.245 166.29 285.09 163.796 281.371 159.912C277.653 156.029 275.369 150.759 275.369 144.96C275.369 144.302 275.396 143.645 275.455 142.994C275.514 142.343 275.603 141.699 275.726 141.067C275.372 140.778 275.035 140.47 274.734 140.189C274.434 139.907 274.166 139.653 273.949 139.476C267.974 134.583 262.615 128.585 258.665 121.832C254.713 115.077 252.171 107.566 251.829 99.6438H264.763C265.174 102.836 265.974 106.024 267.007 108.973C268.043 111.919 269.316 114.628 270.669 116.861C271.476 118.176 272.365 119.493 273.312 120.776C274.259 122.062 275.263 123.315 276.302 124.507C276.602 124.877 276.91 125.247 277.225 125.609C277.54 125.972 277.86 126.33 278.189 126.673C278.627 127.139 279.221 127.625 279.836 128.138C280.451 128.652 281.086 129.194 281.605 129.769C283.451 127.877 285.646 126.33 288.08 125.225C290.513 124.119 293.186 123.463 295.989 123.354L295.986 123.359Z" fill="#2B096D"/>
<path d="M270.585 115.299V198.473C270.585 199.83 270.032 201.049 269.143 201.93C268.255 202.811 267.032 203.351 265.691 203.351H214.643C213.304 203.351 212.093 202.811 211.217 201.93C210.341 201.049 209.802 199.83 209.802 198.473V115.299H270.585Z" fill="url(#paint15_linear_142_476)"/>
<path d="M270.585 109.215V115.302H209.802V109.215C209.802 107.873 210.341 106.651 211.217 105.768C212.093 104.885 213.302 104.334 214.643 104.334H265.691C267.029 104.334 268.255 104.882 269.143 105.768C270.032 106.654 270.585 107.873 270.585 109.215Z" fill="url(#paint16_linear_142_476)"/>
<path d="M269.791 115.299H255.436C254.683 113.544 254.041 111.748 253.519 109.917C252.995 108.087 252.594 106.224 252.318 104.332H265.634C266.112 106.347 266.727 108.306 267.436 110.154C268.144 112.002 268.944 113.734 269.791 115.299Z" fill="#C689EB"/>
<path d="M264.096 109.816C264.096 110.268 264.278 110.675 264.574 110.971C264.869 111.267 265.275 111.45 265.725 111.45C266.176 111.45 266.582 111.267 266.877 110.971C267.172 110.675 267.354 110.268 267.354 109.816C267.354 109.365 267.172 108.958 266.877 108.662C266.582 108.365 266.176 108.183 265.725 108.183C265.275 108.183 264.869 108.365 264.574 108.662C264.278 108.958 264.096 109.365 264.096 109.816Z" fill="#FFD9F8"/>
<path d="M258.254 109.816C258.254 110.268 258.436 110.675 258.732 110.971C259.027 111.267 259.433 111.45 259.883 111.45C260.334 111.45 260.74 111.267 261.035 110.971C261.33 110.675 261.512 110.268 261.512 109.816C261.512 109.365 261.33 108.958 261.035 108.662C260.74 108.365 260.334 108.183 259.883 108.183C259.433 108.183 259.027 108.365 258.732 108.662C258.436 108.958 258.254 109.365 258.254 109.816Z" fill="#FFD9F8"/>
<path d="M252.533 109.816C252.533 110.268 252.715 110.675 253.01 110.971C253.305 111.267 253.711 111.45 254.162 111.45C254.612 111.45 255.018 111.267 255.313 110.971C255.609 110.675 255.791 110.268 255.791 109.816C255.791 109.365 255.609 108.958 255.313 108.662C255.018 108.365 254.612 108.183 254.162 108.183C253.711 108.183 253.305 108.365 253.01 108.662C252.715 108.958 252.533 109.365 252.533 109.816Z" fill="#FFD9F8"/>
<path d="M225.572 125.585H220.377H215.179V124.137V122.691H220.377H225.572V124.137V125.585Z" fill="url(#paint17_linear_142_476)"/>
<path d="M262.41 131.982H240.127H217.847V130.537V129.088H240.127H262.41V130.537V131.982Z" fill="url(#paint18_linear_142_476)"/>
<path d="M262.41 138.383H240.127H217.847V136.934V135.489H240.127H262.41V136.934V138.383Z" fill="#E4D6F8"/>
<path d="M230.269 144.78H222.724H215.179V143.332V141.886H222.724H230.269V143.332V144.78Z" fill="#E26BA0"/>
<path d="M262.41 151.178H240.127H217.847V149.732V148.284H240.127H262.41V149.732V151.178Z" fill="url(#paint19_linear_142_476)"/>
<path d="M258.52 157.578H238.183H217.847V156.13V154.684H238.183H258.52V156.13V157.578Z" fill="white"/>
<path d="M270.585 116.725V136.517C267.386 133.556 264.426 130.268 261.852 126.71C259.278 123.152 257.09 119.328 255.436 115.299H269.791C269.914 115.545 270.044 115.792 270.177 116.031C270.31 116.271 270.448 116.505 270.583 116.725H270.585Z" fill="#A357D6"/>
<path d="M177.334 115.299V198.175C177.334 199.613 176.753 200.906 175.816 201.844C174.88 202.779 173.588 203.356 172.166 203.356H86.2258C84.8059 203.356 83.5139 202.779 82.5763 201.844C81.6387 200.909 81.058 199.613 81.058 198.175V115.299H177.331H177.334Z" fill="white"/>
<path d="M177.334 109.523V115.299H81.0609V109.523C81.0609 108.084 81.6416 106.792 82.5792 105.854C83.5143 104.919 84.8063 104.342 86.2286 104.342H172.169C173.589 104.342 174.881 104.919 175.818 105.854C176.756 106.789 177.337 108.084 177.337 109.523H177.334Z" fill="url(#paint20_linear_142_476)"/>
<path d="M169.619 109.816C169.619 110.268 169.801 110.675 170.096 110.971C170.392 111.267 170.798 111.45 171.248 111.45C171.698 111.45 172.105 111.267 172.4 110.971C172.695 110.675 172.877 110.268 172.877 109.816C172.877 109.365 172.695 108.958 172.4 108.662C172.105 108.366 171.698 108.183 171.248 108.183C170.798 108.183 170.392 108.366 170.096 108.662C169.801 108.958 169.619 109.365 169.619 109.816Z" fill="white"/>
<path d="M163.777 109.816C163.777 110.268 163.959 110.675 164.254 110.971C164.55 111.267 164.956 111.45 165.406 111.45C165.856 111.45 166.262 111.267 166.558 110.971C166.853 110.675 167.035 110.268 167.035 109.816C167.035 109.365 166.853 108.958 166.558 108.662C166.262 108.366 165.856 108.183 165.406 108.183C164.956 108.183 164.55 108.366 164.254 108.662C163.959 108.958 163.777 109.365 163.777 109.816Z" fill="white"/>
<path d="M158.056 109.816C158.056 110.268 158.238 110.675 158.533 110.971C158.828 111.267 159.234 111.45 159.685 111.45C160.135 111.45 160.541 111.267 160.836 110.971C161.132 110.675 161.314 110.268 161.314 109.816C161.314 109.365 161.132 108.958 160.836 108.662C160.541 108.366 160.135 108.183 159.685 108.183C159.234 108.183 158.828 108.366 158.533 108.662C158.238 108.958 158.056 109.365 158.056 109.816Z" fill="white"/>
<path d="M102.16 124.84H93.8126H85.4678V123.394V121.946H93.8126H102.16V123.394V124.84Z" fill="url(#paint21_linear_142_476)"/>
<path d="M161.316 131.237H125.535H89.7522V129.792V128.343H125.535H161.316V129.792V131.237Z" fill="url(#paint22_linear_142_476)"/>
<path d="M161.316 137.638H125.535H89.7522V136.189V134.743H125.535H161.316V136.189V137.638Z" fill="#E4D6F8"/>
<path d="M109.7 144.035H97.5826H85.4678V142.589V141.141H97.5826H109.7V142.589V144.035Z" fill="url(#paint23_linear_142_476)"/>
<path d="M161.316 150.433H125.535H89.7522V148.987V147.539H125.535H161.316V148.987V150.433Z" fill="url(#paint24_linear_142_476)"/>
<path d="M155.071 156.833H122.413H89.7522V155.385V153.939H122.413H155.071V155.385V156.833Z" fill="#E4D6F8"/>
<path d="M102.16 163.381H93.8126H85.4678V161.935V160.487H93.8126H102.16V161.935V163.381Z" fill="url(#paint25_linear_142_476)"/>
<path d="M161.316 169.781H125.535H89.7522V168.333V166.887H125.535H161.316V168.333V169.781Z" fill="url(#paint26_linear_142_476)"/>
<path d="M161.316 176.179H125.535H89.7522V174.733V173.285H125.535H161.316V174.733V176.179Z" fill="#E4D6F8"/>
<path d="M109.7 182.579H97.5826H85.4678V181.131V179.683H97.5826H109.7V181.131V182.579Z" fill="#E26BA0"/>
<path d="M161.316 188.977H125.535H89.7522V187.529V186.083H125.535H161.316V187.529V188.977Z" fill="url(#paint27_linear_142_476)"/>
<path d="M155.071 195.374H122.413H89.7522V193.929V192.48H122.413H155.071V193.929V195.374Z" fill="#E4D6F8"/>
<path d="M295.986 93.6137V99.6437H53.9468V93.6137C53.9468 91.5017 54.8007 89.5895 56.1812 88.2054C57.5618 86.8212 59.4689 85.9651 61.5754 85.9651H288.358C290.464 85.9651 292.371 86.8212 293.752 88.2054C295.132 89.5895 295.986 91.5017 295.986 93.6137Z" fill="url(#paint28_linear_142_476)"/>
<path d="M271.624 78.7014C271.063 79.0986 270.544 79.5181 270.061 79.9597C269.579 80.4014 269.136 80.8677 268.725 81.3611C266.525 81.3192 264.254 81.2847 261.923 81.255C259.593 81.223 257.201 81.1958 254.752 81.1687C254.971 80.7295 255.21 80.3051 255.466 79.8931C255.722 79.4811 255.995 79.0838 256.283 78.7014H271.621H271.624Z" fill="#ED83E8"/>
<path d="M60.4557 78.7014H256.285C255.997 79.0863 255.724 79.4835 255.468 79.8931C255.212 80.3051 254.974 80.7295 254.755 81.1687C218.649 80.7024 170.074 80.0856 130.526 79.5847C90.9777 79.0838 60.4557 78.7014 60.4557 78.7014Z" fill="#FFD7F7"/>
<path d="M303.807 87.4184V102.962C303.807 92.8612 302.18 87.5491 299.436 84.7488C296.693 81.9484 292.829 81.6622 288.36 81.6054C285.584 81.5635 282.543 81.524 279.262 81.4821C275.982 81.4401 272.461 81.4007 268.727 81.3587C269.138 80.8652 269.581 80.3989 270.064 79.9573C270.546 79.5156 271.065 79.0962 271.626 78.699H295.113C297.519 78.699 299.692 79.6711 301.265 81.2477C302.837 82.8243 303.807 85.0029 303.807 87.4159V87.4184Z" fill="#FFD7F7"/>
<path d="M295.986 94.011V99.6438H53.9468V94.011C53.9468 92.0396 54.8007 90.2533 56.1812 88.9604C57.5618 87.6676 59.4689 86.8682 61.5754 86.8682H288.358C290.464 86.8682 292.371 87.6676 293.752 88.9604C295.132 90.2533 295.986 92.0396 295.986 94.011Z" fill="url(#paint29_linear_142_476)"/>
<path d="M264.761 99.6462H251.826V99.5081C251.73 97.48 251.711 95.3556 251.834 93.219C251.957 91.0848 252.223 88.9382 252.702 86.8682H265.664C265.007 88.8 264.637 90.8849 264.505 93.0388C264.372 95.1952 264.475 97.4207 264.761 99.6413V99.6462Z" fill="url(#paint30_linear_142_476)"/>
<path d="M329.343 133.036C329.343 133.599 329.323 134.154 329.274 134.701C329.225 135.249 329.151 135.792 329.043 136.325C328.278 140.986 325.878 145.084 322.458 148.017C319.037 150.951 314.593 152.72 309.74 152.72C304.326 152.72 299.424 150.519 295.878 146.959C292.329 143.399 290.137 138.476 290.137 133.036C290.137 128.087 291.955 123.571 294.96 120.125C297.965 116.678 302.156 114.299 306.898 113.628C307.363 113.547 307.835 113.485 308.31 113.443C308.785 113.401 309.265 113.382 309.742 113.382C315.156 113.382 320.058 115.582 323.604 119.138C327.153 122.696 329.346 127.608 329.346 133.036H329.343Z" fill="white"/>
<path d="M276.723 70.937C277.466 70.8679 277.803 70.7643 278.125 70.7495C278.448 70.7347 278.758 70.8087 279.447 71.0949C282.476 72.3606 284.12 74.2629 285.001 75.8469C285.882 77.4334 286.003 78.7015 285.983 78.704C285.983 78.704 286.16 78.704 286.374 78.704C286.588 78.704 286.834 78.704 286.975 78.7089C288.714 78.7534 290.563 78.6966 292.339 78.6941C294.118 78.6941 295.826 78.7435 297.293 79.005C297.313 77.9367 297.094 76.8437 296.693 75.8197C296.291 74.7958 295.708 73.8361 294.999 73.0416C294.291 72.2447 293.461 71.5662 292.561 70.9987C291.66 70.4287 290.683 69.9698 289.682 69.6121C287.74 68.9188 285.675 68.5931 283.613 68.6202C281.551 68.6474 279.491 69.0298 277.557 69.7453C277.269 69.8514 276.986 69.9772 276.735 70.1425C276.484 70.3078 276.267 70.5151 276.117 70.7816L276.42 70.858L276.723 70.9345V70.937Z" fill="url(#paint31_linear_142_476)"/>
<path d="M300.389 80.4828C300.02 80.2213 299.648 79.9943 299.247 79.792C298.846 79.5897 298.413 79.417 297.921 79.2665C297.711 79.1875 297.433 79.1209 297.207 79.0765C296.98 79.0321 296.808 79.0049 296.808 79.0049C296.808 79.0049 296.759 78.7853 296.697 78.5164C296.636 78.2475 296.56 77.9317 296.506 77.7392C296.437 77.4925 296.368 77.2532 296.294 77.0188C296.218 76.7868 296.136 76.5598 296.04 76.3403C295.863 75.8887 295.652 75.4496 295.406 75.0351C295.159 74.6206 294.879 74.2307 294.564 73.873C293.661 72.9009 292.588 72.099 291.419 71.4674C290.25 70.8358 288.985 70.3768 287.701 70.0906C286.701 69.871 285.656 69.7674 284.61 69.7847C283.564 69.802 282.518 69.9377 281.519 70.1992C281.165 70.2954 280.808 70.4262 280.458 70.5767C280.109 70.7272 279.767 70.8999 279.44 71.0775C272.714 74.7933 270.484 81.9262 270.74 89.4563C270.996 96.984 273.738 104.906 276.952 110.199C277.759 111.514 278.647 112.831 279.595 114.117C280.542 115.402 281.546 116.656 282.584 117.847C282.885 118.217 283.192 118.588 283.507 118.95C283.822 119.313 284.142 119.671 284.472 120.014C285.183 120.769 286.325 121.583 287.295 122.496C288.264 123.406 289.064 124.415 289.093 125.553C289.108 126.004 288.99 126.458 288.803 126.964C288.616 127.472 288.355 128.032 288.082 128.706C287.713 129.555 287.329 131.057 286.775 132.434C286.222 133.811 285.498 135.067 284.445 135.422C283.776 135.641 282.961 135.19 282.196 134.583C281.43 133.976 280.712 133.216 280.234 132.819C274.247 127.911 268.873 121.894 264.918 115.116C260.963 108.338 258.426 100.798 258.114 92.8489C257.964 89.0246 258.018 84.845 258.823 80.8973C259.625 76.9497 261.178 73.234 264.02 70.3423C265.085 69.274 266.269 68.3537 267.536 67.5765C268.804 66.7993 270.157 66.1602 271.565 65.6545C273.191 65.0524 274.88 64.6133 276.582 64.3123C278.285 64.0112 280.001 63.8459 281.681 63.7917C285.072 63.6954 289.467 64.9784 293.156 67.7294C296.845 70.4805 299.825 74.702 300.384 80.4878L300.389 80.4828Z" fill="url(#paint32_linear_142_476)"/>
<path opacity="0.78" d="M329.043 136.325C328.278 140.986 325.878 145.084 322.458 148.017C319.037 150.951 314.593 152.72 309.74 152.72C304.326 152.72 299.424 150.519 295.878 146.959C292.329 143.399 290.137 138.476 290.137 133.036C290.137 128.087 291.955 123.572 294.96 120.125C297.965 116.678 302.156 114.3 306.898 113.628C307.69 115.082 309.405 116.103 311.268 116.935C313.131 117.766 315.142 118.412 316.522 119.111C318.506 120.206 320.26 121.716 321.682 123.493C323.105 125.272 324.19 127.319 324.835 129.5C325.066 130.31 325.251 131.151 325.487 131.97C325.723 132.789 326.009 133.584 326.447 134.297C326.747 134.776 327.131 135.215 327.571 135.568C328.012 135.92 328.511 136.187 329.045 136.325H329.043Z" fill="url(#paint33_linear_142_476)"/>
<path d="M289.096 125.553C289.111 126.004 288.993 126.458 288.805 126.964C288.618 127.472 288.358 128.032 288.084 128.706C287.715 129.555 287.331 131.057 286.778 132.434C286.224 133.811 285.501 135.067 284.447 135.422C283.778 135.642 282.963 135.19 282.198 134.583C281.433 133.976 280.714 133.216 280.237 132.819C274.25 127.912 268.875 121.894 264.92 115.116C260.966 108.339 258.429 100.799 258.116 92.8489C257.966 89.0247 258.02 84.8451 258.825 80.8974C259.627 76.9498 261.18 73.234 264.022 70.3424C265.088 69.274 266.271 68.3538 267.539 67.5766C268.806 66.7994 270.16 66.1603 271.567 65.6545C270.391 66.5995 269.338 67.6975 268.42 68.899C267.499 70.1006 266.714 71.4107 266.072 72.7825C265.13 74.7563 264.453 76.8387 263.961 78.9754C263.469 81.1096 263.161 83.2956 262.957 85.4767C262.684 88.5608 262.629 91.6992 262.927 94.7907C263.225 97.8822 263.875 100.924 265.009 103.816C266.158 106.708 267.839 109.429 269.963 111.687C272.084 113.944 274.648 115.74 277.559 116.782C278.367 117.07 279.193 117.295 280.035 117.47C280.877 117.645 281.731 117.769 282.592 117.85C282.892 118.22 283.2 118.59 283.515 118.953C283.83 119.315 284.15 119.673 284.479 120.016C285.191 120.771 286.332 121.585 287.302 122.498C288.271 123.409 289.071 124.418 289.101 125.555L289.096 125.553Z" fill="url(#paint34_linear_142_476)"/>
<path d="M324.751 138.299C324.751 139.258 324.69 140.203 324.567 141.134C324.444 142.061 324.259 142.974 324.013 143.865C322.797 148.484 320.09 152.493 316.438 155.348C312.789 158.202 308.195 159.902 303.204 159.902C297.256 159.902 291.869 157.482 287.971 153.574C284.071 149.663 281.659 144.262 281.659 138.301C281.659 135.437 282.213 132.703 283.224 130.196C284.236 127.692 285.705 125.414 287.538 123.47C289.492 121.373 291.864 119.673 294.522 118.499C297.177 117.324 300.118 116.673 303.206 116.673C309.154 116.673 314.541 119.093 318.439 123.006C322.34 126.919 324.751 132.328 324.751 138.304V138.299Z" fill="url(#paint35_linear_142_476)"/>
<path d="M324.013 143.865C322.797 148.484 320.09 152.493 316.438 155.348C312.789 158.202 308.195 159.902 303.204 159.902C297.256 159.902 291.869 157.482 287.971 153.574C284.071 149.663 281.659 144.262 281.659 138.301C281.659 135.437 282.213 132.703 283.224 130.196C284.236 127.692 285.705 125.414 287.538 123.47C287.688 125.937 288.126 128.397 288.906 130.731C289.687 133.065 290.806 135.271 292.325 137.233C295.017 140.687 298.742 143.093 302.882 144.504C307.021 145.915 311.573 146.335 315.922 145.814C317.302 145.649 318.67 145.395 320.019 145.066C321.37 144.738 322.701 144.334 324.015 143.867L324.013 143.865Z" fill="url(#paint36_linear_142_476)"/>
<path d="M306.268 118.4C307.926 118.763 309.553 119.291 311.118 119.972C312.683 120.653 314.187 121.487 315.604 122.464C316.655 123.187 317.666 123.998 318.574 124.909C319.482 125.822 320.292 126.833 320.939 127.966C321.444 128.844 321.865 129.885 322.187 130.958C322.509 132.032 322.728 133.137 322.827 134.144C322.869 134.58 322.886 135.025 322.849 135.461C322.812 135.898 322.723 136.327 322.549 136.729C322.374 137.132 322.103 137.502 321.766 137.781C321.429 138.059 321.025 138.244 320.59 138.279C319.672 138.348 319.121 138.022 318.759 137.499C318.4 136.976 318.23 136.251 318.082 135.523C317.738 133.838 316.889 132.217 315.781 130.773C314.674 129.333 313.311 128.069 311.938 127.107C310.473 126.078 308.884 125.289 307.242 124.615C305.598 123.942 303.903 123.384 302.225 122.819C301.831 122.686 301.427 122.548 301.053 122.362C300.679 122.177 300.332 121.943 300.052 121.625C298.669 120.056 299.847 119.167 301.56 118.713C303.273 118.259 305.52 118.24 306.27 118.402L306.268 118.4Z" fill="url(#paint37_linear_142_476)"/>
<path d="M266.818 80.8702C265.863 84.5366 265.789 88.2696 266.284 91.9508C266.778 95.632 267.839 99.2589 269.153 102.718C269.247 102.962 269.345 103.207 269.468 103.438C269.589 103.67 269.731 103.888 269.911 104.077C270.091 104.267 270.31 104.428 270.551 104.527C270.792 104.628 271.05 104.67 271.309 104.623C272.399 104.433 272.374 103.12 272.035 101.711C271.695 100.303 271.041 98.7975 270.873 98.2202C270.142 95.7085 269.638 93.1055 269.463 90.4926C269.288 87.8822 269.444 85.2595 270.032 82.7108C270.413 81.0627 270.984 79.4491 271.742 77.9292C272.5 76.4094 273.442 74.9858 274.562 73.7126C275.495 72.6517 276.735 71.4995 278.096 70.5471C279.457 69.5947 280.941 68.8422 282.361 68.5807C282.799 68.4993 283.259 68.4252 283.684 68.2871C284.11 68.1489 284.501 67.9515 284.804 67.6234C284.927 67.4901 285.028 67.3199 285.077 67.1472C285.127 66.972 285.119 66.7919 285.026 66.6389C284.962 66.5328 284.866 66.4564 284.755 66.3971C284.647 66.3379 284.524 66.2985 284.403 66.2639C282.528 65.726 280.564 66.0912 278.714 66.8758C276.863 67.6604 275.123 68.862 273.698 69.9944C271.909 71.4156 270.465 73.0835 269.328 74.9191C268.193 76.7573 267.369 78.7632 266.82 80.8678L266.818 80.8702Z" fill="url(#paint38_linear_142_476)"/>
<path d="M64.0634 243.681C64.0634 244.777 61.8412 245.778 58.2533 246.504C54.6654 247.229 49.7092 247.683 44.2412 247.683C38.7732 247.683 33.7974 247.232 30.2045 246.504C26.6117 245.778 24.3895 244.777 24.3895 243.681C24.3895 242.586 26.6117 241.584 30.2045 240.859C33.7974 240.133 38.7584 239.679 44.2412 239.679C49.724 239.679 54.6654 240.131 58.2533 240.859C61.8412 241.584 64.0634 242.586 64.0634 243.681Z" fill="url(#paint39_linear_142_476)"/>
<path d="M64.0634 243.681V286.2C64.0634 286.516 63.9748 286.831 63.8074 287.135C63.6401 287.441 63.394 287.735 63.079 288.008C61.8215 289.161 59.4074 290.152 56.2428 290.87C53.0781 291.586 49.1605 292.025 44.8958 292.067H44.2388C39.0439 292.067 34.3068 291.477 30.7656 290.51C27.2244 289.543 24.8792 288.201 24.4707 286.693C24.4437 286.612 24.424 286.528 24.4092 286.447C24.3944 286.365 24.3895 286.281 24.3895 286.2V243.681C24.3895 244.777 26.6117 245.778 30.2045 246.504C33.7974 247.229 38.7584 247.683 44.2412 247.683C49.724 247.683 54.6654 247.232 58.2533 246.504C61.8412 245.778 64.0634 244.777 64.0634 243.681Z" fill="url(#paint40_linear_142_476)"/>
<path d="M24.4683 286.683L24.4264 286.669L24.3846 286.654V286.188C24.3846 286.269 24.392 286.353 24.4043 286.434C24.419 286.516 24.4387 286.6 24.4658 286.681L24.4683 286.683Z" fill="url(#paint41_linear_142_476)"/>
<path d="M50.226 202.638L51.5672 203.608L52.9083 204.575L53.1027 212.233L53.2972 219.894L52.1307 221.91L50.9643 223.926L50.5951 213.282L50.226 202.638Z" fill="url(#paint42_linear_142_476)"/>
<path d="M62.3629 243.679C62.3629 242.842 60.3327 242.085 57.0524 241.535C53.7696 240.987 49.2368 240.646 44.2289 240.646C39.2211 240.646 34.6882 240.985 31.4054 241.535C28.1227 242.082 26.0949 242.84 26.0949 243.679C26.0949 244.518 28.1251 245.273 31.4054 245.823C34.6857 246.371 39.2211 246.711 44.2289 246.711C49.2368 246.711 53.7696 246.371 57.0524 245.823C60.3327 245.275 62.3629 244.518 62.3629 243.679Z" fill="url(#paint43_linear_142_476)"/>
<path d="M54.6039 246.175C52.3891 246.518 50.2433 246.649 48.6511 246.694C47.0589 246.738 46.0204 246.696 46.0204 246.696L43.6285 228.438L41.2365 210.18L40.7173 206.287L40.1981 202.394L40.9634 202.297L41.7287 202.201L45.9122 201.693L50.0956 201.185L50.5066 205.283L50.9175 209.381L52.6131 226.294L54.3086 243.21L54.4587 244.69L54.6088 246.171L54.6039 246.175Z" fill="#EAE3EB"/>
<path d="M50.9126 209.386L47.0835 209.702L43.2544 210.018C43.0772 209.169 42.905 208.31 42.7302 207.454C42.5555 206.598 42.3783 205.742 42.1864 204.891C42.1052 204.479 42.0289 204.047 41.9551 203.598C41.8788 203.149 41.805 202.682 41.7238 202.204L45.9736 201.641L50.2235 201.079L50.5681 205.234L50.9126 209.388V209.386Z" fill="url(#paint44_linear_142_476)"/>
<path d="M40.577 246.642C40.577 246.642 40.2005 246.642 39.5557 246.625C38.9085 246.607 37.9931 246.573 36.9128 246.504C36.7897 246.489 36.6593 246.484 36.5264 246.477C36.3935 246.469 36.2557 246.462 36.1204 246.449C35.6553 246.407 35.1705 246.361 34.6709 246.306C34.1714 246.252 33.6595 246.19 33.1403 246.121C33.0025 246.106 32.8671 246.087 32.7269 246.067C32.5866 246.047 32.4439 246.025 32.2937 246.013C31.6933 245.904 31.0904 245.793 30.4924 245.67C29.8944 245.546 29.2989 245.408 28.7107 245.245L24.3354 229.84L19.96 214.434C19.96 214.449 19.9673 214.454 19.9747 214.459C19.9821 214.461 19.9895 214.461 19.9895 214.461C20.3439 214.269 20.7351 214.071 21.1559 213.871C21.5767 213.672 22.0271 213.474 22.5069 213.282C23.0803 214.844 23.6758 216.393 24.2935 217.933C24.9112 219.472 25.5535 220.999 26.2253 222.522C26.6904 223.578 27.1629 224.626 27.6501 225.668C28.1398 226.709 28.6443 227.745 29.1783 228.771C30.6967 231.759 32.3627 234.685 34.2034 237.493C36.0416 240.298 38.0521 242.985 40.2521 245.495L40.417 246.069L40.5819 246.644L40.577 246.642Z" fill="#2B096D"/>
<path d="M40.2497 245.49C38.0497 242.981 36.0392 240.294 34.2009 237.488C32.3627 234.681 30.6942 231.754 29.1759 228.767C28.6419 227.738 28.1374 226.704 27.6477 225.663C27.158 224.622 26.6879 223.573 26.2228 222.517C25.5535 220.995 24.9112 219.467 24.2911 217.928C23.6734 216.388 23.0779 214.841 22.5045 213.277C22.0271 213.469 21.5743 213.667 21.1535 213.867C20.7327 214.066 20.3439 214.264 19.9871 214.456C19.9871 214.456 19.9797 214.456 19.9723 214.454C19.9649 214.451 19.9575 214.444 19.9575 214.429C19.9575 214.429 20.1765 214.271 20.5973 214.029C21.0181 213.785 21.6407 213.457 22.4454 213.114C22.5956 213.045 22.753 212.976 22.9179 212.909C23.0828 212.84 23.2526 212.771 23.4298 212.705C23.5381 212.663 23.6562 212.623 23.7792 212.581C23.9023 212.539 24.0327 212.5 24.168 212.458C24.5913 212.307 25.049 212.169 25.5387 212.046C26.0284 211.922 26.5477 211.814 27.094 211.718C27.217 211.69 27.3401 211.663 27.4631 211.639C27.5862 211.614 27.7092 211.594 27.8322 211.579C28.3097 211.51 28.8166 211.456 29.3407 211.419C29.8624 211.382 30.4038 211.36 30.9501 211.36V211.387L35.5987 228.438L40.2472 245.49H40.2497Z" fill="url(#paint45_linear_142_476)"/>
<path d="M31.0609 211.387C29.2005 211.468 27.5886 211.715 26.1761 212.056C24.7636 212.394 23.5553 212.825 22.5021 213.279C22.3643 212.924 22.2363 212.574 22.1083 212.223C21.9828 211.873 21.8598 211.525 21.7367 211.167C21.4906 210.496 21.2249 209.818 20.964 209.134C20.7032 208.453 20.4522 207.767 20.2332 207.082C20.7401 206.356 21.4562 205.705 22.2658 205.231C23.0754 204.757 23.9786 204.464 24.8522 204.449C25.6987 204.434 26.5329 204.654 27.2884 205.046C28.0439 205.436 28.7206 205.998 29.2546 206.67C29.7886 207.328 30.1922 208.081 30.4851 208.883C30.7779 209.685 30.9625 210.533 31.0584 211.384L31.0609 211.387Z" fill="url(#paint46_linear_142_476)"/>
<path d="M63.079 288.008C61.8215 289.161 59.368 290.19 56.1566 290.942C52.9452 291.695 48.9734 292.168 44.6817 292.21H44.0812C38.8864 292.21 34.1492 291.621 30.6081 290.656C27.0669 289.689 24.7217 288.346 24.3132 286.839C24.2861 286.758 24.2664 286.674 24.2517 286.592C24.2369 286.511 24.232 286.427 24.232 286.345L24.3107 266.138L24.392 245.931C24.8841 247.974 25.6298 249.995 26.4984 251.942C27.3671 253.888 28.3588 255.759 29.3432 257.5C31.5087 261.327 34.0336 264.92 36.866 268.248C39.6984 271.576 42.841 274.643 46.2419 277.419C48.811 279.516 51.5056 281.487 54.3159 283.274C57.1262 285.06 60.0522 286.659 63.0839 288.013L63.079 288.008Z" fill="url(#paint47_linear_142_476)"/>
<path d="M47.6815 253.232C47.7037 252.929 47.7676 252.586 47.871 252.272C47.9743 251.961 48.1171 251.683 48.2943 251.507C48.4887 251.315 48.7594 251.236 49.0399 251.194C49.318 251.155 49.6059 251.155 49.8298 251.122C51.7788 250.851 53.7327 250.553 55.6694 250.118C57.6061 249.684 59.528 249.119 61.4131 248.315C61.6173 248.228 61.8437 248.194 62.0504 248.258C62.2596 248.322 62.4491 248.482 62.582 248.783C62.641 248.914 62.6706 249.065 62.6878 249.22C62.705 249.376 62.7075 249.538 62.7075 249.699C62.7419 253.195 62.7862 256 62.8034 258.939C62.8207 261.877 62.8133 264.949 62.7395 268.976C62.7247 269.817 62.6336 270.609 62.4417 271.362C62.2498 272.114 61.9594 272.832 61.541 273.525C61.1793 274.127 60.7855 274.673 60.3549 275.134C59.9242 275.595 59.4567 275.97 58.9497 276.237C58.1623 276.649 57.3354 276.977 56.5061 277.11C55.6768 277.241 54.845 277.177 54.0502 276.807C52.6229 276.141 51.5352 274.621 50.7084 272.719C49.8815 270.816 49.318 268.532 48.9365 266.333C48.6117 264.466 48.341 262.576 48.1318 260.668C47.9227 258.761 47.7775 256.839 47.7061 254.907C47.6963 254.624 47.679 254.34 47.6692 254.061C47.6594 253.78 47.6569 253.503 47.6766 253.234L47.6815 253.232Z" fill="url(#paint48_linear_142_476)"/>
<path d="M22.5045 213.277C22.0271 213.469 21.5743 213.667 21.1535 213.867C20.7327 214.066 20.3439 214.264 19.9871 214.456C19.9871 214.456 19.9797 214.456 19.9723 214.454C19.9649 214.451 19.9575 214.444 19.9575 214.429C19.9157 214.36 19.8542 214.182 19.7976 214.007C19.7385 213.832 19.6844 213.662 19.6573 213.605C19.4531 213.03 19.3079 212.391 19.2365 211.737C19.1651 211.083 19.1651 210.41 19.2463 209.766C19.3152 209.314 19.4161 208.868 19.5613 208.443C19.7041 208.019 19.8886 207.614 20.1224 207.244C20.1372 207.217 20.1569 207.19 20.1765 207.163C20.1962 207.136 20.2184 207.109 20.2307 207.082C20.4497 207.767 20.7032 208.453 20.9616 209.134C21.2224 209.815 21.4882 210.494 21.7343 211.167C21.8425 211.496 21.9607 211.819 22.0788 212.139C22.1994 212.463 22.3224 212.783 22.4454 213.112C22.4454 213.139 22.4528 213.166 22.4627 213.193C22.4725 213.22 22.4873 213.247 22.4996 213.274L22.5045 213.277Z" fill="url(#paint49_linear_142_476)"/>
<path d="M43.2569 210.015L42.2454 210.097L41.234 210.178L40.7148 206.285L40.1956 202.391L40.9609 202.295L41.7262 202.199C41.8074 202.677 41.8837 203.144 41.9575 203.593C42.0338 204.042 42.1076 204.474 42.1888 204.886C42.3808 205.734 42.558 206.593 42.7327 207.449C42.9074 208.305 43.0772 209.161 43.2569 210.013V210.015Z" fill="#820051"/>
<path d="M49.9824 246.642C48.8209 246.696 47.8292 246.711 47.1278 246.711C46.4265 246.711 46.018 246.696 46.018 246.696L43.626 228.438L41.2341 210.18L42.2455 210.099L43.2569 210.018C43.4045 210.018 43.8401 212.137 44.2609 214.362C44.6817 216.588 45.0853 218.922 45.1714 219.351C45.4963 220.972 45.8137 222.596 46.1213 224.219C46.4289 225.843 46.7242 227.471 47.0072 229.1C47.5117 232.021 48.0039 234.947 48.496 237.871C48.9882 240.794 49.4804 243.721 49.9873 246.642H49.9824Z" fill="url(#paint50_linear_142_476)"/>
<path d="M194.023 270.318H156.899C156.899 268.872 158.973 267.572 162.333 266.634C165.692 265.694 170.33 265.117 175.461 265.117C180.592 265.117 185.233 265.694 188.59 266.634C191.949 267.574 194.023 268.875 194.023 270.318Z" fill="url(#paint51_linear_142_476)"/>
<path d="M189.882 269.267H160.061V265.006H189.882V269.267ZM160.448 268.877H189.493V265.396H160.448V268.877Z" fill="#727272"/>
<path d="M256.472 290.116H174.972H93.473V293.059V296H174.972H256.472V293.059V290.116Z" fill="url(#paint52_linear_142_476)"/>
<path d="M256.475 290.12H174.981H93.4854L97.1914 279.593L100.895 269.065H174.366H247.835L252.156 279.593L256.475 290.12Z" fill="white"/>
<path d="M246.442 285.761L206.876 287.939L167.311 290.12H130.398H93.4854L97.1914 279.593L100.895 269.065H106.924H112.953L110.603 273.232L108.25 277.399L177.346 281.581L246.442 285.761Z" fill="url(#paint53_linear_142_476)"/>
<path d="M246.43 281.162H174.972H103.513V283.461V285.761H174.972H246.43V283.461V281.162Z" fill="url(#paint54_linear_142_476)"/>
<path d="M246.442 281.154H174.981H103.521L104.244 278.825L104.97 276.496L105.093 276.111L105.216 275.726L106.009 273.178L106.801 270.629L106.924 270.244L107.047 269.862L107.854 267.283L108.661 264.708H174.543H240.425L241.368 267.283L242.313 269.862L242.448 270.244L242.586 270.629L243.516 273.178L244.444 275.726L244.596 276.111L244.747 276.496L245.593 278.825L246.442 281.154Z" fill="white"/>
<path d="M244.746 276.496L244.596 276.111L244.446 275.726H233.673L233.085 273.178L232.496 270.629H242.586L242.448 270.244L242.31 269.862H232.302L231.701 267.283L231.101 264.708H230.309L230.909 267.283L231.51 269.862H220.847L220.382 267.283L219.916 264.708H219.124L219.589 267.283L220.054 269.862H210.073L209.65 267.283L209.227 264.708H208.488L208.884 267.283L209.281 269.862H199.083L198.795 267.283L198.507 264.708H197.742L198.015 267.283L198.288 269.862H188.91L188.801 267.283L188.693 264.708H187.901L188.024 267.283L188.147 269.862H177.292V264.708H176.527V269.862H165.699L165.837 267.283L165.975 264.708H165.209L165.071 267.283L164.934 269.862H154.406L154.733 267.283L155.061 264.708H154.241L153.941 267.283L153.641 269.862H142.183L142.648 267.283L143.113 264.708H142.321L141.856 267.283L141.391 269.862H130.209L130.728 267.283L131.247 264.708H130.455L129.935 267.283L129.416 269.862H117.466L118.136 267.283L118.805 264.708H118.013L117.343 267.283L116.674 269.862H107.05L106.926 270.244L106.803 270.629H116.455L115.798 273.178L115.141 275.726H105.216L105.093 276.111L104.97 276.496H114.951L114.336 278.825L113.721 281.154H114.54L115.141 278.825L115.741 276.496H128.073L127.607 278.825L127.142 281.154H127.935L128.4 278.825L128.865 276.496H140.212L139.801 278.825L139.39 281.154H140.155L140.579 278.825L141.002 276.496H152.814L152.526 278.825L152.238 281.154H153.031L153.304 278.825L153.577 276.496H164.569L164.461 278.825L164.353 281.154H165.118L165.241 278.825L165.364 276.496H176.519V281.157H177.285V276.496H188.44L188.548 278.825L188.656 281.154H189.422L189.326 278.825L189.23 276.496H199.019L199.28 278.825L199.541 281.154H200.306L200.06 278.825L199.814 276.496H210.341L210.71 278.825L211.08 281.154H211.872L211.503 278.825L211.134 276.496H221.25L221.674 278.825L222.097 281.154H222.889L222.466 278.825L222.043 276.496H233.062L233.609 278.825L234.155 281.154H234.947L234.401 278.825L233.855 276.496H244.737H244.746ZM128.24 275.729H115.936L116.605 273.18L117.274 270.631H129.278L128.759 273.18L128.24 275.729ZM140.352 275.729H129.032L129.552 273.18L130.071 270.631H141.253L140.803 273.18L140.352 275.729ZM152.903 275.729H141.145L141.595 273.18L142.045 270.631H153.53L153.215 273.18L152.9 275.729H152.903ZM164.633 275.729H153.697L154.012 273.18L154.327 270.631H164.909L164.771 273.18L164.633 275.729ZM176.527 275.729H165.399L165.537 273.18L165.674 270.631H176.529V275.731L176.527 275.729ZM177.292 275.729V270.629H188.174L188.297 273.178L188.42 275.726H177.292V275.729ZM189.185 275.729L189.077 273.18L188.969 270.631H198.401L198.674 273.18L198.948 275.729H189.185ZM199.74 275.729L199.452 273.18L199.164 270.631H209.418L209.829 273.18L210.24 275.729H199.74ZM211.006 275.729L210.61 273.18L210.213 270.631H220.195L220.66 273.18L221.125 275.729H211.008H211.006ZM221.915 275.729L221.45 273.18L220.984 270.631H231.704L232.292 273.18L232.88 275.729H221.915Z" fill="url(#paint55_linear_142_476)"/>
</g>
<defs>
<linearGradient id="paint0_linear_142_476" x1="311.079" y1="253.728" x2="237.07" y2="323.927" gradientUnits="userSpaceOnUse">
<stop offset="0.12" stop-color="white"/>
<stop offset="1" stop-color="#CA6EDF"/>
</linearGradient>
<linearGradient id="paint1_linear_142_476" x1="275.576" y1="267.772" x2="289.116" y2="267.772" gradientUnits="userSpaceOnUse">
<stop offset="0.11" stop-color="#CA6EDF"/>
<stop offset="1" stop-color="#E8AFDC"/>
</linearGradient>
<linearGradient id="paint2_linear_142_476" x1="269.045" y1="284.816" x2="293.673" y2="274.46" gradientUnits="userSpaceOnUse">
<stop stop-color="#8A4DE2"/>
<stop offset="1" stop-color="#FFC2F4"/>
</linearGradient>
<linearGradient id="paint3_linear_142_476" x1="-34.1812" y1="216.307" x2="298.745" y2="-150.503" gradientUnits="userSpaceOnUse">
<stop offset="0.11" stop-color="#CD92E1"/>
<stop offset="0.45" stop-color="#E4C5EF"/>
<stop offset="0.76" stop-color="#F7EFFA"/>
<stop offset="0.91" stop-color="white"/>
</linearGradient>
<linearGradient id="paint4_linear_142_476" x1="58.524" y1="300.448" x2="391.451" y2="-66.3614" gradientUnits="userSpaceOnUse">
<stop offset="0.15" stop-color="#CD92E1"/>
<stop offset="0.47" stop-color="#E4C5EF"/>
<stop offset="0.76" stop-color="#F7EFFA"/>
<stop offset="0.91" stop-color="white"/>
</linearGradient>
<linearGradient id="paint5_linear_142_476" x1="439.742" y1="-31.7909" x2="208.558" y2="76.1114" gradientUnits="userSpaceOnUse">
<stop offset="0.34" stop-color="#B389E0"/>
<stop offset="0.64" stop-color="#E1D1F6"/>
<stop offset="0.97" stop-color="white"/>
</linearGradient>
<linearGradient id="paint6_linear_142_476" x1="276.809" y1="99.7031" x2="303.888" y2="76.9726" gradientUnits="userSpaceOnUse">
<stop offset="0.12" stop-color="#F78D50"/>
<stop offset="0.24" stop-color="#EE8250"/>
<stop offset="0.45" stop-color="#D96552"/>
<stop offset="0.72" stop-color="#B63756"/>
<stop offset="0.93" stop-color="#991159"/>
</linearGradient>
<linearGradient id="paint7_linear_142_476" x1="303.48" y1="74.4874" x2="296.996" y2="95.9459" gradientUnits="userSpaceOnUse">
<stop stop-color="#FEC045"/>
<stop offset="1" stop-color="#F47555"/>
</linearGradient>
<linearGradient id="paint8_linear_142_476" x1="300.148" y1="121.751" x2="318.907" y2="97.367" gradientUnits="userSpaceOnUse">
<stop offset="0.43" stop-color="#CA6EDF"/>
<stop offset="1" stop-color="#F4D3F0"/>
</linearGradient>
<linearGradient id="paint9_linear_142_476" x1="320.902" y1="97.8255" x2="289.333" y2="130.4" gradientUnits="userSpaceOnUse">
<stop stop-color="#ED83E8"/>
<stop offset="0.46" stop-color="#5B2CC4"/>
</linearGradient>
<linearGradient id="paint10_linear_142_476" x1="187.751" y1="241.022" x2="158.903" y2="263.041" gradientUnits="userSpaceOnUse">
<stop stop-color="#ED83E8"/>
<stop offset="0.99" stop-color="#5B2CC4"/>
</linearGradient>
<linearGradient id="paint11_linear_142_476" x1="172.801" y1="244.187" x2="177.988" y2="244.187" gradientUnits="userSpaceOnUse">
<stop stop-color="#2F167F"/>
<stop offset="0.99" stop-color="#5B2CC4"/>
</linearGradient>
<linearGradient id="paint12_linear_142_476" x1="318.808" y1="0.24429" x2="107.178" y2="231.915" gradientUnits="userSpaceOnUse">
<stop stop-color="#ED83E8"/>
<stop offset="0.99" stop-color="#5B2CC4"/>
</linearGradient>
<linearGradient id="paint13_linear_142_476" x1="280.791" y1="98.0253" x2="10.2902" y2="234.366" gradientUnits="userSpaceOnUse">
<stop stop-color="#ED83E8"/>
<stop offset="0.6" stop-color="#954FD2"/>
<stop offset="0.99" stop-color="#5B2CC4"/>
</linearGradient>
<linearGradient id="paint14_linear_142_476" x1="152.054" y1="173.068" x2="285.069" y2="48.5967" gradientUnits="userSpaceOnUse">
<stop stop-color="#2F167F"/>
<stop offset="0.99" stop-color="#5B2CC4"/>
</linearGradient>
<linearGradient id="paint15_linear_142_476" x1="299.158" y1="81.1909" x2="108.411" y2="327.455" gradientUnits="userSpaceOnUse">
<stop stop-color="#ED83E8"/>
<stop offset="0.99" stop-color="#5B2CC4"/>
</linearGradient>
<linearGradient id="paint16_linear_142_476" x1="169.937" y1="170.053" x2="248.917" y2="104.138" gradientUnits="userSpaceOnUse">
<stop stop-color="#8A4DE2"/>
<stop offset="0.64" stop-color="#FFC2F4"/>
</linearGradient>
<linearGradient id="paint17_linear_142_476" x1="215.179" y1="124.137" x2="225.572" y2="124.137" gradientUnits="userSpaceOnUse">
<stop stop-color="#FEC045"/>
<stop offset="1" stop-color="#F47555"/>
</linearGradient>
<linearGradient id="paint18_linear_142_476" x1="211.815" y1="130.537" x2="256.379" y2="130.537" gradientUnits="userSpaceOnUse">
<stop stop-color="#D67FD2"/>
<stop offset="0.23" stop-color="#8148C9"/>
<stop offset="0.9" stop-color="#2F0D8E"/>
</linearGradient>
<linearGradient id="paint19_linear_142_476" x1="217.847" y1="149.732" x2="262.41" y2="149.732" gradientUnits="userSpaceOnUse">
<stop stop-color="#FEC045"/>
<stop offset="1" stop-color="#F47555"/>
</linearGradient>
<linearGradient id="paint20_linear_142_476" x1="40.2698" y1="149.288" x2="140.716" y2="105.939" gradientUnits="userSpaceOnUse">
<stop stop-color="#8A4DE2"/>
<stop offset="1" stop-color="#FFC2F4"/>
</linearGradient>
<linearGradient id="paint21_linear_142_476" x1="85.4678" y1="123.391" x2="102.16" y2="123.391" gradientUnits="userSpaceOnUse">
<stop stop-color="#FEC045"/>
<stop offset="1" stop-color="#F47555"/>
</linearGradient>
<linearGradient id="paint22_linear_142_476" x1="89.7522" y1="129.792" x2="161.316" y2="129.792" gradientUnits="userSpaceOnUse">
<stop stop-color="#D67FD2"/>
<stop offset="0.23" stop-color="#8148C9"/>
<stop offset="0.9" stop-color="#2F0D8E"/>
</linearGradient>
<linearGradient id="paint23_linear_142_476" x1="85.4678" y1="142.587" x2="109.7" y2="142.587" gradientUnits="userSpaceOnUse">
<stop stop-color="#FF915A"/>
<stop offset="0.51" stop-color="#E53E53"/>
<stop offset="1" stop-color="#991159"/>
</linearGradient>
<linearGradient id="paint24_linear_142_476" x1="89.7522" y1="148.987" x2="161.316" y2="148.987" gradientUnits="userSpaceOnUse">
<stop stop-color="#FEC045"/>
<stop offset="1" stop-color="#F47555"/>
</linearGradient>
<linearGradient id="paint25_linear_142_476" x1="85.4678" y1="161.935" x2="102.16" y2="161.935" gradientUnits="userSpaceOnUse">
<stop stop-color="#FEC045"/>
<stop offset="1" stop-color="#F47555"/>
</linearGradient>
<linearGradient id="paint26_linear_142_476" x1="89.7522" y1="168.333" x2="161.316" y2="168.333" gradientUnits="userSpaceOnUse">
<stop stop-color="#D67FD2"/>
<stop offset="0.23" stop-color="#8148C9"/>
<stop offset="0.9" stop-color="#2F0D8E"/>
</linearGradient>
<linearGradient id="paint27_linear_142_476" x1="89.7522" y1="187.529" x2="161.316" y2="187.529" gradientUnits="userSpaceOnUse">
<stop stop-color="#8A4DE2"/>
<stop offset="1" stop-color="#FFC2F4"/>
</linearGradient>
<linearGradient id="paint28_linear_142_476" x1="53.9468" y1="92.8069" x2="295.986" y2="92.8069" gradientUnits="userSpaceOnUse">
<stop stop-color="#2F167F"/>
<stop offset="0.99" stop-color="#5B2CC4"/>
</linearGradient>
<linearGradient id="paint29_linear_142_476" x1="131.899" y1="155.819" x2="218.968" y2="34.9943" gradientUnits="userSpaceOnUse">
<stop offset="0.12" stop-color="#AC5CD8"/>
<stop offset="0.55" stop-color="#DF89F4"/>
</linearGradient>
<linearGradient id="paint30_linear_142_476" x1="273.969" y1="76.8263" x2="235.581" y2="118.009" gradientUnits="userSpaceOnUse">
<stop stop-color="#ED83E8"/>
<stop offset="0.99" stop-color="#5B2CC4"/>
</linearGradient>
<linearGradient id="paint31_linear_142_476" x1="276.12" y1="73.8114" x2="297.298" y2="73.8114" gradientUnits="userSpaceOnUse">
<stop stop-color="#F78D50"/>
<stop offset="1" stop-color="#991159"/>
</linearGradient>
<linearGradient id="paint32_linear_142_476" x1="311.928" y1="65.5262" x2="246.378" y2="130.422" gradientUnits="userSpaceOnUse">
<stop stop-color="#FEC045"/>
<stop offset="1" stop-color="#F47555"/>
</linearGradient>
<linearGradient id="paint33_linear_142_476" x1="290.134" y1="133.174" x2="329.043" y2="133.174" gradientUnits="userSpaceOnUse">
<stop offset="0.11" stop-color="#CA6EDF"/>
<stop offset="1" stop-color="#E8AFDC"/>
</linearGradient>
<linearGradient id="paint34_linear_142_476" x1="258.05" y1="100.564" x2="289.096" y2="100.564" gradientUnits="userSpaceOnUse">
<stop offset="0.42" stop-color="#F37753"/>
<stop offset="1" stop-color="#D85335"/>
</linearGradient>
<linearGradient id="paint35_linear_142_476" x1="326.193" y1="114.524" x2="279.908" y2="162.138" gradientUnits="userSpaceOnUse">
<stop stop-color="#FEC045"/>
<stop offset="1" stop-color="#F47555"/>
</linearGradient>
<linearGradient id="paint36_linear_142_476" x1="281.659" y1="141.686" x2="324.013" y2="141.686" gradientUnits="userSpaceOnUse">
<stop offset="0.42" stop-color="#F37753"/>
<stop offset="1" stop-color="#D85335"/>
</linearGradient>
<linearGradient id="paint37_linear_142_476" x1="303.485" y1="147.492" x2="315.422" y2="117.388" gradientUnits="userSpaceOnUse">
<stop stop-color="#FAA24B"/>
<stop offset="0.83" stop-color="#FFDFC0"/>
</linearGradient>
<linearGradient id="paint38_linear_142_476" x1="248.445" y1="108.96" x2="290.828" y2="71.1777" gradientUnits="userSpaceOnUse">
<stop stop-color="#FAA24B"/>
<stop offset="0.83" stop-color="#FFD8AE"/>
</linearGradient>
<linearGradient id="paint39_linear_142_476" x1="76.0379" y1="231.969" x2="-55.4505" y2="280.125" gradientUnits="userSpaceOnUse">
<stop offset="0.14" stop-color="white"/>
<stop offset="0.51" stop-color="#C39DEE"/>
</linearGradient>
<linearGradient id="paint40_linear_142_476" x1="14.6323" y1="292.733" x2="137.807" y2="179.527" gradientUnits="userSpaceOnUse">
<stop offset="0.15" stop-color="#A17FF4"/>
<stop offset="0.38" stop-color="#F4CEF3"/>
</linearGradient>
<linearGradient id="paint41_linear_142_476" x1="24.387" y1="286.437" x2="24.4683" y2="286.437" gradientUnits="userSpaceOnUse">
<stop offset="0.21" stop-color="#A17FF4"/>
<stop offset="0.61" stop-color="#EAC1E7"/>
</linearGradient>
<linearGradient id="paint42_linear_142_476" x1="55.8737" y1="198.12" x2="49.4499" y2="218.552" gradientUnits="userSpaceOnUse">
<stop stop-color="#FF915A"/>
<stop offset="0.51" stop-color="#E53E53"/>
<stop offset="1" stop-color="#991159"/>
</linearGradient>
<linearGradient id="paint43_linear_142_476" x1="31.8361" y1="243.565" x2="84.1907" y2="244.046" gradientUnits="userSpaceOnUse">
<stop stop-color="#D67FD2"/>
<stop offset="0.23" stop-color="#8148C9"/>
<stop offset="0.9" stop-color="#2F0D8E"/>
</linearGradient>
<linearGradient id="paint44_linear_142_476" x1="55.4479" y1="185.759" x2="43.4933" y2="211.859" gradientUnits="userSpaceOnUse">
<stop stop-color="#FF915A"/>
<stop offset="0.51" stop-color="#E53E53"/>
<stop offset="1" stop-color="#991159"/>
</linearGradient>
<linearGradient id="paint45_linear_142_476" x1="19.96" y1="228.424" x2="40.2497" y2="228.424" gradientUnits="userSpaceOnUse">
<stop stop-color="#2F167F"/>
<stop offset="0.99" stop-color="#5B2CC4"/>
</linearGradient>
<linearGradient id="paint46_linear_142_476" x1="32.5768" y1="200.042" x2="17.0836" y2="220.482" gradientUnits="userSpaceOnUse">
<stop stop-color="#FEC045"/>
<stop offset="1" stop-color="#F47555"/>
</linearGradient>
<linearGradient id="paint47_linear_142_476" x1="-6.05863" y1="323.486" x2="80.0276" y2="226.283" gradientUnits="userSpaceOnUse">
<stop stop-color="#260082"/>
<stop offset="0.58" stop-color="#B38FF1"/>
</linearGradient>
<linearGradient id="paint48_linear_142_476" x1="79.6209" y1="220.637" x2="8.49378" y2="340.49" gradientUnits="userSpaceOnUse">
<stop offset="0.26" stop-color="#F9E6FF"/>
<stop offset="0.48" stop-color="#BB98F4"/>
</linearGradient>
<linearGradient id="paint49_linear_142_476" x1="24.6947" y1="203.889" x2="12.9037" y2="225.955" gradientUnits="userSpaceOnUse">
<stop offset="0.42" stop-color="#F37753"/>
<stop offset="1" stop-color="#D85335"/>
</linearGradient>
<linearGradient id="paint50_linear_142_476" x1="17.4426" y1="267.698" x2="58.2828" y2="211.029" gradientUnits="userSpaceOnUse">
<stop stop-color="#8A4DE2"/>
<stop offset="1" stop-color="#FFC2F4"/>
</linearGradient>
<linearGradient id="paint51_linear_142_476" x1="206.335" y1="251.086" x2="154.494" y2="282.244" gradientUnits="userSpaceOnUse">
<stop stop-color="#ED83E8"/>
<stop offset="0.99" stop-color="#5B2CC4"/>
</linearGradient>
<linearGradient id="paint52_linear_142_476" x1="45.7645" y1="359.7" x2="246.71" y2="256.597" gradientUnits="userSpaceOnUse">
<stop stop-color="#8A4DE2"/>
<stop offset="1" stop-color="#FFC2F4"/>
</linearGradient>
<linearGradient id="paint53_linear_142_476" x1="189.584" y1="272.26" x2="17.7222" y2="327.632" gradientUnits="userSpaceOnUse">
<stop stop-color="white"/>
<stop offset="1" stop-color="#CA6EDF"/>
</linearGradient>
<linearGradient id="paint54_linear_142_476" x1="106.501" y1="319.316" x2="225.815" y2="257.161" gradientUnits="userSpaceOnUse">
<stop stop-color="#8A4DE2"/>
<stop offset="1" stop-color="#FFC2F4"/>
</linearGradient>
<linearGradient id="paint55_linear_142_476" x1="104.97" y1="272.931" x2="244.746" y2="272.931" gradientUnits="userSpaceOnUse">
<stop offset="0.11" stop-color="#CA6EDF"/>
<stop offset="1" stop-color="#E8AFDC"/>
</linearGradient>
<clipPath id="clip0_142_476">
<rect width="355" height="296" fill="white"/>
</clipPath>
</defs>
</svg>
