<svg width="116" height="150" viewBox="0 0 116 150" fill="none" xmlns="http://www.w3.org/2000/svg">
<g clip-path="url(#clip0_249_1940)">
<path d="M114.644 134.038L84.6395 116.731L89.5085 113.918C90.288 113.466 90.367 112.788 89.7005 112.404L61.7407 96.3285C61.0629 95.9444 59.888 95.9896 59.1086 96.4415L54.2735 99.2318L25.7941 82.8061C25.3987 82.5802 24.7096 82.6028 24.2464 82.8739L23.2523 83.4501C22.8004 83.7099 22.7439 84.1166 23.1393 84.3425L51.6187 100.768L43.1235 105.671C42.344 106.123 42.2649 106.801 42.9314 107.185L70.8912 123.26C71.569 123.644 72.7439 123.599 73.5234 123.147L81.9734 118.267L111.978 135.574C112.373 135.8 113.062 135.777 113.526 135.506L114.52 134.93C114.972 134.67 115.028 134.263 114.633 134.038H114.644Z" fill="#F2F2F2"/>
<path d="M86.5261 109.58L86.2663 110.935L85.5771 112.235L83.9956 113.387L82.8659 114.211L77.7371 117.07L71.1962 121.193L46.1962 106.744C46.1397 106.688 46.0945 106.609 46.0945 106.484C46.0945 106.202 46.2866 105.863 46.5351 105.727L58.6115 98.7347L59.1537 98.4184C59.809 98.0456 60.4416 97.3565 60.8257 96.5205C61.2098 95.7072 61.3114 94.8938 61.1081 94.3064L54.1153 74.1753L54.9513 73.3845L79.9513 87.8219L79.8609 89.7085L82.7416 97.4356L84.9784 104.056L86.4131 107.851L86.5374 109.557L86.5261 109.58Z" fill="#CCCCCC"/>
<path d="M83.9956 113.387L82.8659 114.211L77.7371 117.069L71.1962 121.193L46.1962 106.744C46.1397 106.688 46.0945 106.609 46.0945 106.484C46.0945 106.202 46.2866 105.863 46.5351 105.727L58.6115 98.7346L83.9956 113.387Z" fill="#E6E6E6"/>
<path d="M84.1311 113.884L71.5351 121.17C71.2979 121.306 71.0945 121.193 71.0945 120.922C71.0945 120.639 71.2866 120.301 71.5351 120.165L84.1424 112.867C84.7977 112.494 85.4303 111.794 85.8144 110.969C86.1985 110.156 86.3001 109.343 86.0968 108.755L79.1153 88.6241L79.9513 87.822L86.9328 107.953C87.2152 108.778 87.0909 109.896 86.5826 111.037C86.0403 112.268 85.1027 113.319 84.1424 113.873L84.1311 113.884Z" fill="#A6A6A6"/>
<path d="M113.65 49.695L28.0421 0.271102C27.4999 -0.045211 27.0028 -0.0678048 26.6526 0.135539L24.9355 1.12966C25.2857 0.926321 25.7828 0.948915 26.325 1.26523L111.933 50.6891C113.006 51.3104 113.887 52.8242 113.876 54.0669L113.695 119.781C113.695 120.402 113.48 120.831 113.13 121.035L114.847 120.041C115.198 119.837 115.412 119.408 115.412 118.787L115.593 53.0727C115.593 51.8301 114.723 50.3163 113.65 49.695Z" fill="#595959"/>
<path d="M115.446 107.264L115.412 118.787C115.412 119.408 115.198 119.837 114.847 120.041L113.13 121.035C113.48 120.831 113.695 120.402 113.695 119.781L113.729 108.258L115.446 107.275V107.264Z" fill="#BFBFBF"/>
<path d="M113.887 54.0669L113.706 119.781C113.706 121.024 112.825 121.521 111.741 120.899L26.133 71.4641C25.0485 70.8428 24.1786 69.329 24.1786 68.0863L24.3594 2.37237C24.3594 1.14101 25.2405 0.632651 26.325 1.25398L111.933 50.6778C113.017 51.2992 113.887 52.813 113.876 54.0443L113.887 54.0669Z" fill="#333333"/>
<path d="M113.729 108.258L113.695 119.781C113.695 121.023 112.814 121.521 111.729 120.899L26.133 71.4641C25.0485 70.8427 24.1786 69.329 24.1786 68.0863L24.2125 56.5635L113.729 108.247V108.258Z" fill="#D9D9D9"/>
<path d="M111.526 103.129L27.2965 54.3718V5.62573L111.526 54.3944V103.129Z" fill="#80C5FF"/>
<path d="M96.5916 107.704C94.5695 106.541 92.7394 106.428 91.4176 107.196L89.3277 108.416C90.6495 107.648 92.4796 107.75 94.5017 108.925C98.5234 111.24 101.766 116.866 101.754 121.487C101.754 123.78 100.941 125.384 99.6305 126.152L101.72 124.932C103.031 124.175 103.833 122.56 103.844 120.267C103.856 115.646 100.613 110.02 96.5916 107.704Z" fill="#7981F2"/>
<path d="M94.5017 108.913C98.5234 111.229 101.766 116.855 101.754 121.475C101.743 126.085 98.4782 127.949 94.4565 125.633C90.4461 123.317 87.1926 117.691 87.2039 113.071C87.2152 108.45 90.4913 106.597 94.5017 108.913Z" fill="#4D4BB7"/>
<path d="M94.6937 112.291C92.1632 110.834 90.1185 111.997 90.1185 114.901C90.1185 117.804 92.1632 121.328 94.6937 122.797C97.2242 124.254 99.269 123.091 99.269 120.187C99.269 117.284 97.2242 113.76 94.6937 112.291ZM93.5753 119.318V114.596L97.1339 119.013L93.5753 119.318Z" fill="white"/>
<path d="M100.082 87.5057L93.2477 83.5631C92.1745 82.9418 91.203 82.8853 90.5026 83.292L88.4127 84.5121C89.1131 84.1054 90.0846 84.1619 91.1578 84.7832L97.9924 88.7258C100.116 89.9572 101.845 92.9395 101.833 95.3797L101.811 103.242C101.811 104.451 101.381 105.31 100.681 105.716L102.771 104.496C103.46 104.09 103.889 103.242 103.901 102.022L103.923 94.1596C103.923 91.7195 102.206 88.7258 100.082 87.5057Z" fill="#7981F2"/>
<path d="M97.9811 88.7144C100.105 89.9458 101.833 92.9282 101.822 95.3683L101.799 103.231C101.799 105.671 100.06 106.665 97.9359 105.434L91.1013 101.491C88.9662 100.26 87.2491 97.2775 87.2491 94.826L87.2717 86.9634C87.2717 84.5233 89.0114 83.5291 91.1465 84.7605L97.9811 88.7031V88.7144Z" fill="#4D4BB7"/>
<path d="M94.6937 89.9797C92.1632 88.5224 90.1185 89.686 90.1185 92.5893C90.1185 95.4926 92.1632 99.0172 94.6937 100.486C97.2242 101.943 99.269 100.78 99.269 97.8762C99.269 94.9729 97.2242 91.4483 94.6937 89.9797ZM93.5753 97.0064V92.2843L97.1339 96.7013L93.5753 97.0064Z" fill="white"/>
<path d="M103.121 66.595L90.3219 59.2068C90.0846 59.0713 89.8587 59.0487 89.7005 59.1503L87.6106 60.3704C87.7688 60.28 87.9947 60.2913 88.2319 60.4269L101.031 67.8151C101.517 68.0975 101.912 68.7753 101.901 69.3288L101.856 84.0374C101.856 84.3085 101.754 84.5005 101.607 84.5909L103.697 83.3709C103.856 83.2805 103.946 83.0884 103.946 82.8173L103.991 68.1088C103.991 67.5552 103.607 66.8774 103.121 66.595Z" fill="#7981F2"/>
<path d="M101.031 67.8151C101.517 68.0976 101.912 68.7754 101.901 69.3289L101.856 84.0375C101.856 84.591 101.461 84.817 100.975 84.5345L88.1755 77.1464C87.701 76.8639 87.2943 76.1861 87.3056 75.6439L87.3508 60.9353C87.3508 60.3818 87.7462 60.1559 88.2319 60.4383L101.031 67.8264V67.8151Z" fill="#4D4BB7"/>
<path d="M94.6938 67.205C92.1633 65.7477 90.1185 66.9113 90.1185 69.8146C90.1185 72.7179 92.1633 76.2425 94.6938 77.7111C97.2243 79.1684 99.269 78.0049 99.269 75.1016C99.269 72.1983 97.2243 68.6736 94.6938 67.205ZM93.5754 74.2317V69.5096L97.1339 73.9267L93.5754 74.2317Z" fill="white"/>
<path fill-rule="evenodd" clip-rule="evenodd" d="M43.9481 54.2249V53.2308L42.5586 52.4287V53.4228L43.9481 54.2249Z" fill="#231F20"/>
<path fill-rule="evenodd" clip-rule="evenodd" d="M46.4335 55.6597V54.6656L45.0439 53.8635V54.8577L46.4335 55.6597Z" fill="#231F20"/>
<path fill-rule="evenodd" clip-rule="evenodd" d="M49.0543 57.1622L48.6363 55.9421L47.4276 55.2417L47.5744 56.3262C48.0715 56.6086 48.5686 56.9023 49.0543 57.1622Z" fill="#231F20"/>
<path fill-rule="evenodd" clip-rule="evenodd" d="M36.4696 49.9095V48.9154L35.0801 48.1133V49.1074L36.4696 49.9095Z" fill="#231F20"/>
<path fill-rule="evenodd" clip-rule="evenodd" d="M38.9549 51.3443V50.3502L37.5767 49.5481V50.5422L38.9549 51.3443Z" fill="#231F20"/>
<path fill-rule="evenodd" clip-rule="evenodd" d="M41.4403 52.7789V51.7847L40.0508 50.9827V51.9768L41.4403 52.7789Z" fill="#231F20"/>
<path fill-rule="evenodd" clip-rule="evenodd" d="M29.6011 43.9899L30.4258 43.8657V42.4762L29.5559 42.2954C29.5559 42.8603 29.5672 43.4364 29.6011 43.9899Z" fill="#231F20"/>
<path fill-rule="evenodd" clip-rule="evenodd" d="M31.3182 46.8933L31.8379 46.2381C31.4312 46.0009 31.0358 45.5603 30.776 45.0632L30.0417 45.4473C30.358 46.0574 30.8325 46.5996 31.3182 46.9046V46.8933Z" fill="#231F20"/>
<path fill-rule="evenodd" clip-rule="evenodd" d="M33.9504 48.4521L33.9956 47.4919L32.7868 46.7915L32.4705 47.5936L33.9504 48.4521Z" fill="#231F20"/>
<path fill-rule="evenodd" clip-rule="evenodd" d="M29.5559 35.1898L30.4258 35.6981V34.1053L29.5559 33.5969V35.1898Z" fill="#231F20"/>
<path fill-rule="evenodd" clip-rule="evenodd" d="M29.5559 38.0479L30.4258 38.545V36.9521L29.5559 36.4551V38.0479Z" fill="#231F20"/>
<path fill-rule="evenodd" clip-rule="evenodd" d="M29.5559 40.9172L30.4258 41.3578V39.7988L29.5559 39.3018V40.9172Z" fill="#231F20"/>
<path fill-rule="evenodd" clip-rule="evenodd" d="M29.5559 26.6153L30.4258 27.1237V25.6777L29.5559 24.9434V26.6153Z" fill="#231F20"/>
<path fill-rule="evenodd" clip-rule="evenodd" d="M29.5559 29.4735L30.4258 29.9705V28.389L29.5559 27.8806V29.4735Z" fill="#231F20"/>
<path fill-rule="evenodd" clip-rule="evenodd" d="M29.5559 32.3202L30.4258 32.8172V31.2244L29.5559 30.7273V32.3202Z" fill="#231F20"/>
<path fill-rule="evenodd" clip-rule="evenodd" d="M33.2387 22.9551L33.4195 24.0622L34.696 24.7965V23.791L33.2387 22.9551Z" fill="#231F20"/>
<path fill-rule="evenodd" clip-rule="evenodd" d="M30.6404 21.7012L31.2731 22.9664C31.6458 22.9664 32.0638 23.2941 32.4592 23.5087L32.0638 22.2886C31.5781 22.0401 31.081 21.6899 30.6404 21.7012Z" fill="#231F20"/>
<path fill-rule="evenodd" clip-rule="evenodd" d="M29.5672 23.5877L30.4258 24.5593C30.4258 24.3333 30.4258 24.0961 30.4258 23.8702C30.4371 23.6442 30.4936 23.4522 30.5839 23.3053L29.8045 22.1191C29.6915 22.2999 29.6124 22.5258 29.5898 22.7857C29.5672 23.0455 29.5672 23.3166 29.5559 23.599L29.5672 23.5877Z" fill="#231F20"/>
<path fill-rule="evenodd" clip-rule="evenodd" d="M40.7737 27.3044V28.3099L42.1632 29.1006V28.1065L40.7737 27.3044Z" fill="#231F20"/>
<path fill-rule="evenodd" clip-rule="evenodd" d="M38.2884 25.8699V26.864L39.6779 27.6661V26.672L38.2884 25.8699Z" fill="#231F20"/>
<path fill-rule="evenodd" clip-rule="evenodd" d="M35.8144 24.4351V25.4405L37.1926 26.2426V25.2371L35.8144 24.4351Z" fill="#231F20"/>
<path fill-rule="evenodd" clip-rule="evenodd" d="M48.354 31.6763L48.0602 32.501C48.4669 32.7382 48.8623 32.9529 49.269 33.2014L49.8113 32.5688C49.3368 32.2525 48.851 31.9588 48.354 31.665V31.6763Z" fill="#231F20"/>
<path fill-rule="evenodd" clip-rule="evenodd" d="M45.7557 30.1853V31.1794L47.1 31.9589L47.1791 30.9987L45.7557 30.1853Z" fill="#231F20"/>
<path fill-rule="evenodd" clip-rule="evenodd" d="M43.2816 28.7505V29.7559L44.6712 30.5467V29.5526L43.2816 28.7505Z" fill="#231F20"/>
<path fill-rule="evenodd" clip-rule="evenodd" d="M51.4267 39.9005L50.5568 39.3921V40.985L51.4267 41.4933V39.9005Z" fill="#231F20"/>
<path fill-rule="evenodd" clip-rule="evenodd" d="M51.4267 36.9181L50.5568 36.7712V38.1495L51.4267 38.6239V36.9181Z" fill="#231F20"/>
<path fill-rule="evenodd" clip-rule="evenodd" d="M50.8392 33.7664L50.1275 34.173C50.4213 34.6588 50.5681 35.2237 50.5568 35.6755L51.3928 35.5852C51.3928 35.0316 51.2007 34.3651 50.8392 33.7664Z" fill="#231F20"/>
<path fill-rule="evenodd" clip-rule="evenodd" d="M51.4267 48.4747L50.5568 47.9663V49.5592L51.4267 50.0562V48.4747Z" fill="#231F20"/>
<path fill-rule="evenodd" clip-rule="evenodd" d="M51.4267 45.6165L50.5568 45.1082V46.701L51.4267 47.2094V45.6165Z" fill="#231F20"/>
<path fill-rule="evenodd" clip-rule="evenodd" d="M51.4267 42.7698L50.5568 42.2727V43.8656L51.4267 44.3626V42.7698Z" fill="#231F20"/>
<path fill-rule="evenodd" clip-rule="evenodd" d="M51.2346 57.1397L50.4439 55.9648C50.297 56.3038 49.9694 56.4619 49.5966 56.3941L50.2066 57.6594C50.6585 57.7272 51.0426 57.5351 51.2346 57.1284V57.1397Z" fill="#231F20"/>
<path fill-rule="evenodd" clip-rule="evenodd" d="M51.4267 54.259L50.5568 53.5586V54.9481L51.4041 55.9422C51.4267 55.4 51.4267 54.8238 51.4154 54.259H51.4267Z" fill="#231F20"/>
<path fill-rule="evenodd" clip-rule="evenodd" d="M51.4267 51.3443L50.5568 50.8359V52.4288L51.4267 52.9372V51.3443Z" fill="#231F20"/>
<path fill-rule="evenodd" clip-rule="evenodd" d="M71.6594 70.2325V69.2271L70.2812 68.4363V69.4304L71.6594 70.2325Z" fill="#231F20"/>
<path fill-rule="evenodd" clip-rule="evenodd" d="M74.156 71.6673V70.6732L72.7665 69.8711V70.8652L74.156 71.6673Z" fill="#231F20"/>
<path fill-rule="evenodd" clip-rule="evenodd" d="M76.7769 73.1697L76.3589 71.9497L75.1501 71.2493L75.297 72.3338C75.7941 72.6162 76.2911 72.9099 76.7769 73.1697Z" fill="#231F20"/>
<path fill-rule="evenodd" clip-rule="evenodd" d="M64.1922 65.9171V64.9229L62.8026 64.1208V65.115L64.1922 65.9171Z" fill="#231F20"/>
<path fill-rule="evenodd" clip-rule="evenodd" d="M66.6775 67.3519V66.3577L65.2993 65.5557V66.5498L66.6775 67.3519Z" fill="#231F20"/>
<path fill-rule="evenodd" clip-rule="evenodd" d="M69.1628 68.7864V67.781L67.7733 66.9902V67.9844L69.1628 68.7864Z" fill="#231F20"/>
<path fill-rule="evenodd" clip-rule="evenodd" d="M57.3237 59.9863L58.1483 59.862V58.4725L57.2785 58.2917C57.2785 58.8566 57.2898 59.4327 57.3237 59.9863Z" fill="#231F20"/>
<path fill-rule="evenodd" clip-rule="evenodd" d="M59.0408 62.9009L59.5605 62.2457C59.1538 62.0084 58.7584 61.5679 58.4986 61.0708L57.7643 61.4549C58.0806 62.0649 58.555 62.6072 59.0408 62.9122V62.9009Z" fill="#231F20"/>
<path fill-rule="evenodd" clip-rule="evenodd" d="M61.673 64.46L61.7182 63.4884L60.5094 62.7993L60.1931 63.6014L61.673 64.46Z" fill="#231F20"/>
<path fill-rule="evenodd" clip-rule="evenodd" d="M57.2785 51.1974L58.1483 51.6944V50.1129L57.2785 49.6045V51.1974Z" fill="#231F20"/>
<path fill-rule="evenodd" clip-rule="evenodd" d="M57.2785 54.0555L58.1483 54.5526V52.9597L57.2785 52.4626V54.0555Z" fill="#231F20"/>
<path fill-rule="evenodd" clip-rule="evenodd" d="M57.2785 56.9135L58.1483 57.3541V55.8064L57.2785 55.3093V56.9135Z" fill="#231F20"/>
<path fill-rule="evenodd" clip-rule="evenodd" d="M57.2785 42.6229L58.1483 43.1312V41.6852L57.2785 40.9509V42.6229Z" fill="#231F20"/>
<path fill-rule="evenodd" clip-rule="evenodd" d="M57.2785 45.481L58.1483 45.9781V44.3852L57.2785 43.8882V45.481Z" fill="#231F20"/>
<path fill-rule="evenodd" clip-rule="evenodd" d="M57.2785 48.3277L58.1483 48.8248V47.2319L57.2785 46.7349V48.3277Z" fill="#231F20"/>
<path fill-rule="evenodd" clip-rule="evenodd" d="M60.9612 38.9629L61.142 40.0587L62.4185 40.793V39.7989L60.9612 38.9629Z" fill="#231F20"/>
<path fill-rule="evenodd" clip-rule="evenodd" d="M58.363 37.6975L58.9956 38.9628C59.3684 38.9628 59.7864 39.2904 60.1818 39.505L59.7864 38.285C59.3006 38.0364 58.8036 37.6862 58.363 37.6975Z" fill="#231F20"/>
<path fill-rule="evenodd" clip-rule="evenodd" d="M57.2898 39.5953L58.1483 40.5668C58.1483 40.3409 58.1483 40.1037 58.1483 39.8777C58.1596 39.6518 58.2161 39.4597 58.3065 39.3129L57.527 38.1267C57.414 38.3075 57.335 38.5334 57.3124 38.7932C57.2898 39.0531 57.2898 39.3242 57.2785 39.6066L57.2898 39.5953Z" fill="#231F20"/>
<path fill-rule="evenodd" clip-rule="evenodd" d="M68.4963 43.312V44.3061L69.8858 45.1082V44.1141L68.4963 43.312Z" fill="#231F20"/>
<path fill-rule="evenodd" clip-rule="evenodd" d="M66.011 41.8774V42.8716L67.4005 43.6736V42.6795L66.011 41.8774Z" fill="#231F20"/>
<path fill-rule="evenodd" clip-rule="evenodd" d="M63.537 40.4426V41.448L64.9152 42.2388V41.2447L63.537 40.4426Z" fill="#231F20"/>
<path fill-rule="evenodd" clip-rule="evenodd" d="M76.0765 47.6839L75.7828 48.5086C76.1895 48.7458 76.5849 48.9605 76.9915 49.209L77.5338 48.5764C77.0593 48.26 76.5736 47.9663 76.0765 47.6726V47.6839Z" fill="#231F20"/>
<path fill-rule="evenodd" clip-rule="evenodd" d="M73.4782 46.1929V47.187L74.8225 47.9552L74.8903 47.0062L73.4782 46.1929Z" fill="#231F20"/>
<path fill-rule="evenodd" clip-rule="evenodd" d="M71.0042 44.7581V45.7522L72.3937 46.5543V45.5601L71.0042 44.7581Z" fill="#231F20"/>
<path fill-rule="evenodd" clip-rule="evenodd" d="M79.1492 55.8967L78.2794 55.3997V56.9925L79.1492 57.4896V55.8967Z" fill="#231F20"/>
<path fill-rule="evenodd" clip-rule="evenodd" d="M79.1492 52.9257L78.2794 52.7676V54.1571L79.1492 54.6316V52.9257Z" fill="#231F20"/>
<path fill-rule="evenodd" clip-rule="evenodd" d="M78.5618 49.7739L77.8501 50.1806C78.1438 50.6664 78.2907 51.2312 78.2794 51.6831L79.1153 51.5927C79.1153 51.0392 78.9233 50.3727 78.5618 49.7739Z" fill="#231F20"/>
<path fill-rule="evenodd" clip-rule="evenodd" d="M79.1492 64.4709L78.2794 63.9739V65.5667L79.1492 66.0638V64.4709Z" fill="#231F20"/>
<path fill-rule="evenodd" clip-rule="evenodd" d="M79.1492 61.6243L78.2794 61.116V62.7088L79.1492 63.2172V61.6243Z" fill="#231F20"/>
<path fill-rule="evenodd" clip-rule="evenodd" d="M79.1492 58.7774L78.2794 58.269V59.8619L79.1492 60.3703V58.7774Z" fill="#231F20"/>
<path fill-rule="evenodd" clip-rule="evenodd" d="M78.9572 73.1358L78.1664 71.9609C78.0196 72.2998 77.6919 72.458 77.3192 72.3902L77.9292 73.6555C78.3811 73.7232 78.7652 73.5312 78.9572 73.1245V73.1358Z" fill="#231F20"/>
<path fill-rule="evenodd" clip-rule="evenodd" d="M79.1492 70.2666L78.2794 69.5662V70.9557L79.1267 71.9498C79.1492 71.4076 79.1493 70.8314 79.138 70.2666H79.1492Z" fill="#231F20"/>
<path fill-rule="evenodd" clip-rule="evenodd" d="M79.1492 67.3519L78.2794 66.8435V68.4364L79.1492 68.9447V67.3519Z" fill="#231F20"/>
<path fill-rule="evenodd" clip-rule="evenodd" d="M99.3819 86.2404V85.2349L98.0037 84.4329V85.4383L99.3819 86.2404Z" fill="#231F20"/>
<path fill-rule="evenodd" clip-rule="evenodd" d="M101.879 87.6752V86.6698L100.489 85.8677V86.8731L101.879 87.6752Z" fill="#231F20"/>
<path fill-rule="evenodd" clip-rule="evenodd" d="M104.499 89.1663L104.081 87.9463L102.873 87.2458L103.02 88.3303C103.517 88.6128 104.014 88.9065 104.499 89.1663Z" fill="#231F20"/>
<path fill-rule="evenodd" clip-rule="evenodd" d="M91.9147 81.9249V80.9194L90.5252 80.1287V81.1228L91.9147 81.9249Z" fill="#231F20"/>
<path fill-rule="evenodd" clip-rule="evenodd" d="M94.4 83.3597V82.3656L93.0105 81.5635V82.5576L94.4 83.3597Z" fill="#231F20"/>
<path fill-rule="evenodd" clip-rule="evenodd" d="M96.8853 84.7943V83.7889L95.4958 82.9868V83.9922L96.8853 84.7943Z" fill="#231F20"/>
<path fill-rule="evenodd" clip-rule="evenodd" d="M85.0462 75.9941L85.8709 75.8698V74.4803L85.001 74.2996C85.001 74.8644 85.0123 75.4405 85.0462 75.9941Z" fill="#231F20"/>
<path fill-rule="evenodd" clip-rule="evenodd" d="M86.7633 78.9087L87.283 78.2535C86.8763 78.0162 86.4809 77.5757 86.2211 77.0786L85.4868 77.4627C85.8031 78.0727 86.2776 78.615 86.7633 78.92V78.9087Z" fill="#231F20"/>
<path fill-rule="evenodd" clip-rule="evenodd" d="M89.3955 80.4676L89.4407 79.4961L88.2319 78.7957L87.9043 79.609L89.3955 80.4676Z" fill="#231F20"/>
<path fill-rule="evenodd" clip-rule="evenodd" d="M85.001 67.2052L85.8709 67.7022V66.1094L85.001 65.6123V67.2052Z" fill="#231F20"/>
<path fill-rule="evenodd" clip-rule="evenodd" d="M85.001 70.052L85.8709 70.5604V68.9675L85.001 68.4705V70.052Z" fill="#231F20"/>
<path fill-rule="evenodd" clip-rule="evenodd" d="M85.001 72.9214L85.8709 73.3619V71.8143L85.001 71.3059V72.9214Z" fill="#231F20"/>
<path fill-rule="evenodd" clip-rule="evenodd" d="M85.001 58.6307L85.8709 59.1277V57.693L85.001 56.9587V58.6307Z" fill="#231F20"/>
<path fill-rule="evenodd" clip-rule="evenodd" d="M85.001 61.4889L85.8709 61.9859V60.3931L85.001 59.896V61.4889Z" fill="#231F20"/>
<path fill-rule="evenodd" clip-rule="evenodd" d="M85.001 64.3242L85.8709 64.8326V63.2397L85.001 62.7427V64.3242Z" fill="#231F20"/>
<path fill-rule="evenodd" clip-rule="evenodd" d="M88.6838 54.9707L88.8646 56.0665L90.1411 56.8008V55.8067L88.6838 54.9707Z" fill="#231F20"/>
<path fill-rule="evenodd" clip-rule="evenodd" d="M86.0855 53.7053L86.7181 54.9706C87.0909 54.9706 87.5089 55.2982 87.9043 55.5128L87.5089 54.2928C87.0231 54.0443 86.5261 53.694 86.0855 53.7053Z" fill="#231F20"/>
<path fill-rule="evenodd" clip-rule="evenodd" d="M85.0123 55.6031L85.8709 56.5747C85.8709 56.3487 85.8709 56.1115 85.8709 55.8855C85.8822 55.6596 85.9387 55.4676 86.029 55.3207L85.2495 54.1345C85.1366 54.3153 85.0575 54.5412 85.0349 54.801C85.0123 55.0609 85.0123 55.332 85.001 55.6144L85.0123 55.6031Z" fill="#231F20"/>
<path fill-rule="evenodd" clip-rule="evenodd" d="M96.2188 59.3198V60.314L97.6083 61.116V60.1219L96.2188 59.3198Z" fill="#231F20"/>
<path fill-rule="evenodd" clip-rule="evenodd" d="M93.7335 57.8853V58.8794L95.123 59.6815V58.6873L93.7335 57.8853Z" fill="#231F20"/>
<path fill-rule="evenodd" clip-rule="evenodd" d="M91.2595 56.4504V57.4446L92.6377 58.2466V57.2525L91.2595 56.4504Z" fill="#231F20"/>
<path fill-rule="evenodd" clip-rule="evenodd" d="M103.799 63.6917L103.505 64.5164C103.912 64.7536 104.307 64.9683 104.714 65.2168L105.256 64.5842C104.782 64.2679 104.296 63.9741 103.799 63.6804V63.6917Z" fill="#231F20"/>
<path fill-rule="evenodd" clip-rule="evenodd" d="M101.201 62.1892V63.1946L102.545 63.9628L102.613 63.0139L101.201 62.1892Z" fill="#231F20"/>
<path fill-rule="evenodd" clip-rule="evenodd" d="M98.7267 60.7659V61.76L100.116 62.5621V61.5679L98.7267 60.7659Z" fill="#231F20"/>
<path fill-rule="evenodd" clip-rule="evenodd" d="M106.872 71.9048L106.002 71.4077V73.0006L106.872 73.4976V71.9048Z" fill="#231F20"/>
<path fill-rule="evenodd" clip-rule="evenodd" d="M106.872 68.9335L106.002 68.7754V70.1649L106.872 70.6281V68.9335Z" fill="#231F20"/>
<path fill-rule="evenodd" clip-rule="evenodd" d="M106.284 65.7705L105.573 66.1772C105.866 66.663 106.013 67.2278 106.002 67.6797L106.838 67.5893C106.838 67.0358 106.646 66.3692 106.284 65.7705Z" fill="#231F20"/>
<path fill-rule="evenodd" clip-rule="evenodd" d="M106.872 80.4787L106.002 79.9817V81.5632L106.872 82.0716V80.4787Z" fill="#231F20"/>
<path fill-rule="evenodd" clip-rule="evenodd" d="M106.872 77.6208L106.002 77.1238V78.7166L106.872 79.2137V77.6208Z" fill="#231F20"/>
<path fill-rule="evenodd" clip-rule="evenodd" d="M106.872 74.7852L106.002 74.2769V75.8697L106.872 76.3668V74.7852Z" fill="#231F20"/>
<path fill-rule="evenodd" clip-rule="evenodd" d="M106.68 89.1436L105.889 87.9688C105.742 88.3077 105.414 88.4658 105.042 88.398L105.652 89.6633C106.104 89.7311 106.488 89.539 106.68 89.1323V89.1436Z" fill="#231F20"/>
<path fill-rule="evenodd" clip-rule="evenodd" d="M106.872 86.2629L106.002 85.5625V86.952L106.849 87.9461C106.872 87.4039 106.872 86.8278 106.86 86.2629H106.872Z" fill="#231F20"/>
<path fill-rule="evenodd" clip-rule="evenodd" d="M106.872 83.3484L106.002 82.8513V84.4442L106.872 84.9412V83.3484Z" fill="#231F20"/>
<path d="M47.6535 59.6135L34.8542 52.2254C34.6169 52.0898 34.391 52.0672 34.2328 52.1689L32.1429 53.389C32.3011 53.2986 32.527 53.3099 32.7642 53.4454L45.5636 60.8336C46.0494 61.116 46.4448 61.7938 46.4335 62.3474L46.3883 77.0559C46.3883 77.3271 46.2866 77.5191 46.1398 77.6095L48.2297 76.3894C48.3878 76.299 48.4782 76.107 48.4782 75.8359L48.5234 61.1273C48.5234 60.5738 48.1393 59.896 47.6535 59.6135Z" fill="#4D4D4D"/>
<path d="M45.5636 60.8222C46.0494 61.1046 46.4448 61.7825 46.4335 62.336L46.3883 77.0445C46.3883 77.5981 45.9929 77.824 45.5071 77.5416L32.7078 70.1534C32.2333 69.871 31.8266 69.1932 31.8379 68.651L31.8831 53.9424C31.8831 53.3889 32.2785 53.1629 32.7642 53.4454L45.5636 60.8335V60.8222Z" fill="black"/>
<path d="M47.6535 34.5571L34.8542 27.169C34.6169 27.0334 34.391 27.0108 34.2328 27.1125L32.1429 28.3326C32.3011 28.2422 32.527 28.2535 32.7642 28.389L45.5636 35.7772C46.0494 36.0596 46.4448 36.7374 46.4335 37.291L46.3883 51.9995C46.3883 52.2707 46.2866 52.4627 46.1398 52.5531L48.2297 51.333C48.3878 51.2426 48.4782 51.0506 48.4782 50.7795L48.5234 36.0709C48.5234 35.5174 48.1393 34.8396 47.6535 34.5571Z" fill="#7981F2"/>
<path d="M45.5636 35.7658C46.0494 36.0482 46.4448 36.7261 46.4335 37.2796L46.3883 51.9881C46.3883 52.5417 45.9929 52.7676 45.5071 52.4852L32.7078 45.097C32.2333 44.8146 31.8266 44.1368 31.8379 43.5946L31.8831 28.886C31.8831 28.3325 32.2785 28.1065 32.7642 28.389L45.5636 35.7771V35.7658Z" fill="#4D4BB7"/>
<path d="M47.6535 9.50075L34.8542 2.11259C34.6169 1.97703 34.391 1.95443 34.2328 2.05611L32.1429 3.27617C32.3011 3.18579 32.527 3.19709 32.7642 3.33265L45.5636 10.7208C46.0494 11.0032 46.4448 11.681 46.4335 12.2346L46.3883 26.9431C46.3883 27.2143 46.2866 27.4063 46.1398 27.4967L48.2297 26.2766C48.3878 26.1862 48.4782 25.9942 48.4782 25.7231L48.5234 11.0145C48.5234 10.461 48.1393 9.78317 47.6535 9.50075Z" fill="#FFD166"/>
<path d="M45.5636 10.7209C46.0494 11.0033 46.4448 11.6811 46.4335 12.2347L46.3883 26.9432C46.3883 27.4968 45.9929 27.7227 45.5071 27.4403L32.7078 20.0521C32.2333 19.7697 31.8266 19.0919 31.8379 18.5496L31.8831 3.8411C31.8831 3.28755 32.2785 3.06161 32.7642 3.34404L45.5636 10.7322V10.7209Z" fill="#FFAD66"/>
<path d="M75.6698 50.7117L62.8704 43.3235C62.6332 43.188 62.4072 43.1654 62.2491 43.267L60.1591 44.4871C60.3173 44.3967 60.5432 44.408 60.7805 44.5436L73.5798 51.9318C74.0656 52.2142 74.461 52.892 74.4497 53.4455L74.4045 68.1541C74.4045 68.4252 74.3028 68.6172 74.156 68.7076L76.2459 67.4876C76.4041 67.3972 76.4944 67.2051 76.4944 66.934L76.5396 52.2255C76.5396 51.6719 76.1555 50.9941 75.6698 50.7117Z" fill="#7981F2"/>
<path d="M73.5799 51.9318C74.0656 52.2143 74.461 52.8921 74.4497 53.4456L74.4045 68.1542C74.4045 68.7077 74.0091 68.9336 73.5234 68.6512L60.724 61.2631C60.2495 60.9806 59.8428 60.3028 59.8541 59.7606L59.8993 45.052C59.8993 44.4985 60.2947 44.2726 60.7805 44.555L73.5799 51.9431V51.9318Z" fill="#4D4BB7"/>
<path d="M67.5021 58.5404L64.8135 56.9814L63.7629 59.7491L64.7796 60.3366V60.6303L62.701 59.4328V59.1391L63.3449 59.5119L66.813 50.802L67.9314 51.4459L71.3544 64.1323L71.9757 64.4938V64.7875L67.536 62.2231V61.9294L68.4963 62.483L67.5021 58.5404ZM64.9377 56.7103L67.4005 58.1337L66.2143 53.3664L64.9377 56.7103Z" fill="black"/>
<path d="M75.6698 25.6665L62.8704 18.2784C62.6332 18.1428 62.4072 18.1202 62.2491 18.2219L60.1591 19.4419C60.3173 19.3516 60.5432 19.3629 60.7805 19.4984L73.5798 26.8866C74.0656 27.169 74.461 27.8468 74.4497 28.4004L74.4045 43.1089C74.4045 43.38 74.3028 43.5721 74.156 43.6625L76.2459 42.4424C76.4041 42.352 76.4944 42.16 76.4944 41.8888L76.5396 27.1803C76.5396 26.6268 76.1555 25.9489 75.6698 25.6665Z" fill="#7981F2"/>
<path d="M73.5799 26.8752C74.0656 27.1576 74.461 27.8354 74.4497 28.389L74.4045 43.0975C74.4045 43.6511 74.0091 43.877 73.5234 43.5946L60.724 36.2064C60.2495 35.924 59.8428 35.2462 59.8541 34.7039L59.8993 19.9954C59.8993 19.4418 60.2947 19.2159 60.7805 19.4983L73.5799 26.8865V26.8752Z" fill="#4D4BB7"/>
<path d="M68.7561 33.8117L65.0733 31.6878L63.5934 35.5062L62.9608 35.1334L66.9147 24.9436L70.8686 39.6973L70.236 39.3358L68.7561 33.8117ZM68.5414 32.9983L66.926 26.9544L65.3105 31.1343L68.5527 33.0096L68.5414 32.9983Z" fill="black"/>
<path d="M52.0028 145.346L1.17814 115.996C0.760158 115.759 0.805345 115.33 1.29111 115.047L20.123 104.18C20.6088 103.897 21.3431 103.864 21.7611 104.112L72.5857 133.45C73.0037 133.687 72.9585 134.117 72.4728 134.399L53.6409 145.267C53.1551 145.549 52.4208 145.572 52.0028 145.334V145.346Z" fill="#F2F2F2"/>
<path d="M69.2645 130.502V131.225L22.5405 104.248C22.1452 104.022 21.4447 104.044 20.9816 104.316L4.61239 113.76V113.263H2.72581L2.74841 115.127C2.74841 115.274 2.82749 115.409 3.00824 115.511L51.2233 143.346C51.6187 143.572 52.3191 143.55 52.7823 143.279L70.6427 132.964C70.8912 132.818 71.0042 132.648 71.0155 132.467V130.592L69.2645 130.479V130.502Z" fill="#BFBFBF"/>
<path d="M51.2233 141.471L3.00824 113.635C2.61285 113.409 2.65804 113.003 3.12121 112.732L20.9816 102.418C21.4448 102.147 22.1339 102.124 22.5406 102.35L70.7556 130.185C71.151 130.411 71.1058 130.818 70.6427 131.089L52.7823 141.403C52.3191 141.674 51.63 141.697 51.2233 141.471Z" fill="#D9D9D9"/>
<path d="M24.766 104.643L23.1958 105.558C23.0828 105.626 22.902 105.626 22.7891 105.558L20.1682 104.044C20.1682 104.044 20.0891 103.965 20.0891 103.931V104.214C20.0891 104.214 20.1117 104.304 20.1682 104.327L22.7891 105.841C22.902 105.908 23.0828 105.908 23.1958 105.841L24.766 104.926C24.766 104.926 24.8451 104.846 24.8451 104.813V104.53C24.8451 104.53 24.8225 104.609 24.766 104.643Z" fill="#1F2125"/>
<path d="M24.7547 104.406C24.8677 104.474 24.8677 104.575 24.7547 104.643L23.1845 105.558C23.0715 105.626 22.8907 105.626 22.7778 105.558L20.1569 104.044C20.0439 103.977 20.0439 103.875 20.1569 103.818L21.7272 102.903C21.8401 102.836 22.0209 102.836 22.1339 102.903L24.7547 104.417V104.406Z" fill="#4D4D4D"/>
<path d="M22.2581 105.931L19.8519 107.332C19.7276 107.411 19.513 107.411 19.3774 107.332L16.9599 105.931C16.8921 105.897 16.8582 105.841 16.8582 105.795V106.078C16.8582 106.078 16.8921 106.179 16.9599 106.213L19.3774 107.614C19.5017 107.693 19.7163 107.693 19.8519 107.614L22.2581 106.213C22.3259 106.179 22.3598 106.123 22.3598 106.078V105.795C22.3598 105.795 22.3259 105.897 22.2694 105.931H22.2581Z" fill="#1F2125"/>
<path d="M22.2581 105.66C22.3824 105.739 22.3937 105.852 22.2581 105.931L19.8519 107.332C19.7276 107.411 19.513 107.411 19.3774 107.332L16.9599 105.931C16.8243 105.852 16.8243 105.739 16.9599 105.66L19.3661 104.259C19.4904 104.18 19.705 104.18 19.8406 104.259L22.2581 105.66Z" fill="#4D4D4D"/>
<path d="M27.9856 106.496L26.4041 107.411C26.2911 107.479 26.1217 107.479 26.0087 107.411L23.4895 105.954C23.4895 105.954 23.4104 105.886 23.4104 105.841V106.123C23.4104 106.123 23.433 106.202 23.4895 106.236L26.0087 107.693C26.1217 107.761 26.2911 107.761 26.4041 107.693L27.9856 106.778C27.9856 106.778 28.0647 106.71 28.0647 106.665V106.383C28.0647 106.383 28.0421 106.462 27.9856 106.496Z" fill="#1F2125"/>
<path d="M27.9856 106.27C28.0986 106.338 28.0986 106.439 27.9856 106.496L26.4041 107.411C26.2911 107.479 26.1217 107.479 26.0087 107.411L23.4895 105.954C23.3765 105.886 23.3765 105.784 23.4895 105.728L25.071 104.813C25.184 104.745 25.3535 104.745 25.4664 104.813L27.9856 106.27Z" fill="#4D4D4D"/>
<path d="M25.6133 107.863L23.2071 109.264C23.0828 109.343 22.8681 109.343 22.7326 109.264L20.3151 107.874C20.2473 107.84 20.2134 107.784 20.2134 107.739V108.021C20.2134 108.021 20.2473 108.123 20.3151 108.157L22.7326 109.546C22.8681 109.625 23.0715 109.625 23.2071 109.546L25.6133 108.145C25.6811 108.111 25.7037 108.055 25.715 108.01V107.727C25.715 107.727 25.6811 107.829 25.6246 107.863H25.6133Z" fill="#1F2125"/>
<path d="M25.602 107.592C25.7376 107.671 25.7376 107.795 25.602 107.863L23.1958 109.264C23.0715 109.343 22.8569 109.343 22.7213 109.264L20.3038 107.874C20.1682 107.795 20.1682 107.671 20.3038 107.603L22.71 106.202C22.8343 106.123 23.0489 106.123 23.1845 106.202L25.602 107.592Z" fill="#4D4D4D"/>
<path d="M31.2617 108.393L29.6802 109.309C29.5672 109.376 29.3977 109.376 29.2848 109.309L26.7656 107.851C26.7656 107.851 26.6865 107.772 26.6865 107.738V108.021C26.6865 108.021 26.7091 108.1 26.7656 108.134L29.2848 109.591C29.3977 109.659 29.5672 109.659 29.6802 109.591L31.2617 108.676C31.2617 108.676 31.3408 108.608 31.3408 108.563V108.281C31.3408 108.281 31.3182 108.36 31.2617 108.393Z" fill="#1F2125"/>
<path d="M31.2617 108.156C31.3747 108.224 31.3747 108.326 31.2617 108.382L29.6802 109.297C29.5672 109.365 29.3977 109.365 29.2848 109.297L26.7656 107.84C26.6526 107.772 26.6526 107.671 26.7656 107.614L28.3471 106.699C28.4601 106.631 28.6296 106.631 28.7425 106.699L31.2617 108.156Z" fill="#4D4D4D"/>
<path d="M34.5491 110.28L32.9676 111.195C32.8546 111.263 32.6851 111.263 32.5722 111.195L30.053 109.738C30.053 109.738 29.9739 109.67 29.9739 109.625V109.907C29.9739 109.907 29.9965 109.986 30.053 110.02L32.5722 111.478C32.6851 111.545 32.8546 111.545 32.9676 111.478L34.5491 110.563C34.5491 110.563 34.6282 110.495 34.6282 110.45V110.167C34.6282 110.167 34.6056 110.246 34.5491 110.28Z" fill="#1F2125"/>
<path d="M34.5491 110.054C34.6621 110.122 34.6621 110.224 34.5491 110.28L32.9676 111.195C32.8546 111.263 32.6851 111.263 32.5722 111.195L30.053 109.738C29.94 109.67 29.94 109.569 30.053 109.512L31.6345 108.597C31.7475 108.529 31.9169 108.529 32.0299 108.597L34.5491 110.054Z" fill="#4D4D4D"/>
<path d="M37.8252 112.178L36.2436 113.093C36.1307 113.161 35.9612 113.161 35.8483 113.093L33.329 111.636C33.329 111.636 33.25 111.557 33.25 111.523V111.805C33.25 111.805 33.2726 111.884 33.329 111.918L35.8483 113.376C35.9612 113.443 36.1307 113.443 36.2436 113.376L37.8252 112.461C37.8252 112.461 37.9043 112.393 37.9043 112.348V112.065C37.9043 112.065 37.8817 112.144 37.8252 112.178Z" fill="#1F2125"/>
<path d="M37.8252 111.952C37.9382 112.02 37.9382 112.122 37.8252 112.178L36.2436 113.093C36.1307 113.161 35.9612 113.161 35.8483 113.093L33.3291 111.636C33.2161 111.568 33.2161 111.466 33.3291 111.41L34.9106 110.495C35.0236 110.427 35.193 110.427 35.306 110.495L37.8252 111.952Z" fill="#4D4D4D"/>
<path d="M41.1013 114.076L39.5198 114.991C39.4068 115.059 39.2373 115.059 39.1244 114.991L36.6052 113.534C36.6052 113.534 36.5261 113.455 36.5261 113.421V113.703C36.5261 113.703 36.5487 113.782 36.6052 113.816L39.1244 115.273C39.2373 115.341 39.4068 115.341 39.5198 115.273L41.1013 114.358C41.1013 114.358 41.1804 114.291 41.1804 114.245V113.963C41.1804 113.963 41.1578 114.042 41.1013 114.076Z" fill="#1F2125"/>
<path d="M41.1013 113.839C41.2143 113.906 41.2143 114.008 41.1013 114.065L39.5198 114.98C39.4068 115.047 39.2373 115.047 39.1244 114.98L36.6052 113.522C36.4922 113.455 36.4922 113.353 36.6052 113.296L38.1867 112.381C38.2997 112.314 38.4692 112.314 38.5821 112.381L41.1013 113.839Z" fill="#4D4D4D"/>
<path d="M44.3887 115.963L42.8071 116.878C42.6942 116.945 42.5247 116.945 42.4118 116.878L39.8926 115.42C39.8926 115.42 39.8135 115.353 39.8135 115.307V115.59C39.8135 115.59 39.8361 115.669 39.8926 115.703L42.4118 117.16C42.5247 117.228 42.6942 117.228 42.8071 117.16L44.3887 116.245C44.3887 116.245 44.4678 116.177 44.4678 116.132V115.85C44.4678 115.85 44.4452 115.929 44.3887 115.963Z" fill="#1F2125"/>
<path d="M44.3887 115.737C44.5017 115.804 44.5017 115.906 44.3887 115.963L42.8072 116.878C42.6942 116.945 42.5247 116.945 42.4118 116.878L39.8926 115.42C39.7796 115.353 39.7796 115.251 39.8926 115.194L41.4741 114.279C41.5871 114.212 41.7565 114.212 41.8695 114.279L44.3887 115.737Z" fill="#4D4D4D"/>
<path d="M47.6648 117.861L46.0832 118.776C45.9703 118.843 45.8008 118.843 45.6879 118.776L43.1686 117.318C43.1686 117.318 43.0896 117.239 43.0896 117.205V117.488C43.0896 117.488 43.1122 117.567 43.1686 117.601L45.6879 119.058C45.8008 119.126 45.9703 119.126 46.0832 119.058L47.6648 118.143C47.6648 118.143 47.7439 118.075 47.7439 118.03V117.748C47.7439 117.748 47.7213 117.827 47.6648 117.861Z" fill="#1F2125"/>
<path d="M47.6648 117.635C47.7778 117.702 47.7778 117.804 47.6648 117.861L46.0832 118.776C45.9703 118.843 45.8008 118.843 45.6879 118.776L43.1686 117.318C43.0557 117.251 43.0557 117.149 43.1686 117.092L44.7502 116.177C44.8632 116.11 45.0326 116.11 45.1456 116.177L47.6648 117.635Z" fill="#4D4D4D"/>
<path d="M50.9522 119.758L49.3706 120.673C49.2577 120.741 49.0882 120.741 48.9752 120.673L46.456 119.216C46.456 119.216 46.377 119.148 46.377 119.103V119.385C46.377 119.385 46.3996 119.465 46.456 119.498L48.9752 120.956C49.0882 121.023 49.2577 121.023 49.3706 120.956L50.9522 120.041C50.9522 120.041 51.0313 119.973 51.0313 119.928V119.645C51.0313 119.645 51.0087 119.724 50.9522 119.758Z" fill="#1F2125"/>
<path d="M50.9522 119.532C51.0652 119.6 51.0652 119.702 50.9522 119.758L49.3706 120.673C49.2577 120.741 49.0882 120.741 48.9752 120.673L46.456 119.216C46.3431 119.148 46.3431 119.047 46.456 118.99L48.0376 118.075C48.1506 118.007 48.32 118.007 48.433 118.075L50.9522 119.532Z" fill="#4D4D4D"/>
<path d="M54.2283 121.645L52.6467 122.56C52.5338 122.628 52.3643 122.628 52.2513 122.56L49.7321 121.103C49.7321 121.103 49.653 121.024 49.653 120.99V121.272C49.653 121.272 49.6756 121.351 49.7321 121.385L52.2513 122.842C52.3643 122.91 52.5338 122.91 52.6467 122.842L54.2283 121.927C54.2283 121.927 54.3074 121.86 54.3074 121.814V121.532C54.3074 121.532 54.2848 121.611 54.2283 121.645Z" fill="#1F2125"/>
<path d="M54.2283 121.419C54.3413 121.487 54.3413 121.588 54.2283 121.645L52.6467 122.56C52.5338 122.628 52.3643 122.628 52.2513 122.56L49.7321 121.103C49.6192 121.035 49.6192 120.933 49.7321 120.877L51.3137 119.962C51.4267 119.894 51.5961 119.894 51.7091 119.962L54.2283 121.419Z" fill="#4D4D4D"/>
<path d="M57.5157 123.543L55.9341 124.458C55.8212 124.525 55.6517 124.525 55.5387 124.458L53.0195 123C53.0195 123 52.9405 122.933 52.9405 122.887V123.17C52.9405 123.17 52.9631 123.249 53.0195 123.283L55.5387 124.74C55.6517 124.808 55.8212 124.808 55.9341 124.74L57.5157 123.825C57.5157 123.825 57.5948 123.757 57.5948 123.712V123.43C57.5948 123.43 57.5722 123.509 57.5157 123.543Z" fill="#1F2125"/>
<path d="M57.5157 123.317C57.6287 123.385 57.6287 123.486 57.5157 123.543L55.9341 124.458C55.8212 124.525 55.6517 124.525 55.5387 124.458L53.0195 123C52.9066 122.933 52.9066 122.831 53.0195 122.774L54.6011 121.859C54.7141 121.792 54.8835 121.792 54.9965 121.859L57.5157 123.317Z" fill="#4D4D4D"/>
<path d="M60.7918 125.441L59.2102 126.356C59.0973 126.423 58.9278 126.423 58.8148 126.356L56.2956 124.898C56.2956 124.898 56.2166 124.819 56.2166 124.785V125.068C56.2166 125.068 56.2391 125.147 56.2956 125.181L58.8148 126.638C58.9278 126.706 59.0973 126.706 59.2102 126.638L60.7918 125.723C60.7918 125.723 60.8709 125.655 60.8709 125.61V125.328C60.8709 125.328 60.8483 125.407 60.7918 125.441Z" fill="#1F2125"/>
<path d="M60.7918 125.215C60.9048 125.282 60.9048 125.384 60.7918 125.441L59.2102 126.356C59.0973 126.423 58.9278 126.423 58.8148 126.356L56.2956 124.898C56.1827 124.831 56.1827 124.729 56.2956 124.672L57.8772 123.757C57.9902 123.69 58.1596 123.69 58.2726 123.757L60.7918 125.215Z" fill="#4D4D4D"/>
<path d="M59.6282 127.022V126.74C59.6282 126.74 59.6621 126.853 59.7412 126.898V127.18C59.6621 127.135 59.6282 127.079 59.6282 127.022Z" fill="#1F2125"/>
<path d="M66.7227 128.728V129.01C66.7227 129.01 66.6888 129.123 66.6097 129.169V128.886C66.6888 128.841 66.7227 128.785 66.7227 128.728Z" fill="#1F2125"/>
<path d="M66.6097 128.886V129.169L65.175 130.005V129.722L66.6097 128.886Z" fill="#1F2125"/>
<path d="M64.6327 129.722V130.005L59.7412 127.18V126.898L64.6327 129.722Z" fill="#1F2125"/>
<path d="M65.175 129.722V130.005C65.0281 130.095 64.7909 130.095 64.644 130.005V129.722C64.7909 129.813 65.0394 129.813 65.175 129.722Z" fill="#1F2125"/>
<path d="M66.6097 128.57C66.7565 128.66 66.7565 128.796 66.6097 128.886L65.175 129.722C65.0281 129.813 64.7909 129.813 64.644 129.722L59.7525 126.898C59.6056 126.808 59.6056 126.672 59.7525 126.593L61.1872 125.757C61.334 125.667 61.5713 125.667 61.7294 125.757L66.621 128.581L66.6097 128.57Z" fill="#4D4D4D"/>
<path d="M28.8781 109.749L26.4719 111.15C26.3476 111.229 26.1329 111.229 25.9974 111.15L23.5799 109.761C23.5121 109.727 23.4782 109.67 23.4782 109.625V109.907C23.4782 109.907 23.5121 110.009 23.5799 110.043L25.9974 111.444C26.1329 111.523 26.3363 111.523 26.4719 111.444L28.8781 110.043C28.9459 110.009 28.9685 109.953 28.9798 109.907V109.625C28.9798 109.625 28.9459 109.727 28.8894 109.761L28.8781 109.749Z" fill="#1F2125"/>
<path d="M28.8781 109.478C29.0137 109.557 29.0137 109.681 28.8781 109.749L26.4719 111.15C26.3476 111.229 26.133 111.229 25.9974 111.15L23.5799 109.761C23.4556 109.681 23.4443 109.557 23.5799 109.489L25.9861 108.089C26.1104 108.01 26.325 108.01 26.4606 108.089L28.8781 109.489V109.478Z" fill="#4D4D4D"/>
<path d="M20.7104 108.755L18.4285 110.077C18.2703 110.167 17.9992 110.167 17.841 110.077L13.8871 107.795C13.8081 107.75 13.7629 107.682 13.7629 107.625V107.908C13.7629 107.976 13.8081 108.032 13.8871 108.077L17.841 110.359C17.9992 110.45 18.2703 110.45 18.4285 110.359L20.7104 109.038C20.7895 108.992 20.8347 108.925 20.8347 108.868V108.586C20.8347 108.642 20.7895 108.71 20.7104 108.755Z" fill="#1F2125"/>
<path d="M20.7104 108.405C20.8686 108.495 20.8686 108.653 20.7104 108.744L18.4285 110.066C18.2703 110.156 17.9992 110.156 17.841 110.066L13.8871 107.784C13.7177 107.693 13.7177 107.535 13.8871 107.445L16.1691 106.123C16.3273 106.033 16.5984 106.033 16.7565 106.123L20.7104 108.405Z" fill="#4D4D4D"/>
<path d="M24.1673 110.676L21.7723 112.076C21.6481 112.155 21.4334 112.155 21.2979 112.076L18.8803 110.676C18.8126 110.642 18.7787 110.585 18.7787 110.54V110.822C18.7787 110.822 18.8126 110.924 18.8803 110.958L21.2979 112.348C21.4334 112.427 21.6481 112.427 21.7723 112.348L24.1673 110.958C24.2351 110.924 24.269 110.868 24.269 110.822V110.54C24.269 110.54 24.2351 110.642 24.1673 110.676Z" fill="#1F2125"/>
<path d="M24.1673 110.405C24.3029 110.484 24.3029 110.608 24.1673 110.676L21.7724 112.077C21.6481 112.156 21.4334 112.156 21.2979 112.077L18.8803 110.687C18.7561 110.608 18.7448 110.484 18.8803 110.416L21.2753 109.026C21.4109 108.947 21.6142 108.947 21.7498 109.026L24.1673 110.416V110.405Z" fill="#4D4D4D"/>
<path d="M18.259 111.15L16.0335 112.449C15.8528 112.551 15.5704 112.551 15.3896 112.449L10.6562 109.715C10.5658 109.659 10.5207 109.591 10.5207 109.523V109.806C10.5207 109.874 10.5658 109.941 10.6562 109.998L15.3896 112.732C15.5704 112.833 15.8528 112.833 16.0335 112.732L18.259 111.433C18.3494 111.376 18.3946 111.32 18.3946 111.252V110.969C18.3946 111.037 18.3494 111.105 18.259 111.15Z" fill="#1F2125"/>
<path d="M18.259 110.777C18.4398 110.879 18.4398 111.049 18.259 111.15L16.0335 112.449C15.8528 112.551 15.5704 112.551 15.3896 112.449L10.6562 109.715C10.4755 109.614 10.4755 109.444 10.6562 109.343L12.8817 108.044C13.0625 107.942 13.3449 107.942 13.5256 108.044L18.259 110.777Z" fill="#4D4D4D"/>
<path d="M32.1542 111.647L29.7479 113.048C29.6237 113.127 29.409 113.127 29.2735 113.048L26.8559 111.647C26.7882 111.613 26.7543 111.557 26.7543 111.512V111.794C26.7543 111.794 26.7882 111.896 26.8559 111.93L29.2735 113.319C29.409 113.398 29.6124 113.398 29.7479 113.319L32.1542 111.918C32.222 111.884 32.2446 111.828 32.2559 111.783V111.5C32.2559 111.5 32.222 111.602 32.1655 111.636L32.1542 111.647Z" fill="#1F2125"/>
<path d="M32.1542 111.365C32.2898 111.444 32.2898 111.568 32.1542 111.636L29.748 113.037C29.6237 113.116 29.409 113.116 29.2735 113.037L26.856 111.636C26.7317 111.557 26.7204 111.432 26.856 111.365L29.2622 109.964C29.3865 109.885 29.6011 109.885 29.7367 109.964L32.1542 111.353V111.365Z" fill="#4D4D4D"/>
<path d="M27.466 112.585L25.071 113.986C24.9468 114.065 24.7321 114.065 24.5966 113.986L22.179 112.585C22.1113 112.551 22.0774 112.494 22.0774 112.449V112.732C22.0774 112.732 22.1113 112.833 22.179 112.867L24.5966 114.257C24.7321 114.336 24.9468 114.336 25.071 114.257L27.466 112.867C27.5338 112.833 27.5676 112.777 27.5676 112.732V112.449C27.5676 112.449 27.5338 112.551 27.466 112.585Z" fill="#1F2125"/>
<path d="M27.466 112.302C27.6015 112.381 27.6015 112.506 27.466 112.573L25.071 113.974C24.9468 114.053 24.7321 114.053 24.5966 113.974L22.179 112.573C22.0548 112.494 22.0435 112.37 22.179 112.302L24.574 110.913C24.7095 110.834 24.9129 110.834 25.0484 110.913L27.466 112.302Z" fill="#4D4D4D"/>
<path d="M21.7385 113.003L19.3435 114.392C19.208 114.471 19.0046 114.471 18.8691 114.392L16.4515 113.003C16.3837 112.969 16.3499 112.912 16.3499 112.867V113.15C16.3499 113.15 16.3837 113.251 16.4515 113.285L18.8691 114.686C19.0046 114.765 19.208 114.765 19.3435 114.686L21.7385 113.285C21.8062 113.251 21.8401 113.195 21.8401 113.15V112.867C21.8401 112.867 21.8062 112.969 21.7385 113.003Z" fill="#1F2125"/>
<path d="M21.7385 112.732C21.874 112.811 21.874 112.935 21.7385 113.003L19.3435 114.392C19.208 114.471 19.0046 114.471 18.8691 114.392L16.4515 113.003C16.3273 112.924 16.316 112.811 16.4515 112.732L18.8578 111.331C18.982 111.252 19.1967 111.252 19.3322 111.331L21.7498 112.72L21.7385 112.732Z" fill="#4D4D4D"/>
<path d="M13.5595 112.031L11.2324 113.387C11.0855 113.477 10.837 113.477 10.6901 113.387L7.43661 111.512C7.35753 111.466 7.32364 111.41 7.32364 111.354V111.636C7.32364 111.692 7.35753 111.749 7.43661 111.794L10.6901 113.669C10.837 113.76 11.0855 113.76 11.2324 113.669L13.5595 112.314C13.6386 112.269 13.6725 112.212 13.6725 112.156V111.873C13.6725 111.93 13.6386 111.986 13.5595 112.031Z" fill="#1F2125"/>
<path d="M13.5595 111.715C13.7064 111.805 13.7064 111.941 13.5595 112.031L11.2324 113.387C11.0855 113.477 10.837 113.477 10.6901 113.387L7.43661 111.512C7.28975 111.421 7.28975 111.286 7.43661 111.195L9.76376 109.84C9.91062 109.749 10.1592 109.749 10.306 109.84L13.5595 111.715Z" fill="#4D4D4D"/>
<path d="M16.8695 113.941L14.4746 115.33C14.339 115.409 14.1357 115.409 14.0001 115.33L11.5826 113.929C11.5148 113.895 11.4809 113.839 11.4809 113.794V114.076C11.4809 114.076 11.5148 114.178 11.5826 114.212L14.0001 115.612C14.1357 115.692 14.339 115.692 14.4746 115.612L16.8695 114.223C16.9373 114.189 16.9712 114.133 16.9712 114.087V113.805C16.9712 113.805 16.9373 113.907 16.8695 113.941Z" fill="#1F2125"/>
<path d="M16.8808 113.669C17.0051 113.748 17.0164 113.861 16.8808 113.941L14.4859 115.33C14.3503 115.409 14.147 115.409 14.0114 115.33L11.5939 113.929C11.4696 113.85 11.4583 113.737 11.5939 113.658L13.9888 112.257C14.1244 112.178 14.3277 112.178 14.4633 112.257L16.8808 113.658V113.669Z" fill="#4D4D4D"/>
<path d="M9.51524 113.342L7.109 114.742C6.98473 114.822 6.77009 114.822 6.63453 114.742L4.217 113.342C4.14922 113.308 4.11533 113.251 4.11533 113.206V113.488C4.11533 113.488 4.14922 113.59 4.217 113.624L6.63453 115.025C6.7588 115.104 6.97344 115.104 7.109 115.025L9.51524 113.624C9.58302 113.59 9.61691 113.534 9.61691 113.488V113.206C9.61691 113.206 9.58302 113.308 9.52653 113.342H9.51524Z" fill="#1F2125"/>
<path d="M9.51524 113.07C9.63951 113.15 9.6508 113.263 9.51524 113.342L7.10901 114.742C6.98474 114.821 6.7701 114.821 6.63454 114.742L4.217 113.342C4.09274 113.263 4.08144 113.15 4.217 113.07L6.62324 111.67C6.74751 111.591 6.96215 111.591 7.09771 111.67L9.51524 113.07Z" fill="#4D4D4D"/>
<path d="M12.9269 115.307L10.5207 116.708C10.3964 116.787 10.1817 116.787 10.0462 116.708L7.62865 115.319C7.56087 115.285 7.52698 115.228 7.52698 115.183V115.466C7.52698 115.466 7.56087 115.567 7.62865 115.601L10.0462 117.002C10.1817 117.081 10.3851 117.081 10.5207 117.002L12.9269 115.601C12.9947 115.567 13.0286 115.511 13.0286 115.466V115.183C13.0286 115.183 12.9947 115.285 12.9382 115.319L12.9269 115.307Z" fill="#1F2125"/>
<path d="M12.9269 115.036C13.0625 115.115 13.0625 115.24 12.9269 115.307L10.5207 116.708C10.3964 116.787 10.1818 116.787 10.0462 116.708L7.62866 115.319C7.50439 115.24 7.49309 115.115 7.62866 115.048L10.0349 113.647C10.1592 113.568 10.3738 113.568 10.5094 113.647L12.9269 115.048V115.036Z" fill="#4D4D4D"/>
<path d="M35.4303 113.534L33.0241 114.935C32.8998 115.014 32.6851 115.014 32.5496 114.935L30.1321 113.534C30.0643 113.5 30.0304 113.443 30.0304 113.398V113.681C30.0304 113.681 30.0643 113.782 30.1321 113.816L32.5496 115.206C32.6851 115.285 32.8885 115.285 33.0241 115.206L35.4303 113.805C35.4981 113.771 35.5207 113.715 35.532 113.669V113.387C35.532 113.387 35.4981 113.489 35.4416 113.523L35.4303 113.534Z" fill="#1F2125"/>
<path d="M35.4303 113.263C35.5658 113.342 35.5658 113.466 35.4303 113.534L33.024 114.935C32.8998 115.014 32.6851 115.014 32.5496 114.935L30.132 113.534C30.0078 113.455 29.9965 113.342 30.132 113.263L32.5383 111.862C32.6625 111.783 32.8772 111.783 33.0127 111.862L35.4303 113.251V113.263Z" fill="#4D4D4D"/>
<path d="M30.776 114.494L28.381 115.883C28.2568 115.963 28.0421 115.963 27.9066 115.883L25.489 114.494C25.4213 114.46 25.3874 114.404 25.3874 114.358V114.641C25.3874 114.641 25.4213 114.742 25.489 114.776L27.9066 116.177C28.0421 116.256 28.2568 116.256 28.381 116.177L30.776 114.776C30.8438 114.742 30.8776 114.686 30.8776 114.641V114.358C30.8776 114.358 30.8438 114.46 30.776 114.494Z" fill="#1F2125"/>
<path d="M30.776 114.212C30.9115 114.291 30.9115 114.415 30.776 114.483L28.381 115.872C28.2568 115.951 28.0421 115.951 27.9066 115.872L25.489 114.483C25.3648 114.404 25.3535 114.279 25.489 114.212L27.8953 112.811C28.0308 112.732 28.2342 112.732 28.3697 112.811L30.7873 114.212H30.776Z" fill="#4D4D4D"/>
<path d="M25.0259 114.901L22.6196 116.29C22.4841 116.369 22.2807 116.369 22.1452 116.29L19.7276 114.901C19.6598 114.867 19.6259 114.81 19.6259 114.765V115.048C19.6259 115.048 19.6598 115.149 19.7276 115.183L22.1452 116.573C22.2807 116.652 22.4841 116.652 22.6196 116.573L25.0259 115.183C25.0936 115.149 25.1275 115.093 25.1275 115.048V114.765C25.1275 114.765 25.0936 114.867 25.0259 114.901Z" fill="#1F2125"/>
<path d="M25.0259 114.629C25.1614 114.709 25.1614 114.833 25.0259 114.901L22.6196 116.29C22.4841 116.369 22.2807 116.369 22.1452 116.29L19.7276 114.901C19.5921 114.822 19.5921 114.709 19.7276 114.629L22.1226 113.24C22.2468 113.161 22.4615 113.161 22.597 113.24L25.0146 114.629H25.0259Z" fill="#4D4D4D"/>
<path d="M20.1456 115.827L17.7507 117.217C17.6151 117.296 17.4118 117.296 17.2762 117.217L14.8587 115.816C14.7909 115.782 14.757 115.725 14.757 115.68V115.963C14.757 115.963 14.7909 116.064 14.8587 116.098L17.2762 117.499C17.4118 117.578 17.6151 117.578 17.7507 117.499L20.1456 116.109C20.2134 116.076 20.2473 116.019 20.2473 115.974V115.691C20.2473 115.691 20.2134 115.793 20.1456 115.827Z" fill="#1F2125"/>
<path d="M20.1456 115.556C20.2699 115.635 20.2812 115.748 20.1456 115.827L17.7507 117.216C17.6151 117.296 17.4118 117.296 17.2762 117.216L14.8587 115.816C14.7344 115.737 14.7231 115.624 14.8587 115.545L17.2536 114.155C17.3892 114.076 17.5925 114.076 17.7281 114.155L20.1456 115.556Z" fill="#4D4D4D"/>
<path d="M16.2369 117.217L13.8306 118.617C13.7064 118.696 13.4917 118.696 13.3562 118.617L10.9386 117.228C10.8709 117.194 10.837 117.137 10.837 117.092V117.375C10.837 117.375 10.8709 117.476 10.9386 117.51L13.3562 118.911C13.4917 118.99 13.6951 118.99 13.8306 118.911L16.2369 117.51C16.3047 117.476 16.3273 117.42 16.3386 117.375V117.092C16.3386 117.092 16.3047 117.194 16.2482 117.228L16.2369 117.217Z" fill="#1F2125"/>
<path d="M16.2256 116.945C16.3611 117.024 16.3611 117.149 16.2256 117.217L13.8193 118.617C13.6951 118.696 13.4804 118.696 13.3449 118.617L10.9273 117.228C10.8031 117.149 10.7918 117.024 10.9273 116.957L13.3336 115.556C13.4578 115.477 13.6725 115.477 13.8081 115.556L16.2256 116.945Z" fill="#4D4D4D"/>
<path d="M38.7064 115.42L36.3001 116.821C36.1759 116.9 35.9612 116.9 35.8257 116.821L33.4081 115.42C33.3403 115.386 33.3065 115.33 33.3065 115.285V115.567C33.3065 115.567 33.3403 115.669 33.4081 115.703L35.8257 117.103C35.9499 117.183 36.1646 117.183 36.3001 117.103L38.7064 115.703C38.7741 115.669 38.808 115.612 38.808 115.567V115.285C38.808 115.285 38.7741 115.386 38.7177 115.42H38.7064Z" fill="#1F2125"/>
<path d="M38.6951 115.149C38.8193 115.228 38.8306 115.341 38.6951 115.42L36.2888 116.821C36.1646 116.9 35.9499 116.9 35.8144 116.821L33.3968 115.42C33.2613 115.341 33.2613 115.228 33.3968 115.149L35.8031 113.748C35.9273 113.669 36.142 113.669 36.2775 113.748L38.6951 115.149Z" fill="#4D4D4D"/>
<path d="M34.0747 116.403L31.6797 117.793C31.5555 117.872 31.3408 117.872 31.2053 117.793L28.7877 116.403C28.7199 116.369 28.6861 116.313 28.6861 116.268V116.55C28.6861 116.55 28.7199 116.652 28.7877 116.686L31.2053 118.075C31.3408 118.154 31.5555 118.154 31.6797 118.075L34.0747 116.686C34.1424 116.652 34.1763 116.595 34.1763 116.55V116.268C34.1763 116.268 34.1424 116.369 34.0747 116.403Z" fill="#1F2125"/>
<path d="M34.0747 116.121C34.2102 116.2 34.2102 116.324 34.0747 116.392L31.6797 117.781C31.5555 117.86 31.3408 117.86 31.2053 117.781L28.7877 116.392C28.6635 116.313 28.6522 116.189 28.7877 116.121L31.194 114.72C31.3295 114.641 31.5329 114.641 31.6684 114.72L34.086 116.109L34.0747 116.121Z" fill="#4D4D4D"/>
<path d="M28.3133 116.798L25.9183 118.199C25.7827 118.278 25.5794 118.278 25.4438 118.199L23.0263 116.798C22.9585 116.765 22.9246 116.708 22.9246 116.663V116.945C22.9246 116.945 22.9585 117.047 23.0263 117.081L25.4438 118.47C25.5794 118.549 25.7827 118.549 25.9183 118.47L28.3133 117.07C28.381 117.036 28.4149 116.979 28.4149 116.934V116.652C28.4149 116.652 28.381 116.753 28.3133 116.787V116.798Z" fill="#1F2125"/>
<path d="M28.3133 116.527C28.4488 116.607 28.4488 116.731 28.3133 116.799L25.9183 118.199C25.7828 118.278 25.5794 118.278 25.4438 118.199L23.0263 116.799C22.902 116.719 22.8908 116.607 23.0263 116.527L25.4325 115.138C25.5568 115.059 25.7715 115.059 25.907 115.138L28.3246 116.539L28.3133 116.527Z" fill="#4D4D4D"/>
<path d="M23.4217 117.725L21.0268 119.125C20.8912 119.205 20.6878 119.205 20.5523 119.125L18.1348 117.736C18.067 117.702 18.0331 117.646 18.0331 117.6V117.883C18.0331 117.883 18.067 117.985 18.1348 118.018L20.5523 119.408C20.6878 119.487 20.8912 119.487 21.0268 119.408L23.4217 118.007C23.4895 117.973 23.5234 117.917 23.5234 117.872V117.589C23.5234 117.589 23.4895 117.691 23.4217 117.725Z" fill="#1F2125"/>
<path d="M23.4217 117.454C23.5573 117.533 23.5573 117.646 23.4217 117.725L21.0268 119.126C20.8912 119.205 20.6878 119.205 20.5523 119.126L18.1348 117.736C17.9992 117.657 17.9992 117.533 18.1348 117.465L20.5297 116.075C20.6653 115.996 20.8686 115.996 21.0042 116.075L23.4217 117.465V117.454Z" fill="#4D4D4D"/>
<path d="M20.2699 119.578L17.9314 120.933C17.7846 121.024 17.5473 121.024 17.4005 120.933L14.2825 119.126C14.2147 119.08 14.1696 119.024 14.1696 118.968V119.25C14.1696 119.25 14.2034 119.363 14.2825 119.408L17.4005 121.216C17.5473 121.306 17.7846 121.306 17.9314 121.216L20.2699 119.86C20.3377 119.815 20.3828 119.758 20.3828 119.702V119.419C20.3828 119.419 20.3489 119.532 20.2699 119.578Z" fill="#1F2125"/>
<path d="M20.2699 119.272C20.4167 119.363 20.4167 119.498 20.2699 119.577L17.9314 120.933C17.7846 121.024 17.5473 121.024 17.4005 120.933L14.2825 119.126C14.1357 119.047 14.1357 118.9 14.2825 118.821L16.621 117.465C16.7678 117.375 17.0051 117.386 17.1519 117.465L20.2699 119.272Z" fill="#4D4D4D"/>
<path d="M31.6006 118.697L29.1944 120.097C29.0588 120.176 28.8555 120.176 28.7199 120.097L26.3024 118.697C26.2346 118.663 26.2007 118.606 26.2007 118.561V118.843C26.2007 118.843 26.2346 118.945 26.3024 118.979L28.7199 120.38C28.8442 120.459 29.0588 120.459 29.1944 120.38L31.5893 118.979C31.6571 118.945 31.691 118.889 31.691 118.843V118.561C31.691 118.561 31.6571 118.663 31.5893 118.697H31.6006Z" fill="#1F2125"/>
<path d="M31.6006 118.425C31.7249 118.504 31.7249 118.629 31.6006 118.697L29.2057 120.097C29.0701 120.176 28.8668 120.176 28.7312 120.097L26.3137 118.697C26.1781 118.617 26.1781 118.504 26.3137 118.425L28.7086 117.036C28.8329 116.957 29.0475 116.957 29.1831 117.036L31.6006 118.437V118.425Z" fill="#4D4D4D"/>
<path d="M26.6978 119.612L24.3028 121.001C24.1673 121.08 23.9639 121.08 23.8284 121.001L21.4108 119.612C21.3431 119.578 21.3092 119.521 21.3092 119.476V119.758C21.3092 119.758 21.3431 119.86 21.4108 119.894L23.8284 121.295C23.9639 121.374 24.1673 121.374 24.3028 121.295L26.6978 119.894C26.7656 119.86 26.7995 119.804 26.7995 119.758V119.476C26.7995 119.476 26.7656 119.578 26.6978 119.612Z" fill="#1F2125"/>
<path d="M26.6978 119.34C26.8333 119.419 26.8333 119.544 26.6978 119.612L24.3028 121.001C24.1673 121.08 23.9639 121.08 23.8284 121.001L21.4108 119.612C21.2753 119.532 21.2753 119.408 21.4108 119.34L23.8058 117.951C23.9413 117.872 24.1447 117.872 24.2803 117.951L26.6978 119.34Z" fill="#4D4D4D"/>
<path d="M41.9712 117.307L39.5649 118.708C39.4407 118.787 39.226 118.787 39.0905 118.708L36.6729 117.307C36.6051 117.273 36.5713 117.217 36.5713 117.171V117.454C36.5713 117.454 36.6051 117.555 36.6729 117.589L39.0905 118.99C39.2147 119.069 39.4294 119.069 39.5649 118.99L41.9712 117.589C42.039 117.555 42.0728 117.499 42.0728 117.454V117.171C42.0728 117.171 42.0389 117.273 41.9825 117.307H41.9712Z" fill="#1F2125"/>
<path d="M41.9712 117.036C42.0954 117.115 42.1067 117.228 41.9712 117.307L39.5649 118.708C39.4407 118.787 39.226 118.787 39.0905 118.708L36.6729 117.307C36.5374 117.228 36.5374 117.115 36.6729 117.036L39.0792 115.635C39.2034 115.556 39.4181 115.556 39.5536 115.635L41.9712 117.036Z" fill="#4D4D4D"/>
<path d="M37.3846 118.301L34.9897 119.702C34.8654 119.781 34.6508 119.781 34.5152 119.702L32.0977 118.312C32.0299 118.278 31.996 118.222 31.996 118.177V118.459C31.996 118.459 32.0299 118.561 32.0977 118.595L34.5152 119.996C34.6508 120.075 34.8654 120.075 34.9897 119.996L37.3846 118.595C37.4524 118.561 37.4863 118.504 37.4863 118.459V118.177C37.4863 118.177 37.4524 118.278 37.3846 118.312V118.301Z" fill="#1F2125"/>
<path d="M37.3846 118.03C37.5202 118.109 37.5202 118.233 37.3846 118.301L34.9897 119.702C34.8654 119.781 34.6508 119.781 34.5152 119.702L32.0977 118.312C31.9734 118.233 31.9621 118.109 32.0977 118.041L34.4926 116.652C34.6282 116.573 34.8315 116.573 34.9671 116.652L37.3846 118.041V118.03Z" fill="#4D4D4D"/>
<path d="M34.888 120.606L32.4931 122.006C32.3575 122.085 32.1542 122.085 32.0186 122.006L29.6011 120.606C29.5333 120.572 29.4994 120.515 29.4994 120.47V120.752C29.4994 120.752 29.5333 120.854 29.6011 120.888L32.0186 122.289C32.1429 122.368 32.3575 122.368 32.4931 122.289L34.888 120.899C34.9558 120.865 34.9897 120.809 34.9897 120.764V120.481C34.9897 120.481 34.9558 120.583 34.888 120.617V120.606Z" fill="#1F2125"/>
<path d="M34.888 120.323C35.0236 120.402 35.0123 120.526 34.888 120.594L32.4931 121.995C32.3575 122.074 32.1542 122.074 32.0186 121.995L29.6011 120.594C29.4768 120.515 29.4655 120.402 29.6011 120.323L32.0073 118.934C32.1316 118.854 32.3462 118.854 32.4818 118.934L34.8993 120.334L34.888 120.323Z" fill="#4D4D4D"/>
<path d="M29.9739 121.498L27.5789 122.899C27.4434 122.978 27.24 122.978 27.1045 122.899L24.6869 121.498C24.6192 121.464 24.5853 121.408 24.5853 121.362V121.645C24.5853 121.645 24.6192 121.746 24.6869 121.78L27.1045 123.17C27.24 123.249 27.4434 123.249 27.5789 123.17L29.9739 121.769C30.0417 121.735 30.0756 121.679 30.0756 121.633V121.351C30.0756 121.351 30.0417 121.453 29.9739 121.487V121.498Z" fill="#1F2125"/>
<path d="M29.9626 121.227C30.0982 121.306 30.0982 121.43 29.9626 121.498L27.5677 122.899C27.4321 122.978 27.2287 122.978 27.0932 122.899L24.6756 121.498C24.5401 121.419 24.5401 121.295 24.6756 121.227L27.0706 119.837C27.2061 119.758 27.4095 119.758 27.5451 119.837L29.9626 121.227Z" fill="#4D4D4D"/>
<path d="M45.2473 119.205L42.841 120.606C42.7168 120.685 42.5021 120.685 42.3666 120.606L39.949 119.216C39.8812 119.182 39.8474 119.126 39.8474 119.081V119.363C39.8474 119.363 39.8812 119.465 39.949 119.499L42.3666 120.888C42.4908 120.967 42.7055 120.967 42.841 120.888L45.2473 119.487C45.315 119.453 45.3489 119.397 45.3489 119.352V119.069C45.3489 119.069 45.315 119.171 45.2586 119.205H45.2473Z" fill="#1F2125"/>
<path d="M45.2473 118.934C45.3715 119.013 45.3828 119.126 45.2473 119.205L42.841 120.606C42.7168 120.685 42.5021 120.685 42.3666 120.606L39.949 119.216C39.8135 119.137 39.8135 119.013 39.949 118.945L42.3553 117.544C42.4795 117.465 42.6942 117.465 42.8297 117.544L45.2473 118.945V118.934Z" fill="#4D4D4D"/>
<path d="M40.6833 120.21L38.2884 121.6C38.1641 121.679 37.9495 121.679 37.8139 121.6L35.3964 120.21C35.3286 120.176 35.2947 120.12 35.2947 120.075V120.357C35.2947 120.357 35.3286 120.459 35.3964 120.493L37.8139 121.882C37.9495 121.961 38.1641 121.961 38.2884 121.882L40.6833 120.493C40.7511 120.459 40.785 120.402 40.785 120.357V120.075C40.785 120.075 40.7511 120.176 40.6833 120.21Z" fill="#1F2125"/>
<path d="M40.6833 119.939C40.8189 120.018 40.8189 120.142 40.6833 120.21L38.2884 121.6C38.1641 121.679 37.9495 121.679 37.8139 121.6L35.3964 120.21C35.2721 120.131 35.2608 120.007 35.3964 119.939L37.7913 118.55C37.9269 118.47 38.1302 118.47 38.2658 118.55L40.6833 119.939Z" fill="#4D4D4D"/>
<path d="M38.1867 122.504L35.7918 123.893C35.6562 123.972 35.4529 123.972 35.3173 123.893L32.8998 122.492C32.832 122.458 32.7981 122.402 32.7981 122.357V122.639C32.7981 122.639 32.832 122.741 32.8998 122.775L35.3173 124.175C35.4416 124.255 35.6562 124.255 35.7918 124.175L38.198 122.786C38.2658 122.752 38.2997 122.696 38.2997 122.65V122.368C38.2997 122.368 38.2658 122.47 38.198 122.504H38.1867Z" fill="#1F2125"/>
<path d="M38.1867 122.221C38.311 122.3 38.311 122.424 38.1867 122.492L35.7805 123.882C35.6449 123.961 35.4416 123.961 35.306 123.882L32.8885 122.481C32.7529 122.402 32.7529 122.289 32.8885 122.21L35.2834 120.82C35.4077 120.741 35.6223 120.741 35.7579 120.82L38.1754 122.221H38.1867Z" fill="#4D4D4D"/>
<path d="M33.2387 123.396L30.8437 124.797C30.7082 124.876 30.5048 124.876 30.3693 124.797L27.9517 123.396C27.884 123.362 27.8501 123.306 27.8501 123.26V123.543C27.8501 123.543 27.884 123.645 27.9517 123.678L30.3693 125.068C30.5048 125.147 30.7082 125.147 30.8437 125.068L33.2387 123.678C33.3065 123.645 33.3404 123.588 33.3404 123.543V123.26C33.3404 123.26 33.3065 123.362 33.2387 123.396Z" fill="#1F2125"/>
<path d="M33.2387 123.114C33.3742 123.193 33.3742 123.317 33.2387 123.385L30.8437 124.786C30.7082 124.865 30.5048 124.865 30.3693 124.786L27.9517 123.385C27.8275 123.306 27.8162 123.181 27.9517 123.114L30.3467 121.724C30.4822 121.645 30.6856 121.645 30.8212 121.724L33.2387 123.114Z" fill="#4D4D4D"/>
<path d="M48.5234 121.091L46.1171 122.492C45.9929 122.571 45.7782 122.571 45.6427 122.492L43.2251 121.103C43.1574 121.069 43.1235 121.012 43.1235 120.967V121.25C43.1235 121.25 43.1574 121.351 43.2251 121.385L45.6427 122.775C45.7669 122.854 45.9816 122.854 46.1171 122.775L48.5234 121.374C48.5912 121.34 48.6138 121.283 48.6138 121.238V120.956C48.6138 120.956 48.5799 121.057 48.5234 121.091Z" fill="#1F2125"/>
<path d="M48.5234 120.82C48.6476 120.899 48.6589 121.024 48.5234 121.091L46.1171 122.492C45.9929 122.571 45.7782 122.571 45.6427 122.492L43.2251 121.103C43.0896 121.024 43.0896 120.899 43.2251 120.831L45.6314 119.431C45.7556 119.352 45.9703 119.352 46.1058 119.431L48.5234 120.82Z" fill="#4D4D4D"/>
<path d="M43.9933 122.119L41.5984 123.509C41.4741 123.588 41.2595 123.588 41.1239 123.509L38.7064 122.119C38.6386 122.086 38.6047 122.029 38.6047 121.984V122.266C38.6047 122.266 38.6386 122.368 38.7064 122.402L41.1239 123.791C41.2595 123.87 41.4741 123.87 41.5984 123.791L43.9933 122.402C44.0611 122.368 44.095 122.311 44.095 122.266V121.984C44.095 121.984 44.0611 122.086 43.9933 122.119Z" fill="#1F2125"/>
<path d="M43.982 121.848C44.1176 121.927 44.1176 122.052 43.982 122.119L41.5871 123.509C41.4628 123.588 41.2482 123.588 41.1126 123.509L38.6951 122.119C38.5708 122.04 38.5595 121.916 38.6951 121.848L41.09 120.459C41.2256 120.38 41.4289 120.38 41.5645 120.459L43.982 121.848Z" fill="#4D4D4D"/>
<path d="M41.4741 124.401L39.0792 125.802C38.9436 125.881 38.7403 125.881 38.6047 125.802L36.1872 124.401C36.1194 124.368 36.0855 124.311 36.0855 124.266V124.548C36.0855 124.548 36.1194 124.65 36.1872 124.684L38.6047 126.085C38.7403 126.164 38.9436 126.164 39.0792 126.085L41.4741 124.695C41.5419 124.661 41.5758 124.605 41.5758 124.56V124.277C41.5758 124.277 41.5419 124.379 41.4741 124.413V124.401Z" fill="#1F2125"/>
<path d="M41.4741 124.13C41.6097 124.209 41.5984 124.334 41.4741 124.401L39.0792 125.802C38.9436 125.881 38.7403 125.881 38.6047 125.802L36.1872 124.401C36.0629 124.322 36.0516 124.209 36.1872 124.13L38.5821 122.741C38.7064 122.662 38.921 122.662 39.0566 122.741L41.4741 124.142V124.13Z" fill="#4D4D4D"/>
<path d="M36.5148 125.283L34.1198 126.672C33.9843 126.751 33.7809 126.751 33.6454 126.672L31.2278 125.283C31.1601 125.249 31.1262 125.192 31.1262 125.147V125.429C31.1262 125.429 31.1601 125.531 31.2278 125.565L33.6454 126.966C33.7809 127.045 33.9843 127.045 34.1198 126.966L36.5148 125.565C36.5826 125.531 36.6165 125.475 36.6165 125.429V125.147C36.6165 125.147 36.5826 125.249 36.5148 125.283Z" fill="#1F2125"/>
<path d="M36.5148 125.011C36.6504 125.09 36.6504 125.215 36.5148 125.282L34.1199 126.672C33.9843 126.751 33.7809 126.751 33.6454 126.672L31.2279 125.282C31.1036 125.203 31.0923 125.079 31.2279 125.011L33.6228 123.622C33.7584 123.543 33.9617 123.543 34.0973 123.622L36.5148 125.011Z" fill="#4D4D4D"/>
<path d="M51.7994 122.978L49.3932 124.379C49.2689 124.458 49.0543 124.458 48.9187 124.379L46.5012 122.989C46.4334 122.956 46.3995 122.899 46.3995 122.854V123.136C46.3995 123.136 46.4334 123.238 46.5012 123.272L48.9187 124.661C49.043 124.74 49.2576 124.74 49.3932 124.661L51.7994 123.261C51.8672 123.227 51.8898 123.17 51.8898 123.125V122.843C51.8898 122.843 51.8559 122.944 51.7994 122.978Z" fill="#1F2125"/>
<path d="M51.7882 122.707C51.9124 122.786 51.9237 122.91 51.7882 122.978L49.3819 124.379C49.2576 124.458 49.043 124.458 48.9074 124.379L46.4899 122.989C46.3544 122.91 46.3544 122.786 46.4899 122.718L48.8962 121.317C49.0204 121.238 49.2351 121.238 49.3706 121.317L51.7882 122.707Z" fill="#4D4D4D"/>
<path d="M47.292 124.029L44.8971 125.418C44.7728 125.497 44.5581 125.497 44.4226 125.418L42.0051 124.029C41.9373 123.995 41.9034 123.938 41.9034 123.893V124.175C41.9034 124.175 41.9373 124.277 42.0051 124.311L44.4226 125.712C44.5581 125.791 44.7728 125.791 44.8971 125.712L47.292 124.311C47.3598 124.277 47.3937 124.221 47.3937 124.175V123.893C47.3937 123.893 47.3598 123.995 47.292 124.029Z" fill="#1F2125"/>
<path d="M47.292 123.757C47.4275 123.837 47.4275 123.961 47.292 124.029L44.897 125.418C44.7728 125.497 44.5581 125.497 44.4226 125.418L42.005 124.029C41.8808 123.949 41.8695 123.825 42.005 123.757L44.4 122.368C44.5355 122.289 44.7389 122.289 44.8745 122.368L47.292 123.757Z" fill="#4D4D4D"/>
<path d="M44.7615 126.299L42.3553 127.689C42.2197 127.768 42.0164 127.768 41.8808 127.689L39.4633 126.288C39.3955 126.254 39.3616 126.198 39.3616 126.152V126.435C39.3616 126.435 39.3955 126.536 39.4633 126.57L41.8808 127.971C42.0051 128.05 42.2197 128.05 42.3553 127.971L44.7615 126.582C44.8293 126.548 44.8632 126.491 44.8632 126.446V126.164C44.8632 126.164 44.8293 126.265 44.7615 126.299Z" fill="#1F2125"/>
<path d="M44.7615 126.028C44.8858 126.107 44.8858 126.231 44.7615 126.299L42.3553 127.689C42.2197 127.768 42.0164 127.768 41.8808 127.689L39.4633 126.288C39.3277 126.209 39.3277 126.096 39.4633 126.017L41.8582 124.616C41.9825 124.537 42.1971 124.537 42.3327 124.616L44.7502 126.017L44.7615 126.028Z" fill="#4D4D4D"/>
<path d="M39.7909 127.169L37.3959 128.559C37.2604 128.638 37.057 128.638 36.9215 128.559L34.5039 127.169C34.4361 127.135 34.4023 127.079 34.4023 127.034V127.316C34.4023 127.316 34.4361 127.418 34.5039 127.452L36.9215 128.841C37.057 128.92 37.2604 128.92 37.3959 128.841L39.7909 127.452C39.8586 127.418 39.8925 127.361 39.8925 127.316V127.034C39.8925 127.034 39.8586 127.135 39.7909 127.169Z" fill="#1F2125"/>
<path d="M39.7909 126.898C39.9264 126.977 39.9264 127.101 39.7909 127.169L37.3959 128.559C37.2604 128.638 37.057 128.638 36.9214 128.559L34.5039 127.169C34.3796 127.09 34.3684 126.977 34.5039 126.898L36.8989 125.509C37.0344 125.429 37.2378 125.429 37.3733 125.509L39.7909 126.909V126.898Z" fill="#4D4D4D"/>
<path d="M36.447 129.259L34.6847 130.287C34.3797 130.468 33.8826 130.468 33.5663 130.287L18.5979 121.645C18.4398 121.554 18.3607 121.441 18.3607 121.317V121.6C18.3607 121.713 18.4398 121.837 18.5979 121.927L33.5663 130.569C33.8713 130.75 34.3684 130.75 34.6847 130.569L36.447 129.541C36.6051 129.451 36.6729 129.338 36.6729 129.225V128.943C36.6729 129.056 36.5939 129.18 36.447 129.259Z" fill="#1F2125"/>
<path d="M36.447 128.615C36.752 128.796 36.7633 129.078 36.447 129.259L34.6847 130.287C34.3797 130.468 33.8826 130.468 33.5663 130.287L18.5979 121.645C18.2929 121.464 18.2816 121.182 18.5979 121.001L20.3602 119.984C20.6652 119.803 21.1623 119.803 21.4786 119.984L36.447 128.626V128.615Z" fill="#4D4D4D"/>
<path d="M55.0643 124.876L52.658 126.277C52.5338 126.356 52.3191 126.356 52.1836 126.277L49.766 124.887C49.6983 124.853 49.6644 124.797 49.6644 124.751V125.034C49.6644 125.034 49.6983 125.136 49.766 125.169L52.1836 126.57C52.3191 126.649 52.5225 126.649 52.658 126.57L55.0643 125.169C55.1321 125.136 55.1547 125.079 55.166 125.034V124.751C55.166 124.751 55.1321 124.853 55.0756 124.887L55.0643 124.876Z" fill="#1F2125"/>
<path d="M55.0643 124.593C55.1998 124.672 55.1998 124.797 55.0643 124.864L52.658 126.265C52.5338 126.344 52.3191 126.344 52.1836 126.265L49.766 124.876C49.6305 124.797 49.6305 124.672 49.766 124.605L52.1723 123.204C52.2965 123.125 52.5112 123.125 52.6467 123.204L55.0643 124.605V124.593Z" fill="#4D4D4D"/>
<path d="M50.602 125.938L48.2071 127.339C48.0828 127.418 47.8681 127.418 47.7326 127.339L45.3151 125.949C45.2473 125.915 45.2134 125.859 45.2134 125.813V126.096C45.2134 126.096 45.2473 126.198 45.3151 126.231L47.7326 127.632C47.8681 127.711 48.0828 127.711 48.2071 127.632L50.602 126.231C50.6698 126.198 50.7037 126.141 50.7037 126.096V125.813C50.7037 125.813 50.6698 125.915 50.602 125.949V125.938Z" fill="#1F2125"/>
<path d="M50.5907 125.655C50.7263 125.734 50.7263 125.859 50.5907 125.926L48.1957 127.316C48.0715 127.395 47.8568 127.395 47.7213 127.316L45.3037 125.926C45.1795 125.847 45.1682 125.723 45.3037 125.655L47.6987 124.266C47.8343 124.187 48.0376 124.187 48.1732 124.266L50.5907 125.655Z" fill="#4D4D4D"/>
<path d="M48.0489 128.197L45.6539 129.598C45.5184 129.677 45.315 129.677 45.1795 129.598L42.762 128.197C42.6942 128.163 42.6603 128.107 42.6603 128.062V128.344C42.6603 128.344 42.6942 128.446 42.762 128.48L45.1795 129.869C45.315 129.948 45.5184 129.948 45.6539 129.869L48.0489 128.48C48.1167 128.446 48.1506 128.389 48.1506 128.344V128.062C48.1506 128.062 48.1167 128.163 48.0489 128.197Z" fill="#1F2125"/>
<path d="M48.0489 127.926C48.1845 128.005 48.1732 128.129 48.0489 128.197L45.6539 129.598C45.5184 129.677 45.315 129.677 45.1795 129.598L42.762 128.197C42.6264 128.118 42.6264 127.994 42.762 127.926L45.1569 126.536C45.2812 126.457 45.4958 126.457 45.6314 126.536L48.0489 127.926Z" fill="#4D4D4D"/>
<path d="M43.067 129.067L40.672 130.457C40.5365 130.536 40.3331 130.536 40.1976 130.457L37.78 129.056C37.7123 129.022 37.6784 128.965 37.6784 128.92V129.203C37.6784 129.203 37.7123 129.304 37.78 129.338L40.1976 130.739C40.3331 130.818 40.5365 130.818 40.672 130.739L43.067 129.338C43.1348 129.304 43.1687 129.248 43.1687 129.203V128.92C43.1687 128.92 43.1348 129.022 43.067 129.056V129.067Z" fill="#1F2125"/>
<path d="M43.067 128.785C43.2025 128.864 43.2025 128.977 43.067 129.056L40.672 130.445C40.5365 130.524 40.3331 130.524 40.1976 130.445L37.78 129.044C37.6558 128.965 37.6445 128.852 37.78 128.773L40.175 127.384C40.3105 127.305 40.5139 127.305 40.6494 127.384L43.067 128.785Z" fill="#4D4D4D"/>
<path d="M58.4759 126.842L56.0697 128.242C55.9454 128.322 55.7308 128.322 55.5952 128.242L53.1777 126.853C53.1099 126.819 53.076 126.763 53.076 126.717V127C53.076 127 53.1099 127.101 53.1777 127.135L55.5952 128.525C55.7308 128.604 55.9341 128.604 56.0697 128.525L58.4759 127.124C58.5437 127.09 58.5663 127.034 58.5663 126.988V126.706C58.5663 126.706 58.5324 126.808 58.4759 126.842Z" fill="#1F2125"/>
<path d="M58.4646 126.559C58.6002 126.638 58.6002 126.763 58.4646 126.83L56.0584 128.231C55.9341 128.31 55.7195 128.31 55.5839 128.231L53.1664 126.842C53.0421 126.763 53.0308 126.638 53.1664 126.57L55.5726 125.17C55.6969 125.091 55.9115 125.091 56.0471 125.17L58.4646 126.559Z" fill="#4D4D4D"/>
<path d="M53.9007 127.847L51.5058 129.248C51.3815 129.327 51.1669 129.327 51.0313 129.248L48.6138 127.847C48.546 127.813 48.5121 127.757 48.5121 127.711V127.994C48.5121 127.994 48.546 128.096 48.6138 128.129L51.0313 129.519C51.1669 129.598 51.3815 129.598 51.5058 129.519L53.9007 128.129C53.9685 128.096 54.0024 128.039 54.0024 127.994V127.711C54.0024 127.711 53.9685 127.813 53.9007 127.847Z" fill="#1F2125"/>
<path d="M53.9007 127.564C54.0362 127.644 54.0362 127.768 53.9007 127.836L51.5057 129.236C51.3815 129.316 51.1668 129.316 51.0313 129.236L48.6137 127.847C48.4895 127.768 48.4782 127.644 48.6137 127.576L51.0087 126.186C51.1442 126.107 51.3476 126.107 51.4832 126.186L53.9007 127.576V127.564Z" fill="#4D4D4D"/>
<path d="M51.3363 130.095L48.93 131.484C48.7945 131.563 48.5911 131.563 48.4556 131.484L46.038 130.095C45.9703 130.061 45.9364 130.004 45.9364 129.959V130.242C45.9364 130.242 45.9703 130.343 46.038 130.377L48.4556 131.767C48.5798 131.846 48.7945 131.846 48.93 131.767L51.3363 130.366C51.4041 130.332 51.438 130.276 51.438 130.23V129.948C51.438 129.948 51.4041 130.05 51.3363 130.084V130.095Z" fill="#1F2125"/>
<path d="M51.3363 129.824C51.4605 129.903 51.4605 130.027 51.3363 130.095L48.93 131.484C48.7945 131.564 48.5911 131.564 48.4556 131.484L46.038 130.095C45.9025 130.016 45.9025 129.892 46.038 129.824L48.433 128.434C48.5573 128.355 48.7719 128.355 48.9075 128.434L51.325 129.824H51.3363Z" fill="#4D4D4D"/>
<path d="M46.4447 131.021L44.0498 132.411C43.9142 132.49 43.7109 132.49 43.5753 132.411L41.1578 131.01C41.09 130.976 41.0561 130.92 41.0561 130.875V131.157C41.0561 131.157 41.09 131.259 41.1578 131.292L43.5753 132.693C43.6996 132.772 43.9142 132.772 44.0498 132.693L46.4447 131.304C46.5125 131.27 46.5464 131.213 46.5464 131.168V130.886C46.5464 130.886 46.5125 130.987 46.4447 131.021Z" fill="#1F2125"/>
<path d="M46.4447 130.739C46.5803 130.818 46.5803 130.931 46.4447 131.01L44.0498 132.4C43.9142 132.479 43.7109 132.479 43.5753 132.4L41.1578 130.999C41.0335 130.92 41.0222 130.807 41.1578 130.728L43.564 129.338C43.6996 129.259 43.9029 129.259 44.0385 129.338L46.456 130.739H46.4447Z" fill="#4D4D4D"/>
<path d="M40.7737 131.417L38.4353 132.772C38.2884 132.863 38.0512 132.851 37.9043 132.772L34.7864 130.965C34.7073 130.92 34.6734 130.863 34.6734 130.807V131.089C34.6734 131.089 34.7073 131.202 34.7864 131.247L37.9043 133.055C38.0512 133.134 38.2884 133.145 38.4353 133.055L40.7737 131.699C40.8415 131.654 40.8867 131.597 40.8867 131.541V131.259C40.8867 131.259 40.8528 131.371 40.7737 131.405V131.417Z" fill="#1F2125"/>
<path d="M40.7624 131.112C40.9093 131.191 40.9093 131.338 40.7624 131.417L38.424 132.772C38.2771 132.863 38.0399 132.851 37.893 132.772L34.7751 130.965C34.6282 130.874 34.6282 130.739 34.7751 130.66L37.1135 129.304C37.2604 129.214 37.4976 129.214 37.6445 129.304L40.7624 131.112Z" fill="#4D4D4D"/>
<path d="M61.7972 128.751L59.3909 130.151C59.2667 130.231 59.052 130.231 58.9165 130.151L56.4989 128.751C56.4312 128.717 56.3973 128.66 56.3973 128.615V128.897C56.3973 128.897 56.4312 128.999 56.4989 129.033L58.9165 130.423C59.052 130.502 59.2554 130.502 59.3909 130.423L61.7972 129.022C61.865 128.988 61.8876 128.931 61.8989 128.886V128.604C61.8989 128.604 61.865 128.705 61.8085 128.739L61.7972 128.751Z" fill="#1F2125"/>
<path d="M61.7859 128.479C61.9215 128.558 61.9215 128.683 61.7859 128.751L59.3797 130.151C59.2554 130.23 59.0408 130.23 58.9052 130.151L56.4877 128.751C56.3521 128.671 56.3521 128.547 56.4877 128.479L58.8939 127.079C59.0182 127 59.2328 127 59.3684 127.079L61.7859 128.468V128.479Z" fill="#4D4D4D"/>
<path d="M57.1994 129.756L54.8044 131.157C54.6802 131.236 54.4655 131.236 54.33 131.157L51.9124 129.756C51.8447 129.722 51.8108 129.666 51.8108 129.62V129.903C51.8108 129.903 51.8447 130.004 51.9124 130.038L54.33 131.428C54.4655 131.507 54.6802 131.507 54.8044 131.428L57.1994 130.038C57.2672 130.004 57.301 129.948 57.301 129.903V129.62C57.301 129.62 57.2672 129.722 57.1994 129.756Z" fill="#1F2125"/>
<path d="M57.1994 129.474C57.3349 129.553 57.3349 129.677 57.1994 129.745L54.8044 131.145C54.6802 131.225 54.4655 131.225 54.33 131.145L51.9124 129.745C51.7769 129.666 51.7769 129.541 51.9124 129.474L54.3074 128.073C54.4429 127.994 54.6463 127.994 54.7818 128.073L57.1994 129.474Z" fill="#4D4D4D"/>
<path d="M54.6237 131.993L52.2287 133.382C52.0932 133.462 51.8898 133.462 51.7543 133.382L49.3367 131.993C49.269 131.959 49.2351 131.903 49.2351 131.857V132.14C49.2351 132.14 49.269 132.242 49.3367 132.275L51.7543 133.665C51.8898 133.744 52.0932 133.744 52.2287 133.665L54.6237 132.275C54.6915 132.242 54.7254 132.185 54.7254 132.14V131.857C54.7254 131.857 54.6915 131.959 54.635 131.993H54.6237Z" fill="#1F2125"/>
<path d="M54.6237 131.722C54.7593 131.801 54.7593 131.925 54.6237 131.993L52.2287 133.382C52.0932 133.461 51.8898 133.461 51.7543 133.382L49.3367 131.993C49.2012 131.914 49.2012 131.79 49.3367 131.722L51.7317 130.332C51.856 130.253 52.0706 130.253 52.2062 130.332L54.6237 131.722Z" fill="#4D4D4D"/>
<path d="M49.7095 132.897L47.3033 134.298C47.1677 134.377 46.9644 134.377 46.8288 134.298L44.4113 132.897C44.3435 132.863 44.3096 132.806 44.3096 132.761V133.044C44.3096 133.044 44.3435 133.145 44.4113 133.179L46.8288 134.569C46.9531 134.648 47.1677 134.648 47.3033 134.569L49.7095 133.179C49.7773 133.145 49.8112 133.089 49.8112 133.044V132.761C49.8112 132.761 49.7773 132.863 49.7095 132.897Z" fill="#1F2125"/>
<path d="M49.7095 132.626C49.8338 132.705 49.8451 132.829 49.7095 132.897L47.3033 134.298C47.1677 134.377 46.9644 134.377 46.8288 134.298L44.4113 132.897C44.2757 132.818 44.2757 132.693 44.4113 132.626L46.8062 131.236C46.9418 131.157 47.1451 131.157 47.2807 131.236L49.6982 132.626H49.7095Z" fill="#4D4D4D"/>
<path d="M44.1515 133.337L41.7565 134.727C41.621 134.806 41.4063 134.806 41.2708 134.727L38.729 133.258C38.6612 133.224 38.6273 133.168 38.6273 133.123V133.405C38.6273 133.405 38.6612 133.507 38.729 133.541L41.2708 135.009C41.4063 135.088 41.621 135.088 41.7565 135.009L44.1515 133.62C44.2192 133.586 44.2531 133.529 44.2531 133.484V133.202C44.2531 133.202 44.2192 133.303 44.1515 133.337Z" fill="#1F2125"/>
<path d="M44.1515 133.055C44.287 133.134 44.287 133.258 44.1515 133.337L41.7565 134.727C41.621 134.806 41.4063 134.806 41.2708 134.727L38.729 133.258C38.5934 133.179 38.5934 133.055 38.729 132.976L41.1239 131.586C41.2595 131.507 41.4741 131.507 41.6097 131.586L44.1515 133.055Z" fill="#4D4D4D"/>
<path d="M46.1736 136.037L45.0326 136.704C44.931 136.76 44.7841 136.76 44.6824 136.704L42.0051 135.156C42.0051 135.156 41.9373 135.088 41.9373 135.054V135.337C41.9373 135.337 41.9599 135.404 42.0051 135.438L44.6824 136.986C44.7841 137.042 44.931 137.042 45.0326 136.986L46.1736 136.319C46.1736 136.319 46.2414 136.252 46.2414 136.218V135.935C46.2414 135.935 46.2188 136.003 46.1736 136.037Z" fill="#1F2125"/>
<path d="M46.1736 135.834C46.2753 135.89 46.2753 135.981 46.1736 136.037L45.0326 136.704C44.9309 136.76 44.7841 136.76 44.6824 136.704L42.0051 135.156C41.9034 135.099 41.9034 135.009 42.0051 134.953L43.146 134.286C43.2477 134.23 43.3946 134.23 43.4962 134.286L46.1736 135.834Z" fill="#4D4D4D"/>
<path d="M69.3435 130.355L67.7168 131.304C67.6151 131.36 67.4682 131.36 67.3666 131.304L65.4574 130.197C65.4574 130.197 65.3896 130.129 65.3896 130.095V130.377C65.3896 130.377 65.4122 130.456 65.4574 130.479L67.3666 131.586C67.4682 131.643 67.6151 131.643 67.7168 131.586L69.3435 130.637C69.3435 130.637 69.4113 130.569 69.4113 130.536V130.253C69.4113 130.253 69.3887 130.321 69.3435 130.355Z" fill="#1F2125"/>
<path d="M69.3435 130.151C69.4452 130.208 69.4452 130.298 69.3435 130.355L67.7168 131.304C67.6151 131.36 67.4682 131.36 67.3666 131.304L65.4574 130.197C65.367 130.14 65.3557 130.05 65.4574 129.993L67.0841 129.044C67.1858 128.988 67.3327 128.988 67.4343 129.044L69.3435 130.151Z" fill="#4D4D4D"/>
<path d="M66.8921 131.778L64.6327 133.089C64.4632 133.19 64.1921 133.19 64.0227 133.089L59.7976 130.649C59.7073 130.603 59.6734 130.536 59.6734 130.468V130.75C59.6734 130.818 59.7186 130.886 59.7976 130.931L64.0227 133.371C64.1921 133.473 64.4632 133.473 64.6327 133.371L66.8921 132.061C66.9712 132.015 67.0163 131.948 67.0163 131.88V131.597C67.0163 131.665 66.9712 131.722 66.8921 131.778Z" fill="#1F2125"/>
<path d="M66.8921 131.428C67.0615 131.53 67.0615 131.688 66.8921 131.778L64.6327 133.089C64.4633 133.19 64.1921 133.19 64.0227 133.089L59.7977 130.649C59.6282 130.547 59.6282 130.389 59.7977 130.298L62.057 128.988C62.2265 128.886 62.4976 128.886 62.6671 128.988L66.8921 131.428Z" fill="#4D4D4D"/>
<path d="M60.5094 131.654L58.1144 133.055C57.9902 133.134 57.7755 133.134 57.64 133.055L55.2224 131.654C55.1546 131.62 55.1208 131.563 55.1208 131.518V131.801C55.1208 131.801 55.1546 131.902 55.2224 131.936L57.64 133.326C57.7755 133.405 57.9902 133.405 58.1144 133.326L60.5094 131.936C60.5772 131.902 60.611 131.846 60.611 131.801V131.518C60.611 131.518 60.5772 131.62 60.5094 131.654Z" fill="#1F2125"/>
<path d="M60.5094 131.383C60.6449 131.462 60.6449 131.586 60.5094 131.654L58.1144 133.055C57.9902 133.134 57.7755 133.134 57.64 133.055L55.2224 131.654C55.0869 131.575 55.0869 131.451 55.2224 131.383L57.6174 129.982C57.7529 129.903 57.9563 129.903 58.0918 129.982L60.5094 131.383Z" fill="#4D4D4D"/>
<path d="M57.9111 133.891L55.5161 135.28C55.3806 135.359 55.1772 135.359 55.0417 135.28L52.6241 133.891C52.5564 133.857 52.5225 133.8 52.5225 133.755V134.038C52.5225 134.038 52.5564 134.139 52.6241 134.173L55.0417 135.574C55.1772 135.653 55.3806 135.653 55.5161 135.574L57.9111 134.173C57.9789 134.139 58.0127 134.083 58.0127 134.038V133.755C58.0127 133.755 57.9789 133.857 57.9224 133.891H57.9111Z" fill="#1F2125"/>
<path d="M57.9111 133.62C58.0353 133.699 58.0466 133.823 57.9111 133.891L55.5161 135.28C55.3806 135.359 55.1772 135.359 55.0417 135.28L52.6241 133.891C52.4886 133.812 52.4886 133.687 52.6241 133.62L55.0191 132.219C55.1433 132.14 55.358 132.14 55.4935 132.219L57.9111 133.608V133.62Z" fill="#4D4D4D"/>
<path d="M63.8081 133.563L61.4018 134.953C61.2776 135.032 61.0629 135.032 60.9273 134.953L58.5098 133.563C58.442 133.529 58.4081 133.473 58.4081 133.427V133.71C58.4081 133.71 58.442 133.812 58.5098 133.845L60.9273 135.235C61.0629 135.314 61.2776 135.314 61.4018 135.235L63.8081 133.845C63.8758 133.812 63.9097 133.755 63.9097 133.71V133.427C63.9097 133.427 63.8758 133.529 63.8081 133.563Z" fill="#1F2125"/>
<path d="M63.808 133.292C63.9436 133.371 63.9436 133.495 63.808 133.563L61.4131 134.953C61.2888 135.032 61.0742 135.032 60.9386 134.953L58.5211 133.563C58.3855 133.484 58.3855 133.36 58.5211 133.292L60.916 131.891C61.0516 131.812 61.255 131.812 61.3905 131.891L63.808 133.281V133.292Z" fill="#4D4D4D"/>
<path d="M60.6223 135.427L58.1709 136.85C58.058 136.918 57.8659 136.918 57.7529 136.85L55.9115 135.789C55.8551 135.755 55.8212 135.709 55.8212 135.664V135.947C55.8212 135.947 55.8438 136.037 55.9115 136.071L57.7529 137.133C57.8659 137.201 58.058 137.201 58.1709 137.133L60.6223 135.709C60.6788 135.676 60.7127 135.63 60.7127 135.585V135.303C60.7127 135.303 60.6901 135.393 60.6223 135.427Z" fill="#1F2125"/>
<path d="M60.6223 135.179C60.7353 135.246 60.7353 135.359 60.6223 135.427L58.1709 136.851C58.0579 136.918 57.8659 136.918 57.7529 136.851L55.9115 135.789C55.7986 135.721 55.7986 135.608 55.9115 135.551L58.363 134.128C58.4759 134.06 58.668 134.06 58.7809 134.128L60.6223 135.19V135.179Z" fill="#4D4D4D"/>
<path d="M57.222 137.393L55.0982 138.624C54.8948 138.749 54.5559 138.749 54.3526 138.624L47.8004 134.84C47.6987 134.783 47.6422 134.704 47.6422 134.625V134.908C47.6422 134.987 47.6987 135.066 47.8004 135.122L54.3526 138.907C54.5559 139.031 54.8948 139.031 55.0982 138.907L57.222 137.675C57.3236 137.619 57.3801 137.54 57.3801 137.461V137.178C57.3801 137.257 57.3349 137.337 57.222 137.393Z" fill="#1F2125"/>
<path d="M57.222 136.964C57.4253 137.088 57.4253 137.28 57.222 137.404L55.0982 138.636C54.8948 138.76 54.5559 138.76 54.3526 138.636L47.8004 134.851C47.597 134.727 47.597 134.535 47.8004 134.411L49.9242 133.179C50.1275 133.055 50.4664 133.055 50.6698 133.179L57.222 136.964Z" fill="#4D4D4D"/>
<path d="M50.8957 137.235L48.5008 138.624C48.3652 138.703 48.1506 138.703 48.015 138.624L45.4732 137.156C45.4054 137.122 45.3716 137.065 45.3716 137.02V137.302C45.3716 137.302 45.4054 137.404 45.4732 137.438L48.015 138.907C48.1506 138.986 48.3652 138.986 48.5008 138.907L50.8957 137.517C50.9635 137.483 50.9974 137.427 50.9974 137.382V137.099C50.9974 137.099 50.9635 137.201 50.8957 137.235Z" fill="#1F2125"/>
<path d="M50.8957 136.952C51.0313 137.031 51.0313 137.156 50.8957 137.235L48.5008 138.624C48.3652 138.703 48.1506 138.703 48.015 138.624L45.4732 137.156C45.3377 137.076 45.3377 136.952 45.4732 136.873L47.8682 135.484C48.0037 135.405 48.2184 135.405 48.3539 135.484L50.8957 136.952Z" fill="#4D4D4D"/>
<path d="M52.884 139.912L51.743 140.579C51.6413 140.635 51.4945 140.635 51.3928 140.579L48.7154 139.031C48.7154 139.031 48.6476 138.963 48.6476 138.929V139.212C48.6476 139.212 48.6702 139.291 48.7154 139.313L51.3928 140.861C51.4832 140.917 51.6413 140.917 51.743 140.861L52.884 140.194C52.884 140.194 52.9518 140.127 52.9518 140.093V139.81C52.9518 139.81 52.9292 139.878 52.884 139.912Z" fill="#1F2125"/>
<path d="M52.884 139.709C52.9743 139.765 52.9856 139.856 52.884 139.912L51.743 140.579C51.6413 140.635 51.4945 140.635 51.3928 140.579L48.7154 139.031C48.625 138.974 48.6137 138.884 48.7154 138.828L49.8564 138.161C49.9581 138.105 50.1049 138.105 50.2066 138.161L52.884 139.709Z" fill="#4D4D4D"/>
<path d="M80.7195 149.593L70.01 143.414C68.9481 142.804 69.0837 141.731 70.3038 141.019L86.3001 131.789C87.5315 131.078 89.3842 130.999 90.4461 131.62L101.156 137.799C102.217 138.409 102.082 139.483 100.862 140.194L84.8654 149.424C83.6341 150.136 81.7814 150.215 80.7195 149.593Z" fill="#595959"/>
<path d="M82.2672 145.346L76.8899 142.239C76.6639 142.103 76.6865 141.878 76.9576 141.731L86.3453 136.319C86.6052 136.173 87.0006 136.15 87.2378 136.286L92.6151 139.392C92.8411 139.528 92.8185 139.754 92.5473 139.901L83.1596 145.312C82.8998 145.459 82.5044 145.481 82.2672 145.346Z" fill="#333333"/>
<path d="M83.0241 143.979C83.0241 143.979 87.5767 141.493 91.3499 138.974L86.9554 138.782L84.0408 139.494L82.9337 140.996L83.0354 143.99L83.0241 143.979Z" fill="#747474"/>
<path d="M91.3837 138.94C91.4741 138.76 91.09 138.432 90.9883 138.319C89.7457 136.986 87.6558 136.173 85.837 136.41C84.3345 136.613 82.9676 137.37 81.804 138.308C80.8776 139.053 80.0643 139.912 79.3413 140.85C79.217 141.008 79.104 141.166 78.9911 141.324C78.9798 141.347 78.8668 141.471 78.8668 141.505C78.8668 141.505 79.3977 144.024 83.0353 143.979C83.973 143.098 85.001 142.307 86.0516 141.573C87.4411 140.601 88.921 139.754 90.5252 139.189C90.785 139.099 91.0222 139.008 91.3047 138.986C91.3498 138.986 91.3724 138.963 91.395 138.94H91.3837Z" fill="url(#paint0_linear_249_1940)"/>
</g>
<defs>
<linearGradient id="paint0_linear_249_1940" x1="86.7068" y1="138.24" x2="80.8099" y2="145.47" gradientUnits="userSpaceOnUse">
<stop stop-color="white"/>
<stop offset="1" stop-color="#999999"/>
</linearGradient>
<clipPath id="clip0_249_1940">
<rect width="114.709" height="150" fill="white" transform="translate(0.895721)"/>
</clipPath>
</defs>
</svg>
