<svg width="138" height="150" viewBox="0 0 138 150" fill="none" xmlns="http://www.w3.org/2000/svg">
<g clip-path="url(#clip0_249_1572)">
<path d="M95.5641 138.203L28.5631 99.5509C27.11 98.709 27.289 97.2568 28.9737 96.2886L63.5114 76.41C65.1857 75.4418 67.7233 75.3366 69.1765 76.1785L136.177 114.831C137.631 115.673 137.441 117.135 135.767 118.093L101.229 137.972C99.5549 138.94 97.0172 139.045 95.5641 138.203Z" fill="#F2F2F2"/>
<path d="M91.9419 85.8706L95.9221 132.447C95.9853 133.173 96.6592 133.689 97.3752 133.562C97.9754 133.457 98.4072 132.931 98.3966 132.321L97.4279 84.9551L91.9419 85.8811V85.8706Z" fill="black"/>
<path d="M117.392 68.8965L127.332 114.568C127.49 115.283 128.217 115.704 128.922 115.483C129.502 115.305 129.86 114.726 129.775 114.115L122.72 67.2654L117.403 68.886L117.392 68.8965Z" fill="black"/>
<path d="M37.8503 50.2807L34.4808 96.8992C34.4282 97.6253 35.0178 98.2462 35.7444 98.2251C36.3551 98.2146 36.8605 97.7621 36.9448 97.1517L43.4101 50.2175L37.8503 50.2701V50.2807Z" fill="black"/>
<path d="M70.5243 32.233C68.9869 31.349 67.597 31.2649 66.5861 31.8436L30.49 52.8062C31.5009 52.2169 32.8908 52.3011 34.4282 53.1955L88.2985 84.2815L124.395 63.319L70.5243 32.233Z" fill="#F2F2F2"/>
<path d="M128.291 76.4207L92.1946 97.3832C93.1844 96.8044 93.8056 95.5732 93.8056 93.8368C93.8056 90.322 91.3417 86.0496 88.288 84.2816L124.384 63.3191C127.438 65.087 129.912 69.3595 129.902 72.8743C129.902 74.6212 129.28 75.8419 128.291 76.4207Z" fill="#BFBFBF"/>
<path d="M88.288 84.2814C91.3417 86.0494 93.8162 90.3218 93.8056 93.8366C93.8056 97.3514 91.3101 98.7616 88.2459 97.0042L34.3755 65.9182C31.3219 64.1502 28.8474 59.8778 28.8579 56.3629C28.8579 52.8481 31.3535 51.438 34.4071 53.1954L88.2775 84.2814H88.288Z" fill="#D9D9D9"/>
<path d="M89.0251 62.7193V63.1297L62.4585 47.7971C62.2268 47.6709 61.8372 47.6814 61.5739 47.8287L52.2656 53.1956V52.9115H51.1916V53.9744C51.2021 54.0585 51.2442 54.1322 51.3495 54.1953L78.7586 70.012C78.9902 70.1382 79.3798 70.1277 79.6431 69.9804L89.7938 64.1189C89.9307 64.0347 90.0044 63.94 90.0044 63.8347V62.7719L89.0146 62.7087L89.0251 62.7193Z" fill="#BFBFBF"/>
<path d="M78.7691 68.9491L51.36 53.1325C51.1284 53.0062 51.16 52.7747 51.4232 52.6168L61.5845 46.7553C61.8477 46.608 62.2373 46.587 62.469 46.7238L89.878 62.5404C90.1097 62.6666 90.0781 62.8982 89.8148 63.056L79.6641 68.9175C79.4009 69.0648 79.0113 69.0859 78.7796 68.9491H78.7691Z" fill="#D9D9D9"/>
<path d="M63.722 48.0288L62.827 48.5445C62.7638 48.576 62.6585 48.576 62.5953 48.5445L61.1001 47.6815C61.1001 47.6815 61.058 47.6395 61.058 47.6184V47.7763C61.058 47.7763 61.0685 47.8289 61.1001 47.8394L62.5953 48.7023C62.6585 48.7339 62.7638 48.7339 62.827 48.7023L63.722 48.1867C63.722 48.1867 63.7641 48.1446 63.7641 48.1235V47.9657C63.7641 47.9657 63.7536 48.0183 63.722 48.0288Z" fill="#1F2125"/>
<path d="M63.722 47.8919C63.7852 47.9235 63.7852 47.9866 63.722 48.0287L62.827 48.5444C62.7638 48.576 62.6585 48.576 62.5953 48.5444L61.1001 47.6815C61.0369 47.6499 61.0369 47.5868 61.1001 47.5552L61.9951 47.0395C62.0583 47.008 62.1636 47.008 62.2268 47.0395L63.722 47.9025V47.8919Z" fill="#4D4D4D"/>
<path d="M62.3005 48.7548L60.9316 49.5441C60.8579 49.5862 60.7421 49.5862 60.6684 49.5441L59.289 48.7548C59.289 48.7548 59.2363 48.7022 59.2363 48.6812V48.839C59.2363 48.839 59.2574 48.8916 59.289 48.9127L60.6684 49.7019C60.7421 49.744 60.8579 49.744 60.9316 49.7019L62.3005 48.9127C62.3005 48.9127 62.3532 48.8601 62.3532 48.839V48.6812C62.3532 48.6812 62.3321 48.7338 62.3005 48.7548Z" fill="#1F2125"/>
<path d="M62.3005 48.6074C62.3742 48.6495 62.3742 48.7232 62.3005 48.7653L60.9316 49.5545C60.8579 49.5966 60.7421 49.5966 60.6684 49.5545L59.289 48.7653C59.2153 48.7232 59.2153 48.6495 59.289 48.6074L60.6579 47.8182C60.7316 47.7761 60.8474 47.7761 60.9211 47.8182L62.3005 48.6074Z" fill="#4D4D4D"/>
<path d="M65.5542 49.0812L64.6592 49.6074C64.596 49.6389 64.5012 49.6389 64.4381 49.6074L63.006 48.7865C63.006 48.7865 62.9639 48.7444 62.9639 48.7234V48.8812C62.9639 48.8812 62.9744 48.9233 63.006 48.9444L64.4381 49.7652C64.5012 49.7968 64.596 49.7968 64.6592 49.7652L65.5542 49.239C65.5542 49.239 65.5963 49.1969 65.5963 49.1759V49.018C65.5963 49.018 65.5858 49.0601 65.5542 49.0812Z" fill="#1F2125"/>
<path d="M65.5542 48.9444C65.6174 48.9759 65.6174 49.0391 65.5542 49.0706L64.6592 49.5968C64.596 49.6284 64.5012 49.6284 64.4381 49.5968L63.006 48.776C62.9428 48.7444 62.9428 48.6813 63.006 48.6497L63.901 48.1235C63.9642 48.092 64.059 48.092 64.1222 48.1235L65.5542 48.9444Z" fill="#4D4D4D"/>
<path d="M64.2064 49.8598L62.8375 50.649C62.7638 50.6911 62.648 50.6911 62.5743 50.649L61.2054 49.8598C61.2054 49.8598 61.1528 49.8072 61.1528 49.7861V49.944C61.1528 49.944 61.1738 49.9966 61.2054 50.0176L62.5743 50.8069C62.648 50.849 62.7743 50.849 62.8375 50.8069L64.2064 50.0176C64.2064 50.0176 64.259 49.965 64.259 49.944V49.7861C64.259 49.7861 64.238 49.8387 64.2064 49.8598Z" fill="#1F2125"/>
<path d="M64.2064 49.7019C64.2801 49.744 64.2801 49.8177 64.2064 49.8598L62.8375 50.649C62.7638 50.6911 62.648 50.6911 62.5743 50.649L61.2054 49.8598C61.1317 49.8177 61.1317 49.744 61.2054 49.7019L62.5743 48.9127C62.648 48.8706 62.7638 48.8706 62.8375 48.9127L64.2064 49.7019Z" fill="#4D4D4D"/>
<path d="M67.418 50.1544L66.5229 50.6806C66.4598 50.7122 66.365 50.7122 66.3018 50.6806L64.8698 49.8598C64.8698 49.8598 64.8277 49.8177 64.8277 49.7966V49.9545C64.8277 49.9545 64.8382 49.9966 64.8698 50.0176L66.3018 50.8384C66.365 50.87 66.4598 50.87 66.5229 50.8384L67.418 50.3123C67.418 50.3123 67.4601 50.2702 67.4601 50.2491V50.0913C67.4601 50.0913 67.4496 50.1334 67.418 50.1544Z" fill="#1F2125"/>
<path d="M67.418 50.0281C67.4812 50.0597 67.4812 50.1228 67.418 50.1544L66.523 50.6805C66.4598 50.7121 66.365 50.7121 66.3018 50.6805L64.8698 49.8597C64.8066 49.8282 64.8066 49.765 64.8698 49.7334L65.7648 49.2073C65.828 49.1757 65.9228 49.1757 65.9859 49.2073L67.418 50.0281Z" fill="#4D4D4D"/>
<path d="M69.2923 51.2279L68.3973 51.7541C68.3341 51.7856 68.2288 51.7856 68.1761 51.7541L66.7441 50.9333C66.7441 50.9333 66.702 50.8912 66.702 50.8701V51.028C66.702 51.028 66.7125 51.0701 66.7441 51.0911L68.1761 51.9119C68.2393 51.9435 68.3341 51.9435 68.3973 51.9119L69.2923 51.3858C69.2923 51.3858 69.3344 51.3437 69.3344 51.3226V51.1648C69.3344 51.1648 69.3239 51.2069 69.2923 51.2279Z" fill="#1F2125"/>
<path d="M69.2923 51.1016C69.3555 51.1332 69.3555 51.1963 69.2923 51.2279L68.3973 51.754C68.3341 51.7856 68.2288 51.7856 68.1761 51.754L66.7441 50.9332C66.6809 50.9016 66.6809 50.8385 66.7441 50.8069L67.6391 50.2808C67.7023 50.2492 67.7971 50.2492 67.8602 50.2808L69.2923 51.1016Z" fill="#4D4D4D"/>
<path d="M71.1561 52.3119L70.261 52.8381C70.1978 52.8696 70.1031 52.8696 70.0399 52.8381L68.6078 52.0172C68.6078 52.0172 68.5657 51.9751 68.5657 51.9541V52.112C68.5657 52.112 68.5763 52.154 68.6078 52.1751L70.0399 52.9959C70.1031 53.0275 70.1978 53.0275 70.261 52.9959L71.1561 52.4697C71.1561 52.4697 71.1982 52.4277 71.1982 52.4066V52.2488C71.1982 52.2488 71.1876 52.2908 71.1561 52.3119Z" fill="#1F2125"/>
<path d="M71.1561 52.1751C71.2192 52.2066 71.2192 52.2698 71.1561 52.3013L70.261 52.8275C70.1978 52.8591 70.1031 52.8591 70.0399 52.8275L68.6078 52.0067C68.5447 51.9751 68.5447 51.912 68.6078 51.8804L69.5029 51.3542C69.5661 51.3227 69.6608 51.3227 69.724 51.3542L71.1561 52.1751Z" fill="#4D4D4D"/>
<path d="M73.0198 53.3851L72.1248 53.9113C72.0616 53.9429 71.9668 53.9429 71.9037 53.9113L70.4716 53.0905C70.4716 53.0905 70.4295 53.0484 70.4295 53.0273V53.1852C70.4295 53.1852 70.44 53.2378 70.4716 53.2483L71.9037 54.0692C71.9668 54.1007 72.0616 54.1007 72.1248 54.0692L73.0198 53.543C73.0198 53.543 73.0619 53.5009 73.0619 53.4798V53.322C73.0619 53.322 73.0514 53.3641 73.0198 53.3851Z" fill="#1F2125"/>
<path d="M73.0198 53.2588C73.083 53.2904 73.083 53.3535 73.0198 53.3851L72.1248 53.9113C72.0616 53.9428 71.9668 53.9428 71.9037 53.9113L70.4716 53.0904C70.4084 53.0589 70.4084 52.9957 70.4716 52.9642L71.3667 52.438C71.4298 52.4064 71.5246 52.4064 71.5878 52.438L73.0198 53.2588Z" fill="#4D4D4D"/>
<path d="M74.8836 54.4586L73.9886 54.9848C73.9254 55.0164 73.8306 55.0164 73.7674 54.9848L72.3354 54.164C72.3354 54.164 72.2933 54.1219 72.2933 54.1008V54.2587C72.2933 54.2587 72.3038 54.3008 72.3354 54.3218L73.7674 55.1426C73.8306 55.1742 73.9254 55.1742 73.9886 55.1426L74.8836 54.6165C74.8836 54.6165 74.9257 54.5744 74.9257 54.5533V54.3955C74.9257 54.3955 74.9152 54.4376 74.8836 54.4586Z" fill="#1F2125"/>
<path d="M74.8836 54.3323C74.9468 54.3639 74.9468 54.427 74.8836 54.4586L73.9886 54.9847C73.9254 55.0163 73.8306 55.0163 73.7674 54.9847L72.3354 54.1639C72.2722 54.1324 72.2722 54.0692 72.3354 54.0376L73.2304 53.5115C73.2936 53.4799 73.3884 53.4799 73.4515 53.5115L74.8836 54.3323Z" fill="#4D4D4D"/>
<path d="M76.7474 55.5319L75.8523 56.058C75.7892 56.0896 75.6944 56.0896 75.6312 56.058L74.1992 55.2372C74.1992 55.2372 74.157 55.1951 74.157 55.1741V55.3319C74.157 55.3319 74.1676 55.3845 74.1992 55.3951L75.6312 56.2159C75.6944 56.2475 75.7892 56.2475 75.8523 56.2159L76.7474 55.6897C76.7474 55.6897 76.7895 55.6476 76.7895 55.6266V55.4687C76.7895 55.4687 76.779 55.5108 76.7474 55.5319Z" fill="#1F2125"/>
<path d="M76.7474 55.4055C76.8106 55.4371 76.8106 55.5002 76.7474 55.5318L75.8523 56.058C75.7892 56.0896 75.6944 56.0896 75.6312 56.058L74.1992 55.2372C74.136 55.2056 74.136 55.1425 74.1992 55.1109L75.0942 54.5847C75.1574 54.5531 75.2521 54.5531 75.3153 54.5847L76.7474 55.4055Z" fill="#4D4D4D"/>
<path d="M78.6111 56.6159L77.7161 57.142C77.6529 57.1736 77.5582 57.1736 77.495 57.142L76.0629 56.3212C76.0629 56.3212 76.0208 56.2791 76.0208 56.2581V56.4159C76.0208 56.4159 76.0313 56.458 76.0629 56.479L77.495 57.2999C77.5582 57.3314 77.6529 57.3314 77.7161 57.2999L78.6111 56.7737C78.6111 56.7737 78.6533 56.7316 78.6533 56.7106V56.5527C78.6533 56.5527 78.6427 56.5948 78.6111 56.6159Z" fill="#1F2125"/>
<path d="M78.6111 56.479C78.6743 56.5106 78.6743 56.5737 78.6111 56.6053L77.7161 57.1315C77.6529 57.163 77.5582 57.163 77.495 57.1315L76.0629 56.3106C75.9998 56.2791 75.9998 56.2159 76.0629 56.1844L76.958 55.6582C77.0211 55.6266 77.1159 55.6266 77.1791 55.6582L78.6111 56.479Z" fill="#4D4D4D"/>
<path d="M80.4749 57.6893L79.5799 58.2155C79.5167 58.2471 79.4219 58.2471 79.3588 58.2155L77.9267 57.3947C77.9267 57.3947 77.8846 57.3526 77.8846 57.3315V57.4894C77.8846 57.4894 77.8951 57.5315 77.9267 57.5525L79.3588 58.3734C79.4219 58.4049 79.5167 58.4049 79.5799 58.3734L80.4749 57.8472C80.4749 57.8472 80.517 57.8051 80.517 57.784V57.6262C80.517 57.6262 80.5065 57.6683 80.4749 57.6893Z" fill="#1F2125"/>
<path d="M80.4749 57.563C80.5381 57.5946 80.5381 57.6577 80.4749 57.6893L79.5799 58.2155C79.5167 58.247 79.4219 58.247 79.3588 58.2155L77.9267 57.3946C77.8635 57.3631 77.8635 57.2999 77.9267 57.2684L78.8217 56.7422C78.8849 56.7106 78.9797 56.7106 79.0429 56.7422L80.4749 57.563Z" fill="#4D4D4D"/>
<path d="M82.3492 58.7626L81.4542 59.2887C81.391 59.3203 81.2857 59.3203 81.2331 59.2887L79.801 58.4679C79.801 58.4679 79.7589 58.4258 79.7589 58.4048V58.5626C79.7589 58.5626 79.7694 58.6047 79.801 58.6258L81.2331 59.4466C81.2962 59.4782 81.391 59.4782 81.4542 59.4466L82.3492 58.9204C82.3492 58.9204 82.3913 58.8783 82.3913 58.8573V58.6994C82.3913 58.6994 82.3808 58.7415 82.3492 58.7626Z" fill="#1F2125"/>
<path d="M82.3492 58.6363C82.4124 58.6678 82.4124 58.731 82.3492 58.7625L81.4542 59.2887C81.391 59.3203 81.2857 59.3203 81.2331 59.2887L79.801 58.4679C79.7378 58.4363 79.7378 58.3732 79.801 58.3416L80.696 57.8154C80.7592 57.7839 80.854 57.7839 80.9172 57.8154L82.3492 58.6363Z" fill="#4D4D4D"/>
<path d="M84.213 59.8466L83.318 60.3727C83.2548 60.4043 83.16 60.4043 83.0968 60.3727L81.6648 59.5519C81.6648 59.5519 81.6227 59.5098 81.6227 59.4888V59.6466C81.6227 59.6466 81.6332 59.6992 81.6648 59.7098L83.0968 60.5306C83.16 60.5622 83.2548 60.5622 83.318 60.5306L84.213 60.0044C84.213 60.0044 84.2551 59.9623 84.2551 59.9413V59.7834C84.2551 59.7834 84.2446 59.8255 84.213 59.8466Z" fill="#1F2125"/>
<path d="M84.213 59.7097C84.2762 59.7413 84.2762 59.8044 84.213 59.836L83.318 60.3622C83.2548 60.3938 83.16 60.3938 83.0968 60.3622L81.6648 59.5414C81.6016 59.5098 81.6016 59.4467 81.6648 59.4151L82.5598 58.8889C82.623 58.8573 82.7178 58.8573 82.7809 58.8889L84.213 59.7097Z" fill="#4D4D4D"/>
<path d="M83.5496 60.7409V60.583C83.5496 60.583 83.5707 60.6461 83.6128 60.6672V60.825C83.6128 60.825 83.5496 60.7724 83.5496 60.7409Z" fill="#1F2125"/>
<path d="M87.5825 61.709V61.8668C87.5825 61.8668 87.5615 61.93 87.5193 61.951V61.7932C87.5193 61.7932 87.5825 61.7406 87.5825 61.709Z" fill="#1F2125"/>
<path d="M87.5193 61.8037V61.9616L86.698 62.4351V62.2773L87.5193 61.8037Z" fill="#1F2125"/>
<path d="M86.3927 62.2773V62.4352L83.6128 60.8251V60.6672L86.3927 62.2773Z" fill="#1F2125"/>
<path d="M86.698 62.2773V62.4352C86.6138 62.4878 86.4769 62.4878 86.3927 62.4352V62.2773C86.4769 62.33 86.6138 62.33 86.698 62.2773Z" fill="#1F2125"/>
<path d="M87.5193 61.6249C87.6036 61.6775 87.6036 61.7512 87.5193 61.8038L86.698 62.2773C86.6138 62.3299 86.4769 62.3299 86.3927 62.2773L83.6128 60.6673C83.5286 60.6146 83.5286 60.541 83.6128 60.4884L84.4341 60.0148C84.5184 59.9622 84.6552 59.9622 84.7395 60.0148L87.5193 61.6249Z" fill="#4D4D4D"/>
<path d="M66.0702 50.9333L64.7013 51.7225C64.6276 51.7646 64.5118 51.7646 64.4381 51.7225L63.0692 50.9333C63.0692 50.9333 63.0165 50.8807 63.0165 50.8596V51.0175C63.0165 51.0175 63.0376 51.0701 63.0692 51.0911L64.4381 51.8804C64.5118 51.9225 64.6381 51.9225 64.7013 51.8804L66.0702 51.0911C66.0702 51.0911 66.1228 51.0385 66.1228 51.0175V50.8596C66.1228 50.8596 66.1018 50.9122 66.0702 50.9333Z" fill="#1F2125"/>
<path d="M66.0702 50.7754C66.1439 50.8175 66.1439 50.8912 66.0702 50.9333L64.7013 51.7225C64.6276 51.7646 64.5118 51.7646 64.438 51.7225L63.0692 50.9333C62.9955 50.8912 62.9955 50.8175 63.0692 50.7754L64.438 49.9862C64.5118 49.9441 64.6276 49.9441 64.7013 49.9862L66.0702 50.7754Z" fill="#4D4D4D"/>
<path d="M61.4265 50.3648L60.1314 51.1225C60.0366 51.1751 59.8892 51.1751 59.7944 51.1225L57.5516 49.8281C57.5516 49.8281 57.4779 49.765 57.4779 49.7334V49.8913C57.4779 49.8913 57.4989 49.9649 57.5516 49.986L59.7944 51.2803C59.8892 51.333 60.0366 51.333 60.1314 51.2803L61.4265 50.5227C61.4265 50.5227 61.5002 50.4595 61.5002 50.4279V50.2701C61.5002 50.2701 61.4792 50.3438 61.4371 50.3648H61.4265Z" fill="#1F2125"/>
<path d="M61.4266 50.1649C61.5214 50.2175 61.5214 50.3017 61.4266 50.3648L60.1315 51.1225C60.0367 51.1751 59.8893 51.1751 59.7945 51.1225L57.5517 49.8281C57.4569 49.7755 57.4569 49.6913 57.5517 49.6282L58.8468 48.8705C58.9416 48.8179 59.089 48.8179 59.1838 48.8705L61.4266 50.1649Z" fill="#4D4D4D"/>
<path d="M63.3851 51.4489L62.0162 52.2382C61.9425 52.2803 61.8267 52.2803 61.7424 52.2382L60.3736 51.4489C60.3736 51.4489 60.3209 51.3963 60.3209 51.3752V51.5331C60.3209 51.5331 60.342 51.5857 60.3736 51.6068L61.7424 52.396C61.8161 52.4381 61.9425 52.4381 62.0162 52.396L63.3851 51.6068C63.3851 51.6068 63.4377 51.5541 63.4377 51.5331V51.3752C63.4377 51.3752 63.4167 51.4279 63.3851 51.4489Z" fill="#1F2125"/>
<path d="M63.3851 51.3015C63.4588 51.3436 63.4588 51.4173 63.3851 51.4594L62.0162 52.2486C61.9425 52.2907 61.8267 52.2907 61.7424 52.2486L60.3735 51.4594C60.2998 51.4173 60.2998 51.3436 60.3735 51.3015L61.7424 50.5123C61.8161 50.4702 61.9425 50.4702 62.0162 50.5123L63.3851 51.3015Z" fill="#4D4D4D"/>
<path d="M60.0261 51.7224L58.7625 52.4591C58.6572 52.5222 58.4992 52.5222 58.3939 52.4591L55.6983 50.9016C55.6983 50.9016 55.6246 50.828 55.6246 50.7964V50.9542C55.6246 50.9542 55.6457 51.0279 55.6983 51.0595L58.3939 52.6169C58.4992 52.6801 58.6572 52.6801 58.7625 52.6169L60.0261 51.8803C60.0261 51.8803 60.0998 51.8172 60.0998 51.7751V51.6172C60.0998 51.6172 60.0787 51.6909 60.0261 51.7224Z" fill="#1F2125"/>
<path d="M60.0261 51.512C60.1314 51.5752 60.1314 51.6699 60.0261 51.7225L58.7625 52.4591C58.6572 52.5223 58.4992 52.5223 58.394 52.4591L55.6983 50.9017C55.593 50.8385 55.593 50.7438 55.6983 50.6912L56.9619 49.9546C57.0672 49.8914 57.2251 49.8914 57.3304 49.9546L60.0261 51.512Z" fill="#4D4D4D"/>
<path d="M67.9339 52.0065L66.5651 52.7958C66.4914 52.8379 66.3755 52.8379 66.3018 52.7958L64.933 52.0065C64.933 52.0065 64.8803 51.9539 64.8803 51.9224V52.0802C64.8803 52.0802 64.9014 52.1328 64.933 52.1644L66.3018 52.9537C66.3755 52.9957 66.5019 52.9957 66.5651 52.9537L67.9339 52.1644C67.9339 52.1644 67.9866 52.1118 67.9866 52.0907V51.9329C67.9866 51.9329 67.9655 51.9855 67.9339 52.0065Z" fill="#1F2125"/>
<path d="M67.9234 51.8487C67.9971 51.8907 67.9971 51.9644 67.9234 52.0065L66.5545 52.7958C66.4808 52.8378 66.365 52.8378 66.2913 52.7958L64.9224 52.0065C64.8487 51.9644 64.8487 51.8907 64.9224 51.8487L66.2913 51.0594C66.365 51.0173 66.4808 51.0173 66.5545 51.0594L67.9234 51.8487Z" fill="#4D4D4D"/>
<path d="M65.2699 52.5329L63.901 53.3221C63.8273 53.3642 63.7115 53.3642 63.6273 53.3221L62.2584 52.5329C62.2584 52.5329 62.2057 52.4803 62.2057 52.4592V52.6171C62.2057 52.6171 62.2268 52.6697 62.2584 52.6907L63.6273 53.48C63.701 53.5221 63.8273 53.5221 63.901 53.48L65.2699 52.6907C65.2699 52.6907 65.3226 52.6381 65.3226 52.6171V52.4592C65.3226 52.4592 65.3015 52.5118 65.2699 52.5329Z" fill="#1F2125"/>
<path d="M65.2594 52.3855C65.3331 52.4276 65.3331 52.5013 65.2594 52.5434L63.8905 53.3326C63.8168 53.3747 63.701 53.3747 63.6167 53.3326L62.2479 52.5434C62.1741 52.5013 62.1741 52.4276 62.2479 52.3855L63.6167 51.5963C63.6904 51.5542 63.8168 51.5542 63.8905 51.5963L65.2594 52.3855Z" fill="#4D4D4D"/>
<path d="M62.0057 52.7748L60.6368 53.5641C60.5631 53.6062 60.4473 53.6062 60.363 53.5641L58.9941 52.7748C58.9941 52.7748 58.9415 52.7222 58.9415 52.7012V52.859C58.9415 52.859 58.9626 52.9116 58.9941 52.9327L60.363 53.7219C60.4367 53.764 60.5631 53.764 60.6368 53.7219L62.0057 52.9327C62.0057 52.9327 62.0583 52.8801 62.0583 52.859V52.7012C62.0583 52.7012 62.0373 52.7538 62.0057 52.7748Z" fill="#1F2125"/>
<path d="M62.0057 52.617C62.0794 52.6591 62.0794 52.7327 62.0057 52.7748L60.6368 53.5641C60.5631 53.6062 60.4473 53.6062 60.363 53.5641L58.9941 52.7748C58.9204 52.7327 58.9204 52.6591 58.9941 52.617L60.363 51.8277C60.4367 51.7856 60.5526 51.7856 60.6263 51.8277L61.9951 52.617H62.0057Z" fill="#4D4D4D"/>
<path d="M57.362 52.2275L56.0353 52.9957C55.951 53.0483 55.8142 53.0483 55.7299 52.9957L53.8767 51.9328C53.8767 51.9328 53.8135 51.8802 53.8135 51.8381V51.996C53.8135 51.996 53.8346 52.0591 53.8767 52.0907L55.7299 53.1536C55.8142 53.2062 55.951 53.2062 56.0353 53.1536L57.362 52.3854C57.362 52.3854 57.4252 52.3327 57.4252 52.3012V52.1433C57.4252 52.1433 57.4042 52.2065 57.362 52.2275Z" fill="#1F2125"/>
<path d="M57.362 52.0486C57.4463 52.1012 57.4463 52.1749 57.362 52.2275L56.0353 52.9957C55.951 53.0483 55.8142 53.0483 55.7299 52.9957L53.8767 51.9329C53.7924 51.8802 53.7924 51.8066 53.8767 51.754L55.2034 50.9858C55.2877 50.9331 55.4246 50.9331 55.5088 50.9858L57.362 52.0486Z" fill="#4D4D4D"/>
<path d="M59.2469 53.3115L57.878 54.1007C57.8043 54.1428 57.6885 54.1428 57.6147 54.1007L56.2353 53.3115C56.2353 53.3115 56.1827 53.2588 56.1827 53.2378V53.3956C56.1827 53.3956 56.2038 53.4483 56.2353 53.4693L57.6147 54.2586C57.6885 54.3007 57.8043 54.3007 57.878 54.2586L59.2469 53.4693C59.2469 53.4693 59.2995 53.4167 59.2995 53.3956V53.2378C59.2995 53.2378 59.2785 53.2904 59.2469 53.3115Z" fill="#1F2125"/>
<path d="M59.2469 53.1536C59.3206 53.1957 59.3206 53.2693 59.2469 53.3114L57.878 54.1007C57.8043 54.1428 57.6885 54.1428 57.6147 54.1007L56.2353 53.3114C56.1616 53.2693 56.1616 53.1957 56.2353 53.1536L57.6042 52.3643C57.6779 52.3222 57.7938 52.3222 57.8675 52.3643L59.2469 53.1536Z" fill="#4D4D4D"/>
<path d="M55.056 52.9643L53.6871 53.7535C53.6134 53.7956 53.4976 53.7956 53.4239 53.7535L52.0445 52.9643C52.0445 52.9643 51.9918 52.9117 51.9918 52.8906V53.0485C51.9918 53.0485 52.0129 53.1011 52.0445 53.1221L53.4239 53.9114C53.4976 53.9535 53.6134 53.9535 53.6871 53.9114L55.056 53.1221C55.056 53.1221 55.1087 53.0695 55.1087 53.0485V52.8906C55.1087 52.8906 55.0876 52.9432 55.056 52.9643Z" fill="#1F2125"/>
<path d="M55.056 52.8169C55.1297 52.859 55.1297 52.9327 55.056 52.9748L53.6871 53.764C53.6134 53.8061 53.4976 53.8061 53.4239 53.764L52.0445 52.9748C51.9708 52.9327 51.9708 52.859 52.0445 52.8169L53.4134 52.0277C53.4871 51.9856 53.6029 51.9856 53.6766 52.0277L55.056 52.8169Z" fill="#4D4D4D"/>
<path d="M57.004 54.0903L55.6352 54.8795C55.5614 54.9216 55.4456 54.9216 55.3719 54.8795L54.003 54.0903C54.003 54.0903 53.9504 54.0377 53.9504 54.0061V54.164C53.9504 54.164 53.9714 54.2166 54.003 54.2376L55.3719 55.0269C55.4456 55.069 55.572 55.069 55.6352 55.0269L57.004 54.2376C57.004 54.2376 57.0567 54.185 57.0567 54.164V54.0061C57.0567 54.0061 57.0356 54.0587 57.004 54.0798V54.0903Z" fill="#1F2125"/>
<path d="M56.9935 53.9324C57.0672 53.9745 57.0672 54.0482 56.9935 54.0902L55.6246 54.8795C55.5509 54.9216 55.4351 54.9216 55.3614 54.8795L53.9925 54.0902C53.9188 54.0482 53.9188 53.9745 53.9925 53.9324L55.3614 53.1431C55.4351 53.101 55.5509 53.101 55.6246 53.1431L56.9935 53.9324Z" fill="#4D4D4D"/>
<path d="M69.7872 53.08L68.4183 53.8693C68.3446 53.9114 68.2288 53.9114 68.1551 53.8693L66.7862 53.08C66.7862 53.08 66.7335 53.0274 66.7335 53.0063V53.1642C66.7335 53.1642 66.7546 53.2168 66.7862 53.2379L68.1551 54.0271C68.2288 54.0692 68.3551 54.0692 68.4183 54.0271L69.7872 53.2379C69.7872 53.2379 69.8398 53.1852 69.8398 53.1642V53.0063C69.8398 53.0063 69.8188 53.059 69.7872 53.08Z" fill="#1F2125"/>
<path d="M69.7872 52.9221C69.8609 52.9642 69.8609 53.0379 69.7872 53.08L68.4183 53.8692C68.3446 53.9113 68.2288 53.9113 68.1551 53.8692L66.7862 53.08C66.7125 53.0379 66.7125 52.9642 66.7862 52.9221L68.1551 52.1329C68.2288 52.0908 68.3446 52.0908 68.4183 52.1329L69.7872 52.9221Z" fill="#4D4D4D"/>
<path d="M67.1442 53.6166L65.7753 54.4059C65.7016 54.448 65.5858 54.448 65.5016 54.4059L64.1327 53.6166C64.1327 53.6166 64.08 53.564 64.08 53.543V53.7008C64.08 53.7008 64.1011 53.7534 64.1327 53.7745L65.5016 54.5637C65.5753 54.6058 65.7016 54.6058 65.7753 54.5637L67.1442 53.7745C67.1442 53.7745 67.1969 53.7219 67.1969 53.7008V53.543C67.1969 53.543 67.1758 53.5956 67.1442 53.6166Z" fill="#1F2125"/>
<path d="M67.1442 53.4693C67.2179 53.5114 67.2179 53.585 67.1442 53.6271L65.7753 54.4164C65.7016 54.4585 65.5858 54.4585 65.5016 54.4164L64.1327 53.6271C64.059 53.585 64.059 53.5114 64.1327 53.4693L65.5016 52.68C65.5753 52.6379 65.7016 52.6379 65.7753 52.68L67.1442 53.4693Z" fill="#4D4D4D"/>
<path d="M63.88 53.8588L62.5111 54.6481C62.4374 54.6902 62.3216 54.6902 62.2373 54.6481L60.8685 53.8588C60.8685 53.8588 60.8158 53.8062 60.8158 53.7852V53.943C60.8158 53.943 60.8369 53.9956 60.8685 54.0167L62.2373 54.8059C62.311 54.848 62.4374 54.848 62.5111 54.8059L63.88 54.0167C63.88 54.0167 63.9326 53.9641 63.9326 53.943V53.7852C63.9326 53.7852 63.9116 53.8378 63.88 53.8588Z" fill="#1F2125"/>
<path d="M63.88 53.7009C63.9537 53.743 63.9537 53.8167 63.88 53.8588L62.5111 54.6481C62.4374 54.6901 62.3216 54.6901 62.2373 54.6481L60.8685 53.8588C60.7947 53.8167 60.7947 53.743 60.8685 53.7009L62.2373 52.9117C62.311 52.8696 62.4269 52.8696 62.5006 52.9117L63.8694 53.7009H63.88Z" fill="#4D4D4D"/>
<path d="M61.1001 54.3849L59.7312 55.1742C59.6575 55.2163 59.5417 55.2163 59.468 55.1742L58.0886 54.3849C58.0886 54.3849 58.0359 54.3323 58.0359 54.3113V54.4691C58.0359 54.4691 58.057 54.5217 58.0886 54.5428L59.468 55.332C59.5417 55.3741 59.6575 55.3741 59.7312 55.332L61.1001 54.5428C61.1001 54.5428 61.1528 54.4902 61.1528 54.4691V54.3113C61.1528 54.3113 61.1317 54.3639 61.1001 54.3849Z" fill="#1F2125"/>
<path d="M61.1001 54.2271C61.1738 54.2692 61.1738 54.3428 61.1001 54.3849L59.7312 55.1742C59.6575 55.2163 59.5417 55.2163 59.468 55.1742L58.0886 54.3849C58.0149 54.3428 58.0149 54.2692 58.0886 54.2271L59.4575 53.4378C59.5312 53.3957 59.647 53.3957 59.7207 53.4378L61.1001 54.2271Z" fill="#4D4D4D"/>
<path d="M58.8783 55.174L57.5095 55.9633C57.4357 56.0054 57.3199 56.0054 57.2462 55.9633L55.8773 55.174C55.8773 55.174 55.8247 55.1214 55.8247 55.1003V55.2582C55.8247 55.2582 55.8457 55.3108 55.8773 55.3319L57.2462 56.1211C57.3199 56.1632 57.4463 56.1632 57.5095 56.1211L58.8783 55.3319C58.8783 55.3319 58.931 55.2792 58.931 55.2582V55.1003C58.931 55.1003 58.9099 55.153 58.8783 55.174Z" fill="#1F2125"/>
<path d="M58.8783 55.0161C58.952 55.0582 58.952 55.1319 58.8783 55.174L57.5094 55.9632C57.4357 56.0053 57.3199 56.0053 57.2462 55.9632L55.8773 55.174C55.8036 55.1319 55.8036 55.0582 55.8773 55.0161L57.2462 54.2269C57.3199 54.1848 57.4357 54.1848 57.5094 54.2269L58.8783 55.0161Z" fill="#4D4D4D"/>
<path d="M71.651 54.1533L70.2821 54.9425C70.2084 54.9846 70.0925 54.9846 70.0188 54.9425L68.6394 54.1533C68.6394 54.1533 68.5868 54.1006 68.5868 54.0796V54.2374C68.5868 54.2374 68.6078 54.2901 68.6394 54.3111L70.0188 55.1004C70.0925 55.1425 70.2084 55.1425 70.2821 55.1004L71.651 54.3111C71.651 54.3111 71.7036 54.2585 71.7036 54.2374V54.0796C71.7036 54.0796 71.6825 54.1322 71.651 54.1533Z" fill="#1F2125"/>
<path d="M71.651 53.9954C71.7247 54.0375 71.7247 54.1111 71.651 54.1532L70.2821 54.9425C70.2084 54.9846 70.0925 54.9846 70.0188 54.9425L68.6394 54.1532C68.5657 54.1111 68.5657 54.0375 68.6394 53.9954L70.0083 53.2061C70.082 53.164 70.1978 53.164 70.2716 53.2061L71.651 53.9954Z" fill="#4D4D4D"/>
<path d="M69.0185 54.7006L67.6496 55.4899C67.5759 55.532 67.4601 55.532 67.3759 55.4899L66.007 54.7006C66.007 54.7006 65.9543 54.648 65.9543 54.627V54.7848C65.9543 54.7848 65.9754 54.8374 66.007 54.8585L67.3759 55.6477C67.4496 55.6898 67.5759 55.6898 67.6496 55.6477L69.0185 54.8585C69.0185 54.8585 69.0712 54.8059 69.0712 54.7848V54.627C69.0712 54.627 69.0501 54.6796 69.0185 54.7006Z" fill="#1F2125"/>
<path d="M69.0185 54.5532C69.0922 54.5953 69.0922 54.669 69.0185 54.7111L67.6496 55.5003C67.5759 55.5424 67.4601 55.5424 67.3759 55.5003L66.007 54.7111C65.9333 54.669 65.9333 54.5953 66.007 54.5532L67.3759 53.764C67.4496 53.7219 67.5759 53.7219 67.6496 53.764L69.0185 54.5532Z" fill="#4D4D4D"/>
<path d="M65.7437 54.9321L64.3749 55.7213C64.3012 55.7634 64.1853 55.7634 64.1011 55.7213L62.7322 54.9321C62.7322 54.9321 62.6796 54.8794 62.6796 54.8584V55.0162C62.6796 55.0162 62.7006 55.0689 62.7322 55.0899L64.1011 55.8792C64.1748 55.9213 64.3012 55.9213 64.3749 55.8792L65.7437 55.0899C65.7437 55.0899 65.7964 55.0373 65.7964 55.0162V54.8584C65.7964 54.8584 65.7753 54.911 65.7437 54.9321Z" fill="#1F2125"/>
<path d="M65.7437 54.7847C65.8175 54.8268 65.8175 54.9004 65.7437 54.9425L64.3749 55.7318C64.3012 55.7739 64.1853 55.7739 64.1011 55.7318L62.7322 54.9425C62.6585 54.9004 62.6585 54.8268 62.7322 54.7847L64.1011 53.9954C64.1748 53.9533 64.2906 53.9533 64.3643 53.9954L65.7332 54.7847H65.7437Z" fill="#4D4D4D"/>
<path d="M62.9639 55.4582L61.595 56.2474C61.5213 56.2895 61.4055 56.2895 61.3318 56.2474L59.9629 55.4582C59.9629 55.4582 59.9102 55.4056 59.9102 55.3845V55.5424C59.9102 55.5424 59.9313 55.595 59.9629 55.616L61.3318 56.4053C61.4055 56.4474 61.5213 56.4474 61.595 56.4053L62.9639 55.616C62.9639 55.616 63.0165 55.5634 63.0165 55.5424V55.3845C63.0165 55.3845 62.9955 55.4371 62.9639 55.4582Z" fill="#1F2125"/>
<path d="M62.9639 55.3003C63.0376 55.3424 63.0376 55.4161 62.9639 55.4582L61.595 56.2474C61.5213 56.2895 61.4055 56.2895 61.3318 56.2474L59.9629 55.4582C59.8892 55.4161 59.8892 55.3424 59.9629 55.3003L61.3318 54.5111C61.4055 54.469 61.5213 54.469 61.6055 54.5111L62.9744 55.3003H62.9639Z" fill="#4D4D4D"/>
<path d="M61.1738 56.5106L59.8471 57.2788C59.7628 57.3314 59.6259 57.3314 59.5417 57.2788L57.7622 56.258C57.7622 56.258 57.699 56.2054 57.699 56.1738V56.3317C57.699 56.3317 57.72 56.3948 57.7622 56.4159L59.5417 57.4366C59.6259 57.4892 59.7628 57.4892 59.8471 57.4366L61.1738 56.6684C61.1738 56.6684 61.237 56.6158 61.237 56.5842V56.4264C61.237 56.4264 61.2159 56.4895 61.1738 56.5106Z" fill="#1F2125"/>
<path d="M61.1738 56.3422C61.2581 56.3948 61.2581 56.4685 61.1738 56.5211L59.8471 57.2893C59.7628 57.3419 59.6259 57.3419 59.5417 57.2893L57.7622 56.2685C57.6779 56.2159 57.6779 56.1423 57.7622 56.0897L59.0889 55.3214C59.1732 55.2688 59.31 55.2688 59.3943 55.3214L61.1738 56.3422Z" fill="#4D4D4D"/>
<path d="M67.618 56.016L66.2492 56.8053C66.1755 56.8474 66.0596 56.8474 65.9859 56.8053L64.6065 56.016C64.6065 56.016 64.5539 55.9634 64.5539 55.9424V56.1002C64.5539 56.1002 64.5749 56.1529 64.6065 56.1739L65.9859 56.9632C66.0596 57.0052 66.1755 57.0052 66.2492 56.9632L67.618 56.1739C67.618 56.1739 67.6707 56.1213 67.6707 56.1002V55.9424C67.6707 55.9424 67.6496 55.995 67.618 56.016Z" fill="#1F2125"/>
<path d="M67.618 55.8582C67.6918 55.9003 67.6918 55.9739 67.618 56.016L66.2492 56.8053C66.1755 56.8474 66.0596 56.8474 65.9859 56.8053L64.6065 56.016C64.5328 55.9739 64.5328 55.9003 64.6065 55.8582L65.9754 55.0689C66.0491 55.0268 66.1649 55.0268 66.2386 55.0689L67.618 55.8582Z" fill="#4D4D4D"/>
<path d="M64.8277 56.5317L63.4588 57.3209C63.3851 57.363 63.2587 57.363 63.185 57.3209L61.8161 56.5317C61.8161 56.5317 61.7635 56.4791 61.7635 56.458V56.6159C61.7635 56.6159 61.7845 56.6685 61.8161 56.6895L63.185 57.4788C63.2587 57.5209 63.3851 57.5209 63.4588 57.4788L64.8277 56.6895C64.8277 56.6895 64.8803 56.6369 64.8803 56.6159V56.458C64.8803 56.458 64.8592 56.5106 64.8277 56.5317Z" fill="#1F2125"/>
<path d="M64.8276 56.3738C64.9014 56.4159 64.9014 56.4896 64.8276 56.5317L63.4588 57.3209C63.3851 57.363 63.2587 57.363 63.185 57.3209L61.8161 56.5317C61.7424 56.4896 61.7424 56.4159 61.8161 56.3738L63.185 55.5845C63.2587 55.5425 63.3745 55.5425 63.4588 55.5845L64.8276 56.3738Z" fill="#4D4D4D"/>
<path d="M73.5147 55.2267L72.1459 56.016C72.0721 56.0581 71.9563 56.0581 71.8826 56.016L70.5032 55.2267C70.5032 55.2267 70.4506 55.1741 70.4506 55.1531V55.3109C70.4506 55.3109 70.4716 55.3635 70.5032 55.3846L71.8826 56.1738C71.9563 56.2159 72.0721 56.2159 72.1459 56.1738L73.5147 55.3846C73.5147 55.3846 73.5674 55.332 73.5674 55.3109V55.1531C73.5674 55.1531 73.5463 55.2057 73.5147 55.2267Z" fill="#1F2125"/>
<path d="M73.5147 55.0689C73.5884 55.111 73.5884 55.1846 73.5147 55.2267L72.1459 56.016C72.0721 56.0581 71.9563 56.0581 71.8826 56.016L70.5032 55.2267C70.4295 55.1846 70.4295 55.111 70.5032 55.0689L71.8721 54.2796C71.9458 54.2375 72.0616 54.2375 72.1353 54.2796L73.5147 55.0689Z" fill="#4D4D4D"/>
<path d="M70.9033 55.7846L69.5345 56.5739C69.4608 56.6159 69.3449 56.6159 69.2607 56.5739L67.8918 55.7846C67.8918 55.7846 67.8392 55.732 67.8392 55.7109V55.8688C67.8392 55.8688 67.8602 55.9214 67.8918 55.9425L69.2607 56.7317C69.3344 56.7738 69.4608 56.7738 69.5345 56.7317L70.9033 55.9425C70.9033 55.9425 70.956 55.8898 70.956 55.8688V55.7109C70.956 55.7109 70.9349 55.7636 70.9033 55.7846Z" fill="#1F2125"/>
<path d="M70.9033 55.6372C70.977 55.6793 70.977 55.753 70.9033 55.7951L69.5345 56.5843C69.4608 56.6264 69.3449 56.6264 69.2607 56.5843L67.8918 55.7951C67.8181 55.753 67.8181 55.6793 67.8918 55.6372L69.2607 54.848C69.3344 54.8059 69.4608 54.8059 69.5345 54.848L70.9033 55.6372Z" fill="#4D4D4D"/>
<path d="M69.4818 57.0893L68.1129 57.8785C68.0392 57.9206 67.9234 57.9206 67.8497 57.8785L66.4703 57.0893C66.4703 57.0893 66.4176 57.0367 66.4176 57.0156V57.1735C66.4176 57.1735 66.4387 57.2261 66.4703 57.2471L67.8497 58.0364C67.9234 58.0785 68.0392 58.0785 68.1129 58.0364L69.4818 57.2471C69.4818 57.2471 69.5345 57.1945 69.5345 57.1735V57.0156C69.5345 57.0156 69.5134 57.0682 69.4818 57.0893Z" fill="#1F2125"/>
<path d="M69.4818 56.9419C69.5555 56.984 69.5555 57.0577 69.4818 57.0998L68.1129 57.889C68.0392 57.9311 67.9234 57.9311 67.8497 57.889L66.4703 57.0998C66.3966 57.0577 66.3966 56.984 66.4703 56.9419L67.8392 56.1527C67.9129 56.1106 68.0287 56.1106 68.1024 56.1527L69.4818 56.9419Z" fill="#4D4D4D"/>
<path d="M66.6914 57.6049L65.3226 58.3942C65.2488 58.4363 65.1225 58.4363 65.0488 58.3942L63.6799 57.6049C63.6799 57.6049 63.6273 57.5523 63.6273 57.5312V57.6891C63.6273 57.6891 63.6483 57.7417 63.6799 57.7628L65.0488 58.552C65.1225 58.5941 65.2488 58.5941 65.3226 58.552L66.6914 57.7628C66.6914 57.7628 66.7441 57.7101 66.7441 57.6891V57.5312C66.7441 57.5312 66.723 57.5839 66.6914 57.6049Z" fill="#1F2125"/>
<path d="M66.6809 57.447C66.7546 57.4891 66.7546 57.5628 66.6809 57.6049L65.312 58.3941C65.2383 58.4362 65.112 58.4362 65.0382 58.3941L63.6694 57.6049C63.5957 57.5628 63.5957 57.4891 63.6694 57.447L65.0382 56.6578C65.112 56.6157 65.2278 56.6157 65.312 56.6578L66.6809 57.447Z" fill="#4D4D4D"/>
<path d="M75.368 56.3002L73.9991 57.0895C73.9254 57.1316 73.8096 57.1316 73.7359 57.0895L72.367 56.3002C72.367 56.3002 72.3143 56.2476 72.3143 56.2266V56.3844C72.3143 56.3844 72.3354 56.437 72.367 56.4581L73.7359 57.2473C73.8096 57.2894 73.9254 57.2894 73.9991 57.2473L75.368 56.4581C75.368 56.4581 75.4206 56.4055 75.4206 56.3844V56.2266C75.4206 56.2266 75.3996 56.2792 75.368 56.3002Z" fill="#1F2125"/>
<path d="M75.368 56.1424C75.4417 56.1844 75.4417 56.2581 75.368 56.3002L73.9991 57.0895C73.9254 57.1316 73.8096 57.1316 73.7359 57.0895L72.367 56.3002C72.2933 56.2581 72.2933 56.1844 72.367 56.1424L73.7359 55.3531C73.8096 55.311 73.9254 55.311 73.9991 55.3531L75.368 56.1424Z" fill="#4D4D4D"/>
<path d="M72.7776 56.8683L71.4088 57.6576C71.3351 57.6997 71.2192 57.6997 71.135 57.6576L69.7661 56.8683C69.7661 56.8683 69.7135 56.8157 69.7135 56.7947V56.9525C69.7135 56.9525 69.7345 57.0051 69.7661 57.0262L71.135 57.8154C71.2087 57.8575 71.3351 57.8575 71.4088 57.8154L72.7776 57.0262C72.7776 57.0262 72.8303 56.9736 72.8303 56.9525V56.7947C72.8303 56.7947 72.8092 56.8473 72.7776 56.8683Z" fill="#1F2125"/>
<path d="M72.7776 56.721C72.8514 56.7631 72.8514 56.8367 72.7776 56.8788L71.4088 57.6681C71.3351 57.7102 71.2192 57.7102 71.135 57.6681L69.7661 56.8788C69.6924 56.8367 69.6924 56.7631 69.7661 56.721L71.135 55.9317C71.2087 55.8896 71.3351 55.8896 71.4088 55.9317L72.7776 56.721Z" fill="#4D4D4D"/>
<path d="M71.3561 58.1733L69.9872 58.9625C69.9135 59.0046 69.7977 59.0046 69.724 58.9625L68.3446 58.1733C68.3446 58.1733 68.292 58.1207 68.292 58.0996V58.2575C68.292 58.2575 68.313 58.3101 68.3446 58.3311L69.724 59.1204C69.7977 59.1625 69.9135 59.1625 69.9872 59.1204L71.3561 58.3311C71.3561 58.3311 71.4088 58.2785 71.4088 58.2575V58.0996C71.4088 58.0996 71.3877 58.1522 71.3561 58.1733Z" fill="#1F2125"/>
<path d="M71.3561 58.0154C71.4298 58.0575 71.4298 58.1312 71.3561 58.1733L69.9872 58.9625C69.9135 59.0046 69.7977 59.0046 69.724 58.9625L68.3446 58.1733C68.2709 58.1312 68.2709 58.0575 68.3446 58.0154L69.7135 57.2262C69.7872 57.1841 69.903 57.1841 69.9767 57.2262L71.3561 58.0154Z" fill="#4D4D4D"/>
<path d="M68.5447 58.6784L67.1758 59.4677C67.1021 59.5097 66.9863 59.5097 66.902 59.4677L65.5332 58.6784C65.5332 58.6784 65.4805 58.6258 65.4805 58.6047V58.7626C65.4805 58.7626 65.5016 58.8152 65.5332 58.8363L66.902 59.6255C66.9757 59.6676 67.1021 59.6676 67.1758 59.6255L68.5447 58.8363C68.5447 58.8363 68.5973 58.7836 68.5973 58.7626V58.6047C68.5973 58.6047 68.5763 58.6574 68.5447 58.6784Z" fill="#1F2125"/>
<path d="M68.5447 58.5205C68.6184 58.5626 68.6184 58.6363 68.5447 58.6784L67.1758 59.4676C67.1021 59.5097 66.9863 59.5097 66.902 59.4676L65.5331 58.6784C65.4594 58.6363 65.4594 58.5626 65.5331 58.5205L66.902 57.7313C66.9757 57.6892 67.1021 57.6892 67.1758 57.7313L68.5447 58.5205Z" fill="#4D4D4D"/>
<path d="M77.2317 57.3735L75.8629 58.1627C75.7892 58.2048 75.6733 58.2048 75.5996 58.1627L74.2308 57.3735C74.2308 57.3735 74.1781 57.3209 74.1781 57.2998V57.4577C74.1781 57.4577 74.1992 57.5103 74.2308 57.5313L75.5996 58.3206C75.6733 58.3627 75.7997 58.3627 75.8629 58.3206L77.2317 57.5313C77.2317 57.5313 77.2844 57.4787 77.2844 57.4577V57.2998C77.2844 57.2998 77.2633 57.3524 77.2317 57.3735Z" fill="#1F2125"/>
<path d="M77.2317 57.2156C77.3055 57.2577 77.3055 57.3314 77.2317 57.3734L75.8629 58.1627C75.7892 58.2048 75.6733 58.2048 75.5996 58.1627L74.2308 57.3734C74.157 57.3314 74.157 57.2577 74.2308 57.2156L75.5996 56.4263C75.6733 56.3843 75.7892 56.3843 75.8629 56.4263L77.2317 57.2156Z" fill="#4D4D4D"/>
<path d="M74.6519 57.9523L73.2831 58.7416C73.2094 58.7837 73.0935 58.7837 73.0093 58.7416L71.6404 57.9523C71.6404 57.9523 71.5878 57.8997 71.5878 57.8787V58.0365C71.5878 58.0365 71.6088 58.0891 71.6404 58.1102L73.0093 58.8994C73.083 58.9415 73.2094 58.9415 73.2831 58.8994L74.6519 58.1102C74.6519 58.1102 74.7046 58.0576 74.7046 58.0365V57.8787C74.7046 57.8787 74.6835 57.9313 74.6519 57.9523Z" fill="#1F2125"/>
<path d="M74.6519 57.805C74.7257 57.847 74.7257 57.9207 74.6519 57.9628L73.2831 58.7521C73.2094 58.7942 73.0935 58.7942 73.0093 58.7521L71.6404 57.9628C71.5667 57.9207 71.5667 57.847 71.6404 57.805L73.0093 57.0157C73.083 56.9736 73.2094 56.9736 73.2831 57.0157L74.6519 57.805Z" fill="#4D4D4D"/>
<path d="M73.2199 59.2468L71.851 60.036C71.7773 60.0781 71.6615 60.0781 71.5878 60.036L70.2084 59.2468C70.2084 59.2468 70.1557 59.1941 70.1557 59.1731V59.3309C70.1557 59.3309 70.1768 59.3836 70.2084 59.4046L71.5878 60.1939C71.6615 60.236 71.7773 60.236 71.851 60.1939L73.2199 59.4046C73.2199 59.4046 73.2725 59.352 73.2725 59.3309V59.1731C73.2725 59.1731 73.2515 59.2257 73.2199 59.2468Z" fill="#1F2125"/>
<path d="M73.2303 59.0994C73.304 59.1415 73.304 59.2151 73.2303 59.2572L71.8614 60.0465C71.7877 60.0886 71.6718 60.0886 71.5981 60.0465L70.2187 59.2572C70.145 59.2151 70.145 59.1415 70.2187 59.0994L71.5876 58.3101C71.6613 58.268 71.7771 58.268 71.8509 58.3101L73.2303 59.0994Z" fill="#4D4D4D"/>
<path d="M70.4084 59.7519L69.0396 60.5411C68.9659 60.5832 68.85 60.5832 68.7658 60.5411L67.3969 59.7519C67.3969 59.7519 67.3443 59.6993 67.3443 59.6782V59.8361C67.3443 59.8361 67.3653 59.8887 67.3969 59.9097L68.7658 60.699C68.8395 60.7411 68.9659 60.7411 69.0396 60.699L70.4084 59.9097C70.4084 59.9097 70.4611 59.8571 70.4611 59.8361V59.6782C70.4611 59.6782 70.44 59.7308 70.4084 59.7519Z" fill="#1F2125"/>
<path d="M70.4084 59.594C70.4821 59.6361 70.4821 59.7098 70.4084 59.7519L69.0396 60.5411C68.9659 60.5832 68.85 60.5832 68.7658 60.5411L67.3969 59.7519C67.3232 59.7098 67.3232 59.6361 67.3969 59.594L68.7658 58.8048C68.8395 58.7627 68.9659 58.7627 69.0396 58.8048L70.4084 59.594Z" fill="#4D4D4D"/>
<path d="M79.0955 58.447L77.7266 59.2362C77.6529 59.2783 77.5371 59.2783 77.4634 59.2362L76.0945 58.447C76.0945 58.447 76.0419 58.3943 76.0419 58.3733V58.5311C76.0419 58.5311 76.0629 58.5838 76.0945 58.6048L77.4634 59.3941C77.5371 59.4361 77.6635 59.4361 77.7266 59.3941L79.0955 58.6048C79.0955 58.6048 79.1482 58.5522 79.1482 58.5311V58.3733C79.1482 58.3733 79.1271 58.4259 79.0955 58.447Z" fill="#1F2125"/>
<path d="M79.0955 58.2891C79.1692 58.3312 79.1692 58.4048 79.0955 58.4469L77.7266 59.2362C77.6529 59.2783 77.5371 59.2783 77.4634 59.2362L76.0945 58.4469C76.0208 58.4048 76.0208 58.3312 76.0945 58.2891L77.4634 57.4998C77.5371 57.4577 77.6529 57.4577 77.7266 57.4998L79.0955 58.2891Z" fill="#4D4D4D"/>
<path d="M76.5368 59.0363L75.1679 59.8256C75.0942 59.8677 74.9784 59.8677 74.8941 59.8256L73.5253 59.0363C73.5253 59.0363 73.4726 58.9837 73.4726 58.9626V59.1205C73.4726 59.1205 73.4937 59.1731 73.5253 59.1942L74.8941 59.9834C74.9678 60.0255 75.0942 60.0255 75.1679 59.9834L76.5368 59.1942C76.5368 59.1942 76.5894 59.1415 76.5894 59.1205V58.9626C76.5894 58.9626 76.5684 59.0153 76.5368 59.0363Z" fill="#1F2125"/>
<path d="M76.5368 58.8889C76.6105 58.931 76.6105 59.0047 76.5368 59.0468L75.1679 59.836C75.0942 59.8781 74.9784 59.8781 74.8941 59.836L73.5253 59.0468C73.4515 59.0047 73.4515 58.931 73.5253 58.8889L74.8941 58.0997C74.9678 58.0576 75.0942 58.0576 75.1679 58.0997L76.5368 58.8889Z" fill="#4D4D4D"/>
<path d="M75.0942 60.3305L73.7253 61.1198C73.6516 61.1618 73.5358 61.1618 73.4621 61.1198L72.0827 60.3305C72.0827 60.3305 72.03 60.2779 72.03 60.2568V60.4147C72.03 60.4147 72.0511 60.4673 72.0827 60.4884L73.4621 61.2776C73.5358 61.3197 73.6516 61.3197 73.7253 61.2776L75.0942 60.4884C75.0942 60.4884 75.1468 60.4357 75.1468 60.4147V60.2568C75.1468 60.2568 75.1258 60.3095 75.0942 60.3305Z" fill="#1F2125"/>
<path d="M75.0942 60.1726C75.1679 60.2147 75.1679 60.2884 75.0942 60.3305L73.7253 61.1197C73.6516 61.1618 73.5358 61.1618 73.4621 61.1197L72.0827 60.3305C72.009 60.2884 72.009 60.2147 72.0827 60.1726L73.4515 59.3834C73.5253 59.3413 73.6411 59.3413 73.7148 59.3834L75.0942 60.1726Z" fill="#4D4D4D"/>
<path d="M72.2722 60.8251L70.9033 61.6144C70.8296 61.6565 70.7138 61.6565 70.6296 61.6144L69.2607 60.8251C69.2607 60.8251 69.208 60.7725 69.208 60.7515V60.9093C69.208 60.9093 69.2291 60.9619 69.2607 60.983L70.6296 61.7722C70.7033 61.8143 70.8296 61.8143 70.9033 61.7722L72.2722 60.983C72.2722 60.983 72.3249 60.9304 72.3249 60.9093V60.7515C72.3249 60.7515 72.3038 60.8041 72.2722 60.8251Z" fill="#1F2125"/>
<path d="M72.2722 60.6673C72.3459 60.7094 72.3459 60.783 72.2722 60.8251L70.9033 61.6144C70.8296 61.6565 70.7138 61.6565 70.6296 61.6144L69.2607 60.8251C69.187 60.783 69.187 60.7094 69.2607 60.6673L70.6296 59.878C70.7033 59.8359 70.8191 59.8359 70.8928 59.878L72.2617 60.6673H72.2722Z" fill="#4D4D4D"/>
<path d="M70.3663 62.0143L69.366 62.5931C69.187 62.6983 68.9027 62.6983 68.7342 62.5931L60.2261 57.6787C60.1419 57.6261 60.0892 57.5629 60.0892 57.4893V57.6471C60.0892 57.7102 60.1314 57.7839 60.2261 57.8365L68.7342 62.7509C68.9132 62.8562 69.1975 62.8562 69.366 62.7509L70.3663 62.1722C70.4506 62.1195 70.4927 62.0564 70.4927 61.9933V61.8354C70.4927 61.8985 70.4506 61.9722 70.3663 62.0143Z" fill="#1F2125"/>
<path d="M70.3664 61.6459C70.5454 61.7512 70.5454 61.909 70.3664 62.0142L69.3661 62.593C69.1871 62.6983 68.9028 62.6983 68.7343 62.593L60.2263 57.6786C60.0473 57.5734 60.0473 57.4155 60.2263 57.3103L61.2266 56.7315C61.4056 56.6263 61.6794 56.6263 61.8584 56.7315L70.3664 61.6459Z" fill="#4D4D4D"/>
<path d="M80.9593 59.5202L79.5904 60.3094C79.5167 60.3515 79.4009 60.3515 79.3272 60.3094L77.9583 59.5202C77.9583 59.5202 77.9056 59.4676 77.9056 59.4465V59.6044C77.9056 59.6044 77.9267 59.657 77.9583 59.678L79.3272 60.4673C79.4009 60.5094 79.5272 60.5094 79.5904 60.4673L80.9593 59.678C80.9593 59.678 81.0119 59.6254 81.0119 59.6044V59.4465C81.0119 59.4465 80.9909 59.4991 80.9593 59.5202Z" fill="#1F2125"/>
<path d="M80.9593 59.3623C81.033 59.4044 81.033 59.4781 80.9593 59.5202L79.5904 60.3094C79.5167 60.3515 79.4009 60.3515 79.3272 60.3094L77.9583 59.5202C77.8846 59.4781 77.8846 59.4044 77.9583 59.3623L79.3272 58.5731C79.4009 58.531 79.5167 58.531 79.5904 58.5731L80.9593 59.3623Z" fill="#4D4D4D"/>
<path d="M78.4111 60.12L77.0422 60.9093C76.9685 60.9514 76.8527 60.9514 76.7684 60.9093L75.3996 60.12C75.3996 60.12 75.3469 60.0674 75.3469 60.0464V60.2042C75.3469 60.2042 75.368 60.2569 75.3996 60.2779L76.7684 61.0672C76.8421 61.1092 76.9685 61.1092 77.0422 61.0672L78.4111 60.2779C78.4111 60.2779 78.4637 60.2253 78.4637 60.2042V60.0464C78.4637 60.0464 78.4427 60.099 78.4111 60.12Z" fill="#1F2125"/>
<path d="M78.4111 59.9727C78.4848 60.0148 78.4848 60.0884 78.4111 60.1305L77.0422 60.9198C76.9685 60.9619 76.8527 60.9619 76.7684 60.9198L75.3996 60.1305C75.3258 60.0884 75.3258 60.0148 75.3996 59.9727L76.7684 59.1834C76.8421 59.1413 76.9685 59.1413 77.0422 59.1834L78.4111 59.9727Z" fill="#4D4D4D"/>
<path d="M76.9685 61.404L75.5996 62.1932C75.5259 62.2353 75.4101 62.2353 75.3364 62.1932L73.9675 61.404C73.9675 61.404 73.9149 61.3514 73.9149 61.3303V61.4882C73.9149 61.4882 73.9359 61.5408 73.9675 61.5618L75.3364 62.3511C75.4101 62.3932 75.5259 62.3932 75.5996 62.3511L76.9685 61.5618C76.9685 61.5618 77.0211 61.5092 77.0211 61.4882V61.3303C77.0211 61.3303 77.0001 61.3829 76.9685 61.404Z" fill="#1F2125"/>
<path d="M76.9685 61.2566C77.0422 61.2987 77.0422 61.3724 76.9685 61.4145L75.5996 62.2037C75.5259 62.2458 75.4101 62.2458 75.3364 62.2037L73.9675 61.4145C73.8938 61.3724 73.8938 61.2987 73.9675 61.2566L75.3364 60.4674C75.4101 60.4253 75.5259 60.4253 75.6102 60.4674L76.979 61.2566H76.9685Z" fill="#4D4D4D"/>
<path d="M74.1255 61.8986L72.7566 62.6879C72.6829 62.73 72.5671 62.73 72.4933 62.6879L71.1139 61.8986C71.1139 61.8986 71.0613 61.846 71.0613 61.825V61.9828C71.0613 61.9828 71.0823 62.0354 71.1139 62.0565L72.4933 62.8457C72.5671 62.8878 72.6829 62.8878 72.7566 62.8457L74.1255 62.0565C74.1255 62.0565 74.1781 62.0038 74.1781 61.9828V61.825C74.1781 61.825 74.157 61.8776 74.1255 61.8986Z" fill="#1F2125"/>
<path d="M74.1255 61.7407C74.1992 61.7828 74.1992 61.8565 74.1255 61.8986L72.7566 62.6878C72.6829 62.7299 72.5671 62.7299 72.4933 62.6878L71.1139 61.8986C71.0402 61.8565 71.0402 61.7828 71.1139 61.7407L72.4828 60.9515C72.5565 60.9094 72.6723 60.9094 72.7461 60.9515L74.1255 61.7407Z" fill="#4D4D4D"/>
<path d="M82.8862 60.6357L81.5174 61.4249C81.4437 61.467 81.3278 61.467 81.2541 61.4249L79.8852 60.6357C79.8852 60.6357 79.8326 60.5831 79.8326 60.562V60.7199C79.8326 60.7199 79.8537 60.7725 79.8852 60.7935L81.2541 61.5828C81.3278 61.6249 81.4542 61.6249 81.5174 61.5828L82.8862 60.7935C82.8862 60.7935 82.9389 60.7409 82.9389 60.7199V60.562C82.9389 60.562 82.9178 60.6146 82.8862 60.6357Z" fill="#1F2125"/>
<path d="M82.8862 60.4778C82.9599 60.5199 82.9599 60.5936 82.8862 60.6357L81.5174 61.4249C81.4437 61.467 81.3278 61.467 81.2541 61.4249L79.8852 60.6357C79.8115 60.5936 79.8115 60.5199 79.8852 60.4778L81.2541 59.6886C81.3278 59.6465 81.4437 59.6465 81.5174 59.6886L82.8862 60.4778Z" fill="#4D4D4D"/>
<path d="M80.2959 61.204L78.927 61.9933C78.8533 62.0354 78.7375 62.0354 78.6533 61.9933L77.2844 61.204C77.2844 61.204 77.2317 61.1514 77.2317 61.1304V61.2882C77.2317 61.2882 77.2528 61.3408 77.2844 61.3619L78.6533 62.1511C78.727 62.1932 78.8533 62.1932 78.927 62.1511L80.2959 61.3619C80.2959 61.3619 80.3486 61.3093 80.3486 61.2882V61.1304C80.3486 61.1304 80.3275 61.183 80.2959 61.204Z" fill="#1F2125"/>
<path d="M80.2959 61.0567C80.3696 61.0988 80.3696 61.1724 80.2959 61.2145L78.927 62.0038C78.8533 62.0459 78.7375 62.0459 78.6533 62.0038L77.2844 61.2145C77.2107 61.1724 77.2107 61.0988 77.2844 61.0567L78.6533 60.2674C78.727 60.2253 78.8533 60.2253 78.927 60.2674L80.2959 61.0567Z" fill="#4D4D4D"/>
<path d="M78.8323 62.488L77.4634 63.2772C77.3897 63.3193 77.2739 63.3193 77.2002 63.2772L75.8313 62.488C75.8313 62.488 75.7786 62.4354 75.7786 62.4143V62.5722C75.7786 62.5722 75.7997 62.6248 75.8313 62.6458L77.2002 63.4351C77.2739 63.4772 77.3897 63.4772 77.4634 63.4351L78.8323 62.6458C78.8323 62.6458 78.8849 62.5932 78.8849 62.5722V62.4143C78.8849 62.4143 78.8639 62.4669 78.8323 62.488Z" fill="#1F2125"/>
<path d="M78.8323 62.3301C78.906 62.3722 78.906 62.4459 78.8323 62.488L77.4634 63.2772C77.3897 63.3193 77.2739 63.3193 77.2002 63.2772L75.8313 62.488C75.7576 62.4459 75.7576 62.3722 75.8313 62.3301L77.2002 61.5408C77.2739 61.4988 77.3897 61.4988 77.4739 61.5408L78.8428 62.3301H78.8323Z" fill="#4D4D4D"/>
<path d="M76.0524 63.0141L74.6835 63.8033C74.6098 63.8454 74.494 63.8454 74.4203 63.8033L73.0409 63.0141C73.0409 63.0141 72.9882 62.9615 72.9882 62.9404V63.0983C72.9882 63.0983 73.0093 63.1509 73.0409 63.1719L74.4203 63.9612C74.494 64.0033 74.6098 64.0033 74.6835 63.9612L76.0524 63.1719C76.0524 63.1719 76.1051 63.1193 76.1051 63.0983V62.9404C76.1051 62.9404 76.084 62.993 76.0524 63.0141Z" fill="#1F2125"/>
<path d="M76.0524 62.8562C76.1261 62.8983 76.1261 62.972 76.0524 63.0141L74.6835 63.8033C74.6098 63.8454 74.494 63.8454 74.4203 63.8033L73.0409 63.0141C72.9672 62.972 72.9672 62.8983 73.0409 62.8562L74.4098 62.067C74.4835 62.0249 74.5993 62.0249 74.673 62.067L76.0524 62.8562Z" fill="#4D4D4D"/>
<path d="M72.8303 63.2349L71.5035 64.0031C71.4193 64.0558 71.2824 64.0558 71.1982 64.0031L69.4186 62.9824C69.4186 62.9824 69.3555 62.9298 69.3555 62.8982V63.056C69.3555 63.056 69.3765 63.1192 69.4186 63.1402L71.1982 64.161C71.2824 64.2136 71.4193 64.2136 71.5035 64.161L72.8303 63.3928C72.8303 63.3928 72.8935 63.3402 72.8935 63.3086V63.1508C72.8935 63.1508 72.8724 63.2139 72.8303 63.2349Z" fill="#1F2125"/>
<path d="M72.8303 63.0666C72.9145 63.1192 72.9145 63.1929 72.8303 63.2455L71.5035 64.0137C71.4193 64.0663 71.2824 64.0663 71.1982 64.0137L69.4186 62.9929C69.3344 62.9403 69.3344 62.8666 69.4186 62.814L70.7454 62.0458C70.8296 61.9932 70.9665 61.9932 71.0508 62.0458L72.8303 63.0666Z" fill="#4D4D4D"/>
<path d="M84.7816 61.7302L83.4127 62.5194C83.339 62.5615 83.2232 62.5615 83.1495 62.5194L81.7806 61.7302C81.7806 61.7302 81.728 61.6775 81.728 61.6565V61.8143C81.728 61.8143 81.749 61.867 81.7806 61.888L83.1495 62.6773C83.2232 62.7194 83.3495 62.7194 83.4127 62.6773L84.7816 61.888C84.7816 61.888 84.8343 61.8354 84.8343 61.8143V61.6565C84.8343 61.6565 84.8132 61.7091 84.7816 61.7302Z" fill="#1F2125"/>
<path d="M84.7711 61.5723C84.8448 61.6144 84.8448 61.688 84.7711 61.7301L83.4022 62.5194C83.3285 62.5615 83.2127 62.5615 83.139 62.5194L81.7701 61.7301C81.6964 61.688 81.6964 61.6144 81.7701 61.5723L83.139 60.783C83.2127 60.7409 83.3285 60.7409 83.4022 60.783L84.7711 61.5723Z" fill="#4D4D4D"/>
<path d="M82.1702 62.288L80.8013 63.0773C80.7276 63.1194 80.6118 63.1194 80.5276 63.0773L79.1587 62.288C79.1587 62.288 79.106 62.2354 79.106 62.2144V62.3722C79.106 62.3722 79.1271 62.4248 79.1587 62.4459L80.5276 63.2351C80.6013 63.2772 80.7276 63.2772 80.8013 63.2351L82.1702 62.4459C82.1702 62.4459 82.2229 62.3933 82.2229 62.3722V62.2144C82.2229 62.2144 82.2018 62.267 82.1702 62.288Z" fill="#1F2125"/>
<path d="M82.1702 62.1406C82.2439 62.1827 82.2439 62.2564 82.1702 62.2985L80.8013 63.0878C80.7276 63.1298 80.6118 63.1298 80.5276 63.0878L79.1587 62.2985C79.085 62.2564 79.085 62.1827 79.1587 62.1406L80.5276 61.3514C80.6013 61.3093 80.7276 61.3093 80.8013 61.3514L82.1702 62.1406Z" fill="#4D4D4D"/>
<path d="M80.7066 63.5717L79.3377 64.361C79.264 64.4031 79.1376 64.4031 79.0639 64.361L77.695 63.5717C77.695 63.5717 77.6424 63.5191 77.6424 63.498V63.6559C77.6424 63.6559 77.6635 63.7085 77.695 63.7296L79.0639 64.5188C79.1376 64.5609 79.264 64.5609 79.3377 64.5188L80.7066 63.7296C80.7066 63.7296 80.7592 63.6769 80.7592 63.6559V63.498C80.7592 63.498 80.7382 63.5507 80.7066 63.5717Z" fill="#1F2125"/>
<path d="M80.7066 63.4138C80.7803 63.4559 80.7803 63.5296 80.7066 63.5717L79.3377 64.3609C79.264 64.403 79.1376 64.403 79.0639 64.3609L77.695 63.5717C77.6213 63.5296 77.6213 63.4559 77.695 63.4138L79.0639 62.6246C79.1376 62.5825 79.2535 62.5825 79.3377 62.6246L80.7066 63.4138Z" fill="#4D4D4D"/>
<path d="M77.9057 64.0768L76.5368 64.8661C76.4631 64.9082 76.3367 64.9082 76.263 64.8661L74.8941 64.0768C74.8941 64.0768 74.8415 64.0242 74.8415 64.0032V64.161C74.8415 64.161 74.8625 64.2136 74.8941 64.2347L76.263 65.0239C76.3367 65.066 76.4631 65.066 76.5368 65.0239L77.9057 64.2347C77.9057 64.2347 77.9583 64.1821 77.9583 64.161V64.0032C77.9583 64.0032 77.9372 64.0558 77.9057 64.0768Z" fill="#1F2125"/>
<path d="M77.9057 63.9295C77.9794 63.9716 77.9794 64.0452 77.9057 64.0873L76.5368 64.8766C76.4631 64.9187 76.3367 64.9187 76.263 64.8766L74.8941 64.0873C74.8204 64.0452 74.8204 63.9716 74.8941 63.9295L76.263 63.1402C76.3367 63.0981 76.4525 63.0981 76.5368 63.1402L77.9057 63.9295Z" fill="#4D4D4D"/>
<path d="M74.7467 64.3294L73.3884 65.1187C73.3147 65.1608 73.1883 65.1608 73.1146 65.1187L71.672 64.2873C71.672 64.2873 71.6194 64.2347 71.6194 64.2031V64.361C71.6194 64.361 71.6404 64.4136 71.672 64.4452L73.1146 65.2765C73.1883 65.3186 73.3147 65.3186 73.3884 65.2765L74.7467 64.4873C74.7467 64.4873 74.7994 64.4346 74.7994 64.4136V64.2557C74.7994 64.2557 74.7783 64.3084 74.7467 64.3294Z" fill="#1F2125"/>
<path d="M74.7467 64.1715C74.8204 64.2136 74.8204 64.2873 74.7467 64.3294L73.3884 65.1186C73.3147 65.1607 73.1883 65.1607 73.1146 65.1186L71.672 64.2873C71.5983 64.2452 71.5983 64.1715 71.672 64.1294L73.0304 63.3402C73.1041 63.2981 73.2304 63.2981 73.3041 63.3402L74.7467 64.1715Z" fill="#4D4D4D"/>
<path d="M75.905 65.8658L75.2627 66.2447C75.21 66.2762 75.1153 66.2762 75.0626 66.2447L73.5463 65.3712C73.5463 65.3712 73.5042 65.3291 73.5042 65.3186V65.4765C73.5042 65.4765 73.5147 65.5185 73.5463 65.5291L75.0626 66.4025C75.1153 66.4341 75.21 66.4341 75.2627 66.4025L75.905 66.0237C75.905 66.0237 75.9471 65.9921 75.9471 65.9711V65.8132C75.9471 65.8132 75.9366 65.8553 75.905 65.8658Z" fill="#1F2125"/>
<path d="M75.9051 65.7501C75.9578 65.7817 75.9578 65.8343 75.9051 65.8659L75.2628 66.2447C75.2101 66.2763 75.1154 66.2763 75.0627 66.2447L73.5464 65.3713C73.4938 65.3397 73.4938 65.2871 73.5464 65.2555L74.1888 64.8767C74.2414 64.8451 74.3256 64.8451 74.3888 64.8767L75.9051 65.7501Z" fill="#4D4D4D"/>
<path d="M89.0778 62.6351L88.1511 63.1718C88.0985 63.2034 88.0142 63.2034 87.9511 63.1718L86.8665 62.5404C86.8665 62.5404 86.8244 62.5088 86.8244 62.4878V62.6456C86.8244 62.6456 86.8349 62.6877 86.8665 62.6983L87.9511 63.3297C88.0037 63.3612 88.0985 63.3612 88.1511 63.3297L89.0778 62.793C89.0778 62.793 89.1199 62.7614 89.1199 62.7404V62.5825C89.1199 62.5825 89.1093 62.6246 89.0778 62.6351Z" fill="#1F2125"/>
<path d="M89.0779 62.5193C89.1305 62.5509 89.1305 62.6035 89.0779 62.6351L88.1512 63.1718C88.0986 63.2034 88.0144 63.2034 87.9512 63.1718L86.8666 62.5404C86.814 62.5088 86.814 62.4562 86.8666 62.4246L87.7932 61.8879C87.8459 61.8564 87.9407 61.8564 87.9933 61.8879L89.0779 62.5193Z" fill="#4D4D4D"/>
<path d="M87.6773 63.4454L86.3927 64.1926C86.2979 64.2452 86.1399 64.2452 86.0452 64.1926L83.6444 62.8035C83.6444 62.8035 83.5707 62.7403 83.5707 62.6982V62.8561C83.5707 62.8561 83.5917 62.9298 83.6444 62.9613L86.0452 64.3504C86.1399 64.403 86.2979 64.403 86.3927 64.3504L87.6773 63.6032C87.6773 63.6032 87.751 63.5401 87.751 63.5085V63.3507C87.751 63.3507 87.7299 63.4244 87.6773 63.4454Z" fill="#1F2125"/>
<path d="M87.6774 63.2454C87.7722 63.2981 87.7722 63.3928 87.6774 63.4454L86.3928 64.1925C86.298 64.2452 86.1401 64.2452 86.0453 64.1925L83.6445 62.8035C83.5497 62.7508 83.5497 62.6561 83.6445 62.6035L84.9291 61.8564C85.0239 61.8037 85.1819 61.8037 85.2766 61.8564L87.6774 63.2454Z" fill="#4D4D4D"/>
<path d="M84.0445 63.3718L82.6756 64.161C82.6019 64.2031 82.4861 64.2031 82.4019 64.161L81.033 63.3718C81.033 63.3718 80.9803 63.3191 80.9803 63.2981V63.4559C80.9803 63.4559 81.0014 63.5086 81.033 63.5296L82.4019 64.3189C82.4756 64.361 82.6019 64.361 82.6756 64.3189L84.0445 63.5296C84.0445 63.5296 84.0972 63.477 84.0972 63.4559V63.2981C84.0972 63.2981 84.0761 63.3507 84.0445 63.3718Z" fill="#1F2125"/>
<path d="M84.0445 63.2244C84.1182 63.2665 84.1182 63.3401 84.0445 63.3822L82.6756 64.1715C82.6019 64.2136 82.4861 64.2136 82.4019 64.1715L81.033 63.3822C80.9593 63.3401 80.9593 63.2665 81.033 63.2244L82.4019 62.4351C82.4756 62.393 82.6019 62.393 82.6756 62.4351L84.0445 63.2244Z" fill="#4D4D4D"/>
<path d="M82.5703 64.6452L81.2015 65.4344C81.1278 65.4765 81.0014 65.4765 80.9277 65.4344L79.5588 64.6452C79.5588 64.6452 79.5062 64.5926 79.5062 64.5715V64.7294C79.5062 64.7294 79.5272 64.782 79.5588 64.803L80.9277 65.5923C81.0014 65.6344 81.1278 65.6344 81.2015 65.5923L82.5703 64.803C82.5703 64.803 82.623 64.7504 82.623 64.7294V64.5715C82.623 64.5715 82.6019 64.6241 82.5703 64.6452Z" fill="#1F2125"/>
<path d="M82.5704 64.4873C82.6441 64.5294 82.6441 64.6031 82.5704 64.6452L81.2015 65.4344C81.1278 65.4765 81.0014 65.4765 80.9277 65.4344L79.5588 64.6452C79.4851 64.6031 79.4851 64.5294 79.5588 64.4873L80.9277 63.6981C81.0014 63.656 81.1172 63.656 81.2015 63.6981L82.5704 64.4873Z" fill="#4D4D4D"/>
<path d="M85.9293 64.4557L84.5605 65.245C84.4868 65.2871 84.3709 65.2871 84.2867 65.245L82.9178 64.4557C82.9178 64.4557 82.8652 64.4031 82.8652 64.3821V64.5399C82.8652 64.5399 82.8862 64.5925 82.9178 64.6136L84.2867 65.4028C84.3604 65.4449 84.4868 65.4449 84.5605 65.4028L85.9293 64.6136C85.9293 64.6136 85.982 64.561 85.982 64.5399V64.3821C85.982 64.3821 85.9609 64.4347 85.9293 64.4557Z" fill="#1F2125"/>
<path d="M85.9293 64.3084C86.0031 64.3505 86.0031 64.4241 85.9293 64.4662L84.5605 65.2555C84.4868 65.2976 84.3709 65.2976 84.2867 65.2555L82.9178 64.4662C82.8441 64.4241 82.8441 64.3505 82.9178 64.3084L84.2867 63.5191C84.3604 63.477 84.4868 63.477 84.5605 63.5191L85.9293 64.3084Z" fill="#4D4D4D"/>
<path d="M84.1077 65.5187L82.7072 66.329C82.6441 66.3711 82.5388 66.3711 82.465 66.329L81.4226 65.7292C81.4226 65.7292 81.3699 65.6871 81.3699 65.6555V65.8134C81.3699 65.8134 81.391 65.866 81.4226 65.8871L82.465 66.4869C82.5282 66.529 82.6335 66.529 82.7072 66.4869L84.1077 65.6766C84.1077 65.6766 84.1603 65.6345 84.1603 65.6029V65.4451C84.1603 65.4451 84.1393 65.4977 84.1077 65.5187Z" fill="#1F2125"/>
<path d="M84.1073 65.3819C84.1705 65.424 84.1705 65.4766 84.1073 65.5187L82.7068 66.329C82.6437 66.3711 82.5384 66.3711 82.4647 66.329L81.4222 65.7292C81.359 65.6871 81.359 65.6239 81.4222 65.5924L82.8227 64.7821C82.8858 64.74 82.9912 64.74 83.0649 64.7821L84.1073 65.3819Z" fill="#4D4D4D"/>
<path d="M82.1807 66.6341L80.9698 67.3392C80.854 67.4023 80.6645 67.4023 80.5381 67.3392L76.8106 65.1924C76.7474 65.1609 76.7263 65.1083 76.7263 65.0662V65.224C76.7263 65.224 76.7579 65.3187 76.8106 65.3503L80.5381 67.4971C80.6539 67.5602 80.8435 67.5602 80.9698 67.4971L82.1807 66.792C82.2439 66.7604 82.265 66.7183 82.265 66.6657V66.5079C82.265 66.5079 82.2334 66.592 82.1807 66.6341Z" fill="#1F2125"/>
<path d="M82.1807 66.3921C82.2966 66.4553 82.2966 66.571 82.1807 66.6342L80.9698 67.3392C80.854 67.4024 80.6645 67.4024 80.5381 67.3392L76.8106 65.1925C76.6947 65.1293 76.6947 65.0136 76.8106 64.9504L78.0215 64.2454C78.1373 64.1822 78.3268 64.1822 78.4532 64.2454L82.1807 66.3921Z" fill="#4D4D4D"/>
<path d="M78.5901 66.5499L77.2317 67.3391C77.158 67.3812 77.0317 67.3812 76.958 67.3391L75.5154 66.5078C75.5154 66.5078 75.4627 66.4552 75.4627 66.4236V66.5814C75.4627 66.5814 75.4838 66.6446 75.5154 66.6656L76.958 67.497C77.0317 67.5391 77.158 67.5391 77.2317 67.497L78.5901 66.7077C78.5901 66.7077 78.6427 66.6551 78.6427 66.6341V66.4762C78.6427 66.4762 78.6217 66.5288 78.5901 66.5499Z" fill="#1F2125"/>
<path d="M78.5901 66.3815C78.6638 66.4236 78.6638 66.4972 78.5901 66.5393L77.2317 67.3286C77.158 67.3707 77.0317 67.3707 76.958 67.3286L75.5154 66.4972C75.4417 66.4551 75.4417 66.3815 75.5154 66.3394L76.8737 65.5501C76.9474 65.508 77.0738 65.508 77.1475 65.5501L78.5901 66.3815Z" fill="#4D4D4D"/>
<path d="M79.7168 68.065L79.0745 68.4439C79.0218 68.4754 78.927 68.4754 78.8744 68.4439L77.3581 67.5704C77.3581 67.5704 77.316 67.5389 77.316 67.5178V67.6757C77.316 67.6757 77.3265 67.7178 77.3581 67.7283L78.8744 68.6017C78.927 68.6333 79.0218 68.6333 79.0745 68.6017L79.7168 68.2229C79.7168 68.2229 79.7589 68.1913 79.7589 68.1703V68.0124C79.7589 68.0124 79.7484 68.0545 79.7168 68.065Z" fill="#1F2125"/>
<path d="M79.7169 67.9494C79.7695 67.9809 79.7695 68.0335 79.7169 68.0651L79.0746 68.444C79.0219 68.4755 78.9272 68.4755 78.8745 68.444L77.3582 67.5705C77.3056 67.5389 77.3056 67.4863 77.3582 67.4548L78.0005 67.0759C78.0532 67.0444 78.148 67.0444 78.2006 67.0759L79.7169 67.9494Z" fill="#4D4D4D"/>
<path d="M39.5035 149.411L11.9997 133.542C10.4624 132.658 10.6624 131.111 12.4314 130.09L49.9807 108.454C51.7497 107.433 54.4242 107.317 55.9616 108.201L83.4654 124.071C84.9922 124.955 84.8027 126.501 83.0337 127.522L45.4844 149.158C43.7154 150.179 41.0409 150.295 39.5035 149.411Z" fill="#F2F2F2"/>
<path d="M38.4821 124.091L50.9704 131.342C50.7599 131.216 50.4755 131.237 50.1597 131.426L37.6713 124.176C37.9872 123.997 38.2821 123.976 38.4821 124.091Z" fill="#7981F2"/>
<path d="M38.8823 137.93L26.4045 130.669L37.6713 124.176L50.1491 131.426L38.8823 137.93Z" fill="#7981F2"/>
<path d="M38.082 140.624L25.5937 133.373C25.3936 133.257 25.2567 133.005 25.2567 132.636C25.2567 131.91 25.7621 131.026 26.3939 130.668L38.8823 137.919C38.2505 138.287 37.745 139.161 37.745 139.887C37.745 140.245 37.8714 140.497 38.082 140.624Z" fill="#525ACC"/>
<path d="M50.1491 131.426C50.7809 131.058 51.2969 131.353 51.2969 132.079C51.2969 132.805 50.7914 133.689 50.1597 134.046L38.8928 140.55C38.261 140.918 37.745 140.624 37.745 139.897C37.745 139.171 38.2505 138.287 38.8823 137.93L50.1491 131.426Z" fill="#2A33B8"/>
<path d="M46.3795 129.648C46.2531 129.564 46.0636 129.585 45.8635 129.7L41.8095 132.037L38.5979 133.889L30.5532 129.216L37.8187 125.028C38.0188 124.912 38.2083 124.902 38.3347 124.975L44.463 128.532L46.3795 129.648Z" fill="#7981F2"/>
<path d="M38.082 135.636L30.0372 130.963C29.9003 130.89 29.8266 130.721 29.8266 130.49C29.8266 130.027 30.1531 129.458 30.5637 129.216L38.6085 133.889C38.1978 134.12 37.8714 134.688 37.8714 135.162C37.8714 135.394 37.9556 135.562 38.082 135.636Z" fill="#525ACC"/>
<path d="M45.8635 129.7C46.2742 129.469 46.6006 129.648 46.6006 130.121C46.6006 130.595 46.2742 131.153 45.8635 131.395L38.5979 135.583C38.1873 135.814 37.8609 135.625 37.8609 135.162C37.8609 134.699 38.1873 134.131 38.5979 133.889L45.8635 129.7Z" fill="#2A33B8"/>
<path d="M38.9665 131.174L35.3653 129.08C35.5759 129.196 35.8497 129.217 36.155 129.101C36.9553 128.806 37.7345 127.743 37.8819 126.733L41.4831 128.827C41.3357 129.838 40.567 130.9 39.7562 131.195C39.4403 131.311 39.1666 131.3 38.9665 131.174Z" fill="#4D4D4D"/>
<path d="M38.5348 131.91L34.9336 129.816C34.4703 129.543 34.2281 128.901 34.3545 128.027L37.9556 130.121C37.8293 130.995 38.0715 131.637 38.5348 131.91Z" fill="#4D4D4D"/>
<path d="M41.4831 128.827L37.8714 126.733L41.1146 103.813L44.7263 105.907L41.4831 128.827Z" fill="#4D4D4D"/>
<path d="M40.7039 102.54L44.3051 104.634C44.6315 104.823 44.8105 105.286 44.7158 105.907L41.1146 103.813C41.1988 103.192 41.0303 102.729 40.7039 102.54Z" fill="#D9EFFF"/>
<path d="M41.1251 101.803L44.7263 103.897C44.4315 103.729 44.0524 103.708 43.6101 103.866L40.0089 101.772C40.4512 101.614 40.8303 101.635 41.1251 101.803Z" fill="#D9EFFF"/>
<path d="M37.9556 130.132L34.3544 128.038L37.5976 105.118L41.1988 107.212L37.9556 130.132Z" fill="#4D4D4D"/>
<path d="M41.1988 107.212L37.5976 105.118C37.7977 103.698 38.8823 102.193 40.0195 101.772L43.6207 103.866C42.4834 104.287 41.3989 105.792 41.1988 107.212Z" fill="#D9EFFF"/>
<path d="M43.6207 103.866C44.7579 103.445 45.516 104.266 45.316 105.686L42.0728 128.606C41.8727 130.027 40.7881 131.521 39.6509 131.942C38.5137 132.363 37.7556 131.553 37.9556 130.122L41.1988 107.202C41.3989 105.781 42.4834 104.276 43.6207 103.855V103.866ZM41.4726 128.827L44.7158 105.907C44.8632 104.897 44.3156 104.308 43.5154 104.613C42.7046 104.908 41.9359 105.981 41.7885 106.991L38.5453 129.911C38.3979 130.921 38.9349 131.5 39.7457 131.205C40.546 130.911 41.3252 129.848 41.4726 128.838V128.827Z" fill="#363339"/>
<path d="M55.2034 117.872C55.1508 118.651 55.1086 119.472 55.4772 120.156C55.8773 120.893 56.7092 121.324 57.5516 121.387C58.3834 121.45 59.2153 121.187 59.9629 120.808C60.7105 120.43 61.3844 119.924 62.0794 119.461C63.4272 118.567 64.8698 117.82 66.386 117.23C67.1337 116.936 67.9023 116.683 68.6394 116.389C69.187 116.168 69.745 115.915 70.2084 115.547C70.6717 115.178 71.0507 114.673 71.1771 114.094C71.2298 113.842 71.2298 113.568 71.135 113.326C70.9981 113.011 70.6927 112.779 70.3768 112.663C70.0504 112.537 69.7029 112.505 69.3554 112.463C67.3021 112.211 65.2699 111.643 63.2061 111.758C61.0685 111.864 59.0363 112.695 57.1093 113.621C56.4354 113.947 55.6141 114.421 55.4035 115.21C55.1718 116.031 55.2561 117.041 55.2034 117.883V117.872Z" fill="#2A33B8"/>
<path d="M51.1284 95.447C51.2863 96.9203 51.5917 98.362 51.8971 99.8142C52.9922 105.086 54.0978 110.369 55.1929 115.641C55.235 115.82 55.2877 116.031 55.4561 116.115C55.5614 116.167 55.6878 116.157 55.8036 116.136C58.2044 115.789 60.4999 114.799 62.3847 113.284C62.5532 113.147 62.7112 113.01 62.8165 112.832C62.9744 112.537 62.9639 112.179 62.9428 111.853C62.6585 107.696 62.5111 103.497 61.8898 99.3932C61.3318 95.6785 60.9843 91.9111 59.8997 88.3016C59.7102 87.6808 59.4785 87.0599 59.2679 86.439C59.1416 86.0602 59.0152 85.6708 58.8467 85.3025C58.4255 84.3448 57.7306 83.4819 56.8145 82.9768C55.8984 82.4717 54.7401 82.3559 53.7924 82.7979C53.1291 83.1031 52.6131 83.8608 52.2761 84.4922C51.855 85.2709 51.6022 86.1338 51.4022 86.9967C50.7809 89.7433 50.8125 92.6793 51.1179 95.468L51.1284 95.447Z" fill="#333333"/>
<path d="M61.4055 121.45C61.3528 122.334 61.3633 123.229 61.7214 124.06C62.1004 124.944 63.522 125.291 64.3854 125.333C65.5331 125.386 66.2702 124.66 67.1547 124.049C67.9655 123.481 68.9237 123.187 69.8925 123.018C70.8191 122.85 71.7563 122.902 72.6829 122.692C75.3785 122.082 78.4005 119.724 77.9267 116.673C77.7372 115.462 76.4841 115.399 75.5049 115.273C74.2518 115.105 72.9777 115.168 71.7141 115.283C70.4295 115.399 69.1554 115.589 67.8813 115.82C67.26 115.936 66.6282 116.052 66.028 116.199C65.47 116.336 64.9224 116.662 64.4065 116.904C64.1432 117.03 63.7536 117.388 63.4588 117.388C63.3324 117.388 62.7322 116.988 62.8165 116.841C61.9741 118.23 61.5002 119.83 61.4055 121.45Z" fill="#7981F2"/>
<path d="M61.8267 118.546C61.8477 118.641 61.8688 118.725 61.9109 118.788C62.1847 119.261 63.2377 119.209 63.6904 119.188C65.4173 119.114 67.239 118.609 68.3657 117.294C68.7763 116.809 69.1343 116.136 69.0817 115.494C69.0606 115.294 69.0396 115.105 69.0185 114.905C68.9553 114.221 68.9132 113.526 68.8606 112.842C68.6815 110.148 68.5236 107.465 68.3657 104.771C68.2393 102.603 68.134 100.435 67.955 98.2778C67.7233 95.426 67.5022 92.5531 66.8915 89.7434C66.7651 89.1541 66.6177 88.5543 66.3229 88.0386C65.3331 86.3128 63.2798 86.9231 61.9214 87.8597C61.0159 88.4911 60.3314 89.2698 59.8681 90.2801C59.0994 91.9533 59.3943 93.595 59.4785 95.3629C59.5522 96.9098 59.2995 98.4673 59.31 100.025C59.31 103.992 59.9418 107.928 60.6473 111.832C60.9422 113.442 61.2475 115.042 61.5318 116.652C61.6055 117.052 61.6792 117.451 61.7424 117.862C61.774 118.051 61.774 118.335 61.8161 118.567L61.8267 118.546Z" fill="#424242"/>
<path d="M34.8704 90.8167C34.565 90.6378 34.1649 90.6062 33.7121 90.743L14.569 96.8045L35.776 109.117L54.9191 103.055C55.3719 102.908 55.772 102.95 56.0774 103.129L34.8704 90.8167Z" fill="#7981F2"/>
<path d="M33.5647 115.01L12.3577 102.697C11.7996 102.371 11.5364 101.582 11.7154 100.519C11.9997 98.8775 13.2738 97.2148 14.5584 96.8149L35.7654 109.127C34.4808 109.538 33.2067 111.19 32.9224 112.832C32.7329 113.894 33.0066 114.684 33.5647 115.01Z" fill="#525ACC"/>
<path d="M54.9191 103.066C56.2038 102.666 57.0145 103.666 56.7197 105.307C56.4354 106.949 55.1508 108.612 53.8767 109.022L34.7335 115.083C33.4489 115.494 32.6381 114.484 32.9329 112.842C33.2172 111.2 34.4913 109.538 35.776 109.138L54.9191 103.076V103.066Z" fill="#2A33B8"/>
<path d="M19.0441 91.406C18.9388 92.4899 18.9494 93.5949 19.1073 94.6788C19.3811 96.5204 20.2235 97.8989 21.8556 98.8566C23.7088 99.9405 25.9517 100.161 28.0998 100.14C34.2807 100.056 40.2722 98.0989 46.0425 95.8679C48.5697 94.8892 51.0863 93.8474 53.466 92.5425C54.6453 91.9006 55.8036 91.185 56.8987 90.3958C57.3304 90.0801 57.8991 89.7959 58.1412 89.3119C58.4466 88.6805 58.6256 87.9123 58.752 87.2282C59.0468 85.5761 58.573 84.1238 57.2041 83.0926C56.2775 82.398 55.1192 82.0613 53.982 81.8087C51.7075 81.3036 49.3805 81.03 47.0534 80.9984C44.5262 80.9668 42.0096 81.2089 39.493 81.3983C35.3864 81.7035 31.2692 81.8613 27.1626 81.8613C25.7516 81.8613 24.4459 82.2507 23.1823 81.3562C23.056 81.272 22.9296 81.1668 22.7717 81.1878C22.5821 81.2089 22.4663 81.4088 22.3821 81.5877C21.2765 83.9239 20.1708 86.2811 19.5285 88.7752C19.3074 89.6381 19.1389 90.522 19.0547 91.4165L19.0441 91.406Z" fill="#333333"/>
<path d="M70.8296 55.8477C70.5664 55.6056 70.2926 55.3636 70.0294 55.1321C69.9662 55.0795 69.9135 55.0269 69.8398 54.9953C69.7556 54.9532 69.6608 54.9321 69.5661 54.9111C67.2179 54.4691 64.8066 54.627 62.4163 54.8059C62.1952 54.8269 61.9741 54.8374 61.7635 54.9006C60.7421 55.2163 59.9418 56.0792 58.8678 56.2581C56.7934 56.6054 38.4505 58.6259 36.1235 59.0889C36.0287 59.1099 35.9339 59.131 35.8707 59.2046C35.797 59.2993 35.8286 59.4361 35.8707 59.5414C36.0919 60.2991 36.3446 61.0357 36.7237 61.7197C37.0817 62.3722 37.1133 63.3087 37.0711 64.0349C37.0711 64.1401 37.0711 64.2558 37.1343 64.319C37.187 64.3716 37.2712 64.3926 37.3449 64.3926C39.0613 64.6136 40.7987 64.6663 42.5361 64.6031C42.515 64.7399 42.5045 64.8662 42.4729 65.003C45.495 64.8978 48.3591 63.7086 51.1179 62.4564C53.4028 61.4145 55.6983 60.3306 58.1202 59.7413C58.236 59.7624 58.3518 59.7624 58.4677 59.7939C59.0784 59.9413 59.6365 60.278 60.2472 60.3833C61.7424 60.6463 63.1534 59.4888 64.6802 59.4677C65.133 59.4677 65.5858 59.5624 66.0386 59.5098C66.4492 59.4572 66.8388 59.2888 67.2284 59.1204C67.3232 59.0784 67.418 59.0363 67.4706 58.9415C67.5654 58.7732 67.439 58.5627 67.2916 58.447C66.7651 58.0155 66.007 58.0786 65.3226 58.1523C64.6381 58.226 63.8694 58.247 63.3851 57.7629C63.3219 57.6998 63.2692 57.6261 63.2587 57.5419C63.2377 57.321 63.4904 57.1947 63.701 57.1315C64.9961 56.7316 66.3124 56.3318 67.6707 56.3107C68.7237 56.3002 69.8082 56.5107 70.8296 56.216C70.8718 56.2055 70.9244 56.1844 70.956 56.1529C71.0297 56.0581 70.9349 55.9213 70.8402 55.8372L70.8296 55.8477Z" fill="#FFB78C"/>
<path d="M22.0451 94.5524C22.161 96.1836 22.5611 97.7831 23.3508 99.1933C24.6986 101.614 26.9309 103.529 29.4686 104.613C33.5226 106.349 38.1452 106.223 42.4729 105.349C50.4334 103.729 57.8148 99.6563 63.7536 94.1315C64.7961 93.1634 65.828 92.1005 66.3229 90.764C66.8178 89.4276 66.6388 87.7438 65.5542 86.8283C64.7118 86.1232 63.522 86.0075 62.4269 86.0075C58.3834 86.0075 54.4347 87.1124 50.4755 87.9227C49.4436 88.1332 48.4117 88.3226 47.3798 88.5015C46.8638 88.5857 46.3479 88.6699 45.8214 88.7436C45.1475 88.8488 45.0001 89.0066 44.7684 88.3542C44.0734 86.3758 43.4943 84.4079 42.6098 82.4927C42.2413 83.3556 41.3146 83.8186 40.4407 84.1554C37.745 85.1867 34.8704 85.6286 32.0063 85.7865C30.5532 85.8707 29.1001 85.8707 27.6575 85.8496C27.11 85.8496 26.4887 85.9549 26.0464 85.576C25.8464 85.4076 25.2041 84.3658 25.4568 84.1027C23.93 85.6286 22.9402 87.6386 22.4558 89.7433C22.0978 91.2797 21.9293 92.9213 22.0451 94.5314V94.5524Z" fill="#424242"/>
<path d="M19.339 50.0912C18.5282 50.3648 17.9701 51.1225 17.6016 51.9012C16.7802 53.6165 16.5907 55.5633 16.6118 57.4575C16.6433 61.8352 17.6963 66.213 19.6549 70.1382C20.3814 71.6009 21.2449 73.0111 21.7082 74.579C22.8243 78.3674 21.487 82.3768 20.3709 86.1652C20.2761 86.4915 20.1814 86.8387 20.2129 87.1755C20.2551 87.5543 20.4551 87.9016 20.6657 88.2173C23.1402 91.8794 27.7944 93.4685 32.2064 93.721C35.5759 93.9104 38.9875 93.4579 42.1886 92.3846C42.8625 92.153 43.5891 91.8584 43.926 91.227C44.2314 90.6482 44.1261 89.9537 44.0208 89.3117C42.9468 82.7662 42.2623 76.0839 43.1047 69.5068C43.21 68.686 43.3364 67.8546 43.2626 67.0338C43.1784 66.0551 42.7993 65.1185 42.3255 64.2661C41.4515 62.6876 40.2301 61.3301 38.956 60.0357C35.8707 56.8998 32.238 53.4692 28.3103 51.4066C25.7305 54.7425 22.4347 49.0283 19.3284 50.0807L19.339 50.0912Z" fill="#D9D9D9"/>
<path d="M32.1116 44.6192C31.3324 44.777 30.5216 44.5666 29.774 44.314C28.3735 43.8404 27.0362 43.209 25.7832 42.4198C25.1198 42.0094 24.488 41.5464 23.7825 41.2307C23.3403 41.0307 22.7506 40.7887 22.2557 40.8413C21.8872 40.8834 21.7292 41.1675 21.5608 41.4727C21.0869 42.3356 20.9395 43.3353 20.8447 44.293C20.7078 45.5663 20.6552 46.8501 20.592 48.134C20.5499 48.9759 20.5078 49.8072 20.4762 50.6491C20.4341 51.4594 20.2551 52.0802 20.8447 52.7116C21.9188 53.8587 23.3719 54.6374 24.9092 54.9952C26.4466 55.353 28.0682 55.2899 29.595 54.911C30.1425 54.7742 30.6796 54.6059 31.1639 54.3322C31.4798 54.1533 31.7641 53.9218 32.0168 53.6693C32.3538 53.3325 32.2485 53.0484 32.2064 52.5959C32.1327 51.7119 32.0695 50.8174 32.0274 49.9335C31.9852 49.0495 31.9642 48.155 31.9747 47.2711C31.9747 47.0185 31.9537 44.6402 32.1116 44.6087V44.6192Z" fill="#FFB78C"/>
<path d="M35.8286 35.0008C35.955 35.2429 36.0919 35.4954 36.1445 35.7691C36.2288 36.1795 36.1445 36.6109 36.2287 37.0213C36.4709 38.0842 37.8187 38.5262 38.2399 39.5364C37.5239 39.9573 37.0395 40.7045 36.7763 41.4832C36.5025 42.2725 36.4288 43.1038 36.3446 43.9247C36.2498 44.9454 36.1445 45.9767 36.0497 46.9975C35.1021 47.25 34.1649 47.4921 33.2172 47.7446C32.3433 47.9761 31.385 48.1971 30.5637 47.8183C29.7003 47.4079 29.1738 46.3871 28.2472 46.1661C27.9313 46.0925 27.5943 46.124 27.2679 46.1661C25.8464 46.3345 24.5302 46.4924 23.1086 46.2608C21.8872 46.0609 20.8026 45.64 19.7496 44.9454C18.8757 44.3666 18.107 43.5984 17.6331 42.6619C17.212 41.841 17.0329 40.9255 16.8855 40.01C16.4749 37.3581 16.9277 34.7799 18.4545 32.5279C20.234 29.9075 22.9823 28.4237 26.1307 28.2238C27.647 28.1291 29.1948 28.2975 30.5953 28.8657C31.4482 29.213 32.2485 29.7076 32.9224 30.3495C33.6595 31.0546 33.9333 31.8544 34.4703 32.6857C34.9652 33.4329 35.418 34.2116 35.8497 35.0008H35.8286Z" fill="#FFE5CC"/>
<path d="M27.1942 27.9501C24.8987 27.866 22.6032 28.6657 20.771 30.0548C19.7496 30.823 18.8651 31.7806 18.1596 32.854C16.9066 34.7693 16.2643 37.0318 15.9905 39.3048C15.8115 40.8202 15.801 42.3566 15.822 43.8825C15.822 44.6612 15.9063 45.4715 15.8431 46.2503C15.7904 46.9132 15.9905 47.1763 16.5065 47.6288C18.5914 49.4704 21.1922 50.7543 23.9405 51.1647C26.6888 51.5751 29.595 51.0805 31.9852 49.6598C32.08 49.6072 32.1748 49.5441 32.238 49.4599C32.3117 49.3547 32.3327 49.2179 32.3433 49.081C32.4275 48.3444 32.6065 47.4815 32.0379 46.9343C31.4588 46.3871 30.6795 46.345 30.0583 45.8925C29.3107 45.3558 29.1527 44.1666 29.7424 43.4511C30.2162 42.8828 30.9849 42.6828 31.6904 42.4303C31.9221 42.3461 32.1537 42.2514 32.3327 42.083C32.8382 41.5989 32.8066 40.8202 32.8697 40.1783C32.9645 39.3469 33.0593 38.5156 33.154 37.6842C33.312 36.232 33.491 34.7798 33.6384 33.3276C33.7437 32.3594 33.6384 30.9282 32.8592 30.2337C32.1958 29.6444 31.4061 29.1708 30.6058 28.792C29.5423 28.2764 28.363 27.9922 27.1837 27.9501H27.1942Z" fill="#733118"/>
<path d="M74.9363 57.7839C74.7994 57.5524 74.4835 57.5209 74.2308 57.4577C73.6832 57.3104 73.241 56.9 72.7039 56.7106C72.4512 56.6264 72.1774 56.5948 71.9353 56.479C71.6404 56.3317 71.4193 56.0686 71.135 55.9213C70.798 55.7529 70.3874 55.7529 70.0083 55.7845C68.5026 55.8897 67.0284 56.3107 65.6806 56.9947C64.059 57.826 63.3114 59.6045 62.1215 60.9094C61.595 61.4882 53.445 67.8022 53.0659 68.0547C52.6868 68.3073 52.3814 68.1389 51.9813 67.9811C51.5391 67.8022 42.6098 61.4145 38.082 59.2783C37.1448 58.8363 36.1129 58.468 35.081 58.5942C33.8806 58.7311 33.3225 59.4782 32.8171 60.4569C32.259 61.5513 32.1327 62.8246 32.2906 64.0664C32.3643 64.6031 32.4801 65.1293 32.6381 65.6344C32.954 66.6236 33.8911 67.5391 34.5966 68.2652C37.745 71.559 41.957 73.6953 46.2952 75.1054C48.0537 75.6737 49.8648 76.1472 51.7075 76.1788C52.1393 76.1788 52.5815 76.1788 52.9922 76.0209C54.2136 75.5684 55.3824 74.5898 56.3933 73.7795C57.5095 72.885 58.5624 71.9063 59.5522 70.8645C61.4476 68.8861 63.1218 66.7078 64.7539 64.5084C64.9856 64.1927 65.1962 63.8033 65.4805 63.5192C65.7332 63.2666 66.1018 63.214 66.4492 63.0982C67.2074 62.8562 67.9655 62.6247 68.6816 62.2564C69.366 61.9091 69.9872 61.4461 70.6296 61.0251C71.3982 60.52 72.188 60.0675 73.0093 59.6571C73.6411 59.3414 74.315 59.0468 74.7783 58.4995C74.9468 58.2891 75.0837 57.9944 74.9573 57.7629L74.9363 57.7839Z" fill="#FFE5CC"/>
<path d="M31.4272 62.6456C31.2376 67.1286 35.955 70.2751 39.2087 72.5692C40.4828 73.4742 41.799 74.3897 43.2942 74.8422C43.4311 74.8843 43.568 74.9159 43.7049 74.9054C43.8628 74.8843 43.9997 74.7896 44.1366 74.6949C45.516 73.6952 46.7691 72.485 47.6852 71.0433C48.6012 69.6016 49.1909 67.9284 49.212 66.2236C49.212 66.0868 46.7585 64.0663 46.232 63.6348C43.3153 61.246 40.1353 58.9204 36.4288 58.2784C35.5864 58.1311 34.6809 58.0785 33.8806 58.3942C32.954 58.7625 32.2696 59.5939 31.8905 60.5199C31.6062 61.2039 31.4588 61.9195 31.4272 62.6456Z" fill="#F2F2F2"/>
<path d="M95.0692 73.5584L88.5513 69.8016C87.909 69.4227 87.9827 68.7703 88.7303 68.3388L98.4703 62.7193C99.2179 62.2879 100.345 62.2458 100.997 62.6141L107.515 66.3709C108.158 66.7498 108.084 67.4022 107.336 67.8337L97.5964 73.4532C96.8487 73.8846 95.7221 73.9267 95.0692 73.5584Z" fill="#595959"/>
<path d="M96.0063 70.9803L92.7316 69.0861C92.5947 69.0019 92.6158 68.8651 92.7737 68.7704L98.4809 65.4766C98.6388 65.3819 98.881 65.3713 99.0179 65.4555L102.293 67.3497C102.43 67.4339 102.419 67.5707 102.251 67.6654L96.5434 70.9592C96.3854 71.054 96.1432 71.0645 96.0063 70.9803Z" fill="#333333"/>
<path d="M96.4802 70.1487C96.4802 70.1487 99.2495 68.6333 101.545 67.1075L98.8705 66.9917L97.0909 67.4232L96.417 68.3387L96.4802 70.1592V70.1487Z" fill="#747474"/>
<path d="M101.556 67.0865C101.608 66.9812 101.377 66.7708 101.313 66.7076C100.555 65.8973 99.2811 65.4027 98.1755 65.55C97.2594 65.6763 96.4275 66.1288 95.722 66.7076C95.164 67.1601 94.6585 67.6863 94.2163 68.2545C94.1426 68.3493 94.0689 68.444 94.0057 68.5387C94.0057 68.5492 93.932 68.6229 93.932 68.6439C93.932 68.6439 94.2584 70.1698 96.4697 70.1488C97.0383 69.6121 97.6701 69.128 98.3124 68.686C99.1548 68.0967 100.06 67.5811 101.04 67.2338C101.198 67.1812 101.345 67.1285 101.513 67.1075C101.545 67.1075 101.556 67.097 101.566 67.0759L101.556 67.0865Z" fill="url(#paint0_linear_249_1572)"/>
<path d="M109.979 63.6346L95.7852 55.458L98.0912 54.132C98.4598 53.9216 98.5019 53.5954 98.1755 53.4165L84.9501 45.8186C84.6342 45.6397 84.0761 45.6607 83.7076 45.8712L81.4226 47.1866L67.955 39.4204C67.7655 39.3151 67.439 39.3257 67.2284 39.452L66.7546 39.7256C66.5335 39.8518 66.5124 40.0413 66.702 40.1465L80.1696 47.9127L76.1577 50.2279C75.7892 50.4383 75.747 50.7646 76.0735 50.9435L89.2989 58.5413C89.6148 58.7202 90.1728 58.6992 90.5414 58.4887L94.5427 56.1841L108.737 64.3608C108.926 64.466 109.253 64.4555 109.463 64.3292L109.937 64.0556C110.158 63.9293 110.179 63.7399 109.99 63.6346H109.979Z" fill="#D9D9D9"/>
<path d="M96.6803 52.0694L96.5539 52.7114L96.2275 53.3322L95.4799 53.8794L94.9428 54.2688L92.521 55.6263L89.4252 57.5731L77.6003 50.7435C77.6003 50.7435 77.5476 50.6803 77.5476 50.6172C77.5476 50.4909 77.6424 50.3226 77.7582 50.2594L83.4654 46.9551L83.7181 46.8077C84.0235 46.6289 84.3288 46.3026 84.5078 45.9133C84.6868 45.5239 84.7395 45.1451 84.6342 44.8715L81.3278 35.3583L81.7174 34.9795L93.5424 41.8092L93.5003 42.7036L94.8586 46.3552L95.9221 49.4807L96.596 51.2802L96.6487 52.08L96.6803 52.0694Z" fill="#CCCCCC"/>
<path d="M95.4904 53.8795L94.9534 54.2688L92.5315 55.6263L89.4358 57.5732L77.6108 50.7435C77.6108 50.7435 77.5582 50.6803 77.5582 50.6172C77.5582 50.4909 77.6529 50.3226 77.7688 50.2594L83.4759 46.9551L95.4799 53.8795H95.4904Z" fill="#E6E6E6"/>
<path d="M95.5536 54.1109L89.5937 57.5521C89.4779 57.6152 89.3831 57.5626 89.3831 57.4363C89.3831 57.31 89.4779 57.1416 89.5937 57.0785L95.5641 53.6268C95.8695 53.4479 96.1748 53.1217 96.3538 52.7324C96.5328 52.343 96.5855 51.9641 96.4802 51.6905L93.1738 42.1774L93.5634 41.7986L96.8698 51.3117C97.0067 51.7011 96.9435 52.2272 96.7013 52.7744C96.4381 53.3532 96.0064 53.8478 95.543 54.1109H95.5536Z" fill="#A6A6A6"/>
<path d="M109 23.488L68.5025 0.126159C68.2498 -0.0211681 68.0076 -0.0316914 67.8392 0.0630188L67.0284 0.53657C67.1969 0.44186 67.4285 0.452383 67.6918 0.59971L108.179 23.9616C108.684 24.2562 109.105 24.9718 109.095 25.5611L109.011 56.6261C109.011 56.9208 108.905 57.1207 108.737 57.2154L109.548 56.7419C109.716 56.6471 109.821 56.4367 109.821 56.1525L109.906 25.0876C109.906 24.4983 109.495 23.7827 108.99 23.488H109Z" fill="#595959"/>
<path d="M109.842 50.7014L109.821 56.142C109.821 56.4366 109.716 56.6366 109.548 56.7313L108.737 57.2049C108.905 57.1101 109.011 56.8997 109.011 56.6155L109.032 51.1644L109.842 50.7014Z" fill="#BFBFBF"/>
<path d="M109.105 25.5506L109.021 56.6155C109.021 57.2048 108.6 57.4364 108.095 57.1417L67.6075 33.7798C67.0916 33.4852 66.6809 32.7696 66.6809 32.1803L66.7651 1.11532C66.7651 0.52601 67.1863 0.294496 67.6918 0.58915L108.179 23.951C108.695 24.2457 109.105 24.9613 109.095 25.54L109.105 25.5506Z" fill="#333333"/>
<path d="M109.032 51.175L109.011 56.6156C109.011 57.2049 108.589 57.4364 108.084 57.1417L67.597 33.7799C67.081 33.4852 66.6704 32.7696 66.6704 32.1803L66.6914 26.7397L109.032 51.175Z" fill="#D9D9D9"/>
<path d="M107.989 48.7547L68.1551 25.698V2.66235L107.989 25.7085V48.7547Z" fill="#1A1A1A"/>
<path d="M72.5986 8.48164L71.5246 7.86076C71.3561 7.76605 71.2087 7.49244 71.2087 7.26093C71.2087 7.02941 71.3456 6.92418 71.5246 7.02941L72.5986 7.65029C72.7671 7.745 72.9145 8.01861 72.9145 8.25012C72.9145 8.48164 72.7776 8.58687 72.5986 8.48164Z" fill="#006EFF"/>
<path d="M72.5986 23.0566L71.5246 22.4357C71.3561 22.341 71.2087 22.0674 71.2087 21.8359C71.2087 21.6044 71.3456 21.4991 71.5246 21.6044L72.5986 22.2252C72.7671 22.32 72.9145 22.5936 72.9145 22.8251C72.9145 23.0566 72.7776 23.1618 72.5986 23.0566Z" fill="#006EFF"/>
<path d="M75.6102 24.7929L73.4621 23.5512C73.2936 23.4565 73.1462 23.1829 73.1462 22.9514C73.1462 22.7198 73.2831 22.6146 73.4621 22.7198L75.6102 23.9616C75.7786 24.0563 75.926 24.3299 75.926 24.5614C75.926 24.7929 75.7892 24.8982 75.6102 24.7929Z" fill="#B3D4FF"/>
<path d="M83.3601 29.2653L76.5052 25.3085C76.3367 25.2138 76.1893 24.9402 76.1893 24.7087C76.1893 24.4772 76.3262 24.3719 76.5052 24.4772L83.3601 28.434C83.5286 28.5287 83.676 28.8023 83.676 29.0338C83.676 29.2653 83.5391 29.3705 83.3601 29.2653Z" fill="#FFAD66"/>
<path d="M76.8316 10.9231L73.5779 9.04997C73.4094 8.95526 73.262 8.68165 73.262 8.45014C73.262 8.21862 73.3989 8.11339 73.5779 8.21862L76.8316 10.0918C77.0001 10.1865 77.1475 10.4601 77.1475 10.6916C77.1475 10.9231 77.0106 11.0284 76.8316 10.9231Z" fill="#B3D4FF"/>
<path d="M87.6036 17.1319L77.8319 11.4914C77.6635 11.3967 77.516 11.1231 77.516 10.8915C77.516 10.66 77.6529 10.5548 77.8319 10.66L87.6036 16.3005C87.7721 16.3953 87.9195 16.6689 87.9195 16.9004C87.9195 17.1319 87.7826 17.2371 87.6036 17.1319Z" fill="#FFAD66"/>
<path d="M73.6095 10.4811L72.5355 9.86027C72.367 9.76556 72.2196 9.49195 72.2196 9.26044C72.2196 9.02893 72.3565 8.92369 72.5355 9.02892L73.6095 9.6498C73.778 9.74451 73.9254 10.0181 73.9254 10.2496C73.9254 10.4811 73.7885 10.5864 73.6095 10.4811Z" fill="#006EFF"/>
<path d="M77.8425 12.9224L74.5888 11.0492C74.4203 10.9545 74.2729 10.6809 74.2729 10.4494C74.2729 10.2179 74.4098 10.1127 74.5888 10.2179L77.8425 12.091C78.0109 12.1858 78.1584 12.4594 78.1584 12.6909C78.1584 12.9224 78.0215 13.0276 77.8425 12.9224Z" fill="#B3D4FF"/>
<path d="M88.6144 19.1419L78.8428 13.5014C78.6743 13.4067 78.5269 13.1331 78.5269 12.9016C78.5269 12.67 78.6638 12.5648 78.8428 12.67L88.6144 18.3106C88.7829 18.4053 88.9303 18.6789 88.9303 18.9104C88.9303 19.1419 88.7934 19.2471 88.6144 19.1419Z" fill="#FFAD66"/>
<path d="M73.6095 12.028L72.5355 11.4071C72.367 11.3124 72.2196 11.0388 72.2196 10.8073C72.2196 10.5758 72.3565 10.4706 72.5355 10.5758L73.6095 11.1967C73.778 11.2914 73.9254 11.565 73.9254 11.7965C73.9254 12.028 73.7885 12.1333 73.6095 12.028Z" fill="#006EFF"/>
<path d="M73.6095 13.4907L72.5355 12.8698C72.367 12.7751 72.2196 12.5015 72.2196 12.27C72.2196 12.0384 72.3565 11.9332 72.5355 12.0384L73.6095 12.6593C73.778 12.754 73.9254 13.0276 73.9254 13.2592C73.9254 13.4907 73.7885 13.5959 73.6095 13.4907Z" fill="#006EFF"/>
<path d="M73.6095 19.405L72.5355 18.7841C72.367 18.6894 72.2196 18.4158 72.2196 18.1843C72.2196 17.9528 72.3565 17.8475 72.5355 17.9528L73.6095 18.5736C73.778 18.6683 73.9254 18.9419 73.9254 19.1735C73.9254 19.405 73.7885 19.5102 73.6095 19.405Z" fill="#006EFF"/>
<path d="M73.6095 20.8361L72.5355 20.2153C72.367 20.1205 72.2196 19.8469 72.2196 19.6154C72.2196 19.3839 72.3565 19.2787 72.5355 19.3839L73.6095 20.0048C73.778 20.0995 73.9254 20.3731 73.9254 20.6046C73.9254 20.8361 73.7885 20.9414 73.6095 20.8361Z" fill="#006EFF"/>
<path d="M73.6095 24.9401L72.5355 24.3193C72.367 24.2245 72.2196 23.9509 72.2196 23.7194C72.2196 23.4879 72.3565 23.3827 72.5355 23.4879L73.6095 24.1088C73.778 24.2035 73.9254 24.4771 73.9254 24.7086C73.9254 24.9401 73.7885 25.0454 73.6095 24.9401Z" fill="#006EFF"/>
<path d="M76.5368 26.6344L74.4519 25.4347C74.2834 25.34 74.136 25.0664 74.136 24.8349C74.136 24.6034 74.2729 24.4982 74.4519 24.6034L76.5368 25.8031C76.7052 25.8978 76.8527 26.1714 76.8527 26.4029C76.8527 26.6344 76.7158 26.7396 76.5368 26.6344Z" fill="#B3D4FF"/>
<path d="M84.6237 31.2962L77.495 27.1816C77.3265 27.0868 77.1791 26.8132 77.1791 26.5817C77.1791 26.3502 77.316 26.245 77.495 26.3502L84.6237 30.4648C84.7921 30.5596 84.9395 30.8332 84.9395 31.0647C84.9395 31.2962 84.8027 31.4014 84.6237 31.2962Z" fill="#FFAD66"/>
<path d="M88.446 29.402L87.3719 28.7812C87.2034 28.6865 87.056 28.4129 87.056 28.1813C87.056 27.9498 87.1929 27.8446 87.3719 27.9498L88.446 28.5707C88.6144 28.6654 88.7619 28.939 88.7619 29.1705C88.7619 29.402 88.625 29.5073 88.446 29.402Z" fill="#006EFF"/>
<path d="M72.9988 14.4379L71.9247 13.8171C71.7563 13.7223 71.6088 13.4487 71.6088 13.2172C71.6088 12.9857 71.7457 12.8805 71.9247 12.9857L72.9988 13.6066C73.1672 13.7013 73.3147 13.9749 73.3147 14.2064C73.3147 14.4379 73.1778 14.5432 72.9988 14.4379Z" fill="#006EFF"/>
<path d="M75.9682 16.1531L73.9149 14.9745C73.7464 14.8798 73.599 14.6062 73.599 14.3747C73.599 14.1432 73.7359 14.0379 73.9149 14.1432L75.9682 15.3218C76.1366 15.4165 76.2841 15.6901 76.2841 15.9216C76.2841 16.1531 76.1472 16.2584 75.9682 16.1531Z" fill="#B3D4FF"/>
<path d="M86.9928 22.5197L85.5503 21.6884C85.3818 21.5937 85.2344 21.3201 85.2344 21.0886C85.2344 20.8571 85.3713 20.7518 85.5503 20.857L86.9928 21.6884C87.1613 21.7831 87.3087 22.0567 87.3087 22.2882C87.3087 22.5197 87.1719 22.625 86.9928 22.5197Z" fill="#B3D4FF"/>
<path d="M80.2327 18.6156L76.8948 16.6899C76.7263 16.5952 76.5789 16.3215 76.5789 16.09C76.5789 15.8585 76.7158 15.7533 76.8948 15.8585L80.2327 17.7843C80.4012 17.879 80.5486 18.1526 80.5486 18.3841C80.5486 18.6156 80.4117 18.7209 80.2327 18.6156Z" fill="#FFAD66"/>
<path d="M72.9988 16.048L71.9247 15.4272C71.7563 15.3325 71.6088 15.0588 71.6088 14.8273C71.6088 14.5958 71.7457 14.4906 71.9247 14.5958L72.9988 15.2167C73.1672 15.3114 73.3147 15.585 73.3147 15.8165C73.3147 16.048 73.1778 16.1533 72.9988 16.048Z" fill="#006EFF"/>
<path d="M72.9988 21.8884L71.9247 21.2675C71.7563 21.1728 71.6088 20.8992 71.6088 20.6677C71.6088 20.4362 71.7457 20.3309 71.9247 20.4362L72.9988 21.057C73.1672 21.1517 73.3147 21.4253 73.3147 21.6569C73.3147 21.8884 73.1778 21.9936 72.9988 21.8884Z" fill="#006EFF"/>
<path d="M75.9682 17.7528L73.9149 16.5741C73.7464 16.4794 73.599 16.2058 73.599 15.9743C73.599 15.7428 73.7359 15.6376 73.9149 15.7428L75.9682 16.9214C76.1366 17.0161 76.2841 17.2897 76.2841 17.5212C76.2841 17.7528 76.1472 17.858 75.9682 17.7528Z" fill="#B3D4FF"/>
<path d="M75.9682 22.2042L74.6098 21.415C74.4413 21.3202 74.2939 21.0466 74.2939 20.8151C74.2939 20.5836 74.4308 20.4784 74.6098 20.5836L75.9682 21.3729C76.1366 21.4676 76.2841 21.7412 76.2841 21.9727C76.2841 22.2042 76.1472 22.3094 75.9682 22.2042Z" fill="#B3D4FF"/>
<path d="M81.7911 25.5611L80.4328 24.7719C80.2643 24.6772 80.1169 24.4036 80.1169 24.1721C80.1169 23.9405 80.2538 23.8353 80.4328 23.9405L81.7911 24.7298C81.9596 24.8245 82.107 25.0981 82.107 25.3296C82.107 25.5611 81.9701 25.6664 81.7911 25.5611Z" fill="#B3D4FF"/>
<path d="M91.11 28.1288L73.0409 17.7001C72.8724 17.6054 72.725 17.3318 72.725 17.1003C72.725 16.8688 72.8619 16.7635 73.0409 16.8688L91.11 27.2974C91.2785 27.3921 91.4259 27.6657 91.4259 27.8973C91.4259 28.1288 91.289 28.234 91.11 28.1288Z" fill="#F2F2F2"/>
<path d="M79.4746 19.7733L76.8948 18.2895C76.7263 18.1948 76.5789 17.9212 76.5789 17.6896C76.5789 17.4581 76.7158 17.3529 76.8948 17.4581L79.4746 18.9419C79.6431 19.0366 79.7905 19.3102 79.7905 19.5417C79.7905 19.7733 79.6536 19.8785 79.4746 19.7733Z" fill="#FFAD66"/>
<path d="M79.4746 24.2247L76.8948 22.7409C76.7263 22.6462 76.5789 22.3726 76.5789 22.1411C76.5789 21.9095 76.7158 21.8043 76.8948 21.9095L79.4746 23.3933C79.6431 23.488 79.7905 23.7617 79.7905 23.9932C79.7905 24.2247 79.6536 24.3299 79.4746 24.2247Z" fill="#FFAD66"/>
<path d="M86.4137 28.2235L82.7704 26.1188C82.6019 26.0241 82.4545 25.7505 82.4545 25.519C82.4545 25.2875 82.5914 25.1822 82.7704 25.2875L86.4137 27.3921C86.5822 27.4869 86.7296 27.7605 86.7296 27.992C86.7296 28.2235 86.5927 28.3287 86.4137 28.2235Z" fill="#F2F2F2"/>
<path d="M84.6552 21.1623L81.3173 19.2365C81.1488 19.1418 81.0014 18.8682 81.0014 18.6367C81.0014 18.4051 81.1383 18.2999 81.3173 18.4051L84.6552 20.3309C84.8237 20.4256 84.9711 20.6992 84.9711 20.9308C84.9711 21.1623 84.8342 21.2675 84.6552 21.1623Z" fill="#F2F2F2"/>
<path d="M77.8425 14.4695L74.5888 12.5964C74.4203 12.5016 74.2729 12.228 74.2729 11.9965C74.2729 11.765 74.4098 11.6598 74.5888 11.765L77.8425 13.6382C78.0109 13.7329 78.1584 14.0065 78.1584 14.238C78.1584 14.4695 78.0215 14.5747 77.8425 14.4695Z" fill="#B3D4FF"/>
<path d="M84.8342 18.4998L81.5805 16.6266C81.4121 16.5319 81.2646 16.2583 81.2646 16.0268C81.2646 15.7953 81.4015 15.69 81.5805 15.7953L84.8342 17.6684C85.0027 17.7632 85.1501 18.0368 85.1501 18.2683C85.1501 18.4998 85.0133 18.605 84.8342 18.4998Z" fill="#B3D4FF"/>
<path d="M80.4854 15.9954L78.8428 15.0483C78.6743 14.9535 78.5269 14.6799 78.5269 14.4484C78.5269 14.2169 78.6638 14.1117 78.8428 14.2169L80.4854 15.164C80.6539 15.2587 80.8013 15.5323 80.8013 15.7638C80.8013 15.9954 80.6644 16.1006 80.4854 15.9954Z" fill="#FFAD66"/>
<path d="M91.2364 22.2041L85.9293 19.1418C85.7609 19.0471 85.6135 18.7734 85.6135 18.5419C85.6135 18.3104 85.7503 18.2052 85.9293 18.3104L91.2364 21.3727C91.4048 21.4674 91.5523 21.741 91.5523 21.9725C91.5523 22.2041 91.4154 22.3093 91.2364 22.2041Z" fill="#FFAD66"/>
<path d="M73.6095 26.2451L72.5355 25.6242C72.367 25.5295 72.2196 25.2559 72.2196 25.0244C72.2196 24.7928 72.3565 24.6876 72.5355 24.7928L73.6095 25.4137C73.778 25.5084 73.9254 25.782 73.9254 26.0136C73.9254 26.2451 73.7885 26.3503 73.6095 26.2451Z" fill="#006EFF"/>
<path d="M77.8425 28.6971L74.5888 26.8239C74.4203 26.7292 74.2729 26.4556 74.2729 26.2241C74.2729 25.9925 74.4098 25.8873 74.5888 25.9925L77.8425 27.8657C78.0109 27.9604 78.1584 28.234 78.1584 28.4655C78.1584 28.6971 78.0215 28.8023 77.8425 28.6971Z" fill="#B3D4FF"/>
<path d="M84.8342 32.7276L81.5805 30.8544C81.4121 30.7597 81.2646 30.4861 81.2646 30.2546C81.2646 30.0231 81.4015 29.9178 81.5805 30.0231L84.8342 31.8962C85.0027 31.9909 85.1501 32.2645 85.1501 32.4961C85.1501 32.7276 85.0133 32.8328 84.8342 32.7276Z" fill="#B3D4FF"/>
<path d="M80.4854 30.2124L78.8428 29.2653C78.6743 29.1706 78.5269 28.897 78.5269 28.6655C78.5269 28.434 78.6638 28.3287 78.8428 28.434L80.4854 29.3811C80.6539 29.4758 80.8013 29.7494 80.8013 29.9809C80.8013 30.2124 80.6644 30.3176 80.4854 30.2124Z" fill="#FFAD66"/>
<path d="M91.2364 36.4211L85.9293 33.3588C85.7609 33.2641 85.6135 32.9905 85.6135 32.759C85.6135 32.5275 85.7503 32.4222 85.9293 32.5275L91.2364 35.5898C91.4048 35.6845 91.5523 35.9581 91.5523 36.1896C91.5523 36.4211 91.4154 36.5263 91.2364 36.4211Z" fill="#FFAD66"/>
<path d="M10.6308 28.9603C10.694 30.0021 11.0941 32.2541 13.1264 34.464L14.4426 33.7064C12.4104 31.4859 12.0102 29.2339 11.9471 28.2026L10.6308 28.9603Z" fill="#595959"/>
<path d="M14.2004 13.933L2.75456 7.32433C2.45972 7.15595 2.19648 7.1349 2.00694 7.25066L0.69072 8.00834C0.880256 7.90311 1.1435 7.91363 1.43833 8.08201L12.8842 14.6907C13.4634 15.0274 13.9267 15.8272 13.9161 16.4902L13.874 29.6339C13.874 29.9706 13.7582 30.2021 13.5687 30.3073L14.8849 29.5497C15.0744 29.4444 15.1902 29.2129 15.1902 28.8762L15.2324 15.7325C15.2324 15.0695 14.769 14.2697 14.2004 13.933Z" fill="#595959"/>
<path d="M12.8842 14.6907C13.4634 15.0275 13.9267 15.8273 13.9161 16.4902L13.874 29.6339C13.874 30.3074 13.4107 30.5705 12.8316 30.2338L10.6203 28.9604C10.694 30.0022 11.0836 32.2542 13.1159 34.4641C13.0948 34.4641 12.642 34.3589 11.926 33.9485C10.5571 33.1592 8.2827 31.2229 6.68217 26.6874L1.38569 23.6251C0.817078 23.2883 0.353767 22.4886 0.353767 21.8256L0.395887 8.68191C0.395887 8.01893 0.859197 7.75585 1.44887 8.0926L12.8947 14.7013L12.8842 14.6907Z" fill="#333333"/>
<path d="M3.3337 16.9953L5.19747 19.321V20.1523L2.07012 16.2692L5.19747 16.0061V16.8374L3.3337 17.0058V16.9953Z" fill="white"/>
<path d="M6.59793 22.0887L5.99773 21.7414C6.5874 20.2471 7.04018 19.1211 7.32449 18.3739L7.98786 16.6902L8.58806 17.0375L6.5874 22.0887H6.59793Z" fill="white"/>
<path d="M11.1257 21.4888L9.26196 19.1631V18.3423L12.3998 22.2254L9.26196 22.499V21.6677L11.1257 21.4993V21.4888Z" fill="white"/>
</g>
<defs>
<linearGradient id="paint0_linear_249_1572" x1="98.7125" y1="66.655" x2="95.1245" y2="71.0559" gradientUnits="userSpaceOnUse">
<stop stop-color="white"/>
<stop offset="1" stop-color="#999999"/>
</linearGradient>
<clipPath id="clip0_249_1572">
<rect width="136.792" height="150" fill="white" transform="translate(0.353767)"/>
</clipPath>
</defs>
</svg>
