<svg width="98" height="150" viewBox="0 0 98 150" fill="none" xmlns="http://www.w3.org/2000/svg">
<g clip-path="url(#clip0_249_1446)">
<path d="M97.0515 122.304L93.8045 120.429C93.1281 120.033 91.9394 120.091 91.1567 120.535L84.9622 124.121L41.8235 99.2172L48.1242 95.574C48.9069 95.1198 48.9939 94.4337 48.3175 94.0471L45.0705 92.1724C44.394 91.7761 43.2054 91.8341 42.4226 92.2787L24.4868 102.638C23.704 103.092 23.617 103.778 24.2935 104.165L27.5405 106.04C28.217 106.436 29.4056 106.378 30.1884 105.933L38.818 100.947L81.9568 125.85L73.2208 130.895C72.4381 131.349 72.3511 132.035 73.0276 132.422L76.2746 134.296C76.951 134.693 78.1397 134.635 78.9224 134.19L96.8582 123.831C97.641 123.376 97.728 122.69 97.0515 122.304Z" fill="#F2F2F2"/>
<path d="M26.6708 103.411L25.8397 102.928C25.5594 102.764 25.3855 102.426 25.3855 101.933C25.3855 100.947 26.0716 99.7489 26.9317 99.256C27.3666 99.0048 27.7531 98.9854 28.0334 99.1497L28.8644 99.6329C28.5842 99.4686 28.188 99.4879 27.7628 99.7392C26.9124 100.232 26.2166 101.43 26.2166 102.416C26.2166 102.909 26.3905 103.247 26.6708 103.411Z" fill="#BFBFBF"/>
<path d="M27.7724 103.305C26.922 103.798 26.2166 103.402 26.2166 102.416C26.2166 101.43 26.9027 100.232 27.7628 99.7391C28.6228 99.2463 29.3186 99.6425 29.3186 100.628C29.3186 101.614 28.6325 102.812 27.7724 103.305Z" fill="#898989"/>
<path d="M27.4922 103.885L26.6611 103.402C26.3809 103.238 26.2069 102.899 26.2069 102.406C26.2069 101.421 26.893 100.222 27.7531 99.7296C28.188 99.4784 28.5745 99.4591 28.8548 99.6233L29.6858 100.107C29.4056 99.9423 29.0094 99.9616 28.5842 100.213C27.7338 100.706 27.038 101.904 27.038 102.89C27.038 103.383 27.2119 103.721 27.4922 103.885Z" fill="#262626"/>
<path d="M28.5938 103.779C27.7434 104.272 27.038 103.875 27.038 102.89C27.038 101.904 27.7241 100.706 28.5842 100.213C29.4443 99.7199 30.14 100.116 30.14 101.102C30.14 102.088 29.4539 103.286 28.5938 103.779Z" fill="#898989"/>
<path d="M28.3233 104.368L27.4922 103.885C27.2119 103.721 27.038 103.383 27.038 102.89C27.038 101.904 27.7241 100.706 28.5842 100.213C29.0191 99.9615 29.4056 99.9422 29.6858 100.107L30.5169 100.59C30.2367 100.425 29.8405 100.445 29.4153 100.696C28.5649 101.189 27.8691 102.387 27.8691 103.373C27.8691 103.866 28.043 104.204 28.3233 104.368Z" fill="#BFBFBF"/>
<path d="M29.4249 104.262C28.5745 104.755 27.8691 104.358 27.8691 103.373C27.8691 102.387 28.5552 101.189 29.4153 100.696C30.2753 100.203 30.9711 100.599 30.9711 101.585C30.9711 102.571 30.285 103.769 29.4249 104.262Z" fill="#898989"/>
<path d="M41.7655 94.7044L40.9344 94.2212C40.6541 94.0569 40.4802 93.7187 40.4802 93.2258C40.4802 92.2401 41.1663 91.0418 42.0264 90.549C42.4613 90.2977 42.8478 90.2784 43.128 90.4427L43.9591 90.9259C43.6789 90.7616 43.2827 90.7809 42.8575 91.0322C42.0071 91.525 41.3113 92.7233 41.3113 93.709C41.3113 94.2019 41.4852 94.5401 41.7655 94.7044Z" fill="#BFBFBF"/>
<path d="M42.8671 94.598C42.0167 95.0908 41.3113 94.6946 41.3113 93.7089C41.3113 92.7232 41.9974 91.5249 42.8575 91.0321C43.7175 90.5392 44.4133 90.9355 44.4133 91.9212C44.4133 92.9069 43.7272 94.1052 42.8671 94.598Z" fill="#898989"/>
<path d="M42.5869 95.178L41.7558 94.6948C41.4756 94.5305 41.3016 94.1923 41.3016 93.6995C41.3016 92.7138 41.9877 91.5155 42.8478 91.0226C43.2827 90.7714 43.6692 90.752 43.9495 90.9163L44.7805 91.3995C44.5003 91.2352 44.1041 91.2545 43.6789 91.5058C42.8285 91.9987 42.1327 93.1969 42.1327 94.1826C42.1327 94.6755 42.3066 95.0137 42.5869 95.178Z" fill="#262626"/>
<path d="M43.6885 95.0716C42.8381 95.5645 42.1327 95.1683 42.1327 94.1826C42.1327 93.1969 42.8188 91.9986 43.6789 91.5057C44.539 91.0129 45.2347 91.4091 45.2347 92.3948C45.2347 93.3805 44.5486 94.5788 43.6885 95.0716Z" fill="#898989"/>
<path d="M43.418 95.6612L42.5869 95.178C42.3066 95.0137 42.1327 94.6755 42.1327 94.1826C42.1327 93.1969 42.8188 91.9986 43.6789 91.5058C44.1137 91.2545 44.5003 91.2352 44.7805 91.3995L45.6116 91.8827C45.3314 91.7184 44.9352 91.7377 44.51 91.989C43.6596 92.4818 42.9638 93.6801 42.9638 94.6658C42.9638 95.1586 43.1377 95.4969 43.418 95.6612Z" fill="#BFBFBF"/>
<path d="M44.5293 95.5548C43.6789 96.0476 42.9734 95.6514 42.9734 94.6657C42.9734 93.68 43.6595 92.4817 44.5196 91.9889C45.3797 91.496 46.0755 91.8922 46.0755 92.8779C46.0755 93.8636 45.3893 95.0619 44.5293 95.5548Z" fill="#898989"/>
<path d="M43.6692 92.1531L41.1567 90.6938V88.8191L43.6596 90.2783L43.6692 92.1531Z" fill="#D9D9D9"/>
<path d="M38.7794 87.4372L36.2668 85.978L42.8285 87.1183L45.341 88.5776L38.7794 87.4372Z" fill="#E6E6E6"/>
<path d="M34.9719 89.6309L32.4593 88.1717L36.2668 85.978L38.7794 87.4372L34.9719 89.6309Z" fill="#F2F2F2"/>
<path d="M28.4296 98.3379L25.9267 96.8883L32.4593 88.1716L34.9719 89.6309L28.4296 98.3379Z" fill="#E6E6E6"/>
<path d="M28.4392 100.938L25.9267 99.488V96.8884L28.4296 98.338L28.4392 100.938Z" fill="#D9D9D9"/>
<path d="M38.7794 87.4373L45.341 88.5776L45.3507 91.1771L43.6692 92.1531L43.6596 90.2784L38.7891 89.428L34.9719 91.6216L30.1207 98.0963V99.9711L28.4392 100.937L28.4296 98.3379L34.9719 89.6309L38.7794 87.4373Z" fill="#A6A6A6"/>
<path d="M37.2235 32.132V87.7273C37.2235 87.9592 37.0689 88.2008 36.7597 88.3844C36.1315 88.7516 35.1168 88.7516 34.4887 88.3844C34.1698 88.2008 34.0152 87.9592 34.0152 87.7176V32.1223C34.0152 32.3639 34.1795 32.6055 34.4887 32.7891C35.1168 33.1563 36.1315 33.1563 36.7597 32.7891C37.0689 32.6055 37.2235 32.3736 37.2235 32.132Z" fill="#D9D9D9"/>
<path d="M36.75 31.4651C37.3781 31.8323 37.3781 32.4122 36.75 32.7794C36.1219 33.1466 35.1072 33.1466 34.479 32.7794C33.8509 32.4122 33.8412 31.8227 34.479 31.4651C35.1072 31.0979 36.1219 31.0979 36.75 31.4651Z" fill="#898989"/>
<path d="M83.8122 90.346L35.6677 62.5436C35.4647 62.4276 35.3391 62.1764 35.3391 61.8188C35.3391 61.094 35.8416 60.2146 36.4698 59.8474C36.7887 59.6638 37.0786 59.6445 37.2815 59.7701L85.4261 87.5726C85.2231 87.4566 84.9332 87.4663 84.6143 87.6499C83.9862 88.0171 83.474 88.8965 83.4837 89.6213C83.4837 89.9788 83.6093 90.2301 83.8122 90.346Z" fill="#F2F2F2"/>
<path d="M84.624 90.2687C83.9958 90.6359 83.4837 90.3363 83.4837 89.6212C83.4837 88.8964 83.9862 88.017 84.6143 87.6498C85.2425 87.2826 85.7546 87.5822 85.7546 88.2973C85.7546 89.0221 85.2521 89.9015 84.6143 90.259L84.624 90.2687Z" fill="#898989"/>
<path d="M75.9557 131.852L75.1246 131.368C74.8443 131.204 74.6704 130.866 74.6704 130.373C74.6704 129.387 75.3565 128.189 76.2166 127.696C76.6514 127.445 77.038 127.426 77.3182 127.59L78.1493 128.073C77.8691 127.909 77.4729 127.928 77.0476 128.179C76.1972 128.672 75.5015 129.871 75.5015 130.856C75.5015 131.349 75.6754 131.687 75.9557 131.852Z" fill="#BFBFBF"/>
<path d="M77.0573 131.745C76.2069 132.238 75.5015 131.842 75.5015 130.856C75.5015 129.87 76.1876 128.672 77.0477 128.179C77.9077 127.686 78.6035 128.083 78.6035 129.068C78.6035 130.054 77.9174 131.252 77.0573 131.745Z" fill="#898989"/>
<path d="M76.7771 132.325L75.946 131.842C75.6657 131.678 75.4918 131.34 75.4918 130.847C75.4918 129.861 76.1779 128.663 77.038 128.17C77.4729 127.919 77.8594 127.899 78.1397 128.064L78.9707 128.547C78.6905 128.382 78.2943 128.402 77.8691 128.653C77.0187 129.146 76.3229 130.344 76.3229 131.33C76.3229 131.823 76.4968 132.161 76.7771 132.325Z" fill="#262626"/>
<path d="M77.8787 132.219C77.0283 132.712 76.3229 132.315 76.3229 131.33C76.3229 130.344 77.009 129.146 77.8691 128.653C78.7291 128.16 79.4249 128.556 79.4249 129.542C79.4249 130.528 78.7388 131.726 77.8787 132.219Z" fill="#898989"/>
<path d="M77.6178 132.808L76.7867 132.325C76.5065 132.161 76.3326 131.823 76.3326 131.33C76.3326 130.344 77.0187 129.146 77.8787 128.653C78.3136 128.402 78.7002 128.382 78.9804 128.547L79.8115 129.03C79.5312 128.866 79.135 128.885 78.7098 129.136C77.8594 129.629 77.1636 130.827 77.1636 131.813C77.1636 132.306 77.3376 132.644 77.6178 132.808Z" fill="#BFBFBF"/>
<path d="M78.7195 132.702C77.8691 133.195 77.1636 132.799 77.1636 131.813C77.1636 130.827 77.8498 129.629 78.7098 129.136C79.5699 128.643 80.2657 129.039 80.2657 130.025C80.2657 131.011 79.5796 132.209 78.7195 132.702Z" fill="#898989"/>
<path d="M91.0504 123.145L90.2193 122.661C89.939 122.497 89.7651 122.159 89.7651 121.666C89.7651 120.68 90.4512 119.482 91.3113 118.989C91.7461 118.738 92.1327 118.719 92.4129 118.883L93.244 119.366C92.9638 119.202 92.5675 119.221 92.1423 119.472C91.2919 119.965 90.5962 121.164 90.5962 122.149C90.5962 122.642 90.7701 122.98 91.0504 123.145Z" fill="#BFBFBF"/>
<path d="M92.1617 123.029C91.3016 123.522 90.6058 123.125 90.6058 122.14C90.6058 121.154 91.292 119.956 92.152 119.463C93.0121 118.97 93.7079 119.366 93.7079 120.352C93.7079 121.338 93.0218 122.536 92.1617 123.029Z" fill="#898989"/>
<path d="M91.8718 123.618L91.0407 123.135C90.7604 122.971 90.5865 122.632 90.5865 122.14C90.5865 121.154 91.2726 119.956 92.1327 119.463C92.5675 119.212 92.9541 119.192 93.2343 119.357L94.0654 119.84C93.7852 119.675 93.389 119.695 92.9638 119.946C92.1134 120.439 91.4176 121.637 91.4176 122.623C91.4176 123.116 91.5915 123.454 91.8718 123.618Z" fill="#262626"/>
<path d="M92.9734 123.502C92.123 123.995 91.4176 123.599 91.4176 122.613C91.4176 121.628 92.1037 120.429 92.9638 119.936C93.8238 119.444 94.5196 119.84 94.5196 120.825C94.5196 121.811 93.8335 123.009 92.9734 123.502Z" fill="#898989"/>
<path d="M92.7125 124.101L91.8814 123.618C91.6012 123.454 91.4272 123.116 91.4272 122.623C91.4272 121.637 92.1134 120.439 92.9734 119.946C93.4083 119.695 93.7949 119.675 94.0751 119.84L94.9062 120.323C94.6259 120.159 94.2297 120.178 93.8045 120.429C92.9541 120.922 92.2583 122.12 92.2583 123.106C92.2583 123.599 92.4323 123.937 92.7125 124.101Z" fill="#BFBFBF"/>
<path d="M93.8142 123.985C92.9541 124.478 92.2583 124.082 92.2583 123.096C92.2583 122.111 92.9445 120.912 93.8045 120.42C94.6646 119.927 95.3604 120.323 95.3604 121.309C95.3604 122.294 94.6743 123.493 93.8142 123.985Z" fill="#898989"/>
<path d="M92.9541 120.584L90.4512 119.125L90.4415 117.25L92.9541 118.709V120.584Z" fill="#D9D9D9"/>
<path d="M88.0643 115.868L85.5614 114.409L92.123 115.559L94.6356 117.018L88.0643 115.868Z" fill="#E6E6E6"/>
<path d="M84.2568 118.071L81.7539 116.612L85.5614 114.409L88.0643 115.868L84.2568 118.071Z" fill="#F2F2F2"/>
<path d="M77.7241 126.778L75.2115 125.319L81.7539 116.612L84.2568 118.071L77.7241 126.778Z" fill="#E6E6E6"/>
<path d="M77.7241 129.378L75.2212 127.919L75.2115 125.319L77.7241 126.778V129.378Z" fill="#D9D9D9"/>
<path d="M88.0643 115.868L94.6356 117.018L94.6453 119.617L92.9541 120.584V118.709L88.0739 117.859L84.2664 120.062L79.4056 126.537L79.4153 128.402L77.7241 129.378V126.778L84.2568 118.071L88.0643 115.868Z" fill="#A6A6A6"/>
<path d="M86.5181 60.5624V116.158C86.5181 116.39 86.3634 116.631 86.0542 116.815C85.4261 117.182 84.4114 117.182 83.7832 116.815C83.4643 116.631 83.3097 116.39 83.3097 116.148V60.5527C83.3097 60.7943 83.474 61.0359 83.7832 61.2195C84.4114 61.5867 85.4261 61.5867 86.0542 61.2195C86.3634 61.0359 86.5181 60.804 86.5181 60.5624Z" fill="#D9D9D9"/>
<path d="M86.0446 59.9053C86.6727 60.2725 86.6727 60.8523 86.0446 61.2196C85.4164 61.5868 84.4017 61.5868 83.7736 61.2196C83.1455 60.8523 83.1358 60.2629 83.7736 59.9053C84.4017 59.5381 85.4164 59.5381 86.0446 59.9053Z" fill="#898989"/>
<path d="M94.2394 42.9358L96.7519 41.4766L96.6166 87.0023L94.1137 88.4615L94.2394 42.9358Z" fill="#A6A6A6"/>
<path d="M22.4091 1.45922L24.912 0L96.7519 41.4766L94.2394 42.9358L22.4091 1.45922Z" fill="#F2F2F2"/>
<path d="M94.2394 42.9358L94.1137 88.4615L22.2738 46.9946L22.4091 1.45923L94.2394 42.9358Z" fill="#D9D9D9"/>
<path d="M92.239 43.0422L92.1134 86.0457L24.2742 46.8787L24.3998 3.87524L92.239 43.0422Z" fill="#F2F2F2"/>
<path d="M85.9865 76.952L71.7809 68.7572C71.0271 68.3223 70.4087 67.2593 70.4087 66.3799V37.1472C70.4087 36.2775 71.0271 35.9296 71.7809 36.3645L85.9865 44.5593C86.7403 44.9941 87.3588 46.0572 87.3588 46.9366V76.1693C87.3588 77.039 86.7403 77.3965 85.9865 76.952ZM71.7809 36.9733C71.317 36.7027 70.9402 36.925 70.9402 37.4565V66.6892C70.9402 67.2207 71.317 67.8778 71.7809 68.1484L85.9865 76.3432C86.4504 76.6138 86.8273 76.3915 86.8273 75.86V46.6273C86.8273 46.0958 86.4504 45.4387 85.9865 45.1778L71.7809 36.9829V36.9733Z" fill="#4D4D4D"/>
<path d="M44.4423 52.9667L30.2367 44.7718C29.4829 44.337 28.8644 43.274 28.8644 42.3946V13.1619C28.8644 12.2921 29.4829 11.9442 30.2367 12.3791L44.4423 20.5739C45.1961 21.0088 45.8145 22.0718 45.8145 22.9512V52.1839C45.8145 53.0536 45.1961 53.4112 44.4423 52.9667ZM30.2463 12.9879C29.7825 12.7173 29.4056 12.9396 29.4056 13.4711V42.7038C29.4056 43.2353 29.7825 43.8924 30.2463 44.163L44.452 52.3578C44.9158 52.6284 45.2927 52.4062 45.2927 51.8747V22.642C45.2927 22.1105 44.9158 21.4533 44.452 21.1924L30.2463 12.9976V12.9879Z" fill="#4D4D4D"/>
<path d="M41.1083 35.2048L33.2904 30.6918C32.7879 30.4019 32.3723 29.6192 32.3723 28.9427C32.3723 28.2663 32.7782 27.957 33.2904 28.2469L41.1083 32.7599C41.6108 33.0498 42.0264 33.8326 42.0264 34.509C42.0264 35.1855 41.6205 35.4947 41.1083 35.2048Z" fill="#4D4D4D"/>
<path d="M43.3213 38.5001L30.9421 31.3489C30.7778 31.2523 30.6425 30.9914 30.6425 30.7788C30.6425 30.5565 30.7778 30.4599 30.9421 30.5469L43.3213 37.698C43.4856 37.7946 43.6209 38.0555 43.6209 38.2681C43.6209 38.4904 43.4856 38.5871 43.3213 38.5001Z" fill="#4D4D4D"/>
<path d="M43.3213 40.1334L30.9421 32.9822C30.7778 32.8856 30.6425 32.6247 30.6425 32.4121C30.6425 32.1898 30.7778 32.0932 30.9421 32.1802L43.3213 39.3313C43.4856 39.4279 43.6209 39.6889 43.6209 39.9015C43.6209 40.1237 43.4856 40.2204 43.3213 40.1334Z" fill="#4D4D4D"/>
<path d="M43.3213 41.7664L30.9421 34.6153C30.7778 34.5187 30.6425 34.2577 30.6425 34.0451C30.6425 33.8229 30.7778 33.7262 30.9421 33.8132L43.3213 40.9643C43.4856 41.061 43.6209 41.3219 43.6209 41.5345C43.6209 41.7568 43.4856 41.8534 43.3213 41.7664Z" fill="#4D4D4D"/>
<path d="M43.3213 43.39L30.9421 36.2388C30.7778 36.1422 30.6425 35.8813 30.6425 35.6687C30.6425 35.4464 30.7778 35.3498 30.9421 35.4367L43.3213 42.5879C43.4856 42.6845 43.6209 42.9454 43.6209 43.158C43.6209 43.3803 43.4856 43.4769 43.3213 43.39Z" fill="#4D4D4D"/>
<path d="M35.1265 45.0617C35.1265 45.3709 34.9042 45.4966 34.6336 45.3419C34.363 45.1873 34.1408 44.8104 34.1408 44.5012C34.1408 44.192 34.363 44.0663 34.6336 44.221C34.9042 44.3756 35.1265 44.7525 35.1265 45.0617Z" fill="#4D4D4D"/>
<path d="M36.808 46.0378C36.808 46.347 36.5857 46.4726 36.3151 46.318C36.0445 46.1634 35.8223 45.7865 35.8223 45.4773C35.8223 45.168 36.0445 45.0424 36.3151 45.197C36.5857 45.3516 36.808 45.7285 36.808 46.0378Z" fill="#4D4D4D"/>
<path d="M38.4991 47.0138C38.4991 47.3231 38.2768 47.4487 38.0062 47.2941C37.7357 47.1395 37.5134 46.7626 37.5134 46.4534C37.5134 46.1441 37.7357 46.0185 38.0062 46.1731C38.2768 46.3277 38.4991 46.7046 38.4991 47.0138Z" fill="#4D4D4D"/>
<path d="M40.1806 47.9899C40.1806 48.2992 39.9583 48.4248 39.6877 48.2702C39.4172 48.1155 39.1949 47.7387 39.1949 47.4294C39.1949 47.1202 39.4172 46.9946 39.6877 47.1492C39.9583 47.3038 40.1806 47.6807 40.1806 47.9899Z" fill="#4D4D4D"/>
<path d="M65.2192 64.9593L51.0136 56.7645C50.2598 56.3297 49.6414 55.2666 49.6414 54.3872V25.1545C49.6414 24.2848 50.2598 23.9369 51.0136 24.3718L65.2192 32.5666C65.973 33.0015 66.5915 34.0645 66.5915 34.9439V64.1766C66.5915 65.0463 65.973 65.4039 65.2192 64.9593ZM51.0136 24.9806C50.5497 24.71 50.1729 24.9323 50.1729 25.4638V54.6965C50.1729 55.228 50.5497 55.8851 51.0136 56.1557L65.2192 64.3505C65.6831 64.6211 66.06 64.3988 66.06 63.8673V34.6346C66.06 34.1031 65.6831 33.446 65.2192 33.1851L51.0136 24.9903V24.9806Z" fill="#4D4D4D"/>
<path d="M57.208 37.6593L51.9703 34.6346V28.6238L57.208 31.6485V37.6593Z" fill="#4D4D4D"/>
<path d="M64.2625 41.7278L59.0248 38.7127V32.7019L64.2625 35.7266V41.7278Z" fill="#4D4BB7"/>
<path d="M57.44 46.4629L51.7384 43.1676V36.6252L57.44 39.9206V46.4629ZM52.2022 42.9067L56.9761 45.6608V40.1911L52.2022 37.437V42.9067Z" fill="#4D4D4D"/>
<path d="M64.4945 50.5314L58.7929 47.2457V40.7034L64.4945 43.9987V50.541V50.5314ZM59.2567 46.9751L64.0306 49.7293V44.2596L59.2567 41.5055V46.9751Z" fill="#4D4D4D"/>
<path d="M57.44 54.8608L51.7384 51.5655V45.0232L57.44 48.3185V54.8608ZM52.2022 51.3046L56.9761 54.0588V48.5891L52.2022 45.8349V51.3046Z" fill="#4D4D4D"/>
<path d="M64.4945 58.9388L58.7929 55.6532V49.1108L64.4945 52.4062V58.9485V58.9388ZM59.2567 55.3826L64.0306 58.1367V52.6671L59.2567 49.9129V55.3826Z" fill="#4D4D4D"/>
<path d="M57.208 56.8612V60.3401L51.9703 57.3154V53.8364L57.208 56.8612Z" fill="#4D4D4D"/>
<path d="M64.2625 60.9295V64.4085L59.0248 61.3837V57.9048L64.2625 60.9295Z" fill="#4D4D4D"/>
<path d="M57.208 27.9473V29.8704L51.9703 26.836V24.9226L57.208 27.9473Z" fill="#4D4D4D"/>
<path d="M64.2625 32.0157V33.9388L59.0248 30.914V28.991L64.2625 32.0157Z" fill="#4D4D4D"/>
<path d="M44.2704 140.009C44.3005 134.443 36.5069 129.888 26.8629 129.835C17.2189 129.783 9.37643 134.254 9.34631 139.82C9.31619 145.387 17.1098 149.941 26.7538 149.994C36.3979 150.046 44.2403 145.576 44.2704 140.009Z" fill="#F2F2F2"/>
<path d="M17.0554 77.1937C16.9008 75.9857 16.5915 74.6908 15.6638 73.9081C15.3739 73.6665 15.026 73.4828 14.6491 73.4828C14.3979 73.4828 14.1563 73.5698 13.9243 73.6761C11.866 71.985 9.77861 70.2455 8.54166 67.8972C8.30973 67.4527 8.09713 66.9792 7.80721 66.5636C7.7589 66.4863 7.70091 66.4187 7.64293 66.351C8.34838 65.7036 9.0635 65.0658 9.76895 64.4183C9.82693 64.3603 9.89457 64.3023 9.93323 64.225C10.0105 64.0704 9.96222 63.8868 9.9139 63.7225C9.57567 62.6402 9.08282 61.5192 8.12612 60.9297C7.74923 60.6978 7.32403 60.5721 6.88916 60.5335C6.59925 60.5142 6.12573 60.6978 5.96145 60.3982C5.16902 60.8717 4.46357 61.6835 3.85476 62.3889C3.24595 63.0944 2.69511 63.8481 2.17327 64.6212C1.7674 65.2204 1.29388 65.8099 1.07161 66.5153C0.83002 67.3174 1.2069 68.0132 1.63211 68.6607C2.25058 69.598 2.95603 70.4774 3.73879 71.2892C4.18333 71.753 4.65685 72.1879 5.1497 72.5938C6.54127 73.7534 8.09713 74.6908 9.65298 75.6185C10.3874 76.0631 13.3445 77.7832 13.4798 77.9185C13.7601 78.1987 13.8567 78.6239 13.992 78.9815C14.2626 79.6773 14.5332 80.3731 14.9777 80.9626C15.1613 81.2041 15.3932 81.4361 15.6735 81.5424C15.7315 81.5617 15.7991 81.581 15.8571 81.5617C15.9054 81.5424 15.9441 81.4941 15.973 81.4457C16.5142 80.6437 16.9781 79.7546 17.094 78.7882C17.152 78.2567 17.1037 77.7156 17.0361 77.184L17.0554 77.1937Z" fill="#FFB78C"/>
<path d="M11.7983 54.2905C11.721 54.3485 11.6437 54.4162 11.5664 54.4838C9.03451 56.6388 6.93749 59.248 4.5119 61.519C4.32829 61.6833 4.14468 61.8572 4.02871 62.0795C3.72914 62.6496 4.25098 63.3164 4.6182 63.7416C5.66188 64.9883 7.15009 65.8387 8.75426 66.1093C9.53702 66.2446 10.3488 66.2349 11.1412 66.2252C11.5857 66.2252 12.0303 66.2252 12.4555 66.1383C12.4361 65.8483 12.5134 65.5971 12.5618 65.3168C12.6197 64.9979 12.6004 64.6597 12.6391 64.3311C12.7067 63.6643 12.813 62.9975 12.9483 62.3404C13.2092 61.0358 13.5764 59.7505 13.9147 58.4653C14.108 57.7405 14.3012 57.006 14.3979 56.2619C14.4365 55.9527 14.4655 55.6338 14.4365 55.3246C14.3979 54.9573 14.3109 54.6288 14.3882 54.2616C14.4365 54.0683 14.6974 53.3435 14.968 53.3435C13.8374 53.3532 12.6874 53.5851 11.7983 54.3002V54.2905Z" fill="#F2F2F2"/>
<path d="M12.8517 138.771C12.7744 139.689 12.9193 140.626 13.6248 141.187C14.1466 141.602 14.8907 141.525 15.4995 141.38C16.0504 141.245 16.5529 140.887 16.9008 140.443C17.2197 140.027 17.3646 139.476 17.7029 139.07C17.9831 138.732 18.418 138.568 18.8238 138.403C20.4473 137.756 22.0998 136.944 23.1339 135.543C23.5204 135.021 23.9843 134.325 23.4914 133.697C23.3561 133.523 23.1532 133.407 22.9502 133.33C22.6217 133.214 22.2641 133.185 21.9162 133.166C20.8822 133.137 19.8482 133.253 18.8335 133.485C18.1764 133.639 17.5289 133.842 16.9104 134.122C16.4852 134.316 16.0697 134.557 15.6638 134.789C15.3739 134.954 14.997 135.108 14.7458 135.33C14.6201 135.437 14.3592 135.814 14.1949 135.524C14.1466 135.437 14.1466 135.33 14.137 135.234C13.7311 135.901 13.3252 136.587 13.1126 137.34C12.9966 137.766 12.8903 138.259 12.8517 138.761V138.771Z" fill="#4D4BB7"/>
<path d="M24.9506 96.521C24.9216 96.1055 24.796 95.7092 24.6704 95.313C23.5977 92.008 22.1578 88.5968 19.336 86.5867C18.6306 86.0842 17.7898 85.6493 16.9008 85.63C16.6205 85.63 16.3789 85.7363 16.1277 85.572C15.9537 85.4561 15.6251 84.7796 15.7411 84.5767C14.5718 86.7027 13.9437 89.1186 13.8857 91.5442C13.8664 92.4912 13.8084 93.7475 14.1369 94.7042C14.1756 94.8105 14.2142 94.9072 14.2626 95.0038C14.7264 95.9798 15.2289 96.8786 15.4995 97.9512C15.7218 98.8306 15.5188 99.5071 15.5285 100.377C15.5382 101.507 15.5672 102.638 15.5768 103.769C15.5865 106.069 15.5575 108.359 15.3932 110.659C15.2966 112.012 15.1516 113.365 14.8231 114.689C14.3979 116.361 13.4315 117.82 13.1416 119.521C12.8807 121.018 12.9483 122.545 13.0063 124.063C13.1609 127.715 13.3059 131.359 13.4605 135.012C13.4701 135.34 13.4895 135.669 13.4991 135.997C13.5088 136.345 13.4412 136.538 13.7794 136.693C14.3012 136.935 14.8907 136.944 15.4512 136.925C16.7848 136.857 18.1087 136.567 19.3457 136.065C19.8289 135.872 19.6356 135.398 19.6549 134.963C19.6646 134.615 20.2444 127.358 20.4667 125.338C20.7083 123.164 20.9692 120.989 21.2398 118.825C21.4814 116.902 21.7326 114.988 21.9935 113.075C22.1675 111.809 22.3414 110.553 22.5347 109.287C22.5734 109.016 22.6023 108.736 22.6797 108.465C23.2788 106.359 24.1389 104.31 24.4384 102.145C24.6221 100.792 24.5834 99.4201 24.8057 98.0769C24.8926 97.555 25.0086 97.0332 24.9796 96.5113L24.9506 96.521Z" fill="#333333"/>
<path d="M26.1876 140.143C26.1683 140.877 26.2746 141.602 26.6418 142.182C27.0863 142.897 28.043 143.177 28.8741 143.003C29.5506 142.858 30.169 142.453 30.8648 142.404C31.2804 142.375 31.6862 142.482 32.0824 142.578C33.9089 143.032 35.745 143.429 37.6004 143.69C38.2769 143.786 39.0306 143.767 39.6878 143.564C40.9441 143.187 43.0314 141.486 41.6688 140.124C41.3499 139.805 40.9247 139.631 40.4995 139.466C38.9437 138.867 37.3588 138.355 35.7643 137.872C34.3244 137.437 32.8749 137.022 31.3867 136.751C30.6522 136.616 29.9081 136.529 29.1543 136.49C28.7001 136.471 27.8981 136.712 27.6758 136.219C26.9703 136.558 26.6514 137.505 26.4775 138.201C26.3325 138.78 26.1972 139.466 26.1779 140.143H26.1876Z" fill="#9996FF"/>
<path d="M32.9522 135.852C32.8652 134.77 32.295 113.674 33.0005 104.252C33.0971 103.005 33.1454 101.759 33.1358 100.512C33.0971 96.521 32.4593 92.5202 31.9471 88.5677C31.8602 87.8623 31.7442 87.1182 31.2707 86.5963C31.6766 87.0409 30.0144 88.9446 29.6665 89.1862C28.9804 89.6694 28.0913 89.9593 27.2506 89.9593C25.8397 89.998 24.4674 89.4858 23.2015 88.848C22.1578 88.3261 21.1528 87.7077 20.0801 87.2341C19.6356 87.0312 19.1427 87.0119 18.7175 86.8379C18.4566 86.722 18.2633 86.4321 18.0217 86.2774C17.7125 86.0745 17.326 85.9392 16.9974 85.7653C16.8911 85.7073 16.7751 85.659 16.6688 85.7073C16.5819 85.7459 16.5335 85.8426 16.4949 85.9295C15.7991 87.6014 15.6831 89.4858 15.9924 91.2736C16.3982 93.6025 17.355 95.8638 19.1524 97.41C20.0221 98.1638 20.9595 98.8886 21.5587 99.8936C22.0708 100.754 22.3028 101.749 22.5057 102.725C23.1918 105.972 23.7233 109.248 24.1485 112.543C24.5544 115.703 24.3708 118.873 24.6994 122.043C24.9506 124.497 25.3758 126.933 25.7141 129.387C25.9556 131.078 26.1586 132.77 26.3229 134.461C26.4098 135.321 26.4775 136.181 26.5451 137.041C26.5935 137.64 26.6998 137.998 27.2409 138.326C27.7048 138.616 28.2943 138.684 28.8354 138.693C30.2173 138.713 31.6186 138.423 32.7975 137.708C33.1358 137.505 33.1358 137.36 33.0681 137.041C32.9908 136.654 32.9908 136.248 32.9618 135.862L32.9522 135.852Z" fill="#424242"/>
<path d="M14.3689 53.3629C13.3155 53.5465 12.3685 54.0007 11.7017 55.0347C11.3151 55.6339 11.0832 56.3104 10.8996 57.0061C10.2231 59.6057 10.3488 62.1569 10.9672 64.7371C11.3924 66.5056 12.0786 68.1871 12.6777 69.8975C13.1512 71.2311 13.5668 72.5937 13.9823 73.9466C14.5428 75.7634 15.1033 77.5995 15.2386 79.4936C15.3836 81.5133 15.026 83.5233 14.6974 85.5141C14.5331 86.5094 14.3592 87.5145 14.2626 88.5195C14.2239 88.935 14.05 89.4472 14.079 89.8627C14.1079 90.3073 14.4848 90.7808 14.7651 91.0997C15.4415 91.8631 16.3693 92.3753 17.3066 92.7425C18.7272 93.303 20.2541 93.6219 21.7809 93.6896C23.1918 93.7572 24.6027 93.6123 26.0136 93.448C27.9947 93.2064 30.0241 92.8971 31.7732 91.9211C32.1501 91.7085 32.3627 91.5249 32.3337 91.09C31.9955 86.8573 32.1694 82.6053 32.4593 78.3823C32.7492 74.1206 33.1551 69.8685 33.3001 65.5972C33.3387 64.3119 33.3774 63.017 33.3677 61.7317C33.3677 61.0939 33.2807 60.4368 33.3001 59.799C33.3194 59.2675 33.2517 58.8616 32.7492 58.5427C32.3723 58.3011 31.9181 58.2141 31.4929 58.0885C29.9854 57.6439 28.6808 56.6872 27.2602 56.0204C26.2456 55.5469 25.1825 55.2087 24.1099 54.8898C21.8196 54.194 19.4906 53.5272 17.094 53.3436C16.1856 53.276 15.2483 53.2276 14.3785 53.3823L14.3689 53.3629Z" fill="#D9D9D9"/>
<path d="M27.4729 40.6357C27.8594 41.4475 28.13 42.3269 28.6422 43.071C28.9224 43.4769 29.2703 43.8441 29.6375 44.1823C29.7342 44.279 29.8405 44.3756 29.8695 44.5109C29.9468 44.7911 29.6762 45.0327 29.5119 45.284C29.106 45.8928 29.3573 46.6949 29.5506 47.4003C29.6955 47.9222 29.7921 48.4633 29.8598 49.0045C29.8984 49.3524 29.9178 49.739 29.7342 50.0385C29.3669 50.6473 28.4875 50.599 27.8304 50.8696C26.7674 51.3045 26.3615 52.5608 26.0716 53.6721C25.917 54.2809 25.7527 54.8897 25.5981 55.5082C24.1872 55.4116 22.7763 55.7691 21.3654 55.6918C20.2347 55.6242 19.1234 55.2763 18.157 54.6771C17.8768 54.5032 17.5676 54.2133 17.6545 53.8944C17.6835 53.7977 17.7415 53.7107 17.7898 53.6334C18.5533 52.4255 18.1087 50.8116 17.326 49.623C16.5432 48.4344 15.4512 47.4487 14.7941 46.1827C13.2769 43.2643 14.5428 39.5631 17.4419 38.0749C18.418 37.5724 19.5003 37.2921 20.5826 37.0892C21.5393 36.9056 22.525 36.7799 23.4914 36.9152C24.2645 37.0215 25.1826 37.2245 25.7237 37.8429C26.4388 38.645 26.9993 39.6984 27.4632 40.6744L27.4729 40.6357Z" fill="#FFB78C"/>
<path d="M26.5065 42.0951C25.1536 43.0905 24.6221 44.9073 24.7187 46.5887C24.2065 46.3568 23.6847 46.1249 23.1242 46.0669C22.5637 46.0186 21.9549 46.1829 21.607 46.6177C21.2881 47.0236 21.2494 47.5648 21.1818 48.077C21.1045 48.7148 20.9692 49.3622 20.6889 49.9421C20.4087 50.5219 19.9738 51.0437 19.4037 51.3433C18.6789 51.7202 18.0991 51.0437 17.6642 50.5799C17.1713 50.0484 16.6688 49.5169 16.263 48.908C15.7411 48.1156 15.3352 47.2555 14.9584 46.3858C14.7264 45.835 14.4365 45.1972 14.3205 44.6077C14.1949 44.0085 14.021 43.3997 14.0403 42.7813C14.0596 42.1821 14.2529 41.583 14.6491 41.1288C14.8134 40.9451 15.1226 40.9548 15.3449 40.8872C15.8377 40.7325 16.3209 40.7519 16.8331 40.7615C18.0024 40.7712 19.1621 40.5489 20.2444 40.1044C20.9305 39.8242 21.578 39.4473 22.2834 39.2153C22.5927 39.109 22.9212 39.0317 23.2401 39.0994C23.8876 39.225 24.3708 39.8821 24.7187 40.3943C25.1922 41.0998 25.7527 41.6893 26.5161 42.0951H26.5065Z" fill="#733118"/>
<path d="M15.3159 42.24C15.5092 42.1723 15.7024 42.0854 15.8861 41.9887C15.973 41.9404 16.0697 41.8824 16.1663 41.8728C16.2629 41.8631 16.3789 41.8824 16.4755 41.8921C18.9205 42.124 21.4234 41.6795 23.6363 40.6261C24.622 40.1526 25.5787 39.5438 26.2069 38.6354C26.4968 38.2102 26.7094 37.6594 26.4968 37.1955C26.4002 36.9829 26.2262 36.8186 26.0523 36.6737C25.2598 36.0359 24.2548 35.717 23.2498 35.63C22.2448 35.543 21.2204 35.6977 20.2444 35.9296C18.302 36.3934 16.3789 37.3018 15.3352 39.0896C15.2676 39.2056 15.2096 39.3215 15.113 39.4085C15.0163 39.5052 14.8907 39.5631 14.7747 39.6404C14.2819 39.9497 14.0113 40.5102 13.8857 41.061C13.76 41.6312 13.7697 42.2496 13.9823 42.8005C14.0016 42.8585 14.0306 42.9068 14.05 42.9551C14.0983 42.7425 14.2819 42.5879 14.4752 42.5009C14.6684 42.4139 14.8907 42.3753 15.0936 42.3173C15.1709 42.298 15.2579 42.269 15.3352 42.24H15.3159Z" fill="#8C3C1D"/>
<path d="M58.8026 39.5341L58.0778 38.2682L60.9093 36.635C61.2572 36.4321 61.7017 36.5577 61.9046 36.9056C62.1076 37.2535 61.982 37.698 61.6341 37.9009L58.8026 39.5341Z" fill="white"/>
<path d="M50.1342 42.1432L59.0055 37.0504C59.1795 36.9538 59.4114 36.9635 59.6723 37.1181C60.1942 37.4177 60.6194 38.1521 60.6194 38.7512C60.6194 39.0508 60.5131 39.2634 60.3391 39.3697L51.4678 44.4625C51.6418 44.3659 51.7481 44.1533 51.7481 43.844C51.7481 43.2449 51.3229 42.5104 50.801 42.2109C50.5401 42.0659 50.3082 42.0466 50.1342 42.1432Z" fill="#80C5FF"/>
<path d="M49.854 42.7617C49.854 42.1625 50.2792 41.9113 50.801 42.2108C51.3229 42.5104 51.7481 43.2449 51.7481 43.844C51.7481 44.4432 51.3229 44.6944 50.801 44.3948C50.2792 44.0953 49.854 43.3608 49.854 42.7617Z" fill="#4D4BB7"/>
<path d="M59.2858 42.6846C59.2181 42.385 59.1311 42.0758 58.9572 41.8149C58.7833 41.554 58.5127 41.3414 58.2034 41.3124C58.1261 40.8389 57.5946 40.4813 57.1308 40.5876C57.1018 40.2784 56.8988 39.9981 56.6186 39.8628C56.5509 39.8338 56.4833 39.8048 56.4446 39.7469C56.3963 39.6695 56.4156 39.5729 56.4446 39.4859C56.4833 39.341 56.5123 39.1767 56.4833 39.0317C56.4543 38.8771 56.3383 38.7322 56.1837 38.7128C56.0581 38.6935 55.9421 38.7612 55.8262 38.8191C55.3623 39.0801 54.8888 39.341 54.4249 39.6019C54.3476 39.6502 54.2703 39.6889 54.2027 39.7565C54.135 39.8338 54.0964 39.9305 54.0577 40.0174C53.8451 40.5586 53.6325 41.0998 53.4199 41.6409C53.3039 41.9405 53.1783 42.2498 53.188 42.5687C53.188 42.8392 53.2749 43.1002 53.3619 43.3514C53.5165 43.8249 53.6808 44.2888 53.8354 44.7623C53.9707 45.1779 54.1157 45.5934 54.251 46.0089C54.5312 46.84 53.6808 49.5072 53.4586 50.058C52.4535 52.5513 51.2456 54.9575 49.854 57.2478C49.1002 58.4848 48.2885 59.6927 47.4284 60.862C47.1482 60.8234 46.8582 60.8041 46.578 60.7847C44.278 60.6301 41.9877 60.3885 39.7071 60.0503H38.9437C38.6441 60.2049 38.2962 60.1953 37.9676 60.2339C37.6391 60.2726 37.2719 60.4079 37.1366 60.7074C37.0399 60.9007 37.0592 61.1326 37.0882 61.3452C37.1559 61.8864 37.2525 62.4372 37.3782 62.9687C37.4071 63.0847 37.4361 63.2103 37.4168 63.3263C37.3975 63.4712 37.3008 63.5872 37.2139 63.6935C36.4794 64.5922 35.6387 65.3943 34.711 66.0901C35.9286 66.6313 37.2815 66.7956 38.6151 66.8922C41.8718 67.1338 45.1671 67.0275 48.4044 66.5733C49.1389 66.467 49.883 66.351 50.5788 66.0708C50.7624 65.9935 50.946 65.8872 51.0813 65.7422C51.2456 65.6069 51.3905 65.4426 51.5258 65.2687C53.1107 63.2297 54.077 60.7944 55.0337 58.3978C55.7488 56.581 56.4736 54.7642 57.0051 52.8895C57.3047 51.8265 58.5803 47.7291 58.648 47.5551C58.8026 47.2072 58.8896 46.811 59.0538 46.4631C59.2181 46.1152 59.3727 45.7867 59.4597 45.4001C59.6433 44.5014 59.5274 43.5544 59.3148 42.675L59.2858 42.6846Z" fill="#FFB78C"/>
<path d="M27.3375 64.4279C28.6228 66.4863 30.8358 67.9262 33.2324 68.361C34.0731 68.5156 34.9429 68.5446 35.774 68.361C37.1945 68.0614 38.2769 66.9115 39.1079 65.7808C39.6781 65.0077 40.1806 64.167 40.4609 63.2586C40.6445 62.6691 40.7508 62.012 40.7121 61.3742C40.6831 60.8137 40.6638 60.1372 40.0163 60.0213C39.1949 59.8763 38.3832 59.6637 37.5907 59.4124C35.774 58.8326 34.0248 58.0692 32.208 57.499C31.3093 57.2188 30.4009 56.9772 29.4732 56.8419C28.6132 56.7163 27.7724 56.6969 27.0573 57.3057C26.3615 57.8952 26.2069 58.6297 26.1392 59.4994C26.0523 60.6011 26.1972 61.7317 26.5548 62.7754C26.7481 63.3552 27.0186 63.9157 27.3375 64.4376V64.4279Z" fill="#F2F2F2"/>
</g>
<defs>
<clipPath id="clip0_249_1446">
<rect width="96.5114" height="150" fill="white" transform="translate(0.994293)"/>
</clipPath>
</defs>
</svg>
