<svg width="124" height="150" viewBox="0 0 124 150" fill="none" xmlns="http://www.w3.org/2000/svg">
<g clip-path="url(#clip0_249_1118)">
<path d="M123.199 120.485L96.3494 104.995L100.712 102.481C101.408 102.077 101.479 101.471 100.883 101.127L75.8513 86.7384C75.2454 86.3951 74.1953 86.4355 73.4985 86.8394L69.1768 89.3335L43.6803 74.6313C43.3269 74.4294 42.7109 74.4496 42.2969 74.6919L41.4083 75.2069C40.9943 75.4392 40.9539 75.8027 41.3074 76.0046L66.8038 90.7067L59.2003 95.0992C58.5036 95.5031 58.4329 96.109 59.0287 96.4523L84.0606 110.841C84.6665 111.185 85.7167 111.144 86.4134 110.74L93.9765 106.378L120.826 121.868C121.179 122.07 121.795 122.05 122.209 121.807L123.098 121.292C123.512 121.06 123.552 120.697 123.199 120.495V120.485Z" fill="#F2F2F2"/>
<path d="M98.0357 98.593L97.8035 99.8047L97.1875 100.976L95.7739 102.006L94.7641 102.743L90.1798 105.308L84.3232 108.994L61.957 96.0585C61.9065 96.008 61.8661 95.9272 61.8661 95.8263C61.8661 95.5738 62.0377 95.2709 62.2599 95.1497L73.0643 88.8892L73.549 88.6065C74.1347 88.2732 74.7002 87.6573 75.0435 86.9101C75.3868 86.183 75.4777 85.456 75.2959 84.9309L69.0455 66.9168L69.7927 66.21L92.1589 79.1349L92.0781 80.8212L94.653 87.728L96.6524 93.6553L97.9348 97.0582L98.0458 98.5829L98.0357 98.593Z" fill="#CCCCCC"/>
<path d="M95.7739 102.016L94.7641 102.753L90.1798 105.318L84.3232 109.004L61.957 96.0687C61.9065 96.0182 61.8661 95.9375 61.8661 95.8365C61.8661 95.584 62.0377 95.2811 62.2599 95.1599L73.0643 88.8994L95.784 102.016H95.7739Z" fill="#E6E6E6"/>
<path d="M95.895 102.46L84.6261 108.983C84.4141 109.105 84.2323 109.004 84.2323 108.761C84.2323 108.509 84.404 108.206 84.6261 108.085L95.9152 101.552C96.5009 101.218 97.0664 100.592 97.4097 99.8552C97.753 99.1181 97.8439 98.4012 97.6621 97.8761L91.4117 79.8619L92.1589 79.145L98.4093 97.1592C98.6618 97.8963 98.5507 98.8959 98.0963 99.9158C97.6116 101.016 96.7735 101.956 95.9051 102.45L95.895 102.46Z" fill="#A6A6A6"/>
<path d="M121.331 44.4799L44.7204 0.242248C44.2357 -0.040485 43.7914 -0.0606802 43.4784 0.121077L41.9435 1.00967C42.2667 0.827909 42.7009 0.848105 43.1855 1.13084L119.806 45.3685C120.776 45.9238 121.553 47.2769 121.553 48.3876L121.381 107.196C121.381 107.752 121.19 108.135 120.877 108.317L122.411 107.428C122.724 107.247 122.916 106.863 122.916 106.308L123.088 47.4991C123.088 46.3883 122.31 45.0352 121.341 44.4799H121.331Z" fill="#595959"/>
<path d="M122.936 95.9979L122.906 106.308C122.906 106.863 122.714 107.247 122.401 107.428L120.866 108.317C121.179 108.135 121.371 107.752 121.371 107.196L121.402 96.8764L122.936 95.9878V95.9979Z" fill="#BFBFBF"/>
<path d="M121.543 48.3877L121.381 107.196C121.381 108.307 120.594 108.751 119.624 108.196L43.0038 63.9683C42.0344 63.4129 41.2569 62.0598 41.2569 60.9491L41.4185 2.14061C41.4185 1.02987 42.2061 0.58558 43.1754 1.14095L119.786 45.3786C120.755 45.9339 121.533 47.287 121.533 48.3978L121.543 48.3877Z" fill="#333333"/>
<path d="M121.412 96.8865L121.381 107.196C121.381 108.307 120.594 108.751 119.624 108.196L43.0038 63.9682C42.0344 63.4129 41.2569 62.0598 41.2569 60.9491L41.2872 50.6394L121.402 96.8966L121.412 96.8865Z" fill="#D9D9D9"/>
<path d="M119.433 92.3021L44.0438 48.6602V5.03857L119.433 48.6804V92.3021Z" fill="#1A1A1A"/>
<path d="M52.4551 16.055L50.4255 14.8837C50.1024 14.6918 49.8398 14.187 49.8398 13.7528C49.8398 13.3186 50.1024 13.1166 50.4255 13.3085L52.4551 14.4798C52.7782 14.6716 53.0408 15.1765 53.0408 15.6107C53.0408 16.0449 52.7782 16.2469 52.4551 16.055Z" fill="#006EFF"/>
<path d="M52.4551 43.6517L50.4255 42.4804C50.1024 42.2885 49.8398 41.7836 49.8398 41.3494C49.8398 40.9152 50.1024 40.7133 50.4255 40.9051L52.4551 42.0765C52.7782 42.2683 53.0408 42.7732 53.0408 43.2074C53.0408 43.6416 52.7782 43.8436 52.4551 43.6517Z" fill="#006EFF"/>
<path d="M58.1704 46.9436L54.1111 44.601C53.788 44.4091 53.5255 43.9042 53.5255 43.47C53.5255 43.0359 53.788 42.8339 54.1111 43.0258L58.1704 45.3684C58.4935 45.5603 58.756 46.0651 58.756 46.4993C58.756 46.9335 58.4935 47.1355 58.1704 46.9436Z" fill="#B3D4FF"/>
<path d="M72.8119 55.4054L59.8365 47.913C59.5133 47.7211 59.2508 47.2163 59.2508 46.7821C59.2508 46.3479 59.5133 46.1459 59.8365 46.3378L72.8119 53.8302C73.135 54.022 73.3975 54.5269 73.3975 54.9611C73.3975 55.3953 73.135 55.5973 72.8119 55.4054Z" fill="#FFAD66"/>
<path d="M60.4727 20.6798L54.3232 17.1254C54.0001 16.9335 53.7375 16.4287 53.7375 15.9945C53.7375 15.5603 54.0001 15.3583 54.3232 15.5502L60.4727 19.1045C60.7958 19.2964 61.0583 19.8013 61.0583 20.2355C61.0583 20.6697 60.7958 20.8716 60.4727 20.6798Z" fill="#B3D4FF"/>
<path d="M80.8496 32.4434L62.3508 21.7602C62.0277 21.5683 61.7651 21.0634 61.7651 20.6292C61.7651 20.195 62.0277 19.9931 62.3508 20.1849L80.8496 30.8682C81.1727 31.0601 81.4353 31.5649 81.4353 31.9991C81.4353 32.4333 81.1727 32.6353 80.8496 32.4434Z" fill="#FFAD66"/>
<path d="M54.3736 19.8517L52.344 18.6803C52.0209 18.4885 51.7584 17.9836 51.7584 17.5494C51.7584 17.1152 52.0209 16.9132 52.344 17.1051L54.3736 18.2764C54.6968 18.4683 54.9593 18.9732 54.9593 19.4074C54.9593 19.8416 54.6968 20.0435 54.3736 19.8517Z" fill="#006EFF"/>
<path d="M62.3811 24.4764L56.2317 20.922C55.9085 20.7302 55.646 20.2253 55.646 19.7911C55.646 19.3569 55.9085 19.1549 56.2317 19.3468L62.3811 22.9012C62.7042 23.093 62.9668 23.5979 62.9668 24.0321C62.9668 24.4663 62.7042 24.6682 62.3811 24.4764Z" fill="#B3D4FF"/>
<path d="M82.7581 36.2401L64.2592 25.5568C63.9361 25.3649 63.6736 24.8601 63.6736 24.4259C63.6736 23.9917 63.9361 23.7897 64.2592 23.9816L82.7581 34.6648C83.0812 34.8567 83.3437 35.3616 83.3437 35.7958C83.3437 36.23 83.0812 36.4319 82.7581 36.2401Z" fill="#FFAD66"/>
<path d="M54.3736 22.7801L52.344 21.6088C52.0209 21.4169 51.7584 20.9121 51.7584 20.4779C51.7584 20.0437 52.0209 19.8417 52.344 20.0336L54.3736 21.2049C54.6968 21.3967 54.9593 21.9016 54.9593 22.3358C54.9593 22.77 54.6968 22.972 54.3736 22.7801Z" fill="#006EFF"/>
<path d="M54.3736 25.5467L52.344 24.3754C52.0209 24.1835 51.7584 23.6787 51.7584 23.2445C51.7584 22.8103 52.0209 22.6083 52.344 22.8002L54.3736 23.9715C54.6968 24.1633 54.9593 24.6682 54.9593 25.1024C54.9593 25.5366 54.6968 25.7386 54.3736 25.5467Z" fill="#006EFF"/>
<path d="M54.3736 36.735L52.344 35.5636C52.0209 35.3718 51.7584 34.8669 51.7584 34.4327C51.7584 33.9985 52.0209 33.7965 52.344 33.9884L54.3736 35.1597C54.6968 35.3516 54.9593 35.8565 54.9593 36.2907C54.9593 36.7249 54.6968 36.9268 54.3736 36.735Z" fill="#006EFF"/>
<path d="M54.3736 39.4613L52.344 38.2899C52.0209 38.0981 51.7584 37.5932 51.7584 37.159C51.7584 36.7248 52.0209 36.5229 52.344 36.7147L54.3736 37.886C54.6968 38.0779 54.9593 38.5828 54.9593 39.017C54.9593 39.4512 54.6968 39.6531 54.3736 39.4613Z" fill="#006EFF"/>
<path d="M54.3736 47.2264L52.344 46.0551C52.0209 45.8632 51.7584 45.3584 51.7584 44.9242C51.7584 44.49 52.0209 44.288 52.344 44.4799L54.3736 45.6512C54.6968 45.843 54.9593 46.3479 54.9593 46.7821C54.9593 47.2163 54.6968 47.4183 54.3736 47.2264Z" fill="#006EFF"/>
<path d="M59.9173 50.4272L55.9691 48.1452C55.646 47.9533 55.3834 47.4484 55.3834 47.0142C55.3834 46.58 55.646 46.3781 55.9691 46.5699L59.9173 48.852C60.2404 49.0439 60.5029 49.5487 60.5029 49.9829C60.5029 50.4171 60.2404 50.6191 59.9173 50.4272Z" fill="#B3D4FF"/>
<path d="M75.2151 59.2627L61.7247 51.4774C61.4016 51.2856 61.139 50.7807 61.139 50.3465C61.139 49.9123 61.4016 49.7104 61.7247 49.9022L75.2151 57.6875C75.5382 57.8793 75.8008 58.3842 75.8008 58.8184C75.8008 59.2526 75.5382 59.4546 75.2151 59.2627Z" fill="#FFAD66"/>
<path d="M82.445 55.6681L80.4154 54.4967C80.0923 54.3049 79.8297 53.8 79.8297 53.3658C79.8297 52.9316 80.0923 52.7297 80.4154 52.9215L82.445 54.0928C82.7681 54.2847 83.0307 54.7896 83.0307 55.2238C83.0307 55.658 82.7681 55.8599 82.445 55.6681Z" fill="#006EFF"/>
<path d="M53.2225 27.3441L51.1929 26.1728C50.8698 25.9809 50.6072 25.476 50.6072 25.0418C50.6072 24.6076 50.8698 24.4057 51.1929 24.5975L53.2225 25.7689C53.5456 25.9607 53.8082 26.4656 53.8082 26.8998C53.8082 27.334 53.5456 27.5359 53.2225 27.3441Z" fill="#006EFF"/>
<path d="M58.8368 30.5856L54.9593 28.3439C54.6362 28.152 54.3737 27.6472 54.3737 27.213C54.3737 26.7788 54.6362 26.5768 54.9593 26.7687L58.8368 29.0103C59.1599 29.2022 59.4225 29.7071 59.4225 30.1413C59.4225 30.5755 59.1599 30.7774 58.8368 30.5856Z" fill="#B3D4FF"/>
<path d="M79.7086 42.6319L76.9721 41.0465C76.649 40.8547 76.3865 40.3498 76.3865 39.9156C76.3865 39.4814 76.649 39.2795 76.9721 39.4713L79.7086 41.0566C80.0317 41.2485 80.2942 41.7534 80.2942 42.1876C80.2942 42.6218 80.0317 42.8237 79.7086 42.6319Z" fill="#B3D4FF"/>
<path d="M66.9048 35.2404L60.5938 31.5951C60.2707 31.4033 60.0081 30.8984 60.0081 30.4642C60.0081 30.03 60.2707 29.828 60.5938 30.0199L66.9048 33.6651C67.2279 33.857 67.4904 34.3619 67.4904 34.7961C67.4904 35.2303 67.2279 35.4322 66.9048 35.2404Z" fill="#FFAD66"/>
<path d="M53.2225 30.3836L51.1929 29.2123C50.8698 29.0205 50.6072 28.5156 50.6072 28.0814C50.6072 27.6472 50.8698 27.4452 51.1929 27.6371L53.2225 28.8084C53.5456 29.0003 53.8082 29.5051 53.8082 29.9393C53.8082 30.3735 53.5456 30.5755 53.2225 30.3836Z" fill="#006EFF"/>
<path d="M53.2225 41.4505L51.1929 40.2792C50.8698 40.0873 50.6072 39.5825 50.6072 39.1483C50.6072 38.7141 50.8698 38.5121 51.1929 38.704L53.2225 39.8753C53.5456 40.0672 53.8082 40.572 53.8082 41.0062C53.8082 41.4404 53.5456 41.6424 53.2225 41.4505Z" fill="#006EFF"/>
<path d="M58.8368 33.6149L54.9593 31.3732C54.6362 31.1813 54.3737 30.6765 54.3737 30.2423C54.3737 29.8081 54.6362 29.6061 54.9593 29.798L58.8368 32.0396C59.1599 32.2315 59.4225 32.7364 59.4225 33.1706C59.4225 33.6048 59.1599 33.8067 58.8368 33.6149Z" fill="#B3D4FF"/>
<path d="M58.8368 42.0363L56.2619 40.5519C55.9388 40.3601 55.6763 39.8552 55.6763 39.421C55.6763 38.9868 55.9388 38.7848 56.2619 38.9767L58.8368 40.461C59.1599 40.6529 59.4225 41.1578 59.4225 41.592C59.4225 42.0262 59.1599 42.2281 58.8368 42.0363Z" fill="#B3D4FF"/>
<path d="M69.8634 48.3976L67.2885 46.9132C66.9654 46.7214 66.7029 46.2165 66.7029 45.7823C66.7029 45.3481 66.9654 45.1462 67.2885 45.338L69.8634 46.8224C70.1866 47.0142 70.4491 47.5191 70.4491 47.9533C70.4491 48.3875 70.1866 48.5894 69.8634 48.3976Z" fill="#B3D4FF"/>
<path d="M87.4837 53.2547L53.2831 33.5138C52.96 33.322 52.6974 32.8171 52.6974 32.3829C52.6974 31.9487 52.96 31.7467 53.2831 31.9386L87.4837 51.6794C87.8068 51.8713 88.0694 52.3762 88.0694 52.8104C88.0694 53.2446 87.8068 53.4465 87.4837 53.2547Z" fill="#F2F2F2"/>
<path d="M65.4609 37.4417L60.5837 34.6244C60.2606 34.4326 59.998 33.9277 59.998 33.4935C59.998 33.0593 60.2606 32.8573 60.5837 33.0492L65.4609 35.8664C65.784 36.0583 66.0465 36.5632 66.0465 36.9974C66.0465 37.4316 65.784 37.6335 65.4609 37.4417Z" fill="#FFAD66"/>
<path d="M65.4609 45.8633L60.5837 43.0461C60.2606 42.8542 59.998 42.3493 59.998 41.9151C59.998 41.4809 60.2606 41.279 60.5837 41.4708L65.4609 44.2881C65.784 44.4799 66.0465 44.9848 66.0465 45.419C66.0465 45.8532 65.784 46.0551 65.4609 45.8633Z" fill="#FFAD66"/>
<path d="M78.5978 53.4464L71.7113 49.4679C71.3881 49.2761 71.1256 48.7712 71.1256 48.337C71.1256 47.9028 71.3881 47.7008 71.7113 47.8927L78.5978 51.8712C78.921 52.063 79.1835 52.5679 79.1835 53.0021C79.1835 53.4363 78.921 53.6382 78.5978 53.4464Z" fill="#F2F2F2"/>
<path d="M75.2757 40.0773L68.9647 36.432C68.6416 36.2402 68.379 35.7353 68.379 35.3011C68.379 34.8669 68.6416 34.665 68.9647 34.8568L75.2757 38.502C75.5988 38.6939 75.8614 39.1988 75.8614 39.633C75.8614 40.0672 75.5988 40.2691 75.2757 40.0773Z" fill="#F2F2F2"/>
<path d="M62.3811 27.4049L56.2317 23.8505C55.9085 23.6586 55.646 23.1538 55.646 22.7196C55.646 22.2854 55.9085 22.0834 56.2317 22.2753L62.3811 25.8296C62.7042 26.0215 62.9668 26.5264 62.9668 26.9606C62.9668 27.3948 62.7042 27.5967 62.3811 27.4049Z" fill="#B3D4FF"/>
<path d="M75.6089 35.0386L69.4595 31.4843C69.1364 31.2924 68.8738 30.7875 68.8738 30.3534C68.8738 29.9192 69.1364 29.7172 69.4595 29.9091L75.6089 33.4634C75.9321 33.6553 76.1946 34.1601 76.1946 34.5943C76.1946 35.0285 75.9321 35.2305 75.6089 35.0386Z" fill="#B3D4FF"/>
<path d="M67.3794 30.2826L64.2693 28.4853C63.9462 28.2934 63.6837 27.7885 63.6837 27.3543C63.6837 26.9201 63.9462 26.7182 64.2693 26.91L67.3794 28.7074C67.7025 28.8993 67.965 29.4041 67.965 29.8383C67.965 30.2725 67.7025 30.4745 67.3794 30.2826Z" fill="#FFAD66"/>
<path d="M87.726 42.0362L77.6789 36.2401C77.3558 36.0483 77.0933 35.5434 77.0933 35.1092C77.0933 34.675 77.3558 34.4731 77.6789 34.6649L87.726 40.4609C88.0492 40.6528 88.3117 41.1577 88.3117 41.5919C88.3117 42.0261 88.0492 42.228 87.726 42.0362Z" fill="#FFAD66"/>
<path d="M54.3736 49.7003L52.344 48.529C52.0209 48.3371 51.7584 47.8322 51.7584 47.398C51.7584 46.9638 52.0209 46.7619 52.344 46.9537L54.3736 48.1251C54.6968 48.3169 54.9593 48.8218 54.9593 49.256C54.9593 49.6902 54.6968 49.8921 54.3736 49.7003Z" fill="#006EFF"/>
<path d="M62.3811 54.325L56.2317 50.7707C55.9085 50.5788 55.646 50.0739 55.646 49.6397C55.646 49.2055 55.9085 49.0036 56.2317 49.1954L62.3811 52.7498C62.7042 52.9416 62.9668 53.4465 62.9668 53.8807C62.9668 54.3149 62.7042 54.5169 62.3811 54.325Z" fill="#B3D4FF"/>
<path d="M75.6089 61.9588L69.4595 58.4045C69.1364 58.2126 68.8738 57.7077 68.8738 57.2735C68.8738 56.8393 69.1364 56.6374 69.4595 56.8292L75.6089 60.3836C75.9321 60.5754 76.1946 61.0803 76.1946 61.5145C76.1946 61.9487 75.9321 62.1507 75.6089 61.9588Z" fill="#B3D4FF"/>
<path d="M67.3794 57.2128L64.2693 55.4154C63.9462 55.2236 63.6837 54.7187 63.6837 54.2845C63.6837 53.8503 63.9462 53.6484 64.2693 53.8402L67.3794 55.6376C67.7025 55.8294 67.965 56.3343 67.965 56.7685C67.965 57.2027 67.7025 57.4047 67.3794 57.2128Z" fill="#FFAD66"/>
<path d="M87.726 68.9666L77.6789 63.1706C77.3558 62.9787 77.0933 62.4738 77.0933 62.0396C77.0933 61.6054 77.3558 61.4035 77.6789 61.5953L87.726 67.3914C88.0492 67.5832 88.3117 68.0881 88.3117 68.5223C88.3117 68.9565 88.0492 69.1584 87.726 68.9666Z" fill="#FFAD66"/>
<path d="M55.1512 132.299L0.371651 100.683C-0.0827419 100.421 -0.0221562 99.9662 0.502919 99.6632L20.7991 87.95C21.3242 87.6471 22.1118 87.6168 22.5662 87.8793L77.3356 119.505C77.79 119.768 77.7294 120.222 77.2044 120.525L56.9082 132.238C56.3831 132.541 55.5955 132.571 55.1411 132.309L55.1512 132.299Z" fill="#F2F2F2"/>
<path d="M73.7611 116.314V117.092L23.4043 88.0207C22.9701 87.7683 22.2229 87.7986 21.7281 88.0914L4.08757 98.2799V97.7447H2.04785L2.06805 99.7542C2.06805 99.9056 2.14883 100.057 2.34068 100.168L54.303 130.168C54.7372 130.421 55.4844 130.39 55.9792 130.097L75.2353 118.98C75.4979 118.829 75.6291 118.637 75.6392 118.445V116.425L73.751 116.294L73.7611 116.314Z" fill="#BFBFBF"/>
<path d="M54.3131 128.129L2.3508 98.1285C1.9166 97.8761 1.97719 97.4419 2.47197 97.1592L21.7281 86.0417C22.2229 85.7589 22.9802 85.7287 23.4043 85.971L75.3666 115.971C75.8008 116.223 75.7402 116.658 75.2455 116.94L55.9893 128.058C55.4945 128.341 54.7372 128.371 54.3131 128.129Z" fill="#D9D9D9"/>
<path d="M25.7873 88.4349L24.0909 89.4245C23.9698 89.4951 23.7779 89.4951 23.6567 89.4245L20.8294 87.7887C20.7688 87.7584 20.7385 87.7079 20.7385 87.6675V87.9704C20.7385 87.9704 20.7688 88.0613 20.8294 88.0916L23.6567 89.7274C23.7779 89.7981 23.9698 89.7981 24.0909 89.7274L25.7873 88.7378C25.8479 88.7075 25.8782 88.657 25.8782 88.6167V88.3137C25.8782 88.3137 25.8479 88.4046 25.7873 88.4349Z" fill="#1F2125"/>
<path d="M25.7873 88.1825C25.9085 88.2532 25.9085 88.3642 25.7873 88.4349L24.0909 89.4245C23.9698 89.4952 23.7779 89.4952 23.6567 89.4245L20.8294 87.7887C20.7082 87.718 20.7082 87.6069 20.8294 87.5362L22.5258 86.5467C22.647 86.476 22.8388 86.476 22.96 86.5467L25.7873 88.1825Z" fill="#4D4D4D"/>
<path d="M23.1013 89.8285L20.5163 91.333C20.375 91.4138 20.1528 91.4138 20.0115 91.333L17.4063 89.8285C17.3356 89.7881 17.3053 89.7376 17.3053 89.677V89.9799C17.3053 90.0304 17.3356 90.091 17.4063 90.1314L20.0115 91.6359C20.1528 91.7167 20.375 91.7167 20.5163 91.6359L23.1013 90.1314C23.172 90.091 23.2023 90.0405 23.2023 89.99V89.6871C23.2023 89.7376 23.172 89.7881 23.1013 89.8285Z" fill="#1F2125"/>
<path d="M23.0912 89.5356C23.2326 89.6164 23.2326 89.7476 23.0912 89.8284L20.5063 91.333C20.3649 91.4137 20.1427 91.4137 20.0014 91.333L17.3962 89.8284C17.2548 89.7476 17.2548 89.6164 17.3962 89.5356L19.9812 88.031C20.1225 87.9503 20.3447 87.9503 20.4861 88.031L23.0912 89.5356Z" fill="#4D4D4D"/>
<path d="M29.2609 90.4343L27.5544 91.4238C27.4332 91.4945 27.2515 91.4945 27.1303 91.4238L24.4141 89.8587C24.3535 89.8284 24.3232 89.7779 24.3232 89.7375V90.0405C24.3232 90.0405 24.3535 90.1314 24.4141 90.1616L27.1303 91.7268C27.2515 91.7975 27.4332 91.7975 27.5544 91.7268L29.2609 90.7372C29.3215 90.7069 29.3518 90.6564 29.3518 90.616V90.3131C29.3518 90.3131 29.3215 90.404 29.2609 90.4343Z" fill="#1F2125"/>
<path d="M29.2609 90.1919C29.3821 90.2626 29.3821 90.3736 29.2609 90.4342L27.5544 91.4238C27.4332 91.4945 27.2515 91.4945 27.1303 91.4238L24.4141 89.8587C24.2929 89.788 24.2929 89.6769 24.4141 89.6163L26.1206 88.6267C26.2417 88.5561 26.4235 88.5561 26.5447 88.6267L29.2609 90.1919Z" fill="#4D4D4D"/>
<path d="M26.7062 91.9085L24.1212 93.4131C23.9799 93.4939 23.7577 93.4939 23.6163 93.4131L21.0112 91.9085C20.9405 91.8681 20.9001 91.8177 20.9001 91.7571V92.06C20.9001 92.1105 20.9304 92.1711 21.0112 92.2115L23.6163 93.716C23.7577 93.7968 23.99 93.7968 24.1212 93.716L26.7062 92.2115C26.7769 92.1711 26.8072 92.1206 26.8072 92.0701V91.7672C26.8072 91.8177 26.7769 91.8681 26.7062 91.9085Z" fill="#1F2125"/>
<path d="M26.6961 91.6157C26.8375 91.6965 26.8375 91.8277 26.6961 91.9085L24.1111 93.413C23.9697 93.4938 23.7476 93.4938 23.6062 93.413L21.001 91.9085C20.8597 91.8277 20.8597 91.6965 21.001 91.6157L23.586 90.1111C23.7274 90.0303 23.9495 90.0303 24.0909 90.1111L26.6961 91.6157Z" fill="#4D4D4D"/>
<path d="M32.7951 92.4741L31.0886 93.4636C30.9674 93.5343 30.7856 93.5343 30.6645 93.4636L27.9583 91.8985C27.8977 91.8682 27.8674 91.8177 27.8674 91.7773V92.0803C27.8674 92.0803 27.8977 92.1711 27.9583 92.2014L30.6645 93.7666C30.7856 93.8373 30.9674 93.8373 31.0886 93.7666L32.7951 92.777C32.8557 92.7467 32.8859 92.6962 32.8859 92.6558V92.3529C32.8859 92.3529 32.8557 92.4438 32.7951 92.4741Z" fill="#1F2125"/>
<path d="M32.7951 92.2317C32.9162 92.3023 32.9162 92.4134 32.7951 92.474L31.0886 93.4636C30.9674 93.5343 30.7856 93.5343 30.6645 93.4636L27.9583 91.8984C27.8371 91.8278 27.8371 91.7167 27.9583 91.6561L29.6648 90.6665C29.786 90.5959 29.9677 90.5959 30.0889 90.6665L32.7951 92.2317Z" fill="#4D4D4D"/>
<path d="M36.3292 94.5236L34.6227 95.5132C34.5015 95.5839 34.3097 95.5839 34.1986 95.5132L31.4824 93.9481C31.4218 93.9178 31.3915 93.8673 31.3915 93.8269V94.1298C31.3915 94.1298 31.4218 94.2207 31.4824 94.251L34.1986 95.8161C34.3198 95.8868 34.5116 95.8868 34.6227 95.8161L36.3292 94.8266C36.3898 94.7963 36.4201 94.7458 36.4201 94.7054V94.4025C36.4201 94.4025 36.3898 94.4933 36.3292 94.5236Z" fill="#1F2125"/>
<path d="M36.3292 94.2712C36.4504 94.3419 36.4504 94.453 36.3292 94.5136L34.6227 95.5031C34.5015 95.5738 34.3097 95.5738 34.1986 95.5031L31.4824 93.938C31.3612 93.8673 31.3612 93.7562 31.4824 93.6957L33.1889 92.7061C33.31 92.6354 33.4918 92.6354 33.613 92.7061L36.3292 94.2712Z" fill="#4D4D4D"/>
<path d="M39.8735 96.5634L38.167 97.553C38.0458 97.6237 37.864 97.6237 37.7429 97.553L35.0266 95.9879C34.966 95.9576 34.9357 95.9071 34.9357 95.8667V96.1696C34.9357 96.1696 34.966 96.2605 35.0266 96.2908L37.7429 97.8559C37.864 97.9266 38.0458 97.9266 38.167 97.8559L39.8735 96.8664C39.934 96.8361 39.9643 96.7856 39.9643 96.7452V96.4423C39.9643 96.4423 39.934 96.5331 39.8735 96.5634Z" fill="#1F2125"/>
<path d="M39.8735 96.311C39.9946 96.3817 39.9946 96.4928 39.8735 96.5534L38.167 97.5429C38.0458 97.6136 37.864 97.6136 37.7429 97.5429L35.0266 95.9778C34.9054 95.9071 34.9054 95.796 35.0266 95.7354L36.7331 94.7459C36.8543 94.6752 37.036 94.6752 37.1572 94.7459L39.8735 96.311Z" fill="#4D4D4D"/>
<path d="M43.4077 98.6032L41.7012 99.5928C41.58 99.6635 41.3983 99.6635 41.2771 99.5928L38.5709 98.0277C38.5103 97.9974 38.48 97.9469 38.48 97.9065V98.2094C38.48 98.2094 38.5103 98.3003 38.5709 98.3306L41.2771 99.8957C41.3983 99.9664 41.58 99.9664 41.7012 99.8957L43.4077 98.9062C43.4683 98.8759 43.4986 98.8254 43.4986 98.785V98.4821C43.4986 98.4821 43.4683 98.5729 43.4077 98.6032Z" fill="#1F2125"/>
<path d="M43.4077 98.3508C43.5288 98.4215 43.5288 98.5326 43.4077 98.5932L41.7012 99.5827C41.58 99.6534 41.3983 99.6534 41.2771 99.5827L38.5709 98.0176C38.4497 97.9469 38.4497 97.8358 38.5709 97.7752L40.2774 96.7857C40.3986 96.715 40.5803 96.715 40.7015 96.7857L43.4077 98.3508Z" fill="#4D4D4D"/>
<path d="M46.9418 100.643L45.2353 101.633C45.1142 101.703 44.9324 101.703 44.8112 101.633L42.095 100.067C42.0344 100.037 42.0041 99.9867 42.0041 99.9463V100.249C42.0041 100.249 42.0344 100.34 42.095 100.37L44.8112 101.936C44.9324 102.006 45.1142 102.006 45.2353 101.936L46.9418 100.946C47.0024 100.916 47.0327 100.865 47.0327 100.825V100.522C47.0327 100.522 47.0024 100.613 46.9418 100.643Z" fill="#1F2125"/>
<path d="M46.9418 100.401C47.063 100.471 47.063 100.582 46.9418 100.643L45.2353 101.633C45.1142 101.703 44.9324 101.703 44.8112 101.633L42.095 100.067C41.9738 99.9967 41.9738 99.8856 42.095 99.8251L43.8015 98.8355C43.9226 98.7648 44.1044 98.7648 44.2256 98.8355L46.9418 100.401Z" fill="#4D4D4D"/>
<path d="M50.476 102.683L48.7695 103.672C48.6483 103.743 48.4665 103.743 48.3454 103.672L45.6392 102.107C45.5786 102.077 45.5483 102.026 45.5483 101.986V102.289C45.5483 102.289 45.5786 102.38 45.6392 102.41L48.3454 103.975C48.4665 104.046 48.6584 104.046 48.7695 103.975L50.476 102.986C50.5366 102.955 50.5668 102.905 50.5668 102.865V102.562C50.5668 102.562 50.5366 102.653 50.476 102.683Z" fill="#1F2125"/>
<path d="M50.476 102.44C50.5971 102.511 50.5971 102.622 50.476 102.683L48.7695 103.672C48.6483 103.743 48.4665 103.743 48.3454 103.672L45.6392 102.107C45.518 102.037 45.518 101.925 45.6392 101.865L47.3457 100.875C47.4669 100.805 47.6486 100.805 47.7698 100.875L50.476 102.44Z" fill="#4D4D4D"/>
<path d="M54.0101 104.722L52.3036 105.712C52.1825 105.783 52.0007 105.783 51.8795 105.712L49.1633 104.147C49.1027 104.117 49.0724 104.066 49.0724 104.026V104.329C49.0724 104.329 49.1027 104.419 49.1633 104.45L51.8795 106.015C52.0007 106.086 52.1825 106.086 52.3036 106.015L54.0101 105.025C54.0707 104.995 54.101 104.945 54.101 104.904V104.601C54.101 104.601 54.0707 104.692 54.0101 104.722Z" fill="#1F2125"/>
<path d="M54.0101 104.48C54.1313 104.551 54.1313 104.652 54.0101 104.722L52.3036 105.712C52.1825 105.783 52.0007 105.783 51.8795 105.712L49.1633 104.147C49.0421 104.076 49.0421 103.965 49.1633 103.904L50.8698 102.915C50.9909 102.844 51.1727 102.844 51.2939 102.915L54.0101 104.48Z" fill="#4D4D4D"/>
<path d="M57.5544 106.772L55.8479 107.762C55.7267 107.832 55.545 107.832 55.4238 107.762L52.7176 106.197C52.6571 106.166 52.6268 106.116 52.6268 106.075V106.378C52.6268 106.378 52.6571 106.469 52.7176 106.5L55.4238 108.065C55.545 108.135 55.7267 108.135 55.8479 108.065L57.5544 107.075C57.615 107.045 57.6453 106.994 57.6453 106.954V106.651C57.6453 106.651 57.615 106.742 57.5544 106.772Z" fill="#1F2125"/>
<path d="M57.5443 106.52C57.6655 106.59 57.6655 106.702 57.5443 106.762L55.8378 107.752C55.7167 107.822 55.5349 107.822 55.4137 107.752L52.7076 106.187C52.5864 106.116 52.5864 106.005 52.7076 105.944L54.4141 104.955C54.5352 104.884 54.717 104.884 54.8382 104.955L57.5443 106.52Z" fill="#4D4D4D"/>
<path d="M61.0885 108.812L59.3821 109.802C59.2609 109.872 59.069 109.872 58.958 109.802L56.2417 108.236C56.1811 108.206 56.1508 108.156 56.1508 108.115V108.418C56.1508 108.418 56.1811 108.509 56.2417 108.539L58.958 110.104C59.0791 110.175 59.2609 110.175 59.3821 110.104L61.0885 109.115C61.1491 109.085 61.1794 109.034 61.1794 108.994V108.691C61.1794 108.691 61.1491 108.782 61.0885 108.812Z" fill="#1F2125"/>
<path d="M61.0885 108.56C61.2097 108.63 61.2097 108.741 61.0885 108.802L59.3821 109.791C59.2609 109.862 59.069 109.862 58.958 109.791L56.2417 108.226C56.1205 108.156 56.1205 108.045 56.2417 107.984L57.9482 106.994C58.0694 106.924 58.2511 106.924 58.3723 106.994L61.0885 108.56Z" fill="#4D4D4D"/>
<path d="M64.6227 110.852L62.9162 111.841C62.7951 111.912 62.6133 111.912 62.4921 111.841L59.7759 110.276C59.7153 110.246 59.685 110.195 59.685 110.155V110.458C59.685 110.458 59.7153 110.549 59.7759 110.579L62.4921 112.144C62.6133 112.215 62.7951 112.215 62.9162 112.144L64.6227 111.155C64.6833 111.124 64.7136 111.074 64.7136 111.034V110.731C64.7136 110.731 64.6833 110.821 64.6227 110.852Z" fill="#1F2125"/>
<path d="M64.6227 110.609C64.7439 110.68 64.7439 110.791 64.6227 110.852L62.9162 111.841C62.7951 111.912 62.6133 111.912 62.4921 111.841L59.7759 110.276C59.6547 110.205 59.6547 110.094 59.7759 110.034L61.4824 109.044C61.6035 108.974 61.7954 108.974 61.9065 109.044L64.6227 110.609Z" fill="#4D4D4D"/>
<path d="M63.3706 112.558V112.255C63.3706 112.316 63.411 112.377 63.4918 112.427V112.73C63.411 112.679 63.3706 112.619 63.3706 112.558Z" fill="#1F2125"/>
<path d="M71.0145 114.396V114.699C71.0145 114.76 70.9741 114.82 70.8933 114.871V114.568C70.9741 114.517 71.0145 114.457 71.0145 114.396Z" fill="#1F2125"/>
<path d="M70.8933 114.568V114.871L69.3484 115.769V115.466L70.8933 114.568Z" fill="#1F2125"/>
<path d="M68.7627 115.466V115.769L63.4918 112.72V112.417L68.7627 115.466Z" fill="#1F2125"/>
<path d="M69.3484 115.466V115.769C69.1868 115.86 68.9243 115.86 68.7728 115.769V115.466C68.9344 115.557 69.1969 115.557 69.3484 115.466Z" fill="#1F2125"/>
<path d="M70.8933 114.224C71.0549 114.315 71.0549 114.467 70.8933 114.558L69.3383 115.456C69.1767 115.547 68.9243 115.547 68.7627 115.456L63.4918 112.407C63.3302 112.316 63.3302 112.164 63.4918 112.074L65.0468 111.175C65.2084 111.084 65.4608 111.084 65.6224 111.175L70.8933 114.224Z" fill="#4D4D4D"/>
<path d="M30.2303 93.9483L27.6453 95.4529C27.5039 95.5337 27.2818 95.5337 27.1404 95.4529L24.5352 93.9483C24.4645 93.908 24.4241 93.8575 24.4241 93.7969V94.0998C24.4241 94.1503 24.4544 94.2109 24.5251 94.2513L27.1303 95.7558C27.2717 95.8366 27.5039 95.8366 27.6352 95.7558L30.2202 94.2513C30.2908 94.2109 30.3211 94.1604 30.3211 94.1099V93.807C30.3211 93.8575 30.2908 93.908 30.2202 93.9483H30.2303Z" fill="#1F2125"/>
<path d="M30.2302 93.6555C30.3716 93.7362 30.3716 93.8675 30.2302 93.9483L27.6452 95.4528C27.5039 95.5336 27.2817 95.5336 27.1403 95.4528L24.5352 93.9483C24.3938 93.8675 24.3938 93.7362 24.5352 93.6555L27.1202 92.1509C27.2615 92.0701 27.4938 92.0701 27.625 92.1509L30.2302 93.6555Z" fill="#4D4D4D"/>
<path d="M21.4252 92.8677L18.9613 94.3016C18.7897 94.4026 18.4969 94.4026 18.3252 94.3016L14.064 91.8378C13.9731 91.7873 13.9327 91.7166 13.9327 91.656V91.9589C13.9327 92.0296 13.9731 92.0902 14.064 92.1407L18.3252 94.6045C18.4969 94.7055 18.7897 94.7055 18.9613 94.6045L21.4252 93.1706C21.516 93.1202 21.5564 93.0495 21.5564 92.9889V92.686C21.5564 92.7566 21.516 92.8172 21.4252 92.8677Z" fill="#1F2125"/>
<path d="M21.4252 92.4941C21.5968 92.5951 21.5968 92.7668 21.4252 92.8677L18.9614 94.3016C18.7897 94.4026 18.4969 94.4026 18.3252 94.3016L14.064 91.8378C13.8823 91.7368 13.8924 91.5652 14.064 91.4642L16.5278 90.0303C16.6995 89.9293 16.9923 89.9293 17.164 90.0303L21.4252 92.4941Z" fill="#4D4D4D"/>
<path d="M25.1512 94.9378L22.5662 96.4424C22.4248 96.5232 22.1926 96.5232 22.0512 96.4424L19.446 94.9378C19.3753 94.8974 19.345 94.847 19.345 94.7864V95.0893C19.345 95.1398 19.3753 95.2004 19.446 95.2408L22.0512 96.7453C22.1926 96.8261 22.4248 96.8261 22.5662 96.7453L25.1512 95.2408C25.2218 95.2004 25.2521 95.1499 25.2521 95.0893V94.7864C25.2521 94.8369 25.2218 94.8974 25.1512 94.9378Z" fill="#1F2125"/>
<path d="M25.1411 94.645C25.2824 94.7257 25.2824 94.857 25.1411 94.9378L22.5561 96.4423C22.4147 96.5231 22.1825 96.5231 22.0411 96.4423L19.4359 94.9378C19.2946 94.857 19.2946 94.7257 19.4359 94.645L22.0209 93.1404C22.1623 93.0596 22.3945 93.0596 22.5359 93.1404L25.1411 94.645Z" fill="#4D4D4D"/>
<path d="M18.7795 95.4528L16.3763 96.8463C16.1844 96.9573 15.8714 96.9573 15.6796 96.8463L10.5803 93.8977C10.4793 93.8372 10.4389 93.7665 10.4389 93.6958V93.9987C10.4389 94.0694 10.4894 94.1401 10.5803 94.2007L15.6796 97.1492C15.8714 97.2603 16.1844 97.2603 16.3763 97.1492L18.7795 95.7557C18.8704 95.7052 18.9209 95.6244 18.9209 95.5538V95.2508C18.9209 95.3215 18.8704 95.3922 18.7795 95.4528Z" fill="#1F2125"/>
<path d="M18.7796 95.0489C18.9714 95.16 18.9714 95.3417 18.7796 95.4528L16.3763 96.8463C16.1845 96.9574 15.8714 96.9574 15.6796 96.8463L10.5803 93.8978C10.3884 93.7867 10.3884 93.6049 10.5803 93.4939L12.9835 92.1004C13.1754 91.9893 13.4884 91.9893 13.6803 92.1004L18.7796 95.0489Z" fill="#4D4D4D"/>
<path d="M33.7544 95.9779L31.1694 97.4824C31.028 97.5632 30.8059 97.5632 30.6645 97.4824L28.0593 95.9779C27.9886 95.9375 27.9482 95.887 27.9482 95.8264V96.1293C27.9482 96.1798 27.9785 96.2404 28.0492 96.2808L30.6544 97.7853C30.7958 97.8661 31.028 97.8661 31.1593 97.7853L33.7443 96.2808C33.815 96.2404 33.8452 96.1899 33.8452 96.1394V95.8365C33.8452 95.887 33.815 95.9375 33.7443 95.9779H33.7544Z" fill="#1F2125"/>
<path d="M33.7543 95.685C33.8957 95.7658 33.8957 95.8971 33.7543 95.9778L31.1693 97.4824C31.028 97.5632 30.8058 97.5632 30.6645 97.4824L28.0593 95.9778C27.9179 95.8971 27.9179 95.7658 28.0593 95.685L30.6443 94.1805C30.7856 94.0997 31.0179 94.0997 31.1491 94.1805L33.7543 95.685Z" fill="#4D4D4D"/>
<path d="M28.7055 96.9976L26.1206 98.5022C25.9792 98.583 25.757 98.583 25.6056 98.5022L23.0004 96.9976C22.9297 96.9573 22.8994 96.9068 22.8994 96.8462V97.1491C22.8994 97.1996 22.9297 97.2602 23.0004 97.3006L25.6056 98.8051C25.7469 98.8859 25.9792 98.8859 26.1206 98.8051L28.7055 97.3006C28.7762 97.2602 28.8065 97.2097 28.8065 97.1491V96.8462C28.8065 96.8967 28.7762 96.9573 28.7055 96.9976Z" fill="#1F2125"/>
<path d="M28.7055 96.6948C28.8469 96.7756 28.8469 96.9068 28.7055 96.9876L26.1205 98.4921C25.9792 98.5729 25.757 98.5729 25.6056 98.4921L23.0004 96.9876C22.859 96.9068 22.859 96.7756 23.0004 96.6948L25.5854 95.1902C25.7267 95.1094 25.959 95.1094 26.1003 95.1902L28.7055 96.6948Z" fill="#4D4D4D"/>
<path d="M22.5359 97.4522L19.9509 98.9568C19.8095 99.0376 19.5773 99.0376 19.4359 98.9568L16.8307 97.4522C16.76 97.4119 16.7297 97.3614 16.7297 97.3008V97.6037C16.7297 97.6542 16.76 97.7148 16.8307 97.7552L19.4359 99.2597C19.5773 99.3405 19.8095 99.3405 19.9509 99.2597L22.5359 97.7552C22.6065 97.7148 22.6368 97.6643 22.6368 97.6037V97.3008C22.6368 97.3513 22.6065 97.4119 22.5359 97.4522Z" fill="#1F2125"/>
<path d="M22.5258 97.1594C22.6671 97.2401 22.6671 97.3714 22.5258 97.4522L19.9408 98.9567C19.7994 99.0375 19.5672 99.0375 19.4258 98.9567L16.8206 97.4522C16.6793 97.3714 16.6793 97.2401 16.8206 97.1594L19.4056 95.6548C19.547 95.574 19.7792 95.574 19.9105 95.6548L22.5157 97.1594H22.5258Z" fill="#4D4D4D"/>
<path d="M13.7207 96.4021L11.2064 97.8662C11.0448 97.9571 10.7823 97.9571 10.6207 97.8662L7.11684 95.8467C7.03606 95.7962 6.99567 95.7356 6.99567 95.675V95.978C6.99567 96.0386 7.03606 96.0991 7.11684 96.1496L10.6207 98.1692C10.7823 98.26 11.0448 98.26 11.2064 98.1692L13.7207 96.705C13.8015 96.6545 13.8418 96.5939 13.8418 96.5333V96.2304C13.8418 96.291 13.8015 96.3516 13.7207 96.4021Z" fill="#1F2125"/>
<path d="M13.7207 96.0688C13.8822 96.1597 13.8822 96.3111 13.7207 96.4121L11.2064 97.8763C11.0448 97.9671 10.7823 97.9671 10.6207 97.8763L7.11684 95.8567C6.95528 95.7659 6.95528 95.6144 7.11684 95.5235L9.63114 94.0594C9.7927 93.9685 10.0552 93.9685 10.2168 94.0594L13.7207 96.0789V96.0688Z" fill="#4D4D4D"/>
<path d="M17.2852 98.462L14.7002 99.9666C14.5588 100.047 14.3266 100.047 14.1953 99.9666L11.5901 98.462C11.5194 98.4216 11.4891 98.3711 11.4891 98.3105V98.6135C11.4891 98.664 11.5194 98.7245 11.5901 98.7649L14.1953 100.269C14.3367 100.35 14.5588 100.35 14.7002 100.269L17.2852 98.7649C17.3558 98.7245 17.3861 98.6741 17.3861 98.6135V98.3105C17.3861 98.361 17.3558 98.4216 17.2852 98.462Z" fill="#1F2125"/>
<path d="M17.2952 98.1691C17.4366 98.2499 17.4366 98.3812 17.2952 98.462L14.7102 99.9665C14.5689 100.047 14.3366 100.047 14.2053 99.9665L11.6002 98.462C11.4588 98.3812 11.4588 98.2499 11.6002 98.1691L14.1852 96.6646C14.3265 96.5838 14.5487 96.5838 14.69 96.6646L17.2952 98.1691Z" fill="#4D4D4D"/>
<path d="M9.35853 97.8055L6.77354 99.3101C6.63217 99.3908 6.41003 99.3908 6.26866 99.3101L3.66348 97.8055C3.59279 97.7651 3.5625 97.7146 3.5625 97.6541V97.957C3.5625 98.0075 3.59279 98.0681 3.66348 98.1084L6.26866 99.613C6.41003 99.6938 6.63217 99.6938 6.77354 99.613L9.35853 98.1084C9.42921 98.0681 9.45951 98.0176 9.45951 97.9671V97.6642C9.45951 97.7146 9.42921 97.7651 9.35853 97.8055Z" fill="#1F2125"/>
<path d="M9.35851 97.5126C9.49988 97.5934 9.49988 97.7247 9.35851 97.8055L6.77352 99.31C6.63216 99.3908 6.41001 99.3908 6.26864 99.31L3.66346 97.8055C3.52209 97.7247 3.52209 97.5934 3.66346 97.5126L6.24845 96.0081C6.38981 95.9273 6.61196 95.9273 6.75333 96.0081L9.35851 97.5126Z" fill="#4D4D4D"/>
<path d="M13.034 99.9361L10.449 101.441C10.3077 101.521 10.0855 101.521 9.94416 101.441L7.33898 99.9361C7.2683 99.8957 7.22791 99.8453 7.22791 99.7847V100.088C7.22791 100.138 7.2582 100.199 7.32888 100.239L9.93407 101.744C10.0754 101.824 10.3077 101.824 10.4389 101.744L13.0239 100.239C13.0946 100.199 13.1249 100.148 13.1249 100.098V99.7948C13.1249 99.8453 13.0946 99.8957 13.0239 99.9361H13.034Z" fill="#1F2125"/>
<path d="M13.034 99.6332C13.1754 99.714 13.1754 99.8453 13.034 99.9261L10.449 101.431C10.3076 101.511 10.0855 101.511 9.94412 101.431L7.33894 99.9261C7.19757 99.8453 7.19757 99.714 7.33894 99.6332L9.92392 98.1287C10.0653 98.0479 10.2975 98.0479 10.4288 98.1287L13.034 99.6332Z" fill="#4D4D4D"/>
<path d="M37.2885 98.0177L34.7035 99.5222C34.5621 99.603 34.34 99.603 34.1986 99.5222L31.5934 98.0177C31.5227 97.9773 31.4924 97.9268 31.4924 97.8662V98.1691C31.4924 98.2196 31.5227 98.2802 31.5934 98.3206L34.1986 99.8251C34.34 99.9059 34.5722 99.9059 34.7035 99.8251L37.2885 98.3206C37.3591 98.2802 37.3894 98.2297 37.3894 98.1792V97.8763C37.3894 97.9268 37.3591 97.9773 37.2885 98.0177Z" fill="#1F2125"/>
<path d="M37.2784 97.7248C37.4197 97.8056 37.4197 97.9368 37.2784 98.0176L34.6934 99.5222C34.552 99.6029 34.3299 99.6029 34.1885 99.5222L31.5833 98.0176C31.442 97.9368 31.442 97.8056 31.5833 97.7248L34.1683 96.2203C34.3097 96.1395 34.5318 96.1395 34.6732 96.2203L37.2784 97.7248Z" fill="#4D4D4D"/>
<path d="M32.27 99.0475L29.685 100.552C29.5436 100.633 29.3114 100.633 29.17 100.552L26.5648 99.0475C26.4942 99.0071 26.4639 98.9566 26.4639 98.896V99.1989C26.4639 99.2494 26.4942 99.31 26.5648 99.3504L29.17 100.855C29.3114 100.936 29.5436 100.936 29.685 100.855L32.27 99.3504C32.3407 99.31 32.371 99.2595 32.371 99.1989V98.896C32.371 98.9465 32.3407 99.0071 32.27 99.0475Z" fill="#1F2125"/>
<path d="M32.27 98.7546C32.4113 98.8354 32.4113 98.9666 32.27 99.0474L29.685 100.552C29.5436 100.633 29.3114 100.633 29.17 100.552L26.5648 99.0474C26.4235 98.9666 26.4235 98.8354 26.5648 98.7546L29.1498 97.25C29.2912 97.1693 29.5234 97.1693 29.6648 97.25L32.27 98.7546Z" fill="#4D4D4D"/>
<path d="M26.0802 99.5018L23.4952 101.006C23.3538 101.087 23.1216 101.087 22.9802 101.006L20.375 99.5018C20.3043 99.4614 20.274 99.4109 20.274 99.3503V99.6533C20.274 99.7038 20.3043 99.7643 20.375 99.8047L22.9802 101.309C23.1216 101.39 23.3538 101.39 23.4952 101.309L26.0802 99.8047C26.1509 99.7643 26.1812 99.7139 26.1812 99.6533V99.3503C26.1812 99.4008 26.1509 99.4614 26.0802 99.5018Z" fill="#1F2125"/>
<path d="M26.0701 99.1989C26.2115 99.2797 26.2115 99.411 26.0701 99.4917L23.4851 100.996C23.3437 101.077 23.1115 101.077 22.9701 100.996L20.3649 99.4917C20.2236 99.411 20.2236 99.2797 20.3649 99.1989L22.9499 97.6944C23.0913 97.6136 23.3235 97.6136 23.4548 97.6944L26.06 99.1989H26.0701Z" fill="#4D4D4D"/>
<path d="M20.8193 100.502L18.2344 102.006C18.093 102.087 17.8607 102.087 17.7295 102.006L15.1243 100.502C15.0536 100.461 15.0233 100.411 15.0233 100.35V100.653C15.0233 100.704 15.0536 100.764 15.1243 100.804L17.7295 102.309C17.8708 102.39 18.093 102.39 18.2344 102.309L20.8193 100.804C20.89 100.764 20.9203 100.714 20.9203 100.653V100.35C20.9203 100.401 20.89 100.461 20.8193 100.502Z" fill="#1F2125"/>
<path d="M20.8193 100.199C20.9607 100.279 20.9607 100.411 20.8193 100.492L18.2343 101.996C18.093 102.077 17.8607 102.077 17.7295 101.996L15.1243 100.492C14.9829 100.411 14.9829 100.279 15.1243 100.199L17.7093 98.6941C17.8506 98.6133 18.0728 98.6133 18.2141 98.6941L20.8193 100.199Z" fill="#4D4D4D"/>
<path d="M16.5985 101.986L14.0135 103.49C13.8721 103.571 13.65 103.571 13.5086 103.49L10.9034 101.986C10.8327 101.946 10.7924 101.895 10.7924 101.834V102.137C10.7924 102.188 10.8227 102.248 10.8933 102.289L13.4985 103.793C13.6399 103.874 13.8721 103.874 14.0034 103.793L16.5884 102.289C16.6591 102.248 16.6894 102.198 16.6894 102.148V101.845C16.6894 101.895 16.6591 101.946 16.5884 101.986H16.5985Z" fill="#1F2125"/>
<path d="M16.5984 101.693C16.7398 101.774 16.7398 101.905 16.5984 101.986L14.0135 103.49C13.8721 103.571 13.6499 103.571 13.5086 103.49L10.9034 101.986C10.762 101.905 10.762 101.774 10.9034 101.693L13.4884 100.189C13.6297 100.108 13.8519 100.108 13.9933 100.189L16.5984 101.693Z" fill="#4D4D4D"/>
<path d="M40.8126 100.057L38.2276 101.562C38.0862 101.643 37.8641 101.643 37.7227 101.562L35.1175 100.057C35.0468 100.017 35.0165 99.9663 35.0165 99.9058V100.209C35.0165 100.259 35.0468 100.32 35.1175 100.36L37.7227 101.865C37.8641 101.945 38.0862 101.945 38.2276 101.865L40.8126 100.36C40.8833 100.32 40.9135 100.269 40.9135 100.219V99.9159C40.9135 99.9663 40.8833 100.017 40.8126 100.057Z" fill="#1F2125"/>
<path d="M40.8126 99.7644C40.9539 99.8451 40.9539 99.9764 40.8126 100.057L38.2276 101.562C38.0862 101.643 37.8641 101.643 37.7227 101.562L35.1175 100.057C34.9761 99.9764 34.9761 99.8451 35.1175 99.7644L37.7025 98.2598C37.8439 98.179 38.066 98.179 38.2074 98.2598L40.8126 99.7644Z" fill="#4D4D4D"/>
<path d="M35.8344 101.108L33.2495 102.612C33.1081 102.693 32.8758 102.693 32.7345 102.612L30.1293 101.108C30.0586 101.067 30.0283 101.017 30.0283 100.956V101.259C30.0283 101.309 30.0586 101.37 30.1293 101.41L32.7345 102.915C32.8758 102.996 33.1081 102.996 33.2495 102.915L35.8344 101.41C35.9051 101.37 35.9354 101.32 35.9354 101.259V100.956C35.9354 101.007 35.9051 101.067 35.8344 101.108Z" fill="#1F2125"/>
<path d="M35.8244 100.815C35.9657 100.895 35.9657 101.027 35.8244 101.107L33.2394 102.612C33.098 102.693 32.8658 102.693 32.7244 102.612L30.1192 101.107C29.9778 101.027 29.9778 100.895 30.1192 100.815L32.7042 99.3101C32.8456 99.2293 33.0778 99.2293 33.2192 99.3101L35.8244 100.815Z" fill="#4D4D4D"/>
<path d="M29.6244 101.542L27.0394 103.046C26.8981 103.127 26.6658 103.127 26.5245 103.046L23.9193 101.542C23.8486 101.501 23.8183 101.451 23.8183 101.39V101.693C23.8183 101.744 23.8486 101.804 23.9193 101.845L26.5245 103.349C26.6658 103.43 26.8981 103.43 27.0394 103.349L29.6244 101.845C29.6951 101.804 29.7254 101.754 29.7254 101.693V101.39C29.7254 101.441 29.6951 101.501 29.6244 101.542Z" fill="#1F2125"/>
<path d="M29.6143 101.249C29.7557 101.33 29.7557 101.461 29.6143 101.542L27.0293 103.046C26.888 103.127 26.6557 103.127 26.5144 103.046L23.9092 101.542C23.7678 101.461 23.7678 101.33 23.9092 101.249L26.4942 99.7442C26.6355 99.6634 26.8678 99.6634 26.9991 99.7442L29.6042 101.249H29.6143Z" fill="#4D4D4D"/>
<path d="M24.3434 102.531L21.7584 104.036C21.617 104.117 21.3949 104.117 21.2535 104.036L18.6483 102.531C18.5776 102.491 18.5372 102.44 18.5372 102.38V102.683C18.5372 102.733 18.5675 102.794 18.6483 102.834L21.2535 104.339C21.3949 104.42 21.617 104.42 21.7584 104.339L24.3434 102.834C24.414 102.794 24.4443 102.743 24.4443 102.683V102.38C24.4443 102.43 24.414 102.491 24.3434 102.531Z" fill="#1F2125"/>
<path d="M24.3433 102.238C24.4847 102.319 24.4847 102.451 24.3433 102.531L21.7583 104.036C21.617 104.117 21.3948 104.117 21.2534 104.036L18.6483 102.531C18.5069 102.451 18.5069 102.319 18.6483 102.238L21.2332 100.734C21.3746 100.653 21.6069 100.653 21.7482 100.734L24.3534 102.238H24.3433Z" fill="#4D4D4D"/>
<path d="M20.9506 104.541L18.4262 106.005C18.2646 106.096 18.0122 106.096 17.8506 106.005L14.4881 104.066C14.4073 104.015 14.3669 103.955 14.3669 103.894V104.197C14.3669 104.258 14.4073 104.318 14.4881 104.369L17.8506 106.308C18.0122 106.398 18.2646 106.398 18.4262 106.308L20.9506 104.843C21.0314 104.793 21.0718 104.742 21.0718 104.682V104.379C21.0718 104.44 21.0314 104.5 20.9506 104.541Z" fill="#1F2125"/>
<path d="M20.9506 104.207C21.1121 104.298 21.1121 104.45 20.9506 104.541L18.4262 106.005C18.2646 106.096 18.0122 106.096 17.8506 106.005L14.4881 104.066C14.3266 103.975 14.3266 103.824 14.4881 103.733L17.0125 102.269C17.1741 102.178 17.4265 102.178 17.5881 102.269L20.9506 104.207Z" fill="#4D4D4D"/>
<path d="M33.1687 103.591L30.5837 105.096C30.4424 105.177 30.2101 105.177 30.0788 105.096L27.4737 103.591C27.403 103.551 27.3727 103.501 27.3727 103.44V103.743C27.3727 103.793 27.403 103.854 27.4737 103.894L30.0788 105.399C30.2202 105.48 30.4424 105.48 30.5837 105.399L33.1687 103.894C33.2394 103.854 33.2697 103.803 33.2697 103.743V103.44C33.2697 103.49 33.2394 103.551 33.1687 103.591Z" fill="#1F2125"/>
<path d="M33.1687 103.299C33.3101 103.379 33.3101 103.511 33.1687 103.591L30.5837 105.096C30.4423 105.177 30.2101 105.177 30.0788 105.096L27.4736 103.591C27.3323 103.511 27.3323 103.379 27.4736 103.299L30.0586 101.794C30.2 101.713 30.4322 101.713 30.5635 101.794L33.1687 103.299Z" fill="#4D4D4D"/>
<path d="M27.8775 104.571L25.2925 106.075C25.1511 106.156 24.9189 106.156 24.7775 106.075L22.1724 104.571C22.1017 104.531 22.0613 104.48 22.0613 104.419V104.722C22.0613 104.773 22.0916 104.833 22.1724 104.874L24.7775 106.378C24.9189 106.459 25.1511 106.459 25.2925 106.378L27.8775 104.874C27.9482 104.833 27.9785 104.783 27.9785 104.722V104.419C27.9785 104.47 27.9482 104.52 27.8775 104.571Z" fill="#1F2125"/>
<path d="M27.8775 104.278C28.0188 104.359 28.0188 104.49 27.8775 104.571L25.2925 106.075C25.1511 106.156 24.9189 106.156 24.7775 106.075L22.1723 104.571C22.0309 104.49 22.0309 104.359 22.1723 104.278L24.7573 102.773C24.8987 102.693 25.1309 102.693 25.2723 102.773L27.8775 104.278Z" fill="#4D4D4D"/>
<path d="M44.3367 102.097L41.7517 103.602C41.6103 103.682 41.3882 103.682 41.2468 103.602L38.6416 102.097C38.5709 102.057 38.5406 102.006 38.5406 101.946V102.248C38.5406 102.299 38.5709 102.36 38.6416 102.4L41.2468 103.904C41.3882 103.985 41.6103 103.985 41.7517 103.904L44.3367 102.4C44.4074 102.36 44.4377 102.309 44.4377 102.259V101.956C44.4377 102.006 44.4074 102.057 44.3367 102.097Z" fill="#1F2125"/>
<path d="M44.3367 101.804C44.478 101.885 44.478 102.016 44.3367 102.097L41.7517 103.602C41.6103 103.682 41.3882 103.682 41.2468 103.602L38.6416 102.097C38.5002 102.016 38.5002 101.885 38.6416 101.804L41.2266 100.3C41.368 100.219 41.5901 100.219 41.7315 100.3L44.3367 101.804Z" fill="#4D4D4D"/>
<path d="M39.3888 103.167L36.8038 104.672C36.6625 104.753 36.4302 104.753 36.2889 104.672L33.6837 103.167C33.613 103.127 33.5827 103.076 33.5827 103.016V103.319C33.5827 103.369 33.613 103.43 33.6837 103.47L36.2889 104.975C36.4302 105.056 36.6625 105.056 36.8038 104.975L39.3888 103.47C39.4595 103.43 39.4898 103.379 39.4898 103.319V103.016C39.4898 103.066 39.4595 103.127 39.3888 103.167Z" fill="#1F2125"/>
<path d="M39.3888 102.864C39.5302 102.945 39.5302 103.077 39.3888 103.157L36.8038 104.662C36.6625 104.743 36.4302 104.743 36.2888 104.662L33.6837 103.157C33.5423 103.077 33.5423 102.945 33.6837 102.864L36.2686 101.36C36.41 101.279 36.6423 101.279 36.7836 101.36L39.3888 102.864Z" fill="#4D4D4D"/>
<path d="M36.713 105.641L34.128 107.146C33.9866 107.227 33.7544 107.227 33.6231 107.146L31.0179 105.641C30.9472 105.601 30.9169 105.55 30.9169 105.49V105.793C30.9169 105.843 30.9472 105.904 31.0179 105.944L33.6231 107.449C33.7645 107.529 33.9866 107.529 34.128 107.449L36.713 105.944C36.7836 105.904 36.8139 105.853 36.8139 105.793V105.49C36.8139 105.54 36.7836 105.601 36.713 105.641Z" fill="#1F2125"/>
<path d="M36.7129 105.338C36.8543 105.419 36.8543 105.55 36.7129 105.631L34.128 107.136C33.9866 107.216 33.7543 107.216 33.6231 107.136L31.0179 105.631C30.8765 105.55 30.8765 105.419 31.0179 105.338L33.6029 103.834C33.7442 103.753 33.9664 103.753 34.1078 103.834L36.7129 105.338Z" fill="#4D4D4D"/>
<path d="M31.4016 106.611L28.8166 108.115C28.6753 108.196 28.443 108.196 28.3016 108.115L25.6965 106.611C25.6258 106.57 25.5854 106.52 25.5854 106.459V106.762C25.5854 106.813 25.6157 106.873 25.6965 106.914L28.3016 108.418C28.443 108.499 28.6753 108.499 28.8166 108.418L31.4016 106.914C31.4723 106.873 31.5026 106.823 31.5026 106.762V106.459C31.5026 106.51 31.4723 106.57 31.4016 106.611Z" fill="#1F2125"/>
<path d="M31.4016 106.318C31.5429 106.399 31.5429 106.53 31.4016 106.611L28.8166 108.115C28.6752 108.196 28.443 108.196 28.3016 108.115L25.6964 106.611C25.5551 106.53 25.5551 106.399 25.6964 106.318L28.2814 104.813C28.4228 104.732 28.655 104.732 28.7964 104.813L31.4016 106.318Z" fill="#4D4D4D"/>
<path d="M47.8708 104.127L45.2858 105.631C45.1445 105.712 44.9223 105.712 44.781 105.631L42.1758 104.127C42.1051 104.086 42.0647 104.036 42.0647 103.975V104.278C42.0647 104.329 42.095 104.389 42.1758 104.429L44.781 105.934C44.9223 106.015 45.1445 106.015 45.2858 105.934L47.8708 104.429C47.9415 104.389 47.9718 104.339 47.9718 104.288V103.985C47.9718 104.036 47.9415 104.086 47.8708 104.127Z" fill="#1F2125"/>
<path d="M47.8708 103.834C48.0121 103.914 48.0121 104.046 47.8708 104.127L45.2858 105.631C45.1444 105.712 44.9223 105.712 44.7809 105.631L42.1757 104.127C42.0344 104.046 42.0344 103.914 42.1757 103.834L44.7607 102.329C44.9021 102.248 45.1242 102.248 45.2656 102.329L47.8708 103.834Z" fill="#4D4D4D"/>
<path d="M42.9533 105.217L40.3683 106.722C40.2269 106.802 40.0048 106.802 39.8533 106.722L37.2481 105.217C37.1774 105.177 37.1472 105.126 37.1472 105.066V105.369C37.1472 105.419 37.1774 105.48 37.2481 105.52L39.8533 107.025C39.9947 107.105 40.2269 107.105 40.3683 107.025L42.9533 105.52C43.024 105.48 43.0543 105.429 43.0543 105.369V105.066C43.0543 105.116 43.024 105.177 42.9533 105.217Z" fill="#1F2125"/>
<path d="M42.9533 104.924C43.0946 105.005 43.0946 105.136 42.9533 105.217L40.3683 106.722C40.2269 106.802 40.0048 106.802 39.8533 106.722L37.2481 105.217C37.1067 105.136 37.1067 105.005 37.2481 104.924L39.8331 103.42C39.9745 103.339 40.2067 103.339 40.3481 103.42L42.9533 104.924Z" fill="#4D4D4D"/>
<path d="M40.2572 107.681L37.6722 109.186C37.5309 109.266 37.2986 109.266 37.1673 109.186L34.5622 107.681C34.4915 107.641 34.4612 107.59 34.4612 107.53V107.832C34.4612 107.883 34.4915 107.944 34.5622 107.984L37.1673 109.488C37.3087 109.569 37.5309 109.569 37.6722 109.488L40.2572 107.984C40.3279 107.944 40.3582 107.893 40.3582 107.832V107.53C40.3582 107.58 40.3279 107.641 40.2572 107.681Z" fill="#1F2125"/>
<path d="M40.2572 107.388C40.3986 107.469 40.3986 107.6 40.2572 107.681L37.6722 109.185C37.5308 109.266 37.3087 109.266 37.1673 109.185L34.5621 107.681C34.4208 107.6 34.4208 107.469 34.5621 107.388L37.1471 105.884C37.2885 105.803 37.5207 105.803 37.652 105.884L40.2572 107.388Z" fill="#4D4D4D"/>
<path d="M34.9257 108.65L32.3407 110.155C32.1993 110.236 31.9671 110.236 31.8257 110.155L29.2205 108.65C29.1498 108.61 29.1094 108.559 29.1094 108.499V108.802C29.1094 108.852 29.1397 108.913 29.2104 108.953L31.8156 110.458C31.957 110.538 32.1892 110.538 32.3306 110.458L34.9156 108.953C34.9862 108.913 35.0165 108.862 35.0165 108.802V108.499C35.0165 108.549 34.9862 108.61 34.9156 108.65H34.9257Z" fill="#1F2125"/>
<path d="M34.9256 108.347C35.067 108.428 35.067 108.559 34.9256 108.64L32.3406 110.145C32.1993 110.226 31.967 110.226 31.8256 110.145L29.2205 108.64C29.0791 108.559 29.0791 108.428 29.2205 108.347L31.8055 106.843C31.9468 106.762 32.1791 106.762 32.3204 106.843L34.9256 108.347Z" fill="#4D4D4D"/>
<path d="M51.3949 106.166L48.8099 107.671C48.6685 107.752 48.4363 107.752 48.305 107.671L45.6998 106.166C45.6291 106.126 45.5887 106.075 45.5887 106.015V106.318C45.5887 106.368 45.619 106.429 45.6998 106.469L48.305 107.974C48.4464 108.055 48.6786 108.055 48.8099 107.974L51.3949 106.469C51.4656 106.429 51.4958 106.378 51.4958 106.328V106.025C51.4958 106.075 51.4656 106.126 51.3949 106.166Z" fill="#1F2125"/>
<path d="M51.3948 105.873C51.5362 105.954 51.5362 106.086 51.3948 106.166L48.8098 107.671C48.6685 107.752 48.4362 107.752 48.305 107.671L45.6998 106.166C45.5584 106.086 45.5584 105.954 45.6998 105.873L48.2848 104.369C48.4261 104.288 48.6483 104.288 48.7896 104.369L51.3948 105.873Z" fill="#4D4D4D"/>
<path d="M46.5076 107.277L43.9226 108.782C43.7812 108.862 43.549 108.862 43.4076 108.782L40.8025 107.277C40.7318 107.237 40.7015 107.186 40.7015 107.125V107.428C40.7015 107.479 40.7318 107.539 40.8025 107.58L43.4076 109.084C43.549 109.165 43.7812 109.165 43.9226 109.084L46.5076 107.58C46.5783 107.539 46.6086 107.489 46.6086 107.428V107.125C46.6086 107.176 46.5783 107.237 46.5076 107.277Z" fill="#1F2125"/>
<path d="M46.5076 106.974C46.649 107.055 46.649 107.186 46.5076 107.267L43.9226 108.771C43.7812 108.852 43.549 108.852 43.4076 108.771L40.8024 107.267C40.6611 107.186 40.6611 107.055 40.8024 106.974L43.3874 105.47C43.5288 105.389 43.761 105.389 43.9024 105.47L46.5076 106.974Z" fill="#4D4D4D"/>
<path d="M43.8015 109.731L41.2165 111.235C41.0751 111.316 40.8429 111.316 40.7116 111.235L38.1064 109.731C38.0357 109.69 38.0054 109.64 38.0054 109.579V109.882C38.0054 109.933 38.0357 109.993 38.1064 110.034L40.7116 111.538C40.853 111.619 41.0751 111.619 41.2165 111.538L43.8015 110.034C43.8721 109.993 43.9024 109.943 43.9024 109.882V109.579C43.9024 109.63 43.8721 109.69 43.8015 109.731Z" fill="#1F2125"/>
<path d="M43.8014 109.438C43.9428 109.519 43.9428 109.65 43.8014 109.731L41.2165 111.235C41.0751 111.316 40.8428 111.316 40.7116 111.235L38.1064 109.731C37.965 109.65 37.965 109.519 38.1064 109.438L40.6914 107.933C40.8327 107.853 41.065 107.853 41.1963 107.933L43.8014 109.438Z" fill="#4D4D4D"/>
<path d="M38.4598 110.68L35.8749 112.185C35.7335 112.265 35.5012 112.265 35.3599 112.185L32.7547 110.68C32.684 110.64 32.6436 110.589 32.6436 110.529V110.831C32.6436 110.882 32.6739 110.943 32.7446 110.983L35.3498 112.488C35.4911 112.568 35.7234 112.568 35.8648 112.488L38.4497 110.983C38.5204 110.943 38.5507 110.892 38.5507 110.831V110.529C38.5507 110.579 38.5204 110.64 38.4497 110.68H38.4598Z" fill="#1F2125"/>
<path d="M38.4598 110.387C38.6012 110.468 38.6012 110.599 38.4598 110.68L35.8748 112.185C35.7334 112.265 35.5012 112.265 35.3598 112.185L32.7546 110.68C32.6133 110.599 32.6133 110.468 32.7546 110.387L35.3396 108.883C35.481 108.802 35.7132 108.802 35.8546 108.883L38.4598 110.387Z" fill="#4D4D4D"/>
<path d="M54.9291 108.206L52.3441 109.711C52.2027 109.791 51.9704 109.791 51.8392 109.711L49.234 108.206C49.1633 108.166 49.1229 108.115 49.1229 108.055V108.358C49.1229 108.408 49.1532 108.469 49.234 108.509L51.8392 110.014C51.9805 110.094 52.2128 110.094 52.3441 110.014L54.9291 108.509C54.9997 108.469 55.03 108.418 55.03 108.368V108.065C55.03 108.115 54.9997 108.166 54.9291 108.206Z" fill="#1F2125"/>
<path d="M54.9189 107.913C55.0603 107.994 55.0603 108.125 54.9189 108.206L52.3339 109.711C52.1926 109.791 51.9603 109.791 51.8291 109.711L49.2239 108.206C49.0825 108.125 49.0825 107.994 49.2239 107.913L51.8089 106.409C51.9502 106.328 52.1724 106.328 52.3138 106.409L54.9189 107.913Z" fill="#4D4D4D"/>
<path d="M50.0721 109.327L47.4871 110.832C47.3458 110.912 47.1135 110.912 46.9722 110.832L44.367 109.327C44.2963 109.287 44.266 109.236 44.266 109.176V109.478C44.266 109.529 44.2963 109.59 44.367 109.63L46.9722 111.134C47.1135 111.215 47.3458 111.215 47.4871 111.134L50.0721 109.63C50.1428 109.59 50.1731 109.539 50.1731 109.478V109.176C50.1731 109.226 50.1428 109.287 50.0721 109.327Z" fill="#1F2125"/>
<path d="M50.0721 109.034C50.2135 109.115 50.2135 109.246 50.0721 109.327L47.4871 110.832C47.3457 110.912 47.1135 110.912 46.9721 110.832L44.367 109.327C44.2256 109.246 44.2256 109.115 44.367 109.034L46.9519 107.53C47.0933 107.449 47.3255 107.449 47.4669 107.53L50.0721 109.034Z" fill="#4D4D4D"/>
<path d="M47.3458 111.781L44.7608 113.285C44.6194 113.366 44.3872 113.366 44.2559 113.285L41.6507 111.781C41.58 111.74 41.5497 111.69 41.5497 111.629V111.932C41.5497 111.983 41.58 112.043 41.6507 112.084L44.2559 113.588C44.3973 113.669 44.6194 113.669 44.7608 113.588L47.3458 112.084C47.4165 112.043 47.4467 111.993 47.4467 111.932V111.629C47.4467 111.68 47.4165 111.74 47.3458 111.781Z" fill="#1F2125"/>
<path d="M47.3458 111.478C47.4871 111.559 47.4871 111.69 47.3458 111.771L44.7608 113.275C44.6194 113.356 44.3872 113.356 44.2559 113.275L41.6507 111.771C41.5093 111.69 41.5093 111.559 41.6507 111.478L44.2357 109.973C44.3771 109.892 44.6093 109.892 44.7406 109.973L47.3458 111.478Z" fill="#4D4D4D"/>
<path d="M41.9839 112.72L39.3989 114.224C39.2576 114.305 39.0253 114.305 38.884 114.224L36.2788 112.72C36.2081 112.679 36.1778 112.629 36.1778 112.568V112.871C36.1778 112.922 36.2081 112.982 36.2788 113.023L38.884 114.527C39.0253 114.608 39.2576 114.608 39.3989 114.527L41.9839 113.023C42.0546 112.982 42.0849 112.932 42.0849 112.871V112.568C42.0849 112.619 42.0546 112.669 41.9839 112.72Z" fill="#1F2125"/>
<path d="M41.9839 112.427C42.1253 112.508 42.1253 112.639 41.9839 112.72L39.3989 114.224C39.2575 114.305 39.0253 114.305 38.8839 114.224L36.2788 112.72C36.1374 112.639 36.1374 112.508 36.2788 112.427L38.8637 110.922C39.0051 110.842 39.2374 110.842 39.3686 110.922L41.9738 112.427H41.9839Z" fill="#4D4D4D"/>
<path d="M38.3891 114.971L36.4908 116.072C36.1575 116.264 35.6224 116.264 35.2892 116.072L19.1633 106.762C18.9916 106.661 18.9108 106.54 18.9108 106.409V106.712C18.9108 106.843 18.9916 106.964 19.1633 107.065L35.2892 116.375C35.6224 116.567 36.1575 116.567 36.4908 116.375L38.3891 115.274C38.5507 115.184 38.6315 115.052 38.6315 114.931V114.628C38.6315 114.749 38.5507 114.881 38.3891 114.971Z" fill="#1F2125"/>
<path d="M38.379 114.275C38.7122 114.467 38.7122 114.78 38.379 114.971L36.4807 116.072C36.1475 116.264 35.6123 116.264 35.2791 116.072L19.1532 106.762C18.82 106.57 18.82 106.257 19.1532 106.065L21.0515 104.965C21.3847 104.773 21.9199 104.773 22.2531 104.965L38.379 114.275Z" fill="#4D4D4D"/>
<path d="M58.4531 110.236L55.8681 111.74C55.7267 111.821 55.5046 111.821 55.3632 111.74L52.758 110.236C52.6874 110.195 52.647 110.145 52.647 110.084V110.387C52.647 110.438 52.6773 110.498 52.758 110.539L55.3632 112.043C55.5046 112.124 55.7368 112.124 55.8681 112.043L58.4531 110.539C58.5238 110.498 58.5541 110.448 58.5541 110.397V110.094C58.5541 110.145 58.5238 110.195 58.4531 110.236Z" fill="#1F2125"/>
<path d="M58.4531 109.943C58.5944 110.024 58.5944 110.155 58.4531 110.236L55.8681 111.74C55.7267 111.821 55.5046 111.821 55.3632 111.74L52.758 110.236C52.6166 110.155 52.6166 110.024 52.758 109.943L55.343 108.438C55.4844 108.357 55.7065 108.357 55.8479 108.438L58.4531 109.943Z" fill="#4D4D4D"/>
<path d="M53.6366 111.387L51.0516 112.891C50.9102 112.972 50.678 112.972 50.5366 112.891L47.9314 111.387C47.8607 111.346 47.8304 111.296 47.8304 111.235V111.538C47.8304 111.589 47.8607 111.649 47.9314 111.69L50.5366 113.194C50.678 113.275 50.9102 113.275 51.0516 113.194L53.6366 111.69C53.7073 111.649 53.7375 111.599 53.7375 111.538V111.235C53.7375 111.286 53.7073 111.346 53.6366 111.387Z" fill="#1F2125"/>
<path d="M53.6366 111.094C53.7779 111.175 53.7779 111.306 53.6366 111.387L51.0516 112.891C50.9102 112.972 50.678 112.972 50.5366 112.891L47.9314 111.387C47.79 111.306 47.79 111.175 47.9314 111.094L50.5164 109.589C50.6578 109.509 50.89 109.509 51.0314 109.589L53.6366 111.094Z" fill="#4D4D4D"/>
<path d="M50.89 113.82L48.305 115.325C48.1636 115.406 47.9314 115.406 47.8001 115.325L45.1949 113.82C45.1242 113.78 45.0839 113.73 45.0839 113.669V113.972C45.0839 114.022 45.1142 114.083 45.1949 114.123L47.8001 115.628C47.9415 115.709 48.1636 115.709 48.305 115.628L50.89 114.123C50.9607 114.083 50.991 114.032 50.991 113.972V113.669C50.991 113.719 50.9607 113.78 50.89 113.82Z" fill="#1F2125"/>
<path d="M50.8899 113.528C51.0313 113.608 51.0313 113.74 50.8899 113.82L48.305 115.325C48.1636 115.406 47.9313 115.406 47.8001 115.325L45.1949 113.82C45.0535 113.74 45.0535 113.608 45.1949 113.528L47.7799 112.023C47.9212 111.942 48.1535 111.942 48.2949 112.023L50.9 113.528H50.8899Z" fill="#4D4D4D"/>
<path d="M45.5079 114.759L42.923 116.264C42.7816 116.345 42.5493 116.345 42.4181 116.264L39.8129 114.759C39.7422 114.719 39.7119 114.668 39.7119 114.608V114.911C39.7119 114.961 39.7422 115.022 39.8129 115.062L42.4181 116.567C42.5594 116.648 42.7816 116.648 42.923 116.567L45.5079 115.062C45.5786 115.022 45.6089 114.971 45.6089 114.911V114.608C45.6089 114.658 45.5786 114.719 45.5079 114.759Z" fill="#1F2125"/>
<path d="M45.518 114.456C45.6594 114.537 45.6594 114.669 45.518 114.749L42.933 116.254C42.7916 116.335 42.5594 116.335 42.4281 116.254L39.8229 114.749C39.6816 114.669 39.6816 114.537 39.8229 114.456L42.4079 112.952C42.5493 112.871 42.7815 112.871 42.9128 112.952L45.518 114.456Z" fill="#4D4D4D"/>
<path d="M62.1185 112.356L59.5335 113.861C59.3921 113.942 59.17 113.942 59.0286 113.861L56.4235 112.356C56.3528 112.316 56.3124 112.265 56.3124 112.205V112.508C56.3124 112.558 56.3427 112.619 56.4134 112.659L59.0185 114.164C59.1599 114.245 59.3921 114.245 59.5234 114.164L62.1084 112.659C62.1791 112.619 62.2094 112.568 62.2094 112.518V112.215C62.2094 112.265 62.1791 112.316 62.1084 112.356H62.1185Z" fill="#1F2125"/>
<path d="M62.1185 112.063C62.2598 112.144 62.2598 112.275 62.1185 112.356L59.5335 113.861C59.3921 113.942 59.17 113.942 59.0286 113.861L56.4234 112.356C56.282 112.275 56.282 112.144 56.4234 112.063L59.0084 110.559C59.1498 110.478 59.382 110.478 59.5133 110.559L62.1185 112.063Z" fill="#4D4D4D"/>
<path d="M57.1909 113.447L54.6059 114.951C54.4645 115.032 54.2323 115.032 54.0909 114.951L51.4857 113.447C51.4151 113.406 51.3848 113.356 51.3848 113.295V113.598C51.3848 113.649 51.4151 113.709 51.4857 113.75L54.0909 115.254C54.2323 115.335 54.4645 115.335 54.6059 115.254L57.1909 113.75C57.2616 113.709 57.2919 113.659 57.2919 113.598V113.295C57.2919 113.346 57.2616 113.406 57.1909 113.447Z" fill="#1F2125"/>
<path d="M57.1909 113.144C57.3322 113.225 57.3322 113.356 57.1909 113.437L54.6059 114.941C54.4645 115.022 54.2323 115.022 54.0909 114.941L51.4857 113.437C51.3444 113.356 51.3444 113.225 51.4857 113.144L54.0707 111.639C54.2121 111.558 54.4443 111.558 54.5857 111.639L57.1909 113.144Z" fill="#4D4D4D"/>
<path d="M54.4342 115.87L51.8492 117.375C51.7079 117.456 51.4756 117.456 51.3444 117.375L48.7392 115.87C48.6685 115.83 48.6281 115.779 48.6281 115.719V116.022C48.6281 116.072 48.6584 116.133 48.7392 116.173L51.3444 117.678C51.4857 117.758 51.7079 117.758 51.8492 117.678L54.4342 116.173C54.5049 116.133 54.5352 116.082 54.5352 116.022V115.719C54.5352 115.769 54.5049 115.83 54.4342 115.87Z" fill="#1F2125"/>
<path d="M54.4342 115.577C54.5756 115.658 54.5756 115.789 54.4342 115.87L51.8492 117.375C51.7078 117.455 51.4756 117.455 51.3443 117.375L48.7391 115.87C48.5978 115.789 48.5978 115.658 48.7391 115.577L51.3241 114.073C51.4655 113.992 51.6876 113.992 51.8391 114.073L54.4443 115.577H54.4342Z" fill="#4D4D4D"/>
<path d="M49.1633 116.86L46.5783 118.364C46.4369 118.445 46.2047 118.445 46.0734 118.364L43.4682 116.86C43.3975 116.819 43.3672 116.769 43.3672 116.708V117.011C43.3672 117.062 43.3975 117.122 43.4682 117.163L46.0734 118.667C46.2148 118.748 46.4369 118.748 46.5783 118.667L49.1633 117.163C49.234 117.122 49.2643 117.072 49.2643 117.011V116.708C49.2643 116.759 49.234 116.819 49.1633 116.86Z" fill="#1F2125"/>
<path d="M49.1633 116.567C49.3046 116.648 49.3046 116.779 49.1633 116.86L46.5783 118.364C46.4369 118.445 46.2047 118.445 46.0734 118.364L43.4682 116.86C43.3268 116.779 43.3268 116.648 43.4682 116.567L46.0532 115.062C46.1946 114.982 46.4268 114.982 46.5581 115.062L49.1633 116.567Z" fill="#4D4D4D"/>
<path d="M43.0442 117.294L40.5197 118.758C40.3582 118.849 40.1057 118.849 39.9442 118.758L36.5817 116.819C36.5009 116.769 36.4605 116.708 36.4605 116.648V116.951C36.4605 117.011 36.5009 117.072 36.5817 117.122L39.9442 119.061C40.1057 119.152 40.3582 119.152 40.5197 119.061L43.0442 117.597C43.1249 117.546 43.1653 117.496 43.1653 117.435V117.132C43.1653 117.193 43.1249 117.254 43.0442 117.294Z" fill="#1F2125"/>
<path d="M43.0442 116.961C43.2057 117.052 43.2057 117.203 43.0442 117.294L40.5198 118.758C40.3582 118.849 40.1057 118.849 39.9442 118.758L36.5817 116.819C36.4201 116.729 36.4201 116.577 36.5817 116.486L39.1061 115.022C39.2676 114.931 39.5201 114.931 39.6816 115.022L43.0442 116.961Z" fill="#4D4D4D"/>
<path d="M65.7032 114.426L63.1182 115.931C62.9769 116.011 62.7547 116.011 62.6134 115.931L60.0082 114.426C59.9375 114.386 59.8971 114.335 59.8971 114.275V114.578C59.8971 114.628 59.9274 114.689 60.0082 114.729L62.6134 116.234C62.7547 116.314 62.987 116.314 63.1182 116.234L65.7032 114.729C65.7739 114.689 65.8042 114.638 65.8042 114.588V114.285C65.8042 114.335 65.7739 114.386 65.7032 114.426Z" fill="#1F2125"/>
<path d="M65.6931 114.133C65.8345 114.214 65.8345 114.345 65.6931 114.426L63.1081 115.931C62.9668 116.011 62.7446 116.011 62.6032 115.931L59.9981 114.426C59.8567 114.345 59.8567 114.214 59.9981 114.133L62.583 112.629C62.7244 112.548 62.9466 112.548 63.0879 112.629L65.6931 114.133Z" fill="#4D4D4D"/>
<path d="M60.7553 115.497L58.1704 117.001C58.029 117.082 57.7967 117.082 57.6554 117.001L55.0502 115.497C54.9795 115.456 54.9492 115.406 54.9492 115.345V115.648C54.9492 115.699 54.9795 115.759 55.0502 115.8L57.6554 117.304C57.7967 117.385 58.029 117.385 58.1704 117.304L60.7553 115.8C60.826 115.759 60.8563 115.709 60.8563 115.648V115.345C60.8563 115.396 60.826 115.456 60.7553 115.497Z" fill="#1F2125"/>
<path d="M60.7553 115.204C60.8967 115.285 60.8967 115.416 60.7553 115.497L58.1703 117.001C58.029 117.082 57.7967 117.082 57.6554 117.001L55.0502 115.497C54.9088 115.416 54.9088 115.285 55.0502 115.204L57.6352 113.699C57.7765 113.618 58.0088 113.618 58.1501 113.699L60.7553 115.204Z" fill="#4D4D4D"/>
<path d="M57.9785 117.92L55.3935 119.424C55.2522 119.505 55.0199 119.505 54.8785 119.424L52.2734 117.92C52.2027 117.879 52.1623 117.829 52.1623 117.768V118.071C52.1623 118.122 52.1926 118.182 52.2734 118.223L54.8785 119.727C55.0199 119.808 55.2522 119.808 55.3935 119.727L57.9785 118.223C58.0492 118.182 58.0795 118.132 58.0795 118.071V117.768C58.0795 117.819 58.0492 117.879 57.9785 117.92Z" fill="#1F2125"/>
<path d="M57.9785 117.617C58.1198 117.698 58.1198 117.829 57.9785 117.91L55.3935 119.414C55.2521 119.495 55.0199 119.495 54.8785 119.414L52.2733 117.91C52.132 117.829 52.132 117.698 52.2733 117.617L54.8583 116.112C54.9997 116.032 55.2319 116.032 55.3733 116.112L57.9785 117.617Z" fill="#4D4D4D"/>
<path d="M52.6772 118.889L50.0923 120.394C49.9509 120.475 49.7186 120.475 49.5773 120.394L46.9721 118.889C46.9014 118.849 46.861 118.798 46.861 118.738V119.041C46.861 119.091 46.8913 119.152 46.9721 119.192L49.5773 120.697C49.7186 120.778 49.9509 120.778 50.0923 120.697L52.6772 119.192C52.7479 119.152 52.7782 119.101 52.7782 119.041V118.738C52.7782 118.788 52.7479 118.849 52.6772 118.889Z" fill="#1F2125"/>
<path d="M52.6772 118.596C52.8186 118.677 52.8186 118.808 52.6772 118.889L50.0922 120.394C49.9508 120.475 49.7186 120.475 49.5772 120.394L46.9721 118.889C46.8307 118.808 46.8307 118.677 46.9721 118.596L49.557 117.092C49.6984 117.011 49.9307 117.011 50.072 117.092L52.6772 118.596Z" fill="#4D4D4D"/>
<path d="M46.6793 119.364L44.1044 120.858C43.963 120.939 43.7308 120.939 43.5793 120.858L40.8429 119.273C40.7722 119.233 40.7318 119.172 40.7318 119.122V119.425C40.7318 119.475 40.7621 119.536 40.8429 119.576L43.5793 121.151C43.7207 121.232 43.9529 121.232 44.1044 121.151L46.6793 119.657C46.75 119.616 46.7904 119.566 46.7904 119.505V119.202C46.7904 119.253 46.7601 119.313 46.6894 119.354L46.6793 119.364Z" fill="#1F2125"/>
<path d="M46.6793 119.061C46.8206 119.142 46.8206 119.283 46.6793 119.364L44.1044 120.858C43.963 120.939 43.7308 120.939 43.5793 120.858L40.8428 119.273C40.7015 119.192 40.7015 119.051 40.8428 118.97L43.4177 117.476C43.5591 117.395 43.7913 117.395 43.9428 117.476L46.6793 119.051V119.061Z" fill="#4D4D4D"/>
<path d="M48.8704 122.282L47.6486 122.999C47.5476 123.059 47.376 123.059 47.275 122.999L44.3972 121.333C44.3467 121.302 44.3164 121.262 44.3164 121.222V121.525C44.3164 121.525 44.3366 121.605 44.3972 121.636L47.275 123.302C47.376 123.362 47.5476 123.362 47.6486 123.302L48.8704 122.585C48.9209 122.555 48.9512 122.514 48.9512 122.474V122.171C48.9512 122.171 48.931 122.252 48.8805 122.282H48.8704Z" fill="#1F2125"/>
<path d="M48.8704 122.06C48.9714 122.12 48.9815 122.221 48.8704 122.282L47.6486 122.999C47.5476 123.06 47.3759 123.06 47.275 122.999L44.3971 121.333C44.2962 121.272 44.2962 121.181 44.3971 121.121L45.619 120.404C45.7199 120.343 45.8916 120.343 45.9926 120.404L48.8704 122.07V122.06Z" fill="#4D4D4D"/>
<path d="M73.8418 116.143L72.0849 117.163C71.9839 117.223 71.8122 117.223 71.7112 117.163L69.6513 115.971C69.6009 115.941 69.5706 115.9 69.5706 115.86V116.163C69.5706 116.163 69.5908 116.244 69.6513 116.274L71.7112 117.466C71.8122 117.526 71.9839 117.526 72.0849 117.466L73.8418 116.446C73.8923 116.415 73.9226 116.375 73.9226 116.335V116.032C73.9226 116.032 73.9024 116.113 73.8418 116.143Z" fill="#1F2125"/>
<path d="M73.8418 115.931C73.9428 115.991 73.9428 116.082 73.8418 116.143L72.0848 117.163C71.9838 117.223 71.8122 117.223 71.7112 117.163L69.6513 115.971C69.5503 115.911 69.5503 115.82 69.6513 115.759L71.4083 114.739C71.5093 114.679 71.6809 114.679 71.7819 114.739L73.8418 115.931Z" fill="#4D4D4D"/>
<path d="M71.1963 117.688L68.7527 119.101C68.5709 119.202 68.2781 119.202 68.0964 119.101L63.5524 116.476C63.4616 116.425 63.4111 116.355 63.4111 116.284V116.587C63.4111 116.658 63.4616 116.728 63.5524 116.779L68.0964 119.404C68.2781 119.505 68.5709 119.505 68.7527 119.404L71.1963 117.99C71.2872 117.94 71.3276 117.869 71.3276 117.799V117.496C71.3276 117.566 71.2872 117.637 71.1963 117.688Z" fill="#1F2125"/>
<path d="M71.1862 117.304C71.368 117.405 71.368 117.577 71.1862 117.688L68.7426 119.101C68.5608 119.202 68.268 119.202 68.0862 119.101L63.5423 116.476C63.3606 116.375 63.3606 116.203 63.5423 116.092L65.9859 114.679C66.1677 114.578 66.4605 114.578 66.6423 114.679L71.1862 117.304Z" fill="#4D4D4D"/>
<path d="M64.3198 117.556L61.7348 119.061C61.5934 119.142 61.3612 119.142 61.2198 119.061L58.6146 117.556C58.544 117.516 58.5137 117.466 58.5137 117.405V117.708C58.5137 117.758 58.544 117.819 58.6146 117.859L61.2198 119.364C61.3612 119.445 61.5934 119.445 61.7348 119.364L64.3198 117.859C64.3905 117.819 64.4208 117.769 64.4208 117.708V117.405C64.4208 117.456 64.3905 117.516 64.3198 117.556Z" fill="#1F2125"/>
<path d="M64.3097 117.254C64.4511 117.334 64.4511 117.466 64.3097 117.546L61.7247 119.051C61.5834 119.132 61.3511 119.132 61.2097 119.051L58.6046 117.546C58.4632 117.466 58.4632 117.334 58.6046 117.254L61.1895 115.749C61.3309 115.668 61.5632 115.668 61.7045 115.749L64.3097 117.254Z" fill="#4D4D4D"/>
<path d="M61.5228 119.96L58.9378 121.464C58.7964 121.545 58.5642 121.545 58.4228 121.464L55.8176 119.96C55.7469 119.919 55.7065 119.869 55.7065 119.808V120.111C55.7065 120.162 55.7368 120.222 55.8176 120.263L58.4228 121.767C58.5642 121.848 58.7964 121.848 58.9378 121.767L61.5228 120.263C61.5935 120.222 61.6237 120.172 61.6237 120.111V119.808C61.6237 119.859 61.5935 119.919 61.5228 119.96Z" fill="#1F2125"/>
<path d="M61.5227 119.667C61.6641 119.748 61.6641 119.879 61.5227 119.96L58.9377 121.464C58.7964 121.545 58.5641 121.545 58.4228 121.464L55.8176 119.96C55.6762 119.879 55.6762 119.748 55.8176 119.667L58.4026 118.162C58.5439 118.082 58.7762 118.082 58.9175 118.162L61.5227 119.667Z" fill="#4D4D4D"/>
<path d="M67.8742 119.606L65.2892 121.111C65.1478 121.192 64.9257 121.192 64.7742 121.111L62.169 119.606C62.0983 119.566 62.0681 119.515 62.0681 119.455V119.758C62.0681 119.808 62.0983 119.869 62.169 119.909L64.7742 121.414C64.9156 121.495 65.1478 121.495 65.2892 121.414L67.8742 119.909C67.9449 119.869 67.9752 119.818 67.9752 119.758V119.455C67.9752 119.505 67.9449 119.566 67.8742 119.606Z" fill="#1F2125"/>
<path d="M67.8742 119.313C68.0155 119.394 68.0155 119.525 67.8742 119.606L65.2892 121.111C65.1478 121.192 64.9156 121.192 64.7742 121.111L62.169 119.606C62.0276 119.525 62.0276 119.394 62.169 119.313L64.754 117.809C64.8954 117.728 65.1276 117.728 65.269 117.809L67.8742 119.313Z" fill="#4D4D4D"/>
<path d="M64.4309 121.616L61.7853 123.15C61.6642 123.221 61.4622 123.221 61.3309 123.15L59.3518 122.009C59.2912 121.969 59.2609 121.929 59.2609 121.878V122.181C59.2609 122.181 59.2912 122.282 59.3518 122.312L61.3309 123.453C61.4521 123.524 61.6541 123.524 61.7853 123.453L64.4309 121.919C64.4915 121.878 64.5218 121.838 64.5218 121.787V121.484C64.5218 121.484 64.4915 121.575 64.4309 121.616Z" fill="#1F2125"/>
<path d="M64.4309 121.353C64.5521 121.424 64.5521 121.545 64.4309 121.616L61.7853 123.151C61.6641 123.221 61.4622 123.221 61.3309 123.151L59.3518 122.01C59.2306 121.939 59.2205 121.818 59.3518 121.747L61.9974 120.212C62.1185 120.142 62.3306 120.142 62.4517 120.212L64.4309 121.353Z" fill="#4D4D4D"/>
<path d="M60.7755 123.736L58.4834 125.069C58.2612 125.2 57.8977 125.2 57.6756 125.069L50.6173 120.99C50.5063 120.929 50.4457 120.838 50.4457 120.757V121.06C50.4457 121.141 50.4962 121.232 50.6173 121.293L57.6756 125.372C57.8977 125.503 58.2612 125.503 58.4834 125.372L60.7755 124.039C60.8866 123.978 60.9371 123.888 60.9371 123.807V123.504C60.9371 123.585 60.8866 123.676 60.7755 123.736Z" fill="#1F2125"/>
<path d="M60.7755 123.272C60.9976 123.403 60.9976 123.615 60.7755 123.736L58.4833 125.069C58.2612 125.2 57.8977 125.2 57.6755 125.069L50.6173 120.99C50.3951 120.858 50.3951 120.646 50.6173 120.525L52.9095 119.192C53.1316 119.061 53.4951 119.061 53.7173 119.192L60.7755 123.272Z" fill="#4D4D4D"/>
<path d="M53.9596 123.565L51.3847 125.059C51.2434 125.14 51.0111 125.14 50.8597 125.059L48.1232 123.474C48.0525 123.433 48.0121 123.373 48.0121 123.322V123.625C48.0121 123.676 48.0424 123.736 48.1232 123.777L50.8597 125.352C51.001 125.433 51.2333 125.433 51.3847 125.352L53.9596 123.857C54.0303 123.817 54.0707 123.767 54.0707 123.706V123.403C54.0707 123.454 54.0404 123.514 53.9697 123.555L53.9596 123.565Z" fill="#1F2125"/>
<path d="M53.9596 123.262C54.101 123.342 54.101 123.484 53.9596 123.565L51.3847 125.059C51.2433 125.14 51.0111 125.14 50.8596 125.059L48.1232 123.474C47.9818 123.393 47.9818 123.252 48.1232 123.171L50.6981 121.676C50.8394 121.596 51.0717 121.596 51.2231 121.676L53.9596 123.252V123.262Z" fill="#4D4D4D"/>
<path d="M56.1004 126.453L54.8786 127.17C54.7776 127.23 54.6059 127.23 54.505 127.17L51.617 125.503C51.5665 125.473 51.5363 125.433 51.5363 125.392V125.695C51.5363 125.695 51.5665 125.776 51.617 125.806L54.505 127.472C54.6059 127.533 54.7776 127.533 54.8786 127.472L56.1004 126.756C56.1509 126.725 56.1812 126.685 56.1812 126.644V126.342C56.1812 126.342 56.161 126.422 56.1105 126.453H56.1004Z" fill="#1F2125"/>
<path d="M56.1003 126.23C56.2013 126.291 56.2013 126.382 56.1003 126.442L54.8785 127.159C54.7775 127.22 54.6059 127.22 54.5049 127.159L51.617 125.493C51.516 125.433 51.516 125.342 51.617 125.281L52.8388 124.564C52.9398 124.504 53.1114 124.504 53.2124 124.564L56.1003 126.23Z" fill="#4D4D4D"/>
<path d="M47.9819 49.6802L32.4416 78.9935C31.2703 81.3261 32.2498 84.1635 34.6126 85.2742C37.0462 86.4254 39.9341 85.2743 40.9236 82.7801L51.4454 54.3857L47.9819 49.6802Z" fill="#424242"/>
<path d="M55.1613 12.9653C50.1831 10.0875 45.6695 9.82493 42.408 11.7132L39.0455 13.662C42.307 11.7637 46.8206 12.0363 51.7988 14.9141C61.7045 20.6294 69.7018 34.4934 69.6715 45.8734C69.6513 51.5281 67.6621 55.4964 64.441 57.3746L67.8035 55.4257C71.0246 53.5577 73.0138 49.5792 73.034 43.9246C73.0643 32.5445 65.067 18.6805 55.1613 12.9653Z" fill="#424242"/>
<path d="M51.7887 14.9141C41.893 9.19884 33.8351 13.8033 33.8048 25.1733C33.7745 36.5533 41.7819 50.4173 51.6776 56.1224C61.5834 61.8478 69.6413 57.2534 69.6715 45.8835C69.7119 34.5034 61.7045 20.6394 51.7988 14.9141H51.7887ZM51.6776 53.5374C43.024 48.5391 36.0263 36.422 36.0566 26.4657C36.0869 16.5196 43.1249 12.5008 51.7786 17.4991C60.4524 22.4974 67.44 34.6145 67.4198 44.5708C67.3895 54.5169 60.3514 58.5257 51.6776 53.5273V53.5374Z" fill="#333333"/>
<g style="mix-blend-mode:screen" opacity="0.6">
<path d="M51.7887 17.499C60.4524 22.4974 67.4501 34.6246 67.4198 44.5707C67.3895 54.5169 60.3514 58.5357 51.6877 53.5273C43.034 48.529 36.0364 36.4119 36.0667 26.4657C36.097 16.5196 43.135 12.5007 51.7988 17.499H51.7887Z" fill="#EDEDED"/>
</g>
<path d="M53.4043 51.8714C44.7507 46.8731 37.753 34.756 37.7833 24.8098C37.7833 21.3867 38.6517 18.6806 40.1058 16.7822C37.6117 18.5392 36.0667 21.8512 36.0566 26.4759C36.0263 36.4221 43.024 48.5392 51.6776 53.5375C57.3626 56.8193 62.3205 56.2033 65.0872 52.5984C62.2094 54.618 58.0391 54.5473 53.4043 51.8714Z" fill="#424242"/>
<g style="mix-blend-mode:screen" opacity="0.9">
<path d="M50.0923 23.3759C56.161 26.8797 61.0684 35.3718 61.0482 42.3493C61.028 49.3166 56.0903 52.1338 50.0216 48.63C43.953 45.1261 39.0556 36.634 39.0758 29.6667C39.096 22.6993 44.0337 19.8821 50.0923 23.3859V23.3759Z" fill="#EDEDED"/>
</g>
<path d="M96.5009 132.238C95.9253 132.571 94.9963 132.571 94.4208 132.238L79.3148 123.453C78.7493 123.12 78.7493 122.585 79.3248 122.252L94.5319 113.467C95.0973 113.133 96.0364 113.133 96.6019 113.467L111.708 122.252C112.283 122.585 112.273 123.13 111.708 123.453L96.5009 132.238Z" fill="#F2F2F2"/>
<path d="M96.4201 130.885L110.213 122.918C110.476 122.767 110.607 122.565 110.607 122.363V120.969C110.607 121.171 110.466 121.373 110.203 121.515L96.41 129.482C95.885 129.784 95.0469 129.784 94.5218 129.482L80.8193 121.515C80.5669 121.363 80.4356 121.171 80.4356 120.979V122.373C80.4356 122.565 80.5669 122.767 80.8294 122.908L94.5319 130.875C95.057 131.178 95.8951 131.178 96.4201 130.875V130.885Z" fill="#FFAD66"/>
<path d="M96.41 129.502C95.8849 129.805 95.0468 129.805 94.5218 129.502L80.8193 121.535C80.3043 121.232 80.3043 120.747 80.8294 120.444L94.6227 112.477C95.1377 112.174 95.9859 112.174 96.5009 112.477L110.203 120.444C110.728 120.747 110.718 121.242 110.203 121.535L96.41 129.502Z" fill="#FFD166"/>
<path d="M90.7654 118.304L91.6742 120.293L90.8361 120.777L89.2811 117.455L95.0367 118.354L94.1986 118.839L90.7654 118.314V118.304Z" fill="black"/>
<path d="M91.3309 122.393L90.624 121.989C93.1787 121.313 95.0973 120.808 96.3696 120.464L99.2474 119.707L99.9542 120.111L91.3309 122.393Z" fill="black"/>
<path d="M99.8836 123.574L98.9647 121.585L99.7927 121.111L101.358 124.433L95.5921 123.534L96.4403 123.049L99.8836 123.585V123.574Z" fill="black"/>
<path d="M86.6557 149.747C86.0802 150.081 85.1512 150.081 84.5756 149.747L69.4696 140.963C68.9041 140.629 68.9041 140.094 69.4797 139.761L84.6867 130.976C85.2522 130.643 86.1912 130.643 86.7567 130.976L101.863 139.761C102.438 140.094 102.428 140.639 101.863 140.963L86.6557 149.747Z" fill="#F2F2F2"/>
<path d="M86.575 148.405L100.368 140.438C100.631 140.286 100.762 140.084 100.762 139.892V138.499C100.762 138.701 100.621 138.903 100.358 139.054L86.5649 147.021C86.0398 147.324 85.2017 147.324 84.6766 147.021L70.9742 139.054C70.7217 138.903 70.5905 138.711 70.5905 138.519V139.912C70.5905 140.104 70.7217 140.306 70.9843 140.448L84.6867 148.415C85.2118 148.718 86.0499 148.718 86.575 148.415V148.405Z" fill="#1F2125"/>
<path d="M86.5649 147.011C86.0398 147.314 85.2017 147.314 84.6766 147.011L70.9742 139.044C70.4592 138.741 70.4592 138.256 70.9843 137.953L84.7776 129.986C85.2926 129.684 86.1408 129.684 86.6557 129.986L100.358 137.953C100.883 138.256 100.873 138.751 100.358 139.044L86.5649 147.011Z" fill="#4D4D4D"/>
<path d="M86.8072 136.358C87.9987 136.065 89.0893 135.914 90.099 135.894L90.4424 136.58C89.4831 136.621 88.4935 136.782 87.4737 137.045C86.4437 137.317 85.4844 137.711 84.5656 138.236C83.6568 138.761 82.96 139.327 82.4955 139.912C82.031 140.508 81.7584 141.074 81.6978 141.629L80.4962 141.437C80.5265 140.851 80.7991 140.215 81.304 139.529C81.8089 138.842 82.5662 138.216 83.5558 137.64C84.5454 137.065 85.6359 136.641 86.8274 136.348L86.8072 136.358Z" fill="white"/>
</g>
<defs>
<clipPath id="clip0_249_1118">
<rect width="123.363" height="150" fill="white" transform="translate(0.0687256)"/>
</clipPath>
</defs>
</svg>
